<?xml version="1.0" encoding="UTF-8" standalone="no"?>
<!DOCTYPE svg PUBLIC "-//W3C//DTD SVG 1.1//EN"
 "http://www.w3.org/Graphics/SVG/1.1/DTD/svg11.dtd">
<!-- Generated by graphviz version 2.43.0 (0)
 -->
<!-- Title: src/action/Action.h Pages: 1 -->
<svg width="3368pt" height="214pt"
 viewBox="0.00 0.00 3367.50 214.00" xmlns="http://www.w3.org/2000/svg" xmlns:xlink="http://www.w3.org/1999/xlink">
<g id="graph0" class="graph" transform="scale(1 1) rotate(0) translate(4 210)">
<title>src/action/Action.h</title>
<!-- Node1 -->
<g id="node1" class="node">
<title>Node1</title>
<g id="a_node1"><a xlink:title=" ">
<polygon fill="#999999" stroke="#666666" points="1891.5,-206 1784.5,-206 1784.5,-187 1891.5,-187 1891.5,-206"/>
<text text-anchor="middle" x="1838" y="-194" font-family="Helvetica,sans-Serif" font-size="10.00">src/action/Action.h</text>
</a>
</g>
</g>
<!-- Node2 -->
<g id="node2" class="node">
<title>Node2</title>
<g id="a_node2"><a xlink:href="ForEachAction_8h.html" target="_top" xlink:title=" ">
<polygon fill="white" stroke="#666666" points="420.5,-151 275.5,-151 275.5,-132 420.5,-132 420.5,-151"/>
<text text-anchor="middle" x="348" y="-139" font-family="Helvetica,sans-Serif" font-size="10.00">src/action/ForEachAction.h</text>
</a>
</g>
</g>
<!-- Node1&#45;&gt;Node2 -->
<g id="edge1" class="edge">
<title>Node1&#45;&gt;Node2</title>
<path fill="none" stroke="#63b8ff" d="M1774.07,-193.23C1532.55,-184.64 676.54,-154.19 420.72,-145.09"/>
<polygon fill="#63b8ff" stroke="#63b8ff" points="1773.97,-196.72 1784.09,-193.58 1774.22,-189.73 1773.97,-196.72"/>
</g>
<!-- Node11 -->
<g id="node11" class="node">
<title>Node11</title>
<g id="a_node11"><a xlink:href="OnceAction_8h.html" target="_top" xlink:title=" ">
<polygon fill="white" stroke="#666666" points="1903.5,-151 1772.5,-151 1772.5,-132 1903.5,-132 1903.5,-151"/>
<text text-anchor="middle" x="1838" y="-139" font-family="Helvetica,sans-Serif" font-size="10.00">src/action/OnceAction.h</text>
</a>
</g>
</g>
<!-- Node1&#45;&gt;Node11 -->
<g id="edge12" class="edge">
<title>Node1&#45;&gt;Node11</title>
<path fill="none" stroke="#63b8ff" d="M1838,-176.66C1838,-167.93 1838,-157.99 1838,-151.09"/>
<polygon fill="#63b8ff" stroke="#63b8ff" points="1834.5,-176.75 1838,-186.75 1841.5,-176.75 1834.5,-176.75"/>
</g>
<!-- Node41 -->
<g id="node41" class="node">
<title>Node41</title>
<g id="a_node41"><a xlink:href="Interface_8h.html" target="_top" xlink:title=" ">
<polygon fill="white" stroke="#666666" points="3232.5,-151 3099.5,-151 3099.5,-132 3232.5,-132 3232.5,-151"/>
<text text-anchor="middle" x="3166" y="-139" font-family="Helvetica,sans-Serif" font-size="10.00">src/interface/Interface.h</text>
</a>
</g>
</g>
<!-- Node1&#45;&gt;Node41 -->
<g id="edge56" class="edge">
<title>Node1&#45;&gt;Node41</title>
<path fill="none" stroke="#63b8ff" d="M1901.96,-192.95C2125.63,-184.02 2871.55,-154.25 3099.36,-145.16"/>
<polygon fill="#63b8ff" stroke="#63b8ff" points="1901.56,-189.46 1891.7,-193.36 1901.84,-196.46 1901.56,-189.46"/>
</g>
<!-- Node3 -->
<g id="node3" class="node">
<title>Node3</title>
<g id="a_node3"><a xlink:href="ForEachAction_8cpp.html" target="_top" xlink:title=" ">
<polygon fill="white" stroke="#666666" points="278,-90.5 122,-90.5 122,-71.5 278,-71.5 278,-90.5"/>
<text text-anchor="middle" x="200" y="-78.5" font-family="Helvetica,sans-Serif" font-size="10.00">src/action/ForEachAction.cpp</text>
</a>
</g>
</g>
<!-- Node2&#45;&gt;Node3 -->
<g id="edge2" class="edge">
<title>Node2&#45;&gt;Node3</title>
<path fill="none" stroke="#63b8ff" d="M316.96,-128.23C288.36,-116.92 246.66,-100.44 221.55,-90.52"/>
<polygon fill="#63b8ff" stroke="#63b8ff" points="315.89,-131.57 326.48,-131.99 318.47,-125.06 315.89,-131.57"/>
</g>
<!-- Node4 -->
<g id="node4" class="node">
<title>Node4</title>
<g id="a_node4"><a xlink:href="CopyAction_8h.html" target="_top" xlink:title=" ">
<polygon fill="white" stroke="#666666" points="400,-96 296,-96 296,-66 400,-66 400,-96"/>
<text text-anchor="start" x="304" y="-84" font-family="Helvetica,sans-Serif" font-size="10.00">src/action/foreach</text>
<text text-anchor="middle" x="348" y="-73" font-family="Helvetica,sans-Serif" font-size="10.00">/CopyAction.h</text>
</a>
</g>
</g>
<!-- Node2&#45;&gt;Node4 -->
<g id="edge3" class="edge">
<title>Node2&#45;&gt;Node4</title>
<path fill="none" stroke="#63b8ff" d="M348,-121.65C348,-113.36 348,-103.78 348,-96.11"/>
<polygon fill="#63b8ff" stroke="#63b8ff" points="344.5,-121.87 348,-131.87 351.5,-121.87 344.5,-121.87"/>
</g>
<!-- Node7 -->
<g id="node7" class="node">
<title>Node7</title>
<g id="a_node7"><a xlink:href="DeleteAction_8h.html" target="_top" xlink:title=" ">
<polygon fill="white" stroke="#666666" points="522,-96 418,-96 418,-66 522,-66 522,-96"/>
<text text-anchor="start" x="426" y="-84" font-family="Helvetica,sans-Serif" font-size="10.00">src/action/foreach</text>
<text text-anchor="middle" x="470" y="-73" font-family="Helvetica,sans-Serif" font-size="10.00">/DeleteAction.h</text>
</a>
</g>
</g>
<!-- Node2&#45;&gt;Node7 -->
<g id="edge6" class="edge">
<title>Node2&#45;&gt;Node7</title>
<path fill="none" stroke="#63b8ff" d="M374.93,-127.59C394.31,-118.29 420.47,-105.75 440.43,-96.18"/>
<polygon fill="#63b8ff" stroke="#63b8ff" points="373.24,-124.51 365.74,-131.99 376.27,-130.83 373.24,-124.51"/>
</g>
<!-- Node9 -->
<g id="node9" class="node">
<title>Node9</title>
<g id="a_node9"><a xlink:href="MoveAction_8h.html" target="_top" xlink:title=" ">
<polygon fill="white" stroke="#666666" points="104,-96 0,-96 0,-66 104,-66 104,-96"/>
<text text-anchor="start" x="8" y="-84" font-family="Helvetica,sans-Serif" font-size="10.00">src/action/foreach</text>
<text text-anchor="middle" x="52" y="-73" font-family="Helvetica,sans-Serif" font-size="10.00">/MoveAction.h</text>
</a>
</g>
</g>
<!-- Node2&#45;&gt;Node9 -->
<g id="edge9" class="edge">
<title>Node2&#45;&gt;Node9</title>
<path fill="none" stroke="#63b8ff" d="M289.61,-130.09C241.98,-121.44 173.01,-108.56 113,-96 110.13,-95.4 107.18,-94.77 104.21,-94.12"/>
<polygon fill="#63b8ff" stroke="#63b8ff" points="289.27,-133.58 299.73,-131.92 290.52,-126.7 289.27,-133.58"/>
</g>
<!-- Node5 -->
<g id="node5" class="node">
<title>Node5</title>
<g id="a_node5"><a xlink:href="CopyAction_8cpp.html" target="_top" xlink:title=" ">
<polygon fill="white" stroke="#666666" points="394,-30 290,-30 290,0 394,0 394,-30"/>
<text text-anchor="start" x="298" y="-18" font-family="Helvetica,sans-Serif" font-size="10.00">src/action/foreach</text>
<text text-anchor="middle" x="342" y="-7" font-family="Helvetica,sans-Serif" font-size="10.00">/CopyAction.cpp</text>
</a>
</g>
</g>
<!-- Node4&#45;&gt;Node5 -->
<g id="edge4" class="edge">
<title>Node4&#45;&gt;Node5</title>
<path fill="none" stroke="#63b8ff" d="M345.73,-55.83C344.92,-47.17 344.03,-37.7 343.33,-30.16"/>
<polygon fill="#63b8ff" stroke="#63b8ff" points="342.25,-56.17 346.67,-65.8 349.22,-55.51 342.25,-56.17"/>
</g>
<!-- Node6 -->
<g id="node6" class="node">
<title>Node6</title>
<g id="a_node6"><a xlink:href="main_8cpp.html" target="_top" xlink:title=" ">
<polygon fill="white" stroke="#666666" points="1670.5,-24.5 1591.5,-24.5 1591.5,-5.5 1670.5,-5.5 1670.5,-24.5"/>
<text text-anchor="middle" x="1631" y="-12.5" font-family="Helvetica,sans-Serif" font-size="10.00">src/main.cpp</text>
</a>
</g>
</g>
<!-- Node4&#45;&gt;Node6 -->
<g id="edge5" class="edge">
<title>Node4&#45;&gt;Node6</title>
<path fill="none" stroke="#63b8ff" d="M410.1,-66.06C928.1,-0.75 1069.9,-109.75 1582,-30 1589.78,-28.79 1598.07,-26.73 1605.58,-24.55"/>
<polygon fill="#63b8ff" stroke="#63b8ff" points="409.6,-62.6 400.12,-67.33 410.49,-69.54 409.6,-62.6"/>
</g>
<!-- Node7&#45;&gt;Node6 -->
<g id="edge8" class="edge">
<title>Node7&#45;&gt;Node6</title>
<path fill="none" stroke="#63b8ff" d="M532.1,-66.06C996.25,-6.82 1123.58,-102.23 1582,-30 1589.78,-28.77 1598.07,-26.71 1605.58,-24.54"/>
<polygon fill="#63b8ff" stroke="#63b8ff" points="531.59,-62.59 522.12,-67.35 532.49,-69.53 531.59,-62.59"/>
</g>
<!-- Node8 -->
<g id="node8" class="node">
<title>Node8</title>
<g id="a_node8"><a xlink:href="DeleteAction_8cpp.html" target="_top" xlink:title=" ">
<polygon fill="white" stroke="#666666" points="516,-30 412,-30 412,0 516,0 516,-30"/>
<text text-anchor="start" x="420" y="-18" font-family="Helvetica,sans-Serif" font-size="10.00">src/action/foreach</text>
<text text-anchor="middle" x="464" y="-7" font-family="Helvetica,sans-Serif" font-size="10.00">/DeleteAction.cpp</text>
</a>
</g>
</g>
<!-- Node7&#45;&gt;Node8 -->
<g id="edge7" class="edge">
<title>Node7&#45;&gt;Node8</title>
<path fill="none" stroke="#63b8ff" d="M467.73,-55.83C466.92,-47.17 466.03,-37.7 465.33,-30.16"/>
<polygon fill="#63b8ff" stroke="#63b8ff" points="464.25,-56.17 468.67,-65.8 471.22,-55.51 464.25,-56.17"/>
</g>
<!-- Node9&#45;&gt;Node6 -->
<g id="edge11" class="edge">
<title>Node9&#45;&gt;Node6</title>
<path fill="none" stroke="#63b8ff" d="M114.19,-66.06C762.8,13.99 939.7,-128 1582,-30 1589.87,-28.8 1598.26,-26.71 1605.84,-24.51"/>
<polygon fill="#63b8ff" stroke="#63b8ff" points="113.61,-62.6 104.12,-67.31 114.48,-69.55 113.61,-62.6"/>
</g>
<!-- Node10 -->
<g id="node10" class="node">
<title>Node10</title>
<g id="a_node10"><a xlink:href="MoveAction_8cpp.html" target="_top" xlink:title=" ">
<polygon fill="white" stroke="#666666" points="104,-30 0,-30 0,0 104,0 104,-30"/>
<text text-anchor="start" x="8" y="-18" font-family="Helvetica,sans-Serif" font-size="10.00">src/action/foreach</text>
<text text-anchor="middle" x="52" y="-7" font-family="Helvetica,sans-Serif" font-size="10.00">/MoveAction.cpp</text>
</a>
</g>
</g>
<!-- Node9&#45;&gt;Node10 -->
<g id="edge10" class="edge">
<title>Node9&#45;&gt;Node10</title>
<path fill="none" stroke="#63b8ff" d="M52,-55.54C52,-46.96 52,-37.61 52,-30.16"/>
<polygon fill="#63b8ff" stroke="#63b8ff" points="48.5,-55.8 52,-65.8 55.5,-55.8 48.5,-55.8"/>
</g>
<!-- Node12 -->
<g id="node12" class="node">
<title>Node12</title>
<g id="a_node12"><a xlink:href="OnceAction_8cpp.html" target="_top" xlink:title=" ">
<polygon fill="white" stroke="#666666" points="2556.5,-90.5 2413.5,-90.5 2413.5,-71.5 2556.5,-71.5 2556.5,-90.5"/>
<text text-anchor="middle" x="2485" y="-78.5" font-family="Helvetica,sans-Serif" font-size="10.00">src/action/OnceAction.cpp</text>
</a>
</g>
</g>
<!-- Node11&#45;&gt;Node12 -->
<g id="edge13" class="edge">
<title>Node11&#45;&gt;Node12</title>
<path fill="none" stroke="#63b8ff" d="M1913.78,-136.78C2022.58,-130.93 2229.2,-117.93 2404,-96 2415.75,-94.53 2428.4,-92.54 2440.12,-90.52"/>
<polygon fill="#63b8ff" stroke="#63b8ff" points="1913.37,-133.3 1903.57,-137.32 1913.74,-140.29 1913.37,-133.3"/>
</g>
<!-- Node13 -->
<g id="node13" class="node">
<title>Node13</title>
<g id="a_node13"><a xlink:href="ConcatAction_8h.html" target="_top" xlink:title=" ">
<polygon fill="white" stroke="#666666" points="2741.5,-90.5 2574.5,-90.5 2574.5,-71.5 2741.5,-71.5 2741.5,-90.5"/>
<text text-anchor="middle" x="2658" y="-78.5" font-family="Helvetica,sans-Serif" font-size="10.00">src/action/once/ConcatAction.h</text>
</a>
</g>
</g>
<!-- Node11&#45;&gt;Node13 -->
<g id="edge14" class="edge">
<title>Node11&#45;&gt;Node13</title>
<path fill="none" stroke="#63b8ff" d="M1913.87,-138.06C2046.3,-133.31 2328.16,-121.03 2565,-96 2578.64,-94.56 2593.34,-92.56 2606.94,-90.52"/>
<polygon fill="#63b8ff" stroke="#63b8ff" points="1913.69,-134.57 1903.82,-138.42 1913.94,-141.56 1913.69,-134.57"/>
</g>
<!-- Node15 -->
<g id="node15" class="node">
<title>Node15</title>
<g id="a_node15"><a xlink:href="CreateFileAction_8h.html" target="_top" xlink:title=" ">
<polygon fill="white" stroke="#666666" points="2902.5,-96 2759.5,-96 2759.5,-66 2902.5,-66 2902.5,-96"/>
<text text-anchor="start" x="2767.5" y="-84" font-family="Helvetica,sans-Serif" font-size="10.00">src/action/once/CreateFile</text>
<text text-anchor="middle" x="2831" y="-73" font-family="Helvetica,sans-Serif" font-size="10.00">Action.h</text>
</a>
</g>
</g>
<!-- Node11&#45;&gt;Node15 -->
<g id="edge17" class="edge">
<title>Node11&#45;&gt;Node15</title>
<path fill="none" stroke="#63b8ff" d="M1913.75,-139.93C2070.38,-138.07 2441.06,-130.11 2750,-96 2752.98,-95.67 2756.01,-95.3 2759.08,-94.9"/>
<polygon fill="#63b8ff" stroke="#63b8ff" points="1913.7,-136.43 1903.74,-140.05 1913.78,-143.43 1913.7,-136.43"/>
</g>
<!-- Node17 -->
<g id="node17" class="node">
<title>Node17</title>
<g id="a_node17"><a xlink:href="CreateFolderAction_8h.html" target="_top" xlink:title=" ">
<polygon fill="white" stroke="#666666" points="3075.5,-96 2920.5,-96 2920.5,-66 3075.5,-66 3075.5,-96"/>
<text text-anchor="start" x="2928.5" y="-84" font-family="Helvetica,sans-Serif" font-size="10.00">src/action/once/CreateFolder</text>
<text text-anchor="middle" x="2998" y="-73" font-family="Helvetica,sans-Serif" font-size="10.00">Action.h</text>
</a>
</g>
</g>
<!-- Node11&#45;&gt;Node17 -->
<g id="edge20" class="edge">
<title>Node11&#45;&gt;Node17</title>
<path fill="none" stroke="#63b8ff" d="M1913.68,-140.43C2089.33,-139.59 2538.14,-133.6 2911,-96 2914.04,-95.69 2917.14,-95.35 2920.27,-94.97"/>
<polygon fill="#63b8ff" stroke="#63b8ff" points="1913.49,-136.93 1903.51,-140.47 1913.53,-143.93 1913.49,-136.93"/>
</g>
<!-- Node19 -->
<g id="node19" class="node">
<title>Node19</title>
<g id="a_node19"><a xlink:href="CreateSymlinkAction_8h.html" target="_top" xlink:title=" ">
<polygon fill="white" stroke="#666666" points="705.5,-96 540.5,-96 540.5,-66 705.5,-66 705.5,-96"/>
<text text-anchor="start" x="548.5" y="-84" font-family="Helvetica,sans-Serif" font-size="10.00">src/action/once/CreateSymlink</text>
<text text-anchor="middle" x="623" y="-73" font-family="Helvetica,sans-Serif" font-size="10.00">Action.h</text>
</a>
</g>
</g>
<!-- Node11&#45;&gt;Node19 -->
<g id="edge23" class="edge">
<title>Node11&#45;&gt;Node19</title>
<path fill="none" stroke="#63b8ff" d="M1762.09,-140.4C1580.66,-139.54 1107.74,-133.55 715,-96 711.94,-95.71 708.84,-95.38 705.7,-95.03"/>
<polygon fill="#63b8ff" stroke="#63b8ff" points="1762.31,-143.91 1772.32,-140.45 1762.34,-136.91 1762.31,-143.91"/>
</g>
<!-- Node21 -->
<g id="node21" class="node">
<title>Node21</title>
<g id="a_node21"><a xlink:href="CursorDownAction_8h.html" target="_top" xlink:title=" ">
<polygon fill="white" stroke="#666666" points="876,-96 724,-96 724,-66 876,-66 876,-96"/>
<text text-anchor="start" x="732" y="-84" font-family="Helvetica,sans-Serif" font-size="10.00">src/action/once/CursorDown</text>
<text text-anchor="middle" x="800" y="-73" font-family="Helvetica,sans-Serif" font-size="10.00">Action.h</text>
</a>
</g>
</g>
<!-- Node11&#45;&gt;Node21 -->
<g id="edge26" class="edge">
<title>Node11&#45;&gt;Node21</title>
<path fill="none" stroke="#63b8ff" d="M1761.91,-139.95C1600.08,-138.13 1209.98,-130.23 885,-96 882.17,-95.7 879.3,-95.37 876.4,-95.01"/>
<polygon fill="#63b8ff" stroke="#63b8ff" points="1762.19,-143.46 1772.23,-140.06 1762.27,-136.46 1762.19,-143.46"/>
</g>
<!-- Node23 -->
<g id="node23" class="node">
<title>Node23</title>
<g id="a_node23"><a xlink:href="CursorUpAction_8h.html" target="_top" xlink:title=" ">
<polygon fill="white" stroke="#666666" points="1032,-96 894,-96 894,-66 1032,-66 1032,-96"/>
<text text-anchor="start" x="902" y="-84" font-family="Helvetica,sans-Serif" font-size="10.00">src/action/once/CursorUp</text>
<text text-anchor="middle" x="963" y="-73" font-family="Helvetica,sans-Serif" font-size="10.00">Action.h</text>
</a>
</g>
</g>
<!-- Node11&#45;&gt;Node23 -->
<g id="edge29" class="edge">
<title>Node11&#45;&gt;Node23</title>
<path fill="none" stroke="#63b8ff" d="M1762.09,-139.34C1620.07,-136.48 1304.69,-126.91 1041,-96 1038.13,-95.66 1035.21,-95.29 1032.26,-94.88"/>
<polygon fill="#63b8ff" stroke="#63b8ff" points="1762.36,-142.84 1772.42,-139.54 1762.49,-135.84 1762.36,-142.84"/>
</g>
<!-- Node25 -->
<g id="node25" class="node">
<title>Node25</title>
<g id="a_node25"><a xlink:href="DeduplicateAction_8h.html" target="_top" xlink:title=" ">
<polygon fill="white" stroke="#666666" points="1202,-96 1050,-96 1050,-66 1202,-66 1202,-96"/>
<text text-anchor="start" x="1058" y="-84" font-family="Helvetica,sans-Serif" font-size="10.00">src/action/once/Deduplicate</text>
<text text-anchor="middle" x="1126" y="-73" font-family="Helvetica,sans-Serif" font-size="10.00">Action.h</text>
</a>
</g>
</g>
<!-- Node11&#45;&gt;Node25 -->
<g id="edge32" class="edge">
<title>Node11&#45;&gt;Node25</title>
<path fill="none" stroke="#63b8ff" d="M1762.35,-137.39C1644.3,-132.03 1409.25,-119.31 1211,-96 1208.18,-95.67 1205.31,-95.31 1202.41,-94.93"/>
<polygon fill="#63b8ff" stroke="#63b8ff" points="1762.22,-140.89 1772.37,-137.84 1762.54,-133.89 1762.22,-140.89"/>
</g>
<!-- Node27 -->
<g id="node27" class="node">
<title>Node27</title>
<g id="a_node27"><a xlink:href="GoBackAction_8h.html" target="_top" xlink:title=" ">
<polygon fill="white" stroke="#666666" points="1390,-90.5 1220,-90.5 1220,-71.5 1390,-71.5 1390,-90.5"/>
<text text-anchor="middle" x="1305" y="-78.5" font-family="Helvetica,sans-Serif" font-size="10.00">src/action/once/GoBackAction.h</text>
</a>
</g>
</g>
<!-- Node11&#45;&gt;Node27 -->
<g id="edge35" class="edge">
<title>Node11&#45;&gt;Node27</title>
<path fill="none" stroke="#63b8ff" d="M1762.33,-133.91C1674.74,-126.04 1526.23,-111.91 1399,-96 1386.07,-94.38 1372.16,-92.43 1359.12,-90.5"/>
<polygon fill="#63b8ff" stroke="#63b8ff" points="1762.17,-137.41 1772.44,-134.82 1762.79,-130.44 1762.17,-137.41"/>
</g>
<!-- Node29 -->
<g id="node29" class="node">
<title>Node29</title>
<g id="a_node29"><a xlink:href="ManualSelectAction_8h.html" target="_top" xlink:title=" ">
<polygon fill="white" stroke="#666666" points="1567.5,-96 1408.5,-96 1408.5,-66 1567.5,-66 1567.5,-96"/>
<text text-anchor="start" x="1416.5" y="-84" font-family="Helvetica,sans-Serif" font-size="10.00">src/action/once/ManualSelect</text>
<text text-anchor="middle" x="1488" y="-73" font-family="Helvetica,sans-Serif" font-size="10.00">Action.h</text>
</a>
</g>
</g>
<!-- Node11&#45;&gt;Node29 -->
<g id="edge38" class="edge">
<title>Node11&#45;&gt;Node29</title>
<path fill="none" stroke="#63b8ff" d="M1776.99,-130.3C1718.96,-120.6 1631.33,-105.96 1567.78,-95.33"/>
<polygon fill="#63b8ff" stroke="#63b8ff" points="1776.67,-133.8 1787.11,-131.99 1777.82,-126.89 1776.67,-133.8"/>
</g>
<!-- Node31 -->
<g id="node31" class="node">
<title>Node31</title>
<g id="a_node31"><a xlink:href="OpenAction_8h.html" target="_top" xlink:title=" ">
<polygon fill="white" stroke="#666666" points="1743,-90.5 1585,-90.5 1585,-71.5 1743,-71.5 1743,-90.5"/>
<text text-anchor="middle" x="1664" y="-78.5" font-family="Helvetica,sans-Serif" font-size="10.00">src/action/once/OpenAction.h</text>
</a>
</g>
</g>
<!-- Node11&#45;&gt;Node31 -->
<g id="edge41" class="edge">
<title>Node11&#45;&gt;Node31</title>
<path fill="none" stroke="#63b8ff" d="M1802.82,-128.67C1769.17,-117.36 1719.24,-100.57 1689.33,-90.52"/>
<polygon fill="#63b8ff" stroke="#63b8ff" points="1802.1,-132.12 1812.7,-131.99 1804.34,-125.49 1802.1,-132.12"/>
</g>
<!-- Node33 -->
<g id="node33" class="node">
<title>Node33</title>
<g id="a_node33"><a xlink:href="QuitAction_8h.html" target="_top" xlink:title=" ">
<polygon fill="white" stroke="#666666" points="1914.5,-90.5 1761.5,-90.5 1761.5,-71.5 1914.5,-71.5 1914.5,-90.5"/>
<text text-anchor="middle" x="1838" y="-78.5" font-family="Helvetica,sans-Serif" font-size="10.00">src/action/once/QuitAction.h</text>
</a>
</g>
</g>
<!-- Node11&#45;&gt;Node33 -->
<g id="edge44" class="edge">
<title>Node11&#45;&gt;Node33</title>
<path fill="none" stroke="#63b8ff" d="M1838,-121.66C1838,-111.24 1838,-98.8 1838,-90.67"/>
<polygon fill="#63b8ff" stroke="#63b8ff" points="1834.5,-121.87 1838,-131.87 1841.5,-121.87 1834.5,-121.87"/>
</g>
<!-- Node35 -->
<g id="node35" class="node">
<title>Node35</title>
<g id="a_node35"><a xlink:href="RegexSelectAction_8h.html" target="_top" xlink:title=" ">
<polygon fill="white" stroke="#666666" points="2087,-96 1933,-96 1933,-66 2087,-66 2087,-96"/>
<text text-anchor="start" x="1941" y="-84" font-family="Helvetica,sans-Serif" font-size="10.00">src/action/once/RegexSelect</text>
<text text-anchor="middle" x="2010" y="-73" font-family="Helvetica,sans-Serif" font-size="10.00">Action.h</text>
</a>
</g>
</g>
<!-- Node11&#45;&gt;Node35 -->
<g id="edge47" class="edge">
<title>Node11&#45;&gt;Node35</title>
<path fill="none" stroke="#63b8ff" d="M1872.67,-128.71C1900.39,-119.28 1939.31,-106.04 1968.65,-96.06"/>
<polygon fill="#63b8ff" stroke="#63b8ff" points="1871.35,-125.46 1863.01,-131.99 1873.6,-132.09 1871.35,-125.46"/>
</g>
<!-- Node37 -->
<g id="node37" class="node">
<title>Node37</title>
<g id="a_node37"><a xlink:href="SelectByContentAction_8h.html" target="_top" xlink:title=" ">
<polygon fill="white" stroke="#666666" points="2241,-96 2105,-96 2105,-66 2241,-66 2241,-96"/>
<text text-anchor="start" x="2113" y="-84" font-family="Helvetica,sans-Serif" font-size="10.00">src/action/once/SelectBy</text>
<text text-anchor="middle" x="2173" y="-73" font-family="Helvetica,sans-Serif" font-size="10.00">ContentAction.h</text>
</a>
</g>
</g>
<!-- Node11&#45;&gt;Node37 -->
<g id="edge50" class="edge">
<title>Node11&#45;&gt;Node37</title>
<path fill="none" stroke="#63b8ff" d="M1898.56,-130.21C1950.86,-121.29 2028.45,-107.97 2096,-96 2098.94,-95.48 2101.95,-94.94 2104.99,-94.4"/>
<polygon fill="#63b8ff" stroke="#63b8ff" points="1897.72,-126.81 1888.45,-131.94 1898.9,-133.71 1897.72,-126.81"/>
</g>
<!-- Node39 -->
<g id="node39" class="node">
<title>Node39</title>
<g id="a_node39"><a xlink:href="UnselectAllAction_8h.html" target="_top" xlink:title=" ">
<polygon fill="white" stroke="#666666" points="2395,-96 2259,-96 2259,-66 2395,-66 2395,-96"/>
<text text-anchor="start" x="2267" y="-84" font-family="Helvetica,sans-Serif" font-size="10.00">src/action/once/Unselect</text>
<text text-anchor="middle" x="2327" y="-73" font-family="Helvetica,sans-Serif" font-size="10.00">AllAction.h</text>
</a>
</g>
</g>
<!-- Node11&#45;&gt;Node39 -->
<g id="edge53" class="edge">
<title>Node11&#45;&gt;Node39</title>
<path fill="none" stroke="#63b8ff" d="M1913.91,-133.96C1996.73,-126.43 2133.12,-112.92 2250,-96 2252.82,-95.59 2255.7,-95.16 2258.61,-94.7"/>
<polygon fill="#63b8ff" stroke="#63b8ff" points="1913.48,-130.48 1903.83,-134.87 1914.11,-137.45 1913.48,-130.48"/>
</g>
<!-- Node13&#45;&gt;Node6 -->
<g id="edge16" class="edge">
<title>Node13&#45;&gt;Node6</title>
<path fill="none" stroke="#63b8ff" d="M2598.01,-69.99C2587.05,-68.44 2575.7,-67.02 2565,-66 2173.12,-28.64 2068.66,-92.51 1680,-30 1672.23,-28.75 1663.93,-26.68 1656.43,-24.5"/>
<polygon fill="#63b8ff" stroke="#63b8ff" points="2597.53,-73.46 2607.93,-71.44 2598.54,-66.53 2597.53,-73.46"/>
</g>
<!-- Node14 -->
<g id="node14" class="node">
<title>Node14</title>
<g id="a_node14"><a xlink:href="ConcatAction_8cpp.html" target="_top" xlink:title=" ">
<polygon fill="white" stroke="#666666" points="2741,-24.5 2563,-24.5 2563,-5.5 2741,-5.5 2741,-24.5"/>
<text text-anchor="middle" x="2652" y="-12.5" font-family="Helvetica,sans-Serif" font-size="10.00">src/action/once/ConcatAction.cpp</text>
</a>
</g>
</g>
<!-- Node13&#45;&gt;Node14 -->
<g id="edge15" class="edge">
<title>Node13&#45;&gt;Node14</title>
<path fill="none" stroke="#63b8ff" d="M2656.23,-61.08C2655.11,-49.13 2653.71,-34.22 2652.83,-24.91"/>
<polygon fill="#63b8ff" stroke="#63b8ff" points="2652.77,-61.74 2657.19,-71.37 2659.74,-61.09 2652.77,-61.74"/>
</g>
<!-- Node15&#45;&gt;Node6 -->
<g id="edge19" class="edge">
<title>Node15&#45;&gt;Node6</title>
<path fill="none" stroke="#63b8ff" d="M2748.89,-66.01C2274.86,-18.58 2146.72,-103.39 1680,-30 1672.22,-28.78 1663.93,-26.71 1656.42,-24.54"/>
<polygon fill="#63b8ff" stroke="#63b8ff" points="2748.78,-69.51 2759.08,-67.04 2749.49,-62.55 2748.78,-69.51"/>
</g>
<!-- Node16 -->
<g id="node16" class="node">
<title>Node16</title>
<g id="a_node16"><a xlink:href="CreateFileAction_8cpp.html" target="_top" xlink:title=" ">
<polygon fill="white" stroke="#666666" points="2902.5,-30 2759.5,-30 2759.5,0 2902.5,0 2902.5,-30"/>
<text text-anchor="start" x="2767.5" y="-18" font-family="Helvetica,sans-Serif" font-size="10.00">src/action/once/CreateFile</text>
<text text-anchor="middle" x="2831" y="-7" font-family="Helvetica,sans-Serif" font-size="10.00">Action.cpp</text>
</a>
</g>
</g>
<!-- Node15&#45;&gt;Node16 -->
<g id="edge18" class="edge">
<title>Node15&#45;&gt;Node16</title>
<path fill="none" stroke="#63b8ff" d="M2831,-55.54C2831,-46.96 2831,-37.61 2831,-30.16"/>
<polygon fill="#63b8ff" stroke="#63b8ff" points="2827.5,-55.8 2831,-65.8 2834.5,-55.8 2827.5,-55.8"/>
</g>
<!-- Node17&#45;&gt;Node6 -->
<g id="edge22" class="edge">
<title>Node17&#45;&gt;Node6</title>
<path fill="none" stroke="#63b8ff" d="M2910.17,-66.03C2364.3,-15.62 2217.59,-113.32 1680,-30 1672.22,-28.79 1663.93,-26.73 1656.42,-24.56"/>
<polygon fill="#63b8ff" stroke="#63b8ff" points="2909.99,-69.53 2920.28,-66.98 2910.65,-62.56 2909.99,-69.53"/>
</g>
<!-- Node18 -->
<g id="node18" class="node">
<title>Node18</title>
<g id="a_node18"><a xlink:href="CreateFolderAction_8cpp.html" target="_top" xlink:title=" ">
<polygon fill="white" stroke="#666666" points="3075.5,-30 2920.5,-30 2920.5,0 3075.5,0 3075.5,-30"/>
<text text-anchor="start" x="2928.5" y="-18" font-family="Helvetica,sans-Serif" font-size="10.00">src/action/once/CreateFolder</text>
<text text-anchor="middle" x="2998" y="-7" font-family="Helvetica,sans-Serif" font-size="10.00">Action.cpp</text>
</a>
</g>
</g>
<!-- Node17&#45;&gt;Node18 -->
<g id="edge21" class="edge">
<title>Node17&#45;&gt;Node18</title>
<path fill="none" stroke="#63b8ff" d="M2998,-55.54C2998,-46.96 2998,-37.61 2998,-30.16"/>
<polygon fill="#63b8ff" stroke="#63b8ff" points="2994.5,-55.8 2998,-65.8 3001.5,-55.8 2994.5,-55.8"/>
</g>
<!-- Node19&#45;&gt;Node6 -->
<g id="edge25" class="edge">
<title>Node19&#45;&gt;Node6</title>
<path fill="none" stroke="#63b8ff" d="M715.71,-66.03C1100.65,-29.99 1204.51,-90.88 1582,-30 1589.69,-28.76 1597.88,-26.72 1605.32,-24.57"/>
<polygon fill="#63b8ff" stroke="#63b8ff" points="715.32,-62.55 705.7,-66.98 715.99,-69.52 715.32,-62.55"/>
</g>
<!-- Node20 -->
<g id="node20" class="node">
<title>Node20</title>
<g id="a_node20"><a xlink:href="CreateSymlinkAction_8cpp.html" target="_top" xlink:title=" ">
<polygon fill="white" stroke="#666666" points="699.5,-30 534.5,-30 534.5,0 699.5,0 699.5,-30"/>
<text text-anchor="start" x="542.5" y="-18" font-family="Helvetica,sans-Serif" font-size="10.00">src/action/once/CreateSymlink</text>
<text text-anchor="middle" x="617" y="-7" font-family="Helvetica,sans-Serif" font-size="10.00">Action.cpp</text>
</a>
</g>
</g>
<!-- Node19&#45;&gt;Node20 -->
<g id="edge24" class="edge">
<title>Node19&#45;&gt;Node20</title>
<path fill="none" stroke="#63b8ff" d="M620.73,-55.83C619.92,-47.17 619.03,-37.7 618.33,-30.16"/>
<polygon fill="#63b8ff" stroke="#63b8ff" points="617.25,-56.17 621.67,-65.8 624.22,-55.51 617.25,-56.17"/>
</g>
<!-- Node21&#45;&gt;Node6 -->
<g id="edge28" class="edge">
<title>Node21&#45;&gt;Node6</title>
<path fill="none" stroke="#63b8ff" d="M886.54,-65.93C1195.2,-33.77 1279.31,-80.39 1582,-30 1589.68,-28.72 1597.87,-26.67 1605.31,-24.52"/>
<polygon fill="#63b8ff" stroke="#63b8ff" points="885.98,-62.47 876.4,-67 886.71,-69.43 885.98,-62.47"/>
</g>
<!-- Node22 -->
<g id="node22" class="node">
<title>Node22</title>
<g id="a_node22"><a xlink:href="CursorDownAction_8cpp.html" target="_top" xlink:title=" ">
<polygon fill="white" stroke="#666666" points="870,-30 718,-30 718,0 870,0 870,-30"/>
<text text-anchor="start" x="726" y="-18" font-family="Helvetica,sans-Serif" font-size="10.00">src/action/once/CursorDown</text>
<text text-anchor="middle" x="794" y="-7" font-family="Helvetica,sans-Serif" font-size="10.00">Action.cpp</text>
</a>
</g>
</g>
<!-- Node21&#45;&gt;Node22 -->
<g id="edge27" class="edge">
<title>Node21&#45;&gt;Node22</title>
<path fill="none" stroke="#63b8ff" d="M797.73,-55.83C796.92,-47.17 796.03,-37.7 795.33,-30.16"/>
<polygon fill="#63b8ff" stroke="#63b8ff" points="794.25,-56.17 798.67,-65.8 801.22,-55.51 794.25,-56.17"/>
</g>
<!-- Node23&#45;&gt;Node6 -->
<g id="edge31" class="edge">
<title>Node23&#45;&gt;Node6</title>
<path fill="none" stroke="#63b8ff" d="M1042.33,-65.94C1281.98,-37.6 1347.84,-70.77 1582,-30 1589.58,-28.68 1597.67,-26.64 1605.05,-24.52"/>
<polygon fill="#63b8ff" stroke="#63b8ff" points="1041.77,-62.48 1032.26,-67.16 1042.61,-69.43 1041.77,-62.48"/>
</g>
<!-- Node24 -->
<g id="node24" class="node">
<title>Node24</title>
<g id="a_node24"><a xlink:href="CursorUpAction_8cpp.html" target="_top" xlink:title=" ">
<polygon fill="white" stroke="#666666" points="1026,-30 888,-30 888,0 1026,0 1026,-30"/>
<text text-anchor="start" x="896" y="-18" font-family="Helvetica,sans-Serif" font-size="10.00">src/action/once/CursorUp</text>
<text text-anchor="middle" x="957" y="-7" font-family="Helvetica,sans-Serif" font-size="10.00">Action.cpp</text>
</a>
</g>
</g>
<!-- Node23&#45;&gt;Node24 -->
<g id="edge30" class="edge">
<title>Node23&#45;&gt;Node24</title>
<path fill="none" stroke="#63b8ff" d="M960.73,-55.83C959.92,-47.17 959.03,-37.7 958.33,-30.16"/>
<polygon fill="#63b8ff" stroke="#63b8ff" points="957.25,-56.17 961.67,-65.8 964.22,-55.51 957.25,-56.17"/>
</g>
<!-- Node25&#45;&gt;Node6 -->
<g id="edge34" class="edge">
<title>Node25&#45;&gt;Node6</title>
<path fill="none" stroke="#63b8ff" d="M1212.4,-65.88C1377.03,-45.15 1422.42,-60.28 1582,-30 1589.39,-28.6 1597.27,-26.58 1604.51,-24.52"/>
<polygon fill="#63b8ff" stroke="#63b8ff" points="1211.89,-62.42 1202.42,-67.17 1212.78,-69.36 1211.89,-62.42"/>
</g>
<!-- Node26 -->
<g id="node26" class="node">
<title>Node26</title>
<g id="a_node26"><a xlink:href="DeduplicateAction_8cpp.html" target="_top" xlink:title=" ">
<polygon fill="white" stroke="#666666" points="1196,-30 1044,-30 1044,0 1196,0 1196,-30"/>
<text text-anchor="start" x="1052" y="-18" font-family="Helvetica,sans-Serif" font-size="10.00">src/action/once/Deduplicate</text>
<text text-anchor="middle" x="1120" y="-7" font-family="Helvetica,sans-Serif" font-size="10.00">Action.cpp</text>
</a>
</g>
</g>
<!-- Node25&#45;&gt;Node26 -->
<g id="edge33" class="edge">
<title>Node25&#45;&gt;Node26</title>
<path fill="none" stroke="#63b8ff" d="M1123.73,-55.83C1122.92,-47.17 1122.03,-37.7 1121.33,-30.16"/>
<polygon fill="#63b8ff" stroke="#63b8ff" points="1120.25,-56.17 1124.67,-65.8 1127.22,-55.51 1120.25,-56.17"/>
</g>
<!-- Node27&#45;&gt;Node6 -->
<g id="edge37" class="edge">
<title>Node27&#45;&gt;Node6</title>
<path fill="none" stroke="#63b8ff" d="M1371.78,-69.86C1428.12,-60.85 1510.75,-46.56 1582,-30 1588.81,-28.42 1596.08,-26.48 1602.88,-24.55"/>
<polygon fill="#63b8ff" stroke="#63b8ff" points="1370.9,-66.46 1361.57,-71.48 1372,-73.37 1370.9,-66.46"/>
</g>
<!-- Node28 -->
<g id="node28" class="node">
<title>Node28</title>
<g id="a_node28"><a xlink:href="GoBackAction_8cpp.html" target="_top" xlink:title=" ">
<polygon fill="white" stroke="#666666" points="1396,-24.5 1214,-24.5 1214,-5.5 1396,-5.5 1396,-24.5"/>
<text text-anchor="middle" x="1305" y="-12.5" font-family="Helvetica,sans-Serif" font-size="10.00">src/action/once/GoBackAction.cpp</text>
</a>
</g>
</g>
<!-- Node27&#45;&gt;Node28 -->
<g id="edge36" class="edge">
<title>Node27&#45;&gt;Node28</title>
<path fill="none" stroke="#63b8ff" d="M1305,-61.08C1305,-49.13 1305,-34.22 1305,-24.91"/>
<polygon fill="#63b8ff" stroke="#63b8ff" points="1301.5,-61.37 1305,-71.37 1308.5,-61.37 1301.5,-61.37"/>
</g>
<!-- Node29&#45;&gt;Node6 -->
<g id="edge40" class="edge">
<title>Node29&#45;&gt;Node6</title>
<path fill="none" stroke="#63b8ff" d="M1528.71,-61.78C1556.05,-49.54 1590.82,-33.98 1611.97,-24.52"/>
<polygon fill="#63b8ff" stroke="#63b8ff" points="1527.08,-58.68 1519.38,-65.95 1529.94,-65.06 1527.08,-58.68"/>
</g>
<!-- Node30 -->
<g id="node30" class="node">
<title>Node30</title>
<g id="a_node30"><a xlink:href="ManualSelectAction_8cpp.html" target="_top" xlink:title=" ">
<polygon fill="white" stroke="#666666" points="1573.5,-30 1414.5,-30 1414.5,0 1573.5,0 1573.5,-30"/>
<text text-anchor="start" x="1422.5" y="-18" font-family="Helvetica,sans-Serif" font-size="10.00">src/action/once/ManualSelect</text>
<text text-anchor="middle" x="1494" y="-7" font-family="Helvetica,sans-Serif" font-size="10.00">Action.cpp</text>
</a>
</g>
</g>
<!-- Node29&#45;&gt;Node30 -->
<g id="edge39" class="edge">
<title>Node29&#45;&gt;Node30</title>
<path fill="none" stroke="#63b8ff" d="M1490.27,-55.83C1491.08,-47.17 1491.97,-37.7 1492.67,-30.16"/>
<polygon fill="#63b8ff" stroke="#63b8ff" points="1486.78,-55.51 1489.33,-65.8 1493.75,-56.17 1486.78,-55.51"/>
</g>
<!-- Node31&#45;&gt;Node6 -->
<g id="edge43" class="edge">
<title>Node31&#45;&gt;Node6</title>
<path fill="none" stroke="#63b8ff" d="M1654.81,-62.18C1648.56,-50.05 1640.54,-34.51 1635.59,-24.91"/>
<polygon fill="#63b8ff" stroke="#63b8ff" points="1651.86,-64.08 1659.55,-71.37 1658.08,-60.88 1651.86,-64.08"/>
</g>
<!-- Node32 -->
<g id="node32" class="node">
<title>Node32</title>
<g id="a_node32"><a xlink:href="OpenAction_8cpp.html" target="_top" xlink:title=" ">
<polygon fill="white" stroke="#666666" points="1859,-24.5 1689,-24.5 1689,-5.5 1859,-5.5 1859,-24.5"/>
<text text-anchor="middle" x="1774" y="-12.5" font-family="Helvetica,sans-Serif" font-size="10.00">src/action/once/OpenAction.cpp</text>
</a>
</g>
</g>
<!-- Node31&#45;&gt;Node32 -->
<g id="edge42" class="edge">
<title>Node31&#45;&gt;Node32</title>
<path fill="none" stroke="#63b8ff" d="M1687.74,-66.19C1709.38,-53.59 1740.71,-35.37 1759.05,-24.7"/>
<polygon fill="#63b8ff" stroke="#63b8ff" points="1685.72,-63.31 1678.84,-71.37 1689.24,-69.36 1685.72,-63.31"/>
</g>
<!-- Node33&#45;&gt;Node6 -->
<g id="edge46" class="edge">
<title>Node33&#45;&gt;Node6</title>
<path fill="none" stroke="#63b8ff" d="M1800.49,-68.4C1759.67,-55.78 1695.35,-35.89 1658.8,-24.6"/>
<polygon fill="#63b8ff" stroke="#63b8ff" points="1799.5,-71.76 1810.08,-71.37 1801.56,-65.07 1799.5,-71.76"/>
</g>
<!-- Node34 -->
<g id="node34" class="node">
<title>Node34</title>
<g id="a_node34"><a xlink:href="QuitAction_8cpp.html" target="_top" xlink:title=" ">
<polygon fill="white" stroke="#666666" points="2041,-24.5 1877,-24.5 1877,-5.5 2041,-5.5 2041,-24.5"/>
<text text-anchor="middle" x="1959" y="-12.5" font-family="Helvetica,sans-Serif" font-size="10.00">src/action/once/QuitAction.cpp</text>
</a>
</g>
</g>
<!-- Node33&#45;&gt;Node34 -->
<g id="edge45" class="edge">
<title>Node33&#45;&gt;Node34</title>
<path fill="none" stroke="#63b8ff" d="M1863.47,-66.53C1887.3,-53.92 1922.2,-35.47 1942.55,-24.7"/>
<polygon fill="#63b8ff" stroke="#63b8ff" points="1861.52,-63.6 1854.32,-71.37 1864.79,-69.79 1861.52,-63.6"/>
</g>
<!-- Node35&#45;&gt;Node6 -->
<g id="edge49" class="edge">
<title>Node35&#45;&gt;Node6</title>
<path fill="none" stroke="#63b8ff" d="M1922.58,-65.96C1813.37,-49.52 1783.59,-52.37 1680,-30 1673,-28.49 1665.52,-26.53 1658.57,-24.56"/>
<polygon fill="#63b8ff" stroke="#63b8ff" points="1922.27,-69.46 1932.69,-67.51 1923.33,-62.54 1922.27,-69.46"/>
</g>
<!-- Node36 -->
<g id="node36" class="node">
<title>Node36</title>
<g id="a_node36"><a xlink:href="RegexSelectAction_8cpp.html" target="_top" xlink:title=" ">
<polygon fill="white" stroke="#666666" points="2213,-30 2059,-30 2059,0 2213,0 2213,-30"/>
<text text-anchor="start" x="2067" y="-18" font-family="Helvetica,sans-Serif" font-size="10.00">src/action/once/RegexSelect</text>
<text text-anchor="middle" x="2136" y="-7" font-family="Helvetica,sans-Serif" font-size="10.00">Action.cpp</text>
</a>
</g>
</g>
<!-- Node35&#45;&gt;Node36 -->
<g id="edge48" class="edge">
<title>Node35&#45;&gt;Node36</title>
<path fill="none" stroke="#63b8ff" d="M2046.66,-61.38C2066.38,-51.36 2090.29,-39.22 2108.41,-30.01"/>
<polygon fill="#63b8ff" stroke="#63b8ff" points="2044.98,-58.31 2037.65,-65.95 2048.15,-64.55 2044.98,-58.31"/>
</g>
<!-- Node37&#45;&gt;Node6 -->
<g id="edge52" class="edge">
<title>Node37&#45;&gt;Node6</title>
<path fill="none" stroke="#63b8ff" d="M2094.6,-65.91C1910.28,-42.14 1859.3,-63.05 1680,-30 1672.6,-28.64 1664.72,-26.64 1657.48,-24.57"/>
<polygon fill="#63b8ff" stroke="#63b8ff" points="2094.25,-69.39 2104.62,-67.22 2095.16,-62.45 2094.25,-69.39"/>
</g>
<!-- Node38 -->
<g id="node38" class="node">
<title>Node38</title>
<g id="a_node38"><a xlink:href="SelectByContentAction_8cpp.html" target="_top" xlink:title=" ">
<polygon fill="white" stroke="#666666" points="2367,-30 2231,-30 2231,0 2367,0 2367,-30"/>
<text text-anchor="start" x="2239" y="-18" font-family="Helvetica,sans-Serif" font-size="10.00">src/action/once/SelectBy</text>
<text text-anchor="middle" x="2299" y="-7" font-family="Helvetica,sans-Serif" font-size="10.00">ContentAction.cpp</text>
</a>
</g>
</g>
<!-- Node37&#45;&gt;Node38 -->
<g id="edge51" class="edge">
<title>Node37&#45;&gt;Node38</title>
<path fill="none" stroke="#63b8ff" d="M2209.66,-61.38C2229.38,-51.36 2253.29,-39.22 2271.41,-30.01"/>
<polygon fill="#63b8ff" stroke="#63b8ff" points="2207.98,-58.31 2200.65,-65.95 2211.15,-64.55 2207.98,-58.31"/>
</g>
<!-- Node39&#45;&gt;Node6 -->
<g id="edge55" class="edge">
<title>Node39&#45;&gt;Node6</title>
<path fill="none" stroke="#63b8ff" d="M2248.42,-65.92C1996.21,-36.23 1926.85,-72.55 1680,-30 1672.41,-28.69 1664.33,-26.66 1656.95,-24.54"/>
<polygon fill="#63b8ff" stroke="#63b8ff" points="2248.28,-69.42 2258.63,-67.14 2249.12,-62.47 2248.28,-69.42"/>
</g>
<!-- Node40 -->
<g id="node40" class="node">
<title>Node40</title>
<g id="a_node40"><a xlink:href="UnselectAllAction_8cpp.html" target="_top" xlink:title=" ">
<polygon fill="white" stroke="#666666" points="2521,-30 2385,-30 2385,0 2521,0 2521,-30"/>
<text text-anchor="start" x="2393" y="-18" font-family="Helvetica,sans-Serif" font-size="10.00">src/action/once/Unselect</text>
<text text-anchor="middle" x="2453" y="-7" font-family="Helvetica,sans-Serif" font-size="10.00">AllAction.cpp</text>
</a>
</g>
</g>
<!-- Node39&#45;&gt;Node40 -->
<g id="edge54" class="edge">
<title>Node39&#45;&gt;Node40</title>
<path fill="none" stroke="#63b8ff" d="M2363.66,-61.38C2383.38,-51.36 2407.29,-39.22 2425.41,-30.01"/>
<polygon fill="#63b8ff" stroke="#63b8ff" points="2361.98,-58.31 2354.65,-65.95 2365.15,-64.55 2361.98,-58.31"/>
</g>
<!-- Node42 -->
<g id="node42" class="node">
<title>Node42</title>
<g id="a_node42"><a xlink:href="Application_8h.html" target="_top" xlink:title=" ">
<polygon fill="white" stroke="#666666" points="3354,-90.5 3256,-90.5 3256,-71.5 3354,-71.5 3354,-90.5"/>
<text text-anchor="middle" x="3305" y="-78.5" font-family="Helvetica,sans-Serif" font-size="10.00">src/Application.h</text>
</a>
</g>
</g>
<!-- Node41&#45;&gt;Node42 -->
<g id="edge57" class="edge">
<title>Node41&#45;&gt;Node42</title>
<path fill="none" stroke="#63b8ff" d="M3195.51,-128.08C3222.36,-116.78 3261.28,-100.4 3284.76,-90.52"/>
<polygon fill="#63b8ff" stroke="#63b8ff" points="3194.07,-124.89 3186.21,-131.99 3196.79,-131.34 3194.07,-124.89"/>
</g>
<!-- Node44 -->
<g id="node44" class="node">
<title>Node44</title>
<g id="a_node44"><a xlink:href="Interface_8cpp.html" target="_top" xlink:title=" ">
<polygon fill="white" stroke="#666666" points="3238,-90.5 3094,-90.5 3094,-71.5 3238,-71.5 3238,-90.5"/>
<text text-anchor="middle" x="3166" y="-78.5" font-family="Helvetica,sans-Serif" font-size="10.00">src/interface/Interface.cpp</text>
</a>
</g>
</g>
<!-- Node41&#45;&gt;Node44 -->
<g id="edge60" class="edge">
<title>Node41&#45;&gt;Node44</title>
<path fill="none" stroke="#63b8ff" d="M3166,-121.66C3166,-111.24 3166,-98.8 3166,-90.67"/>
<polygon fill="#63b8ff" stroke="#63b8ff" points="3162.5,-121.87 3166,-131.87 3169.5,-121.87 3162.5,-121.87"/>
</g>
<!-- Node42&#45;&gt;Node6 -->
<g id="edge59" class="edge">
<title>Node42&#45;&gt;Node6</title>
<path fill="none" stroke="#63b8ff" d="M3265.17,-69.2C3259.12,-67.91 3252.92,-66.77 3247,-66 2901.62,-20.88 2024.37,-82.27 1680,-30 1672.13,-28.81 1663.73,-26.72 1656.16,-24.52"/>
<polygon fill="#63b8ff" stroke="#63b8ff" points="3264.6,-72.66 3275.13,-71.5 3266.17,-65.84 3264.6,-72.66"/>
</g>
<!-- Node43 -->
<g id="node43" class="node">
<title>Node43</title>
<g id="a_node43"><a xlink:href="Application_8cpp.html" target="_top" xlink:title=" ">
<polygon fill="white" stroke="#666666" points="3359.5,-24.5 3250.5,-24.5 3250.5,-5.5 3359.5,-5.5 3359.5,-24.5"/>
<text text-anchor="middle" x="3305" y="-12.5" font-family="Helvetica,sans-Serif" font-size="10.00">src/Application.cpp</text>
</a>
</g>
</g>
<!-- Node42&#45;&gt;Node43 -->
<g id="edge58" class="edge">
<title>Node42&#45;&gt;Node43</title>
<path fill="none" stroke="#63b8ff" d="M3305,-61.08C3305,-49.13 3305,-34.22 3305,-24.91"/>
<polygon fill="#63b8ff" stroke="#63b8ff" points="3301.5,-61.37 3305,-71.37 3308.5,-61.37 3301.5,-61.37"/>
</g>
</g>
</svg>
