<?xml version="1.0" encoding="UTF-8" standalone="no"?>
<!DOCTYPE svg PUBLIC "-//W3C//DTD SVG 1.1//EN"
 "http://www.w3.org/Graphics/SVG/1.1/DTD/svg11.dtd">
<!-- Generated by graphviz version 2.43.0 (0)
 -->
<!-- Title: src/action/Action.h Pages: 1 -->
<svg width="305pt" height="247pt"
 viewBox="0.00 0.00 304.54 247.00" xmlns="http://www.w3.org/2000/svg" xmlns:xlink="http://www.w3.org/1999/xlink">
<g id="graph0" class="graph" transform="scale(1 1) rotate(0) translate(4 243)">
<title>src/action/Action.h</title>
<!-- Node1 -->
<g id="node1" class="node">
<title>Node1</title>
<g id="a_node1"><a xlink:title=" ">
<polygon fill="#999999" stroke="#666666" points="116.04,-239 9.04,-239 9.04,-220 116.04,-220 116.04,-239"/>
<text text-anchor="middle" x="62.54" y="-227" font-family="Helvetica,sans-Serif" font-size="10.00">src/action/Action.h</text>
</a>
</g>
</g>
<!-- Node2 -->
<g id="node2" class="node">
<title>Node2</title>
<g id="a_node2"><a xlink:title=" ">
<polygon fill="#e0e0e0" stroke="#999999" points="60.04,-129 13.04,-129 13.04,-110 60.04,-110 60.04,-129"/>
<text text-anchor="middle" x="36.54" y="-117" font-family="Helvetica,sans-Serif" font-size="10.00">vector</text>
</a>
</g>
</g>
<!-- Node1&#45;&gt;Node2 -->
<g id="edge1" class="edge">
<title>Node1&#45;&gt;Node2</title>
<path fill="none" stroke="#63b8ff" d="M59.44,-219.72C56.37,-210.81 51.69,-196.57 48.54,-184 44.82,-169.17 41.66,-152.13 39.51,-139.44"/>
<polygon fill="#63b8ff" stroke="#63b8ff" points="42.91,-138.51 37.85,-129.2 36,-139.63 42.91,-138.51"/>
</g>
<!-- Node3 -->
<g id="node3" class="node">
<title>Node3</title>
<g id="a_node3"><a xlink:title=" ">
<polygon fill="#e0e0e0" stroke="#999999" points="122.54,-19 54.54,-19 54.54,0 122.54,0 122.54,-19"/>
<text text-anchor="middle" x="88.54" y="-7" font-family="Helvetica,sans-Serif" font-size="10.00">filesystem</text>
</a>
</g>
</g>
<!-- Node1&#45;&gt;Node3 -->
<g id="edge2" class="edge">
<title>Node1&#45;&gt;Node3</title>
<path fill="none" stroke="#63b8ff" d="M52.71,-219.87C32.14,-200.71 -12.3,-152.91 3.54,-110 16.6,-74.59 48.5,-43.24 69.29,-25.59"/>
<polygon fill="#63b8ff" stroke="#63b8ff" points="71.68,-28.16 77.17,-19.1 67.23,-22.76 71.68,-28.16"/>
</g>
<!-- Node4 -->
<g id="node4" class="node">
<title>Node4</title>
<g id="a_node4"><a xlink:href="FileView_8h.html" target="_top" xlink:title=" ">
<polygon fill="white" stroke="#666666" points="133.04,-184 58.04,-184 58.04,-165 133.04,-165 133.04,-184"/>
<text text-anchor="middle" x="95.54" y="-172" font-family="Helvetica,sans-Serif" font-size="10.00">../FileView.h</text>
</a>
</g>
</g>
<!-- Node1&#45;&gt;Node4 -->
<g id="edge3" class="edge">
<title>Node1&#45;&gt;Node4</title>
<path fill="none" stroke="#63b8ff" d="M67.99,-219.75C72.55,-212.42 79.2,-201.73 84.83,-192.7"/>
<polygon fill="#63b8ff" stroke="#63b8ff" points="87.87,-194.43 90.19,-184.09 81.93,-190.73 87.87,-194.43"/>
</g>
<!-- Node7 -->
<g id="node7" class="node">
<title>Node7</title>
<g id="a_node7"><a xlink:href="State_8h.html" target="_top" xlink:title=" ">
<polygon fill="white" stroke="#666666" points="230.54,-184 170.54,-184 170.54,-165 230.54,-165 230.54,-184"/>
<text text-anchor="middle" x="200.54" y="-172" font-family="Helvetica,sans-Serif" font-size="10.00">../State.h</text>
</a>
</g>
</g>
<!-- Node1&#45;&gt;Node7 -->
<g id="edge9" class="edge">
<title>Node1&#45;&gt;Node7</title>
<path fill="none" stroke="#63b8ff" d="M84.71,-219.98C107.31,-211.3 142.6,-197.75 168.29,-187.88"/>
<polygon fill="#63b8ff" stroke="#63b8ff" points="169.88,-191.02 177.96,-184.17 167.37,-184.49 169.88,-191.02"/>
</g>
<!-- Node4&#45;&gt;Node2 -->
<g id="edge4" class="edge">
<title>Node4&#45;&gt;Node2</title>
<path fill="none" stroke="#63b8ff" d="M86.06,-164.98C77.34,-157.15 64.19,-145.34 53.64,-135.86"/>
<polygon fill="#63b8ff" stroke="#63b8ff" points="55.97,-133.25 46.19,-129.17 51.29,-138.46 55.97,-133.25"/>
</g>
<!-- Node4&#45;&gt;Node3 -->
<g id="edge5" class="edge">
<title>Node4&#45;&gt;Node3</title>
<path fill="none" stroke="#63b8ff" d="M95.16,-164.74C94.07,-139.31 90.88,-65.08 89.36,-29.69"/>
<polygon fill="#63b8ff" stroke="#63b8ff" points="92.84,-29.15 88.91,-19.31 85.85,-29.45 92.84,-29.15"/>
</g>
<!-- Node5 -->
<g id="node5" class="node">
<title>Node5</title>
<g id="a_node5"><a xlink:href="Entry_8h.html" target="_top" xlink:title=" ">
<polygon fill="white" stroke="#666666" points="220.54,-74 142.54,-74 142.54,-55 220.54,-55 220.54,-74"/>
<text text-anchor="middle" x="181.54" y="-62" font-family="Helvetica,sans-Serif" font-size="10.00">entry/Entry.h</text>
</a>
</g>
</g>
<!-- Node4&#45;&gt;Node5 -->
<g id="edge6" class="edge">
<title>Node4&#45;&gt;Node5</title>
<path fill="none" stroke="#63b8ff" d="M102.29,-164.84C111.87,-152.6 129.96,-129.52 145.54,-110 152.99,-100.66 161.38,-90.28 168.19,-81.89"/>
<polygon fill="#63b8ff" stroke="#63b8ff" points="171.01,-83.97 174.6,-74 165.58,-79.56 171.01,-83.97"/>
</g>
<!-- Node5&#45;&gt;Node3 -->
<g id="edge7" class="edge">
<title>Node5&#45;&gt;Node3</title>
<path fill="none" stroke="#63b8ff" d="M166.59,-54.98C152.04,-46.69 129.67,-33.94 112.6,-24.22"/>
<polygon fill="#63b8ff" stroke="#63b8ff" points="114.17,-21.08 103.75,-19.17 110.71,-27.16 114.17,-21.08"/>
</g>
<!-- Node6 -->
<g id="node6" class="node">
<title>Node6</title>
<g id="a_node6"><a xlink:href="Modifier_8h.html" target="_top" xlink:title=" ">
<polygon fill="white" stroke="#666666" points="214.04,-19 149.04,-19 149.04,0 214.04,0 214.04,-19"/>
<text text-anchor="middle" x="181.54" y="-7" font-family="Helvetica,sans-Serif" font-size="10.00">Modifier.h</text>
</a>
</g>
</g>
<!-- Node5&#45;&gt;Node6 -->
<g id="edge8" class="edge">
<title>Node5&#45;&gt;Node6</title>
<path fill="none" stroke="#63b8ff" d="M181.54,-54.75C181.54,-47.8 181.54,-37.85 181.54,-29.13"/>
<polygon fill="#63b8ff" stroke="#63b8ff" points="185.04,-29.09 181.54,-19.09 178.04,-29.09 185.04,-29.09"/>
</g>
<!-- Node7&#45;&gt;Node5 -->
<g id="edge11" class="edge">
<title>Node7&#45;&gt;Node5</title>
<path fill="none" stroke="#63b8ff" d="M200.47,-164.79C200.24,-152.47 199.29,-129.32 195.54,-110 193.84,-101.25 191.02,-91.81 188.35,-83.88"/>
<polygon fill="#63b8ff" stroke="#63b8ff" points="191.56,-82.47 184.92,-74.21 184.96,-84.81 191.56,-82.47"/>
</g>
<!-- Node8 -->
<g id="node8" class="node">
<title>Node8</title>
<g id="a_node8"><a xlink:title=" ">
<polygon fill="#e0e0e0" stroke="#999999" points="186.54,-129 154.54,-129 154.54,-110 186.54,-110 186.54,-129"/>
<text text-anchor="middle" x="170.54" y="-117" font-family="Helvetica,sans-Serif" font-size="10.00">set</text>
</a>
</g>
</g>
<!-- Node7&#45;&gt;Node8 -->
<g id="edge10" class="edge">
<title>Node7&#45;&gt;Node8</title>
<path fill="none" stroke="#63b8ff" d="M195.58,-164.75C191.48,-157.49 185.51,-146.95 180.43,-137.98"/>
<polygon fill="#63b8ff" stroke="#63b8ff" points="183.37,-136.07 175.4,-129.09 177.28,-139.52 183.37,-136.07"/>
</g>
<!-- Node9 -->
<g id="node9" class="node">
<title>Node9</title>
<g id="a_node9"><a xlink:href="Utility_8h.html" target="_top" xlink:title=" ">
<polygon fill="white" stroke="#666666" points="296.54,-129 242.54,-129 242.54,-110 296.54,-110 296.54,-129"/>
<text text-anchor="middle" x="269.54" y="-117" font-family="Helvetica,sans-Serif" font-size="10.00">Utility.h</text>
</a>
</g>
</g>
<!-- Node7&#45;&gt;Node9 -->
<g id="edge12" class="edge">
<title>Node7&#45;&gt;Node9</title>
<path fill="none" stroke="#63b8ff" d="M211.62,-164.98C222.02,-157 237.8,-144.88 250.26,-135.31"/>
<polygon fill="#63b8ff" stroke="#63b8ff" points="252.45,-138.04 258.25,-129.17 248.19,-132.49 252.45,-138.04"/>
</g>
<!-- Node9&#45;&gt;Node5 -->
<g id="edge14" class="edge">
<title>Node9&#45;&gt;Node5</title>
<path fill="none" stroke="#63b8ff" d="M255.4,-109.98C241.75,-101.77 220.85,-89.18 204.76,-79.49"/>
<polygon fill="#63b8ff" stroke="#63b8ff" points="206.3,-76.33 195.93,-74.17 202.69,-82.33 206.3,-76.33"/>
</g>
<!-- Node10 -->
<g id="node10" class="node">
<title>Node10</title>
<g id="a_node10"><a xlink:title=" ">
<polygon fill="#e0e0e0" stroke="#999999" points="291.54,-74 247.54,-74 247.54,-55 291.54,-55 291.54,-74"/>
<text text-anchor="middle" x="269.54" y="-62" font-family="Helvetica,sans-Serif" font-size="10.00">string</text>
</a>
</g>
</g>
<!-- Node9&#45;&gt;Node10 -->
<g id="edge13" class="edge">
<title>Node9&#45;&gt;Node10</title>
<path fill="none" stroke="#63b8ff" d="M269.54,-109.75C269.54,-102.8 269.54,-92.85 269.54,-84.13"/>
<polygon fill="#63b8ff" stroke="#63b8ff" points="273.04,-84.09 269.54,-74.09 266.04,-84.09 273.04,-84.09"/>
</g>
</g>
</svg>
