<?xml version="1.0" encoding="UTF-8" standalone="no"?>
<!DOCTYPE svg PUBLIC "-//W3C//DTD SVG 1.1//EN"
 "http://www.w3.org/Graphics/SVG/1.1/DTD/svg11.dtd">
<!-- Generated by graphviz version 2.43.0 (0)
 -->
<!-- Title: src/Application.h Pages: 1 -->
<svg width="440pt" height="357pt"
 viewBox="0.00 0.00 439.50 357.00" xmlns="http://www.w3.org/2000/svg" xmlns:xlink="http://www.w3.org/1999/xlink">
<g id="graph0" class="graph" transform="scale(1 1) rotate(0) translate(4 353)">
<title>src/Application.h</title>
<!-- Node1 -->
<g id="node1" class="node">
<title>Node1</title>
<g id="a_node1"><a xlink:title=" ">
<polygon fill="#999999" stroke="#666666" points="390.5,-349 292.5,-349 292.5,-330 390.5,-330 390.5,-349"/>
<text text-anchor="middle" x="341.5" y="-337" font-family="Helvetica,sans-Serif" font-size="10.00">src/Application.h</text>
</a>
</g>
</g>
<!-- Node2 -->
<g id="node2" class="node">
<title>Node2</title>
<g id="a_node2"><a xlink:href="Interface_8h.html" target="_top" xlink:title=" ">
<polygon fill="white" stroke="#666666" points="318.5,-294 202.5,-294 202.5,-275 318.5,-275 318.5,-294"/>
<text text-anchor="middle" x="260.5" y="-282" font-family="Helvetica,sans-Serif" font-size="10.00">interface/Interface.h</text>
</a>
</g>
</g>
<!-- Node1&#45;&gt;Node2 -->
<g id="edge1" class="edge">
<title>Node1&#45;&gt;Node2</title>
<path fill="none" stroke="#63b8ff" d="M328.49,-329.98C316.04,-321.84 297.04,-309.41 282.29,-299.76"/>
<polygon fill="#63b8ff" stroke="#63b8ff" points="284.04,-296.72 273.75,-294.17 280.2,-302.57 284.04,-296.72"/>
</g>
<!-- Node10 -->
<g id="node10" class="node">
<title>Node10</title>
<g id="a_node10"><a xlink:href="State_8h.html" target="_top" xlink:title=" ">
<polygon fill="white" stroke="#666666" points="362.5,-184 302.5,-184 302.5,-165 362.5,-165 362.5,-184"/>
<text text-anchor="middle" x="332.5" y="-172" font-family="Helvetica,sans-Serif" font-size="10.00">../State.h</text>
</a>
</g>
</g>
<!-- Node1&#45;&gt;Node10 -->
<g id="edge24" class="edge">
<title>Node1&#45;&gt;Node10</title>
<path fill="none" stroke="#63b8ff" d="M355.65,-329.76C385.21,-310.36 448.67,-262.13 422.5,-220 411.51,-202.3 391.16,-191.43 372.59,-184.87"/>
<polygon fill="#63b8ff" stroke="#63b8ff" points="373.41,-181.45 362.82,-181.73 371.27,-188.12 373.41,-181.45"/>
</g>
<!-- Node3 -->
<g id="node3" class="node">
<title>Node3</title>
<g id="a_node3"><a xlink:title=" ">
<polygon fill="#e0e0e0" stroke="#999999" points="413.5,-239 375.5,-239 375.5,-220 413.5,-220 413.5,-239"/>
<text text-anchor="middle" x="394.5" y="-227" font-family="Helvetica,sans-Serif" font-size="10.00">map</text>
</a>
</g>
</g>
<!-- Node2&#45;&gt;Node3 -->
<g id="edge2" class="edge">
<title>Node2&#45;&gt;Node3</title>
<path fill="none" stroke="#63b8ff" d="M282.03,-274.98C304.76,-265.99 340.7,-251.78 365.82,-241.84"/>
<polygon fill="#63b8ff" stroke="#63b8ff" points="367.19,-245.07 375.2,-238.13 364.61,-238.56 367.19,-245.07"/>
</g>
<!-- Node4 -->
<g id="node4" class="node">
<title>Node4</title>
<g id="a_node4"><a xlink:title=" ">
<polygon fill="#e0e0e0" stroke="#999999" points="63,-184 0,-184 0,-165 63,-165 63,-184"/>
<text text-anchor="middle" x="31.5" y="-172" font-family="Helvetica,sans-Serif" font-size="10.00">ncurses.h</text>
</a>
</g>
</g>
<!-- Node2&#45;&gt;Node4 -->
<g id="edge3" class="edge">
<title>Node2&#45;&gt;Node4</title>
<path fill="none" stroke="#63b8ff" d="M202.4,-280.58C141.02,-276.13 50.15,-265.2 28.5,-239 18.19,-226.53 20.68,-207.51 24.68,-193.54"/>
<polygon fill="#63b8ff" stroke="#63b8ff" points="28.01,-194.62 27.85,-184.03 21.37,-192.41 28.01,-194.62"/>
</g>
<!-- Node5 -->
<g id="node5" class="node">
<title>Node5</title>
<g id="a_node5"><a xlink:href="FileView_8h.html" target="_top" xlink:title=" ">
<polygon fill="white" stroke="#666666" points="268,-184 193,-184 193,-165 268,-165 268,-184"/>
<text text-anchor="middle" x="230.5" y="-172" font-family="Helvetica,sans-Serif" font-size="10.00">../FileView.h</text>
</a>
</g>
</g>
<!-- Node2&#45;&gt;Node5 -->
<g id="edge4" class="edge">
<title>Node2&#45;&gt;Node5</title>
<path fill="none" stroke="#63b8ff" d="M258.04,-274.66C253.16,-257.09 242.15,-217.45 235.63,-193.95"/>
<polygon fill="#63b8ff" stroke="#63b8ff" points="238.95,-192.86 232.91,-184.16 232.21,-194.73 238.95,-192.86"/>
</g>
<!-- Node2&#45;&gt;Node10 -->
<g id="edge10" class="edge">
<title>Node2&#45;&gt;Node10</title>
<path fill="none" stroke="#63b8ff" d="M265.36,-274.68C272.31,-262.23 285.67,-238.93 298.5,-220 304.91,-210.54 312.6,-200.39 319.04,-192.18"/>
<polygon fill="#63b8ff" stroke="#63b8ff" points="321.94,-194.15 325.43,-184.15 316.46,-189.8 321.94,-194.15"/>
</g>
<!-- Node14 -->
<g id="node14" class="node">
<title>Node14</title>
<g id="a_node14"><a xlink:href="Action_8h.html" target="_top" xlink:title=" ">
<polygon fill="white" stroke="#666666" points="213.5,-239 115.5,-239 115.5,-220 213.5,-220 213.5,-239"/>
<text text-anchor="middle" x="164.5" y="-227" font-family="Helvetica,sans-Serif" font-size="10.00">../action/Action.h</text>
</a>
</g>
</g>
<!-- Node2&#45;&gt;Node14 -->
<g id="edge16" class="edge">
<title>Node2&#45;&gt;Node14</title>
<path fill="none" stroke="#63b8ff" d="M245.08,-274.98C230.05,-266.69 206.96,-253.94 189.34,-244.22"/>
<polygon fill="#63b8ff" stroke="#63b8ff" points="190.65,-240.94 180.2,-239.17 187.27,-247.07 190.65,-240.94"/>
</g>
<!-- Node15 -->
<g id="node15" class="node">
<title>Node15</title>
<g id="a_node15"><a xlink:href="Theme_8h.html" target="_top" xlink:title=" ">
<polygon fill="white" stroke="#666666" points="97,-239 38,-239 38,-220 97,-220 97,-239"/>
<text text-anchor="middle" x="67.5" y="-227" font-family="Helvetica,sans-Serif" font-size="10.00">Theme.h</text>
</a>
</g>
</g>
<!-- Node2&#45;&gt;Node15 -->
<g id="edge21" class="edge">
<title>Node2&#45;&gt;Node15</title>
<path fill="none" stroke="#63b8ff" d="M229.49,-274.98C196.18,-265.84 143.16,-251.28 106.91,-241.32"/>
<polygon fill="#63b8ff" stroke="#63b8ff" points="107.73,-237.92 97.16,-238.65 105.88,-244.67 107.73,-237.92"/>
</g>
<!-- Node16 -->
<g id="node16" class="node">
<title>Node16</title>
<g id="a_node16"><a xlink:href="Color_8h.html" target="_top" xlink:title=" ">
<polygon fill="white" stroke="#666666" points="357.5,-239 307.5,-239 307.5,-220 357.5,-220 357.5,-239"/>
<text text-anchor="middle" x="332.5" y="-227" font-family="Helvetica,sans-Serif" font-size="10.00">Color.h</text>
</a>
</g>
</g>
<!-- Node2&#45;&gt;Node16 -->
<g id="edge23" class="edge">
<title>Node2&#45;&gt;Node16</title>
<path fill="none" stroke="#63b8ff" d="M272.07,-274.98C282.92,-267 299.38,-254.88 312.38,-245.31"/>
<polygon fill="#63b8ff" stroke="#63b8ff" points="314.74,-247.92 320.72,-239.17 310.59,-242.28 314.74,-247.92"/>
</g>
<!-- Node6 -->
<g id="node6" class="node">
<title>Node6</title>
<g id="a_node6"><a xlink:title=" ">
<polygon fill="#e0e0e0" stroke="#999999" points="195,-129 148,-129 148,-110 195,-110 195,-129"/>
<text text-anchor="middle" x="171.5" y="-117" font-family="Helvetica,sans-Serif" font-size="10.00">vector</text>
</a>
</g>
</g>
<!-- Node5&#45;&gt;Node6 -->
<g id="edge5" class="edge">
<title>Node5&#45;&gt;Node6</title>
<path fill="none" stroke="#63b8ff" d="M221.02,-164.98C212.3,-157.15 199.16,-145.34 188.6,-135.86"/>
<polygon fill="#63b8ff" stroke="#63b8ff" points="190.93,-133.25 181.15,-129.17 186.25,-138.46 190.93,-133.25"/>
</g>
<!-- Node7 -->
<g id="node7" class="node">
<title>Node7</title>
<g id="a_node7"><a xlink:title=" ">
<polygon fill="#e0e0e0" stroke="#999999" points="252.5,-19 184.5,-19 184.5,0 252.5,0 252.5,-19"/>
<text text-anchor="middle" x="218.5" y="-7" font-family="Helvetica,sans-Serif" font-size="10.00">filesystem</text>
</a>
</g>
</g>
<!-- Node5&#45;&gt;Node7 -->
<g id="edge6" class="edge">
<title>Node5&#45;&gt;Node7</title>
<path fill="none" stroke="#63b8ff" d="M229.85,-164.74C227.98,-139.31 222.52,-65.08 219.91,-29.69"/>
<polygon fill="#63b8ff" stroke="#63b8ff" points="223.37,-29.02 219.15,-19.31 216.39,-29.54 223.37,-29.02"/>
</g>
<!-- Node8 -->
<g id="node8" class="node">
<title>Node8</title>
<g id="a_node8"><a xlink:href="Entry_8h.html" target="_top" xlink:title=" ">
<polygon fill="white" stroke="#666666" points="338.5,-74 260.5,-74 260.5,-55 338.5,-55 338.5,-74"/>
<text text-anchor="middle" x="299.5" y="-62" font-family="Helvetica,sans-Serif" font-size="10.00">entry/Entry.h</text>
</a>
</g>
</g>
<!-- Node5&#45;&gt;Node8 -->
<g id="edge7" class="edge">
<title>Node5&#45;&gt;Node8</title>
<path fill="none" stroke="#63b8ff" d="M236.15,-164.66C247.58,-146.77 273.62,-106 288.52,-82.69"/>
<polygon fill="#63b8ff" stroke="#63b8ff" points="291.53,-84.47 293.97,-74.16 285.63,-80.7 291.53,-84.47"/>
</g>
<!-- Node8&#45;&gt;Node7 -->
<g id="edge8" class="edge">
<title>Node8&#45;&gt;Node7</title>
<path fill="none" stroke="#63b8ff" d="M286.49,-54.98C274.04,-46.84 255.04,-34.41 240.29,-24.76"/>
<polygon fill="#63b8ff" stroke="#63b8ff" points="242.04,-21.72 231.75,-19.17 238.2,-27.57 242.04,-21.72"/>
</g>
<!-- Node9 -->
<g id="node9" class="node">
<title>Node9</title>
<g id="a_node9"><a xlink:href="Modifier_8h.html" target="_top" xlink:title=" ">
<polygon fill="white" stroke="#666666" points="336,-19 271,-19 271,0 336,0 336,-19"/>
<text text-anchor="middle" x="303.5" y="-7" font-family="Helvetica,sans-Serif" font-size="10.00">Modifier.h</text>
</a>
</g>
</g>
<!-- Node8&#45;&gt;Node9 -->
<g id="edge9" class="edge">
<title>Node8&#45;&gt;Node9</title>
<path fill="none" stroke="#63b8ff" d="M300.16,-54.75C300.68,-47.8 301.44,-37.85 302.09,-29.13"/>
<polygon fill="#63b8ff" stroke="#63b8ff" points="305.59,-29.32 302.85,-19.09 298.61,-28.8 305.59,-29.32"/>
</g>
<!-- Node10&#45;&gt;Node8 -->
<g id="edge12" class="edge">
<title>Node10&#45;&gt;Node8</title>
<path fill="none" stroke="#63b8ff" d="M329.78,-164.98C326.93,-156.03 322.35,-141.54 318.5,-129 313.85,-113.85 308.71,-96.63 304.95,-83.95"/>
<polygon fill="#63b8ff" stroke="#63b8ff" points="308.24,-82.74 302.04,-74.14 301.52,-84.72 308.24,-82.74"/>
</g>
<!-- Node11 -->
<g id="node11" class="node">
<title>Node11</title>
<g id="a_node11"><a xlink:title=" ">
<polygon fill="#e0e0e0" stroke="#999999" points="359.5,-129 327.5,-129 327.5,-110 359.5,-110 359.5,-129"/>
<text text-anchor="middle" x="343.5" y="-117" font-family="Helvetica,sans-Serif" font-size="10.00">set</text>
</a>
</g>
</g>
<!-- Node10&#45;&gt;Node11 -->
<g id="edge11" class="edge">
<title>Node10&#45;&gt;Node11</title>
<path fill="none" stroke="#63b8ff" d="M334.32,-164.75C335.76,-157.8 337.82,-147.85 339.63,-139.13"/>
<polygon fill="#63b8ff" stroke="#63b8ff" points="343.11,-139.59 341.72,-129.09 336.26,-138.17 343.11,-139.59"/>
</g>
<!-- Node12 -->
<g id="node12" class="node">
<title>Node12</title>
<g id="a_node12"><a xlink:href="Utility_8h.html" target="_top" xlink:title=" ">
<polygon fill="white" stroke="#666666" points="431.5,-129 377.5,-129 377.5,-110 431.5,-110 431.5,-129"/>
<text text-anchor="middle" x="404.5" y="-117" font-family="Helvetica,sans-Serif" font-size="10.00">Utility.h</text>
</a>
</g>
</g>
<!-- Node10&#45;&gt;Node12 -->
<g id="edge13" class="edge">
<title>Node10&#45;&gt;Node12</title>
<path fill="none" stroke="#63b8ff" d="M344.07,-164.98C354.92,-157 371.38,-144.88 384.38,-135.31"/>
<polygon fill="#63b8ff" stroke="#63b8ff" points="386.74,-137.92 392.72,-129.17 382.59,-132.28 386.74,-137.92"/>
</g>
<!-- Node12&#45;&gt;Node8 -->
<g id="edge15" class="edge">
<title>Node12&#45;&gt;Node8</title>
<path fill="none" stroke="#63b8ff" d="M387.63,-109.98C370.89,-101.54 345,-88.47 325.61,-78.68"/>
<polygon fill="#63b8ff" stroke="#63b8ff" points="327.18,-75.55 316.68,-74.17 324.03,-81.8 327.18,-75.55"/>
</g>
<!-- Node13 -->
<g id="node13" class="node">
<title>Node13</title>
<g id="a_node13"><a xlink:title=" ">
<polygon fill="#e0e0e0" stroke="#999999" points="426.5,-74 382.5,-74 382.5,-55 426.5,-55 426.5,-74"/>
<text text-anchor="middle" x="404.5" y="-62" font-family="Helvetica,sans-Serif" font-size="10.00">string</text>
</a>
</g>
</g>
<!-- Node12&#45;&gt;Node13 -->
<g id="edge14" class="edge">
<title>Node12&#45;&gt;Node13</title>
<path fill="none" stroke="#63b8ff" d="M404.5,-109.75C404.5,-102.8 404.5,-92.85 404.5,-84.13"/>
<polygon fill="#63b8ff" stroke="#63b8ff" points="408,-84.09 404.5,-74.09 401,-84.09 408,-84.09"/>
</g>
<!-- Node14&#45;&gt;Node5 -->
<g id="edge19" class="edge">
<title>Node14&#45;&gt;Node5</title>
<path fill="none" stroke="#63b8ff" d="M175.1,-219.98C184.96,-212.07 199.85,-200.11 211.72,-190.58"/>
<polygon fill="#63b8ff" stroke="#63b8ff" points="214.1,-193.16 219.7,-184.17 209.71,-187.7 214.1,-193.16"/>
</g>
<!-- Node14&#45;&gt;Node6 -->
<g id="edge17" class="edge">
<title>Node14&#45;&gt;Node6</title>
<path fill="none" stroke="#63b8ff" d="M165.07,-219.66C166.21,-202.17 168.76,-162.8 170.28,-139.27"/>
<polygon fill="#63b8ff" stroke="#63b8ff" points="173.78,-139.36 170.94,-129.16 166.8,-138.91 173.78,-139.36"/>
</g>
<!-- Node14&#45;&gt;Node7 -->
<g id="edge18" class="edge">
<title>Node14&#45;&gt;Node7</title>
<path fill="none" stroke="#63b8ff" d="M159.61,-219.97C148.93,-200.2 125.58,-149.91 139.5,-110 151.57,-75.38 181.28,-43.76 200.63,-25.85"/>
<polygon fill="#63b8ff" stroke="#63b8ff" points="203.11,-28.33 208.21,-19.04 198.43,-23.12 203.11,-28.33"/>
</g>
<!-- Node14&#45;&gt;Node10 -->
<g id="edge20" class="edge">
<title>Node14&#45;&gt;Node10</title>
<path fill="none" stroke="#63b8ff" d="M191.49,-219.98C219.7,-211.09 264.14,-197.07 295.58,-187.15"/>
<polygon fill="#63b8ff" stroke="#63b8ff" points="296.81,-190.43 305.3,-184.08 294.71,-183.75 296.81,-190.43"/>
</g>
<!-- Node15&#45;&gt;Node4 -->
<g id="edge22" class="edge">
<title>Node15&#45;&gt;Node4</title>
<path fill="none" stroke="#63b8ff" d="M61.56,-219.75C56.52,-212.34 49.16,-201.5 42.99,-192.41"/>
<polygon fill="#63b8ff" stroke="#63b8ff" points="45.85,-190.39 37.33,-184.09 40.06,-194.33 45.85,-190.39"/>
</g>
</g>
</svg>
