<?xml version="1.0" encoding="UTF-8" standalone="no"?>
<!DOCTYPE svg PUBLIC "-//W3C//DTD SVG 1.1//EN"
 "http://www.w3.org/Graphics/SVG/1.1/DTD/svg11.dtd">
<!-- Generated by graphviz version 2.43.0 (0)
 -->
<!-- Title: Symlink::print Pages: 1 -->
<svg width="215pt" height="64pt"
 viewBox="0.00 0.00 215.00 64.00" xmlns="http://www.w3.org/2000/svg" xmlns:xlink="http://www.w3.org/1999/xlink">
<g id="graph0" class="graph" transform="scale(1 1) rotate(0) translate(4 60)">
<title>Symlink::print</title>
<!-- Node1 -->
<g id="node1" class="node">
<title>Node1</title>
<g id="a_node1"><a xlink:title=" ">
<polygon fill="#999999" stroke="#666666" points="85,-37 0,-37 0,-18 85,-18 85,-37"/>
<text text-anchor="middle" x="42.5" y="-25" font-family="Helvetica,sans-Serif" font-size="10.00">Symlink::print</text>
</a>
</g>
</g>
<!-- Node2 -->
<g id="node2" class="node">
<title>Node2</title>
<g id="a_node2"><a xlink:href="classUtility.html#aede2f297a0c4e77359d7d304cd055c64" target="_top" xlink:title="Escapes a string so it can be printed.">
<polygon fill="white" stroke="#666666" points="207,-56 121,-56 121,-37 207,-37 207,-56"/>
<text text-anchor="middle" x="164" y="-44" font-family="Helvetica,sans-Serif" font-size="10.00">Utility::escape</text>
</a>
</g>
</g>
<!-- Node1&#45;&gt;Node2 -->
<g id="edge1" class="edge">
<title>Node1&#45;&gt;Node2</title>
<path fill="none" stroke="#63b8ff" d="M85.3,-34.15C93.43,-35.44 102.05,-36.81 110.48,-38.15"/>
<polygon fill="#63b8ff" stroke="#63b8ff" points="110.2,-41.65 120.62,-39.76 111.3,-34.74 110.2,-41.65"/>
</g>
<!-- Node3 -->
<g id="node3" class="node">
<title>Node3</title>
<g id="a_node3"><a xlink:href="classColor.html#a3fc18bc97803834b04e600c1441ce3b9" target="_top" xlink:title=" ">
<polygon fill="white" stroke="#666666" points="195.5,-19 132.5,-19 132.5,0 195.5,0 195.5,-19"/>
<text text-anchor="middle" x="164" y="-7" font-family="Helvetica,sans-Serif" font-size="10.00">Color::set</text>
</a>
</g>
</g>
<!-- Node1&#45;&gt;Node3 -->
<g id="edge2" class="edge">
<title>Node1&#45;&gt;Node3</title>
<path fill="none" stroke="#63b8ff" d="M85.3,-21.2C97.27,-19.4 110.3,-17.44 122.21,-15.64"/>
<polygon fill="#63b8ff" stroke="#63b8ff" points="122.97,-19.07 132.34,-14.12 121.93,-12.15 122.97,-19.07"/>
</g>
</g>
</svg>
