<?xml version="1.0" encoding="UTF-8" standalone="no"?>
<!DOCTYPE svg PUBLIC "-//W3C//DTD SVG 1.1//EN"
 "http://www.w3.org/Graphics/SVG/1.1/DTD/svg11.dtd">
<!-- Generated by graphviz version 2.43.0 (0)
 -->
<!-- Title: OpenAction Pages: 1 -->
<svg width="81pt" height="137pt"
 viewBox="0.00 0.00 81.00 137.00" xmlns="http://www.w3.org/2000/svg" xmlns:xlink="http://www.w3.org/1999/xlink">
<g id="graph0" class="graph" transform="scale(1 1) rotate(0) translate(4 133)">
<title>OpenAction</title>
<!-- Node1 -->
<g id="node1" class="node">
<title>Node1</title>
<g id="a_node1"><a xlink:title="An Action that sets FileView.wd to the Folder under FileView.cursor (if it is Folder)">
<polygon fill="#999999" stroke="#666666" points="73,-19 0,-19 0,0 73,0 73,-19"/>
<text text-anchor="middle" x="36.5" y="-7" font-family="Helvetica,sans-Serif" font-size="10.00">OpenAction</text>
</a>
</g>
</g>
<!-- Node2 -->
<g id="node2" class="node">
<title>Node2</title>
<g id="a_node2"><a xlink:href="classOnceAction.html" target="_top" xlink:title="A base class for Actions &#160;that are supposed to fire once.">
<polygon fill="white" stroke="#666666" points="72.5,-74 0.5,-74 0.5,-55 72.5,-55 72.5,-74"/>
<text text-anchor="middle" x="36.5" y="-62" font-family="Helvetica,sans-Serif" font-size="10.00">OnceAction</text>
</a>
</g>
</g>
<!-- Node2&#45;&gt;Node1 -->
<g id="edge1" class="edge">
<title>Node2&#45;&gt;Node1</title>
<path fill="none" stroke="#63b8ff" d="M36.5,-44.66C36.5,-35.93 36.5,-25.99 36.5,-19.09"/>
<polygon fill="#63b8ff" stroke="#63b8ff" points="33,-44.75 36.5,-54.75 40,-44.75 33,-44.75"/>
</g>
<!-- Node3 -->
<g id="node3" class="node">
<title>Node3</title>
<g id="a_node3"><a xlink:href="classAction.html" target="_top" xlink:title="An abstract class representing a general operation in the program.">
<polygon fill="white" stroke="#666666" points="60,-129 13,-129 13,-110 60,-110 60,-129"/>
<text text-anchor="middle" x="36.5" y="-117" font-family="Helvetica,sans-Serif" font-size="10.00">Action</text>
</a>
</g>
</g>
<!-- Node3&#45;&gt;Node2 -->
<g id="edge2" class="edge">
<title>Node3&#45;&gt;Node2</title>
<path fill="none" stroke="#63b8ff" d="M36.5,-99.66C36.5,-90.93 36.5,-80.99 36.5,-74.09"/>
<polygon fill="#63b8ff" stroke="#63b8ff" points="33,-99.75 36.5,-109.75 40,-99.75 33,-99.75"/>
</g>
</g>
</svg>
