<?xml version="1.0" encoding="UTF-8" standalone="no"?>
<!DOCTYPE svg PUBLIC "-//W3C//DTD SVG 1.1//EN"
 "http://www.w3.org/Graphics/SVG/1.1/DTD/svg11.dtd">
<!-- Generated by graphviz version 2.43.0 (0)
 -->
<!-- Title: ConcatAction::executeAction Pages: 1 -->
<svg width="289pt" height="119pt"
 viewBox="0.00 0.00 289.00 119.00" xmlns="http://www.w3.org/2000/svg" xmlns:xlink="http://www.w3.org/1999/xlink">
<g id="graph0" class="graph" transform="scale(1 1) rotate(0) translate(4 115)">
<title>ConcatAction::executeAction</title>
<!-- Node1 -->
<g id="node1" class="node">
<title>Node1</title>
<g id="a_node1"><a xlink:title=" ">
<polygon fill="#999999" stroke="#666666" points="156,-56 0,-56 0,-37 156,-37 156,-56"/>
<text text-anchor="middle" x="78" y="-44" font-family="Helvetica,sans-Serif" font-size="10.00">ConcatAction::executeAction</text>
</a>
</g>
</g>
<!-- Node2 -->
<g id="node2" class="node">
<title>Node2</title>
<g id="a_node2"><a xlink:href="classModal.html#a6e0e45b4f48f64ab0fe4a5dcad5ca8e5" target="_top" xlink:title=" ">
<polygon fill="white" stroke="#666666" points="281,-111 192,-111 192,-92 281,-92 281,-111"/>
<text text-anchor="middle" x="236.5" y="-99" font-family="Helvetica,sans-Serif" font-size="10.00">Modal::destroy</text>
</a>
</g>
</g>
<!-- Node1&#45;&gt;Node2 -->
<g id="edge1" class="edge">
<title>Node1&#45;&gt;Node2</title>
<path fill="none" stroke="#63b8ff" d="M106.26,-56.08C131.88,-65.08 170.41,-78.62 198.73,-88.58"/>
<polygon fill="#63b8ff" stroke="#63b8ff" points="197.7,-91.92 208.29,-91.94 200.02,-85.32 197.7,-91.92"/>
</g>
<!-- Node3 -->
<g id="node3" class="node">
<title>Node3</title>
<g id="a_node3"><a xlink:href="classModal.html#a6776997aff5ec59e2a8ce02bcca11584" target="_top" xlink:title=" ">
<polygon fill="white" stroke="#666666" points="275,-56 198,-56 198,-37 275,-37 275,-56"/>
<text text-anchor="middle" x="236.5" y="-44" font-family="Helvetica,sans-Serif" font-size="10.00">Modal::input</text>
</a>
</g>
</g>
<!-- Node1&#45;&gt;Node3 -->
<g id="edge2" class="edge">
<title>Node1&#45;&gt;Node3</title>
<path fill="none" stroke="#63b8ff" d="M156.33,-46.5C167.08,-46.5 177.85,-46.5 187.83,-46.5"/>
<polygon fill="#63b8ff" stroke="#63b8ff" points="187.91,-50 197.91,-46.5 187.91,-43 187.91,-50"/>
</g>
<!-- Node4 -->
<g id="node4" class="node">
<title>Node4</title>
<g id="a_node4"><a xlink:href="classModal.html#a629847ce99c0bd2345fffe66aae88629" target="_top" xlink:title=" ">
<polygon fill="white" stroke="#666666" points="275.5,-19 197.5,-19 197.5,0 275.5,0 275.5,-19"/>
<text text-anchor="middle" x="236.5" y="-7" font-family="Helvetica,sans-Serif" font-size="10.00">Modal::show</text>
</a>
</g>
</g>
<!-- Node1&#45;&gt;Node4 -->
<g id="edge4" class="edge">
<title>Node1&#45;&gt;Node4</title>
<path fill="none" stroke="#63b8ff" d="M119.3,-36.97C140.19,-32.03 165.85,-25.97 187.73,-20.79"/>
<polygon fill="#63b8ff" stroke="#63b8ff" points="188.56,-24.19 197.49,-18.49 186.95,-17.38 188.56,-24.19"/>
</g>
<!-- Node3&#45;&gt;Node3 -->
<g id="edge3" class="edge">
<title>Node3&#45;&gt;Node3</title>
<path fill="none" stroke="#63b8ff" d="M212.15,-56.08C200.3,-64.73 208.42,-74 236.5,-74 254.93,-74 264.76,-70.01 265.99,-64.82"/>
<polygon fill="#63b8ff" stroke="#63b8ff" points="268.94,-62.93 260.85,-56.08 262.91,-66.48 268.94,-62.93"/>
</g>
</g>
</svg>
