<?xml version="1.0" encoding="UTF-8" standalone="no"?>
<!DOCTYPE svg PUBLIC "-//W3C//DTD SVG 1.1//EN"
 "http://www.w3.org/Graphics/SVG/1.1/DTD/svg11.dtd">
<!-- Generated by graphviz version 2.43.0 (0)
 -->
<!-- Title: Application::run Pages: 1 -->
<svg width="580pt" height="144pt"
 viewBox="0.00 0.00 580.00 143.50" xmlns="http://www.w3.org/2000/svg" xmlns:xlink="http://www.w3.org/1999/xlink">
<g id="graph0" class="graph" transform="scale(1 1) rotate(0) translate(4 139.5)">
<title>Application::run</title>
<!-- Node1 -->
<g id="node1" class="node">
<title>Node1</title>
<g id="a_node1"><a xlink:title=" ">
<polygon fill="#999999" stroke="#666666" points="93,-74 0,-74 0,-55 93,-55 93,-74"/>
<text text-anchor="middle" x="46.5" y="-62" font-family="Helvetica,sans-Serif" font-size="10.00">Application::run</text>
</a>
</g>
</g>
<!-- Node2 -->
<g id="node2" class="node">
<title>Node2</title>
<g id="a_node2"><a xlink:href="classInterface.html#aac81e25cdc7e737234724bb9367f142f" target="_top" xlink:title="Initializes ncurses and prepares.">
<polygon fill="white" stroke="#666666" points="249,-130 141,-130 141,-111 249,-111 249,-130"/>
<text text-anchor="middle" x="195" y="-118" font-family="Helvetica,sans-Serif" font-size="10.00">Interface::initialize</text>
</a>
</g>
</g>
<!-- Node1&#45;&gt;Node2 -->
<g id="edge1" class="edge">
<title>Node1&#45;&gt;Node2</title>
<path fill="none" stroke="#63b8ff" d="M65.9,-74.15C82.18,-82.43 106.74,-94.29 129,-102.5 134.42,-104.5 140.16,-106.39 145.91,-108.15"/>
<polygon fill="#63b8ff" stroke="#63b8ff" points="144.93,-111.52 155.51,-110.98 146.91,-104.8 144.93,-111.52"/>
</g>
<!-- Node4 -->
<g id="node4" class="node">
<title>Node4</title>
<g id="a_node4"><a xlink:href="classInterface.html#a37361be69347f990b281e1ef4356cdce" target="_top" xlink:title=" ">
<polygon fill="white" stroke="#666666" points="261,-93 129,-93 129,-74 261,-74 261,-93"/>
<text text-anchor="middle" x="195" y="-81" font-family="Helvetica,sans-Serif" font-size="10.00">Interface::promptAction</text>
</a>
</g>
</g>
<!-- Node1&#45;&gt;Node4 -->
<g id="edge3" class="edge">
<title>Node1&#45;&gt;Node4</title>
<path fill="none" stroke="#63b8ff" d="M93.05,-70.41C101.29,-71.48 110.08,-72.62 118.9,-73.76"/>
<polygon fill="#63b8ff" stroke="#63b8ff" points="118.48,-77.23 128.85,-75.05 119.38,-70.29 118.48,-77.23"/>
</g>
<!-- Node5 -->
<g id="node5" class="node">
<title>Node5</title>
<g id="a_node5"><a xlink:href="classInterface.html#aefa26e1a9eef86cbf1a19a2138972aab" target="_top" xlink:title="Shows the file view.">
<polygon fill="white" stroke="#666666" points="244,-56 146,-56 146,-37 244,-37 244,-56"/>
<text text-anchor="middle" x="195" y="-44" font-family="Helvetica,sans-Serif" font-size="10.00">Interface::render</text>
</a>
</g>
</g>
<!-- Node1&#45;&gt;Node5 -->
<g id="edge4" class="edge">
<title>Node1&#45;&gt;Node5</title>
<path fill="none" stroke="#63b8ff" d="M93.05,-58.9C106.57,-57.24 121.56,-55.4 135.77,-53.65"/>
<polygon fill="#63b8ff" stroke="#63b8ff" points="136.44,-57.1 145.94,-52.4 135.59,-50.15 136.44,-57.1"/>
</g>
<!-- Node8 -->
<g id="node8" class="node">
<title>Node8</title>
<g id="a_node8"><a xlink:href="classInterface.html#a6df5828506227e38edc4fa540e13f903" target="_top" xlink:title="Stops ncurses">
<polygon fill="white" stroke="#666666" points="238.5,-19 151.5,-19 151.5,0 238.5,0 238.5,-19"/>
<text text-anchor="middle" x="195" y="-7" font-family="Helvetica,sans-Serif" font-size="10.00">Interface::stop</text>
</a>
</g>
</g>
<!-- Node1&#45;&gt;Node8 -->
<g id="edge7" class="edge">
<title>Node1&#45;&gt;Node8</title>
<path fill="none" stroke="#63b8ff" d="M66.25,-54.97C82.55,-46.94 106.94,-35.51 129,-27.5 134.43,-25.53 140.18,-23.65 145.93,-21.9"/>
<polygon fill="#63b8ff" stroke="#63b8ff" points="146.92,-25.25 155.53,-19.08 144.95,-18.54 146.92,-25.25"/>
</g>
<!-- Node3 -->
<g id="node3" class="node">
<title>Node3</title>
<g id="a_node3"><a xlink:href="classInterface.html#a37cd4d9b6d650f12c6810576ca6eee82" target="_top" xlink:title=" ">
<polygon fill="white" stroke="#666666" points="432,-135.5 297,-135.5 297,-105.5 432,-105.5 432,-135.5"/>
<text text-anchor="start" x="305" y="-123.5" font-family="Helvetica,sans-Serif" font-size="10.00">Interface::generateColor</text>
<text text-anchor="middle" x="364.5" y="-112.5" font-family="Helvetica,sans-Serif" font-size="10.00">Pairs</text>
</a>
</g>
</g>
<!-- Node2&#45;&gt;Node3 -->
<g id="edge2" class="edge">
<title>Node2&#45;&gt;Node3</title>
<path fill="none" stroke="#63b8ff" d="M249.46,-120.5C261.32,-120.5 274.12,-120.5 286.7,-120.5"/>
<polygon fill="#63b8ff" stroke="#63b8ff" points="286.73,-124 296.73,-120.5 286.73,-117 286.73,-124"/>
</g>
<!-- Node6 -->
<g id="node6" class="node">
<title>Node6</title>
<g id="a_node6"><a xlink:href="classFileView.html#ad41f6b770e7c214b0a029675417273de" target="_top" xlink:title="Get Entries &#160;representing all files/folders in wd.">
<polygon fill="white" stroke="#666666" points="422,-56 307,-56 307,-37 422,-37 422,-56"/>
<text text-anchor="middle" x="364.5" y="-44" font-family="Helvetica,sans-Serif" font-size="10.00">FileView::getCurrent</text>
</a>
</g>
</g>
<!-- Node5&#45;&gt;Node6 -->
<g id="edge5" class="edge">
<title>Node5&#45;&gt;Node6</title>
<path fill="none" stroke="#63b8ff" d="M244.45,-46.5C260.76,-46.5 279.27,-46.5 296.74,-46.5"/>
<polygon fill="#63b8ff" stroke="#63b8ff" points="296.88,-50 306.88,-46.5 296.88,-43 296.88,-50"/>
</g>
<!-- Node7 -->
<g id="node7" class="node">
<title>Node7</title>
<g id="a_node7"><a xlink:href="classUtility.html#a4b4ebc4aa064a2002f8d42b781fce5a5" target="_top" xlink:title="Makes the correct entry object based on it&#39;s path.">
<polygon fill="white" stroke="#666666" points="572,-56 468,-56 468,-37 572,-37 572,-56"/>
<text text-anchor="middle" x="520" y="-44" font-family="Helvetica,sans-Serif" font-size="10.00">Utility::makeEntry</text>
</a>
</g>
</g>
<!-- Node6&#45;&gt;Node7 -->
<g id="edge6" class="edge">
<title>Node6&#45;&gt;Node7</title>
<path fill="none" stroke="#63b8ff" d="M422.22,-46.5C433.78,-46.5 445.99,-46.5 457.7,-46.5"/>
<polygon fill="#63b8ff" stroke="#63b8ff" points="457.84,-50 467.84,-46.5 457.84,-43 457.84,-50"/>
</g>
</g>
</svg>
