<?xml version="1.0" encoding="UTF-8" standalone="no"?>
<!DOCTYPE svg PUBLIC "-//W3C//DTD SVG 1.1//EN"
 "http://www.w3.org/Graphics/SVG/1.1/DTD/svg11.dtd">
<!-- Generated by graphviz version 2.43.0 (0)
 -->
<!-- Title: CreateFolderAction::executeAction Pages: 1 -->
<svg width="251pt" height="174pt"
 viewBox="0.00 0.00 251.00 174.00" xmlns="http://www.w3.org/2000/svg" xmlns:xlink="http://www.w3.org/1999/xlink">
<g id="graph0" class="graph" transform="scale(1 1) rotate(0) translate(4 170)">
<title>CreateFolderAction::executeAction</title>
<!-- Node1 -->
<g id="node1" class="node">
<title>Node1</title>
<g id="a_node1"><a xlink:title=" ">
<polygon fill="#999999" stroke="#666666" points="110,-88.5 0,-88.5 0,-58.5 110,-58.5 110,-88.5"/>
<text text-anchor="start" x="8" y="-76.5" font-family="Helvetica,sans-Serif" font-size="10.00">CreateFolderAction</text>
<text text-anchor="middle" x="55" y="-65.5" font-family="Helvetica,sans-Serif" font-size="10.00">::executeAction</text>
</a>
</g>
</g>
<!-- Node2 -->
<g id="node2" class="node">
<title>Node2</title>
<g id="a_node2"><a xlink:href="classModal.html#a6e0e45b4f48f64ab0fe4a5dcad5ca8e5" target="_top" xlink:title=" ">
<polygon fill="white" stroke="#666666" points="239,-166 150,-166 150,-147 239,-147 239,-166"/>
<text text-anchor="middle" x="194.5" y="-154" font-family="Helvetica,sans-Serif" font-size="10.00">Modal::destroy</text>
</a>
</g>
</g>
<!-- Node1&#45;&gt;Node2 -->
<g id="edge1" class="edge">
<title>Node1&#45;&gt;Node2</title>
<path fill="none" stroke="#63b8ff" d="M74.01,-88.71C91.54,-102.96 119.36,-124.16 146,-138.5 148.91,-140.07 151.99,-141.56 155.12,-142.97"/>
<polygon fill="#63b8ff" stroke="#63b8ff" points="154,-146.3 164.58,-146.93 156.7,-139.84 154,-146.3"/>
</g>
<!-- Node3 -->
<g id="node3" class="node">
<title>Node3</title>
<g id="a_node3"><a xlink:href="classModal.html#a6776997aff5ec59e2a8ce02bcca11584" target="_top" xlink:title=" ">
<polygon fill="white" stroke="#666666" points="233,-111 156,-111 156,-92 233,-92 233,-111"/>
<text text-anchor="middle" x="194.5" y="-99" font-family="Helvetica,sans-Serif" font-size="10.00">Modal::input</text>
</a>
</g>
</g>
<!-- Node1&#45;&gt;Node3 -->
<g id="edge2" class="edge">
<title>Node1&#45;&gt;Node3</title>
<path fill="none" stroke="#63b8ff" d="M110.34,-84.57C122.07,-86.95 134.38,-89.46 145.83,-91.79"/>
<polygon fill="#63b8ff" stroke="#63b8ff" points="145.14,-95.22 155.64,-93.79 146.54,-88.36 145.14,-95.22"/>
</g>
<!-- Node4 -->
<g id="node4" class="node">
<title>Node4</title>
<g id="a_node4"><a xlink:href="classModal.html#aa9520865766fc3ec26d423d5029e410d" target="_top" xlink:title=" ">
<polygon fill="white" stroke="#666666" points="243,-56 146,-56 146,-37 243,-37 243,-56"/>
<text text-anchor="middle" x="194.5" y="-44" font-family="Helvetica,sans-Serif" font-size="10.00">Modal::message</text>
</a>
</g>
</g>
<!-- Node1&#45;&gt;Node4 -->
<g id="edge4" class="edge">
<title>Node1&#45;&gt;Node4</title>
<path fill="none" stroke="#63b8ff" d="M110.34,-62.83C118.76,-61.18 127.48,-59.46 135.96,-57.8"/>
<polygon fill="#63b8ff" stroke="#63b8ff" points="136.64,-61.23 145.78,-55.87 135.3,-54.36 136.64,-61.23"/>
</g>
<!-- Node5 -->
<g id="node5" class="node">
<title>Node5</title>
<g id="a_node5"><a xlink:href="classModal.html#a629847ce99c0bd2345fffe66aae88629" target="_top" xlink:title=" ">
<polygon fill="white" stroke="#666666" points="233.5,-19 155.5,-19 155.5,0 233.5,0 233.5,-19"/>
<text text-anchor="middle" x="194.5" y="-7" font-family="Helvetica,sans-Serif" font-size="10.00">Modal::show</text>
</a>
</g>
</g>
<!-- Node1&#45;&gt;Node5 -->
<g id="edge6" class="edge">
<title>Node1&#45;&gt;Node5</title>
<path fill="none" stroke="#63b8ff" d="M84.49,-58.5C102.05,-49.44 125.12,-37.87 146,-28.5 150.12,-26.65 154.48,-24.78 158.82,-22.98"/>
<polygon fill="#63b8ff" stroke="#63b8ff" points="160.25,-26.18 168.19,-19.17 157.61,-19.7 160.25,-26.18"/>
</g>
<!-- Node3&#45;&gt;Node3 -->
<g id="edge3" class="edge">
<title>Node3&#45;&gt;Node3</title>
<path fill="none" stroke="#63b8ff" d="M173.23,-111.08C162.88,-119.73 169.97,-129 194.5,-129 210.21,-129 218.77,-125.2 220.17,-120.19"/>
<polygon fill="#63b8ff" stroke="#63b8ff" points="223.27,-118.56 215.77,-111.08 216.97,-121.61 223.27,-118.56"/>
</g>
<!-- Node4&#45;&gt;Node4 -->
<g id="edge5" class="edge">
<title>Node4&#45;&gt;Node4</title>
<path fill="none" stroke="#63b8ff" d="M173.23,-56.08C162.88,-64.73 169.97,-74 194.5,-74 210.21,-74 218.77,-70.2 220.17,-65.19"/>
<polygon fill="#63b8ff" stroke="#63b8ff" points="223.27,-63.56 215.77,-56.08 216.97,-66.61 223.27,-63.56"/>
</g>
</g>
</svg>
