<?xml version="1.0" encoding="UTF-8" standalone="no"?>
<!DOCTYPE svg PUBLIC "-//W3C//DTD SVG 1.1//EN"
 "http://www.w3.org/Graphics/SVG/1.1/DTD/svg11.dtd">
<!-- Generated by graphviz version 2.43.0 (0)
 -->
<!-- Title: Entry Pages: 1 -->
<svg width="182pt" height="82pt"
 viewBox="0.00 0.00 182.00 82.00" xmlns="http://www.w3.org/2000/svg" xmlns:xlink="http://www.w3.org/1999/xlink">
<g id="graph0" class="graph" transform="scale(1 1) rotate(0) translate(4 78)">
<title>Entry</title>
<!-- Node1 -->
<g id="node1" class="node">
<title>Node1</title>
<g id="a_node1"><a xlink:title="An abstract class representing a general FileView entry.">
<polygon fill="#999999" stroke="#666666" points="97,-74 55,-74 55,-55 97,-55 97,-74"/>
<text text-anchor="middle" x="76" y="-62" font-family="Helvetica,sans-Serif" font-size="10.00">Entry</text>
</a>
</g>
</g>
<!-- Node2 -->
<g id="node2" class="node">
<title>Node2</title>
<g id="a_node2"><a xlink:href="classFile.html" target="_top" xlink:title="Represents a file in the program.">
<polygon fill="white" stroke="#666666" points="34,-19 0,-19 0,0 34,0 34,-19"/>
<text text-anchor="middle" x="17" y="-7" font-family="Helvetica,sans-Serif" font-size="10.00">File</text>
</a>
</g>
</g>
<!-- Node1&#45;&gt;Node2 -->
<g id="edge1" class="edge">
<title>Node1&#45;&gt;Node2</title>
<path fill="none" stroke="#63b8ff" d="M58.8,-48.04C48.33,-38.64 35.35,-26.98 26.65,-19.17"/>
<polygon fill="#63b8ff" stroke="#63b8ff" points="56.74,-50.91 66.52,-54.98 61.42,-45.7 56.74,-50.91"/>
</g>
<!-- Node3 -->
<g id="node3" class="node">
<title>Node3</title>
<g id="a_node3"><a xlink:href="classFolder.html" target="_top" xlink:title="Represents a folder in the program.">
<polygon fill="white" stroke="#666666" points="99.5,-19 52.5,-19 52.5,0 99.5,0 99.5,-19"/>
<text text-anchor="middle" x="76" y="-7" font-family="Helvetica,sans-Serif" font-size="10.00">Folder</text>
</a>
</g>
</g>
<!-- Node1&#45;&gt;Node3 -->
<g id="edge2" class="edge">
<title>Node1&#45;&gt;Node3</title>
<path fill="none" stroke="#63b8ff" d="M76,-44.66C76,-35.93 76,-25.99 76,-19.09"/>
<polygon fill="#63b8ff" stroke="#63b8ff" points="72.5,-44.75 76,-54.75 79.5,-44.75 72.5,-44.75"/>
</g>
<!-- Node4 -->
<g id="node4" class="node">
<title>Node4</title>
<g id="a_node4"><a xlink:href="classSymlink.html" target="_top" xlink:title="Represents a symlink in the program.">
<polygon fill="white" stroke="#666666" points="174,-19 118,-19 118,0 174,0 174,-19"/>
<text text-anchor="middle" x="146" y="-7" font-family="Helvetica,sans-Serif" font-size="10.00">Symlink</text>
</a>
</g>
</g>
<!-- Node1&#45;&gt;Node4 -->
<g id="edge3" class="edge">
<title>Node1&#45;&gt;Node4</title>
<path fill="none" stroke="#63b8ff" d="M95.31,-48.88C107.91,-39.34 123.93,-27.21 134.55,-19.17"/>
<polygon fill="#63b8ff" stroke="#63b8ff" points="93.11,-46.16 87.25,-54.98 97.33,-51.74 93.11,-46.16"/>
</g>
</g>
</svg>
