<?xml version="1.0" encoding="UTF-8" standalone="no"?>
<!DOCTYPE svg PUBLIC "-//W3C//DTD SVG 1.1//EN"
 "http://www.w3.org/Graphics/SVG/1.1/DTD/svg11.dtd">
<!-- Generated by graphviz version 2.43.0 (0)
 -->
<!-- Title: Application Pages: 1 -->
<svg width="204pt" height="159pt"
 viewBox="0.00 0.00 204.00 159.00" xmlns="http://www.w3.org/2000/svg" xmlns:xlink="http://www.w3.org/1999/xlink">
<g id="graph0" class="graph" transform="scale(1 1) rotate(0) translate(4 155)">
<title>Application</title>
<!-- Node1 -->
<g id="node1" class="node">
<title>Node1</title>
<g id="a_node1"><a xlink:title="The main application class.">
<polygon fill="#999999" stroke="#666666" points="142.5,-19 71.5,-19 71.5,0 142.5,0 142.5,-19"/>
<text text-anchor="middle" x="107" y="-7" font-family="Helvetica,sans-Serif" font-size="10.00">Application</text>
</a>
</g>
</g>
<!-- Node2 -->
<g id="node2" class="node">
<title>Node2</title>
<g id="a_node2"><a xlink:href="classInterface.html" target="_top" xlink:title="Represents the main interface of the Application.">
<polygon fill="white" stroke="#666666" points="60,-85 0,-85 0,-66 60,-66 60,-85"/>
<text text-anchor="middle" x="30" y="-73" font-family="Helvetica,sans-Serif" font-size="10.00">Interface</text>
</a>
</g>
</g>
<!-- Node2&#45;&gt;Node1 -->
<g id="edge1" class="edge">
<title>Node2&#45;&gt;Node1</title>
<path fill="none" stroke="#9a32cd" stroke-dasharray="5,2" d="M39.51,-57.18C43.88,-50.3 49.54,-42.69 56,-37 64.46,-29.55 75.39,-23.51 84.96,-19.09"/>
<polygon fill="#9a32cd" stroke="#9a32cd" points="36.45,-55.47 34.38,-65.86 42.48,-59.03 36.45,-55.47"/>
<text text-anchor="middle" x="79.5" y="-40" font-family="Helvetica,sans-Serif" font-size="10.00"> interface</text>
</g>
<!-- Node3 -->
<g id="node3" class="node">
<title>Node3</title>
<g id="a_node3"><a xlink:href="classTheme.html" target="_top" xlink:title="Represents a set of colors used by Interface.">
<polygon fill="white" stroke="#666666" points="55,-151 5,-151 5,-132 55,-132 55,-151"/>
<text text-anchor="middle" x="30" y="-139" font-family="Helvetica,sans-Serif" font-size="10.00">Theme</text>
</a>
</g>
</g>
<!-- Node3&#45;&gt;Node2 -->
<g id="edge2" class="edge">
<title>Node3&#45;&gt;Node2</title>
<path fill="none" stroke="#9a32cd" stroke-dasharray="5,2" d="M30,-121.58C30,-109.63 30,-94.72 30,-85.41"/>
<polygon fill="#9a32cd" stroke="#9a32cd" points="26.5,-121.87 30,-131.87 33.5,-121.87 26.5,-121.87"/>
<text text-anchor="middle" x="47.5" y="-106" font-family="Helvetica,sans-Serif" font-size="10.00"> theme</text>
</g>
<!-- Node3&#45;&gt;Node3 -->
<g id="edge3" class="edge">
<title>Node3&#45;&gt;Node3</title>
<path fill="none" stroke="#9a32cd" stroke-dasharray="5,2" d="M65.45,-146.75C70,-145.84 73,-144.09 73,-141.5 73,-137.25 64.91,-135.26 55.18,-135.52"/>
<polygon fill="#9a32cd" stroke="#9a32cd" points="64.91,-143.28 55.18,-147.48 65.4,-150.27 64.91,-143.28"/>
<text text-anchor="middle" x="109" y="-139" font-family="Helvetica,sans-Serif" font-size="10.00"> defaultTheme</text>
</g>
<!-- Node4 -->
<g id="node4" class="node">
<title>Node4</title>
<g id="a_node4"><a xlink:href="classFileView.html" target="_top" xlink:title="Represents a file view of the Application.">
<polygon fill="white" stroke="#666666" points="136,-85 78,-85 78,-66 136,-66 136,-85"/>
<text text-anchor="middle" x="107" y="-73" font-family="Helvetica,sans-Serif" font-size="10.00">FileView</text>
</a>
</g>
</g>
<!-- Node4&#45;&gt;Node1 -->
<g id="edge4" class="edge">
<title>Node4&#45;&gt;Node1</title>
<path fill="none" stroke="#9a32cd" stroke-dasharray="5,2" d="M107,-55.58C107,-43.63 107,-28.72 107,-19.41"/>
<polygon fill="#9a32cd" stroke="#9a32cd" points="103.5,-55.87 107,-65.87 110.5,-55.87 103.5,-55.87"/>
<text text-anchor="middle" x="128.5" y="-40" font-family="Helvetica,sans-Serif" font-size="10.00"> fileView</text>
</g>
<!-- Node5 -->
<g id="node5" class="node">
<title>Node5</title>
<g id="a_node5"><a xlink:href="classState.html" target="_top" xlink:title="Holds the global state of the Application.">
<polygon fill="white" stroke="#666666" points="196,-85 154,-85 154,-66 196,-66 196,-85"/>
<text text-anchor="middle" x="175" y="-73" font-family="Helvetica,sans-Serif" font-size="10.00">State</text>
</a>
</g>
</g>
<!-- Node5&#45;&gt;Node1 -->
<g id="edge5" class="edge">
<title>Node5&#45;&gt;Node1</title>
<path fill="none" stroke="#9a32cd" stroke-dasharray="5,2" d="M167.06,-56.8C163.44,-50.05 158.69,-42.64 153,-37 145.54,-29.6 135.6,-23.54 126.87,-19.08"/>
<polygon fill="#9a32cd" stroke="#9a32cd" points="163.98,-58.47 171.52,-65.91 170.27,-55.39 163.98,-58.47"/>
<text text-anchor="middle" x="175" y="-40" font-family="Helvetica,sans-Serif" font-size="10.00"> state</text>
</g>
</g>
</svg>
