<?xml version="1.0" encoding="UTF-8" standalone="no"?>
<!DOCTYPE svg PUBLIC "-//W3C//DTD SVG 1.1//EN"
 "http://www.w3.org/Graphics/SVG/1.1/DTD/svg11.dtd">
<!-- Generated by graphviz version 2.43.0 (0)
 -->
<!-- Title: Config Pages: 1 -->
<svg width="148pt" height="93pt"
 viewBox="0.00 0.00 148.00 93.00" xmlns="http://www.w3.org/2000/svg" xmlns:xlink="http://www.w3.org/1999/xlink">
<g id="graph0" class="graph" transform="scale(1 1) rotate(0) translate(4 89)">
<title>Config</title>
<!-- Node1 -->
<g id="node1" class="node">
<title>Node1</title>
<g id="a_node1"><a xlink:title="Provides external configuration to the Application.">
<polygon fill="#999999" stroke="#666666" points="48.5,-19 1.5,-19 1.5,0 48.5,0 48.5,-19"/>
<text text-anchor="middle" x="25" y="-7" font-family="Helvetica,sans-Serif" font-size="10.00">Config</text>
</a>
</g>
</g>
<!-- Node2 -->
<g id="node2" class="node">
<title>Node2</title>
<g id="a_node2"><a xlink:href="classTheme.html" target="_top" xlink:title="Represents a set of colors used by Interface.">
<polygon fill="white" stroke="#666666" points="50,-85 0,-85 0,-66 50,-66 50,-85"/>
<text text-anchor="middle" x="25" y="-73" font-family="Helvetica,sans-Serif" font-size="10.00">Theme</text>
</a>
</g>
</g>
<!-- Node2&#45;&gt;Node1 -->
<g id="edge1" class="edge">
<title>Node2&#45;&gt;Node1</title>
<path fill="none" stroke="#9a32cd" stroke-dasharray="5,2" d="M25,-55.58C25,-43.63 25,-28.72 25,-19.41"/>
<polygon fill="#9a32cd" stroke="#9a32cd" points="21.5,-55.87 25,-65.87 28.5,-55.87 21.5,-55.87"/>
<text text-anchor="middle" x="42.5" y="-40" font-family="Helvetica,sans-Serif" font-size="10.00"> theme</text>
</g>
<!-- Node2&#45;&gt;Node2 -->
<g id="edge2" class="edge">
<title>Node2&#45;&gt;Node2</title>
<path fill="none" stroke="#9a32cd" stroke-dasharray="5,2" d="M60.45,-80.75C65,-79.84 68,-78.09 68,-75.5 68,-71.25 59.91,-69.26 50.18,-69.52"/>
<polygon fill="#9a32cd" stroke="#9a32cd" points="59.91,-77.28 50.18,-81.48 60.4,-84.27 59.91,-77.28"/>
<text text-anchor="middle" x="104" y="-73" font-family="Helvetica,sans-Serif" font-size="10.00"> defaultTheme</text>
</g>
</g>
</svg>
