<?xml version="1.0" encoding="UTF-8" standalone="no"?>
<!DOCTYPE svg PUBLIC "-//W3C//DTD SVG 1.1//EN"
 "http://www.w3.org/Graphics/SVG/1.1/DTD/svg11.dtd">
<!-- Generated by graphviz version 2.43.0 (0)
 -->
<!-- Title: OnceAction Pages: 1 -->
<svg width="327pt" height="508pt"
 viewBox="0.00 0.00 327.00 508.00" xmlns="http://www.w3.org/2000/svg" xmlns:xlink="http://www.w3.org/1999/xlink">
<g id="graph0" class="graph" transform="scale(1 1) rotate(0) translate(4 504)">
<title>OnceAction</title>
<!-- Node1 -->
<g id="node1" class="node">
<title>Node1</title>
<g id="a_node1"><a xlink:title="A base class for Actions &#160;that are supposed to fire once.">
<polygon fill="#999999" stroke="#666666" points="155,-259 83,-259 83,-240 155,-240 155,-259"/>
<text text-anchor="middle" x="119" y="-247" font-family="Helvetica,sans-Serif" font-size="10.00">OnceAction</text>
</a>
</g>
</g>
<!-- Node3 -->
<g id="node3" class="node">
<title>Node3</title>
<g id="a_node3"><a xlink:href="classConcatAction.html" target="_top" xlink:title="An Action that concatenates all Files &#160;in State.selected into to a new one (user is asked for filenam...">
<polygon fill="white" stroke="#666666" points="295.5,-500 214.5,-500 214.5,-481 295.5,-481 295.5,-500"/>
<text text-anchor="middle" x="255" y="-488" font-family="Helvetica,sans-Serif" font-size="10.00">ConcatAction</text>
</a>
</g>
</g>
<!-- Node1&#45;&gt;Node3 -->
<g id="edge2" class="edge">
<title>Node1&#45;&gt;Node3</title>
<path fill="none" stroke="#63b8ff" d="M120.36,-269.24C122.24,-312.47 132.92,-416.13 191,-472.5 197.37,-478.68 205.7,-482.76 214.22,-485.46"/>
<polygon fill="#63b8ff" stroke="#63b8ff" points="123.85,-269.06 120.04,-259.17 116.86,-269.28 123.85,-269.06"/>
</g>
<!-- Node4 -->
<g id="node4" class="node">
<title>Node4</title>
<g id="a_node4"><a xlink:href="classCreateFileAction.html" target="_top" xlink:title="An Action that creates a blank file (user is asked for filename)">
<polygon fill="white" stroke="#666666" points="303.5,-463 206.5,-463 206.5,-444 303.5,-444 303.5,-463"/>
<text text-anchor="middle" x="255" y="-451" font-family="Helvetica,sans-Serif" font-size="10.00">CreateFileAction</text>
</a>
</g>
</g>
<!-- Node1&#45;&gt;Node4 -->
<g id="edge3" class="edge">
<title>Node1&#45;&gt;Node4</title>
<path fill="none" stroke="#63b8ff" d="M121.85,-269.54C126.44,-307.56 141.83,-390.4 191,-435.5 195.44,-439.58 200.75,-442.73 206.36,-445.18"/>
<polygon fill="#63b8ff" stroke="#63b8ff" points="125.29,-268.84 120.74,-259.27 118.33,-269.59 125.29,-268.84"/>
</g>
<!-- Node5 -->
<g id="node5" class="node">
<title>Node5</title>
<g id="a_node5"><a xlink:href="classCreateFolderAction.html" target="_top" xlink:title="An Action that creates a new folder (user is asked for name)">
<polygon fill="white" stroke="#666666" points="310,-426 200,-426 200,-407 310,-407 310,-426"/>
<text text-anchor="middle" x="255" y="-414" font-family="Helvetica,sans-Serif" font-size="10.00">CreateFolderAction</text>
</a>
</g>
</g>
<!-- Node1&#45;&gt;Node5 -->
<g id="edge4" class="edge">
<title>Node1&#45;&gt;Node5</title>
<path fill="none" stroke="#63b8ff" d="M123.89,-269.07C131.26,-300.98 150.3,-364.06 191,-398.5 194.99,-401.88 199.59,-404.63 204.44,-406.86"/>
<polygon fill="#63b8ff" stroke="#63b8ff" points="127.29,-268.23 121.75,-259.19 120.44,-269.7 127.29,-268.23"/>
</g>
<!-- Node6 -->
<g id="node6" class="node">
<title>Node6</title>
<g id="a_node6"><a xlink:href="classCreateSymlinkAction.html" target="_top" xlink:title="An Action that creates a symlink to the currently Entry under FileView.cursor (user is asked for file...">
<polygon fill="white" stroke="#666666" points="314.5,-389 195.5,-389 195.5,-370 314.5,-370 314.5,-389"/>
<text text-anchor="middle" x="255" y="-377" font-family="Helvetica,sans-Serif" font-size="10.00">CreateSymlinkAction</text>
</a>
</g>
</g>
<!-- Node1&#45;&gt;Node6 -->
<g id="edge5" class="edge">
<title>Node1&#45;&gt;Node6</title>
<path fill="none" stroke="#63b8ff" d="M127.14,-268.8C137.4,-293.89 158.73,-337.37 191,-361.5 195.56,-364.91 200.73,-367.67 206.12,-369.91"/>
<polygon fill="#63b8ff" stroke="#63b8ff" points="130.31,-267.31 123.41,-259.28 123.79,-269.86 130.31,-267.31"/>
</g>
<!-- Node7 -->
<g id="node7" class="node">
<title>Node7</title>
<g id="a_node7"><a xlink:href="classCursorDownAction.html" target="_top" xlink:title="An Action that moves FileView.cursor one Entry down.">
<polygon fill="white" stroke="#666666" points="308.5,-352 201.5,-352 201.5,-333 308.5,-333 308.5,-352"/>
<text text-anchor="middle" x="255" y="-340" font-family="Helvetica,sans-Serif" font-size="10.00">CursorDownAction</text>
</a>
</g>
</g>
<!-- Node1&#45;&gt;Node7 -->
<g id="edge6" class="edge">
<title>Node1&#45;&gt;Node7</title>
<path fill="none" stroke="#63b8ff" d="M132.65,-267.67C145.47,-284.75 166.82,-309.82 191,-324.5 196.64,-327.92 202.96,-330.72 209.36,-333"/>
<polygon fill="#63b8ff" stroke="#63b8ff" points="135.15,-265.15 126.45,-259.12 129.49,-269.27 135.15,-265.15"/>
</g>
<!-- Node8 -->
<g id="node8" class="node">
<title>Node8</title>
<g id="a_node8"><a xlink:href="classCursorUpAction.html" target="_top" xlink:title="An Action that moves FileView.cursor one Entry up.">
<polygon fill="white" stroke="#666666" points="301,-315 209,-315 209,-296 301,-296 301,-315"/>
<text text-anchor="middle" x="255" y="-303" font-family="Helvetica,sans-Serif" font-size="10.00">CursorUpAction</text>
</a>
</g>
</g>
<!-- Node1&#45;&gt;Node8 -->
<g id="edge7" class="edge">
<title>Node1&#45;&gt;Node8</title>
<path fill="none" stroke="#63b8ff" d="M144.25,-264.14C157.69,-271.83 174.89,-280.98 191,-287.5 198.8,-290.66 207.36,-293.5 215.58,-295.93"/>
<polygon fill="#63b8ff" stroke="#63b8ff" points="146.01,-261.12 135.6,-259.1 142.48,-267.16 146.01,-261.12"/>
</g>
<!-- Node9 -->
<g id="node9" class="node">
<title>Node9</title>
<g id="a_node9"><a xlink:href="classDeduplicateAction.html" target="_top" xlink:title="An Action that searches for Files &#160;with identical content to the File under FileView....">
<polygon fill="white" stroke="#666666" points="308,-278 202,-278 202,-259 308,-259 308,-278"/>
<text text-anchor="middle" x="255" y="-266" font-family="Helvetica,sans-Serif" font-size="10.00">DeduplicateAction</text>
</a>
</g>
</g>
<!-- Node1&#45;&gt;Node9 -->
<g id="edge8" class="edge">
<title>Node1&#45;&gt;Node9</title>
<path fill="none" stroke="#63b8ff" d="M165.25,-255.92C177.02,-257.58 189.79,-259.4 201.88,-261.11"/>
<polygon fill="#63b8ff" stroke="#63b8ff" points="165.6,-252.43 155.21,-254.49 164.62,-259.36 165.6,-252.43"/>
</g>
<!-- Node10 -->
<g id="node10" class="node">
<title>Node10</title>
<g id="a_node10"><a xlink:href="classGoBackAction.html" target="_top" xlink:title="An Action that moves FileView.wd one directory up (if possible)">
<polygon fill="white" stroke="#666666" points="297.5,-241 212.5,-241 212.5,-222 297.5,-222 297.5,-241"/>
<text text-anchor="middle" x="255" y="-229" font-family="Helvetica,sans-Serif" font-size="10.00">GoBackAction</text>
</a>
</g>
</g>
<!-- Node1&#45;&gt;Node10 -->
<g id="edge9" class="edge">
<title>Node1&#45;&gt;Node10</title>
<path fill="none" stroke="#63b8ff" d="M165.42,-243.4C180.62,-241.36 197.47,-239.09 212.36,-237.09"/>
<polygon fill="#63b8ff" stroke="#63b8ff" points="164.65,-239.97 155.21,-244.77 165.58,-246.91 164.65,-239.97"/>
</g>
<!-- Node11 -->
<g id="node11" class="node">
<title>Node11</title>
<g id="a_node11"><a xlink:href="classManualSelectAction.html" target="_top" xlink:title="An Action that adds the Entry under FileView.cursor to State.selected.">
<polygon fill="white" stroke="#666666" points="311.5,-204 198.5,-204 198.5,-185 311.5,-185 311.5,-204"/>
<text text-anchor="middle" x="255" y="-192" font-family="Helvetica,sans-Serif" font-size="10.00">ManualSelectAction</text>
</a>
</g>
</g>
<!-- Node1&#45;&gt;Node11 -->
<g id="edge10" class="edge">
<title>Node1&#45;&gt;Node11</title>
<path fill="none" stroke="#63b8ff" d="M145.21,-234.77C158.52,-227.41 175.31,-218.75 191,-212.5 198.92,-209.34 207.61,-206.49 215.94,-204.03"/>
<polygon fill="#63b8ff" stroke="#63b8ff" points="143.19,-231.89 136.2,-239.86 146.62,-237.99 143.19,-231.89"/>
</g>
<!-- Node12 -->
<g id="node12" class="node">
<title>Node12</title>
<g id="a_node12"><a xlink:href="classOpenAction.html" target="_top" xlink:title="An Action that sets FileView.wd to the Folder under FileView.cursor (if it is Folder)">
<polygon fill="white" stroke="#666666" points="291.5,-167 218.5,-167 218.5,-148 291.5,-148 291.5,-167"/>
<text text-anchor="middle" x="255" y="-155" font-family="Helvetica,sans-Serif" font-size="10.00">OpenAction</text>
</a>
</g>
</g>
<!-- Node1&#45;&gt;Node12 -->
<g id="edge11" class="edge">
<title>Node1&#45;&gt;Node12</title>
<path fill="none" stroke="#63b8ff" d="M132.91,-231.31C145.79,-214.47 167.07,-189.92 191,-175.5 199.28,-170.51 209.01,-166.85 218.31,-164.19"/>
<polygon fill="#63b8ff" stroke="#63b8ff" points="129.8,-229.64 126.66,-239.76 135.42,-233.81 129.8,-229.64"/>
</g>
<!-- Node13 -->
<g id="node13" class="node">
<title>Node13</title>
<g id="a_node13"><a xlink:href="classQuitAction.html" target="_top" xlink:title="An Action that stops the Application.">
<polygon fill="white" stroke="#666666" points="289,-130 221,-130 221,-111 289,-111 289,-130"/>
<text text-anchor="middle" x="255" y="-118" font-family="Helvetica,sans-Serif" font-size="10.00">QuitAction</text>
</a>
</g>
</g>
<!-- Node1&#45;&gt;Node13 -->
<g id="edge12" class="edge">
<title>Node1&#45;&gt;Node13</title>
<path fill="none" stroke="#63b8ff" d="M127.18,-230.38C137.5,-205.5 158.89,-162.41 191,-138.5 199.67,-132.05 210.58,-127.9 220.87,-125.25"/>
<polygon fill="#63b8ff" stroke="#63b8ff" points="123.87,-229.23 123.44,-239.81 130.38,-231.81 123.87,-229.23"/>
</g>
<!-- Node14 -->
<g id="node14" class="node">
<title>Node14</title>
<g id="a_node14"><a xlink:href="classRegexSelectAction.html" target="_top" xlink:title="An Action that adds Entries &#160;into State.selected if their filenames matches RegEx provided by user vi...">
<polygon fill="white" stroke="#666666" points="309,-93 201,-93 201,-74 309,-74 309,-93"/>
<text text-anchor="middle" x="255" y="-81" font-family="Helvetica,sans-Serif" font-size="10.00">RegexSelectAction</text>
</a>
</g>
</g>
<!-- Node1&#45;&gt;Node14 -->
<g id="edge13" class="edge">
<title>Node1&#45;&gt;Node14</title>
<path fill="none" stroke="#63b8ff" d="M123.93,-230.05C131.35,-198.36 150.48,-135.7 191,-101.5 195.09,-98.05 199.8,-95.26 204.76,-93.01"/>
<polygon fill="#63b8ff" stroke="#63b8ff" points="120.5,-229.36 121.77,-239.87 127.34,-230.86 120.5,-229.36"/>
</g>
<!-- Node15 -->
<g id="node15" class="node">
<title>Node15</title>
<g id="a_node15"><a xlink:href="classSelectByContentAction.html" target="_top" xlink:title="An Action that adds Entries &#160;into State.selected if their content matches RegEx provided by user via ...">
<polygon fill="white" stroke="#666666" points="319,-56 191,-56 191,-37 319,-37 319,-56"/>
<text text-anchor="middle" x="255" y="-44" font-family="Helvetica,sans-Serif" font-size="10.00">SelectByContentAction</text>
</a>
</g>
</g>
<!-- Node1&#45;&gt;Node15 -->
<g id="edge14" class="edge">
<title>Node1&#45;&gt;Node15</title>
<path fill="none" stroke="#63b8ff" d="M121.88,-229.57C126.54,-191.74 142.02,-109.34 191,-64.5 194.69,-61.12 198.98,-58.37 203.54,-56.13"/>
<polygon fill="#63b8ff" stroke="#63b8ff" points="118.37,-229.46 120.76,-239.78 125.33,-230.22 118.37,-229.46"/>
</g>
<!-- Node16 -->
<g id="node16" class="node">
<title>Node16</title>
<g id="a_node16"><a xlink:href="classUnselectAllAction.html" target="_top" xlink:title="An Action that clears State.selected.">
<polygon fill="white" stroke="#666666" points="306.5,-19 203.5,-19 203.5,0 306.5,0 306.5,-19"/>
<text text-anchor="middle" x="255" y="-7" font-family="Helvetica,sans-Serif" font-size="10.00">UnselectAllAction</text>
</a>
</g>
</g>
<!-- Node1&#45;&gt;Node16 -->
<g id="edge15" class="edge">
<title>Node1&#45;&gt;Node16</title>
<path fill="none" stroke="#63b8ff" d="M120.39,-229.85C122.33,-186.81 133.12,-83.6 191,-27.5 194.59,-24.02 198.81,-21.2 203.34,-18.92"/>
<polygon fill="#63b8ff" stroke="#63b8ff" points="116.89,-229.76 120.05,-239.87 123.88,-229.99 116.89,-229.76"/>
</g>
<!-- Node2 -->
<g id="node2" class="node">
<title>Node2</title>
<g id="a_node2"><a xlink:href="classAction.html" target="_top" xlink:title="An abstract class representing a general operation in the program.">
<polygon fill="white" stroke="#666666" points="47,-259 0,-259 0,-240 47,-240 47,-259"/>
<text text-anchor="middle" x="23.5" y="-247" font-family="Helvetica,sans-Serif" font-size="10.00">Action</text>
</a>
</g>
</g>
<!-- Node2&#45;&gt;Node1 -->
<g id="edge1" class="edge">
<title>Node2&#45;&gt;Node1</title>
<path fill="none" stroke="#63b8ff" d="M57.19,-249.5C65.47,-249.5 74.4,-249.5 82.81,-249.5"/>
<polygon fill="#63b8ff" stroke="#63b8ff" points="57.13,-246 47.13,-249.5 57.13,-253 57.13,-246"/>
</g>
</g>
</svg>
