<?xml version="1.0" encoding="UTF-8" standalone="no"?>
<!DOCTYPE svg PUBLIC "-//W3C//DTD SVG 1.1//EN"
 "http://www.w3.org/Graphics/SVG/1.1/DTD/svg11.dtd">
<!-- Generated by graphviz version 2.43.0 (0)
 -->
<!-- Title: File::print Pages: 1 -->
<svg width="192pt" height="64pt"
 viewBox="0.00 0.00 192.00 64.00" xmlns="http://www.w3.org/2000/svg" xmlns:xlink="http://www.w3.org/1999/xlink">
<g id="graph0" class="graph" transform="scale(1 1) rotate(0) translate(4 60)">
<title>File::print</title>
<!-- Node1 -->
<g id="node1" class="node">
<title>Node1</title>
<g id="a_node1"><a xlink:title=" ">
<polygon fill="#999999" stroke="#666666" points="62,-37 0,-37 0,-18 62,-18 62,-37"/>
<text text-anchor="middle" x="31" y="-25" font-family="Helvetica,sans-Serif" font-size="10.00">File::print</text>
</a>
</g>
</g>
<!-- Node2 -->
<g id="node2" class="node">
<title>Node2</title>
<g id="a_node2"><a xlink:href="classUtility.html#aede2f297a0c4e77359d7d304cd055c64" target="_top" xlink:title="Escapes a string so it can be printed.">
<polygon fill="white" stroke="#666666" points="184,-56 98,-56 98,-37 184,-37 184,-56"/>
<text text-anchor="middle" x="141" y="-44" font-family="Helvetica,sans-Serif" font-size="10.00">Utility::escape</text>
</a>
</g>
</g>
<!-- Node1&#45;&gt;Node2 -->
<g id="edge1" class="edge">
<title>Node1&#45;&gt;Node2</title>
<path fill="none" stroke="#63b8ff" d="M62.08,-32.79C70.16,-34.21 79.12,-35.79 88.01,-37.35"/>
<polygon fill="#63b8ff" stroke="#63b8ff" points="87.52,-40.82 97.97,-39.11 88.73,-33.93 87.52,-40.82"/>
</g>
<!-- Node3 -->
<g id="node3" class="node">
<title>Node3</title>
<g id="a_node3"><a xlink:href="classColor.html#a3fc18bc97803834b04e600c1441ce3b9" target="_top" xlink:title=" ">
<polygon fill="white" stroke="#666666" points="172.5,-19 109.5,-19 109.5,0 172.5,0 172.5,-19"/>
<text text-anchor="middle" x="141" y="-7" font-family="Helvetica,sans-Serif" font-size="10.00">Color::set</text>
</a>
</g>
</g>
<!-- Node1&#45;&gt;Node3 -->
<g id="edge2" class="edge">
<title>Node1&#45;&gt;Node3</title>
<path fill="none" stroke="#63b8ff" d="M62.08,-22.49C73.59,-20.57 86.92,-18.35 99.25,-16.29"/>
<polygon fill="#63b8ff" stroke="#63b8ff" points="100.04,-19.71 109.33,-14.61 98.89,-12.8 100.04,-19.71"/>
</g>
</g>
</svg>
