<?xml version="1.0" encoding="UTF-8" standalone="no"?>
<!DOCTYPE svg PUBLIC "-//W3C//DTD SVG 1.1//EN"
 "http://www.w3.org/Graphics/SVG/1.1/DTD/svg11.dtd">
<!-- Generated by graphviz version 2.43.0 (0)
 -->
<!-- Title: CreateFileAction::executeAction Pages: 1 -->
<svg width="282pt" height="174pt"
 viewBox="0.00 0.00 282.00 174.00" xmlns="http://www.w3.org/2000/svg" xmlns:xlink="http://www.w3.org/1999/xlink">
<g id="graph0" class="graph" transform="scale(1 1) rotate(0) translate(4 170)">
<title>CreateFileAction::executeAction</title>
<!-- Node1 -->
<g id="node1" class="node">
<title>Node1</title>
<g id="a_node1"><a xlink:title=" ">
<polygon fill="#999999" stroke="#666666" points="141,-88.5 0,-88.5 0,-58.5 141,-58.5 141,-88.5"/>
<text text-anchor="start" x="8" y="-76.5" font-family="Helvetica,sans-Serif" font-size="10.00">CreateFileAction::execute</text>
<text text-anchor="middle" x="70.5" y="-65.5" font-family="Helvetica,sans-Serif" font-size="10.00">Action</text>
</a>
</g>
</g>
<!-- Node2 -->
<g id="node2" class="node">
<title>Node2</title>
<g id="a_node2"><a xlink:href="classModal.html#a6e0e45b4f48f64ab0fe4a5dcad5ca8e5" target="_top" xlink:title=" ">
<polygon fill="white" stroke="#666666" points="270,-166 181,-166 181,-147 270,-147 270,-166"/>
<text text-anchor="middle" x="225.5" y="-154" font-family="Helvetica,sans-Serif" font-size="10.00">Modal::destroy</text>
</a>
</g>
</g>
<!-- Node1&#45;&gt;Node2 -->
<g id="edge1" class="edge">
<title>Node1&#45;&gt;Node2</title>
<path fill="none" stroke="#63b8ff" d="M93.43,-88.72C114.3,-102.79 146.89,-123.68 177,-138.5 180.32,-140.13 183.83,-141.72 187.38,-143.22"/>
<polygon fill="#63b8ff" stroke="#63b8ff" points="186.16,-146.5 196.74,-147 188.78,-140.01 186.16,-146.5"/>
</g>
<!-- Node3 -->
<g id="node3" class="node">
<title>Node3</title>
<g id="a_node3"><a xlink:href="classModal.html#a6776997aff5ec59e2a8ce02bcca11584" target="_top" xlink:title=" ">
<polygon fill="white" stroke="#666666" points="264,-111 187,-111 187,-92 264,-92 264,-111"/>
<text text-anchor="middle" x="225.5" y="-99" font-family="Helvetica,sans-Serif" font-size="10.00">Modal::input</text>
</a>
</g>
</g>
<!-- Node1&#45;&gt;Node3 -->
<g id="edge2" class="edge">
<title>Node1&#45;&gt;Node3</title>
<path fill="none" stroke="#63b8ff" d="M141.28,-86.27C153.23,-88.46 165.4,-90.68 176.61,-92.74"/>
<polygon fill="#63b8ff" stroke="#63b8ff" points="176.13,-96.21 186.6,-94.56 177.39,-89.32 176.13,-96.21"/>
</g>
<!-- Node4 -->
<g id="node4" class="node">
<title>Node4</title>
<g id="a_node4"><a xlink:href="classModal.html#aa9520865766fc3ec26d423d5029e410d" target="_top" xlink:title=" ">
<polygon fill="white" stroke="#666666" points="274,-56 177,-56 177,-37 274,-37 274,-56"/>
<text text-anchor="middle" x="225.5" y="-44" font-family="Helvetica,sans-Serif" font-size="10.00">Modal::message</text>
</a>
</g>
</g>
<!-- Node1&#45;&gt;Node4 -->
<g id="edge4" class="edge">
<title>Node1&#45;&gt;Node4</title>
<path fill="none" stroke="#63b8ff" d="M141.28,-61.19C149.8,-59.68 158.43,-58.16 166.74,-56.69"/>
<polygon fill="#63b8ff" stroke="#63b8ff" points="167.46,-60.12 176.7,-54.94 166.24,-53.23 167.46,-60.12"/>
</g>
<!-- Node5 -->
<g id="node5" class="node">
<title>Node5</title>
<g id="a_node5"><a xlink:href="classModal.html#a629847ce99c0bd2345fffe66aae88629" target="_top" xlink:title=" ">
<polygon fill="white" stroke="#666666" points="264.5,-19 186.5,-19 186.5,0 264.5,0 264.5,-19"/>
<text text-anchor="middle" x="225.5" y="-7" font-family="Helvetica,sans-Serif" font-size="10.00">Modal::show</text>
</a>
</g>
</g>
<!-- Node1&#45;&gt;Node5 -->
<g id="edge6" class="edge">
<title>Node1&#45;&gt;Node5</title>
<path fill="none" stroke="#63b8ff" d="M106.58,-58.3C127.07,-49.48 153.44,-38.23 177,-28.5 181.48,-26.65 186.22,-24.72 190.89,-22.83"/>
<polygon fill="#63b8ff" stroke="#63b8ff" points="192.32,-26.03 200.29,-19.06 189.71,-19.54 192.32,-26.03"/>
</g>
<!-- Node3&#45;&gt;Node3 -->
<g id="edge3" class="edge">
<title>Node3&#45;&gt;Node3</title>
<path fill="none" stroke="#63b8ff" d="M201.76,-111.08C190.22,-119.73 198.13,-129 225.5,-129 243.46,-129 253.04,-125.01 254.25,-119.82"/>
<polygon fill="#63b8ff" stroke="#63b8ff" points="257.25,-118.02 249.24,-111.08 251.17,-121.5 257.25,-118.02"/>
</g>
<!-- Node4&#45;&gt;Node4 -->
<g id="edge5" class="edge">
<title>Node4&#45;&gt;Node4</title>
<path fill="none" stroke="#63b8ff" d="M201.76,-56.08C190.22,-64.73 198.13,-74 225.5,-74 243.46,-74 253.04,-70.01 254.25,-64.82"/>
<polygon fill="#63b8ff" stroke="#63b8ff" points="257.25,-63.02 249.24,-56.08 251.17,-66.5 257.25,-63.02"/>
</g>
</g>
</svg>
