<?xml version="1.0" encoding="UTF-8" standalone="no"?>
<!DOCTYPE svg PUBLIC "-//W3C//DTD SVG 1.1//EN"
 "http://www.w3.org/Graphics/SVG/1.1/DTD/svg11.dtd">
<!-- Generated by graphviz version 2.43.0 (0)
 -->
<!-- Title: UnselectAllAction Pages: 1 -->
<svg width="111pt" height="137pt"
 viewBox="0.00 0.00 111.00 137.00" xmlns="http://www.w3.org/2000/svg" xmlns:xlink="http://www.w3.org/1999/xlink">
<g id="graph0" class="graph" transform="scale(1 1) rotate(0) translate(4 133)">
<title>UnselectAllAction</title>
<!-- Node1 -->
<g id="node1" class="node">
<title>Node1</title>
<g id="a_node1"><a xlink:title="An Action that clears State.selected.">
<polygon fill="#999999" stroke="#666666" points="103,-19 0,-19 0,0 103,0 103,-19"/>
<text text-anchor="middle" x="51.5" y="-7" font-family="Helvetica,sans-Serif" font-size="10.00">UnselectAllAction</text>
</a>
</g>
</g>
<!-- Node2 -->
<g id="node2" class="node">
<title>Node2</title>
<g id="a_node2"><a xlink:href="classOnceAction.html" target="_top" xlink:title="A base class for Actions &#160;that are supposed to fire once.">
<polygon fill="white" stroke="#666666" points="87.5,-74 15.5,-74 15.5,-55 87.5,-55 87.5,-74"/>
<text text-anchor="middle" x="51.5" y="-62" font-family="Helvetica,sans-Serif" font-size="10.00">OnceAction</text>
</a>
</g>
</g>
<!-- Node2&#45;&gt;Node1 -->
<g id="edge1" class="edge">
<title>Node2&#45;&gt;Node1</title>
<path fill="none" stroke="#63b8ff" d="M51.5,-44.66C51.5,-35.93 51.5,-25.99 51.5,-19.09"/>
<polygon fill="#63b8ff" stroke="#63b8ff" points="48,-44.75 51.5,-54.75 55,-44.75 48,-44.75"/>
</g>
<!-- Node3 -->
<g id="node3" class="node">
<title>Node3</title>
<g id="a_node3"><a xlink:href="classAction.html" target="_top" xlink:title="An abstract class representing a general operation in the program.">
<polygon fill="white" stroke="#666666" points="75,-129 28,-129 28,-110 75,-110 75,-129"/>
<text text-anchor="middle" x="51.5" y="-117" font-family="Helvetica,sans-Serif" font-size="10.00">Action</text>
</a>
</g>
</g>
<!-- Node3&#45;&gt;Node2 -->
<g id="edge2" class="edge">
<title>Node3&#45;&gt;Node2</title>
<path fill="none" stroke="#63b8ff" d="M51.5,-99.66C51.5,-90.93 51.5,-80.99 51.5,-74.09"/>
<polygon fill="#63b8ff" stroke="#63b8ff" points="48,-99.75 51.5,-109.75 55,-99.75 48,-99.75"/>
</g>
</g>
</svg>
