<?xml version="1.0" encoding="UTF-8" standalone="no"?>
<!DOCTYPE svg PUBLIC "-//W3C//DTD SVG 1.1//EN"
 "http://www.w3.org/Graphics/SVG/1.1/DTD/svg11.dtd">
<!-- Generated by graphviz version 2.43.0 (0)
 -->
<!-- Title: Folder::move Pages: 1 -->
<svg width="214pt" height="64pt"
 viewBox="0.00 0.00 214.00 64.00" xmlns="http://www.w3.org/2000/svg" xmlns:xlink="http://www.w3.org/1999/xlink">
<g id="graph0" class="graph" transform="scale(1 1) rotate(0) translate(4 60)">
<title>Folder::move</title>
<!-- Node1 -->
<g id="node1" class="node">
<title>Node1</title>
<g id="a_node1"><a xlink:title=" ">
<polygon fill="#999999" stroke="#666666" points="80,-37 0,-37 0,-18 80,-18 80,-37"/>
<text text-anchor="middle" x="40" y="-25" font-family="Helvetica,sans-Serif" font-size="10.00">Folder::move</text>
</a>
</g>
</g>
<!-- Node2 -->
<g id="node2" class="node">
<title>Node2</title>
<g id="a_node2"><a xlink:href="classFolder.html#a874de2249ecc1d7555d103c8f1d5f4fc" target="_top" xlink:title=" ">
<polygon fill="white" stroke="#666666" points="199,-56 123,-56 123,-37 199,-37 199,-56"/>
<text text-anchor="middle" x="161" y="-44" font-family="Helvetica,sans-Serif" font-size="10.00">Folder::copy</text>
</a>
</g>
</g>
<!-- Node1&#45;&gt;Node2 -->
<g id="edge1" class="edge">
<title>Node1&#45;&gt;Node2</title>
<path fill="none" stroke="#63b8ff" d="M80.29,-33.77C90.66,-35.43 101.95,-37.23 112.69,-38.95"/>
<polygon fill="#63b8ff" stroke="#63b8ff" points="112.34,-42.43 122.76,-40.55 113.44,-35.52 112.34,-42.43"/>
</g>
<!-- Node3 -->
<g id="node3" class="node">
<title>Node3</title>
<g id="a_node3"><a xlink:href="classFolder.html#a0c57871e027fa37571ffd2468c5e8083" target="_top" xlink:title=" ">
<polygon fill="white" stroke="#666666" points="206,-19 116,-19 116,0 206,0 206,-19"/>
<text text-anchor="middle" x="161" y="-7" font-family="Helvetica,sans-Serif" font-size="10.00">Folder::remove</text>
</a>
</g>
</g>
<!-- Node1&#45;&gt;Node3 -->
<g id="edge2" class="edge">
<title>Node1&#45;&gt;Node3</title>
<path fill="none" stroke="#63b8ff" d="M80.29,-21.56C88.47,-20.32 97.22,-19 105.82,-17.69"/>
<polygon fill="#63b8ff" stroke="#63b8ff" points="106.45,-21.14 115.81,-16.18 105.4,-14.22 106.45,-21.14"/>
</g>
</g>
</svg>
