<?xml version="1.0" encoding="UTF-8" standalone="no"?>
<!DOCTYPE svg PUBLIC "-//W3C//DTD SVG 1.1//EN"
 "http://www.w3.org/Graphics/SVG/1.1/DTD/svg11.dtd">
<!-- Generated by graphviz version 2.43.0 (0)
 -->
<!-- Title: ForEachAction Pages: 1 -->
<svg width="270pt" height="137pt"
 viewBox="0.00 0.00 270.00 137.00" xmlns="http://www.w3.org/2000/svg" xmlns:xlink="http://www.w3.org/1999/xlink">
<g id="graph0" class="graph" transform="scale(1 1) rotate(0) translate(4 133)">
<title>ForEachAction</title>
<!-- Node1 -->
<g id="node1" class="node">
<title>Node1</title>
<g id="a_node1"><a xlink:title="A base class for Actions &#160;that are supposed to iterate over State.selected.">
<polygon fill="#999999" stroke="#666666" points="173,-74 87,-74 87,-55 173,-55 173,-74"/>
<text text-anchor="middle" x="130" y="-62" font-family="Helvetica,sans-Serif" font-size="10.00">ForEachAction</text>
</a>
</g>
</g>
<!-- Node3 -->
<g id="node3" class="node">
<title>Node3</title>
<g id="a_node3"><a xlink:href="classCopyAction.html" target="_top" xlink:title="An Action that copies all Entries &#160;in State.selected to FileView.wd.">
<polygon fill="white" stroke="#666666" points="72,-19 0,-19 0,0 72,0 72,-19"/>
<text text-anchor="middle" x="36" y="-7" font-family="Helvetica,sans-Serif" font-size="10.00">CopyAction</text>
</a>
</g>
</g>
<!-- Node1&#45;&gt;Node3 -->
<g id="edge2" class="edge">
<title>Node1&#45;&gt;Node3</title>
<path fill="none" stroke="#63b8ff" d="M106,-49.97C88.81,-40.28 66.19,-27.52 51.38,-19.17"/>
<polygon fill="#63b8ff" stroke="#63b8ff" points="104.47,-53.12 114.9,-54.98 107.91,-47.02 104.47,-53.12"/>
</g>
<!-- Node4 -->
<g id="node4" class="node">
<title>Node4</title>
<g id="a_node4"><a xlink:href="classDeleteAction.html" target="_top" xlink:title="An Action that deletes all Entries &#160;in State.selected.">
<polygon fill="white" stroke="#666666" points="170,-19 90,-19 90,0 170,0 170,-19"/>
<text text-anchor="middle" x="130" y="-7" font-family="Helvetica,sans-Serif" font-size="10.00">DeleteAction</text>
</a>
</g>
</g>
<!-- Node1&#45;&gt;Node4 -->
<g id="edge3" class="edge">
<title>Node1&#45;&gt;Node4</title>
<path fill="none" stroke="#63b8ff" d="M130,-44.66C130,-35.93 130,-25.99 130,-19.09"/>
<polygon fill="#63b8ff" stroke="#63b8ff" points="126.5,-44.75 130,-54.75 133.5,-44.75 126.5,-44.75"/>
</g>
<!-- Node5 -->
<g id="node5" class="node">
<title>Node5</title>
<g id="a_node5"><a xlink:href="classMoveAction.html" target="_top" xlink:title="An Action that moves all Entries &#160;in State.selected to FileView.wd.">
<polygon fill="white" stroke="#666666" points="262,-19 188,-19 188,0 262,0 262,-19"/>
<text text-anchor="middle" x="225" y="-7" font-family="Helvetica,sans-Serif" font-size="10.00">MoveAction</text>
</a>
</g>
</g>
<!-- Node1&#45;&gt;Node5 -->
<g id="edge4" class="edge">
<title>Node1&#45;&gt;Node5</title>
<path fill="none" stroke="#63b8ff" d="M154.26,-49.97C171.63,-40.28 194.49,-27.52 209.46,-19.17"/>
<polygon fill="#63b8ff" stroke="#63b8ff" points="152.29,-47.06 145.26,-54.98 155.7,-53.17 152.29,-47.06"/>
</g>
<!-- Node2 -->
<g id="node2" class="node">
<title>Node2</title>
<g id="a_node2"><a xlink:href="classAction.html" target="_top" xlink:title="An abstract class representing a general operation in the program.">
<polygon fill="white" stroke="#666666" points="153.5,-129 106.5,-129 106.5,-110 153.5,-110 153.5,-129"/>
<text text-anchor="middle" x="130" y="-117" font-family="Helvetica,sans-Serif" font-size="10.00">Action</text>
</a>
</g>
</g>
<!-- Node2&#45;&gt;Node1 -->
<g id="edge1" class="edge">
<title>Node2&#45;&gt;Node1</title>
<path fill="none" stroke="#63b8ff" d="M130,-99.66C130,-90.93 130,-80.99 130,-74.09"/>
<polygon fill="#63b8ff" stroke="#63b8ff" points="126.5,-99.75 130,-109.75 133.5,-99.75 126.5,-99.75"/>
</g>
</g>
</svg>
