<?xml version="1.0" encoding="UTF-8" standalone="no"?>
<!DOCTYPE svg PUBLIC "-//W3C//DTD SVG 1.1//EN"
 "http://www.w3.org/Graphics/SVG/1.1/DTD/svg11.dtd">
<!-- Generated by graphviz version 2.43.0 (0)
 -->
<!-- Title: Modal::message Pages: 1 -->
<svg width="282pt" height="134pt"
 viewBox="0.00 0.00 282.00 134.00" xmlns="http://www.w3.org/2000/svg" xmlns:xlink="http://www.w3.org/1999/xlink">
<g id="graph0" class="graph" transform="scale(1 1) rotate(0) translate(4 130)">
<title>Modal::message</title>
<!-- Node1 -->
<g id="node1" class="node">
<title>Node1</title>
<g id="a_node1"><a xlink:title=" ">
<polygon fill="#999999" stroke="#666666" points="274,-72.5 177,-72.5 177,-53.5 274,-53.5 274,-72.5"/>
<text text-anchor="middle" x="225.5" y="-60.5" font-family="Helvetica,sans-Serif" font-size="10.00">Modal::message</text>
</a>
</g>
</g>
<!-- Node1&#45;&gt;Node1 -->
<g id="edge4" class="edge">
<title>Node1&#45;&gt;Node1</title>
<path fill="none" stroke="#63b8ff" d="M254.25,-81.32C253.04,-86.51 243.46,-90.5 225.5,-90.5 198.13,-90.5 190.22,-81.23 201.76,-72.58"/>
<polygon fill="#63b8ff" stroke="#63b8ff" points="257.25,-79.52 249.24,-72.58 251.17,-83 257.25,-79.52"/>
</g>
<!-- Node2 -->
<g id="node2" class="node">
<title>Node2</title>
<g id="a_node2"><a xlink:href="classCreateFileAction.html#a9a90362ecf1aa4b9d0f32d8849042954" target="_top" xlink:title=" ">
<polygon fill="white" stroke="#666666" points="141,-126 0,-126 0,-96 141,-96 141,-126"/>
<text text-anchor="start" x="8" y="-114" font-family="Helvetica,sans-Serif" font-size="10.00">CreateFileAction::execute</text>
<text text-anchor="middle" x="70.5" y="-103" font-family="Helvetica,sans-Serif" font-size="10.00">Action</text>
</a>
</g>
</g>
<!-- Node1&#45;&gt;Node2 -->
<g id="edge1" class="edge">
<title>Node1&#45;&gt;Node2</title>
<path fill="none" stroke="#63b8ff" d="M184.24,-75.63C164.4,-81.86 140.32,-89.41 119.51,-95.94"/>
<polygon fill="#63b8ff" stroke="#63b8ff" points="185.41,-78.93 193.91,-72.6 183.32,-72.25 185.41,-78.93"/>
</g>
<!-- Node3 -->
<g id="node3" class="node">
<title>Node3</title>
<g id="a_node3"><a xlink:href="classCreateFolderAction.html#a382deeee6c0d0b3535157e8b266ac07e" target="_top" xlink:title=" ">
<polygon fill="white" stroke="#666666" points="125.5,-78 15.5,-78 15.5,-48 125.5,-48 125.5,-78"/>
<text text-anchor="start" x="23.5" y="-66" font-family="Helvetica,sans-Serif" font-size="10.00">CreateFolderAction</text>
<text text-anchor="middle" x="70.5" y="-55" font-family="Helvetica,sans-Serif" font-size="10.00">::executeAction</text>
</a>
</g>
</g>
<!-- Node1&#45;&gt;Node3 -->
<g id="edge2" class="edge">
<title>Node1&#45;&gt;Node3</title>
<path fill="none" stroke="#63b8ff" d="M166.82,-63C153.34,-63 139.04,-63 125.72,-63"/>
<polygon fill="#63b8ff" stroke="#63b8ff" points="166.93,-66.5 176.93,-63 166.93,-59.5 166.93,-66.5"/>
</g>
<!-- Node4 -->
<g id="node4" class="node">
<title>Node4</title>
<g id="a_node4"><a xlink:href="classCreateSymlinkAction.html#a0736fcf258c51c1e33a3e2e28194b746" target="_top" xlink:title=" ">
<polygon fill="white" stroke="#666666" points="130,-30 11,-30 11,0 130,0 130,-30"/>
<text text-anchor="start" x="19" y="-18" font-family="Helvetica,sans-Serif" font-size="10.00">CreateSymlinkAction</text>
<text text-anchor="middle" x="70.5" y="-7" font-family="Helvetica,sans-Serif" font-size="10.00">::executeAction</text>
</a>
</g>
</g>
<!-- Node1&#45;&gt;Node4 -->
<g id="edge3" class="edge">
<title>Node1&#45;&gt;Node4</title>
<path fill="none" stroke="#63b8ff" d="M184.24,-50.37C164.4,-44.14 140.32,-36.59 119.51,-30.06"/>
<polygon fill="#63b8ff" stroke="#63b8ff" points="183.32,-53.75 193.91,-53.4 185.41,-47.07 183.32,-53.75"/>
</g>
</g>
</svg>
