<?xml version="1.0" encoding="UTF-8" standalone="no"?>
<!DOCTYPE svg PUBLIC "-//W3C//DTD SVG 1.1//EN"
 "http://www.w3.org/Graphics/SVG/1.1/DTD/svg11.dtd">
<!-- Generated by graphviz version 2.43.0 (0)
 -->
<!-- Title: Modal::show Pages: 1 -->
<svg width="278pt" height="268pt"
 viewBox="0.00 0.00 278.00 267.50" xmlns="http://www.w3.org/2000/svg" xmlns:xlink="http://www.w3.org/1999/xlink">
<g id="graph0" class="graph" transform="scale(1 1) rotate(0) translate(4 263.5)">
<title>Modal::show</title>
<!-- Node1 -->
<g id="node1" class="node">
<title>Node1</title>
<g id="a_node1"><a xlink:title=" ">
<polygon fill="#999999" stroke="#666666" points="270,-144.5 192,-144.5 192,-125.5 270,-125.5 270,-144.5"/>
<text text-anchor="middle" x="231" y="-132.5" font-family="Helvetica,sans-Serif" font-size="10.00">Modal::show</text>
</a>
</g>
</g>
<!-- Node2 -->
<g id="node2" class="node">
<title>Node2</title>
<g id="a_node2"><a xlink:href="classConcatAction.html#a1b4a74a56d75b18f935970c113e62cf6" target="_top" xlink:title=" ">
<polygon fill="white" stroke="#666666" points="156,-259.5 0,-259.5 0,-240.5 156,-240.5 156,-259.5"/>
<text text-anchor="middle" x="78" y="-247.5" font-family="Helvetica,sans-Serif" font-size="10.00">ConcatAction::executeAction</text>
</a>
</g>
</g>
<!-- Node1&#45;&gt;Node2 -->
<g id="edge1" class="edge">
<title>Node1&#45;&gt;Node2</title>
<path fill="none" stroke="#63b8ff" d="M220.69,-153.62C208.76,-175.55 185.96,-211.46 156,-231 150,-234.91 143.27,-238.02 136.34,-240.49"/>
<polygon fill="#63b8ff" stroke="#63b8ff" points="223.86,-155.12 225.4,-144.63 217.66,-151.87 223.86,-155.12"/>
</g>
<!-- Node3 -->
<g id="node3" class="node">
<title>Node3</title>
<g id="a_node3"><a xlink:href="classCreateFileAction.html#a9a90362ecf1aa4b9d0f32d8849042954" target="_top" xlink:title=" ">
<polygon fill="white" stroke="#666666" points="148.5,-222 7.5,-222 7.5,-192 148.5,-192 148.5,-222"/>
<text text-anchor="start" x="15.5" y="-210" font-family="Helvetica,sans-Serif" font-size="10.00">CreateFileAction::execute</text>
<text text-anchor="middle" x="78" y="-199" font-family="Helvetica,sans-Serif" font-size="10.00">Action</text>
</a>
</g>
</g>
<!-- Node1&#45;&gt;Node3 -->
<g id="edge2" class="edge">
<title>Node1&#45;&gt;Node3</title>
<path fill="none" stroke="#63b8ff" d="M209.35,-150.59C194.99,-160.88 175.06,-174.06 156,-183 149.03,-186.27 141.5,-189.25 133.97,-191.9"/>
<polygon fill="#63b8ff" stroke="#63b8ff" points="211.51,-153.35 217.53,-144.62 207.39,-147.69 211.51,-153.35"/>
</g>
<!-- Node4 -->
<g id="node4" class="node">
<title>Node4</title>
<g id="a_node4"><a xlink:href="classCreateFolderAction.html#a382deeee6c0d0b3535157e8b266ac07e" target="_top" xlink:title=" ">
<polygon fill="white" stroke="#666666" points="133,-174 23,-174 23,-144 133,-144 133,-174"/>
<text text-anchor="start" x="31" y="-162" font-family="Helvetica,sans-Serif" font-size="10.00">CreateFolderAction</text>
<text text-anchor="middle" x="78" y="-151" font-family="Helvetica,sans-Serif" font-size="10.00">::executeAction</text>
</a>
</g>
</g>
<!-- Node1&#45;&gt;Node4 -->
<g id="edge3" class="edge">
<title>Node1&#45;&gt;Node4</title>
<path fill="none" stroke="#63b8ff" d="M181.96,-142.64C166.4,-145.11 149.03,-147.87 133.06,-150.41"/>
<polygon fill="#63b8ff" stroke="#63b8ff" points="182.57,-146.08 191.9,-141.06 181.47,-139.17 182.57,-146.08"/>
</g>
<!-- Node5 -->
<g id="node5" class="node">
<title>Node5</title>
<g id="a_node5"><a xlink:href="classCreateSymlinkAction.html#a0736fcf258c51c1e33a3e2e28194b746" target="_top" xlink:title=" ">
<polygon fill="white" stroke="#666666" points="137.5,-126 18.5,-126 18.5,-96 137.5,-96 137.5,-126"/>
<text text-anchor="start" x="26.5" y="-114" font-family="Helvetica,sans-Serif" font-size="10.00">CreateSymlinkAction</text>
<text text-anchor="middle" x="78" y="-103" font-family="Helvetica,sans-Serif" font-size="10.00">::executeAction</text>
</a>
</g>
</g>
<!-- Node1&#45;&gt;Node5 -->
<g id="edge4" class="edge">
<title>Node1&#45;&gt;Node5</title>
<path fill="none" stroke="#63b8ff" d="M181.94,-127.36C167.87,-125.13 152.33,-122.66 137.68,-120.33"/>
<polygon fill="#63b8ff" stroke="#63b8ff" points="181.47,-130.83 191.9,-128.94 182.57,-123.92 181.47,-130.83"/>
</g>
<!-- Node6 -->
<g id="node6" class="node">
<title>Node6</title>
<g id="a_node6"><a xlink:href="classRegexSelectAction.html#a991ed64c3a7f2bc516f2683b781640f3" target="_top" xlink:title=" ">
<polygon fill="white" stroke="#666666" points="135,-78 21,-78 21,-48 135,-48 135,-78"/>
<text text-anchor="start" x="29" y="-66" font-family="Helvetica,sans-Serif" font-size="10.00">RegexSelectAction::</text>
<text text-anchor="middle" x="78" y="-55" font-family="Helvetica,sans-Serif" font-size="10.00">executeAction</text>
</a>
</g>
</g>
<!-- Node1&#45;&gt;Node6 -->
<g id="edge5" class="edge">
<title>Node1&#45;&gt;Node6</title>
<path fill="none" stroke="#63b8ff" d="M209.35,-119.41C194.99,-109.12 175.06,-95.94 156,-87 149.03,-83.73 141.5,-80.75 133.97,-78.1"/>
<polygon fill="#63b8ff" stroke="#63b8ff" points="207.39,-122.31 217.53,-125.38 211.51,-116.65 207.39,-122.31"/>
</g>
<!-- Node7 -->
<g id="node7" class="node">
<title>Node7</title>
<g id="a_node7"><a xlink:href="classSelectByContentAction.html#a3d98e9d9ee4c20bc76878ae2e4829828" target="_top" xlink:title=" ">
<polygon fill="white" stroke="#666666" points="142,-30 14,-30 14,0 142,0 142,-30"/>
<text text-anchor="start" x="22" y="-18" font-family="Helvetica,sans-Serif" font-size="10.00">SelectByContentAction</text>
<text text-anchor="middle" x="78" y="-7" font-family="Helvetica,sans-Serif" font-size="10.00">::executeAction</text>
</a>
</g>
</g>
<!-- Node1&#45;&gt;Node7 -->
<g id="edge6" class="edge">
<title>Node1&#45;&gt;Node7</title>
<path fill="none" stroke="#63b8ff" d="M220.3,-116.35C208.12,-94.69 185.21,-59.33 156,-39 151.06,-35.56 145.6,-32.6 139.95,-30.05"/>
<polygon fill="#63b8ff" stroke="#63b8ff" points="217.28,-118.12 225.13,-125.24 223.43,-114.78 217.28,-118.12"/>
</g>
</g>
</svg>
