<?xml version="1.0" encoding="UTF-8" standalone="no"?>
<!DOCTYPE svg PUBLIC "-//W3C//DTD SVG 1.1//EN"
 "http://www.w3.org/Graphics/SVG/1.1/DTD/svg11.dtd">
<!-- Generated by graphviz version 2.43.0 (0)
 -->
<!-- Title: SelectByContentAction::executeAction Pages: 1 -->
<svg width="427pt" height="156pt"
 viewBox="0.00 0.00 427.00 156.00" xmlns="http://www.w3.org/2000/svg" xmlns:xlink="http://www.w3.org/1999/xlink">
<g id="graph0" class="graph" transform="scale(1 1) rotate(0) translate(4 152)">
<title>SelectByContentAction::executeAction</title>
<!-- Node1 -->
<g id="node1" class="node">
<title>Node1</title>
<g id="a_node1"><a xlink:title=" ">
<polygon fill="#999999" stroke="#666666" points="128,-88.5 0,-88.5 0,-58.5 128,-58.5 128,-88.5"/>
<text text-anchor="start" x="8" y="-76.5" font-family="Helvetica,sans-Serif" font-size="10.00">SelectByContentAction</text>
<text text-anchor="middle" x="64" y="-65.5" font-family="Helvetica,sans-Serif" font-size="10.00">::executeAction</text>
</a>
</g>
</g>
<!-- Node2 -->
<g id="node2" class="node">
<title>Node2</title>
<g id="a_node2"><a xlink:href="classModal.html#a6e0e45b4f48f64ab0fe4a5dcad5ca8e5" target="_top" xlink:title=" ">
<polygon fill="white" stroke="#666666" points="266,-148 177,-148 177,-129 266,-129 266,-148"/>
<text text-anchor="middle" x="221.5" y="-136" font-family="Helvetica,sans-Serif" font-size="10.00">Modal::destroy</text>
</a>
</g>
</g>
<!-- Node1&#45;&gt;Node2 -->
<g id="edge1" class="edge">
<title>Node1&#45;&gt;Node2</title>
<path fill="none" stroke="#63b8ff" d="M94,-88.54C113.49,-98.33 139.93,-111 164,-120.5 168.55,-122.29 173.35,-124.04 178.17,-125.7"/>
<polygon fill="#63b8ff" stroke="#63b8ff" points="177.37,-129.13 187.97,-128.96 179.58,-122.48 177.37,-129.13"/>
</g>
<!-- Node3 -->
<g id="node3" class="node">
<title>Node3</title>
<g id="a_node3"><a xlink:href="classFileView.html#ad41f6b770e7c214b0a029675417273de" target="_top" xlink:title="Get Entries &#160;representing all files/folders in wd.">
<polygon fill="white" stroke="#666666" points="279,-111 164,-111 164,-92 279,-92 279,-111"/>
<text text-anchor="middle" x="221.5" y="-99" font-family="Helvetica,sans-Serif" font-size="10.00">FileView::getCurrent</text>
</a>
</g>
</g>
<!-- Node1&#45;&gt;Node3 -->
<g id="edge2" class="edge">
<title>Node1&#45;&gt;Node3</title>
<path fill="none" stroke="#63b8ff" d="M128.25,-84.89C137.86,-86.62 147.78,-88.4 157.38,-90.13"/>
<polygon fill="#63b8ff" stroke="#63b8ff" points="156.8,-93.59 167.26,-91.91 158.04,-86.7 156.8,-93.59"/>
</g>
<!-- Node5 -->
<g id="node5" class="node">
<title>Node5</title>
<g id="a_node5"><a xlink:href="classModal.html#a6776997aff5ec59e2a8ce02bcca11584" target="_top" xlink:title=" ">
<polygon fill="white" stroke="#666666" points="260,-56 183,-56 183,-37 260,-37 260,-56"/>
<text text-anchor="middle" x="221.5" y="-44" font-family="Helvetica,sans-Serif" font-size="10.00">Modal::input</text>
</a>
</g>
</g>
<!-- Node1&#45;&gt;Node5 -->
<g id="edge4" class="edge">
<title>Node1&#45;&gt;Node5</title>
<path fill="none" stroke="#63b8ff" d="M128.25,-62.52C143.13,-59.93 158.75,-57.22 172.82,-54.78"/>
<polygon fill="#63b8ff" stroke="#63b8ff" points="173.5,-58.21 182.76,-53.05 172.31,-51.32 173.5,-58.21"/>
</g>
<!-- Node6 -->
<g id="node6" class="node">
<title>Node6</title>
<g id="a_node6"><a xlink:href="classModal.html#a629847ce99c0bd2345fffe66aae88629" target="_top" xlink:title=" ">
<polygon fill="white" stroke="#666666" points="260.5,-19 182.5,-19 182.5,0 260.5,0 260.5,-19"/>
<text text-anchor="middle" x="221.5" y="-7" font-family="Helvetica,sans-Serif" font-size="10.00">Modal::show</text>
</a>
</g>
</g>
<!-- Node1&#45;&gt;Node6 -->
<g id="edge6" class="edge">
<title>Node1&#45;&gt;Node6</title>
<path fill="none" stroke="#63b8ff" d="M95.86,-58.49C115.22,-49.32 140.82,-37.64 164,-28.5 169.24,-26.44 174.8,-24.39 180.31,-22.45"/>
<polygon fill="#63b8ff" stroke="#63b8ff" points="181.77,-25.65 190.09,-19.09 179.5,-19.03 181.77,-25.65"/>
</g>
<!-- Node4 -->
<g id="node4" class="node">
<title>Node4</title>
<g id="a_node4"><a xlink:href="classUtility.html#a4b4ebc4aa064a2002f8d42b781fce5a5" target="_top" xlink:title="Makes the correct entry object based on it&#39;s path.">
<polygon fill="white" stroke="#666666" points="419,-111 315,-111 315,-92 419,-92 419,-111"/>
<text text-anchor="middle" x="367" y="-99" font-family="Helvetica,sans-Serif" font-size="10.00">Utility::makeEntry</text>
</a>
</g>
</g>
<!-- Node3&#45;&gt;Node4 -->
<g id="edge3" class="edge">
<title>Node3&#45;&gt;Node4</title>
<path fill="none" stroke="#63b8ff" d="M279.21,-101.5C287.57,-101.5 296.21,-101.5 304.65,-101.5"/>
<polygon fill="#63b8ff" stroke="#63b8ff" points="304.82,-105 314.82,-101.5 304.82,-98 304.82,-105"/>
</g>
<!-- Node5&#45;&gt;Node5 -->
<g id="edge5" class="edge">
<title>Node5&#45;&gt;Node5</title>
<path fill="none" stroke="#63b8ff" d="M199.31,-56.08C188.51,-64.73 195.91,-74 221.5,-74 237.9,-74 246.82,-70.2 248.29,-65.19"/>
<polygon fill="#63b8ff" stroke="#63b8ff" points="251.32,-63.44 243.69,-56.08 245.07,-66.59 251.32,-63.44"/>
</g>
</g>
</svg>
