<?xml version="1.0" encoding="UTF-8" standalone="no"?>
<!DOCTYPE svg PUBLIC "-//W3C//DTD SVG 1.1//EN"
 "http://www.w3.org/Graphics/SVG/1.1/DTD/svg11.dtd">
<!-- Generated by graphviz version 2.43.0 (0)
 -->
<!-- Title: Modal::input Pages: 1 -->
<svg width="277pt" height="268pt"
 viewBox="0.00 0.00 277.00 267.50" xmlns="http://www.w3.org/2000/svg" xmlns:xlink="http://www.w3.org/1999/xlink">
<g id="graph0" class="graph" transform="scale(1 1) rotate(0) translate(4 263.5)">
<title>Modal::input</title>
<!-- Node1 -->
<g id="node1" class="node">
<title>Node1</title>
<g id="a_node1"><a xlink:title=" ">
<polygon fill="#999999" stroke="#666666" points="269,-144.5 192,-144.5 192,-125.5 269,-125.5 269,-144.5"/>
<text text-anchor="middle" x="230.5" y="-132.5" font-family="Helvetica,sans-Serif" font-size="10.00">Modal::input</text>
</a>
</g>
</g>
<!-- Node1&#45;&gt;Node1 -->
<g id="edge7" class="edge">
<title>Node1&#45;&gt;Node1</title>
<path fill="none" stroke="#63b8ff" d="M258.87,-153.32C257.69,-158.51 248.23,-162.5 230.5,-162.5 203.48,-162.5 195.68,-153.23 207.07,-144.58"/>
<polygon fill="#63b8ff" stroke="#63b8ff" points="261.9,-151.56 253.93,-144.58 255.81,-155.01 261.9,-151.56"/>
</g>
<!-- Node2 -->
<g id="node2" class="node">
<title>Node2</title>
<g id="a_node2"><a xlink:href="classConcatAction.html#a1b4a74a56d75b18f935970c113e62cf6" target="_top" xlink:title=" ">
<polygon fill="white" stroke="#666666" points="156,-259.5 0,-259.5 0,-240.5 156,-240.5 156,-259.5"/>
<text text-anchor="middle" x="78" y="-247.5" font-family="Helvetica,sans-Serif" font-size="10.00">ConcatAction::executeAction</text>
</a>
</g>
</g>
<!-- Node1&#45;&gt;Node2 -->
<g id="edge1" class="edge">
<title>Node1&#45;&gt;Node2</title>
<path fill="none" stroke="#63b8ff" d="M220.29,-153.62C208.46,-175.55 185.85,-211.46 156,-231 150.12,-234.85 143.53,-237.91 136.75,-240.36"/>
<polygon fill="#63b8ff" stroke="#63b8ff" points="223.45,-155.12 224.95,-144.63 217.24,-151.9 223.45,-155.12"/>
</g>
<!-- Node3 -->
<g id="node3" class="node">
<title>Node3</title>
<g id="a_node3"><a xlink:href="classCreateFileAction.html#a9a90362ecf1aa4b9d0f32d8849042954" target="_top" xlink:title=" ">
<polygon fill="white" stroke="#666666" points="148.5,-222 7.5,-222 7.5,-192 148.5,-192 148.5,-222"/>
<text text-anchor="start" x="15.5" y="-210" font-family="Helvetica,sans-Serif" font-size="10.00">CreateFileAction::execute</text>
<text text-anchor="middle" x="78" y="-199" font-family="Helvetica,sans-Serif" font-size="10.00">Action</text>
</a>
</g>
</g>
<!-- Node1&#45;&gt;Node3 -->
<g id="edge2" class="edge">
<title>Node1&#45;&gt;Node3</title>
<path fill="none" stroke="#63b8ff" d="M209.01,-150.6C194.74,-160.89 174.95,-174.07 156,-183 149.03,-186.28 141.51,-189.26 133.98,-191.92"/>
<polygon fill="#63b8ff" stroke="#63b8ff" points="211.14,-153.37 217.12,-144.63 206.99,-147.74 211.14,-153.37"/>
</g>
<!-- Node4 -->
<g id="node4" class="node">
<title>Node4</title>
<g id="a_node4"><a xlink:href="classCreateFolderAction.html#a382deeee6c0d0b3535157e8b266ac07e" target="_top" xlink:title=" ">
<polygon fill="white" stroke="#666666" points="133,-174 23,-174 23,-144 133,-144 133,-174"/>
<text text-anchor="start" x="31" y="-162" font-family="Helvetica,sans-Serif" font-size="10.00">CreateFolderAction</text>
<text text-anchor="middle" x="78" y="-151" font-family="Helvetica,sans-Serif" font-size="10.00">::executeAction</text>
</a>
</g>
</g>
<!-- Node1&#45;&gt;Node4 -->
<g id="edge3" class="edge">
<title>Node1&#45;&gt;Node4</title>
<path fill="none" stroke="#63b8ff" d="M182,-142.57C166.48,-145.05 149.12,-147.82 133.14,-150.37"/>
<polygon fill="#63b8ff" stroke="#63b8ff" points="182.59,-146.03 191.91,-140.99 181.48,-139.11 182.59,-146.03"/>
</g>
<!-- Node5 -->
<g id="node5" class="node">
<title>Node5</title>
<g id="a_node5"><a xlink:href="classCreateSymlinkAction.html#a0736fcf258c51c1e33a3e2e28194b746" target="_top" xlink:title=" ">
<polygon fill="white" stroke="#666666" points="137.5,-126 18.5,-126 18.5,-96 137.5,-96 137.5,-126"/>
<text text-anchor="start" x="26.5" y="-114" font-family="Helvetica,sans-Serif" font-size="10.00">CreateSymlinkAction</text>
<text text-anchor="middle" x="78" y="-103" font-family="Helvetica,sans-Serif" font-size="10.00">::executeAction</text>
</a>
</g>
</g>
<!-- Node1&#45;&gt;Node5 -->
<g id="edge4" class="edge">
<title>Node1&#45;&gt;Node5</title>
<path fill="none" stroke="#63b8ff" d="M181.99,-127.42C167.95,-125.18 152.41,-122.71 137.76,-120.37"/>
<polygon fill="#63b8ff" stroke="#63b8ff" points="181.48,-130.89 191.91,-129.01 182.59,-123.97 181.48,-130.89"/>
</g>
<!-- Node6 -->
<g id="node6" class="node">
<title>Node6</title>
<g id="a_node6"><a xlink:href="classRegexSelectAction.html#a991ed64c3a7f2bc516f2683b781640f3" target="_top" xlink:title=" ">
<polygon fill="white" stroke="#666666" points="135,-78 21,-78 21,-48 135,-48 135,-78"/>
<text text-anchor="start" x="29" y="-66" font-family="Helvetica,sans-Serif" font-size="10.00">RegexSelectAction::</text>
<text text-anchor="middle" x="78" y="-55" font-family="Helvetica,sans-Serif" font-size="10.00">executeAction</text>
</a>
</g>
</g>
<!-- Node1&#45;&gt;Node6 -->
<g id="edge5" class="edge">
<title>Node1&#45;&gt;Node6</title>
<path fill="none" stroke="#63b8ff" d="M209.01,-119.4C194.74,-109.11 174.95,-95.93 156,-87 149.03,-83.72 141.51,-80.74 133.98,-78.08"/>
<polygon fill="#63b8ff" stroke="#63b8ff" points="206.99,-122.26 217.12,-125.37 211.14,-116.63 206.99,-122.26"/>
</g>
<!-- Node7 -->
<g id="node7" class="node">
<title>Node7</title>
<g id="a_node7"><a xlink:href="classSelectByContentAction.html#a3d98e9d9ee4c20bc76878ae2e4829828" target="_top" xlink:title=" ">
<polygon fill="white" stroke="#666666" points="142,-30 14,-30 14,0 142,0 142,-30"/>
<text text-anchor="start" x="22" y="-18" font-family="Helvetica,sans-Serif" font-size="10.00">SelectByContentAction</text>
<text text-anchor="middle" x="78" y="-7" font-family="Helvetica,sans-Serif" font-size="10.00">::executeAction</text>
</a>
</g>
</g>
<!-- Node1&#45;&gt;Node7 -->
<g id="edge6" class="edge">
<title>Node1&#45;&gt;Node7</title>
<path fill="none" stroke="#63b8ff" d="M219.9,-116.35C207.83,-94.69 185.1,-59.33 156,-39 151.06,-35.55 145.61,-32.59 139.96,-30.04"/>
<polygon fill="#63b8ff" stroke="#63b8ff" points="216.86,-118.09 224.68,-125.24 223.03,-114.77 216.86,-118.09"/>
</g>
</g>
</svg>
