<?xml version="1.0" encoding="UTF-8" standalone="no"?>
<!DOCTYPE svg PUBLIC "-//W3C//DTD SVG 1.1//EN"
 "http://www.w3.org/Graphics/SVG/1.1/DTD/svg11.dtd">
<!-- Generated by graphviz version 2.43.0 (0)
 -->
<!-- Title: Folder::print Pages: 1 -->
<svg width="205pt" height="64pt"
 viewBox="0.00 0.00 205.00 64.00" xmlns="http://www.w3.org/2000/svg" xmlns:xlink="http://www.w3.org/1999/xlink">
<g id="graph0" class="graph" transform="scale(1 1) rotate(0) translate(4 60)">
<title>Folder::print</title>
<!-- Node1 -->
<g id="node1" class="node">
<title>Node1</title>
<g id="a_node1"><a xlink:title=" ">
<polygon fill="#999999" stroke="#666666" points="75,-37 0,-37 0,-18 75,-18 75,-37"/>
<text text-anchor="middle" x="37.5" y="-25" font-family="Helvetica,sans-Serif" font-size="10.00">Folder::print</text>
</a>
</g>
</g>
<!-- Node2 -->
<g id="node2" class="node">
<title>Node2</title>
<g id="a_node2"><a xlink:href="classUtility.html#aede2f297a0c4e77359d7d304cd055c64" target="_top" xlink:title="Escapes a string so it can be printed.">
<polygon fill="white" stroke="#666666" points="197,-56 111,-56 111,-37 197,-37 197,-56"/>
<text text-anchor="middle" x="154" y="-44" font-family="Helvetica,sans-Serif" font-size="10.00">Utility::escape</text>
</a>
</g>
</g>
<!-- Node1&#45;&gt;Node2 -->
<g id="edge1" class="edge">
<title>Node1&#45;&gt;Node2</title>
<path fill="none" stroke="#63b8ff" d="M75.04,-33.56C83.23,-34.92 92.07,-36.39 100.75,-37.83"/>
<polygon fill="#63b8ff" stroke="#63b8ff" points="100.38,-41.32 110.82,-39.5 101.53,-34.41 100.38,-41.32"/>
</g>
<!-- Node3 -->
<g id="node3" class="node">
<title>Node3</title>
<g id="a_node3"><a xlink:href="classColor.html#a3fc18bc97803834b04e600c1441ce3b9" target="_top" xlink:title=" ">
<polygon fill="white" stroke="#666666" points="185.5,-19 122.5,-19 122.5,0 185.5,0 185.5,-19"/>
<text text-anchor="middle" x="154" y="-7" font-family="Helvetica,sans-Serif" font-size="10.00">Color::set</text>
</a>
</g>
</g>
<!-- Node1&#45;&gt;Node3 -->
<g id="edge2" class="edge">
<title>Node1&#45;&gt;Node3</title>
<path fill="none" stroke="#63b8ff" d="M75.04,-21.76C86.91,-19.89 100.14,-17.81 112.29,-15.9"/>
<polygon fill="#63b8ff" stroke="#63b8ff" points="112.84,-19.36 122.18,-14.35 111.76,-12.44 112.84,-19.36"/>
</g>
</g>
</svg>
