<?xml version="1.0" encoding="UTF-8" standalone="no"?>
<!DOCTYPE svg PUBLIC "-//W3C//DTD SVG 1.1//EN"
 "http://www.w3.org/Graphics/SVG/1.1/DTD/svg11.dtd">
<!-- Generated by graphviz version 2.43.0 (0)
 -->
<!-- Title: Symlink::move Pages: 1 -->
<svg width="234pt" height="64pt"
 viewBox="0.00 0.00 234.00 64.00" xmlns="http://www.w3.org/2000/svg" xmlns:xlink="http://www.w3.org/1999/xlink">
<g id="graph0" class="graph" transform="scale(1 1) rotate(0) translate(4 60)">
<title>Symlink::move</title>
<!-- Node1 -->
<g id="node1" class="node">
<title>Node1</title>
<g id="a_node1"><a xlink:title=" ">
<polygon fill="#999999" stroke="#666666" points="90,-37 0,-37 0,-18 90,-18 90,-37"/>
<text text-anchor="middle" x="45" y="-25" font-family="Helvetica,sans-Serif" font-size="10.00">Symlink::move</text>
</a>
</g>
</g>
<!-- Node2 -->
<g id="node2" class="node">
<title>Node2</title>
<g id="a_node2"><a xlink:href="classSymlink.html#a6de1254c2252a428c6936bcfb74f19ef" target="_top" xlink:title=" ">
<polygon fill="white" stroke="#666666" points="219,-56 133,-56 133,-37 219,-37 219,-56"/>
<text text-anchor="middle" x="176" y="-44" font-family="Helvetica,sans-Serif" font-size="10.00">Symlink::copy</text>
</a>
</g>
</g>
<!-- Node1&#45;&gt;Node2 -->
<g id="edge1" class="edge">
<title>Node1&#45;&gt;Node2</title>
<path fill="none" stroke="#63b8ff" d="M90.03,-33.99C100.54,-35.53 111.86,-37.2 122.7,-38.8"/>
<polygon fill="#63b8ff" stroke="#63b8ff" points="122.5,-42.31 132.91,-40.3 123.52,-35.38 122.5,-42.31"/>
</g>
<!-- Node3 -->
<g id="node3" class="node">
<title>Node3</title>
<g id="a_node3"><a xlink:href="classSymlink.html#ab783755057ac7bcce559b0b62f40c64c" target="_top" xlink:title=" ">
<polygon fill="white" stroke="#666666" points="226,-19 126,-19 126,0 226,0 226,-19"/>
<text text-anchor="middle" x="176" y="-7" font-family="Helvetica,sans-Serif" font-size="10.00">Symlink::remove</text>
</a>
</g>
</g>
<!-- Node1&#45;&gt;Node3 -->
<g id="edge2" class="edge">
<title>Node1&#45;&gt;Node3</title>
<path fill="none" stroke="#63b8ff" d="M90.03,-21.36C98.32,-20.2 107.11,-18.97 115.78,-17.76"/>
<polygon fill="#63b8ff" stroke="#63b8ff" points="116.43,-21.21 125.85,-16.36 115.46,-14.27 116.43,-21.21"/>
</g>
</g>
</svg>
