<?xml version="1.0" encoding="UTF-8" standalone="no"?>
<!DOCTYPE svg PUBLIC "-//W3C//DTD SVG 1.1//EN"
 "http://www.w3.org/Graphics/SVG/1.1/DTD/svg11.dtd">
<!-- Generated by graphviz version 2.43.0 (0)
 -->
<!-- Title: Modal::destroy Pages: 1 -->
<svg width="289pt" height="268pt"
 viewBox="0.00 0.00 289.00 267.50" xmlns="http://www.w3.org/2000/svg" xmlns:xlink="http://www.w3.org/1999/xlink">
<g id="graph0" class="graph" transform="scale(1 1) rotate(0) translate(4 263.5)">
<title>Modal::destroy</title>
<!-- Node1 -->
<g id="node1" class="node">
<title>Node1</title>
<g id="a_node1"><a xlink:title=" ">
<polygon fill="#999999" stroke="#666666" points="281,-144.5 192,-144.5 192,-125.5 281,-125.5 281,-144.5"/>
<text text-anchor="middle" x="236.5" y="-132.5" font-family="Helvetica,sans-Serif" font-size="10.00">Modal::destroy</text>
</a>
</g>
</g>
<!-- Node2 -->
<g id="node2" class="node">
<title>Node2</title>
<g id="a_node2"><a xlink:href="classConcatAction.html#a1b4a74a56d75b18f935970c113e62cf6" target="_top" xlink:title=" ">
<polygon fill="white" stroke="#666666" points="156,-259.5 0,-259.5 0,-240.5 156,-240.5 156,-259.5"/>
<text text-anchor="middle" x="78" y="-247.5" font-family="Helvetica,sans-Serif" font-size="10.00">ConcatAction::executeAction</text>
</a>
</g>
</g>
<!-- Node1&#45;&gt;Node2 -->
<g id="edge1" class="edge">
<title>Node1&#45;&gt;Node2</title>
<path fill="none" stroke="#63b8ff" d="M225.33,-153.32C212.21,-175.22 187.29,-211.36 156,-231 149.82,-234.88 142.9,-237.97 135.81,-240.42"/>
<polygon fill="#63b8ff" stroke="#63b8ff" points="228.38,-155.04 230.37,-144.63 222.32,-151.53 228.38,-155.04"/>
</g>
<!-- Node3 -->
<g id="node3" class="node">
<title>Node3</title>
<g id="a_node3"><a xlink:href="classCreateFileAction.html#a9a90362ecf1aa4b9d0f32d8849042954" target="_top" xlink:title=" ">
<polygon fill="white" stroke="#666666" points="148.5,-222 7.5,-222 7.5,-192 148.5,-192 148.5,-222"/>
<text text-anchor="start" x="15.5" y="-210" font-family="Helvetica,sans-Serif" font-size="10.00">CreateFileAction::execute</text>
<text text-anchor="middle" x="78" y="-199" font-family="Helvetica,sans-Serif" font-size="10.00">Action</text>
</a>
</g>
</g>
<!-- Node1&#45;&gt;Node3 -->
<g id="edge2" class="edge">
<title>Node1&#45;&gt;Node3</title>
<path fill="none" stroke="#63b8ff" d="M213.59,-150.21C198.05,-160.49 176.4,-173.82 156,-183 148.72,-186.27 140.87,-189.28 133.05,-191.97"/>
<polygon fill="#63b8ff" stroke="#63b8ff" points="215.64,-153.04 221.98,-144.56 211.73,-147.24 215.64,-153.04"/>
</g>
<!-- Node4 -->
<g id="node4" class="node">
<title>Node4</title>
<g id="a_node4"><a xlink:href="classCreateFolderAction.html#a382deeee6c0d0b3535157e8b266ac07e" target="_top" xlink:title=" ">
<polygon fill="white" stroke="#666666" points="133,-174 23,-174 23,-144 133,-144 133,-174"/>
<text text-anchor="start" x="31" y="-162" font-family="Helvetica,sans-Serif" font-size="10.00">CreateFolderAction</text>
<text text-anchor="middle" x="78" y="-151" font-family="Helvetica,sans-Serif" font-size="10.00">::executeAction</text>
</a>
</g>
</g>
<!-- Node1&#45;&gt;Node4 -->
<g id="edge3" class="edge">
<title>Node1&#45;&gt;Node4</title>
<path fill="none" stroke="#63b8ff" d="M181.83,-143.23C166.14,-145.64 148.97,-148.27 133.24,-150.68"/>
<polygon fill="#63b8ff" stroke="#63b8ff" points="182.55,-146.66 191.91,-141.69 181.49,-139.74 182.55,-146.66"/>
</g>
<!-- Node5 -->
<g id="node5" class="node">
<title>Node5</title>
<g id="a_node5"><a xlink:href="classCreateSymlinkAction.html#a0736fcf258c51c1e33a3e2e28194b746" target="_top" xlink:title=" ">
<polygon fill="white" stroke="#666666" points="137.5,-126 18.5,-126 18.5,-96 137.5,-96 137.5,-126"/>
<text text-anchor="start" x="26.5" y="-114" font-family="Helvetica,sans-Serif" font-size="10.00">CreateSymlinkAction</text>
<text text-anchor="middle" x="78" y="-103" font-family="Helvetica,sans-Serif" font-size="10.00">::executeAction</text>
</a>
</g>
</g>
<!-- Node1&#45;&gt;Node5 -->
<g id="edge4" class="edge">
<title>Node1&#45;&gt;Node5</title>
<path fill="none" stroke="#63b8ff" d="M181.77,-126.76C167.52,-124.58 152.06,-122.2 137.57,-119.98"/>
<polygon fill="#63b8ff" stroke="#63b8ff" points="181.49,-130.26 191.91,-128.31 182.55,-123.34 181.49,-130.26"/>
</g>
<!-- Node6 -->
<g id="node6" class="node">
<title>Node6</title>
<g id="a_node6"><a xlink:href="classRegexSelectAction.html#a991ed64c3a7f2bc516f2683b781640f3" target="_top" xlink:title=" ">
<polygon fill="white" stroke="#666666" points="135,-78 21,-78 21,-48 135,-48 135,-78"/>
<text text-anchor="start" x="29" y="-66" font-family="Helvetica,sans-Serif" font-size="10.00">RegexSelectAction::</text>
<text text-anchor="middle" x="78" y="-55" font-family="Helvetica,sans-Serif" font-size="10.00">executeAction</text>
</a>
</g>
</g>
<!-- Node1&#45;&gt;Node6 -->
<g id="edge5" class="edge">
<title>Node1&#45;&gt;Node6</title>
<path fill="none" stroke="#63b8ff" d="M213.59,-119.79C198.05,-109.51 176.4,-96.18 156,-87 148.72,-83.73 140.87,-80.72 133.05,-78.03"/>
<polygon fill="#63b8ff" stroke="#63b8ff" points="211.73,-122.76 221.98,-125.44 215.64,-116.96 211.73,-122.76"/>
</g>
<!-- Node7 -->
<g id="node7" class="node">
<title>Node7</title>
<g id="a_node7"><a xlink:href="classSelectByContentAction.html#a3d98e9d9ee4c20bc76878ae2e4829828" target="_top" xlink:title=" ">
<polygon fill="white" stroke="#666666" points="142,-30 14,-30 14,0 142,0 142,-30"/>
<text text-anchor="start" x="22" y="-18" font-family="Helvetica,sans-Serif" font-size="10.00">SelectByContentAction</text>
<text text-anchor="middle" x="78" y="-7" font-family="Helvetica,sans-Serif" font-size="10.00">::executeAction</text>
</a>
</g>
</g>
<!-- Node1&#45;&gt;Node7 -->
<g id="edge6" class="edge">
<title>Node1&#45;&gt;Node7</title>
<path fill="none" stroke="#63b8ff" d="M224.92,-116.66C211.55,-95.04 186.53,-59.47 156,-39 150.88,-35.57 145.25,-32.61 139.43,-30.06"/>
<polygon fill="#63b8ff" stroke="#63b8ff" points="221.93,-118.48 230.08,-125.25 227.93,-114.87 221.93,-118.48"/>
</g>
</g>
</svg>
