<?xml version="1.0" encoding="UTF-8" standalone="no"?>
<!DOCTYPE svg PUBLIC "-//W3C//DTD SVG 1.1//EN"
 "http://www.w3.org/Graphics/SVG/1.1/DTD/svg11.dtd">
<!-- Generated by graphviz version 2.43.0 (0)
 -->
<!-- Title: ManualSelectAction::executeAction Pages: 1 -->
<svg width="412pt" height="38pt"
 viewBox="0.00 0.00 412.00 38.00" xmlns="http://www.w3.org/2000/svg" xmlns:xlink="http://www.w3.org/1999/xlink">
<g id="graph0" class="graph" transform="scale(1 1) rotate(0) translate(4 34)">
<title>ManualSelectAction::executeAction</title>
<!-- Node1 -->
<g id="node1" class="node">
<title>Node1</title>
<g id="a_node1"><a xlink:title=" ">
<polygon fill="#999999" stroke="#666666" points="113,-30 0,-30 0,0 113,0 113,-30"/>
<text text-anchor="start" x="8" y="-18" font-family="Helvetica,sans-Serif" font-size="10.00">ManualSelectAction</text>
<text text-anchor="middle" x="56.5" y="-7" font-family="Helvetica,sans-Serif" font-size="10.00">::executeAction</text>
</a>
</g>
</g>
<!-- Node2 -->
<g id="node2" class="node">
<title>Node2</title>
<g id="a_node2"><a xlink:href="classFileView.html#ad41f6b770e7c214b0a029675417273de" target="_top" xlink:title="Get Entries &#160;representing all files/folders in wd.">
<polygon fill="white" stroke="#666666" points="264,-24.5 149,-24.5 149,-5.5 264,-5.5 264,-24.5"/>
<text text-anchor="middle" x="206.5" y="-12.5" font-family="Helvetica,sans-Serif" font-size="10.00">FileView::getCurrent</text>
</a>
</g>
</g>
<!-- Node1&#45;&gt;Node2 -->
<g id="edge1" class="edge">
<title>Node1&#45;&gt;Node2</title>
<path fill="none" stroke="#63b8ff" d="M113.03,-15C121.31,-15 129.92,-15 138.41,-15"/>
<polygon fill="#63b8ff" stroke="#63b8ff" points="138.67,-18.5 148.67,-15 138.67,-11.5 138.67,-18.5"/>
</g>
<!-- Node3 -->
<g id="node3" class="node">
<title>Node3</title>
<g id="a_node3"><a xlink:href="classUtility.html#a4b4ebc4aa064a2002f8d42b781fce5a5" target="_top" xlink:title="Makes the correct entry object based on it&#39;s path.">
<polygon fill="white" stroke="#666666" points="404,-24.5 300,-24.5 300,-5.5 404,-5.5 404,-24.5"/>
<text text-anchor="middle" x="352" y="-12.5" font-family="Helvetica,sans-Serif" font-size="10.00">Utility::makeEntry</text>
</a>
</g>
</g>
<!-- Node2&#45;&gt;Node3 -->
<g id="edge2" class="edge">
<title>Node2&#45;&gt;Node3</title>
<path fill="none" stroke="#63b8ff" d="M264.21,-15C272.57,-15 281.21,-15 289.65,-15"/>
<polygon fill="#63b8ff" stroke="#63b8ff" points="289.82,-18.5 299.82,-15 289.82,-11.5 289.82,-18.5"/>
</g>
</g>
</svg>
