<?xml version="1.0" encoding="UTF-8" standalone="no"?>
<!DOCTYPE svg PUBLIC "-//W3C//DTD SVG 1.1//EN"
 "http://www.w3.org/Graphics/SVG/1.1/DTD/svg11.dtd">
<!-- Generated by graphviz version 2.43.0 (0)
 -->
<!-- Title: Action Pages: 1 -->
<svg width="341pt" height="619pt"
 viewBox="0.00 0.00 341.00 619.00" xmlns="http://www.w3.org/2000/svg" xmlns:xlink="http://www.w3.org/1999/xlink">
<g id="graph0" class="graph" transform="scale(1 1) rotate(0) translate(4 615)">
<title>Action</title>
<!-- Node1 -->
<g id="node1" class="node">
<title>Node1</title>
<g id="a_node1"><a xlink:title="An abstract class representing a general operation in the program.">
<polygon fill="#999999" stroke="#666666" points="47,-407 0,-407 0,-388 47,-388 47,-407"/>
<text text-anchor="middle" x="23.5" y="-395" font-family="Helvetica,sans-Serif" font-size="10.00">Action</text>
</a>
</g>
</g>
<!-- Node2 -->
<g id="node2" class="node">
<title>Node2</title>
<g id="a_node2"><a xlink:href="classForEachAction.html" target="_top" xlink:title="A base class for Actions &#160;that are supposed to iterate over State.selected.">
<polygon fill="white" stroke="#666666" points="169,-555 83,-555 83,-536 169,-536 169,-555"/>
<text text-anchor="middle" x="126" y="-543" font-family="Helvetica,sans-Serif" font-size="10.00">ForEachAction</text>
</a>
</g>
</g>
<!-- Node1&#45;&gt;Node2 -->
<g id="edge1" class="edge">
<title>Node1&#45;&gt;Node2</title>
<path fill="none" stroke="#63b8ff" d="M36.76,-415.55C58.25,-447.21 102.02,-511.65 118.51,-535.95"/>
<polygon fill="#63b8ff" stroke="#63b8ff" points="39.61,-413.52 31.09,-407.21 33.82,-417.45 39.61,-413.52"/>
</g>
<!-- Node6 -->
<g id="node6" class="node">
<title>Node6</title>
<g id="a_node6"><a xlink:href="classOnceAction.html" target="_top" xlink:title="A base class for Actions &#160;that are supposed to fire once.">
<polygon fill="white" stroke="#666666" points="162,-278 90,-278 90,-259 162,-259 162,-278"/>
<text text-anchor="middle" x="126" y="-266" font-family="Helvetica,sans-Serif" font-size="10.00">OnceAction</text>
</a>
</g>
</g>
<!-- Node1&#45;&gt;Node6 -->
<g id="edge5" class="edge">
<title>Node1&#45;&gt;Node6</title>
<path fill="none" stroke="#63b8ff" d="M38.3,-379.79C59.77,-352.23 100.47,-299.99 117.36,-278.31"/>
<polygon fill="#63b8ff" stroke="#63b8ff" points="35.44,-377.76 32.05,-387.8 40.96,-382.07 35.44,-377.76"/>
</g>
<!-- Node3 -->
<g id="node3" class="node">
<title>Node3</title>
<g id="a_node3"><a xlink:href="classCopyAction.html" target="_top" xlink:title="An Action that copies all Entries &#160;in State.selected to FileView.wd.">
<polygon fill="white" stroke="#666666" points="305,-611 233,-611 233,-592 305,-592 305,-611"/>
<text text-anchor="middle" x="269" y="-599" font-family="Helvetica,sans-Serif" font-size="10.00">CopyAction</text>
</a>
</g>
</g>
<!-- Node2&#45;&gt;Node3 -->
<g id="edge2" class="edge">
<title>Node2&#45;&gt;Node3</title>
<path fill="none" stroke="#63b8ff" d="M153.38,-559.78C168.25,-567.47 187.35,-576.74 205,-583.5 213.92,-586.92 223.77,-590.03 232.98,-592.67"/>
<polygon fill="#63b8ff" stroke="#63b8ff" points="154.75,-556.55 144.27,-555 151.49,-562.75 154.75,-556.55"/>
</g>
<!-- Node4 -->
<g id="node4" class="node">
<title>Node4</title>
<g id="a_node4"><a xlink:href="classDeleteAction.html" target="_top" xlink:title="An Action that deletes all Entries &#160;in State.selected.">
<polygon fill="white" stroke="#666666" points="309,-574 229,-574 229,-555 309,-555 309,-574"/>
<text text-anchor="middle" x="269" y="-562" font-family="Helvetica,sans-Serif" font-size="10.00">DeleteAction</text>
</a>
</g>
</g>
<!-- Node2&#45;&gt;Node4 -->
<g id="edge3" class="edge">
<title>Node2&#45;&gt;Node4</title>
<path fill="none" stroke="#63b8ff" d="M179.26,-552.54C195.59,-554.74 213.33,-557.13 228.62,-559.19"/>
<polygon fill="#63b8ff" stroke="#63b8ff" points="179.68,-549.07 169.3,-551.2 178.75,-556 179.68,-549.07"/>
</g>
<!-- Node5 -->
<g id="node5" class="node">
<title>Node5</title>
<g id="a_node5"><a xlink:href="classMoveAction.html" target="_top" xlink:title="An Action that moves all Entries &#160;in State.selected to FileView.wd.">
<polygon fill="white" stroke="#666666" points="306,-537 232,-537 232,-518 306,-518 306,-537"/>
<text text-anchor="middle" x="269" y="-525" font-family="Helvetica,sans-Serif" font-size="10.00">MoveAction</text>
</a>
</g>
</g>
<!-- Node2&#45;&gt;Node5 -->
<g id="edge4" class="edge">
<title>Node2&#45;&gt;Node5</title>
<path fill="none" stroke="#63b8ff" d="M179.38,-538.81C196.87,-536.58 215.96,-534.14 231.92,-532.11"/>
<polygon fill="#63b8ff" stroke="#63b8ff" points="178.78,-535.36 169.3,-540.1 179.67,-542.3 178.78,-535.36"/>
</g>
<!-- Node7 -->
<g id="node7" class="node">
<title>Node7</title>
<g id="a_node7"><a xlink:href="classConcatAction.html" target="_top" xlink:title="An Action that concatenates all Files &#160;in State.selected into to a new one (user is asked for filenam...">
<polygon fill="white" stroke="#666666" points="309.5,-500 228.5,-500 228.5,-481 309.5,-481 309.5,-500"/>
<text text-anchor="middle" x="269" y="-488" font-family="Helvetica,sans-Serif" font-size="10.00">ConcatAction</text>
</a>
</g>
</g>
<!-- Node6&#45;&gt;Node7 -->
<g id="edge6" class="edge">
<title>Node6&#45;&gt;Node7</title>
<path fill="none" stroke="#63b8ff" d="M128.78,-288.26C133.51,-328.88 150.07,-422.15 205,-472.5 211.54,-478.5 219.94,-482.51 228.47,-485.19"/>
<polygon fill="#63b8ff" stroke="#63b8ff" points="132.26,-287.87 127.74,-278.28 125.29,-288.59 132.26,-287.87"/>
</g>
<!-- Node8 -->
<g id="node8" class="node">
<title>Node8</title>
<g id="a_node8"><a xlink:href="classCreateFileAction.html" target="_top" xlink:title="An Action that creates a blank file (user is asked for filename)">
<polygon fill="white" stroke="#666666" points="317.5,-463 220.5,-463 220.5,-444 317.5,-444 317.5,-463"/>
<text text-anchor="middle" x="269" y="-451" font-family="Helvetica,sans-Serif" font-size="10.00">CreateFileAction</text>
</a>
</g>
</g>
<!-- Node6&#45;&gt;Node8 -->
<g id="edge7" class="edge">
<title>Node6&#45;&gt;Node8</title>
<path fill="none" stroke="#63b8ff" d="M130.61,-287.99C138.09,-322.87 158.64,-395.97 205,-435.5 209.5,-439.34 214.77,-442.36 220.32,-444.74"/>
<polygon fill="#63b8ff" stroke="#63b8ff" points="134.02,-287.22 128.62,-278.11 127.16,-288.6 134.02,-287.22"/>
</g>
<!-- Node9 -->
<g id="node9" class="node">
<title>Node9</title>
<g id="a_node9"><a xlink:href="classCreateFolderAction.html" target="_top" xlink:title="An Action that creates a new folder (user is asked for name)">
<polygon fill="white" stroke="#666666" points="324,-426 214,-426 214,-407 324,-407 324,-426"/>
<text text-anchor="middle" x="269" y="-414" font-family="Helvetica,sans-Serif" font-size="10.00">CreateFolderAction</text>
</a>
</g>
</g>
<!-- Node6&#45;&gt;Node9 -->
<g id="edge8" class="edge">
<title>Node6&#45;&gt;Node9</title>
<path fill="none" stroke="#63b8ff" d="M133.29,-287.6C143.66,-316.07 167.04,-369.38 205,-398.5 209.42,-401.89 214.46,-404.65 219.72,-406.88"/>
<polygon fill="#63b8ff" stroke="#63b8ff" points="136.55,-286.31 129.96,-278.01 129.94,-288.61 136.55,-286.31"/>
</g>
<!-- Node10 -->
<g id="node10" class="node">
<title>Node10</title>
<g id="a_node10"><a xlink:href="classCreateSymlinkAction.html" target="_top" xlink:title="An Action that creates a symlink to the currently Entry under FileView.cursor (user is asked for file...">
<polygon fill="white" stroke="#666666" points="328.5,-389 209.5,-389 209.5,-370 328.5,-370 328.5,-389"/>
<text text-anchor="middle" x="269" y="-377" font-family="Helvetica,sans-Serif" font-size="10.00">CreateSymlinkAction</text>
</a>
</g>
</g>
<!-- Node6&#45;&gt;Node10 -->
<g id="edge9" class="edge">
<title>Node6&#45;&gt;Node10</title>
<path fill="none" stroke="#63b8ff" d="M137.53,-286.67C150.67,-307.75 175.11,-342.1 205,-361.5 210.25,-364.91 216.15,-367.68 222.18,-369.93"/>
<polygon fill="#63b8ff" stroke="#63b8ff" points="140.47,-284.77 132.3,-278.01 134.48,-288.38 140.47,-284.77"/>
</g>
<!-- Node11 -->
<g id="node11" class="node">
<title>Node11</title>
<g id="a_node11"><a xlink:href="classCursorDownAction.html" target="_top" xlink:title="An Action that moves FileView.cursor one Entry down.">
<polygon fill="white" stroke="#666666" points="322.5,-352 215.5,-352 215.5,-333 322.5,-333 322.5,-352"/>
<text text-anchor="middle" x="269" y="-340" font-family="Helvetica,sans-Serif" font-size="10.00">CursorDownAction</text>
</a>
</g>
</g>
<!-- Node6&#45;&gt;Node11 -->
<g id="edge10" class="edge">
<title>Node6&#45;&gt;Node11</title>
<path fill="none" stroke="#63b8ff" d="M145.86,-284.9C160.97,-297.3 183.17,-313.94 205,-324.5 211.86,-327.82 219.45,-330.63 226.91,-332.98"/>
<polygon fill="#63b8ff" stroke="#63b8ff" points="147.75,-281.92 137.84,-278.17 143.25,-287.28 147.75,-281.92"/>
</g>
<!-- Node12 -->
<g id="node12" class="node">
<title>Node12</title>
<g id="a_node12"><a xlink:href="classCursorUpAction.html" target="_top" xlink:title="An Action that moves FileView.cursor one Entry up.">
<polygon fill="white" stroke="#666666" points="315,-315 223,-315 223,-296 315,-296 315,-315"/>
<text text-anchor="middle" x="269" y="-303" font-family="Helvetica,sans-Serif" font-size="10.00">CursorUpAction</text>
</a>
</g>
</g>
<!-- Node6&#45;&gt;Node12 -->
<g id="edge11" class="edge">
<title>Node6&#45;&gt;Node12</title>
<path fill="none" stroke="#63b8ff" d="M172,-280.31C191.3,-285.37 213.55,-291.21 231.76,-295.99"/>
<polygon fill="#63b8ff" stroke="#63b8ff" points="172.78,-276.89 162.22,-277.74 171,-283.66 172.78,-276.89"/>
</g>
<!-- Node13 -->
<g id="node13" class="node">
<title>Node13</title>
<g id="a_node13"><a xlink:href="classDeduplicateAction.html" target="_top" xlink:title="An Action that searches for Files &#160;with identical content to the File under FileView....">
<polygon fill="white" stroke="#666666" points="322,-278 216,-278 216,-259 322,-259 322,-278"/>
<text text-anchor="middle" x="269" y="-266" font-family="Helvetica,sans-Serif" font-size="10.00">DeduplicateAction</text>
</a>
</g>
</g>
<!-- Node6&#45;&gt;Node13 -->
<g id="edge12" class="edge">
<title>Node6&#45;&gt;Node13</title>
<path fill="none" stroke="#63b8ff" d="M172.48,-268.5C186.34,-268.5 201.68,-268.5 215.93,-268.5"/>
<polygon fill="#63b8ff" stroke="#63b8ff" points="172.22,-265 162.22,-268.5 172.22,-272 172.22,-265"/>
</g>
<!-- Node14 -->
<g id="node14" class="node">
<title>Node14</title>
<g id="a_node14"><a xlink:href="classGoBackAction.html" target="_top" xlink:title="An Action that moves FileView.wd one directory up (if possible)">
<polygon fill="white" stroke="#666666" points="311.5,-241 226.5,-241 226.5,-222 311.5,-222 311.5,-241"/>
<text text-anchor="middle" x="269" y="-229" font-family="Helvetica,sans-Serif" font-size="10.00">GoBackAction</text>
</a>
</g>
</g>
<!-- Node6&#45;&gt;Node14 -->
<g id="edge13" class="edge">
<title>Node6&#45;&gt;Node14</title>
<path fill="none" stroke="#63b8ff" d="M172,-256.69C191.3,-251.63 213.55,-245.79 231.76,-241.01"/>
<polygon fill="#63b8ff" stroke="#63b8ff" points="171,-253.34 162.22,-259.26 172.78,-260.11 171,-253.34"/>
</g>
<!-- Node15 -->
<g id="node15" class="node">
<title>Node15</title>
<g id="a_node15"><a xlink:href="classManualSelectAction.html" target="_top" xlink:title="An Action that adds the Entry under FileView.cursor to State.selected.">
<polygon fill="white" stroke="#666666" points="325.5,-204 212.5,-204 212.5,-185 325.5,-185 325.5,-204"/>
<text text-anchor="middle" x="269" y="-192" font-family="Helvetica,sans-Serif" font-size="10.00">ManualSelectAction</text>
</a>
</g>
</g>
<!-- Node6&#45;&gt;Node15 -->
<g id="edge14" class="edge">
<title>Node6&#45;&gt;Node15</title>
<path fill="none" stroke="#63b8ff" d="M146.22,-252.29C161.36,-240.19 183.46,-224 205,-213.5 212.6,-209.8 221.07,-206.65 229.27,-204.04"/>
<polygon fill="#63b8ff" stroke="#63b8ff" points="143.69,-249.83 138.16,-258.87 148.12,-255.25 143.69,-249.83"/>
</g>
<!-- Node16 -->
<g id="node16" class="node">
<title>Node16</title>
<g id="a_node16"><a xlink:href="classOpenAction.html" target="_top" xlink:title="An Action that sets FileView.wd to the Folder under FileView.cursor (if it is Folder)">
<polygon fill="white" stroke="#666666" points="305.5,-167 232.5,-167 232.5,-148 305.5,-148 305.5,-167"/>
<text text-anchor="middle" x="269" y="-155" font-family="Helvetica,sans-Serif" font-size="10.00">OpenAction</text>
</a>
</g>
</g>
<!-- Node6&#45;&gt;Node16 -->
<g id="edge15" class="edge">
<title>Node6&#45;&gt;Node16</title>
<path fill="none" stroke="#63b8ff" d="M137.83,-250.28C151.11,-229.47 175.54,-195.81 205,-176.5 213.22,-171.11 223.02,-167.2 232.42,-164.38"/>
<polygon fill="#63b8ff" stroke="#63b8ff" points="134.82,-248.5 132.53,-258.84 140.77,-252.18 134.82,-248.5"/>
</g>
<!-- Node17 -->
<g id="node17" class="node">
<title>Node17</title>
<g id="a_node17"><a xlink:href="classQuitAction.html" target="_top" xlink:title="An Action that stops the Application.">
<polygon fill="white" stroke="#666666" points="303,-130 235,-130 235,-111 303,-111 303,-130"/>
<text text-anchor="middle" x="269" y="-118" font-family="Helvetica,sans-Serif" font-size="10.00">QuitAction</text>
</a>
</g>
</g>
<!-- Node6&#45;&gt;Node17 -->
<g id="edge16" class="edge">
<title>Node6&#45;&gt;Node17</title>
<path fill="none" stroke="#63b8ff" d="M133.54,-249.2C144.11,-220.94 167.6,-168.52 205,-139.5 213.57,-132.85 224.46,-128.51 234.76,-125.7"/>
<polygon fill="#63b8ff" stroke="#63b8ff" points="130.2,-248.15 130.13,-258.75 136.79,-250.51 130.2,-248.15"/>
</g>
<!-- Node18 -->
<g id="node18" class="node">
<title>Node18</title>
<g id="a_node18"><a xlink:href="classRegexSelectAction.html" target="_top" xlink:title="An Action that adds Entries &#160;into State.selected if their filenames matches RegEx provided by user vi...">
<polygon fill="white" stroke="#666666" points="323,-93 215,-93 215,-74 323,-74 323,-93"/>
<text text-anchor="middle" x="269" y="-81" font-family="Helvetica,sans-Serif" font-size="10.00">RegexSelectAction</text>
</a>
</g>
</g>
<!-- Node6&#45;&gt;Node18 -->
<g id="edge17" class="edge">
<title>Node6&#45;&gt;Node18</title>
<path fill="none" stroke="#63b8ff" d="M130.7,-249.19C138.34,-214.63 159.11,-142.12 205,-102.5 209.5,-98.62 214.77,-95.53 220.31,-93.07"/>
<polygon fill="#63b8ff" stroke="#63b8ff" points="127.27,-248.48 128.67,-258.99 134.13,-249.9 127.27,-248.48"/>
</g>
<!-- Node19 -->
<g id="node19" class="node">
<title>Node19</title>
<g id="a_node19"><a xlink:href="classSelectByContentAction.html" target="_top" xlink:title="An Action that adds Entries &#160;into State.selected if their content matches RegEx provided by user via ...">
<polygon fill="white" stroke="#666666" points="333,-56 205,-56 205,-37 333,-37 333,-56"/>
<text text-anchor="middle" x="269" y="-44" font-family="Helvetica,sans-Serif" font-size="10.00">SelectByContentAction</text>
</a>
</g>
</g>
<!-- Node6&#45;&gt;Node19 -->
<g id="edge18" class="edge">
<title>Node6&#45;&gt;Node19</title>
<path fill="none" stroke="#63b8ff" d="M128.9,-248.64C133.84,-208.2 150.75,-115.88 205,-65.5 209.19,-61.61 214.14,-58.52 219.4,-56.06"/>
<polygon fill="#63b8ff" stroke="#63b8ff" points="125.4,-248.47 127.78,-258.8 132.36,-249.24 125.4,-248.47"/>
</g>
<!-- Node20 -->
<g id="node20" class="node">
<title>Node20</title>
<g id="a_node20"><a xlink:href="classUnselectAllAction.html" target="_top" xlink:title="An Action that clears State.selected.">
<polygon fill="white" stroke="#666666" points="320.5,-19 217.5,-19 217.5,0 320.5,0 320.5,-19"/>
<text text-anchor="middle" x="269" y="-7" font-family="Helvetica,sans-Serif" font-size="10.00">UnselectAllAction</text>
</a>
</g>
</g>
<!-- Node6&#45;&gt;Node20 -->
<g id="edge19" class="edge">
<title>Node6&#45;&gt;Node20</title>
<path fill="none" stroke="#63b8ff" d="M127.54,-248.54C129.88,-202.89 142.08,-90.09 205,-28.5 208.92,-24.66 213.58,-21.6 218.57,-19.15"/>
<polygon fill="#63b8ff" stroke="#63b8ff" points="124.04,-248.49 127.13,-258.62 131.03,-248.77 124.04,-248.49"/>
</g>
</g>
</svg>
