<?xml version="1.0" encoding="UTF-8" standalone="no"?>
<!DOCTYPE svg PUBLIC "-//W3C//DTD SVG 1.1//EN"
 "http://www.w3.org/Graphics/SVG/1.1/DTD/svg11.dtd">
<!-- Generated by graphviz version 2.43.0 (0)
 -->
<!-- Title: CreateSymlinkAction::executeAction Pages: 1 -->
<svg width="418pt" height="211pt"
 viewBox="0.00 0.00 418.00 211.00" xmlns="http://www.w3.org/2000/svg" xmlns:xlink="http://www.w3.org/1999/xlink">
<g id="graph0" class="graph" transform="scale(1 1) rotate(0) translate(4 207)">
<title>CreateSymlinkAction::executeAction</title>
<!-- Node1 -->
<g id="node1" class="node">
<title>Node1</title>
<g id="a_node1"><a xlink:title=" ">
<polygon fill="#999999" stroke="#666666" points="119,-116.5 0,-116.5 0,-86.5 119,-86.5 119,-116.5"/>
<text text-anchor="start" x="8" y="-104.5" font-family="Helvetica,sans-Serif" font-size="10.00">CreateSymlinkAction</text>
<text text-anchor="middle" x="59.5" y="-93.5" font-family="Helvetica,sans-Serif" font-size="10.00">::executeAction</text>
</a>
</g>
</g>
<!-- Node2 -->
<g id="node2" class="node">
<title>Node2</title>
<g id="a_node2"><a xlink:href="classModal.html#a6e0e45b4f48f64ab0fe4a5dcad5ca8e5" target="_top" xlink:title=" ">
<polygon fill="white" stroke="#666666" points="257,-203 168,-203 168,-184 257,-184 257,-203"/>
<text text-anchor="middle" x="212.5" y="-191" font-family="Helvetica,sans-Serif" font-size="10.00">Modal::destroy</text>
</a>
</g>
</g>
<!-- Node1&#45;&gt;Node2 -->
<g id="edge1" class="edge">
<title>Node1&#45;&gt;Node2</title>
<path fill="none" stroke="#63b8ff" d="M75.99,-116.51C93.76,-133.02 124.42,-159.33 155,-175.5 158.29,-177.24 161.77,-178.84 165.33,-180.32"/>
<polygon fill="#63b8ff" stroke="#63b8ff" points="164.26,-183.66 174.85,-183.93 166.74,-177.11 164.26,-183.66"/>
</g>
<!-- Node3 -->
<g id="node3" class="node">
<title>Node3</title>
<g id="a_node3"><a xlink:href="classFileView.html#ad41f6b770e7c214b0a029675417273de" target="_top" xlink:title="Get Entries &#160;representing all files/folders in wd.">
<polygon fill="white" stroke="#666666" points="270,-166 155,-166 155,-147 270,-147 270,-166"/>
<text text-anchor="middle" x="212.5" y="-154" font-family="Helvetica,sans-Serif" font-size="10.00">FileView::getCurrent</text>
</a>
</g>
</g>
<!-- Node1&#45;&gt;Node3 -->
<g id="edge2" class="edge">
<title>Node1&#45;&gt;Node3</title>
<path fill="none" stroke="#63b8ff" d="M97.54,-116.65C114.89,-123.57 135.9,-131.73 155,-138.5 159.97,-140.26 165.21,-142.04 170.41,-143.75"/>
<polygon fill="#63b8ff" stroke="#63b8ff" points="169.7,-147.2 180.29,-146.96 171.86,-140.54 169.7,-147.2"/>
</g>
<!-- Node5 -->
<g id="node5" class="node">
<title>Node5</title>
<g id="a_node5"><a xlink:href="classModal.html#a6776997aff5ec59e2a8ce02bcca11584" target="_top" xlink:title=" ">
<polygon fill="white" stroke="#666666" points="251,-111 174,-111 174,-92 251,-92 251,-111"/>
<text text-anchor="middle" x="212.5" y="-99" font-family="Helvetica,sans-Serif" font-size="10.00">Modal::input</text>
</a>
</g>
</g>
<!-- Node1&#45;&gt;Node5 -->
<g id="edge4" class="edge">
<title>Node1&#45;&gt;Node5</title>
<path fill="none" stroke="#63b8ff" d="M119.31,-101.5C134.11,-101.5 149.8,-101.5 163.96,-101.5"/>
<polygon fill="#63b8ff" stroke="#63b8ff" points="163.97,-105 173.97,-101.5 163.97,-98 163.97,-105"/>
</g>
<!-- Node6 -->
<g id="node6" class="node">
<title>Node6</title>
<g id="a_node6"><a xlink:href="classModal.html#aa9520865766fc3ec26d423d5029e410d" target="_top" xlink:title=" ">
<polygon fill="white" stroke="#666666" points="261,-56 164,-56 164,-37 261,-37 261,-56"/>
<text text-anchor="middle" x="212.5" y="-44" font-family="Helvetica,sans-Serif" font-size="10.00">Modal::message</text>
</a>
</g>
</g>
<!-- Node1&#45;&gt;Node6 -->
<g id="edge6" class="edge">
<title>Node1&#45;&gt;Node6</title>
<path fill="none" stroke="#63b8ff" d="M101.76,-86.47C124.78,-78.09 153.19,-67.74 175.33,-59.67"/>
<polygon fill="#63b8ff" stroke="#63b8ff" points="176.83,-62.85 185.03,-56.14 174.43,-56.28 176.83,-62.85"/>
</g>
<!-- Node7 -->
<g id="node7" class="node">
<title>Node7</title>
<g id="a_node7"><a xlink:href="classModal.html#a629847ce99c0bd2345fffe66aae88629" target="_top" xlink:title=" ">
<polygon fill="white" stroke="#666666" points="251.5,-19 173.5,-19 173.5,0 251.5,0 251.5,-19"/>
<text text-anchor="middle" x="212.5" y="-7" font-family="Helvetica,sans-Serif" font-size="10.00">Modal::show</text>
</a>
</g>
</g>
<!-- Node1&#45;&gt;Node7 -->
<g id="edge8" class="edge">
<title>Node1&#45;&gt;Node7</title>
<path fill="none" stroke="#63b8ff" d="M76.73,-86.2C94.67,-69.98 125.02,-44.53 155,-28.5 158.96,-26.38 163.19,-24.44 167.5,-22.67"/>
<polygon fill="#63b8ff" stroke="#63b8ff" points="168.87,-25.9 176.97,-19.07 166.38,-19.35 168.87,-25.9"/>
</g>
<!-- Node4 -->
<g id="node4" class="node">
<title>Node4</title>
<g id="a_node4"><a xlink:href="classUtility.html#a4b4ebc4aa064a2002f8d42b781fce5a5" target="_top" xlink:title="Makes the correct entry object based on it&#39;s path.">
<polygon fill="white" stroke="#666666" points="410,-166 306,-166 306,-147 410,-147 410,-166"/>
<text text-anchor="middle" x="358" y="-154" font-family="Helvetica,sans-Serif" font-size="10.00">Utility::makeEntry</text>
</a>
</g>
</g>
<!-- Node3&#45;&gt;Node4 -->
<g id="edge3" class="edge">
<title>Node3&#45;&gt;Node4</title>
<path fill="none" stroke="#63b8ff" d="M270.21,-156.5C278.57,-156.5 287.21,-156.5 295.65,-156.5"/>
<polygon fill="#63b8ff" stroke="#63b8ff" points="295.82,-160 305.82,-156.5 295.82,-153 295.82,-160"/>
</g>
<!-- Node5&#45;&gt;Node5 -->
<g id="edge5" class="edge">
<title>Node5&#45;&gt;Node5</title>
<path fill="none" stroke="#63b8ff" d="M190.31,-111.08C179.51,-119.73 186.91,-129 212.5,-129 228.9,-129 237.82,-125.2 239.29,-120.19"/>
<polygon fill="#63b8ff" stroke="#63b8ff" points="242.32,-118.44 234.69,-111.08 236.07,-121.59 242.32,-118.44"/>
</g>
<!-- Node6&#45;&gt;Node6 -->
<g id="edge7" class="edge">
<title>Node6&#45;&gt;Node6</title>
<path fill="none" stroke="#63b8ff" d="M190.31,-56.08C179.51,-64.73 186.91,-74 212.5,-74 228.9,-74 237.82,-70.2 239.29,-65.19"/>
<polygon fill="#63b8ff" stroke="#63b8ff" points="242.32,-63.44 234.69,-56.08 236.07,-66.59 242.32,-63.44"/>
</g>
</g>
</svg>
