<?xml version="1.0" encoding="UTF-8" standalone="no"?>
<!DOCTYPE svg PUBLIC "-//W3C//DTD SVG 1.1//EN"
 "http://www.w3.org/Graphics/SVG/1.1/DTD/svg11.dtd">
<!-- Generated by graphviz version 2.43.0 (0)
 -->
<!-- Title: File::move Pages: 1 -->
<svg width="189pt" height="64pt"
 viewBox="0.00 0.00 189.00 64.00" xmlns="http://www.w3.org/2000/svg" xmlns:xlink="http://www.w3.org/1999/xlink">
<g id="graph0" class="graph" transform="scale(1 1) rotate(0) translate(4 60)">
<title>File::move</title>
<!-- Node1 -->
<g id="node1" class="node">
<title>Node1</title>
<g id="a_node1"><a xlink:title=" ">
<polygon fill="#999999" stroke="#666666" points="68,-37 0,-37 0,-18 68,-18 68,-37"/>
<text text-anchor="middle" x="34" y="-25" font-family="Helvetica,sans-Serif" font-size="10.00">File::move</text>
</a>
</g>
</g>
<!-- Node2 -->
<g id="node2" class="node">
<title>Node2</title>
<g id="a_node2"><a xlink:href="classFile.html#a044e5c46fc91da88c5bf030160197c8e" target="_top" xlink:title=" ">
<polygon fill="white" stroke="#666666" points="174,-56 111,-56 111,-37 174,-37 174,-56"/>
<text text-anchor="middle" x="142.5" y="-44" font-family="Helvetica,sans-Serif" font-size="10.00">File::copy</text>
</a>
</g>
</g>
<!-- Node1&#45;&gt;Node2 -->
<g id="edge1" class="edge">
<title>Node1&#45;&gt;Node2</title>
<path fill="none" stroke="#63b8ff" d="M68.11,-33.41C78.48,-35.26 90.04,-37.32 100.86,-39.25"/>
<polygon fill="#63b8ff" stroke="#63b8ff" points="100.49,-42.74 110.95,-41.05 101.72,-35.85 100.49,-42.74"/>
</g>
<!-- Node3 -->
<g id="node3" class="node">
<title>Node3</title>
<g id="a_node3"><a xlink:href="classFile.html#abec6668639f9c634031df83174e2146f" target="_top" xlink:title=" ">
<polygon fill="white" stroke="#666666" points="181,-19 104,-19 104,0 181,0 181,-19"/>
<text text-anchor="middle" x="142.5" y="-7" font-family="Helvetica,sans-Serif" font-size="10.00">File::remove</text>
</a>
</g>
</g>
<!-- Node1&#45;&gt;Node3 -->
<g id="edge2" class="edge">
<title>Node1&#45;&gt;Node3</title>
<path fill="none" stroke="#63b8ff" d="M68.11,-21.9C76.28,-20.52 85.18,-19.02 93.88,-17.55"/>
<polygon fill="#63b8ff" stroke="#63b8ff" points="94.67,-20.96 103.95,-15.85 93.5,-14.06 94.67,-20.96"/>
</g>
</g>
</svg>
