<?xml version="1.0" encoding="UTF-8" standalone="no"?>
<!DOCTYPE svg PUBLIC "-//W3C//DTD SVG 1.1//EN"
 "http://www.w3.org/Graphics/SVG/1.1/DTD/svg11.dtd">
<!-- Generated by graphviz version 2.43.0 (0)
 -->
<!-- Title: RegexSelectAction::executeAction Pages: 1 -->
<svg width="413pt" height="156pt"
 viewBox="0.00 0.00 413.00 156.00" xmlns="http://www.w3.org/2000/svg" xmlns:xlink="http://www.w3.org/1999/xlink">
<g id="graph0" class="graph" transform="scale(1 1) rotate(0) translate(4 152)">
<title>RegexSelectAction::executeAction</title>
<!-- Node1 -->
<g id="node1" class="node">
<title>Node1</title>
<g id="a_node1"><a xlink:title=" ">
<polygon fill="#999999" stroke="#666666" points="114,-88.5 0,-88.5 0,-58.5 114,-58.5 114,-88.5"/>
<text text-anchor="start" x="8" y="-76.5" font-family="Helvetica,sans-Serif" font-size="10.00">RegexSelectAction::</text>
<text text-anchor="middle" x="57" y="-65.5" font-family="Helvetica,sans-Serif" font-size="10.00">executeAction</text>
</a>
</g>
</g>
<!-- Node2 -->
<g id="node2" class="node">
<title>Node2</title>
<g id="a_node2"><a xlink:href="classModal.html#a6e0e45b4f48f64ab0fe4a5dcad5ca8e5" target="_top" xlink:title=" ">
<polygon fill="white" stroke="#666666" points="252,-148 163,-148 163,-129 252,-129 252,-148"/>
<text text-anchor="middle" x="207.5" y="-136" font-family="Helvetica,sans-Serif" font-size="10.00">Modal::destroy</text>
</a>
</g>
</g>
<!-- Node1&#45;&gt;Node2 -->
<g id="edge1" class="edge">
<title>Node1&#45;&gt;Node2</title>
<path fill="none" stroke="#63b8ff" d="M84.82,-88.68C102.89,-98.53 127.44,-111.22 150,-120.5 154.41,-122.31 159.07,-124.06 163.75,-125.71"/>
<polygon fill="#63b8ff" stroke="#63b8ff" points="162.72,-129.05 173.31,-128.93 164.95,-122.42 162.72,-129.05"/>
</g>
<!-- Node3 -->
<g id="node3" class="node">
<title>Node3</title>
<g id="a_node3"><a xlink:href="classFileView.html#ad41f6b770e7c214b0a029675417273de" target="_top" xlink:title="Get Entries &#160;representing all files/folders in wd.">
<polygon fill="white" stroke="#666666" points="265,-111 150,-111 150,-92 265,-92 265,-111"/>
<text text-anchor="middle" x="207.5" y="-99" font-family="Helvetica,sans-Serif" font-size="10.00">FileView::getCurrent</text>
</a>
</g>
</g>
<!-- Node1&#45;&gt;Node3 -->
<g id="edge2" class="edge">
<title>Node1&#45;&gt;Node3</title>
<path fill="none" stroke="#63b8ff" d="M114.14,-84.09C124.47,-86.03 135.3,-88.08 145.76,-90.05"/>
<polygon fill="#63b8ff" stroke="#63b8ff" points="145.18,-93.5 155.65,-91.91 146.47,-86.62 145.18,-93.5"/>
</g>
<!-- Node5 -->
<g id="node5" class="node">
<title>Node5</title>
<g id="a_node5"><a xlink:href="classModal.html#a6776997aff5ec59e2a8ce02bcca11584" target="_top" xlink:title=" ">
<polygon fill="white" stroke="#666666" points="246,-56 169,-56 169,-37 246,-37 246,-56"/>
<text text-anchor="middle" x="207.5" y="-44" font-family="Helvetica,sans-Serif" font-size="10.00">Modal::input</text>
</a>
</g>
</g>
<!-- Node1&#45;&gt;Node5 -->
<g id="edge4" class="edge">
<title>Node1&#45;&gt;Node5</title>
<path fill="none" stroke="#63b8ff" d="M114.14,-63.29C128.81,-60.62 144.49,-57.77 158.69,-55.19"/>
<polygon fill="#63b8ff" stroke="#63b8ff" points="159.51,-58.6 168.72,-53.37 158.26,-51.71 159.51,-58.6"/>
</g>
<!-- Node6 -->
<g id="node6" class="node">
<title>Node6</title>
<g id="a_node6"><a xlink:href="classModal.html#a629847ce99c0bd2345fffe66aae88629" target="_top" xlink:title=" ">
<polygon fill="white" stroke="#666666" points="246.5,-19 168.5,-19 168.5,0 246.5,0 246.5,-19"/>
<text text-anchor="middle" x="207.5" y="-7" font-family="Helvetica,sans-Serif" font-size="10.00">Modal::show</text>
</a>
</g>
</g>
<!-- Node1&#45;&gt;Node6 -->
<g id="edge6" class="edge">
<title>Node1&#45;&gt;Node6</title>
<path fill="none" stroke="#63b8ff" d="M86.56,-58.33C104.51,-49.1 128.29,-37.42 150,-28.5 155.15,-26.39 160.62,-24.32 166.06,-22.38"/>
<polygon fill="#63b8ff" stroke="#63b8ff" points="167.43,-25.61 175.74,-19.04 165.14,-19 167.43,-25.61"/>
</g>
<!-- Node4 -->
<g id="node4" class="node">
<title>Node4</title>
<g id="a_node4"><a xlink:href="classUtility.html#a4b4ebc4aa064a2002f8d42b781fce5a5" target="_top" xlink:title="Makes the correct entry object based on it&#39;s path.">
<polygon fill="white" stroke="#666666" points="405,-111 301,-111 301,-92 405,-92 405,-111"/>
<text text-anchor="middle" x="353" y="-99" font-family="Helvetica,sans-Serif" font-size="10.00">Utility::makeEntry</text>
</a>
</g>
</g>
<!-- Node3&#45;&gt;Node4 -->
<g id="edge3" class="edge">
<title>Node3&#45;&gt;Node4</title>
<path fill="none" stroke="#63b8ff" d="M265.21,-101.5C273.57,-101.5 282.21,-101.5 290.65,-101.5"/>
<polygon fill="#63b8ff" stroke="#63b8ff" points="290.82,-105 300.82,-101.5 290.82,-98 290.82,-105"/>
</g>
<!-- Node5&#45;&gt;Node5 -->
<g id="edge5" class="edge">
<title>Node5&#45;&gt;Node5</title>
<path fill="none" stroke="#63b8ff" d="M185.31,-56.08C174.51,-64.73 181.91,-74 207.5,-74 223.9,-74 232.82,-70.2 234.29,-65.19"/>
<polygon fill="#63b8ff" stroke="#63b8ff" points="237.32,-63.44 229.69,-56.08 231.07,-66.59 237.32,-63.44"/>
</g>
</g>
</svg>
