<?xml version="1.0" encoding="UTF-8" standalone="no"?>
<!DOCTYPE svg PUBLIC "-//W3C//DTD SVG 1.1//EN"
 "http://www.w3.org/Graphics/SVG/1.1/DTD/svg11.dtd">
<!-- Generated by graphviz version 2.43.0 (0)
 -->
<!-- Title: Utility::makeEntry Pages: 1 -->
<svg width="579pt" height="354pt"
 viewBox="0.00 0.00 579.00 353.50" xmlns="http://www.w3.org/2000/svg" xmlns:xlink="http://www.w3.org/1999/xlink">
<g id="graph0" class="graph" transform="scale(1 1) rotate(0) translate(4 349.5)">
<title>Utility::makeEntry</title>
<!-- Node1 -->
<g id="node1" class="node">
<title>Node1</title>
<g id="a_node1"><a xlink:title="Makes the correct entry object based on it&#39;s path.">
<polygon fill="#999999" stroke="#666666" points="571,-174 467,-174 467,-155 571,-155 571,-174"/>
<text text-anchor="middle" x="519" y="-162" font-family="Helvetica,sans-Serif" font-size="10.00">Utility::makeEntry</text>
</a>
</g>
</g>
<!-- Node2 -->
<g id="node2" class="node">
<title>Node2</title>
<g id="a_node2"><a xlink:href="classFileView.html#ad41f6b770e7c214b0a029675417273de" target="_top" xlink:title="Get Entries &#160;representing all files/folders in wd.">
<polygon fill="white" stroke="#666666" points="431,-174 316,-174 316,-155 431,-155 431,-174"/>
<text text-anchor="middle" x="373.5" y="-162" font-family="Helvetica,sans-Serif" font-size="10.00">FileView::getCurrent</text>
</a>
</g>
</g>
<!-- Node1&#45;&gt;Node2 -->
<g id="edge1" class="edge">
<title>Node1&#45;&gt;Node2</title>
<path fill="none" stroke="#63b8ff" d="M456.54,-164.5C448.19,-164.5 439.65,-164.5 431.38,-164.5"/>
<polygon fill="#63b8ff" stroke="#63b8ff" points="456.6,-168 466.6,-164.5 456.6,-161 456.6,-168"/>
</g>
<!-- Node3 -->
<g id="node3" class="node">
<title>Node3</title>
<g id="a_node3"><a xlink:href="classCreateSymlinkAction.html#a0736fcf258c51c1e33a3e2e28194b746" target="_top" xlink:title=" ">
<polygon fill="white" stroke="#666666" points="264,-345.5 145,-345.5 145,-315.5 264,-315.5 264,-345.5"/>
<text text-anchor="start" x="153" y="-333.5" font-family="Helvetica,sans-Serif" font-size="10.00">CreateSymlinkAction</text>
<text text-anchor="middle" x="204.5" y="-322.5" font-family="Helvetica,sans-Serif" font-size="10.00">::executeAction</text>
</a>
</g>
</g>
<!-- Node2&#45;&gt;Node3 -->
<g id="edge2" class="edge">
<title>Node2&#45;&gt;Node3</title>
<path fill="none" stroke="#63b8ff" d="M365.12,-183.5C352.35,-213.9 323.29,-273.42 280,-306.5 275.14,-310.21 269.69,-313.36 264,-316.03"/>
<polygon fill="#63b8ff" stroke="#63b8ff" points="368.43,-184.63 368.95,-174.05 361.95,-182 368.43,-184.63"/>
</g>
<!-- Node4 -->
<g id="node4" class="node">
<title>Node4</title>
<g id="a_node4"><a xlink:href="classCursorDownAction.html#a23be74e42565c2c22a39bbd279efd59f" target="_top" xlink:title=" ">
<polygon fill="white" stroke="#666666" points="280,-297.5 129,-297.5 129,-267.5 280,-267.5 280,-297.5"/>
<text text-anchor="start" x="137" y="-285.5" font-family="Helvetica,sans-Serif" font-size="10.00">CursorDownAction::execute</text>
<text text-anchor="middle" x="204.5" y="-274.5" font-family="Helvetica,sans-Serif" font-size="10.00">Action</text>
</a>
</g>
</g>
<!-- Node2&#45;&gt;Node4 -->
<g id="edge3" class="edge">
<title>Node2&#45;&gt;Node4</title>
<path fill="none" stroke="#63b8ff" d="M359.34,-182.37C342.96,-203.42 313.08,-238.1 280,-258.5 274.45,-261.92 268.36,-264.91 262.13,-267.49"/>
<polygon fill="#63b8ff" stroke="#63b8ff" points="362.24,-184.35 365.5,-174.27 356.67,-180.11 362.24,-184.35"/>
</g>
<!-- Node5 -->
<g id="node5" class="node">
<title>Node5</title>
<g id="a_node5"><a xlink:href="classDeduplicateAction.html#a63c46ceb750040c186fbd4156584a56f" target="_top" xlink:title=" ">
<polygon fill="white" stroke="#666666" points="260.5,-249.5 148.5,-249.5 148.5,-219.5 260.5,-219.5 260.5,-249.5"/>
<text text-anchor="start" x="156.5" y="-237.5" font-family="Helvetica,sans-Serif" font-size="10.00">DeduplicateAction::</text>
<text text-anchor="middle" x="204.5" y="-226.5" font-family="Helvetica,sans-Serif" font-size="10.00">executeAction</text>
</a>
</g>
</g>
<!-- Node2&#45;&gt;Node5 -->
<g id="edge4" class="edge">
<title>Node2&#45;&gt;Node5</title>
<path fill="none" stroke="#63b8ff" d="M346.25,-178.87C328,-188.54 302.92,-201.17 280,-210.5 272.32,-213.63 264.07,-216.62 255.96,-219.38"/>
<polygon fill="#63b8ff" stroke="#63b8ff" points="347.96,-181.93 355.13,-174.12 344.66,-175.75 347.96,-181.93"/>
</g>
<!-- Node6 -->
<g id="node6" class="node">
<title>Node6</title>
<g id="a_node6"><a xlink:href="classManualSelectAction.html#aff3a7bafcf67e747e276e14c4138fc1f" target="_top" xlink:title=" ">
<polygon fill="white" stroke="#666666" points="261,-201.5 148,-201.5 148,-171.5 261,-171.5 261,-201.5"/>
<text text-anchor="start" x="156" y="-189.5" font-family="Helvetica,sans-Serif" font-size="10.00">ManualSelectAction</text>
<text text-anchor="middle" x="204.5" y="-178.5" font-family="Helvetica,sans-Serif" font-size="10.00">::executeAction</text>
</a>
</g>
</g>
<!-- Node2&#45;&gt;Node6 -->
<g id="edge5" class="edge">
<title>Node2&#45;&gt;Node6</title>
<path fill="none" stroke="#63b8ff" d="M305.84,-173.28C291.02,-175.23 275.46,-177.28 261.13,-179.17"/>
<polygon fill="#63b8ff" stroke="#63b8ff" points="306.5,-176.72 315.96,-171.95 305.59,-169.78 306.5,-176.72"/>
</g>
<!-- Node7 -->
<g id="node7" class="node">
<title>Node7</title>
<g id="a_node7"><a xlink:href="classOpenAction.html#a13072eafb0ce2e9820bd224f2990876f" target="_top" xlink:title=" ">
<polygon fill="white" stroke="#666666" points="278.5,-153 130.5,-153 130.5,-134 278.5,-134 278.5,-153"/>
<text text-anchor="middle" x="204.5" y="-141" font-family="Helvetica,sans-Serif" font-size="10.00">OpenAction::executeAction</text>
</a>
</g>
</g>
<!-- Node2&#45;&gt;Node7 -->
<g id="edge6" class="edge">
<title>Node2&#45;&gt;Node7</title>
<path fill="none" stroke="#63b8ff" d="M305.94,-156.13C296.94,-155 287.66,-153.83 278.56,-152.69"/>
<polygon fill="#63b8ff" stroke="#63b8ff" points="305.6,-159.62 315.96,-157.39 306.48,-152.67 305.6,-159.62"/>
</g>
<!-- Node8 -->
<g id="node8" class="node">
<title>Node8</title>
<g id="a_node8"><a xlink:href="classRegexSelectAction.html#a991ed64c3a7f2bc516f2683b781640f3" target="_top" xlink:title=" ">
<polygon fill="white" stroke="#666666" points="261.5,-115.5 147.5,-115.5 147.5,-85.5 261.5,-85.5 261.5,-115.5"/>
<text text-anchor="start" x="155.5" y="-103.5" font-family="Helvetica,sans-Serif" font-size="10.00">RegexSelectAction::</text>
<text text-anchor="middle" x="204.5" y="-92.5" font-family="Helvetica,sans-Serif" font-size="10.00">executeAction</text>
</a>
</g>
</g>
<!-- Node2&#45;&gt;Node8 -->
<g id="edge7" class="edge">
<title>Node2&#45;&gt;Node8</title>
<path fill="none" stroke="#63b8ff" d="M341.65,-150.81C323.78,-143.05 300.77,-133.35 280,-125.5 271.07,-122.12 261.45,-118.72 252.19,-115.57"/>
<polygon fill="#63b8ff" stroke="#63b8ff" points="340.44,-154.1 351.01,-154.9 343.24,-147.68 340.44,-154.1"/>
</g>
<!-- Node9 -->
<g id="node9" class="node">
<title>Node9</title>
<g id="a_node9"><a xlink:href="classSelectByContentAction.html#a3d98e9d9ee4c20bc76878ae2e4829828" target="_top" xlink:title=" ">
<polygon fill="white" stroke="#666666" points="268.5,-67.5 140.5,-67.5 140.5,-37.5 268.5,-37.5 268.5,-67.5"/>
<text text-anchor="start" x="148.5" y="-55.5" font-family="Helvetica,sans-Serif" font-size="10.00">SelectByContentAction</text>
<text text-anchor="middle" x="204.5" y="-44.5" font-family="Helvetica,sans-Serif" font-size="10.00">::executeAction</text>
</a>
</g>
</g>
<!-- Node2&#45;&gt;Node9 -->
<g id="edge8" class="edge">
<title>Node2&#45;&gt;Node9</title>
<path fill="none" stroke="#63b8ff" d="M358.35,-146.93C341.58,-127.19 311.87,-95.43 280,-76.5 274.28,-73.1 268.01,-70.12 261.63,-67.53"/>
<polygon fill="#63b8ff" stroke="#63b8ff" points="355.82,-149.37 364.91,-154.83 361.21,-144.9 355.82,-149.37"/>
</g>
<!-- Node10 -->
<g id="node10" class="node">
<title>Node10</title>
<g id="a_node10"><a xlink:href="classInterface.html#aefa26e1a9eef86cbf1a19a2138972aab" target="_top" xlink:title="Shows the file view.">
<polygon fill="white" stroke="#666666" points="253.5,-19 155.5,-19 155.5,0 253.5,0 253.5,-19"/>
<text text-anchor="middle" x="204.5" y="-7" font-family="Helvetica,sans-Serif" font-size="10.00">Interface::render</text>
</a>
</g>
</g>
<!-- Node2&#45;&gt;Node10 -->
<g id="edge9" class="edge">
<title>Node2&#45;&gt;Node10</title>
<path fill="none" stroke="#63b8ff" d="M364.93,-145.57C352.07,-115.9 323.08,-58.71 280,-28.5 272.24,-23.06 263.06,-19.17 253.83,-16.4"/>
<polygon fill="#63b8ff" stroke="#63b8ff" points="361.72,-146.95 368.8,-154.83 368.17,-144.25 361.72,-146.95"/>
</g>
<!-- Node11 -->
<g id="node11" class="node">
<title>Node11</title>
<g id="a_node11"><a xlink:href="classApplication.html#a8cf8941c8db90117d3735bce5ae1fdf4" target="_top" xlink:title=" ">
<polygon fill="white" stroke="#666666" points="93,-19 0,-19 0,0 93,0 93,-19"/>
<text text-anchor="middle" x="46.5" y="-7" font-family="Helvetica,sans-Serif" font-size="10.00">Application::run</text>
</a>
</g>
</g>
<!-- Node10&#45;&gt;Node11 -->
<g id="edge10" class="edge">
<title>Node10&#45;&gt;Node11</title>
<path fill="none" stroke="#63b8ff" d="M145.42,-9.5C128.11,-9.5 109.4,-9.5 93.02,-9.5"/>
<polygon fill="#63b8ff" stroke="#63b8ff" points="145.42,-13 155.42,-9.5 145.42,-6 145.42,-13"/>
</g>
</g>
</svg>
