<?xml version="1.0" encoding="UTF-8" standalone="no"?>
<!DOCTYPE svg PUBLIC "-//W3C//DTD SVG 1.1//EN"
 "http://www.w3.org/Graphics/SVG/1.1/DTD/svg11.dtd">
<!-- Generated by graphviz version 2.43.0 (0)
 -->
<!-- Title: Utility::escape Pages: 1 -->
<svg width="215pt" height="101pt"
 viewBox="0.00 0.00 215.00 101.00" xmlns="http://www.w3.org/2000/svg" xmlns:xlink="http://www.w3.org/1999/xlink">
<g id="graph0" class="graph" transform="scale(1 1) rotate(0) translate(4 97)">
<title>Utility::escape</title>
<!-- Node1 -->
<g id="node1" class="node">
<title>Node1</title>
<g id="a_node1"><a xlink:title="Escapes a string so it can be printed.">
<polygon fill="#999999" stroke="#666666" points="207,-56 121,-56 121,-37 207,-37 207,-56"/>
<text text-anchor="middle" x="164" y="-44" font-family="Helvetica,sans-Serif" font-size="10.00">Utility::escape</text>
</a>
</g>
</g>
<!-- Node2 -->
<g id="node2" class="node">
<title>Node2</title>
<g id="a_node2"><a xlink:href="classFile.html#aeeb0b75a5133852492b8a09733840550" target="_top" xlink:title=" ">
<polygon fill="white" stroke="#666666" points="73.5,-93 11.5,-93 11.5,-74 73.5,-74 73.5,-93"/>
<text text-anchor="middle" x="42.5" y="-81" font-family="Helvetica,sans-Serif" font-size="10.00">File::print</text>
</a>
</g>
</g>
<!-- Node1&#45;&gt;Node2 -->
<g id="edge1" class="edge">
<title>Node1&#45;&gt;Node2</title>
<path fill="none" stroke="#63b8ff" d="M122.59,-59.01C106.62,-63.96 88.57,-69.54 73.76,-74.13"/>
<polygon fill="#63b8ff" stroke="#63b8ff" points="123.71,-62.33 132.23,-56.03 121.64,-55.64 123.71,-62.33"/>
</g>
<!-- Node3 -->
<g id="node3" class="node">
<title>Node3</title>
<g id="a_node3"><a xlink:href="classFolder.html#ac7fe8f10ec965ccdcd9c486b6044878c" target="_top" xlink:title=" ">
<polygon fill="white" stroke="#666666" points="80,-56 5,-56 5,-37 80,-37 80,-56"/>
<text text-anchor="middle" x="42.5" y="-44" font-family="Helvetica,sans-Serif" font-size="10.00">Folder::print</text>
</a>
</g>
</g>
<!-- Node1&#45;&gt;Node3 -->
<g id="edge2" class="edge">
<title>Node1&#45;&gt;Node3</title>
<path fill="none" stroke="#63b8ff" d="M110.7,-46.5C100.38,-46.5 89.76,-46.5 80.09,-46.5"/>
<polygon fill="#63b8ff" stroke="#63b8ff" points="110.87,-50 120.87,-46.5 110.87,-43 110.87,-50"/>
</g>
<!-- Node4 -->
<g id="node4" class="node">
<title>Node4</title>
<g id="a_node4"><a xlink:href="classSymlink.html#a8f4605cf6425fd03105cfa0b948cc977" target="_top" xlink:title=" ">
<polygon fill="white" stroke="#666666" points="85,-19 0,-19 0,0 85,0 85,-19"/>
<text text-anchor="middle" x="42.5" y="-7" font-family="Helvetica,sans-Serif" font-size="10.00">Symlink::print</text>
</a>
</g>
</g>
<!-- Node1&#45;&gt;Node4 -->
<g id="edge3" class="edge">
<title>Node1&#45;&gt;Node4</title>
<path fill="none" stroke="#63b8ff" d="M122.3,-33.9C106.69,-29.07 89.15,-23.63 74.59,-19.12"/>
<polygon fill="#63b8ff" stroke="#63b8ff" points="121.64,-37.36 132.23,-36.97 123.71,-30.67 121.64,-37.36"/>
</g>
</g>
</svg>
