<?xml version="1.0" encoding="UTF-8" standalone="no"?>
<!DOCTYPE svg PUBLIC "-//W3C//DTD SVG 1.1//EN"
 "http://www.w3.org/Graphics/SVG/1.1/DTD/svg11.dtd">
<!-- Generated by graphviz version 2.43.0 (0)
 -->
<!-- Title: Color::set Pages: 1 -->
<svg width="192pt" height="101pt"
 viewBox="0.00 0.00 192.00 101.00" xmlns="http://www.w3.org/2000/svg" xmlns:xlink="http://www.w3.org/1999/xlink">
<g id="graph0" class="graph" transform="scale(1 1) rotate(0) translate(4 97)">
<title>Color::set</title>
<!-- Node1 -->
<g id="node1" class="node">
<title>Node1</title>
<g id="a_node1"><a xlink:title=" ">
<polygon fill="#999999" stroke="#666666" points="184,-56 121,-56 121,-37 184,-37 184,-56"/>
<text text-anchor="middle" x="152.5" y="-44" font-family="Helvetica,sans-Serif" font-size="10.00">Color::set</text>
</a>
</g>
</g>
<!-- Node2 -->
<g id="node2" class="node">
<title>Node2</title>
<g id="a_node2"><a xlink:href="classFile.html#aeeb0b75a5133852492b8a09733840550" target="_top" xlink:title=" ">
<polygon fill="white" stroke="#666666" points="73.5,-93 11.5,-93 11.5,-74 73.5,-74 73.5,-93"/>
<text text-anchor="middle" x="42.5" y="-81" font-family="Helvetica,sans-Serif" font-size="10.00">File::print</text>
</a>
</g>
</g>
<!-- Node1&#45;&gt;Node2 -->
<g id="edge1" class="edge">
<title>Node1&#45;&gt;Node2</title>
<path fill="none" stroke="#63b8ff" d="M113.91,-59.38C100.01,-64.14 84.51,-69.45 71.59,-73.88"/>
<polygon fill="#63b8ff" stroke="#63b8ff" points="115.36,-62.58 123.69,-56.03 113.09,-55.96 115.36,-62.58"/>
</g>
<!-- Node3 -->
<g id="node3" class="node">
<title>Node3</title>
<g id="a_node3"><a xlink:href="classFolder.html#ac7fe8f10ec965ccdcd9c486b6044878c" target="_top" xlink:title=" ">
<polygon fill="white" stroke="#666666" points="80,-56 5,-56 5,-37 80,-37 80,-56"/>
<text text-anchor="middle" x="42.5" y="-44" font-family="Helvetica,sans-Serif" font-size="10.00">Folder::print</text>
</a>
</g>
</g>
<!-- Node1&#45;&gt;Node3 -->
<g id="edge2" class="edge">
<title>Node1&#45;&gt;Node3</title>
<path fill="none" stroke="#63b8ff" d="M110.74,-46.5C100.77,-46.5 90.15,-46.5 80.37,-46.5"/>
<polygon fill="#63b8ff" stroke="#63b8ff" points="110.84,-50 120.84,-46.5 110.84,-43 110.84,-50"/>
</g>
<!-- Node4 -->
<g id="node4" class="node">
<title>Node4</title>
<g id="a_node4"><a xlink:href="classSymlink.html#a8f4605cf6425fd03105cfa0b948cc977" target="_top" xlink:title=" ">
<polygon fill="white" stroke="#666666" points="85,-19 0,-19 0,0 85,0 85,-19"/>
<text text-anchor="middle" x="42.5" y="-7" font-family="Helvetica,sans-Serif" font-size="10.00">Symlink::print</text>
</a>
</g>
</g>
<!-- Node1&#45;&gt;Node4 -->
<g id="edge3" class="edge">
<title>Node1&#45;&gt;Node4</title>
<path fill="none" stroke="#63b8ff" d="M113.91,-33.62C100.01,-28.86 84.51,-23.55 71.59,-19.12"/>
<polygon fill="#63b8ff" stroke="#63b8ff" points="113.09,-37.04 123.69,-36.97 115.36,-30.42 113.09,-37.04"/>
</g>
</g>
</svg>
