<?xml version="1.0" encoding="UTF-8" standalone="no"?>
<!DOCTYPE svg PUBLIC "-//W3C//DTD SVG 1.1//EN"
 "http://www.w3.org/Graphics/SVG/1.1/DTD/svg11.dtd">
<!-- Generated by graphviz version 2.43.0 (0)
 -->
<!-- Title: Interface Pages: 1 -->
<svg width="153pt" height="93pt"
 viewBox="0.00 0.00 153.00 93.00" xmlns="http://www.w3.org/2000/svg" xmlns:xlink="http://www.w3.org/1999/xlink">
<g id="graph0" class="graph" transform="scale(1 1) rotate(0) translate(4 89)">
<title>Interface</title>
<!-- Node1 -->
<g id="node1" class="node">
<title>Node1</title>
<g id="a_node1"><a xlink:title="Represents the main interface of the Application.">
<polygon fill="#999999" stroke="#666666" points="60,-19 0,-19 0,0 60,0 60,-19"/>
<text text-anchor="middle" x="30" y="-7" font-family="Helvetica,sans-Serif" font-size="10.00">Interface</text>
</a>
</g>
</g>
<!-- Node2 -->
<g id="node2" class="node">
<title>Node2</title>
<g id="a_node2"><a xlink:href="classTheme.html" target="_top" xlink:title="Represents a set of colors used by Interface.">
<polygon fill="white" stroke="#666666" points="55,-85 5,-85 5,-66 55,-66 55,-85"/>
<text text-anchor="middle" x="30" y="-73" font-family="Helvetica,sans-Serif" font-size="10.00">Theme</text>
</a>
</g>
</g>
<!-- Node2&#45;&gt;Node1 -->
<g id="edge1" class="edge">
<title>Node2&#45;&gt;Node1</title>
<path fill="none" stroke="#9a32cd" stroke-dasharray="5,2" d="M30,-55.58C30,-43.63 30,-28.72 30,-19.41"/>
<polygon fill="#9a32cd" stroke="#9a32cd" points="26.5,-55.87 30,-65.87 33.5,-55.87 26.5,-55.87"/>
<text text-anchor="middle" x="47.5" y="-40" font-family="Helvetica,sans-Serif" font-size="10.00"> theme</text>
</g>
<!-- Node2&#45;&gt;Node2 -->
<g id="edge2" class="edge">
<title>Node2&#45;&gt;Node2</title>
<path fill="none" stroke="#9a32cd" stroke-dasharray="5,2" d="M65.45,-80.75C70,-79.84 73,-78.09 73,-75.5 73,-71.25 64.91,-69.26 55.18,-69.52"/>
<polygon fill="#9a32cd" stroke="#9a32cd" points="64.91,-77.28 55.18,-81.48 65.4,-84.27 64.91,-77.28"/>
<text text-anchor="middle" x="109" y="-73" font-family="Helvetica,sans-Serif" font-size="10.00"> defaultTheme</text>
</g>
</g>
</svg>
