<?xml version="1.0" encoding="UTF-8" standalone="no"?>
<!DOCTYPE svg PUBLIC "-//W3C//DTD SVG 1.1//EN"
 "http://www.w3.org/Graphics/SVG/1.1/DTD/svg11.dtd">
<!-- Generated by graphviz version 2.43.0 (0)
 -->
<!-- Title: RegexSelectAction Pages: 1 -->
<svg width="116pt" height="137pt"
 viewBox="0.00 0.00 116.00 137.00" xmlns="http://www.w3.org/2000/svg" xmlns:xlink="http://www.w3.org/1999/xlink">
<g id="graph0" class="graph" transform="scale(1 1) rotate(0) translate(4 133)">
<title>RegexSelectAction</title>
<!-- Node1 -->
<g id="node1" class="node">
<title>Node1</title>
<g id="a_node1"><a xlink:title="An Action that adds Entries &#160;into State.selected if their filenames matches RegEx provided by user vi...">
<polygon fill="#999999" stroke="#666666" points="108,-19 0,-19 0,0 108,0 108,-19"/>
<text text-anchor="middle" x="54" y="-7" font-family="Helvetica,sans-Serif" font-size="10.00">RegexSelectAction</text>
</a>
</g>
</g>
<!-- Node2 -->
<g id="node2" class="node">
<title>Node2</title>
<g id="a_node2"><a xlink:href="classOnceAction.html" target="_top" xlink:title="A base class for Actions &#160;that are supposed to fire once.">
<polygon fill="white" stroke="#666666" points="90,-74 18,-74 18,-55 90,-55 90,-74"/>
<text text-anchor="middle" x="54" y="-62" font-family="Helvetica,sans-Serif" font-size="10.00">OnceAction</text>
</a>
</g>
</g>
<!-- Node2&#45;&gt;Node1 -->
<g id="edge1" class="edge">
<title>Node2&#45;&gt;Node1</title>
<path fill="none" stroke="#63b8ff" d="M54,-44.66C54,-35.93 54,-25.99 54,-19.09"/>
<polygon fill="#63b8ff" stroke="#63b8ff" points="50.5,-44.75 54,-54.75 57.5,-44.75 50.5,-44.75"/>
</g>
<!-- Node3 -->
<g id="node3" class="node">
<title>Node3</title>
<g id="a_node3"><a xlink:href="classAction.html" target="_top" xlink:title="An abstract class representing a general operation in the program.">
<polygon fill="white" stroke="#666666" points="77.5,-129 30.5,-129 30.5,-110 77.5,-110 77.5,-129"/>
<text text-anchor="middle" x="54" y="-117" font-family="Helvetica,sans-Serif" font-size="10.00">Action</text>
</a>
</g>
</g>
<!-- Node3&#45;&gt;Node2 -->
<g id="edge2" class="edge">
<title>Node3&#45;&gt;Node2</title>
<path fill="none" stroke="#63b8ff" d="M54,-99.66C54,-90.93 54,-80.99 54,-74.09"/>
<polygon fill="#63b8ff" stroke="#63b8ff" points="50.5,-99.75 54,-109.75 57.5,-99.75 50.5,-99.75"/>
</g>
</g>
</svg>
