<?xml version="1.0" encoding="UTF-8" standalone="no"?>
<!DOCTYPE svg PUBLIC "-//W3C//DTD SVG 1.1//EN"
 "http://www.w3.org/Graphics/SVG/1.1/DTD/svg11.dtd">
<!-- Generated by graphviz version 2.43.0 (0)
 -->
<!-- Title: Interface::generateColorPairs Pages: 1 -->
<svg width="416pt" height="38pt"
 viewBox="0.00 0.00 416.00 38.00" xmlns="http://www.w3.org/2000/svg" xmlns:xlink="http://www.w3.org/1999/xlink">
<g id="graph0" class="graph" transform="scale(1 1) rotate(0) translate(4 34)">
<title>Interface::generateColorPairs</title>
<!-- Node1 -->
<g id="node1" class="node">
<title>Node1</title>
<g id="a_node1"><a xlink:title=" ">
<polygon fill="#999999" stroke="#666666" points="408,-30 273,-30 273,0 408,0 408,-30"/>
<text text-anchor="start" x="281" y="-18" font-family="Helvetica,sans-Serif" font-size="10.00">Interface::generateColor</text>
<text text-anchor="middle" x="340.5" y="-7" font-family="Helvetica,sans-Serif" font-size="10.00">Pairs</text>
</a>
</g>
</g>
<!-- Node2 -->
<g id="node2" class="node">
<title>Node2</title>
<g id="a_node2"><a xlink:href="classInterface.html#aac81e25cdc7e737234724bb9367f142f" target="_top" xlink:title="Initializes ncurses and prepares.">
<polygon fill="white" stroke="#666666" points="237,-24.5 129,-24.5 129,-5.5 237,-5.5 237,-24.5"/>
<text text-anchor="middle" x="183" y="-12.5" font-family="Helvetica,sans-Serif" font-size="10.00">Interface::initialize</text>
</a>
</g>
</g>
<!-- Node1&#45;&gt;Node2 -->
<g id="edge1" class="edge">
<title>Node1&#45;&gt;Node2</title>
<path fill="none" stroke="#63b8ff" d="M262.59,-15C254,-15 245.39,-15 237.19,-15"/>
<polygon fill="#63b8ff" stroke="#63b8ff" points="262.65,-18.5 272.65,-15 262.65,-11.5 262.65,-18.5"/>
</g>
<!-- Node3 -->
<g id="node3" class="node">
<title>Node3</title>
<g id="a_node3"><a xlink:href="classApplication.html#a8cf8941c8db90117d3735bce5ae1fdf4" target="_top" xlink:title=" ">
<polygon fill="white" stroke="#666666" points="93,-24.5 0,-24.5 0,-5.5 93,-5.5 93,-24.5"/>
<text text-anchor="middle" x="46.5" y="-12.5" font-family="Helvetica,sans-Serif" font-size="10.00">Application::run</text>
</a>
</g>
</g>
<!-- Node2&#45;&gt;Node3 -->
<g id="edge2" class="edge">
<title>Node2&#45;&gt;Node3</title>
<path fill="none" stroke="#63b8ff" d="M118.82,-15C110.22,-15 101.53,-15 93.32,-15"/>
<polygon fill="#63b8ff" stroke="#63b8ff" points="118.84,-18.5 128.84,-15 118.84,-11.5 118.84,-18.5"/>
</g>
</g>
</svg>
