<?xml version="1.0" encoding="UTF-8" standalone="no"?>
<!DOCTYPE svg PUBLIC "-//W3C//DTD SVG 1.1//EN"
 "http://www.w3.org/Graphics/SVG/1.1/DTD/svg11.dtd">
<!-- Generated by graphviz version 2.43.0 (0)
 -->
<!-- Title: DeduplicateAction::executeAction Pages: 1 -->
<svg width="411pt" height="64pt"
 viewBox="0.00 0.00 411.00 64.00" xmlns="http://www.w3.org/2000/svg" xmlns:xlink="http://www.w3.org/1999/xlink">
<g id="graph0" class="graph" transform="scale(1 1) rotate(0) translate(4 60)">
<title>DeduplicateAction::executeAction</title>
<!-- Node1 -->
<g id="node1" class="node">
<title>Node1</title>
<g id="a_node1"><a xlink:title=" ">
<polygon fill="#999999" stroke="#666666" points="112,-42.5 0,-42.5 0,-12.5 112,-12.5 112,-42.5"/>
<text text-anchor="start" x="8" y="-30.5" font-family="Helvetica,sans-Serif" font-size="10.00">DeduplicateAction::</text>
<text text-anchor="middle" x="56" y="-19.5" font-family="Helvetica,sans-Serif" font-size="10.00">executeAction</text>
</a>
</g>
</g>
<!-- Node2 -->
<g id="node2" class="node">
<title>Node2</title>
<g id="a_node2"><a xlink:href="classFileView.html#ad41f6b770e7c214b0a029675417273de" target="_top" xlink:title="Get Entries &#160;representing all files/folders in wd.">
<polygon fill="white" stroke="#666666" points="263,-56 148,-56 148,-37 263,-37 263,-56"/>
<text text-anchor="middle" x="205.5" y="-44" font-family="Helvetica,sans-Serif" font-size="10.00">FileView::getCurrent</text>
</a>
</g>
</g>
<!-- Node1&#45;&gt;Node2 -->
<g id="edge1" class="edge">
<title>Node1&#45;&gt;Node2</title>
<path fill="none" stroke="#63b8ff" d="M112.34,-34.63C120.69,-35.7 129.37,-36.82 137.91,-37.92"/>
<polygon fill="#63b8ff" stroke="#63b8ff" points="137.5,-41.4 147.86,-39.2 138.39,-34.46 137.5,-41.4"/>
</g>
<!-- Node4 -->
<g id="node4" class="node">
<title>Node4</title>
<g id="a_node4"><a xlink:href="classUtility.html#aa4538344bca94166c953ee914a843908" target="_top" xlink:title="Generates an MD5 hash of a file.">
<polygon fill="white" stroke="#666666" points="251.5,-19 159.5,-19 159.5,0 251.5,0 251.5,-19"/>
<text text-anchor="middle" x="205.5" y="-7" font-family="Helvetica,sans-Serif" font-size="10.00">Utility::getHash</text>
</a>
</g>
</g>
<!-- Node1&#45;&gt;Node4 -->
<g id="edge3" class="edge">
<title>Node1&#45;&gt;Node4</title>
<path fill="none" stroke="#63b8ff" d="M112.34,-20.75C124.48,-19.27 137.32,-17.7 149.44,-16.22"/>
<polygon fill="#63b8ff" stroke="#63b8ff" points="149.92,-19.69 159.43,-15 149.08,-12.74 149.92,-19.69"/>
</g>
<!-- Node3 -->
<g id="node3" class="node">
<title>Node3</title>
<g id="a_node3"><a xlink:href="classUtility.html#a4b4ebc4aa064a2002f8d42b781fce5a5" target="_top" xlink:title="Makes the correct entry object based on it&#39;s path.">
<polygon fill="white" stroke="#666666" points="403,-56 299,-56 299,-37 403,-37 403,-56"/>
<text text-anchor="middle" x="351" y="-44" font-family="Helvetica,sans-Serif" font-size="10.00">Utility::makeEntry</text>
</a>
</g>
</g>
<!-- Node2&#45;&gt;Node3 -->
<g id="edge2" class="edge">
<title>Node2&#45;&gt;Node3</title>
<path fill="none" stroke="#63b8ff" d="M263.21,-46.5C271.57,-46.5 280.21,-46.5 288.65,-46.5"/>
<polygon fill="#63b8ff" stroke="#63b8ff" points="288.82,-50 298.82,-46.5 288.82,-43 288.82,-50"/>
</g>
</g>
</svg>
