<?xml version="1.0" encoding="UTF-8" standalone="no"?>
<!DOCTYPE svg PUBLIC "-//W3C//DTD SVG 1.1//EN"
 "http://www.w3.org/Graphics/SVG/1.1/DTD/svg11.dtd">
<!-- Generated by graphviz version 2.43.0 (0)
 -->
<!-- Title: FileView::cd Pages: 1 -->
<svg width="278pt" height="64pt"
 viewBox="0.00 0.00 278.00 64.00" xmlns="http://www.w3.org/2000/svg" xmlns:xlink="http://www.w3.org/1999/xlink">
<g id="graph0" class="graph" transform="scale(1 1) rotate(0) translate(4 60)">
<title>FileView::cd</title>
<!-- Node1 -->
<g id="node1" class="node">
<title>Node1</title>
<g id="a_node1"><a xlink:title="Change directory.">
<polygon fill="#999999" stroke="#666666" points="270,-37 196,-37 196,-18 270,-18 270,-37"/>
<text text-anchor="middle" x="233" y="-25" font-family="Helvetica,sans-Serif" font-size="10.00">FileView::cd</text>
</a>
</g>
</g>
<!-- Node2 -->
<g id="node2" class="node">
<title>Node2</title>
<g id="a_node2"><a xlink:href="classGoBackAction.html#a49f668d770ed426e149aae5118dcb040" target="_top" xlink:title=" ">
<polygon fill="white" stroke="#666666" points="160,-56 0,-56 0,-37 160,-37 160,-56"/>
<text text-anchor="middle" x="80" y="-44" font-family="Helvetica,sans-Serif" font-size="10.00">GoBackAction::executeAction</text>
</a>
</g>
</g>
<!-- Node1&#45;&gt;Node2 -->
<g id="edge1" class="edge">
<title>Node1&#45;&gt;Node2</title>
<path fill="none" stroke="#63b8ff" d="M185.73,-33.32C176.49,-34.48 166.56,-35.73 156.63,-36.98"/>
<polygon fill="#63b8ff" stroke="#63b8ff" points="186.35,-36.77 195.83,-32.05 185.47,-29.83 186.35,-36.77"/>
</g>
<!-- Node3 -->
<g id="node3" class="node">
<title>Node3</title>
<g id="a_node3"><a xlink:href="classOpenAction.html#a13072eafb0ce2e9820bd224f2990876f" target="_top" xlink:title=" ">
<polygon fill="white" stroke="#666666" points="154,-19 6,-19 6,0 154,0 154,-19"/>
<text text-anchor="middle" x="80" y="-7" font-family="Helvetica,sans-Serif" font-size="10.00">OpenAction::executeAction</text>
</a>
</g>
</g>
<!-- Node1&#45;&gt;Node3 -->
<g id="edge2" class="edge">
<title>Node1&#45;&gt;Node3</title>
<path fill="none" stroke="#63b8ff" d="M185.75,-21.99C175.76,-20.8 164.96,-19.51 154.22,-18.23"/>
<polygon fill="#63b8ff" stroke="#63b8ff" points="185.49,-25.48 195.83,-23.19 186.32,-18.53 185.49,-25.48"/>
</g>
</g>
</svg>
