<?xml version="1.0" encoding="UTF-8" standalone="no"?>
<!DOCTYPE svg PUBLIC "-//W3C//DTD SVG 1.1//EN"
 "http://www.w3.org/Graphics/SVG/1.1/DTD/svg11.dtd">
<!-- Generated by graphviz version 2.43.0 (0)
 -->
<!-- Title: src/interface/Color.h Pages: 1 -->
<svg width="785pt" height="192pt"
 viewBox="0.00 0.00 784.50 192.00" xmlns="http://www.w3.org/2000/svg" xmlns:xlink="http://www.w3.org/1999/xlink">
<g id="graph0" class="graph" transform="scale(1 1) rotate(0) translate(4 188)">
<title>src/interface/Color.h</title>
<!-- Node1 -->
<g id="node1" class="node">
<title>Node1</title>
<g id="a_node1"><a xlink:title=" ">
<polygon fill="#999999" stroke="#666666" points="437,-184 323,-184 323,-165 437,-165 437,-184"/>
<text text-anchor="middle" x="380" y="-172" font-family="Helvetica,sans-Serif" font-size="10.00">src/interface/Color.h</text>
</a>
</g>
</g>
<!-- Node2 -->
<g id="node2" class="node">
<title>Node2</title>
<g id="a_node2"><a xlink:href="File_8cpp.html" target="_top" xlink:title=" ">
<polygon fill="white" stroke="#666666" points="100,-129 0,-129 0,-110 100,-110 100,-129"/>
<text text-anchor="middle" x="50" y="-117" font-family="Helvetica,sans-Serif" font-size="10.00">src/entry/File.cpp</text>
</a>
</g>
</g>
<!-- Node1&#45;&gt;Node2 -->
<g id="edge1" class="edge">
<title>Node1&#45;&gt;Node2</title>
<path fill="none" stroke="#63b8ff" d="M316.77,-163.34C253.73,-153.22 158.19,-137.88 100.18,-128.56"/>
<polygon fill="#63b8ff" stroke="#63b8ff" points="316.55,-166.85 326.98,-164.98 317.66,-159.94 316.55,-166.85"/>
</g>
<!-- Node3 -->
<g id="node3" class="node">
<title>Node3</title>
<g id="a_node3"><a xlink:href="Folder_8cpp.html" target="_top" xlink:title=" ">
<polygon fill="white" stroke="#666666" points="230,-129 118,-129 118,-110 230,-110 230,-129"/>
<text text-anchor="middle" x="174" y="-117" font-family="Helvetica,sans-Serif" font-size="10.00">src/entry/Folder.cpp</text>
</a>
</g>
</g>
<!-- Node1&#45;&gt;Node3 -->
<g id="edge2" class="edge">
<title>Node1&#45;&gt;Node3</title>
<path fill="none" stroke="#63b8ff" d="M337,-162.44C298.44,-152.52 242.64,-138.16 207.36,-129.08"/>
<polygon fill="#63b8ff" stroke="#63b8ff" points="336.35,-165.88 346.9,-164.98 338.09,-159.1 336.35,-165.88"/>
</g>
<!-- Node4 -->
<g id="node4" class="node">
<title>Node4</title>
<g id="a_node4"><a xlink:href="Symlink_8cpp.html" target="_top" xlink:title=" ">
<polygon fill="white" stroke="#666666" points="370,-129 248,-129 248,-110 370,-110 370,-129"/>
<text text-anchor="middle" x="309" y="-117" font-family="Helvetica,sans-Serif" font-size="10.00">src/entry/Symlink.cpp</text>
</a>
</g>
</g>
<!-- Node1&#45;&gt;Node4 -->
<g id="edge3" class="edge">
<title>Node1&#45;&gt;Node4</title>
<path fill="none" stroke="#63b8ff" d="M360.41,-158.88C347.63,-149.34 331.39,-137.21 320.61,-129.17"/>
<polygon fill="#63b8ff" stroke="#63b8ff" points="358.49,-161.81 368.59,-164.98 362.67,-156.2 358.49,-161.81"/>
</g>
<!-- Node5 -->
<g id="node5" class="node">
<title>Node5</title>
<g id="a_node5"><a xlink:href="Color_8cpp.html" target="_top" xlink:title=" ">
<polygon fill="white" stroke="#666666" points="513.5,-129 388.5,-129 388.5,-110 513.5,-110 513.5,-129"/>
<text text-anchor="middle" x="451" y="-117" font-family="Helvetica,sans-Serif" font-size="10.00">src/interface/Color.cpp</text>
</a>
</g>
</g>
<!-- Node1&#45;&gt;Node5 -->
<g id="edge4" class="edge">
<title>Node1&#45;&gt;Node5</title>
<path fill="none" stroke="#63b8ff" d="M399.59,-158.88C412.37,-149.34 428.61,-137.21 439.39,-129.17"/>
<polygon fill="#63b8ff" stroke="#63b8ff" points="397.33,-156.2 391.41,-164.98 401.51,-161.81 397.33,-156.2"/>
</g>
<!-- Node6 -->
<g id="node6" class="node">
<title>Node6</title>
<g id="a_node6"><a xlink:href="Interface_8cpp.html" target="_top" xlink:title=" ">
<polygon fill="white" stroke="#666666" points="614,-74 470,-74 470,-55 614,-55 614,-74"/>
<text text-anchor="middle" x="542" y="-62" font-family="Helvetica,sans-Serif" font-size="10.00">src/interface/Interface.cpp</text>
</a>
</g>
</g>
<!-- Node1&#45;&gt;Node6 -->
<g id="edge5" class="edge">
<title>Node1&#45;&gt;Node6</title>
<path fill="none" stroke="#63b8ff" d="M447.26,-165.95C473.57,-159.84 502.14,-148.83 522,-129 537.05,-113.97 540.8,-87.74 541.71,-74.18"/>
<polygon fill="#63b8ff" stroke="#63b8ff" points="446.36,-162.56 437.3,-168.06 447.81,-169.41 446.36,-162.56"/>
</g>
<!-- Node7 -->
<g id="node7" class="node">
<title>Node7</title>
<g id="a_node7"><a xlink:href="Interface_8h.html" target="_top" xlink:title=" ">
<polygon fill="white" stroke="#666666" points="703.5,-129 570.5,-129 570.5,-110 703.5,-110 703.5,-129"/>
<text text-anchor="middle" x="637" y="-117" font-family="Helvetica,sans-Serif" font-size="10.00">src/interface/Interface.h</text>
</a>
</g>
</g>
<!-- Node1&#45;&gt;Node7 -->
<g id="edge6" class="edge">
<title>Node1&#45;&gt;Node7</title>
<path fill="none" stroke="#63b8ff" d="M431.2,-162.94C479.38,-153.01 550.62,-138.31 595.38,-129.08"/>
<polygon fill="#63b8ff" stroke="#63b8ff" points="430.38,-159.54 421.29,-164.98 431.79,-166.39 430.38,-159.54"/>
</g>
<!-- Node7&#45;&gt;Node6 -->
<g id="edge10" class="edge">
<title>Node7&#45;&gt;Node6</title>
<path fill="none" stroke="#63b8ff" d="M612.74,-104.97C595.37,-95.28 572.51,-82.52 557.54,-74.17"/>
<polygon fill="#63b8ff" stroke="#63b8ff" points="611.3,-108.17 621.74,-109.98 614.71,-102.06 611.3,-108.17"/>
</g>
<!-- Node8 -->
<g id="node8" class="node">
<title>Node8</title>
<g id="a_node8"><a xlink:href="Application_8h.html" target="_top" xlink:title=" ">
<polygon fill="white" stroke="#666666" points="730,-74 632,-74 632,-55 730,-55 730,-74"/>
<text text-anchor="middle" x="681" y="-62" font-family="Helvetica,sans-Serif" font-size="10.00">src/Application.h</text>
</a>
</g>
</g>
<!-- Node7&#45;&gt;Node8 -->
<g id="edge7" class="edge">
<title>Node7&#45;&gt;Node8</title>
<path fill="none" stroke="#63b8ff" d="M650.73,-101.96C658.4,-92.72 667.63,-81.6 673.87,-74.09"/>
<polygon fill="#63b8ff" stroke="#63b8ff" points="647.96,-99.82 644.27,-109.75 653.35,-104.29 647.96,-99.82"/>
</g>
<!-- Node9 -->
<g id="node9" class="node">
<title>Node9</title>
<g id="a_node9"><a xlink:href="Application_8cpp.html" target="_top" xlink:title=" ">
<polygon fill="white" stroke="#666666" points="679.5,-19 570.5,-19 570.5,0 679.5,0 679.5,-19"/>
<text text-anchor="middle" x="625" y="-7" font-family="Helvetica,sans-Serif" font-size="10.00">src/Application.cpp</text>
</a>
</g>
</g>
<!-- Node8&#45;&gt;Node9 -->
<g id="edge8" class="edge">
<title>Node8&#45;&gt;Node9</title>
<path fill="none" stroke="#63b8ff" d="M664.67,-48.04C654.74,-38.64 642.41,-26.98 634.16,-19.17"/>
<polygon fill="#63b8ff" stroke="#63b8ff" points="662.33,-50.65 672,-54.98 667.15,-45.57 662.33,-50.65"/>
</g>
<!-- Node10 -->
<g id="node10" class="node">
<title>Node10</title>
<g id="a_node10"><a xlink:href="main_8cpp.html" target="_top" xlink:title=" ">
<polygon fill="white" stroke="#666666" points="776.5,-19 697.5,-19 697.5,0 776.5,0 776.5,-19"/>
<text text-anchor="middle" x="737" y="-7" font-family="Helvetica,sans-Serif" font-size="10.00">src/main.cpp</text>
</a>
</g>
</g>
<!-- Node8&#45;&gt;Node10 -->
<g id="edge9" class="edge">
<title>Node8&#45;&gt;Node10</title>
<path fill="none" stroke="#63b8ff" d="M697.33,-48.04C707.26,-38.64 719.59,-26.98 727.84,-19.17"/>
<polygon fill="#63b8ff" stroke="#63b8ff" points="694.85,-45.57 690,-54.98 699.67,-50.65 694.85,-45.57"/>
</g>
</g>
</svg>
