<?xml version="1.0" encoding="UTF-8" standalone="no"?>
<!DOCTYPE svg PUBLIC "-//W3C//DTD SVG 1.1//EN"
 "http://www.w3.org/Graphics/SVG/1.1/DTD/svg11.dtd">
<!-- Generated by graphviz version 2.43.0 (0)
 -->
<!-- Title: src/action/once/ConcatAction.cpp Pages: 1 -->
<svg width="371pt" height="412pt"
 viewBox="0.00 0.00 371.00 412.00" xmlns="http://www.w3.org/2000/svg" xmlns:xlink="http://www.w3.org/1999/xlink">
<g id="graph0" class="graph" transform="scale(1 1) rotate(0) translate(4 408)">
<title>src/action/once/ConcatAction.cpp</title>
<!-- Node1 -->
<g id="node1" class="node">
<title>Node1</title>
<g id="a_node1"><a xlink:title=" ">
<polygon fill="#999999" stroke="#666666" points="286,-404 108,-404 108,-385 286,-385 286,-404"/>
<text text-anchor="middle" x="197" y="-392" font-family="Helvetica,sans-Serif" font-size="10.00">src/action/once/ConcatAction.cpp</text>
</a>
</g>
</g>
<!-- Node2 -->
<g id="node2" class="node">
<title>Node2</title>
<g id="a_node2"><a xlink:href="ConcatAction_8h.html" target="_top" xlink:title=" ">
<polygon fill="white" stroke="#666666" points="151,-349 61,-349 61,-330 151,-330 151,-349"/>
<text text-anchor="middle" x="106" y="-337" font-family="Helvetica,sans-Serif" font-size="10.00">ConcatAction.h</text>
</a>
</g>
</g>
<!-- Node1&#45;&gt;Node2 -->
<g id="edge1" class="edge">
<title>Node1&#45;&gt;Node2</title>
<path fill="none" stroke="#63b8ff" d="M182.38,-384.98C168.14,-376.69 146.25,-363.94 129.55,-354.22"/>
<polygon fill="#63b8ff" stroke="#63b8ff" points="131.29,-351.18 120.89,-349.17 127.77,-357.23 131.29,-351.18"/>
</g>
<!-- Node14 -->
<g id="node14" class="node">
<title>Node14</title>
<g id="a_node14"><a xlink:title=" ">
<polygon fill="#e0e0e0" stroke="#999999" points="224.5,-349 169.5,-349 169.5,-330 224.5,-330 224.5,-349"/>
<text text-anchor="middle" x="197" y="-337" font-family="Helvetica,sans-Serif" font-size="10.00">fstream</text>
</a>
</g>
</g>
<!-- Node1&#45;&gt;Node14 -->
<g id="edge18" class="edge">
<title>Node1&#45;&gt;Node14</title>
<path fill="none" stroke="#63b8ff" d="M197,-384.75C197,-377.8 197,-367.85 197,-359.13"/>
<polygon fill="#63b8ff" stroke="#63b8ff" points="200.5,-359.09 197,-349.09 193.5,-359.09 200.5,-359.09"/>
</g>
<!-- Node15 -->
<g id="node15" class="node">
<title>Node15</title>
<g id="a_node15"><a xlink:href="Modal_8h.html" target="_top" xlink:title=" ">
<polygon fill="white" stroke="#666666" points="363,-349 243,-349 243,-330 363,-330 363,-349"/>
<text text-anchor="middle" x="303" y="-337" font-family="Helvetica,sans-Serif" font-size="10.00">../../interface/Modal.h</text>
</a>
</g>
</g>
<!-- Node1&#45;&gt;Node15 -->
<g id="edge19" class="edge">
<title>Node1&#45;&gt;Node15</title>
<path fill="none" stroke="#63b8ff" d="M214.03,-384.98C230.93,-376.54 257.06,-363.47 276.64,-353.68"/>
<polygon fill="#63b8ff" stroke="#63b8ff" points="278.28,-356.77 285.66,-349.17 275.15,-350.51 278.28,-356.77"/>
</g>
<!-- Node3 -->
<g id="node3" class="node">
<title>Node3</title>
<g id="a_node3"><a xlink:href="OnceAction_8h.html" target="_top" xlink:title=" ">
<polygon fill="white" stroke="#666666" points="151,-294 61,-294 61,-275 151,-275 151,-294"/>
<text text-anchor="middle" x="106" y="-282" font-family="Helvetica,sans-Serif" font-size="10.00">../OnceAction.h</text>
</a>
</g>
</g>
<!-- Node2&#45;&gt;Node3 -->
<g id="edge2" class="edge">
<title>Node2&#45;&gt;Node3</title>
<path fill="none" stroke="#63b8ff" d="M106,-329.75C106,-322.8 106,-312.85 106,-304.13"/>
<polygon fill="#63b8ff" stroke="#63b8ff" points="109.5,-304.09 106,-294.09 102.5,-304.09 109.5,-304.09"/>
</g>
<!-- Node4 -->
<g id="node4" class="node">
<title>Node4</title>
<g id="a_node4"><a xlink:href="Action_8h.html" target="_top" xlink:title=" ">
<polygon fill="white" stroke="#666666" points="134,-239 78,-239 78,-220 134,-220 134,-239"/>
<text text-anchor="middle" x="106" y="-227" font-family="Helvetica,sans-Serif" font-size="10.00">Action.h</text>
</a>
</g>
</g>
<!-- Node3&#45;&gt;Node4 -->
<g id="edge3" class="edge">
<title>Node3&#45;&gt;Node4</title>
<path fill="none" stroke="#63b8ff" d="M106,-274.75C106,-267.8 106,-257.85 106,-249.13"/>
<polygon fill="#63b8ff" stroke="#63b8ff" points="109.5,-249.09 106,-239.09 102.5,-249.09 109.5,-249.09"/>
</g>
<!-- Node5 -->
<g id="node5" class="node">
<title>Node5</title>
<g id="a_node5"><a xlink:title=" ">
<polygon fill="#e0e0e0" stroke="#999999" points="147.5,-129 100.5,-129 100.5,-110 147.5,-110 147.5,-129"/>
<text text-anchor="middle" x="124" y="-117" font-family="Helvetica,sans-Serif" font-size="10.00">vector</text>
</a>
</g>
</g>
<!-- Node4&#45;&gt;Node5 -->
<g id="edge4" class="edge">
<title>Node4&#45;&gt;Node5</title>
<path fill="none" stroke="#63b8ff" d="M107.47,-219.66C110.39,-202.17 116.95,-162.8 120.87,-139.27"/>
<polygon fill="#63b8ff" stroke="#63b8ff" points="124.37,-139.6 122.56,-129.16 117.46,-138.45 124.37,-139.6"/>
</g>
<!-- Node6 -->
<g id="node6" class="node">
<title>Node6</title>
<g id="a_node6"><a xlink:title=" ">
<polygon fill="#e0e0e0" stroke="#999999" points="68,-19 0,-19 0,0 68,0 68,-19"/>
<text text-anchor="middle" x="34" y="-7" font-family="Helvetica,sans-Serif" font-size="10.00">filesystem</text>
</a>
</g>
</g>
<!-- Node4&#45;&gt;Node6 -->
<g id="edge5" class="edge">
<title>Node4&#45;&gt;Node6</title>
<path fill="none" stroke="#63b8ff" d="M77.83,-222.15C57.87,-216.02 32.5,-204.54 20,-184 -10.05,-134.62 12.63,-62.16 26.01,-28.68"/>
<polygon fill="#63b8ff" stroke="#63b8ff" points="29.32,-29.84 29.95,-19.26 22.86,-27.14 29.32,-29.84"/>
</g>
<!-- Node7 -->
<g id="node7" class="node">
<title>Node7</title>
<g id="a_node7"><a xlink:href="FileView_8h.html" target="_top" xlink:title=" ">
<polygon fill="white" stroke="#666666" points="104.5,-184 29.5,-184 29.5,-165 104.5,-165 104.5,-184"/>
<text text-anchor="middle" x="67" y="-172" font-family="Helvetica,sans-Serif" font-size="10.00">../FileView.h</text>
</a>
</g>
</g>
<!-- Node4&#45;&gt;Node7 -->
<g id="edge6" class="edge">
<title>Node4&#45;&gt;Node7</title>
<path fill="none" stroke="#63b8ff" d="M99.56,-219.75C94.11,-212.34 86.14,-201.5 79.44,-192.41"/>
<polygon fill="#63b8ff" stroke="#63b8ff" points="82.07,-190.07 73.32,-184.09 76.43,-194.22 82.07,-190.07"/>
</g>
<!-- Node10 -->
<g id="node10" class="node">
<title>Node10</title>
<g id="a_node10"><a xlink:href="State_8h.html" target="_top" xlink:title=" ">
<polygon fill="white" stroke="#666666" points="238,-184 178,-184 178,-165 238,-165 238,-184"/>
<text text-anchor="middle" x="208" y="-172" font-family="Helvetica,sans-Serif" font-size="10.00">../State.h</text>
</a>
</g>
</g>
<!-- Node4&#45;&gt;Node10 -->
<g id="edge12" class="edge">
<title>Node4&#45;&gt;Node10</title>
<path fill="none" stroke="#63b8ff" d="M122.39,-219.98C138.57,-211.57 163.57,-198.59 182.38,-188.81"/>
<polygon fill="#63b8ff" stroke="#63b8ff" points="184.05,-191.89 191.31,-184.17 180.83,-185.68 184.05,-191.89"/>
</g>
<!-- Node7&#45;&gt;Node5 -->
<g id="edge7" class="edge">
<title>Node7&#45;&gt;Node5</title>
<path fill="none" stroke="#63b8ff" d="M76.16,-164.98C84.5,-157.23 97.03,-145.58 107.18,-136.14"/>
<polygon fill="#63b8ff" stroke="#63b8ff" points="109.74,-138.54 114.68,-129.17 104.97,-133.42 109.74,-138.54"/>
</g>
<!-- Node7&#45;&gt;Node6 -->
<g id="edge8" class="edge">
<title>Node7&#45;&gt;Node6</title>
<path fill="none" stroke="#63b8ff" d="M65.23,-164.74C60.06,-139.2 44.92,-64.43 37.79,-29.23"/>
<polygon fill="#63b8ff" stroke="#63b8ff" points="41.2,-28.41 35.78,-19.31 34.34,-29.8 41.2,-28.41"/>
</g>
<!-- Node8 -->
<g id="node8" class="node">
<title>Node8</title>
<g id="a_node8"><a xlink:href="Entry_8h.html" target="_top" xlink:title=" ">
<polygon fill="white" stroke="#666666" points="186,-74 108,-74 108,-55 186,-55 186,-74"/>
<text text-anchor="middle" x="147" y="-62" font-family="Helvetica,sans-Serif" font-size="10.00">entry/Entry.h</text>
</a>
</g>
</g>
<!-- Node7&#45;&gt;Node8 -->
<g id="edge9" class="edge">
<title>Node7&#45;&gt;Node8</title>
<path fill="none" stroke="#63b8ff" d="M68.69,-164.99C71.56,-152.11 78.36,-127.33 91,-110 99.78,-97.97 112.62,-87.44 123.8,-79.65"/>
<polygon fill="#63b8ff" stroke="#63b8ff" points="125.89,-82.46 132.29,-74.02 122.02,-76.63 125.89,-82.46"/>
</g>
<!-- Node8&#45;&gt;Node6 -->
<g id="edge10" class="edge">
<title>Node8&#45;&gt;Node6</title>
<path fill="none" stroke="#63b8ff" d="M128.84,-54.98C110.75,-46.5 82.72,-33.35 61.81,-23.54"/>
<polygon fill="#63b8ff" stroke="#63b8ff" points="63.03,-20.25 52.49,-19.17 60.05,-26.59 63.03,-20.25"/>
</g>
<!-- Node9 -->
<g id="node9" class="node">
<title>Node9</title>
<g id="a_node9"><a xlink:href="Modifier_8h.html" target="_top" xlink:title=" ">
<polygon fill="white" stroke="#666666" points="179.5,-19 114.5,-19 114.5,0 179.5,0 179.5,-19"/>
<text text-anchor="middle" x="147" y="-7" font-family="Helvetica,sans-Serif" font-size="10.00">Modifier.h</text>
</a>
</g>
</g>
<!-- Node8&#45;&gt;Node9 -->
<g id="edge11" class="edge">
<title>Node8&#45;&gt;Node9</title>
<path fill="none" stroke="#63b8ff" d="M147,-54.75C147,-47.8 147,-37.85 147,-29.13"/>
<polygon fill="#63b8ff" stroke="#63b8ff" points="150.5,-29.09 147,-19.09 143.5,-29.09 150.5,-29.09"/>
</g>
<!-- Node10&#45;&gt;Node8 -->
<g id="edge14" class="edge">
<title>Node10&#45;&gt;Node8</title>
<path fill="none" stroke="#63b8ff" d="M203.01,-164.66C192.95,-146.85 170.08,-106.37 156.89,-83.01"/>
<polygon fill="#63b8ff" stroke="#63b8ff" points="159.86,-81.14 151.89,-74.16 153.76,-84.59 159.86,-81.14"/>
</g>
<!-- Node11 -->
<g id="node11" class="node">
<title>Node11</title>
<g id="a_node11"><a xlink:title=" ">
<polygon fill="#e0e0e0" stroke="#999999" points="236,-129 204,-129 204,-110 236,-110 236,-129"/>
<text text-anchor="middle" x="220" y="-117" font-family="Helvetica,sans-Serif" font-size="10.00">set</text>
</a>
</g>
</g>
<!-- Node10&#45;&gt;Node11 -->
<g id="edge13" class="edge">
<title>Node10&#45;&gt;Node11</title>
<path fill="none" stroke="#63b8ff" d="M209.98,-164.75C211.57,-157.72 213.86,-147.62 215.85,-138.84"/>
<polygon fill="#63b8ff" stroke="#63b8ff" points="219.26,-139.62 218.06,-129.09 212.43,-138.07 219.26,-139.62"/>
</g>
<!-- Node12 -->
<g id="node12" class="node">
<title>Node12</title>
<g id="a_node12"><a xlink:href="Utility_8h.html" target="_top" xlink:title=" ">
<polygon fill="white" stroke="#666666" points="308,-129 254,-129 254,-110 308,-110 308,-129"/>
<text text-anchor="middle" x="281" y="-117" font-family="Helvetica,sans-Serif" font-size="10.00">Utility.h</text>
</a>
</g>
</g>
<!-- Node10&#45;&gt;Node12 -->
<g id="edge15" class="edge">
<title>Node10&#45;&gt;Node12</title>
<path fill="none" stroke="#63b8ff" d="M219.73,-164.98C230.73,-157 247.42,-144.88 260.6,-135.31"/>
<polygon fill="#63b8ff" stroke="#63b8ff" points="263.02,-137.88 269.06,-129.17 258.91,-132.21 263.02,-137.88"/>
</g>
<!-- Node12&#45;&gt;Node8 -->
<g id="edge17" class="edge">
<title>Node12&#45;&gt;Node8</title>
<path fill="none" stroke="#63b8ff" d="M259.47,-109.98C237.53,-101.3 203.26,-87.75 178.31,-77.88"/>
<polygon fill="#63b8ff" stroke="#63b8ff" points="179.51,-74.59 168.92,-74.17 176.93,-81.1 179.51,-74.59"/>
</g>
<!-- Node13 -->
<g id="node13" class="node">
<title>Node13</title>
<g id="a_node13"><a xlink:title=" ">
<polygon fill="#e0e0e0" stroke="#999999" points="330,-74 286,-74 286,-55 330,-55 330,-74"/>
<text text-anchor="middle" x="308" y="-62" font-family="Helvetica,sans-Serif" font-size="10.00">string</text>
</a>
</g>
</g>
<!-- Node12&#45;&gt;Node13 -->
<g id="edge16" class="edge">
<title>Node12&#45;&gt;Node13</title>
<path fill="none" stroke="#63b8ff" d="M285.46,-109.75C289.12,-102.57 294.41,-92.18 298.95,-83.27"/>
<polygon fill="#63b8ff" stroke="#63b8ff" points="302.2,-84.59 303.62,-74.09 295.97,-81.41 302.2,-84.59"/>
</g>
<!-- Node15&#45;&gt;Node13 -->
<g id="edge20" class="edge">
<title>Node15&#45;&gt;Node13</title>
<path fill="none" stroke="#63b8ff" d="M307.59,-329.82C316.66,-311.82 336,-268.93 336,-230.5 336,-230.5 336,-230.5 336,-173.5 336,-141.02 323.99,-104.76 315.7,-83.6"/>
<polygon fill="#63b8ff" stroke="#63b8ff" points="318.91,-82.2 311.89,-74.26 312.43,-84.84 318.91,-82.2"/>
</g>
<!-- Node16 -->
<g id="node16" class="node">
<title>Node16</title>
<g id="a_node16"><a xlink:title=" ">
<polygon fill="#e0e0e0" stroke="#999999" points="307.5,-294 244.5,-294 244.5,-275 307.5,-275 307.5,-294"/>
<text text-anchor="middle" x="276" y="-282" font-family="Helvetica,sans-Serif" font-size="10.00">ncurses.h</text>
</a>
</g>
</g>
<!-- Node15&#45;&gt;Node16 -->
<g id="edge21" class="edge">
<title>Node15&#45;&gt;Node16</title>
<path fill="none" stroke="#63b8ff" d="M298.54,-329.75C294.88,-322.57 289.59,-312.18 285.05,-303.27"/>
<polygon fill="#63b8ff" stroke="#63b8ff" points="288.03,-301.41 280.38,-294.09 281.8,-304.59 288.03,-301.41"/>
</g>
</g>
</svg>
