<?xml version="1.0" encoding="UTF-8" standalone="no"?>
<!DOCTYPE svg PUBLIC "-//W3C//DTD SVG 1.1//EN"
 "http://www.w3.org/Graphics/SVG/1.1/DTD/svg11.dtd">
<!-- Generated by graphviz version 2.43.0 (0)
 -->
<!-- Title: src/action/once/ConcatAction.h Pages: 1 -->
<svg width="326pt" height="357pt"
 viewBox="0.00 0.00 325.50 357.00" xmlns="http://www.w3.org/2000/svg" xmlns:xlink="http://www.w3.org/1999/xlink">
<g id="graph0" class="graph" transform="scale(1 1) rotate(0) translate(4 353)">
<title>src/action/once/ConcatAction.h</title>
<!-- Node1 -->
<g id="node1" class="node">
<title>Node1</title>
<g id="a_node1"><a xlink:title=" ">
<polygon fill="#999999" stroke="#666666" points="167,-349 0,-349 0,-330 167,-330 167,-349"/>
<text text-anchor="middle" x="83.5" y="-337" font-family="Helvetica,sans-Serif" font-size="10.00">src/action/once/ConcatAction.h</text>
</a>
</g>
</g>
<!-- Node2 -->
<g id="node2" class="node">
<title>Node2</title>
<g id="a_node2"><a xlink:href="OnceAction_8h.html" target="_top" xlink:title=" ">
<polygon fill="white" stroke="#666666" points="128.5,-294 38.5,-294 38.5,-275 128.5,-275 128.5,-294"/>
<text text-anchor="middle" x="83.5" y="-282" font-family="Helvetica,sans-Serif" font-size="10.00">../OnceAction.h</text>
</a>
</g>
</g>
<!-- Node1&#45;&gt;Node2 -->
<g id="edge1" class="edge">
<title>Node1&#45;&gt;Node2</title>
<path fill="none" stroke="#63b8ff" d="M83.5,-329.75C83.5,-322.8 83.5,-312.85 83.5,-304.13"/>
<polygon fill="#63b8ff" stroke="#63b8ff" points="87,-304.09 83.5,-294.09 80,-304.09 87,-304.09"/>
</g>
<!-- Node3 -->
<g id="node3" class="node">
<title>Node3</title>
<g id="a_node3"><a xlink:href="Action_8h.html" target="_top" xlink:title=" ">
<polygon fill="white" stroke="#666666" points="111.5,-239 55.5,-239 55.5,-220 111.5,-220 111.5,-239"/>
<text text-anchor="middle" x="83.5" y="-227" font-family="Helvetica,sans-Serif" font-size="10.00">Action.h</text>
</a>
</g>
</g>
<!-- Node2&#45;&gt;Node3 -->
<g id="edge2" class="edge">
<title>Node2&#45;&gt;Node3</title>
<path fill="none" stroke="#63b8ff" d="M83.5,-274.75C83.5,-267.8 83.5,-257.85 83.5,-249.13"/>
<polygon fill="#63b8ff" stroke="#63b8ff" points="87,-249.09 83.5,-239.09 80,-249.09 87,-249.09"/>
</g>
<!-- Node4 -->
<g id="node4" class="node">
<title>Node4</title>
<g id="a_node4"><a xlink:title=" ">
<polygon fill="#e0e0e0" stroke="#999999" points="81,-129 34,-129 34,-110 81,-110 81,-129"/>
<text text-anchor="middle" x="57.5" y="-117" font-family="Helvetica,sans-Serif" font-size="10.00">vector</text>
</a>
</g>
</g>
<!-- Node3&#45;&gt;Node4 -->
<g id="edge3" class="edge">
<title>Node3&#45;&gt;Node4</title>
<path fill="none" stroke="#63b8ff" d="M80.4,-219.72C77.33,-210.81 72.65,-196.57 69.5,-184 65.78,-169.17 62.62,-152.13 60.48,-139.44"/>
<polygon fill="#63b8ff" stroke="#63b8ff" points="63.87,-138.51 58.81,-129.2 56.96,-139.63 63.87,-138.51"/>
</g>
<!-- Node5 -->
<g id="node5" class="node">
<title>Node5</title>
<g id="a_node5"><a xlink:title=" ">
<polygon fill="#e0e0e0" stroke="#999999" points="143.5,-19 75.5,-19 75.5,0 143.5,0 143.5,-19"/>
<text text-anchor="middle" x="109.5" y="-7" font-family="Helvetica,sans-Serif" font-size="10.00">filesystem</text>
</a>
</g>
</g>
<!-- Node3&#45;&gt;Node5 -->
<g id="edge4" class="edge">
<title>Node3&#45;&gt;Node5</title>
<path fill="none" stroke="#63b8ff" d="M73.67,-219.87C53.1,-200.71 8.67,-152.91 24.5,-110 37.56,-74.59 69.46,-43.24 90.25,-25.59"/>
<polygon fill="#63b8ff" stroke="#63b8ff" points="92.64,-28.16 98.14,-19.1 88.19,-22.76 92.64,-28.16"/>
</g>
<!-- Node6 -->
<g id="node6" class="node">
<title>Node6</title>
<g id="a_node6"><a xlink:href="FileView_8h.html" target="_top" xlink:title=" ">
<polygon fill="white" stroke="#666666" points="154,-184 79,-184 79,-165 154,-165 154,-184"/>
<text text-anchor="middle" x="116.5" y="-172" font-family="Helvetica,sans-Serif" font-size="10.00">../FileView.h</text>
</a>
</g>
</g>
<!-- Node3&#45;&gt;Node6 -->
<g id="edge5" class="edge">
<title>Node3&#45;&gt;Node6</title>
<path fill="none" stroke="#63b8ff" d="M88.95,-219.75C93.51,-212.42 100.17,-201.73 105.79,-192.7"/>
<polygon fill="#63b8ff" stroke="#63b8ff" points="108.84,-194.43 111.15,-184.09 102.9,-190.73 108.84,-194.43"/>
</g>
<!-- Node9 -->
<g id="node9" class="node">
<title>Node9</title>
<g id="a_node9"><a xlink:href="State_8h.html" target="_top" xlink:title=" ">
<polygon fill="white" stroke="#666666" points="251.5,-184 191.5,-184 191.5,-165 251.5,-165 251.5,-184"/>
<text text-anchor="middle" x="221.5" y="-172" font-family="Helvetica,sans-Serif" font-size="10.00">../State.h</text>
</a>
</g>
</g>
<!-- Node3&#45;&gt;Node9 -->
<g id="edge11" class="edge">
<title>Node3&#45;&gt;Node9</title>
<path fill="none" stroke="#63b8ff" d="M105.67,-219.98C128.27,-211.3 163.56,-197.75 189.25,-187.88"/>
<polygon fill="#63b8ff" stroke="#63b8ff" points="190.84,-191.02 198.92,-184.17 188.33,-184.49 190.84,-191.02"/>
</g>
<!-- Node6&#45;&gt;Node4 -->
<g id="edge6" class="edge">
<title>Node6&#45;&gt;Node4</title>
<path fill="none" stroke="#63b8ff" d="M107.02,-164.98C98.3,-157.15 85.16,-145.34 74.6,-135.86"/>
<polygon fill="#63b8ff" stroke="#63b8ff" points="76.93,-133.25 67.15,-129.17 72.25,-138.46 76.93,-133.25"/>
</g>
<!-- Node6&#45;&gt;Node5 -->
<g id="edge7" class="edge">
<title>Node6&#45;&gt;Node5</title>
<path fill="none" stroke="#63b8ff" d="M116.12,-164.74C115.03,-139.31 111.84,-65.08 110.32,-29.69"/>
<polygon fill="#63b8ff" stroke="#63b8ff" points="113.8,-29.15 109.88,-19.31 106.81,-29.45 113.8,-29.15"/>
</g>
<!-- Node7 -->
<g id="node7" class="node">
<title>Node7</title>
<g id="a_node7"><a xlink:href="Entry_8h.html" target="_top" xlink:title=" ">
<polygon fill="white" stroke="#666666" points="241.5,-74 163.5,-74 163.5,-55 241.5,-55 241.5,-74"/>
<text text-anchor="middle" x="202.5" y="-62" font-family="Helvetica,sans-Serif" font-size="10.00">entry/Entry.h</text>
</a>
</g>
</g>
<!-- Node6&#45;&gt;Node7 -->
<g id="edge8" class="edge">
<title>Node6&#45;&gt;Node7</title>
<path fill="none" stroke="#63b8ff" d="M123.26,-164.84C132.83,-152.6 150.92,-129.52 166.5,-110 173.95,-100.66 182.35,-90.28 189.15,-81.89"/>
<polygon fill="#63b8ff" stroke="#63b8ff" points="191.97,-83.97 195.57,-74 186.54,-79.56 191.97,-83.97"/>
</g>
<!-- Node7&#45;&gt;Node5 -->
<g id="edge9" class="edge">
<title>Node7&#45;&gt;Node5</title>
<path fill="none" stroke="#63b8ff" d="M187.56,-54.98C173,-46.69 150.63,-33.94 133.57,-24.22"/>
<polygon fill="#63b8ff" stroke="#63b8ff" points="135.14,-21.08 124.71,-19.17 131.67,-27.16 135.14,-21.08"/>
</g>
<!-- Node8 -->
<g id="node8" class="node">
<title>Node8</title>
<g id="a_node8"><a xlink:href="Modifier_8h.html" target="_top" xlink:title=" ">
<polygon fill="white" stroke="#666666" points="235,-19 170,-19 170,0 235,0 235,-19"/>
<text text-anchor="middle" x="202.5" y="-7" font-family="Helvetica,sans-Serif" font-size="10.00">Modifier.h</text>
</a>
</g>
</g>
<!-- Node7&#45;&gt;Node8 -->
<g id="edge10" class="edge">
<title>Node7&#45;&gt;Node8</title>
<path fill="none" stroke="#63b8ff" d="M202.5,-54.75C202.5,-47.8 202.5,-37.85 202.5,-29.13"/>
<polygon fill="#63b8ff" stroke="#63b8ff" points="206,-29.09 202.5,-19.09 199,-29.09 206,-29.09"/>
</g>
<!-- Node9&#45;&gt;Node7 -->
<g id="edge13" class="edge">
<title>Node9&#45;&gt;Node7</title>
<path fill="none" stroke="#63b8ff" d="M221.43,-164.79C221.2,-152.47 220.25,-129.32 216.5,-110 214.8,-101.25 211.98,-91.81 209.31,-83.88"/>
<polygon fill="#63b8ff" stroke="#63b8ff" points="212.53,-82.47 205.89,-74.21 205.93,-84.81 212.53,-82.47"/>
</g>
<!-- Node10 -->
<g id="node10" class="node">
<title>Node10</title>
<g id="a_node10"><a xlink:title=" ">
<polygon fill="#e0e0e0" stroke="#999999" points="207.5,-129 175.5,-129 175.5,-110 207.5,-110 207.5,-129"/>
<text text-anchor="middle" x="191.5" y="-117" font-family="Helvetica,sans-Serif" font-size="10.00">set</text>
</a>
</g>
</g>
<!-- Node9&#45;&gt;Node10 -->
<g id="edge12" class="edge">
<title>Node9&#45;&gt;Node10</title>
<path fill="none" stroke="#63b8ff" d="M216.55,-164.75C212.44,-157.49 206.47,-146.95 201.4,-137.98"/>
<polygon fill="#63b8ff" stroke="#63b8ff" points="204.33,-136.07 196.36,-129.09 198.24,-139.52 204.33,-136.07"/>
</g>
<!-- Node11 -->
<g id="node11" class="node">
<title>Node11</title>
<g id="a_node11"><a xlink:href="Utility_8h.html" target="_top" xlink:title=" ">
<polygon fill="white" stroke="#666666" points="317.5,-129 263.5,-129 263.5,-110 317.5,-110 317.5,-129"/>
<text text-anchor="middle" x="290.5" y="-117" font-family="Helvetica,sans-Serif" font-size="10.00">Utility.h</text>
</a>
</g>
</g>
<!-- Node9&#45;&gt;Node11 -->
<g id="edge14" class="edge">
<title>Node9&#45;&gt;Node11</title>
<path fill="none" stroke="#63b8ff" d="M232.59,-164.98C242.99,-157 258.76,-144.88 271.22,-135.31"/>
<polygon fill="#63b8ff" stroke="#63b8ff" points="273.41,-138.04 279.21,-129.17 269.15,-132.49 273.41,-138.04"/>
</g>
<!-- Node11&#45;&gt;Node7 -->
<g id="edge16" class="edge">
<title>Node11&#45;&gt;Node7</title>
<path fill="none" stroke="#63b8ff" d="M276.36,-109.98C262.71,-101.77 241.81,-89.18 225.72,-79.49"/>
<polygon fill="#63b8ff" stroke="#63b8ff" points="227.27,-76.33 216.9,-74.17 223.66,-82.33 227.27,-76.33"/>
</g>
<!-- Node12 -->
<g id="node12" class="node">
<title>Node12</title>
<g id="a_node12"><a xlink:title=" ">
<polygon fill="#e0e0e0" stroke="#999999" points="312.5,-74 268.5,-74 268.5,-55 312.5,-55 312.5,-74"/>
<text text-anchor="middle" x="290.5" y="-62" font-family="Helvetica,sans-Serif" font-size="10.00">string</text>
</a>
</g>
</g>
<!-- Node11&#45;&gt;Node12 -->
<g id="edge15" class="edge">
<title>Node11&#45;&gt;Node12</title>
<path fill="none" stroke="#63b8ff" d="M290.5,-109.75C290.5,-102.8 290.5,-92.85 290.5,-84.13"/>
<polygon fill="#63b8ff" stroke="#63b8ff" points="294,-84.09 290.5,-74.09 287,-84.09 294,-84.09"/>
</g>
</g>
</svg>
