<?xml version="1.0" encoding="UTF-8" standalone="no"?>
<!DOCTYPE svg PUBLIC "-//W3C//DTD SVG 1.1//EN"
 "http://www.w3.org/Graphics/SVG/1.1/DTD/svg11.dtd">
<!-- Generated by graphviz version 2.43.0 (0)
 -->
<!-- Title: src/Config.cpp Pages: 1 -->
<svg width="301pt" height="192pt"
 viewBox="0.00 0.00 300.50 192.00" xmlns="http://www.w3.org/2000/svg" xmlns:xlink="http://www.w3.org/1999/xlink">
<g id="graph0" class="graph" transform="scale(1 1) rotate(0) translate(4 188)">
<title>src/Config.cpp</title>
<!-- Node1 -->
<g id="node1" class="node">
<title>Node1</title>
<g id="a_node1"><a xlink:title=" ">
<polygon fill="#999999" stroke="#666666" points="202.5,-184 117.5,-184 117.5,-165 202.5,-165 202.5,-184"/>
<text text-anchor="middle" x="160" y="-172" font-family="Helvetica,sans-Serif" font-size="10.00">src/Config.cpp</text>
</a>
</g>
</g>
<!-- Node2 -->
<g id="node2" class="node">
<title>Node2</title>
<g id="a_node2"><a xlink:href="Config_8h.html" target="_top" xlink:title=" ">
<polygon fill="white" stroke="#666666" points="114,-129 58,-129 58,-110 114,-110 114,-129"/>
<text text-anchor="middle" x="86" y="-117" font-family="Helvetica,sans-Serif" font-size="10.00">Config.h</text>
</a>
</g>
</g>
<!-- Node1&#45;&gt;Node2 -->
<g id="edge1" class="edge">
<title>Node1&#45;&gt;Node2</title>
<path fill="none" stroke="#63b8ff" d="M148.11,-164.98C136.85,-156.92 119.71,-144.65 106.29,-135.03"/>
<polygon fill="#63b8ff" stroke="#63b8ff" points="108.27,-132.15 98.11,-129.17 104.2,-137.84 108.27,-132.15"/>
</g>
<!-- Node6 -->
<g id="node6" class="node">
<title>Node6</title>
<g id="a_node6"><a xlink:title=" ">
<polygon fill="#e0e0e0" stroke="#999999" points="187.5,-129 132.5,-129 132.5,-110 187.5,-110 187.5,-129"/>
<text text-anchor="middle" x="160" y="-117" font-family="Helvetica,sans-Serif" font-size="10.00">fstream</text>
</a>
</g>
</g>
<!-- Node1&#45;&gt;Node6 -->
<g id="edge5" class="edge">
<title>Node1&#45;&gt;Node6</title>
<path fill="none" stroke="#63b8ff" d="M160,-164.75C160,-157.8 160,-147.85 160,-139.13"/>
<polygon fill="#63b8ff" stroke="#63b8ff" points="163.5,-139.09 160,-129.09 156.5,-139.09 163.5,-139.09"/>
</g>
<!-- Node7 -->
<g id="node7" class="node">
<title>Node7</title>
<g id="a_node7"><a xlink:title=" ">
<polygon fill="#e0e0e0" stroke="#999999" points="292.5,-129 205.5,-129 205.5,-110 292.5,-110 292.5,-129"/>
<text text-anchor="middle" x="249" y="-117" font-family="Helvetica,sans-Serif" font-size="10.00">../libs/json.hpp</text>
</a>
</g>
</g>
<!-- Node1&#45;&gt;Node7 -->
<g id="edge6" class="edge">
<title>Node1&#45;&gt;Node7</title>
<path fill="none" stroke="#63b8ff" d="M174.3,-164.98C188.1,-156.77 209.24,-144.18 225.51,-134.49"/>
<polygon fill="#63b8ff" stroke="#63b8ff" points="227.64,-137.29 234.44,-129.17 224.06,-131.28 227.64,-137.29"/>
</g>
<!-- Node3 -->
<g id="node3" class="node">
<title>Node3</title>
<g id="a_node3"><a xlink:title=" ">
<polygon fill="#e0e0e0" stroke="#999999" points="68,-74 0,-74 0,-55 68,-55 68,-74"/>
<text text-anchor="middle" x="34" y="-62" font-family="Helvetica,sans-Serif" font-size="10.00">filesystem</text>
</a>
</g>
</g>
<!-- Node2&#45;&gt;Node3 -->
<g id="edge2" class="edge">
<title>Node2&#45;&gt;Node3</title>
<path fill="none" stroke="#63b8ff" d="M77.41,-109.75C69.84,-102.03 58.62,-90.6 49.49,-81.28"/>
<polygon fill="#63b8ff" stroke="#63b8ff" points="51.93,-78.78 42.43,-74.09 46.93,-83.68 51.93,-78.78"/>
</g>
<!-- Node4 -->
<g id="node4" class="node">
<title>Node4</title>
<g id="a_node4"><a xlink:href="Theme_8h.html" target="_top" xlink:title=" ">
<polygon fill="white" stroke="#666666" points="192,-74 86,-74 86,-55 192,-55 192,-74"/>
<text text-anchor="middle" x="139" y="-62" font-family="Helvetica,sans-Serif" font-size="10.00">interface/Theme.h</text>
</a>
</g>
</g>
<!-- Node2&#45;&gt;Node4 -->
<g id="edge3" class="edge">
<title>Node2&#45;&gt;Node4</title>
<path fill="none" stroke="#63b8ff" d="M94.75,-109.75C102.47,-102.03 113.9,-90.6 123.22,-81.28"/>
<polygon fill="#63b8ff" stroke="#63b8ff" points="125.81,-83.64 130.41,-74.09 120.86,-78.69 125.81,-83.64"/>
</g>
<!-- Node5 -->
<g id="node5" class="node">
<title>Node5</title>
<g id="a_node5"><a xlink:title=" ">
<polygon fill="#e0e0e0" stroke="#999999" points="170.5,-19 107.5,-19 107.5,0 170.5,0 170.5,-19"/>
<text text-anchor="middle" x="139" y="-7" font-family="Helvetica,sans-Serif" font-size="10.00">ncurses.h</text>
</a>
</g>
</g>
<!-- Node4&#45;&gt;Node5 -->
<g id="edge4" class="edge">
<title>Node4&#45;&gt;Node5</title>
<path fill="none" stroke="#63b8ff" d="M139,-54.75C139,-47.8 139,-37.85 139,-29.13"/>
<polygon fill="#63b8ff" stroke="#63b8ff" points="142.5,-29.09 139,-19.09 135.5,-29.09 142.5,-29.09"/>
</g>
</g>
</svg>
