<?xml version="1.0" encoding="UTF-8" standalone="no"?>
<!DOCTYPE svg PUBLIC "-//W3C//DTD SVG 1.1//EN"
 "http://www.w3.org/Graphics/SVG/1.1/DTD/svg11.dtd">
<!-- Generated by graphviz version 2.43.0 (0)
 -->
<!-- Title: src/action/foreach/CopyAction.h Pages: 1 -->
<svg width="210pt" height="104pt"
 viewBox="0.00 0.00 209.50 104.00" xmlns="http://www.w3.org/2000/svg" xmlns:xlink="http://www.w3.org/1999/xlink">
<g id="graph0" class="graph" transform="scale(1 1) rotate(0) translate(4 100)">
<title>src/action/foreach/CopyAction.h</title>
<!-- Node1 -->
<g id="node1" class="node">
<title>Node1</title>
<g id="a_node1"><a xlink:title=" ">
<polygon fill="#999999" stroke="#666666" points="159,-96 55,-96 55,-66 159,-66 159,-96"/>
<text text-anchor="start" x="63" y="-84" font-family="Helvetica,sans-Serif" font-size="10.00">src/action/foreach</text>
<text text-anchor="middle" x="107" y="-73" font-family="Helvetica,sans-Serif" font-size="10.00">/CopyAction.h</text>
</a>
</g>
</g>
<!-- Node2 -->
<g id="node2" class="node">
<title>Node2</title>
<g id="a_node2"><a xlink:href="CopyAction_8cpp.html" target="_top" xlink:title=" ">
<polygon fill="white" stroke="#666666" points="104,-30 0,-30 0,0 104,0 104,-30"/>
<text text-anchor="start" x="8" y="-18" font-family="Helvetica,sans-Serif" font-size="10.00">src/action/foreach</text>
<text text-anchor="middle" x="52" y="-7" font-family="Helvetica,sans-Serif" font-size="10.00">/CopyAction.cpp</text>
</a>
</g>
</g>
<!-- Node1&#45;&gt;Node2 -->
<g id="edge1" class="edge">
<title>Node1&#45;&gt;Node2</title>
<path fill="none" stroke="#63b8ff" d="M88.17,-58.09C80.23,-48.85 71.22,-38.36 64.17,-30.16"/>
<polygon fill="#63b8ff" stroke="#63b8ff" points="85.62,-60.49 94.79,-65.8 90.93,-55.93 85.62,-60.49"/>
</g>
<!-- Node3 -->
<g id="node3" class="node">
<title>Node3</title>
<g id="a_node3"><a xlink:href="main_8cpp.html" target="_top" xlink:title=" ">
<polygon fill="white" stroke="#666666" points="201.5,-24.5 122.5,-24.5 122.5,-5.5 201.5,-5.5 201.5,-24.5"/>
<text text-anchor="middle" x="162" y="-12.5" font-family="Helvetica,sans-Serif" font-size="10.00">src/main.cpp</text>
</a>
</g>
</g>
<!-- Node1&#45;&gt;Node3 -->
<g id="edge2" class="edge">
<title>Node1&#45;&gt;Node3</title>
<path fill="none" stroke="#63b8ff" d="M125.95,-57.94C135.72,-46.58 147.08,-33.36 154.4,-24.84"/>
<polygon fill="#63b8ff" stroke="#63b8ff" points="123.07,-55.93 119.21,-65.8 128.38,-60.49 123.07,-55.93"/>
</g>
</g>
</svg>
