<?xml version="1.0" encoding="UTF-8" standalone="no"?>
<!DOCTYPE svg PUBLIC "-//W3C//DTD SVG 1.1//EN"
 "http://www.w3.org/Graphics/SVG/1.1/DTD/svg11.dtd">
<!-- Generated by graphviz version 2.43.0 (0)
 -->
<!-- Title: src/action/once/CreateSymlinkAction.cpp Pages: 1 -->
<svg width="345pt" height="423pt"
 viewBox="0.00 0.00 345.00 423.00" xmlns="http://www.w3.org/2000/svg" xmlns:xlink="http://www.w3.org/1999/xlink">
<g id="graph0" class="graph" transform="scale(1 1) rotate(0) translate(4 419)">
<title>src/action/once/CreateSymlinkAction.cpp</title>
<!-- Node1 -->
<g id="node1" class="node">
<title>Node1</title>
<g id="a_node1"><a xlink:title=" ">
<polygon fill="#999999" stroke="#666666" points="288.5,-415 123.5,-415 123.5,-385 288.5,-385 288.5,-415"/>
<text text-anchor="start" x="131.5" y="-403" font-family="Helvetica,sans-Serif" font-size="10.00">src/action/once/CreateSymlink</text>
<text text-anchor="middle" x="206" y="-392" font-family="Helvetica,sans-Serif" font-size="10.00">Action.cpp</text>
</a>
</g>
</g>
<!-- Node2 -->
<g id="node2" class="node">
<title>Node2</title>
<g id="a_node2"><a xlink:href="CreateSymlinkAction_8h.html" target="_top" xlink:title=" ">
<polygon fill="white" stroke="#666666" points="199,-349 71,-349 71,-330 199,-330 199,-349"/>
<text text-anchor="middle" x="135" y="-337" font-family="Helvetica,sans-Serif" font-size="10.00">CreateSymlinkAction.h</text>
</a>
</g>
</g>
<!-- Node1&#45;&gt;Node2 -->
<g id="edge1" class="edge">
<title>Node1&#45;&gt;Node2</title>
<path fill="none" stroke="#63b8ff" d="M188.81,-384.84C178.19,-376.09 164.56,-364.85 153.67,-355.88"/>
<polygon fill="#63b8ff" stroke="#63b8ff" points="155.58,-352.92 145.64,-349.27 151.13,-358.33 155.58,-352.92"/>
</g>
<!-- Node14 -->
<g id="node14" class="node">
<title>Node14</title>
<g id="a_node14"><a xlink:href="Modal_8h.html" target="_top" xlink:title=" ">
<polygon fill="white" stroke="#666666" points="337,-349 217,-349 217,-330 337,-330 337,-349"/>
<text text-anchor="middle" x="277" y="-337" font-family="Helvetica,sans-Serif" font-size="10.00">../../interface/Modal.h</text>
</a>
</g>
</g>
<!-- Node1&#45;&gt;Node14 -->
<g id="edge18" class="edge">
<title>Node1&#45;&gt;Node14</title>
<path fill="none" stroke="#63b8ff" d="M223.19,-384.84C233.81,-376.09 247.44,-364.85 258.33,-355.88"/>
<polygon fill="#63b8ff" stroke="#63b8ff" points="260.87,-358.33 266.36,-349.27 256.42,-352.92 260.87,-358.33"/>
</g>
<!-- Node3 -->
<g id="node3" class="node">
<title>Node3</title>
<g id="a_node3"><a xlink:href="OnceAction_8h.html" target="_top" xlink:title=" ">
<polygon fill="white" stroke="#666666" points="180,-294 90,-294 90,-275 180,-275 180,-294"/>
<text text-anchor="middle" x="135" y="-282" font-family="Helvetica,sans-Serif" font-size="10.00">../OnceAction.h</text>
</a>
</g>
</g>
<!-- Node2&#45;&gt;Node3 -->
<g id="edge2" class="edge">
<title>Node2&#45;&gt;Node3</title>
<path fill="none" stroke="#63b8ff" d="M135,-329.75C135,-322.8 135,-312.85 135,-304.13"/>
<polygon fill="#63b8ff" stroke="#63b8ff" points="138.5,-304.09 135,-294.09 131.5,-304.09 138.5,-304.09"/>
</g>
<!-- Node4 -->
<g id="node4" class="node">
<title>Node4</title>
<g id="a_node4"><a xlink:href="Action_8h.html" target="_top" xlink:title=" ">
<polygon fill="white" stroke="#666666" points="163,-239 107,-239 107,-220 163,-220 163,-239"/>
<text text-anchor="middle" x="135" y="-227" font-family="Helvetica,sans-Serif" font-size="10.00">Action.h</text>
</a>
</g>
</g>
<!-- Node3&#45;&gt;Node4 -->
<g id="edge3" class="edge">
<title>Node3&#45;&gt;Node4</title>
<path fill="none" stroke="#63b8ff" d="M135,-274.75C135,-267.8 135,-257.85 135,-249.13"/>
<polygon fill="#63b8ff" stroke="#63b8ff" points="138.5,-249.09 135,-239.09 131.5,-249.09 138.5,-249.09"/>
</g>
<!-- Node5 -->
<g id="node5" class="node">
<title>Node5</title>
<g id="a_node5"><a xlink:title=" ">
<polygon fill="#e0e0e0" stroke="#999999" points="147.5,-129 100.5,-129 100.5,-110 147.5,-110 147.5,-129"/>
<text text-anchor="middle" x="124" y="-117" font-family="Helvetica,sans-Serif" font-size="10.00">vector</text>
</a>
</g>
</g>
<!-- Node4&#45;&gt;Node5 -->
<g id="edge4" class="edge">
<title>Node4&#45;&gt;Node5</title>
<path fill="none" stroke="#63b8ff" d="M134.1,-219.66C132.32,-202.17 128.31,-162.8 125.91,-139.27"/>
<polygon fill="#63b8ff" stroke="#63b8ff" points="129.38,-138.75 124.88,-129.16 122.41,-139.46 129.38,-138.75"/>
</g>
<!-- Node6 -->
<g id="node6" class="node">
<title>Node6</title>
<g id="a_node6"><a xlink:title=" ">
<polygon fill="#e0e0e0" stroke="#999999" points="68,-19 0,-19 0,0 68,0 68,-19"/>
<text text-anchor="middle" x="34" y="-7" font-family="Helvetica,sans-Serif" font-size="10.00">filesystem</text>
</a>
</g>
</g>
<!-- Node4&#45;&gt;Node6 -->
<g id="edge5" class="edge">
<title>Node4&#45;&gt;Node6</title>
<path fill="none" stroke="#63b8ff" d="M106.99,-226.03C80.36,-222.03 41.68,-211.53 23,-184 -9.58,-136 12.96,-62.28 26.22,-28.51"/>
<polygon fill="#63b8ff" stroke="#63b8ff" points="29.55,-29.62 30.12,-19.04 23.08,-26.96 29.55,-29.62"/>
</g>
<!-- Node7 -->
<g id="node7" class="node">
<title>Node7</title>
<g id="a_node7"><a xlink:href="FileView_8h.html" target="_top" xlink:title=" ">
<polygon fill="white" stroke="#666666" points="107.5,-184 32.5,-184 32.5,-165 107.5,-165 107.5,-184"/>
<text text-anchor="middle" x="70" y="-172" font-family="Helvetica,sans-Serif" font-size="10.00">../FileView.h</text>
</a>
</g>
</g>
<!-- Node4&#45;&gt;Node7 -->
<g id="edge6" class="edge">
<title>Node4&#45;&gt;Node7</title>
<path fill="none" stroke="#63b8ff" d="M124.56,-219.98C114.85,-212.07 100.18,-200.11 88.5,-190.58"/>
<polygon fill="#63b8ff" stroke="#63b8ff" points="90.6,-187.78 80.63,-184.17 86.17,-193.2 90.6,-187.78"/>
</g>
<!-- Node10 -->
<g id="node10" class="node">
<title>Node10</title>
<g id="a_node10"><a xlink:href="State_8h.html" target="_top" xlink:title=" ">
<polygon fill="white" stroke="#666666" points="238,-184 178,-184 178,-165 238,-165 238,-184"/>
<text text-anchor="middle" x="208" y="-172" font-family="Helvetica,sans-Serif" font-size="10.00">../State.h</text>
</a>
</g>
</g>
<!-- Node4&#45;&gt;Node10 -->
<g id="edge12" class="edge">
<title>Node4&#45;&gt;Node10</title>
<path fill="none" stroke="#63b8ff" d="M146.73,-219.98C157.73,-212 174.42,-199.88 187.6,-190.31"/>
<polygon fill="#63b8ff" stroke="#63b8ff" points="190.02,-192.88 196.06,-184.17 185.91,-187.21 190.02,-192.88"/>
</g>
<!-- Node7&#45;&gt;Node5 -->
<g id="edge7" class="edge">
<title>Node7&#45;&gt;Node5</title>
<path fill="none" stroke="#63b8ff" d="M78.92,-164.75C86.78,-157.03 98.43,-145.6 107.92,-136.28"/>
<polygon fill="#63b8ff" stroke="#63b8ff" points="110.56,-138.59 115.25,-129.09 105.66,-133.6 110.56,-138.59"/>
</g>
<!-- Node7&#45;&gt;Node6 -->
<g id="edge8" class="edge">
<title>Node7&#45;&gt;Node6</title>
<path fill="none" stroke="#63b8ff" d="M68.06,-164.74C62.42,-139.2 45.91,-64.43 38.14,-29.23"/>
<polygon fill="#63b8ff" stroke="#63b8ff" points="41.52,-28.32 35.95,-19.31 34.68,-29.83 41.52,-28.32"/>
</g>
<!-- Node8 -->
<g id="node8" class="node">
<title>Node8</title>
<g id="a_node8"><a xlink:href="Entry_8h.html" target="_top" xlink:title=" ">
<polygon fill="white" stroke="#666666" points="186,-74 108,-74 108,-55 186,-55 186,-74"/>
<text text-anchor="middle" x="147" y="-62" font-family="Helvetica,sans-Serif" font-size="10.00">entry/Entry.h</text>
</a>
</g>
</g>
<!-- Node7&#45;&gt;Node8 -->
<g id="edge9" class="edge">
<title>Node7&#45;&gt;Node8</title>
<path fill="none" stroke="#63b8ff" d="M71.22,-164.99C73.39,-152.11 78.9,-127.33 91,-110 99.47,-97.87 112.18,-87.39 123.36,-79.65"/>
<polygon fill="#63b8ff" stroke="#63b8ff" points="125.44,-82.47 131.88,-74.06 121.6,-76.62 125.44,-82.47"/>
</g>
<!-- Node8&#45;&gt;Node6 -->
<g id="edge10" class="edge">
<title>Node8&#45;&gt;Node6</title>
<path fill="none" stroke="#63b8ff" d="M128.84,-54.98C110.75,-46.5 82.72,-33.35 61.81,-23.54"/>
<polygon fill="#63b8ff" stroke="#63b8ff" points="63.03,-20.25 52.49,-19.17 60.05,-26.59 63.03,-20.25"/>
</g>
<!-- Node9 -->
<g id="node9" class="node">
<title>Node9</title>
<g id="a_node9"><a xlink:href="Modifier_8h.html" target="_top" xlink:title=" ">
<polygon fill="white" stroke="#666666" points="179.5,-19 114.5,-19 114.5,0 179.5,0 179.5,-19"/>
<text text-anchor="middle" x="147" y="-7" font-family="Helvetica,sans-Serif" font-size="10.00">Modifier.h</text>
</a>
</g>
</g>
<!-- Node8&#45;&gt;Node9 -->
<g id="edge11" class="edge">
<title>Node8&#45;&gt;Node9</title>
<path fill="none" stroke="#63b8ff" d="M147,-54.75C147,-47.8 147,-37.85 147,-29.13"/>
<polygon fill="#63b8ff" stroke="#63b8ff" points="150.5,-29.09 147,-19.09 143.5,-29.09 150.5,-29.09"/>
</g>
<!-- Node10&#45;&gt;Node8 -->
<g id="edge14" class="edge">
<title>Node10&#45;&gt;Node8</title>
<path fill="none" stroke="#63b8ff" d="M203.01,-164.66C192.95,-146.85 170.08,-106.37 156.89,-83.01"/>
<polygon fill="#63b8ff" stroke="#63b8ff" points="159.86,-81.14 151.89,-74.16 153.76,-84.59 159.86,-81.14"/>
</g>
<!-- Node11 -->
<g id="node11" class="node">
<title>Node11</title>
<g id="a_node11"><a xlink:title=" ">
<polygon fill="#e0e0e0" stroke="#999999" points="236,-129 204,-129 204,-110 236,-110 236,-129"/>
<text text-anchor="middle" x="220" y="-117" font-family="Helvetica,sans-Serif" font-size="10.00">set</text>
</a>
</g>
</g>
<!-- Node10&#45;&gt;Node11 -->
<g id="edge13" class="edge">
<title>Node10&#45;&gt;Node11</title>
<path fill="none" stroke="#63b8ff" d="M209.98,-164.75C211.57,-157.72 213.86,-147.62 215.85,-138.84"/>
<polygon fill="#63b8ff" stroke="#63b8ff" points="219.26,-139.62 218.06,-129.09 212.43,-138.07 219.26,-139.62"/>
</g>
<!-- Node12 -->
<g id="node12" class="node">
<title>Node12</title>
<g id="a_node12"><a xlink:href="Utility_8h.html" target="_top" xlink:title=" ">
<polygon fill="white" stroke="#666666" points="308,-129 254,-129 254,-110 308,-110 308,-129"/>
<text text-anchor="middle" x="281" y="-117" font-family="Helvetica,sans-Serif" font-size="10.00">Utility.h</text>
</a>
</g>
</g>
<!-- Node10&#45;&gt;Node12 -->
<g id="edge15" class="edge">
<title>Node10&#45;&gt;Node12</title>
<path fill="none" stroke="#63b8ff" d="M219.73,-164.98C230.73,-157 247.42,-144.88 260.6,-135.31"/>
<polygon fill="#63b8ff" stroke="#63b8ff" points="263.02,-137.88 269.06,-129.17 258.91,-132.21 263.02,-137.88"/>
</g>
<!-- Node12&#45;&gt;Node8 -->
<g id="edge17" class="edge">
<title>Node12&#45;&gt;Node8</title>
<path fill="none" stroke="#63b8ff" d="M259.47,-109.98C237.53,-101.3 203.26,-87.75 178.31,-77.88"/>
<polygon fill="#63b8ff" stroke="#63b8ff" points="179.51,-74.59 168.92,-74.17 176.93,-81.1 179.51,-74.59"/>
</g>
<!-- Node13 -->
<g id="node13" class="node">
<title>Node13</title>
<g id="a_node13"><a xlink:title=" ">
<polygon fill="#e0e0e0" stroke="#999999" points="330,-74 286,-74 286,-55 330,-55 330,-74"/>
<text text-anchor="middle" x="308" y="-62" font-family="Helvetica,sans-Serif" font-size="10.00">string</text>
</a>
</g>
</g>
<!-- Node12&#45;&gt;Node13 -->
<g id="edge16" class="edge">
<title>Node12&#45;&gt;Node13</title>
<path fill="none" stroke="#63b8ff" d="M285.46,-109.75C289.12,-102.57 294.41,-92.18 298.95,-83.27"/>
<polygon fill="#63b8ff" stroke="#63b8ff" points="302.2,-84.59 303.62,-74.09 295.97,-81.41 302.2,-84.59"/>
</g>
<!-- Node14&#45;&gt;Node13 -->
<g id="edge19" class="edge">
<title>Node14&#45;&gt;Node13</title>
<path fill="none" stroke="#63b8ff" d="M286.61,-329.83C295.38,-321.44 308.14,-307.97 316,-294 330.51,-268.21 336,-260.09 336,-230.5 336,-230.5 336,-230.5 336,-173.5 336,-141.02 323.99,-104.76 315.7,-83.6"/>
<polygon fill="#63b8ff" stroke="#63b8ff" points="318.91,-82.2 311.89,-74.26 312.43,-84.84 318.91,-82.2"/>
</g>
<!-- Node15 -->
<g id="node15" class="node">
<title>Node15</title>
<g id="a_node15"><a xlink:title=" ">
<polygon fill="#e0e0e0" stroke="#999999" points="307.5,-294 244.5,-294 244.5,-275 307.5,-275 307.5,-294"/>
<text text-anchor="middle" x="276" y="-282" font-family="Helvetica,sans-Serif" font-size="10.00">ncurses.h</text>
</a>
</g>
</g>
<!-- Node14&#45;&gt;Node15 -->
<g id="edge20" class="edge">
<title>Node14&#45;&gt;Node15</title>
<path fill="none" stroke="#63b8ff" d="M276.83,-329.75C276.7,-322.8 276.52,-312.85 276.35,-304.13"/>
<polygon fill="#63b8ff" stroke="#63b8ff" points="279.85,-304.02 276.16,-294.09 272.85,-304.15 279.85,-304.02"/>
</g>
</g>
</svg>
