<?xml version="1.0" encoding="UTF-8" standalone="no"?>
<!DOCTYPE svg PUBLIC "-//W3C//DTD SVG 1.1//EN"
 "http://www.w3.org/Graphics/SVG/1.1/DTD/svg11.dtd">
<!-- Generated by graphviz version 2.43.0 (0)
 -->
<!-- Title: src/action/once/CreateFileAction.h Pages: 1 -->
<svg width="314pt" height="368pt"
 viewBox="0.00 0.00 313.50 368.00" xmlns="http://www.w3.org/2000/svg" xmlns:xlink="http://www.w3.org/1999/xlink">
<g id="graph0" class="graph" transform="scale(1 1) rotate(0) translate(4 364)">
<title>src/action/once/CreateFileAction.h</title>
<!-- Node1 -->
<g id="node1" class="node">
<title>Node1</title>
<g id="a_node1"><a xlink:title=" ">
<polygon fill="#999999" stroke="#666666" points="143,-360 0,-360 0,-330 143,-330 143,-360"/>
<text text-anchor="start" x="8" y="-348" font-family="Helvetica,sans-Serif" font-size="10.00">src/action/once/CreateFile</text>
<text text-anchor="middle" x="71.5" y="-337" font-family="Helvetica,sans-Serif" font-size="10.00">Action.h</text>
</a>
</g>
</g>
<!-- Node2 -->
<g id="node2" class="node">
<title>Node2</title>
<g id="a_node2"><a xlink:href="OnceAction_8h.html" target="_top" xlink:title=" ">
<polygon fill="white" stroke="#666666" points="116.5,-294 26.5,-294 26.5,-275 116.5,-275 116.5,-294"/>
<text text-anchor="middle" x="71.5" y="-282" font-family="Helvetica,sans-Serif" font-size="10.00">../OnceAction.h</text>
</a>
</g>
</g>
<!-- Node1&#45;&gt;Node2 -->
<g id="edge1" class="edge">
<title>Node1&#45;&gt;Node2</title>
<path fill="none" stroke="#63b8ff" d="M71.5,-329.84C71.5,-322.21 71.5,-312.7 71.5,-304.45"/>
<polygon fill="#63b8ff" stroke="#63b8ff" points="75,-304.27 71.5,-294.27 68,-304.27 75,-304.27"/>
</g>
<!-- Node3 -->
<g id="node3" class="node">
<title>Node3</title>
<g id="a_node3"><a xlink:href="Action_8h.html" target="_top" xlink:title=" ">
<polygon fill="white" stroke="#666666" points="99.5,-239 43.5,-239 43.5,-220 99.5,-220 99.5,-239"/>
<text text-anchor="middle" x="71.5" y="-227" font-family="Helvetica,sans-Serif" font-size="10.00">Action.h</text>
</a>
</g>
</g>
<!-- Node2&#45;&gt;Node3 -->
<g id="edge2" class="edge">
<title>Node2&#45;&gt;Node3</title>
<path fill="none" stroke="#63b8ff" d="M71.5,-274.75C71.5,-267.8 71.5,-257.85 71.5,-249.13"/>
<polygon fill="#63b8ff" stroke="#63b8ff" points="75,-249.09 71.5,-239.09 68,-249.09 75,-249.09"/>
</g>
<!-- Node4 -->
<g id="node4" class="node">
<title>Node4</title>
<g id="a_node4"><a xlink:title=" ">
<polygon fill="#e0e0e0" stroke="#999999" points="69,-129 22,-129 22,-110 69,-110 69,-129"/>
<text text-anchor="middle" x="45.5" y="-117" font-family="Helvetica,sans-Serif" font-size="10.00">vector</text>
</a>
</g>
</g>
<!-- Node3&#45;&gt;Node4 -->
<g id="edge3" class="edge">
<title>Node3&#45;&gt;Node4</title>
<path fill="none" stroke="#63b8ff" d="M68.4,-219.72C65.33,-210.81 60.65,-196.57 57.5,-184 53.78,-169.17 50.62,-152.13 48.48,-139.44"/>
<polygon fill="#63b8ff" stroke="#63b8ff" points="51.87,-138.51 46.81,-129.2 44.96,-139.63 51.87,-138.51"/>
</g>
<!-- Node5 -->
<g id="node5" class="node">
<title>Node5</title>
<g id="a_node5"><a xlink:title=" ">
<polygon fill="#e0e0e0" stroke="#999999" points="131.5,-19 63.5,-19 63.5,0 131.5,0 131.5,-19"/>
<text text-anchor="middle" x="97.5" y="-7" font-family="Helvetica,sans-Serif" font-size="10.00">filesystem</text>
</a>
</g>
</g>
<!-- Node3&#45;&gt;Node5 -->
<g id="edge4" class="edge">
<title>Node3&#45;&gt;Node5</title>
<path fill="none" stroke="#63b8ff" d="M61.67,-219.87C41.1,-200.71 -3.33,-152.91 12.5,-110 25.56,-74.59 57.46,-43.24 78.25,-25.59"/>
<polygon fill="#63b8ff" stroke="#63b8ff" points="80.64,-28.16 86.14,-19.1 76.19,-22.76 80.64,-28.16"/>
</g>
<!-- Node6 -->
<g id="node6" class="node">
<title>Node6</title>
<g id="a_node6"><a xlink:href="FileView_8h.html" target="_top" xlink:title=" ">
<polygon fill="white" stroke="#666666" points="142,-184 67,-184 67,-165 142,-165 142,-184"/>
<text text-anchor="middle" x="104.5" y="-172" font-family="Helvetica,sans-Serif" font-size="10.00">../FileView.h</text>
</a>
</g>
</g>
<!-- Node3&#45;&gt;Node6 -->
<g id="edge5" class="edge">
<title>Node3&#45;&gt;Node6</title>
<path fill="none" stroke="#63b8ff" d="M76.95,-219.75C81.51,-212.42 88.17,-201.73 93.79,-192.7"/>
<polygon fill="#63b8ff" stroke="#63b8ff" points="96.84,-194.43 99.15,-184.09 90.9,-190.73 96.84,-194.43"/>
</g>
<!-- Node9 -->
<g id="node9" class="node">
<title>Node9</title>
<g id="a_node9"><a xlink:href="State_8h.html" target="_top" xlink:title=" ">
<polygon fill="white" stroke="#666666" points="239.5,-184 179.5,-184 179.5,-165 239.5,-165 239.5,-184"/>
<text text-anchor="middle" x="209.5" y="-172" font-family="Helvetica,sans-Serif" font-size="10.00">../State.h</text>
</a>
</g>
</g>
<!-- Node3&#45;&gt;Node9 -->
<g id="edge11" class="edge">
<title>Node3&#45;&gt;Node9</title>
<path fill="none" stroke="#63b8ff" d="M93.67,-219.98C116.27,-211.3 151.56,-197.75 177.25,-187.88"/>
<polygon fill="#63b8ff" stroke="#63b8ff" points="178.84,-191.02 186.92,-184.17 176.33,-184.49 178.84,-191.02"/>
</g>
<!-- Node6&#45;&gt;Node4 -->
<g id="edge6" class="edge">
<title>Node6&#45;&gt;Node4</title>
<path fill="none" stroke="#63b8ff" d="M95.02,-164.98C86.3,-157.15 73.16,-145.34 62.6,-135.86"/>
<polygon fill="#63b8ff" stroke="#63b8ff" points="64.93,-133.25 55.15,-129.17 60.25,-138.46 64.93,-133.25"/>
</g>
<!-- Node6&#45;&gt;Node5 -->
<g id="edge7" class="edge">
<title>Node6&#45;&gt;Node5</title>
<path fill="none" stroke="#63b8ff" d="M104.12,-164.74C103.03,-139.31 99.84,-65.08 98.32,-29.69"/>
<polygon fill="#63b8ff" stroke="#63b8ff" points="101.8,-29.15 97.88,-19.31 94.81,-29.45 101.8,-29.15"/>
</g>
<!-- Node7 -->
<g id="node7" class="node">
<title>Node7</title>
<g id="a_node7"><a xlink:href="Entry_8h.html" target="_top" xlink:title=" ">
<polygon fill="white" stroke="#666666" points="229.5,-74 151.5,-74 151.5,-55 229.5,-55 229.5,-74"/>
<text text-anchor="middle" x="190.5" y="-62" font-family="Helvetica,sans-Serif" font-size="10.00">entry/Entry.h</text>
</a>
</g>
</g>
<!-- Node6&#45;&gt;Node7 -->
<g id="edge8" class="edge">
<title>Node6&#45;&gt;Node7</title>
<path fill="none" stroke="#63b8ff" d="M111.26,-164.84C120.83,-152.6 138.92,-129.52 154.5,-110 161.95,-100.66 170.35,-90.28 177.15,-81.89"/>
<polygon fill="#63b8ff" stroke="#63b8ff" points="179.97,-83.97 183.57,-74 174.54,-79.56 179.97,-83.97"/>
</g>
<!-- Node7&#45;&gt;Node5 -->
<g id="edge9" class="edge">
<title>Node7&#45;&gt;Node5</title>
<path fill="none" stroke="#63b8ff" d="M175.56,-54.98C161,-46.69 138.63,-33.94 121.57,-24.22"/>
<polygon fill="#63b8ff" stroke="#63b8ff" points="123.14,-21.08 112.71,-19.17 119.67,-27.16 123.14,-21.08"/>
</g>
<!-- Node8 -->
<g id="node8" class="node">
<title>Node8</title>
<g id="a_node8"><a xlink:href="Modifier_8h.html" target="_top" xlink:title=" ">
<polygon fill="white" stroke="#666666" points="223,-19 158,-19 158,0 223,0 223,-19"/>
<text text-anchor="middle" x="190.5" y="-7" font-family="Helvetica,sans-Serif" font-size="10.00">Modifier.h</text>
</a>
</g>
</g>
<!-- Node7&#45;&gt;Node8 -->
<g id="edge10" class="edge">
<title>Node7&#45;&gt;Node8</title>
<path fill="none" stroke="#63b8ff" d="M190.5,-54.75C190.5,-47.8 190.5,-37.85 190.5,-29.13"/>
<polygon fill="#63b8ff" stroke="#63b8ff" points="194,-29.09 190.5,-19.09 187,-29.09 194,-29.09"/>
</g>
<!-- Node9&#45;&gt;Node7 -->
<g id="edge13" class="edge">
<title>Node9&#45;&gt;Node7</title>
<path fill="none" stroke="#63b8ff" d="M209.43,-164.79C209.2,-152.47 208.25,-129.32 204.5,-110 202.8,-101.25 199.98,-91.81 197.31,-83.88"/>
<polygon fill="#63b8ff" stroke="#63b8ff" points="200.53,-82.47 193.89,-74.21 193.93,-84.81 200.53,-82.47"/>
</g>
<!-- Node10 -->
<g id="node10" class="node">
<title>Node10</title>
<g id="a_node10"><a xlink:title=" ">
<polygon fill="#e0e0e0" stroke="#999999" points="195.5,-129 163.5,-129 163.5,-110 195.5,-110 195.5,-129"/>
<text text-anchor="middle" x="179.5" y="-117" font-family="Helvetica,sans-Serif" font-size="10.00">set</text>
</a>
</g>
</g>
<!-- Node9&#45;&gt;Node10 -->
<g id="edge12" class="edge">
<title>Node9&#45;&gt;Node10</title>
<path fill="none" stroke="#63b8ff" d="M204.55,-164.75C200.44,-157.49 194.47,-146.95 189.4,-137.98"/>
<polygon fill="#63b8ff" stroke="#63b8ff" points="192.33,-136.07 184.36,-129.09 186.24,-139.52 192.33,-136.07"/>
</g>
<!-- Node11 -->
<g id="node11" class="node">
<title>Node11</title>
<g id="a_node11"><a xlink:href="Utility_8h.html" target="_top" xlink:title=" ">
<polygon fill="white" stroke="#666666" points="305.5,-129 251.5,-129 251.5,-110 305.5,-110 305.5,-129"/>
<text text-anchor="middle" x="278.5" y="-117" font-family="Helvetica,sans-Serif" font-size="10.00">Utility.h</text>
</a>
</g>
</g>
<!-- Node9&#45;&gt;Node11 -->
<g id="edge14" class="edge">
<title>Node9&#45;&gt;Node11</title>
<path fill="none" stroke="#63b8ff" d="M220.59,-164.98C230.99,-157 246.76,-144.88 259.22,-135.31"/>
<polygon fill="#63b8ff" stroke="#63b8ff" points="261.41,-138.04 267.21,-129.17 257.15,-132.49 261.41,-138.04"/>
</g>
<!-- Node11&#45;&gt;Node7 -->
<g id="edge16" class="edge">
<title>Node11&#45;&gt;Node7</title>
<path fill="none" stroke="#63b8ff" d="M264.36,-109.98C250.71,-101.77 229.81,-89.18 213.72,-79.49"/>
<polygon fill="#63b8ff" stroke="#63b8ff" points="215.27,-76.33 204.9,-74.17 211.66,-82.33 215.27,-76.33"/>
</g>
<!-- Node12 -->
<g id="node12" class="node">
<title>Node12</title>
<g id="a_node12"><a xlink:title=" ">
<polygon fill="#e0e0e0" stroke="#999999" points="300.5,-74 256.5,-74 256.5,-55 300.5,-55 300.5,-74"/>
<text text-anchor="middle" x="278.5" y="-62" font-family="Helvetica,sans-Serif" font-size="10.00">string</text>
</a>
</g>
</g>
<!-- Node11&#45;&gt;Node12 -->
<g id="edge15" class="edge">
<title>Node11&#45;&gt;Node12</title>
<path fill="none" stroke="#63b8ff" d="M278.5,-109.75C278.5,-102.8 278.5,-92.85 278.5,-84.13"/>
<polygon fill="#63b8ff" stroke="#63b8ff" points="282,-84.09 278.5,-74.09 275,-84.09 282,-84.09"/>
</g>
</g>
</svg>
