<?xml version="1.0" encoding="UTF-8" standalone="no"?>
<!DOCTYPE svg PUBLIC "-//W3C//DTD SVG 1.1//EN"
 "http://www.w3.org/Graphics/SVG/1.1/DTD/svg11.dtd">
<!-- Generated by graphviz version 2.43.0 (0)
 -->
<!-- Title: src/action/once/CreateFolderAction.h Pages: 1 -->
<svg width="320pt" height="368pt"
 viewBox="0.00 0.00 319.50 368.00" xmlns="http://www.w3.org/2000/svg" xmlns:xlink="http://www.w3.org/1999/xlink">
<g id="graph0" class="graph" transform="scale(1 1) rotate(0) translate(4 364)">
<title>src/action/once/CreateFolderAction.h</title>
<!-- Node1 -->
<g id="node1" class="node">
<title>Node1</title>
<g id="a_node1"><a xlink:title=" ">
<polygon fill="#999999" stroke="#666666" points="155,-360 0,-360 0,-330 155,-330 155,-360"/>
<text text-anchor="start" x="8" y="-348" font-family="Helvetica,sans-Serif" font-size="10.00">src/action/once/CreateFolder</text>
<text text-anchor="middle" x="77.5" y="-337" font-family="Helvetica,sans-Serif" font-size="10.00">Action.h</text>
</a>
</g>
</g>
<!-- Node2 -->
<g id="node2" class="node">
<title>Node2</title>
<g id="a_node2"><a xlink:href="OnceAction_8h.html" target="_top" xlink:title=" ">
<polygon fill="white" stroke="#666666" points="122.5,-294 32.5,-294 32.5,-275 122.5,-275 122.5,-294"/>
<text text-anchor="middle" x="77.5" y="-282" font-family="Helvetica,sans-Serif" font-size="10.00">../OnceAction.h</text>
</a>
</g>
</g>
<!-- Node1&#45;&gt;Node2 -->
<g id="edge1" class="edge">
<title>Node1&#45;&gt;Node2</title>
<path fill="none" stroke="#63b8ff" d="M77.5,-329.84C77.5,-322.21 77.5,-312.7 77.5,-304.45"/>
<polygon fill="#63b8ff" stroke="#63b8ff" points="81,-304.27 77.5,-294.27 74,-304.27 81,-304.27"/>
</g>
<!-- Node3 -->
<g id="node3" class="node">
<title>Node3</title>
<g id="a_node3"><a xlink:href="Action_8h.html" target="_top" xlink:title=" ">
<polygon fill="white" stroke="#666666" points="105.5,-239 49.5,-239 49.5,-220 105.5,-220 105.5,-239"/>
<text text-anchor="middle" x="77.5" y="-227" font-family="Helvetica,sans-Serif" font-size="10.00">Action.h</text>
</a>
</g>
</g>
<!-- Node2&#45;&gt;Node3 -->
<g id="edge2" class="edge">
<title>Node2&#45;&gt;Node3</title>
<path fill="none" stroke="#63b8ff" d="M77.5,-274.75C77.5,-267.8 77.5,-257.85 77.5,-249.13"/>
<polygon fill="#63b8ff" stroke="#63b8ff" points="81,-249.09 77.5,-239.09 74,-249.09 81,-249.09"/>
</g>
<!-- Node4 -->
<g id="node4" class="node">
<title>Node4</title>
<g id="a_node4"><a xlink:title=" ">
<polygon fill="#e0e0e0" stroke="#999999" points="75,-129 28,-129 28,-110 75,-110 75,-129"/>
<text text-anchor="middle" x="51.5" y="-117" font-family="Helvetica,sans-Serif" font-size="10.00">vector</text>
</a>
</g>
</g>
<!-- Node3&#45;&gt;Node4 -->
<g id="edge3" class="edge">
<title>Node3&#45;&gt;Node4</title>
<path fill="none" stroke="#63b8ff" d="M74.4,-219.72C71.33,-210.81 66.65,-196.57 63.5,-184 59.78,-169.17 56.62,-152.13 54.48,-139.44"/>
<polygon fill="#63b8ff" stroke="#63b8ff" points="57.87,-138.51 52.81,-129.2 50.96,-139.63 57.87,-138.51"/>
</g>
<!-- Node5 -->
<g id="node5" class="node">
<title>Node5</title>
<g id="a_node5"><a xlink:title=" ">
<polygon fill="#e0e0e0" stroke="#999999" points="137.5,-19 69.5,-19 69.5,0 137.5,0 137.5,-19"/>
<text text-anchor="middle" x="103.5" y="-7" font-family="Helvetica,sans-Serif" font-size="10.00">filesystem</text>
</a>
</g>
</g>
<!-- Node3&#45;&gt;Node5 -->
<g id="edge4" class="edge">
<title>Node3&#45;&gt;Node5</title>
<path fill="none" stroke="#63b8ff" d="M67.67,-219.87C47.1,-200.71 2.67,-152.91 18.5,-110 31.56,-74.59 63.46,-43.24 84.25,-25.59"/>
<polygon fill="#63b8ff" stroke="#63b8ff" points="86.64,-28.16 92.14,-19.1 82.19,-22.76 86.64,-28.16"/>
</g>
<!-- Node6 -->
<g id="node6" class="node">
<title>Node6</title>
<g id="a_node6"><a xlink:href="FileView_8h.html" target="_top" xlink:title=" ">
<polygon fill="white" stroke="#666666" points="148,-184 73,-184 73,-165 148,-165 148,-184"/>
<text text-anchor="middle" x="110.5" y="-172" font-family="Helvetica,sans-Serif" font-size="10.00">../FileView.h</text>
</a>
</g>
</g>
<!-- Node3&#45;&gt;Node6 -->
<g id="edge5" class="edge">
<title>Node3&#45;&gt;Node6</title>
<path fill="none" stroke="#63b8ff" d="M82.95,-219.75C87.51,-212.42 94.17,-201.73 99.79,-192.7"/>
<polygon fill="#63b8ff" stroke="#63b8ff" points="102.84,-194.43 105.15,-184.09 96.9,-190.73 102.84,-194.43"/>
</g>
<!-- Node9 -->
<g id="node9" class="node">
<title>Node9</title>
<g id="a_node9"><a xlink:href="State_8h.html" target="_top" xlink:title=" ">
<polygon fill="white" stroke="#666666" points="245.5,-184 185.5,-184 185.5,-165 245.5,-165 245.5,-184"/>
<text text-anchor="middle" x="215.5" y="-172" font-family="Helvetica,sans-Serif" font-size="10.00">../State.h</text>
</a>
</g>
</g>
<!-- Node3&#45;&gt;Node9 -->
<g id="edge11" class="edge">
<title>Node3&#45;&gt;Node9</title>
<path fill="none" stroke="#63b8ff" d="M99.67,-219.98C122.27,-211.3 157.56,-197.75 183.25,-187.88"/>
<polygon fill="#63b8ff" stroke="#63b8ff" points="184.84,-191.02 192.92,-184.17 182.33,-184.49 184.84,-191.02"/>
</g>
<!-- Node6&#45;&gt;Node4 -->
<g id="edge6" class="edge">
<title>Node6&#45;&gt;Node4</title>
<path fill="none" stroke="#63b8ff" d="M101.02,-164.98C92.3,-157.15 79.16,-145.34 68.6,-135.86"/>
<polygon fill="#63b8ff" stroke="#63b8ff" points="70.93,-133.25 61.15,-129.17 66.25,-138.46 70.93,-133.25"/>
</g>
<!-- Node6&#45;&gt;Node5 -->
<g id="edge7" class="edge">
<title>Node6&#45;&gt;Node5</title>
<path fill="none" stroke="#63b8ff" d="M110.12,-164.74C109.03,-139.31 105.84,-65.08 104.32,-29.69"/>
<polygon fill="#63b8ff" stroke="#63b8ff" points="107.8,-29.15 103.88,-19.31 100.81,-29.45 107.8,-29.15"/>
</g>
<!-- Node7 -->
<g id="node7" class="node">
<title>Node7</title>
<g id="a_node7"><a xlink:href="Entry_8h.html" target="_top" xlink:title=" ">
<polygon fill="white" stroke="#666666" points="235.5,-74 157.5,-74 157.5,-55 235.5,-55 235.5,-74"/>
<text text-anchor="middle" x="196.5" y="-62" font-family="Helvetica,sans-Serif" font-size="10.00">entry/Entry.h</text>
</a>
</g>
</g>
<!-- Node6&#45;&gt;Node7 -->
<g id="edge8" class="edge">
<title>Node6&#45;&gt;Node7</title>
<path fill="none" stroke="#63b8ff" d="M117.26,-164.84C126.83,-152.6 144.92,-129.52 160.5,-110 167.95,-100.66 176.35,-90.28 183.15,-81.89"/>
<polygon fill="#63b8ff" stroke="#63b8ff" points="185.97,-83.97 189.57,-74 180.54,-79.56 185.97,-83.97"/>
</g>
<!-- Node7&#45;&gt;Node5 -->
<g id="edge9" class="edge">
<title>Node7&#45;&gt;Node5</title>
<path fill="none" stroke="#63b8ff" d="M181.56,-54.98C167,-46.69 144.63,-33.94 127.57,-24.22"/>
<polygon fill="#63b8ff" stroke="#63b8ff" points="129.14,-21.08 118.71,-19.17 125.67,-27.16 129.14,-21.08"/>
</g>
<!-- Node8 -->
<g id="node8" class="node">
<title>Node8</title>
<g id="a_node8"><a xlink:href="Modifier_8h.html" target="_top" xlink:title=" ">
<polygon fill="white" stroke="#666666" points="229,-19 164,-19 164,0 229,0 229,-19"/>
<text text-anchor="middle" x="196.5" y="-7" font-family="Helvetica,sans-Serif" font-size="10.00">Modifier.h</text>
</a>
</g>
</g>
<!-- Node7&#45;&gt;Node8 -->
<g id="edge10" class="edge">
<title>Node7&#45;&gt;Node8</title>
<path fill="none" stroke="#63b8ff" d="M196.5,-54.75C196.5,-47.8 196.5,-37.85 196.5,-29.13"/>
<polygon fill="#63b8ff" stroke="#63b8ff" points="200,-29.09 196.5,-19.09 193,-29.09 200,-29.09"/>
</g>
<!-- Node9&#45;&gt;Node7 -->
<g id="edge13" class="edge">
<title>Node9&#45;&gt;Node7</title>
<path fill="none" stroke="#63b8ff" d="M215.43,-164.79C215.2,-152.47 214.25,-129.32 210.5,-110 208.8,-101.25 205.98,-91.81 203.31,-83.88"/>
<polygon fill="#63b8ff" stroke="#63b8ff" points="206.53,-82.47 199.89,-74.21 199.93,-84.81 206.53,-82.47"/>
</g>
<!-- Node10 -->
<g id="node10" class="node">
<title>Node10</title>
<g id="a_node10"><a xlink:title=" ">
<polygon fill="#e0e0e0" stroke="#999999" points="201.5,-129 169.5,-129 169.5,-110 201.5,-110 201.5,-129"/>
<text text-anchor="middle" x="185.5" y="-117" font-family="Helvetica,sans-Serif" font-size="10.00">set</text>
</a>
</g>
</g>
<!-- Node9&#45;&gt;Node10 -->
<g id="edge12" class="edge">
<title>Node9&#45;&gt;Node10</title>
<path fill="none" stroke="#63b8ff" d="M210.55,-164.75C206.44,-157.49 200.47,-146.95 195.4,-137.98"/>
<polygon fill="#63b8ff" stroke="#63b8ff" points="198.33,-136.07 190.36,-129.09 192.24,-139.52 198.33,-136.07"/>
</g>
<!-- Node11 -->
<g id="node11" class="node">
<title>Node11</title>
<g id="a_node11"><a xlink:href="Utility_8h.html" target="_top" xlink:title=" ">
<polygon fill="white" stroke="#666666" points="311.5,-129 257.5,-129 257.5,-110 311.5,-110 311.5,-129"/>
<text text-anchor="middle" x="284.5" y="-117" font-family="Helvetica,sans-Serif" font-size="10.00">Utility.h</text>
</a>
</g>
</g>
<!-- Node9&#45;&gt;Node11 -->
<g id="edge14" class="edge">
<title>Node9&#45;&gt;Node11</title>
<path fill="none" stroke="#63b8ff" d="M226.59,-164.98C236.99,-157 252.76,-144.88 265.22,-135.31"/>
<polygon fill="#63b8ff" stroke="#63b8ff" points="267.41,-138.04 273.21,-129.17 263.15,-132.49 267.41,-138.04"/>
</g>
<!-- Node11&#45;&gt;Node7 -->
<g id="edge16" class="edge">
<title>Node11&#45;&gt;Node7</title>
<path fill="none" stroke="#63b8ff" d="M270.36,-109.98C256.71,-101.77 235.81,-89.18 219.72,-79.49"/>
<polygon fill="#63b8ff" stroke="#63b8ff" points="221.27,-76.33 210.9,-74.17 217.66,-82.33 221.27,-76.33"/>
</g>
<!-- Node12 -->
<g id="node12" class="node">
<title>Node12</title>
<g id="a_node12"><a xlink:title=" ">
<polygon fill="#e0e0e0" stroke="#999999" points="306.5,-74 262.5,-74 262.5,-55 306.5,-55 306.5,-74"/>
<text text-anchor="middle" x="284.5" y="-62" font-family="Helvetica,sans-Serif" font-size="10.00">string</text>
</a>
</g>
</g>
<!-- Node11&#45;&gt;Node12 -->
<g id="edge15" class="edge">
<title>Node11&#45;&gt;Node12</title>
<path fill="none" stroke="#63b8ff" d="M284.5,-109.75C284.5,-102.8 284.5,-92.85 284.5,-84.13"/>
<polygon fill="#63b8ff" stroke="#63b8ff" points="288,-84.09 284.5,-74.09 281,-84.09 288,-84.09"/>
</g>
</g>
</svg>
