<?xml version="1.0" encoding="UTF-8" standalone="no"?>
<!DOCTYPE svg PUBLIC "-//W3C//DTD SVG 1.1//EN"
 "http://www.w3.org/Graphics/SVG/1.1/DTD/svg11.dtd">
<!-- Generated by graphviz version 2.43.0 (0)
 -->
<!-- Title: src/action/once/CreateFileAction.cpp Pages: 1 -->
<svg width="401pt" height="423pt"
 viewBox="0.00 0.00 401.00 423.00" xmlns="http://www.w3.org/2000/svg" xmlns:xlink="http://www.w3.org/1999/xlink">
<g id="graph0" class="graph" transform="scale(1 1) rotate(0) translate(4 419)">
<title>src/action/once/CreateFileAction.cpp</title>
<!-- Node1 -->
<g id="node1" class="node">
<title>Node1</title>
<g id="a_node1"><a xlink:title=" ">
<polygon fill="#999999" stroke="#666666" points="298.5,-415 155.5,-415 155.5,-385 298.5,-385 298.5,-415"/>
<text text-anchor="start" x="163.5" y="-403" font-family="Helvetica,sans-Serif" font-size="10.00">src/action/once/CreateFile</text>
<text text-anchor="middle" x="227" y="-392" font-family="Helvetica,sans-Serif" font-size="10.00">Action.cpp</text>
</a>
</g>
</g>
<!-- Node2 -->
<g id="node2" class="node">
<title>Node2</title>
<g id="a_node2"><a xlink:href="CreateFileAction_8h.html" target="_top" xlink:title=" ">
<polygon fill="white" stroke="#666666" points="181,-349 75,-349 75,-330 181,-330 181,-349"/>
<text text-anchor="middle" x="128" y="-337" font-family="Helvetica,sans-Serif" font-size="10.00">CreateFileAction.h</text>
</a>
</g>
</g>
<!-- Node1&#45;&gt;Node2 -->
<g id="edge1" class="edge">
<title>Node1&#45;&gt;Node2</title>
<path fill="none" stroke="#63b8ff" d="M203.29,-384.99C187.65,-375.75 167.26,-363.7 151.64,-354.47"/>
<polygon fill="#63b8ff" stroke="#63b8ff" points="153.01,-351.21 142.62,-349.14 149.45,-357.24 153.01,-351.21"/>
</g>
<!-- Node14 -->
<g id="node14" class="node">
<title>Node14</title>
<g id="a_node14"><a xlink:title=" ">
<polygon fill="#e0e0e0" stroke="#999999" points="254.5,-349 199.5,-349 199.5,-330 254.5,-330 254.5,-349"/>
<text text-anchor="middle" x="227" y="-337" font-family="Helvetica,sans-Serif" font-size="10.00">fstream</text>
</a>
</g>
</g>
<!-- Node1&#45;&gt;Node14 -->
<g id="edge18" class="edge">
<title>Node1&#45;&gt;Node14</title>
<path fill="none" stroke="#63b8ff" d="M227,-384.84C227,-377.21 227,-367.7 227,-359.45"/>
<polygon fill="#63b8ff" stroke="#63b8ff" points="230.5,-359.27 227,-349.27 223.5,-359.27 230.5,-359.27"/>
</g>
<!-- Node15 -->
<g id="node15" class="node">
<title>Node15</title>
<g id="a_node15"><a xlink:href="Modal_8h.html" target="_top" xlink:title=" ">
<polygon fill="white" stroke="#666666" points="393,-349 273,-349 273,-330 393,-330 393,-349"/>
<text text-anchor="middle" x="333" y="-337" font-family="Helvetica,sans-Serif" font-size="10.00">../../interface/Modal.h</text>
</a>
</g>
</g>
<!-- Node1&#45;&gt;Node15 -->
<g id="edge19" class="edge">
<title>Node1&#45;&gt;Node15</title>
<path fill="none" stroke="#63b8ff" d="M252.39,-384.99C269.29,-375.66 291.38,-363.47 308.16,-354.21"/>
<polygon fill="#63b8ff" stroke="#63b8ff" points="310.28,-357.04 317.35,-349.14 306.9,-350.91 310.28,-357.04"/>
</g>
<!-- Node3 -->
<g id="node3" class="node">
<title>Node3</title>
<g id="a_node3"><a xlink:href="OnceAction_8h.html" target="_top" xlink:title=" ">
<polygon fill="white" stroke="#666666" points="173,-294 83,-294 83,-275 173,-275 173,-294"/>
<text text-anchor="middle" x="128" y="-282" font-family="Helvetica,sans-Serif" font-size="10.00">../OnceAction.h</text>
</a>
</g>
</g>
<!-- Node2&#45;&gt;Node3 -->
<g id="edge2" class="edge">
<title>Node2&#45;&gt;Node3</title>
<path fill="none" stroke="#63b8ff" d="M128,-329.75C128,-322.8 128,-312.85 128,-304.13"/>
<polygon fill="#63b8ff" stroke="#63b8ff" points="131.5,-304.09 128,-294.09 124.5,-304.09 131.5,-304.09"/>
</g>
<!-- Node4 -->
<g id="node4" class="node">
<title>Node4</title>
<g id="a_node4"><a xlink:href="Action_8h.html" target="_top" xlink:title=" ">
<polygon fill="white" stroke="#666666" points="156,-239 100,-239 100,-220 156,-220 156,-239"/>
<text text-anchor="middle" x="128" y="-227" font-family="Helvetica,sans-Serif" font-size="10.00">Action.h</text>
</a>
</g>
</g>
<!-- Node3&#45;&gt;Node4 -->
<g id="edge3" class="edge">
<title>Node3&#45;&gt;Node4</title>
<path fill="none" stroke="#63b8ff" d="M128,-274.75C128,-267.8 128,-257.85 128,-249.13"/>
<polygon fill="#63b8ff" stroke="#63b8ff" points="131.5,-249.09 128,-239.09 124.5,-249.09 131.5,-249.09"/>
</g>
<!-- Node5 -->
<g id="node5" class="node">
<title>Node5</title>
<g id="a_node5"><a xlink:title=" ">
<polygon fill="#e0e0e0" stroke="#999999" points="147.5,-129 100.5,-129 100.5,-110 147.5,-110 147.5,-129"/>
<text text-anchor="middle" x="124" y="-117" font-family="Helvetica,sans-Serif" font-size="10.00">vector</text>
</a>
</g>
</g>
<!-- Node4&#45;&gt;Node5 -->
<g id="edge4" class="edge">
<title>Node4&#45;&gt;Node5</title>
<path fill="none" stroke="#63b8ff" d="M127.67,-219.66C127.02,-202.17 125.57,-162.8 124.7,-139.27"/>
<polygon fill="#63b8ff" stroke="#63b8ff" points="128.19,-139.02 124.32,-129.16 121.19,-139.28 128.19,-139.02"/>
</g>
<!-- Node6 -->
<g id="node6" class="node">
<title>Node6</title>
<g id="a_node6"><a xlink:title=" ">
<polygon fill="#e0e0e0" stroke="#999999" points="68,-19 0,-19 0,0 68,0 68,-19"/>
<text text-anchor="middle" x="34" y="-7" font-family="Helvetica,sans-Serif" font-size="10.00">filesystem</text>
</a>
</g>
</g>
<!-- Node4&#45;&gt;Node6 -->
<g id="edge5" class="edge">
<title>Node4&#45;&gt;Node6</title>
<path fill="none" stroke="#63b8ff" d="M99.98,-225.79C73.83,-221.61 36.2,-210.99 18,-184 -14.5,-135.79 10.82,-62.18 25.46,-28.48"/>
<polygon fill="#63b8ff" stroke="#63b8ff" points="28.8,-29.57 29.75,-19.02 22.43,-26.68 28.8,-29.57"/>
</g>
<!-- Node7 -->
<g id="node7" class="node">
<title>Node7</title>
<g id="a_node7"><a xlink:href="FileView_8h.html" target="_top" xlink:title=" ">
<polygon fill="white" stroke="#666666" points="102.5,-184 27.5,-184 27.5,-165 102.5,-165 102.5,-184"/>
<text text-anchor="middle" x="65" y="-172" font-family="Helvetica,sans-Serif" font-size="10.00">../FileView.h</text>
</a>
</g>
</g>
<!-- Node4&#45;&gt;Node7 -->
<g id="edge6" class="edge">
<title>Node4&#45;&gt;Node7</title>
<path fill="none" stroke="#63b8ff" d="M117.88,-219.98C108.56,-212.15 94.53,-200.34 83.26,-190.86"/>
<polygon fill="#63b8ff" stroke="#63b8ff" points="85.21,-187.93 75.31,-184.17 80.71,-193.29 85.21,-187.93"/>
</g>
<!-- Node10 -->
<g id="node10" class="node">
<title>Node10</title>
<g id="a_node10"><a xlink:href="State_8h.html" target="_top" xlink:title=" ">
<polygon fill="white" stroke="#666666" points="235,-184 175,-184 175,-165 235,-165 235,-184"/>
<text text-anchor="middle" x="205" y="-172" font-family="Helvetica,sans-Serif" font-size="10.00">../State.h</text>
</a>
</g>
</g>
<!-- Node4&#45;&gt;Node10 -->
<g id="edge12" class="edge">
<title>Node4&#45;&gt;Node10</title>
<path fill="none" stroke="#63b8ff" d="M140.37,-219.98C152.09,-211.92 169.92,-199.65 183.89,-190.03"/>
<polygon fill="#63b8ff" stroke="#63b8ff" points="186.15,-192.72 192.4,-184.17 182.18,-186.96 186.15,-192.72"/>
</g>
<!-- Node7&#45;&gt;Node5 -->
<g id="edge7" class="edge">
<title>Node7&#45;&gt;Node5</title>
<path fill="none" stroke="#63b8ff" d="M74.48,-164.98C83.2,-157.15 96.34,-145.34 106.9,-135.86"/>
<polygon fill="#63b8ff" stroke="#63b8ff" points="109.25,-138.46 114.35,-129.17 104.57,-133.25 109.25,-138.46"/>
</g>
<!-- Node7&#45;&gt;Node6 -->
<g id="edge8" class="edge">
<title>Node7&#45;&gt;Node6</title>
<path fill="none" stroke="#63b8ff" d="M63.33,-164.74C58.48,-139.2 44.26,-64.43 37.56,-29.23"/>
<polygon fill="#63b8ff" stroke="#63b8ff" points="40.98,-28.48 35.67,-19.31 34.1,-29.78 40.98,-28.48"/>
</g>
<!-- Node8 -->
<g id="node8" class="node">
<title>Node8</title>
<g id="a_node8"><a xlink:href="Entry_8h.html" target="_top" xlink:title=" ">
<polygon fill="white" stroke="#666666" points="186,-74 108,-74 108,-55 186,-55 186,-74"/>
<text text-anchor="middle" x="147" y="-62" font-family="Helvetica,sans-Serif" font-size="10.00">entry/Entry.h</text>
</a>
</g>
</g>
<!-- Node7&#45;&gt;Node8 -->
<g id="edge9" class="edge">
<title>Node7&#45;&gt;Node8</title>
<path fill="none" stroke="#63b8ff" d="M67,-165C70.33,-152.12 77.98,-127.34 91,-110 99.94,-98.09 112.8,-87.57 123.94,-79.76"/>
<polygon fill="#63b8ff" stroke="#63b8ff" points="126.03,-82.56 132.39,-74.09 122.14,-76.75 126.03,-82.56"/>
</g>
<!-- Node8&#45;&gt;Node6 -->
<g id="edge10" class="edge">
<title>Node8&#45;&gt;Node6</title>
<path fill="none" stroke="#63b8ff" d="M128.84,-54.98C110.75,-46.5 82.72,-33.35 61.81,-23.54"/>
<polygon fill="#63b8ff" stroke="#63b8ff" points="63.03,-20.25 52.49,-19.17 60.05,-26.59 63.03,-20.25"/>
</g>
<!-- Node9 -->
<g id="node9" class="node">
<title>Node9</title>
<g id="a_node9"><a xlink:href="Modifier_8h.html" target="_top" xlink:title=" ">
<polygon fill="white" stroke="#666666" points="179.5,-19 114.5,-19 114.5,0 179.5,0 179.5,-19"/>
<text text-anchor="middle" x="147" y="-7" font-family="Helvetica,sans-Serif" font-size="10.00">Modifier.h</text>
</a>
</g>
</g>
<!-- Node8&#45;&gt;Node9 -->
<g id="edge11" class="edge">
<title>Node8&#45;&gt;Node9</title>
<path fill="none" stroke="#63b8ff" d="M147,-54.75C147,-47.8 147,-37.85 147,-29.13"/>
<polygon fill="#63b8ff" stroke="#63b8ff" points="150.5,-29.09 147,-19.09 143.5,-29.09 150.5,-29.09"/>
</g>
<!-- Node10&#45;&gt;Node8 -->
<g id="edge14" class="edge">
<title>Node10&#45;&gt;Node8</title>
<path fill="none" stroke="#63b8ff" d="M200.25,-164.66C190.69,-146.85 168.95,-106.37 156.4,-83.01"/>
<polygon fill="#63b8ff" stroke="#63b8ff" points="159.46,-81.31 151.65,-74.16 153.3,-84.62 159.46,-81.31"/>
</g>
<!-- Node11 -->
<g id="node11" class="node">
<title>Node11</title>
<g id="a_node11"><a xlink:title=" ">
<polygon fill="#e0e0e0" stroke="#999999" points="236,-129 204,-129 204,-110 236,-110 236,-129"/>
<text text-anchor="middle" x="220" y="-117" font-family="Helvetica,sans-Serif" font-size="10.00">set</text>
</a>
</g>
</g>
<!-- Node10&#45;&gt;Node11 -->
<g id="edge13" class="edge">
<title>Node10&#45;&gt;Node11</title>
<path fill="none" stroke="#63b8ff" d="M207.48,-164.75C209.46,-157.72 212.32,-147.62 214.81,-138.84"/>
<polygon fill="#63b8ff" stroke="#63b8ff" points="218.21,-139.66 217.57,-129.09 211.48,-137.76 218.21,-139.66"/>
</g>
<!-- Node12 -->
<g id="node12" class="node">
<title>Node12</title>
<g id="a_node12"><a xlink:href="Utility_8h.html" target="_top" xlink:title=" ">
<polygon fill="white" stroke="#666666" points="308,-129 254,-129 254,-110 308,-110 308,-129"/>
<text text-anchor="middle" x="281" y="-117" font-family="Helvetica,sans-Serif" font-size="10.00">Utility.h</text>
</a>
</g>
</g>
<!-- Node10&#45;&gt;Node12 -->
<g id="edge15" class="edge">
<title>Node10&#45;&gt;Node12</title>
<path fill="none" stroke="#63b8ff" d="M217.21,-164.98C228.78,-156.92 246.38,-144.65 260.16,-135.03"/>
<polygon fill="#63b8ff" stroke="#63b8ff" points="262.37,-137.76 268.57,-129.17 258.36,-132.02 262.37,-137.76"/>
</g>
<!-- Node12&#45;&gt;Node8 -->
<g id="edge17" class="edge">
<title>Node12&#45;&gt;Node8</title>
<path fill="none" stroke="#63b8ff" d="M259.47,-109.98C237.53,-101.3 203.26,-87.75 178.31,-77.88"/>
<polygon fill="#63b8ff" stroke="#63b8ff" points="179.51,-74.59 168.92,-74.17 176.93,-81.1 179.51,-74.59"/>
</g>
<!-- Node13 -->
<g id="node13" class="node">
<title>Node13</title>
<g id="a_node13"><a xlink:title=" ">
<polygon fill="#e0e0e0" stroke="#999999" points="330,-74 286,-74 286,-55 330,-55 330,-74"/>
<text text-anchor="middle" x="308" y="-62" font-family="Helvetica,sans-Serif" font-size="10.00">string</text>
</a>
</g>
</g>
<!-- Node12&#45;&gt;Node13 -->
<g id="edge16" class="edge">
<title>Node12&#45;&gt;Node13</title>
<path fill="none" stroke="#63b8ff" d="M285.46,-109.75C289.12,-102.57 294.41,-92.18 298.95,-83.27"/>
<polygon fill="#63b8ff" stroke="#63b8ff" points="302.2,-84.59 303.62,-74.09 295.97,-81.41 302.2,-84.59"/>
</g>
<!-- Node15&#45;&gt;Node13 -->
<g id="edge20" class="edge">
<title>Node15&#45;&gt;Node13</title>
<path fill="none" stroke="#63b8ff" d="M333.4,-329.82C334.22,-311.49 336,-267.45 336,-230.5 336,-230.5 336,-230.5 336,-173.5 336,-141.02 323.99,-104.76 315.7,-83.6"/>
<polygon fill="#63b8ff" stroke="#63b8ff" points="318.91,-82.2 311.89,-74.26 312.43,-84.84 318.91,-82.2"/>
</g>
<!-- Node16 -->
<g id="node16" class="node">
<title>Node16</title>
<g id="a_node16"><a xlink:title=" ">
<polygon fill="#e0e0e0" stroke="#999999" points="307.5,-294 244.5,-294 244.5,-275 307.5,-275 307.5,-294"/>
<text text-anchor="middle" x="276" y="-282" font-family="Helvetica,sans-Serif" font-size="10.00">ncurses.h</text>
</a>
</g>
</g>
<!-- Node15&#45;&gt;Node16 -->
<g id="edge21" class="edge">
<title>Node15&#45;&gt;Node16</title>
<path fill="none" stroke="#63b8ff" d="M323.84,-329.98C315.5,-322.23 302.97,-310.58 292.82,-301.14"/>
<polygon fill="#63b8ff" stroke="#63b8ff" points="295.03,-298.42 285.32,-294.17 290.26,-303.54 295.03,-298.42"/>
</g>
</g>
</svg>
