<?xml version="1.0" encoding="UTF-8" standalone="no"?>
<!DOCTYPE svg PUBLIC "-//W3C//DTD SVG 1.1//EN"
 "http://www.w3.org/Graphics/SVG/1.1/DTD/svg11.dtd">
<!-- Generated by graphviz version 2.43.0 (0)
 -->
<!-- Title: src/action/once/CreateFileAction.h Pages: 1 -->
<svg width="248pt" height="104pt"
 viewBox="0.00 0.00 248.00 104.00" xmlns="http://www.w3.org/2000/svg" xmlns:xlink="http://www.w3.org/1999/xlink">
<g id="graph0" class="graph" transform="scale(1 1) rotate(0) translate(4 100)">
<title>src/action/once/CreateFileAction.h</title>
<!-- Node1 -->
<g id="node1" class="node">
<title>Node1</title>
<g id="a_node1"><a xlink:title=" ">
<polygon fill="#999999" stroke="#666666" points="207,-96 64,-96 64,-66 207,-66 207,-96"/>
<text text-anchor="start" x="72" y="-84" font-family="Helvetica,sans-Serif" font-size="10.00">src/action/once/CreateFile</text>
<text text-anchor="middle" x="135.5" y="-73" font-family="Helvetica,sans-Serif" font-size="10.00">Action.h</text>
</a>
</g>
</g>
<!-- Node2 -->
<g id="node2" class="node">
<title>Node2</title>
<g id="a_node2"><a xlink:href="CreateFileAction_8cpp.html" target="_top" xlink:title=" ">
<polygon fill="white" stroke="#666666" points="143,-30 0,-30 0,0 143,0 143,-30"/>
<text text-anchor="start" x="8" y="-18" font-family="Helvetica,sans-Serif" font-size="10.00">src/action/once/CreateFile</text>
<text text-anchor="middle" x="71.5" y="-7" font-family="Helvetica,sans-Serif" font-size="10.00">Action.cpp</text>
</a>
</g>
</g>
<!-- Node1&#45;&gt;Node2 -->
<g id="edge1" class="edge">
<title>Node1&#45;&gt;Node2</title>
<path fill="none" stroke="#63b8ff" d="M114.15,-58.65C104.77,-49.27 94.03,-38.53 85.66,-30.16"/>
<polygon fill="#63b8ff" stroke="#63b8ff" points="111.75,-61.2 121.3,-65.8 116.7,-56.25 111.75,-61.2"/>
</g>
<!-- Node3 -->
<g id="node3" class="node">
<title>Node3</title>
<g id="a_node3"><a xlink:href="main_8cpp.html" target="_top" xlink:title=" ">
<polygon fill="white" stroke="#666666" points="240,-24.5 161,-24.5 161,-5.5 240,-5.5 240,-24.5"/>
<text text-anchor="middle" x="200.5" y="-12.5" font-family="Helvetica,sans-Serif" font-size="10.00">src/main.cpp</text>
</a>
</g>
</g>
<!-- Node1&#45;&gt;Node3 -->
<g id="edge2" class="edge">
<title>Node1&#45;&gt;Node3</title>
<path fill="none" stroke="#63b8ff" d="M157.23,-58.6C168.92,-47.1 182.7,-33.52 191.52,-24.84"/>
<polygon fill="#63b8ff" stroke="#63b8ff" points="154.6,-56.29 149.93,-65.8 159.51,-61.27 154.6,-56.29"/>
</g>
</g>
</svg>
