<?xml version="1.0" encoding="UTF-8" standalone="no"?>
<!DOCTYPE svg PUBLIC "-//W3C//DTD SVG 1.1//EN"
 "http://www.w3.org/Graphics/SVG/1.1/DTD/svg11.dtd">
<!-- Generated by graphviz version 2.43.0 (0)
 -->
<!-- Title: src/action/once/CreateSymlinkAction.h Pages: 1 -->
<svg width="325pt" height="368pt"
 viewBox="0.00 0.00 324.50 368.00" xmlns="http://www.w3.org/2000/svg" xmlns:xlink="http://www.w3.org/1999/xlink">
<g id="graph0" class="graph" transform="scale(1 1) rotate(0) translate(4 364)">
<title>src/action/once/CreateSymlinkAction.h</title>
<!-- Node1 -->
<g id="node1" class="node">
<title>Node1</title>
<g id="a_node1"><a xlink:title=" ">
<polygon fill="#999999" stroke="#666666" points="165,-360 0,-360 0,-330 165,-330 165,-360"/>
<text text-anchor="start" x="8" y="-348" font-family="Helvetica,sans-Serif" font-size="10.00">src/action/once/CreateSymlink</text>
<text text-anchor="middle" x="82.5" y="-337" font-family="Helvetica,sans-Serif" font-size="10.00">Action.h</text>
</a>
</g>
</g>
<!-- Node2 -->
<g id="node2" class="node">
<title>Node2</title>
<g id="a_node2"><a xlink:href="OnceAction_8h.html" target="_top" xlink:title=" ">
<polygon fill="white" stroke="#666666" points="127.5,-294 37.5,-294 37.5,-275 127.5,-275 127.5,-294"/>
<text text-anchor="middle" x="82.5" y="-282" font-family="Helvetica,sans-Serif" font-size="10.00">../OnceAction.h</text>
</a>
</g>
</g>
<!-- Node1&#45;&gt;Node2 -->
<g id="edge1" class="edge">
<title>Node1&#45;&gt;Node2</title>
<path fill="none" stroke="#63b8ff" d="M82.5,-329.84C82.5,-322.21 82.5,-312.7 82.5,-304.45"/>
<polygon fill="#63b8ff" stroke="#63b8ff" points="86,-304.27 82.5,-294.27 79,-304.27 86,-304.27"/>
</g>
<!-- Node3 -->
<g id="node3" class="node">
<title>Node3</title>
<g id="a_node3"><a xlink:href="Action_8h.html" target="_top" xlink:title=" ">
<polygon fill="white" stroke="#666666" points="110.5,-239 54.5,-239 54.5,-220 110.5,-220 110.5,-239"/>
<text text-anchor="middle" x="82.5" y="-227" font-family="Helvetica,sans-Serif" font-size="10.00">Action.h</text>
</a>
</g>
</g>
<!-- Node2&#45;&gt;Node3 -->
<g id="edge2" class="edge">
<title>Node2&#45;&gt;Node3</title>
<path fill="none" stroke="#63b8ff" d="M82.5,-274.75C82.5,-267.8 82.5,-257.85 82.5,-249.13"/>
<polygon fill="#63b8ff" stroke="#63b8ff" points="86,-249.09 82.5,-239.09 79,-249.09 86,-249.09"/>
</g>
<!-- Node4 -->
<g id="node4" class="node">
<title>Node4</title>
<g id="a_node4"><a xlink:title=" ">
<polygon fill="#e0e0e0" stroke="#999999" points="80,-129 33,-129 33,-110 80,-110 80,-129"/>
<text text-anchor="middle" x="56.5" y="-117" font-family="Helvetica,sans-Serif" font-size="10.00">vector</text>
</a>
</g>
</g>
<!-- Node3&#45;&gt;Node4 -->
<g id="edge3" class="edge">
<title>Node3&#45;&gt;Node4</title>
<path fill="none" stroke="#63b8ff" d="M79.4,-219.72C76.33,-210.81 71.65,-196.57 68.5,-184 64.78,-169.17 61.62,-152.13 59.48,-139.44"/>
<polygon fill="#63b8ff" stroke="#63b8ff" points="62.87,-138.51 57.81,-129.2 55.96,-139.63 62.87,-138.51"/>
</g>
<!-- Node5 -->
<g id="node5" class="node">
<title>Node5</title>
<g id="a_node5"><a xlink:title=" ">
<polygon fill="#e0e0e0" stroke="#999999" points="142.5,-19 74.5,-19 74.5,0 142.5,0 142.5,-19"/>
<text text-anchor="middle" x="108.5" y="-7" font-family="Helvetica,sans-Serif" font-size="10.00">filesystem</text>
</a>
</g>
</g>
<!-- Node3&#45;&gt;Node5 -->
<g id="edge4" class="edge">
<title>Node3&#45;&gt;Node5</title>
<path fill="none" stroke="#63b8ff" d="M72.67,-219.87C52.1,-200.71 7.67,-152.91 23.5,-110 36.56,-74.59 68.46,-43.24 89.25,-25.59"/>
<polygon fill="#63b8ff" stroke="#63b8ff" points="91.64,-28.16 97.14,-19.1 87.19,-22.76 91.64,-28.16"/>
</g>
<!-- Node6 -->
<g id="node6" class="node">
<title>Node6</title>
<g id="a_node6"><a xlink:href="FileView_8h.html" target="_top" xlink:title=" ">
<polygon fill="white" stroke="#666666" points="153,-184 78,-184 78,-165 153,-165 153,-184"/>
<text text-anchor="middle" x="115.5" y="-172" font-family="Helvetica,sans-Serif" font-size="10.00">../FileView.h</text>
</a>
</g>
</g>
<!-- Node3&#45;&gt;Node6 -->
<g id="edge5" class="edge">
<title>Node3&#45;&gt;Node6</title>
<path fill="none" stroke="#63b8ff" d="M87.95,-219.75C92.51,-212.42 99.17,-201.73 104.79,-192.7"/>
<polygon fill="#63b8ff" stroke="#63b8ff" points="107.84,-194.43 110.15,-184.09 101.9,-190.73 107.84,-194.43"/>
</g>
<!-- Node9 -->
<g id="node9" class="node">
<title>Node9</title>
<g id="a_node9"><a xlink:href="State_8h.html" target="_top" xlink:title=" ">
<polygon fill="white" stroke="#666666" points="250.5,-184 190.5,-184 190.5,-165 250.5,-165 250.5,-184"/>
<text text-anchor="middle" x="220.5" y="-172" font-family="Helvetica,sans-Serif" font-size="10.00">../State.h</text>
</a>
</g>
</g>
<!-- Node3&#45;&gt;Node9 -->
<g id="edge11" class="edge">
<title>Node3&#45;&gt;Node9</title>
<path fill="none" stroke="#63b8ff" d="M104.67,-219.98C127.27,-211.3 162.56,-197.75 188.25,-187.88"/>
<polygon fill="#63b8ff" stroke="#63b8ff" points="189.84,-191.02 197.92,-184.17 187.33,-184.49 189.84,-191.02"/>
</g>
<!-- Node6&#45;&gt;Node4 -->
<g id="edge6" class="edge">
<title>Node6&#45;&gt;Node4</title>
<path fill="none" stroke="#63b8ff" d="M106.02,-164.98C97.3,-157.15 84.16,-145.34 73.6,-135.86"/>
<polygon fill="#63b8ff" stroke="#63b8ff" points="75.93,-133.25 66.15,-129.17 71.25,-138.46 75.93,-133.25"/>
</g>
<!-- Node6&#45;&gt;Node5 -->
<g id="edge7" class="edge">
<title>Node6&#45;&gt;Node5</title>
<path fill="none" stroke="#63b8ff" d="M115.12,-164.74C114.03,-139.31 110.84,-65.08 109.32,-29.69"/>
<polygon fill="#63b8ff" stroke="#63b8ff" points="112.8,-29.15 108.88,-19.31 105.81,-29.45 112.8,-29.15"/>
</g>
<!-- Node7 -->
<g id="node7" class="node">
<title>Node7</title>
<g id="a_node7"><a xlink:href="Entry_8h.html" target="_top" xlink:title=" ">
<polygon fill="white" stroke="#666666" points="240.5,-74 162.5,-74 162.5,-55 240.5,-55 240.5,-74"/>
<text text-anchor="middle" x="201.5" y="-62" font-family="Helvetica,sans-Serif" font-size="10.00">entry/Entry.h</text>
</a>
</g>
</g>
<!-- Node6&#45;&gt;Node7 -->
<g id="edge8" class="edge">
<title>Node6&#45;&gt;Node7</title>
<path fill="none" stroke="#63b8ff" d="M122.26,-164.84C131.83,-152.6 149.92,-129.52 165.5,-110 172.95,-100.66 181.35,-90.28 188.15,-81.89"/>
<polygon fill="#63b8ff" stroke="#63b8ff" points="190.97,-83.97 194.57,-74 185.54,-79.56 190.97,-83.97"/>
</g>
<!-- Node7&#45;&gt;Node5 -->
<g id="edge9" class="edge">
<title>Node7&#45;&gt;Node5</title>
<path fill="none" stroke="#63b8ff" d="M186.56,-54.98C172,-46.69 149.63,-33.94 132.57,-24.22"/>
<polygon fill="#63b8ff" stroke="#63b8ff" points="134.14,-21.08 123.71,-19.17 130.67,-27.16 134.14,-21.08"/>
</g>
<!-- Node8 -->
<g id="node8" class="node">
<title>Node8</title>
<g id="a_node8"><a xlink:href="Modifier_8h.html" target="_top" xlink:title=" ">
<polygon fill="white" stroke="#666666" points="234,-19 169,-19 169,0 234,0 234,-19"/>
<text text-anchor="middle" x="201.5" y="-7" font-family="Helvetica,sans-Serif" font-size="10.00">Modifier.h</text>
</a>
</g>
</g>
<!-- Node7&#45;&gt;Node8 -->
<g id="edge10" class="edge">
<title>Node7&#45;&gt;Node8</title>
<path fill="none" stroke="#63b8ff" d="M201.5,-54.75C201.5,-47.8 201.5,-37.85 201.5,-29.13"/>
<polygon fill="#63b8ff" stroke="#63b8ff" points="205,-29.09 201.5,-19.09 198,-29.09 205,-29.09"/>
</g>
<!-- Node9&#45;&gt;Node7 -->
<g id="edge13" class="edge">
<title>Node9&#45;&gt;Node7</title>
<path fill="none" stroke="#63b8ff" d="M220.43,-164.79C220.2,-152.47 219.25,-129.32 215.5,-110 213.8,-101.25 210.98,-91.81 208.31,-83.88"/>
<polygon fill="#63b8ff" stroke="#63b8ff" points="211.53,-82.47 204.89,-74.21 204.93,-84.81 211.53,-82.47"/>
</g>
<!-- Node10 -->
<g id="node10" class="node">
<title>Node10</title>
<g id="a_node10"><a xlink:title=" ">
<polygon fill="#e0e0e0" stroke="#999999" points="206.5,-129 174.5,-129 174.5,-110 206.5,-110 206.5,-129"/>
<text text-anchor="middle" x="190.5" y="-117" font-family="Helvetica,sans-Serif" font-size="10.00">set</text>
</a>
</g>
</g>
<!-- Node9&#45;&gt;Node10 -->
<g id="edge12" class="edge">
<title>Node9&#45;&gt;Node10</title>
<path fill="none" stroke="#63b8ff" d="M215.55,-164.75C211.44,-157.49 205.47,-146.95 200.4,-137.98"/>
<polygon fill="#63b8ff" stroke="#63b8ff" points="203.33,-136.07 195.36,-129.09 197.24,-139.52 203.33,-136.07"/>
</g>
<!-- Node11 -->
<g id="node11" class="node">
<title>Node11</title>
<g id="a_node11"><a xlink:href="Utility_8h.html" target="_top" xlink:title=" ">
<polygon fill="white" stroke="#666666" points="316.5,-129 262.5,-129 262.5,-110 316.5,-110 316.5,-129"/>
<text text-anchor="middle" x="289.5" y="-117" font-family="Helvetica,sans-Serif" font-size="10.00">Utility.h</text>
</a>
</g>
</g>
<!-- Node9&#45;&gt;Node11 -->
<g id="edge14" class="edge">
<title>Node9&#45;&gt;Node11</title>
<path fill="none" stroke="#63b8ff" d="M231.59,-164.98C241.99,-157 257.76,-144.88 270.22,-135.31"/>
<polygon fill="#63b8ff" stroke="#63b8ff" points="272.41,-138.04 278.21,-129.17 268.15,-132.49 272.41,-138.04"/>
</g>
<!-- Node11&#45;&gt;Node7 -->
<g id="edge16" class="edge">
<title>Node11&#45;&gt;Node7</title>
<path fill="none" stroke="#63b8ff" d="M275.36,-109.98C261.71,-101.77 240.81,-89.18 224.72,-79.49"/>
<polygon fill="#63b8ff" stroke="#63b8ff" points="226.27,-76.33 215.9,-74.17 222.66,-82.33 226.27,-76.33"/>
</g>
<!-- Node12 -->
<g id="node12" class="node">
<title>Node12</title>
<g id="a_node12"><a xlink:title=" ">
<polygon fill="#e0e0e0" stroke="#999999" points="311.5,-74 267.5,-74 267.5,-55 311.5,-55 311.5,-74"/>
<text text-anchor="middle" x="289.5" y="-62" font-family="Helvetica,sans-Serif" font-size="10.00">string</text>
</a>
</g>
</g>
<!-- Node11&#45;&gt;Node12 -->
<g id="edge15" class="edge">
<title>Node11&#45;&gt;Node12</title>
<path fill="none" stroke="#63b8ff" d="M289.5,-109.75C289.5,-102.8 289.5,-92.85 289.5,-84.13"/>
<polygon fill="#63b8ff" stroke="#63b8ff" points="293,-84.09 289.5,-74.09 286,-84.09 293,-84.09"/>
</g>
</g>
</svg>
