<?xml version="1.0" encoding="UTF-8" standalone="no"?>
<!DOCTYPE svg PUBLIC "-//W3C//DTD SVG 1.1//EN"
 "http://www.w3.org/Graphics/SVG/1.1/DTD/svg11.dtd">
<!-- Generated by graphviz version 2.43.0 (0)
 -->
<!-- Title: src/action/once/DeduplicateAction.cpp Pages: 1 -->
<svg width="318pt" height="423pt"
 viewBox="0.00 0.00 318.00 423.00" xmlns="http://www.w3.org/2000/svg" xmlns:xlink="http://www.w3.org/1999/xlink">
<g id="graph0" class="graph" transform="scale(1 1) rotate(0) translate(4 419)">
<title>src/action/once/DeduplicateAction.cpp</title>
<!-- Node1 -->
<g id="node1" class="node">
<title>Node1</title>
<g id="a_node1"><a xlink:title=" ">
<polygon fill="#999999" stroke="#666666" points="152,-415 0,-415 0,-385 152,-385 152,-415"/>
<text text-anchor="start" x="8" y="-403" font-family="Helvetica,sans-Serif" font-size="10.00">src/action/once/Deduplicate</text>
<text text-anchor="middle" x="76" y="-392" font-family="Helvetica,sans-Serif" font-size="10.00">Action.cpp</text>
</a>
</g>
</g>
<!-- Node2 -->
<g id="node2" class="node">
<title>Node2</title>
<g id="a_node2"><a xlink:href="DeduplicateAction_8h.html" target="_top" xlink:title=" ">
<polygon fill="white" stroke="#666666" points="133.5,-349 18.5,-349 18.5,-330 133.5,-330 133.5,-349"/>
<text text-anchor="middle" x="76" y="-337" font-family="Helvetica,sans-Serif" font-size="10.00">DeduplicateAction.h</text>
</a>
</g>
</g>
<!-- Node1&#45;&gt;Node2 -->
<g id="edge1" class="edge">
<title>Node1&#45;&gt;Node2</title>
<path fill="none" stroke="#63b8ff" d="M76,-384.84C76,-377.21 76,-367.7 76,-359.45"/>
<polygon fill="#63b8ff" stroke="#63b8ff" points="79.5,-359.27 76,-349.27 72.5,-359.27 79.5,-359.27"/>
</g>
<!-- Node3 -->
<g id="node3" class="node">
<title>Node3</title>
<g id="a_node3"><a xlink:href="OnceAction_8h.html" target="_top" xlink:title=" ">
<polygon fill="white" stroke="#666666" points="121,-294 31,-294 31,-275 121,-275 121,-294"/>
<text text-anchor="middle" x="76" y="-282" font-family="Helvetica,sans-Serif" font-size="10.00">../OnceAction.h</text>
</a>
</g>
</g>
<!-- Node2&#45;&gt;Node3 -->
<g id="edge2" class="edge">
<title>Node2&#45;&gt;Node3</title>
<path fill="none" stroke="#63b8ff" d="M76,-329.75C76,-322.8 76,-312.85 76,-304.13"/>
<polygon fill="#63b8ff" stroke="#63b8ff" points="79.5,-304.09 76,-294.09 72.5,-304.09 79.5,-304.09"/>
</g>
<!-- Node4 -->
<g id="node4" class="node">
<title>Node4</title>
<g id="a_node4"><a xlink:href="Action_8h.html" target="_top" xlink:title=" ">
<polygon fill="white" stroke="#666666" points="104,-239 48,-239 48,-220 104,-220 104,-239"/>
<text text-anchor="middle" x="76" y="-227" font-family="Helvetica,sans-Serif" font-size="10.00">Action.h</text>
</a>
</g>
</g>
<!-- Node3&#45;&gt;Node4 -->
<g id="edge3" class="edge">
<title>Node3&#45;&gt;Node4</title>
<path fill="none" stroke="#63b8ff" d="M76,-274.75C76,-267.8 76,-257.85 76,-249.13"/>
<polygon fill="#63b8ff" stroke="#63b8ff" points="79.5,-249.09 76,-239.09 72.5,-249.09 79.5,-249.09"/>
</g>
<!-- Node5 -->
<g id="node5" class="node">
<title>Node5</title>
<g id="a_node5"><a xlink:title=" ">
<polygon fill="#e0e0e0" stroke="#999999" points="73.5,-129 26.5,-129 26.5,-110 73.5,-110 73.5,-129"/>
<text text-anchor="middle" x="50" y="-117" font-family="Helvetica,sans-Serif" font-size="10.00">vector</text>
</a>
</g>
</g>
<!-- Node4&#45;&gt;Node5 -->
<g id="edge4" class="edge">
<title>Node4&#45;&gt;Node5</title>
<path fill="none" stroke="#63b8ff" d="M72.9,-219.72C69.83,-210.81 65.15,-196.57 62,-184 58.28,-169.17 55.12,-152.13 52.98,-139.44"/>
<polygon fill="#63b8ff" stroke="#63b8ff" points="56.37,-138.51 51.31,-129.2 49.46,-139.63 56.37,-138.51"/>
</g>
<!-- Node6 -->
<g id="node6" class="node">
<title>Node6</title>
<g id="a_node6"><a xlink:title=" ">
<polygon fill="#e0e0e0" stroke="#999999" points="136,-19 68,-19 68,0 136,0 136,-19"/>
<text text-anchor="middle" x="102" y="-7" font-family="Helvetica,sans-Serif" font-size="10.00">filesystem</text>
</a>
</g>
</g>
<!-- Node4&#45;&gt;Node6 -->
<g id="edge5" class="edge">
<title>Node4&#45;&gt;Node6</title>
<path fill="none" stroke="#63b8ff" d="M66.17,-219.87C45.6,-200.71 1.17,-152.91 17,-110 30.06,-74.59 61.96,-43.24 82.75,-25.59"/>
<polygon fill="#63b8ff" stroke="#63b8ff" points="85.14,-28.16 90.64,-19.1 80.69,-22.76 85.14,-28.16"/>
</g>
<!-- Node7 -->
<g id="node7" class="node">
<title>Node7</title>
<g id="a_node7"><a xlink:href="FileView_8h.html" target="_top" xlink:title=" ">
<polygon fill="white" stroke="#666666" points="146.5,-184 71.5,-184 71.5,-165 146.5,-165 146.5,-184"/>
<text text-anchor="middle" x="109" y="-172" font-family="Helvetica,sans-Serif" font-size="10.00">../FileView.h</text>
</a>
</g>
</g>
<!-- Node4&#45;&gt;Node7 -->
<g id="edge6" class="edge">
<title>Node4&#45;&gt;Node7</title>
<path fill="none" stroke="#63b8ff" d="M81.45,-219.75C86.01,-212.42 92.67,-201.73 98.29,-192.7"/>
<polygon fill="#63b8ff" stroke="#63b8ff" points="101.34,-194.43 103.65,-184.09 95.4,-190.73 101.34,-194.43"/>
</g>
<!-- Node10 -->
<g id="node10" class="node">
<title>Node10</title>
<g id="a_node10"><a xlink:href="State_8h.html" target="_top" xlink:title=" ">
<polygon fill="white" stroke="#666666" points="244,-184 184,-184 184,-165 244,-165 244,-184"/>
<text text-anchor="middle" x="214" y="-172" font-family="Helvetica,sans-Serif" font-size="10.00">../State.h</text>
</a>
</g>
</g>
<!-- Node4&#45;&gt;Node10 -->
<g id="edge12" class="edge">
<title>Node4&#45;&gt;Node10</title>
<path fill="none" stroke="#63b8ff" d="M98.17,-219.98C120.77,-211.3 156.06,-197.75 181.75,-187.88"/>
<polygon fill="#63b8ff" stroke="#63b8ff" points="183.34,-191.02 191.42,-184.17 180.83,-184.49 183.34,-191.02"/>
</g>
<!-- Node7&#45;&gt;Node5 -->
<g id="edge7" class="edge">
<title>Node7&#45;&gt;Node5</title>
<path fill="none" stroke="#63b8ff" d="M99.52,-164.98C90.8,-157.15 77.66,-145.34 67.1,-135.86"/>
<polygon fill="#63b8ff" stroke="#63b8ff" points="69.43,-133.25 59.65,-129.17 64.75,-138.46 69.43,-133.25"/>
</g>
<!-- Node7&#45;&gt;Node6 -->
<g id="edge8" class="edge">
<title>Node7&#45;&gt;Node6</title>
<path fill="none" stroke="#63b8ff" d="M108.62,-164.74C107.53,-139.31 104.34,-65.08 102.82,-29.69"/>
<polygon fill="#63b8ff" stroke="#63b8ff" points="106.3,-29.15 102.38,-19.31 99.31,-29.45 106.3,-29.15"/>
</g>
<!-- Node8 -->
<g id="node8" class="node">
<title>Node8</title>
<g id="a_node8"><a xlink:href="Entry_8h.html" target="_top" xlink:title=" ">
<polygon fill="white" stroke="#666666" points="234,-74 156,-74 156,-55 234,-55 234,-74"/>
<text text-anchor="middle" x="195" y="-62" font-family="Helvetica,sans-Serif" font-size="10.00">entry/Entry.h</text>
</a>
</g>
</g>
<!-- Node7&#45;&gt;Node8 -->
<g id="edge9" class="edge">
<title>Node7&#45;&gt;Node8</title>
<path fill="none" stroke="#63b8ff" d="M115.76,-164.84C125.33,-152.6 143.42,-129.52 159,-110 166.45,-100.66 174.85,-90.28 181.65,-81.89"/>
<polygon fill="#63b8ff" stroke="#63b8ff" points="184.47,-83.97 188.07,-74 179.04,-79.56 184.47,-83.97"/>
</g>
<!-- Node8&#45;&gt;Node6 -->
<g id="edge10" class="edge">
<title>Node8&#45;&gt;Node6</title>
<path fill="none" stroke="#63b8ff" d="M180.06,-54.98C165.5,-46.69 143.13,-33.94 126.07,-24.22"/>
<polygon fill="#63b8ff" stroke="#63b8ff" points="127.64,-21.08 117.21,-19.17 124.17,-27.16 127.64,-21.08"/>
</g>
<!-- Node9 -->
<g id="node9" class="node">
<title>Node9</title>
<g id="a_node9"><a xlink:href="Modifier_8h.html" target="_top" xlink:title=" ">
<polygon fill="white" stroke="#666666" points="227.5,-19 162.5,-19 162.5,0 227.5,0 227.5,-19"/>
<text text-anchor="middle" x="195" y="-7" font-family="Helvetica,sans-Serif" font-size="10.00">Modifier.h</text>
</a>
</g>
</g>
<!-- Node8&#45;&gt;Node9 -->
<g id="edge11" class="edge">
<title>Node8&#45;&gt;Node9</title>
<path fill="none" stroke="#63b8ff" d="M195,-54.75C195,-47.8 195,-37.85 195,-29.13"/>
<polygon fill="#63b8ff" stroke="#63b8ff" points="198.5,-29.09 195,-19.09 191.5,-29.09 198.5,-29.09"/>
</g>
<!-- Node10&#45;&gt;Node8 -->
<g id="edge14" class="edge">
<title>Node10&#45;&gt;Node8</title>
<path fill="none" stroke="#63b8ff" d="M213.93,-164.79C213.7,-152.47 212.75,-129.32 209,-110 207.3,-101.25 204.48,-91.81 201.81,-83.88"/>
<polygon fill="#63b8ff" stroke="#63b8ff" points="205.03,-82.47 198.39,-74.21 198.43,-84.81 205.03,-82.47"/>
</g>
<!-- Node11 -->
<g id="node11" class="node">
<title>Node11</title>
<g id="a_node11"><a xlink:title=" ">
<polygon fill="#e0e0e0" stroke="#999999" points="200,-129 168,-129 168,-110 200,-110 200,-129"/>
<text text-anchor="middle" x="184" y="-117" font-family="Helvetica,sans-Serif" font-size="10.00">set</text>
</a>
</g>
</g>
<!-- Node10&#45;&gt;Node11 -->
<g id="edge13" class="edge">
<title>Node10&#45;&gt;Node11</title>
<path fill="none" stroke="#63b8ff" d="M209.05,-164.75C204.94,-157.49 198.97,-146.95 193.9,-137.98"/>
<polygon fill="#63b8ff" stroke="#63b8ff" points="196.83,-136.07 188.86,-129.09 190.74,-139.52 196.83,-136.07"/>
</g>
<!-- Node12 -->
<g id="node12" class="node">
<title>Node12</title>
<g id="a_node12"><a xlink:href="Utility_8h.html" target="_top" xlink:title=" ">
<polygon fill="white" stroke="#666666" points="310,-129 256,-129 256,-110 310,-110 310,-129"/>
<text text-anchor="middle" x="283" y="-117" font-family="Helvetica,sans-Serif" font-size="10.00">Utility.h</text>
</a>
</g>
</g>
<!-- Node10&#45;&gt;Node12 -->
<g id="edge15" class="edge">
<title>Node10&#45;&gt;Node12</title>
<path fill="none" stroke="#63b8ff" d="M225.09,-164.98C235.49,-157 251.26,-144.88 263.72,-135.31"/>
<polygon fill="#63b8ff" stroke="#63b8ff" points="265.91,-138.04 271.71,-129.17 261.65,-132.49 265.91,-138.04"/>
</g>
<!-- Node12&#45;&gt;Node8 -->
<g id="edge17" class="edge">
<title>Node12&#45;&gt;Node8</title>
<path fill="none" stroke="#63b8ff" d="M268.86,-109.98C255.21,-101.77 234.31,-89.18 218.22,-79.49"/>
<polygon fill="#63b8ff" stroke="#63b8ff" points="219.77,-76.33 209.4,-74.17 216.16,-82.33 219.77,-76.33"/>
</g>
<!-- Node13 -->
<g id="node13" class="node">
<title>Node13</title>
<g id="a_node13"><a xlink:title=" ">
<polygon fill="#e0e0e0" stroke="#999999" points="305,-74 261,-74 261,-55 305,-55 305,-74"/>
<text text-anchor="middle" x="283" y="-62" font-family="Helvetica,sans-Serif" font-size="10.00">string</text>
</a>
</g>
</g>
<!-- Node12&#45;&gt;Node13 -->
<g id="edge16" class="edge">
<title>Node12&#45;&gt;Node13</title>
<path fill="none" stroke="#63b8ff" d="M283,-109.75C283,-102.8 283,-92.85 283,-84.13"/>
<polygon fill="#63b8ff" stroke="#63b8ff" points="286.5,-84.09 283,-74.09 279.5,-84.09 286.5,-84.09"/>
</g>
</g>
</svg>
