<?xml version="1.0" encoding="UTF-8" standalone="no"?>
<!DOCTYPE svg PUBLIC "-//W3C//DTD SVG 1.1//EN"
 "http://www.w3.org/Graphics/SVG/1.1/DTD/svg11.dtd">
<!-- Generated by graphviz version 2.43.0 (0)
 -->
<!-- Title: src/action/foreach/DeleteAction.cpp Pages: 1 -->
<svg width="368pt" height="423pt"
 viewBox="0.00 0.00 367.50 423.00" xmlns="http://www.w3.org/2000/svg" xmlns:xlink="http://www.w3.org/1999/xlink">
<g id="graph0" class="graph" transform="scale(1 1) rotate(0) translate(4 419)">
<title>src/action/foreach/DeleteAction.cpp</title>
<!-- Node1 -->
<g id="node1" class="node">
<title>Node1</title>
<g id="a_node1"><a xlink:title=" ">
<polygon fill="#999999" stroke="#666666" points="130.5,-415 26.5,-415 26.5,-385 130.5,-385 130.5,-415"/>
<text text-anchor="start" x="34.5" y="-403" font-family="Helvetica,sans-Serif" font-size="10.00">src/action/foreach</text>
<text text-anchor="middle" x="78.5" y="-392" font-family="Helvetica,sans-Serif" font-size="10.00">/DeleteAction.cpp</text>
</a>
</g>
</g>
<!-- Node2 -->
<g id="node2" class="node">
<title>Node2</title>
<g id="a_node2"><a xlink:title=" ">
<polygon fill="#e0e0e0" stroke="#999999" points="63,-349 0,-349 0,-330 63,-330 63,-349"/>
<text text-anchor="middle" x="31.5" y="-337" font-family="Helvetica,sans-Serif" font-size="10.00">ncurses.h</text>
</a>
</g>
</g>
<!-- Node1&#45;&gt;Node2 -->
<g id="edge1" class="edge">
<title>Node1&#45;&gt;Node2</title>
<path fill="none" stroke="#63b8ff" d="M67.12,-384.84C60.44,-376.52 51.95,-365.96 44.94,-357.23"/>
<polygon fill="#63b8ff" stroke="#63b8ff" points="47.53,-354.87 38.54,-349.27 42.08,-359.25 47.53,-354.87"/>
</g>
<!-- Node3 -->
<g id="node3" class="node">
<title>Node3</title>
<g id="a_node3"><a xlink:href="DeleteAction_8h.html" target="_top" xlink:title=" ">
<polygon fill="white" stroke="#666666" points="170,-349 81,-349 81,-330 170,-330 170,-349"/>
<text text-anchor="middle" x="125.5" y="-337" font-family="Helvetica,sans-Serif" font-size="10.00">DeleteAction.h</text>
</a>
</g>
</g>
<!-- Node1&#45;&gt;Node3 -->
<g id="edge2" class="edge">
<title>Node1&#45;&gt;Node3</title>
<path fill="none" stroke="#63b8ff" d="M89.88,-384.84C96.56,-376.52 105.05,-365.96 112.06,-357.23"/>
<polygon fill="#63b8ff" stroke="#63b8ff" points="114.92,-359.25 118.46,-349.27 109.47,-354.87 114.92,-359.25"/>
</g>
<!-- Node4 -->
<g id="node4" class="node">
<title>Node4</title>
<g id="a_node4"><a xlink:href="ForEachAction_8h.html" target="_top" xlink:title=" ">
<polygon fill="white" stroke="#666666" points="177.5,-294 73.5,-294 73.5,-275 177.5,-275 177.5,-294"/>
<text text-anchor="middle" x="125.5" y="-282" font-family="Helvetica,sans-Serif" font-size="10.00">../ForEachAction.h</text>
</a>
</g>
</g>
<!-- Node3&#45;&gt;Node4 -->
<g id="edge3" class="edge">
<title>Node3&#45;&gt;Node4</title>
<path fill="none" stroke="#63b8ff" d="M125.5,-329.75C125.5,-322.8 125.5,-312.85 125.5,-304.13"/>
<polygon fill="#63b8ff" stroke="#63b8ff" points="129,-304.09 125.5,-294.09 122,-304.09 129,-304.09"/>
</g>
<!-- Node5 -->
<g id="node5" class="node">
<title>Node5</title>
<g id="a_node5"><a xlink:href="Action_8h.html" target="_top" xlink:title=" ">
<polygon fill="white" stroke="#666666" points="153.5,-239 97.5,-239 97.5,-220 153.5,-220 153.5,-239"/>
<text text-anchor="middle" x="125.5" y="-227" font-family="Helvetica,sans-Serif" font-size="10.00">Action.h</text>
</a>
</g>
</g>
<!-- Node4&#45;&gt;Node5 -->
<g id="edge4" class="edge">
<title>Node4&#45;&gt;Node5</title>
<path fill="none" stroke="#63b8ff" d="M125.5,-274.75C125.5,-267.8 125.5,-257.85 125.5,-249.13"/>
<polygon fill="#63b8ff" stroke="#63b8ff" points="129,-249.09 125.5,-239.09 122,-249.09 129,-249.09"/>
</g>
<!-- Node6 -->
<g id="node6" class="node">
<title>Node6</title>
<g id="a_node6"><a xlink:title=" ">
<polygon fill="#e0e0e0" stroke="#999999" points="123,-129 76,-129 76,-110 123,-110 123,-129"/>
<text text-anchor="middle" x="99.5" y="-117" font-family="Helvetica,sans-Serif" font-size="10.00">vector</text>
</a>
</g>
</g>
<!-- Node5&#45;&gt;Node6 -->
<g id="edge5" class="edge">
<title>Node5&#45;&gt;Node6</title>
<path fill="none" stroke="#63b8ff" d="M122.4,-219.72C119.33,-210.81 114.65,-196.57 111.5,-184 107.78,-169.17 104.62,-152.13 102.48,-139.44"/>
<polygon fill="#63b8ff" stroke="#63b8ff" points="105.87,-138.51 100.81,-129.2 98.96,-139.63 105.87,-138.51"/>
</g>
<!-- Node7 -->
<g id="node7" class="node">
<title>Node7</title>
<g id="a_node7"><a xlink:title=" ">
<polygon fill="#e0e0e0" stroke="#999999" points="185.5,-19 117.5,-19 117.5,0 185.5,0 185.5,-19"/>
<text text-anchor="middle" x="151.5" y="-7" font-family="Helvetica,sans-Serif" font-size="10.00">filesystem</text>
</a>
</g>
</g>
<!-- Node5&#45;&gt;Node7 -->
<g id="edge6" class="edge">
<title>Node5&#45;&gt;Node7</title>
<path fill="none" stroke="#63b8ff" d="M115.67,-219.87C95.1,-200.71 50.67,-152.91 66.5,-110 79.56,-74.59 111.46,-43.24 132.25,-25.59"/>
<polygon fill="#63b8ff" stroke="#63b8ff" points="134.64,-28.16 140.14,-19.1 130.19,-22.76 134.64,-28.16"/>
</g>
<!-- Node8 -->
<g id="node8" class="node">
<title>Node8</title>
<g id="a_node8"><a xlink:href="FileView_8h.html" target="_top" xlink:title=" ">
<polygon fill="white" stroke="#666666" points="196,-184 121,-184 121,-165 196,-165 196,-184"/>
<text text-anchor="middle" x="158.5" y="-172" font-family="Helvetica,sans-Serif" font-size="10.00">../FileView.h</text>
</a>
</g>
</g>
<!-- Node5&#45;&gt;Node8 -->
<g id="edge7" class="edge">
<title>Node5&#45;&gt;Node8</title>
<path fill="none" stroke="#63b8ff" d="M130.95,-219.75C135.51,-212.42 142.17,-201.73 147.79,-192.7"/>
<polygon fill="#63b8ff" stroke="#63b8ff" points="150.84,-194.43 153.15,-184.09 144.9,-190.73 150.84,-194.43"/>
</g>
<!-- Node11 -->
<g id="node11" class="node">
<title>Node11</title>
<g id="a_node11"><a xlink:href="State_8h.html" target="_top" xlink:title=" ">
<polygon fill="white" stroke="#666666" points="293.5,-184 233.5,-184 233.5,-165 293.5,-165 293.5,-184"/>
<text text-anchor="middle" x="263.5" y="-172" font-family="Helvetica,sans-Serif" font-size="10.00">../State.h</text>
</a>
</g>
</g>
<!-- Node5&#45;&gt;Node11 -->
<g id="edge13" class="edge">
<title>Node5&#45;&gt;Node11</title>
<path fill="none" stroke="#63b8ff" d="M147.67,-219.98C170.27,-211.3 205.56,-197.75 231.25,-187.88"/>
<polygon fill="#63b8ff" stroke="#63b8ff" points="232.84,-191.02 240.92,-184.17 230.33,-184.49 232.84,-191.02"/>
</g>
<!-- Node8&#45;&gt;Node6 -->
<g id="edge8" class="edge">
<title>Node8&#45;&gt;Node6</title>
<path fill="none" stroke="#63b8ff" d="M149.02,-164.98C140.3,-157.15 127.16,-145.34 116.6,-135.86"/>
<polygon fill="#63b8ff" stroke="#63b8ff" points="118.93,-133.25 109.15,-129.17 114.25,-138.46 118.93,-133.25"/>
</g>
<!-- Node8&#45;&gt;Node7 -->
<g id="edge9" class="edge">
<title>Node8&#45;&gt;Node7</title>
<path fill="none" stroke="#63b8ff" d="M158.12,-164.74C157.03,-139.31 153.84,-65.08 152.32,-29.69"/>
<polygon fill="#63b8ff" stroke="#63b8ff" points="155.8,-29.15 151.88,-19.31 148.81,-29.45 155.8,-29.15"/>
</g>
<!-- Node9 -->
<g id="node9" class="node">
<title>Node9</title>
<g id="a_node9"><a xlink:href="Entry_8h.html" target="_top" xlink:title=" ">
<polygon fill="white" stroke="#666666" points="283.5,-74 205.5,-74 205.5,-55 283.5,-55 283.5,-74"/>
<text text-anchor="middle" x="244.5" y="-62" font-family="Helvetica,sans-Serif" font-size="10.00">entry/Entry.h</text>
</a>
</g>
</g>
<!-- Node8&#45;&gt;Node9 -->
<g id="edge10" class="edge">
<title>Node8&#45;&gt;Node9</title>
<path fill="none" stroke="#63b8ff" d="M165.26,-164.84C174.83,-152.6 192.92,-129.52 208.5,-110 215.95,-100.66 224.35,-90.28 231.15,-81.89"/>
<polygon fill="#63b8ff" stroke="#63b8ff" points="233.97,-83.97 237.57,-74 228.54,-79.56 233.97,-83.97"/>
</g>
<!-- Node9&#45;&gt;Node7 -->
<g id="edge11" class="edge">
<title>Node9&#45;&gt;Node7</title>
<path fill="none" stroke="#63b8ff" d="M229.56,-54.98C215,-46.69 192.63,-33.94 175.57,-24.22"/>
<polygon fill="#63b8ff" stroke="#63b8ff" points="177.14,-21.08 166.71,-19.17 173.67,-27.16 177.14,-21.08"/>
</g>
<!-- Node10 -->
<g id="node10" class="node">
<title>Node10</title>
<g id="a_node10"><a xlink:href="Modifier_8h.html" target="_top" xlink:title=" ">
<polygon fill="white" stroke="#666666" points="277,-19 212,-19 212,0 277,0 277,-19"/>
<text text-anchor="middle" x="244.5" y="-7" font-family="Helvetica,sans-Serif" font-size="10.00">Modifier.h</text>
</a>
</g>
</g>
<!-- Node9&#45;&gt;Node10 -->
<g id="edge12" class="edge">
<title>Node9&#45;&gt;Node10</title>
<path fill="none" stroke="#63b8ff" d="M244.5,-54.75C244.5,-47.8 244.5,-37.85 244.5,-29.13"/>
<polygon fill="#63b8ff" stroke="#63b8ff" points="248,-29.09 244.5,-19.09 241,-29.09 248,-29.09"/>
</g>
<!-- Node11&#45;&gt;Node9 -->
<g id="edge15" class="edge">
<title>Node11&#45;&gt;Node9</title>
<path fill="none" stroke="#63b8ff" d="M263.43,-164.79C263.2,-152.47 262.25,-129.32 258.5,-110 256.8,-101.25 253.98,-91.81 251.31,-83.88"/>
<polygon fill="#63b8ff" stroke="#63b8ff" points="254.53,-82.47 247.89,-74.21 247.93,-84.81 254.53,-82.47"/>
</g>
<!-- Node12 -->
<g id="node12" class="node">
<title>Node12</title>
<g id="a_node12"><a xlink:title=" ">
<polygon fill="#e0e0e0" stroke="#999999" points="249.5,-129 217.5,-129 217.5,-110 249.5,-110 249.5,-129"/>
<text text-anchor="middle" x="233.5" y="-117" font-family="Helvetica,sans-Serif" font-size="10.00">set</text>
</a>
</g>
</g>
<!-- Node11&#45;&gt;Node12 -->
<g id="edge14" class="edge">
<title>Node11&#45;&gt;Node12</title>
<path fill="none" stroke="#63b8ff" d="M258.55,-164.75C254.44,-157.49 248.47,-146.95 243.4,-137.98"/>
<polygon fill="#63b8ff" stroke="#63b8ff" points="246.33,-136.07 238.36,-129.09 240.24,-139.52 246.33,-136.07"/>
</g>
<!-- Node13 -->
<g id="node13" class="node">
<title>Node13</title>
<g id="a_node13"><a xlink:href="Utility_8h.html" target="_top" xlink:title=" ">
<polygon fill="white" stroke="#666666" points="359.5,-129 305.5,-129 305.5,-110 359.5,-110 359.5,-129"/>
<text text-anchor="middle" x="332.5" y="-117" font-family="Helvetica,sans-Serif" font-size="10.00">Utility.h</text>
</a>
</g>
</g>
<!-- Node11&#45;&gt;Node13 -->
<g id="edge16" class="edge">
<title>Node11&#45;&gt;Node13</title>
<path fill="none" stroke="#63b8ff" d="M274.59,-164.98C284.99,-157 300.76,-144.88 313.22,-135.31"/>
<polygon fill="#63b8ff" stroke="#63b8ff" points="315.41,-138.04 321.21,-129.17 311.15,-132.49 315.41,-138.04"/>
</g>
<!-- Node13&#45;&gt;Node9 -->
<g id="edge18" class="edge">
<title>Node13&#45;&gt;Node9</title>
<path fill="none" stroke="#63b8ff" d="M318.36,-109.98C304.71,-101.77 283.81,-89.18 267.72,-79.49"/>
<polygon fill="#63b8ff" stroke="#63b8ff" points="269.27,-76.33 258.9,-74.17 265.66,-82.33 269.27,-76.33"/>
</g>
<!-- Node14 -->
<g id="node14" class="node">
<title>Node14</title>
<g id="a_node14"><a xlink:title=" ">
<polygon fill="#e0e0e0" stroke="#999999" points="354.5,-74 310.5,-74 310.5,-55 354.5,-55 354.5,-74"/>
<text text-anchor="middle" x="332.5" y="-62" font-family="Helvetica,sans-Serif" font-size="10.00">string</text>
</a>
</g>
</g>
<!-- Node13&#45;&gt;Node14 -->
<g id="edge17" class="edge">
<title>Node13&#45;&gt;Node14</title>
<path fill="none" stroke="#63b8ff" d="M332.5,-109.75C332.5,-102.8 332.5,-92.85 332.5,-84.13"/>
<polygon fill="#63b8ff" stroke="#63b8ff" points="336,-84.09 332.5,-74.09 329,-84.09 336,-84.09"/>
</g>
</g>
</svg>
