<?xml version="1.0" encoding="UTF-8" standalone="no"?>
<!DOCTYPE svg PUBLIC "-//W3C//DTD SVG 1.1//EN"
 "http://www.w3.org/Graphics/SVG/1.1/DTD/svg11.dtd">
<!-- Generated by graphviz version 2.43.0 (0)
 -->
<!-- Title: src Pages: 1 -->
<svg width="168pt" height="169pt"
 viewBox="0.00 0.00 168.00 169.00" xmlns="http://www.w3.org/2000/svg" xmlns:xlink="http://www.w3.org/1999/xlink">
<g id="graph0" class="graph" transform="scale(1 1) rotate(0) translate(4 165)">
<title>src</title>
<g id="clust1" class="cluster">
<title>clusterdir_68267d1309a1af8e8297ef4c3efbcdba</title>
<g id="a_clust1"><a xlink:href="dir_68267d1309a1af8e8297ef4c3efbcdba.html" target="_top">
<polygon fill="#edf0f7" stroke="#404040" stroke-width="2" points="8,-8 8,-153 152,-153 152,-8 8,-8"/>
</a>
</g>
</g>
<!-- dir_68267d1309a1af8e8297ef4c3efbcdba -->
<g id="node1" class="node">
<title>dir_68267d1309a1af8e8297ef4c3efbcdba</title>
<text text-anchor="middle" x="103" y="-133" font-family="Helvetica,sans-Serif" font-size="10.00">src</text>
</g>
<!-- dir_63a79716ac36ae14e4cbc21f08c9941e -->
<g id="node2" class="node">
<title>dir_63a79716ac36ae14e4cbc21f08c9941e</title>
<g id="a_node2"><a xlink:href="dir_63a79716ac36ae14e4cbc21f08c9941e.html" target="_top" xlink:title="action">
<polygon fill="#a2b4d6" stroke="#404040" points="63.5,-90 16.5,-90 16.5,-71 63.5,-71 63.5,-90"/>
<text text-anchor="middle" x="40" y="-78" font-family="Helvetica,sans-Serif" font-size="10.00">action</text>
</a>
</g>
</g>
<!-- dir_68267d1309a1af8e8297ef4c3efbcdba&#45;&gt;dir_63a79716ac36ae14e4cbc21f08c9941e -->
<g id="edge1" class="edge">
<title>dir_68267d1309a1af8e8297ef4c3efbcdba&#45;&gt;dir_63a79716ac36ae14e4cbc21f08c9941e</title>
<path fill="none" stroke="#63b8ff" d="M92.88,-125.98C83.56,-118.15 69.53,-106.34 58.26,-96.86"/>
<polygon fill="#63b8ff" stroke="#63b8ff" points="60.21,-93.93 50.31,-90.17 55.71,-99.29 60.21,-93.93"/>
<g id="a_edge1&#45;headlabel"><a xlink:href="dir_000005_000000.html" target="_top" xlink:title="18">
<text text-anchor="middle" x="64.79" y="-91.57" font-family="Helvetica,sans-Serif" font-size="10.00" fill="#63b8ff">18</text>
</a>
</g>
</g>
<!-- dir_bf82593a8ccbaa733e7aa840b4b0cd56 -->
<g id="node3" class="node">
<title>dir_bf82593a8ccbaa733e7aa840b4b0cd56</title>
<g id="a_node3"><a xlink:href="dir_bf82593a8ccbaa733e7aa840b4b0cd56.html" target="_top" xlink:title="entry">
<polygon fill="#a2b4d6" stroke="#404040" points="124,-90 82,-90 82,-71 124,-71 124,-90"/>
<text text-anchor="middle" x="103" y="-78" font-family="Helvetica,sans-Serif" font-size="10.00">entry</text>
</a>
</g>
</g>
<!-- dir_68267d1309a1af8e8297ef4c3efbcdba&#45;&gt;dir_bf82593a8ccbaa733e7aa840b4b0cd56 -->
<g id="edge3" class="edge">
<title>dir_68267d1309a1af8e8297ef4c3efbcdba&#45;&gt;dir_bf82593a8ccbaa733e7aa840b4b0cd56</title>
<path fill="none" stroke="#63b8ff" d="M103,-125.75C103,-118.8 103,-108.85 103,-100.13"/>
<polygon fill="#63b8ff" stroke="#63b8ff" points="106.5,-100.09 103,-90.09 99.5,-100.09 106.5,-100.09"/>
<g id="a_edge3&#45;headlabel"><a xlink:href="dir_000005_000001.html" target="_top" xlink:title="6">
<text text-anchor="middle" x="109.34" y="-101.18" font-family="Helvetica,sans-Serif" font-size="10.00" fill="#63b8ff">6</text>
</a>
</g>
</g>
<!-- dir_650ee533936399e683a30afb9473a469 -->
<g id="node4" class="node">
<title>dir_650ee533936399e683a30afb9473a469</title>
<g id="a_node4"><a xlink:href="dir_650ee533936399e683a30afb9473a469.html" target="_top" xlink:title="interface">
<polygon fill="#a2b4d6" stroke="#404040" points="104,-35 44,-35 44,-16 104,-16 104,-35"/>
<text text-anchor="middle" x="74" y="-23" font-family="Helvetica,sans-Serif" font-size="10.00">interface</text>
</a>
</g>
</g>
<!-- dir_68267d1309a1af8e8297ef4c3efbcdba&#45;&gt;dir_650ee533936399e683a30afb9473a469 -->
<g id="edge2" class="edge">
<title>dir_68267d1309a1af8e8297ef4c3efbcdba&#45;&gt;dir_650ee533936399e683a30afb9473a469</title>
<path fill="none" stroke="#63b8ff" d="M112.35,-125.82C124.39,-113.54 142.68,-90.42 133,-71 126.43,-57.82 113.9,-47.52 102.07,-40.16"/>
<polygon fill="#63b8ff" stroke="#63b8ff" points="103.68,-37.05 93.27,-35.1 100.2,-43.12 103.68,-37.05"/>
<g id="a_edge2&#45;headlabel"><a xlink:href="dir_000005_000003.html" target="_top" xlink:title="12">
<text text-anchor="middle" x="108.21" y="-33.88" font-family="Helvetica,sans-Serif" font-size="10.00" fill="#63b8ff">12</text>
</a>
</g>
</g>
<!-- dir_63a79716ac36ae14e4cbc21f08c9941e&#45;&gt;dir_650ee533936399e683a30afb9473a469 -->
<g id="edge4" class="edge">
<title>dir_63a79716ac36ae14e4cbc21f08c9941e&#45;&gt;dir_650ee533936399e683a30afb9473a469</title>
<path fill="none" stroke="#63b8ff" d="M40.45,-70.75C43.64,-63.26 50.3,-52.28 57.02,-43.13"/>
<polygon fill="#63b8ff" stroke="#63b8ff" points="59.91,-45.11 63.36,-35.09 54.42,-40.77 59.91,-45.11"/>
<g id="a_edge4&#45;headlabel"><a xlink:href="dir_000000_000003.html" target="_top" xlink:title="7">
<text text-anchor="middle" x="59.92" y="-47.19" font-family="Helvetica,sans-Serif" font-size="10.00" fill="#63b8ff">7</text>
</a>
</g>
</g>
<!-- dir_bf82593a8ccbaa733e7aa840b4b0cd56&#45;&gt;dir_650ee533936399e683a30afb9473a469 -->
<g id="edge5" class="edge">
<title>dir_bf82593a8ccbaa733e7aa840b4b0cd56&#45;&gt;dir_650ee533936399e683a30afb9473a469</title>
<path fill="none" stroke="#63b8ff" d="M98.21,-70.75C94.24,-63.49 88.47,-52.95 83.57,-43.98"/>
<polygon fill="#63b8ff" stroke="#63b8ff" points="86.57,-42.18 78.7,-35.09 80.43,-45.54 86.57,-42.18"/>
<g id="a_edge5&#45;headlabel"><a xlink:href="dir_000001_000003.html" target="_top" xlink:title="3">
<text text-anchor="middle" x="90.79" y="-41.47" font-family="Helvetica,sans-Serif" font-size="10.00" fill="#63b8ff">3</text>
</a>
</g>
</g>
<!-- dir_650ee533936399e683a30afb9473a469&#45;&gt;dir_63a79716ac36ae14e4cbc21f08c9941e -->
<g id="edge6" class="edge">
<title>dir_650ee533936399e683a30afb9473a469&#45;&gt;dir_63a79716ac36ae14e4cbc21f08c9941e</title>
<path fill="none" stroke="#63b8ff" d="M73.62,-35.09C70.48,-42.52 63.84,-53.5 57.13,-62.67"/>
<polygon fill="#63b8ff" stroke="#63b8ff" points="54.21,-60.72 50.78,-70.75 59.71,-65.05 54.21,-60.72"/>
<g id="a_edge6&#45;headlabel"><a xlink:href="dir_000003_000000.html" target="_top" xlink:title="1">
<text text-anchor="middle" x="54.2" y="-53.64" font-family="Helvetica,sans-Serif" font-size="10.00" fill="#63b8ff">1</text>
</a>
</g>
</g>
</g>
</svg>
