<?xml version="1.0" encoding="UTF-8" standalone="no"?>
<!DOCTYPE svg PUBLIC "-//W3C//DTD SVG 1.1//EN"
 "http://www.w3.org/Graphics/SVG/1.1/DTD/svg11.dtd">
<!-- Generated by graphviz version 2.43.0 (0)
 -->
<!-- Title: src/entry/Entry.h Pages: 1 -->
<svg width="3932pt" height="379pt"
 viewBox="0.00 0.00 3932.00 379.00" xmlns="http://www.w3.org/2000/svg" xmlns:xlink="http://www.w3.org/1999/xlink">
<g id="graph0" class="graph" transform="scale(1 1) rotate(0) translate(4 375)">
<title>src/entry/Entry.h</title>
<!-- Node1 -->
<g id="node1" class="node">
<title>Node1</title>
<g id="a_node1"><a xlink:title=" ">
<polygon fill="#999999" stroke="#666666" points="3563,-371 3468,-371 3468,-352 3563,-352 3563,-371"/>
<text text-anchor="middle" x="3515.5" y="-359" font-family="Helvetica,sans-Serif" font-size="10.00">src/entry/Entry.h</text>
</a>
</g>
</g>
<!-- Node2 -->
<g id="node2" class="node">
<title>Node2</title>
<g id="a_node2"><a xlink:href="FileView_8h.html" target="_top" xlink:title=" ">
<polygon fill="white" stroke="#666666" points="3354,-316 3271,-316 3271,-297 3354,-297 3354,-316"/>
<text text-anchor="middle" x="3312.5" y="-304" font-family="Helvetica,sans-Serif" font-size="10.00">src/FileView.h</text>
</a>
</g>
</g>
<!-- Node1&#45;&gt;Node2 -->
<g id="edge1" class="edge">
<title>Node1&#45;&gt;Node2</title>
<path fill="none" stroke="#63b8ff" d="M3473.13,-349.44C3435.13,-339.52 3380.14,-325.16 3345.37,-316.08"/>
<polygon fill="#63b8ff" stroke="#63b8ff" points="3472.32,-352.84 3482.88,-351.98 3474.09,-346.07 3472.32,-352.84"/>
</g>
<!-- Node48 -->
<g id="node41" class="node">
<title>Node48</title>
<g id="a_node41"><a xlink:href="State_8h.html" target="_top" xlink:title=" ">
<polygon fill="white" stroke="#666666" points="3270.5,-261 3202.5,-261 3202.5,-242 3270.5,-242 3270.5,-261"/>
<text text-anchor="middle" x="3236.5" y="-249" font-family="Helvetica,sans-Serif" font-size="10.00">src/State.h</text>
</a>
</g>
</g>
<!-- Node1&#45;&gt;Node48 -->
<g id="edge58" class="edge">
<title>Node1&#45;&gt;Node48</title>
<path fill="none" stroke="#63b8ff" d="M3457.82,-356.88C3392.35,-351.68 3290.84,-339.95 3261.5,-316 3244.43,-302.06 3238.97,-274.86 3237.26,-261.02"/>
<polygon fill="#63b8ff" stroke="#63b8ff" points="3457.76,-360.39 3468,-357.66 3458.29,-353.41 3457.76,-360.39"/>
</g>
<!-- Node49 -->
<g id="node42" class="node">
<title>Node49</title>
<g id="a_node42"><a xlink:href="Utility_8h.html" target="_top" xlink:title=" ">
<polygon fill="white" stroke="#666666" points="3444,-316 3373,-316 3373,-297 3444,-297 3444,-316"/>
<text text-anchor="middle" x="3408.5" y="-304" font-family="Helvetica,sans-Serif" font-size="10.00">src/Utility.h</text>
</a>
</g>
</g>
<!-- Node1&#45;&gt;Node49 -->
<g id="edge62" class="edge">
<title>Node1&#45;&gt;Node49</title>
<path fill="none" stroke="#63b8ff" d="M3489.26,-347.5C3469.57,-337.75 3443.18,-324.68 3426,-316.17"/>
<polygon fill="#63b8ff" stroke="#63b8ff" points="3487.79,-350.68 3498.31,-351.98 3490.9,-344.41 3487.79,-350.68"/>
</g>
<!-- Node54 -->
<g id="node47" class="node">
<title>Node54</title>
<g id="a_node47"><a xlink:href="Entry_8cpp.html" target="_top" xlink:title=" ">
<polygon fill="white" stroke="#666666" points="3569,-316 3462,-316 3462,-297 3569,-297 3569,-316"/>
<text text-anchor="middle" x="3515.5" y="-304" font-family="Helvetica,sans-Serif" font-size="10.00">src/entry/Entry.cpp</text>
</a>
</g>
</g>
<!-- Node1&#45;&gt;Node54 -->
<g id="edge69" class="edge">
<title>Node1&#45;&gt;Node54</title>
<path fill="none" stroke="#63b8ff" d="M3515.5,-341.66C3515.5,-332.93 3515.5,-322.99 3515.5,-316.09"/>
<polygon fill="#63b8ff" stroke="#63b8ff" points="3512,-341.75 3515.5,-351.75 3519,-341.75 3512,-341.75"/>
</g>
<!-- Node55 -->
<g id="node48" class="node">
<title>Node55</title>
<g id="a_node48"><a xlink:href="File_8h.html" target="_top" xlink:title=" ">
<polygon fill="white" stroke="#666666" points="3676,-316 3587,-316 3587,-297 3676,-297 3676,-316"/>
<text text-anchor="middle" x="3631.5" y="-304" font-family="Helvetica,sans-Serif" font-size="10.00">src/entry/File.h</text>
</a>
</g>
</g>
<!-- Node1&#45;&gt;Node55 -->
<g id="edge70" class="edge">
<title>Node1&#45;&gt;Node55</title>
<path fill="none" stroke="#63b8ff" d="M3543.37,-347.77C3564.77,-337.99 3593.74,-324.75 3612.52,-316.17"/>
<polygon fill="#63b8ff" stroke="#63b8ff" points="3541.78,-344.65 3534.14,-351.98 3544.69,-351.01 3541.78,-344.65"/>
</g>
<!-- Node56 -->
<g id="node49" class="node">
<title>Node56</title>
<g id="a_node49"><a xlink:href="Folder_8h.html" target="_top" xlink:title=" ">
<polygon fill="white" stroke="#666666" points="3795,-316 3694,-316 3694,-297 3795,-297 3795,-316"/>
<text text-anchor="middle" x="3744.5" y="-304" font-family="Helvetica,sans-Serif" font-size="10.00">src/entry/Folder.h</text>
</a>
</g>
</g>
<!-- Node1&#45;&gt;Node56 -->
<g id="edge73" class="edge">
<title>Node1&#45;&gt;Node56</title>
<path fill="none" stroke="#63b8ff" d="M3562.21,-349.69C3605.11,-339.76 3667.86,-325.24 3707.42,-316.08"/>
<polygon fill="#63b8ff" stroke="#63b8ff" points="3561.25,-346.32 3552.29,-351.98 3562.82,-353.14 3561.25,-346.32"/>
</g>
<!-- Node57 -->
<g id="node50" class="node">
<title>Node57</title>
<g id="a_node50"><a xlink:href="Symlink_8h.html" target="_top" xlink:title=" ">
<polygon fill="white" stroke="#666666" points="3924,-316 3813,-316 3813,-297 3924,-297 3924,-316"/>
<text text-anchor="middle" x="3868.5" y="-304" font-family="Helvetica,sans-Serif" font-size="10.00">src/entry/Symlink.h</text>
</a>
</g>
</g>
<!-- Node1&#45;&gt;Node57 -->
<g id="edge76" class="edge">
<title>Node1&#45;&gt;Node57</title>
<path fill="none" stroke="#63b8ff" d="M3573.38,-351.81C3639.7,-341.85 3747.62,-325.65 3812.95,-315.84"/>
<polygon fill="#63b8ff" stroke="#63b8ff" points="3572.48,-348.41 3563.11,-353.35 3573.52,-355.33 3572.48,-348.41"/>
</g>
<!-- Node3 -->
<g id="node3" class="node">
<title>Node3</title>
<g id="a_node3"><a xlink:href="FileView_8cpp.html" target="_top" xlink:title=" ">
<polygon fill="white" stroke="#666666" points="3422,-261 3327,-261 3327,-242 3422,-242 3422,-261"/>
<text text-anchor="middle" x="3374.5" y="-249" font-family="Helvetica,sans-Serif" font-size="10.00">src/FileView.cpp</text>
</a>
</g>
</g>
<!-- Node2&#45;&gt;Node3 -->
<g id="edge2" class="edge">
<title>Node2&#45;&gt;Node3</title>
<path fill="none" stroke="#63b8ff" d="M3330.25,-290.32C3341.31,-280.87 3355.13,-269.06 3364.36,-261.17"/>
<polygon fill="#63b8ff" stroke="#63b8ff" points="3327.79,-287.83 3322.46,-296.98 3332.34,-293.15 3327.79,-287.83"/>
</g>
<!-- Node4 -->
<g id="node4" class="node">
<title>Node4</title>
<g id="a_node4"><a xlink:href="Action_8h.html" target="_top" xlink:title=" ">
<polygon fill="white" stroke="#666666" points="3194,-206 3087,-206 3087,-187 3194,-187 3194,-206"/>
<text text-anchor="middle" x="3140.5" y="-194" font-family="Helvetica,sans-Serif" font-size="10.00">src/action/Action.h</text>
</a>
</g>
</g>
<!-- Node2&#45;&gt;Node4 -->
<g id="edge3" class="edge">
<title>Node2&#45;&gt;Node4</title>
<path fill="none" stroke="#63b8ff" d="M3265.89,-294.18C3242.74,-287.1 3215.15,-276.34 3193.5,-261 3171.94,-245.72 3153.99,-219.6 3145.6,-206.12"/>
<polygon fill="#63b8ff" stroke="#63b8ff" points="3264.94,-297.55 3275.52,-297 3266.9,-290.83 3264.94,-297.55"/>
</g>
<!-- Node44 -->
<g id="node37" class="node">
<title>Node44</title>
<g id="a_node37"><a xlink:href="Interface_8h.html" target="_top" xlink:title=" ">
<polygon fill="white" stroke="#666666" points="3232,-151 3099,-151 3099,-132 3232,-132 3232,-151"/>
<text text-anchor="middle" x="3165.5" y="-139" font-family="Helvetica,sans-Serif" font-size="10.00">src/interface/Interface.h</text>
</a>
</g>
</g>
<!-- Node2&#45;&gt;Node44 -->
<g id="edge57" class="edge">
<title>Node2&#45;&gt;Node44</title>
<path fill="none" stroke="#63b8ff" d="M3304.98,-287.36C3299.06,-274.14 3290.06,-256.14 3279.5,-242 3249.8,-202.21 3201.82,-166.94 3178.74,-151.2"/>
<polygon fill="#63b8ff" stroke="#63b8ff" points="3301.86,-288.98 3309.04,-296.77 3308.29,-286.2 3301.86,-288.98"/>
</g>
<!-- Node5 -->
<g id="node5" class="node">
<title>Node5</title>
<g id="a_node5"><a xlink:href="ForEachAction_8h.html" target="_top" xlink:title=" ">
<polygon fill="white" stroke="#666666" points="2922,-151 2777,-151 2777,-132 2922,-132 2922,-151"/>
<text text-anchor="middle" x="2849.5" y="-139" font-family="Helvetica,sans-Serif" font-size="10.00">src/action/ForEachAction.h</text>
</a>
</g>
</g>
<!-- Node4&#45;&gt;Node5 -->
<g id="edge4" class="edge">
<title>Node4&#45;&gt;Node5</title>
<path fill="none" stroke="#63b8ff" d="M3083.89,-185.19C3029.33,-175.25 2947.74,-160.39 2896.62,-151.08"/>
<polygon fill="#63b8ff" stroke="#63b8ff" points="3083.28,-188.64 3093.75,-186.98 3084.53,-181.75 3083.28,-188.64"/>
</g>
<!-- Node14 -->
<g id="node14" class="node">
<title>Node14</title>
<g id="a_node14"><a xlink:href="OnceAction_8h.html" target="_top" xlink:title=" ">
<polygon fill="white" stroke="#666666" points="1440,-151 1309,-151 1309,-132 1440,-132 1440,-151"/>
<text text-anchor="middle" x="1374.5" y="-139" font-family="Helvetica,sans-Serif" font-size="10.00">src/action/OnceAction.h</text>
</a>
</g>
</g>
<!-- Node4&#45;&gt;Node14 -->
<g id="edge15" class="edge">
<title>Node4&#45;&gt;Node14</title>
<path fill="none" stroke="#63b8ff" d="M3076.46,-193.58C2801.04,-185.31 1718.66,-152.83 1440.14,-144.47"/>
<polygon fill="#63b8ff" stroke="#63b8ff" points="3076.58,-197.08 3086.68,-193.88 3076.79,-190.09 3076.58,-197.08"/>
</g>
<!-- Node4&#45;&gt;Node44 -->
<g id="edge52" class="edge">
<title>Node4&#45;&gt;Node44</title>
<path fill="none" stroke="#63b8ff" d="M3148.98,-177.53C3153.19,-168.6 3158.09,-158.22 3161.45,-151.09"/>
<polygon fill="#63b8ff" stroke="#63b8ff" points="3145.73,-176.21 3144.63,-186.75 3152.06,-179.2 3145.73,-176.21"/>
</g>
<!-- Node6 -->
<g id="node6" class="node">
<title>Node6</title>
<g id="a_node6"><a xlink:href="ForEachAction_8cpp.html" target="_top" xlink:title=" ">
<polygon fill="white" stroke="#666666" points="3075.5,-90.5 2919.5,-90.5 2919.5,-71.5 3075.5,-71.5 3075.5,-90.5"/>
<text text-anchor="middle" x="2997.5" y="-78.5" font-family="Helvetica,sans-Serif" font-size="10.00">src/action/ForEachAction.cpp</text>
</a>
</g>
</g>
<!-- Node5&#45;&gt;Node6 -->
<g id="edge5" class="edge">
<title>Node5&#45;&gt;Node6</title>
<path fill="none" stroke="#63b8ff" d="M2880.54,-128.23C2909.14,-116.92 2950.84,-100.44 2975.95,-90.52"/>
<polygon fill="#63b8ff" stroke="#63b8ff" points="2879.03,-125.06 2871.02,-131.99 2881.61,-131.57 2879.03,-125.06"/>
</g>
<!-- Node7 -->
<g id="node7" class="node">
<title>Node7</title>
<g id="a_node7"><a xlink:href="CopyAction_8h.html" target="_top" xlink:title=" ">
<polygon fill="white" stroke="#666666" points="2657.5,-96 2553.5,-96 2553.5,-66 2657.5,-66 2657.5,-96"/>
<text text-anchor="start" x="2561.5" y="-84" font-family="Helvetica,sans-Serif" font-size="10.00">src/action/foreach</text>
<text text-anchor="middle" x="2605.5" y="-73" font-family="Helvetica,sans-Serif" font-size="10.00">/CopyAction.h</text>
</a>
</g>
</g>
<!-- Node5&#45;&gt;Node7 -->
<g id="edge6" class="edge">
<title>Node5&#45;&gt;Node7</title>
<path fill="none" stroke="#63b8ff" d="M2804.18,-129.63C2762.66,-119.68 2701.22,-104.95 2657.67,-94.51"/>
<polygon fill="#63b8ff" stroke="#63b8ff" points="2803.48,-133.07 2814.02,-131.99 2805.11,-126.26 2803.48,-133.07"/>
</g>
<!-- Node10 -->
<g id="node10" class="node">
<title>Node10</title>
<g id="a_node10"><a xlink:href="DeleteAction_8h.html" target="_top" xlink:title=" ">
<polygon fill="white" stroke="#666666" points="2779.5,-96 2675.5,-96 2675.5,-66 2779.5,-66 2779.5,-96"/>
<text text-anchor="start" x="2683.5" y="-84" font-family="Helvetica,sans-Serif" font-size="10.00">src/action/foreach</text>
<text text-anchor="middle" x="2727.5" y="-73" font-family="Helvetica,sans-Serif" font-size="10.00">/DeleteAction.h</text>
</a>
</g>
</g>
<!-- Node5&#45;&gt;Node10 -->
<g id="edge9" class="edge">
<title>Node5&#45;&gt;Node10</title>
<path fill="none" stroke="#63b8ff" d="M2822.57,-127.59C2803.19,-118.29 2777.03,-105.75 2757.07,-96.18"/>
<polygon fill="#63b8ff" stroke="#63b8ff" points="2821.23,-130.83 2831.76,-131.99 2824.26,-124.51 2821.23,-130.83"/>
</g>
<!-- Node12 -->
<g id="node12" class="node">
<title>Node12</title>
<g id="a_node12"><a xlink:href="MoveAction_8h.html" target="_top" xlink:title=" ">
<polygon fill="white" stroke="#666666" points="2901.5,-96 2797.5,-96 2797.5,-66 2901.5,-66 2901.5,-96"/>
<text text-anchor="start" x="2805.5" y="-84" font-family="Helvetica,sans-Serif" font-size="10.00">src/action/foreach</text>
<text text-anchor="middle" x="2849.5" y="-73" font-family="Helvetica,sans-Serif" font-size="10.00">/MoveAction.h</text>
</a>
</g>
</g>
<!-- Node5&#45;&gt;Node12 -->
<g id="edge12" class="edge">
<title>Node5&#45;&gt;Node12</title>
<path fill="none" stroke="#63b8ff" d="M2849.5,-121.65C2849.5,-113.36 2849.5,-103.78 2849.5,-96.11"/>
<polygon fill="#63b8ff" stroke="#63b8ff" points="2846,-121.87 2849.5,-131.87 2853,-121.87 2846,-121.87"/>
</g>
<!-- Node8 -->
<g id="node8" class="node">
<title>Node8</title>
<g id="a_node8"><a xlink:href="CopyAction_8cpp.html" target="_top" xlink:title=" ">
<polygon fill="white" stroke="#666666" points="2657.5,-30 2553.5,-30 2553.5,0 2657.5,0 2657.5,-30"/>
<text text-anchor="start" x="2561.5" y="-18" font-family="Helvetica,sans-Serif" font-size="10.00">src/action/foreach</text>
<text text-anchor="middle" x="2605.5" y="-7" font-family="Helvetica,sans-Serif" font-size="10.00">/CopyAction.cpp</text>
</a>
</g>
</g>
<!-- Node7&#45;&gt;Node8 -->
<g id="edge7" class="edge">
<title>Node7&#45;&gt;Node8</title>
<path fill="none" stroke="#63b8ff" d="M2605.5,-55.54C2605.5,-46.96 2605.5,-37.61 2605.5,-30.16"/>
<polygon fill="#63b8ff" stroke="#63b8ff" points="2602,-55.8 2605.5,-65.8 2609,-55.8 2602,-55.8"/>
</g>
<!-- Node9 -->
<g id="node9" class="node">
<title>Node9</title>
<g id="a_node9"><a xlink:href="main_8cpp.html" target="_top" xlink:title=" ">
<polygon fill="white" stroke="#666666" points="1587,-24.5 1508,-24.5 1508,-5.5 1587,-5.5 1587,-24.5"/>
<text text-anchor="middle" x="1547.5" y="-12.5" font-family="Helvetica,sans-Serif" font-size="10.00">src/main.cpp</text>
</a>
</g>
</g>
<!-- Node7&#45;&gt;Node9 -->
<g id="edge8" class="edge">
<title>Node7&#45;&gt;Node9</title>
<path fill="none" stroke="#63b8ff" d="M2543.23,-66.2C2334.34,-39.42 1745.44,-21.52 1587.08,-17.08"/>
<polygon fill="#63b8ff" stroke="#63b8ff" points="2542.81,-69.67 2553.19,-67.52 2543.73,-62.74 2542.81,-69.67"/>
</g>
<!-- Node10&#45;&gt;Node9 -->
<g id="edge11" class="edge">
<title>Node10&#45;&gt;Node9</title>
<path fill="none" stroke="#63b8ff" d="M2665.16,-66.13C2518.47,-49.86 1768.51,-23.55 1587.05,-17.34"/>
<polygon fill="#63b8ff" stroke="#63b8ff" points="2665.02,-69.64 2675.37,-67.38 2665.87,-62.69 2665.02,-69.64"/>
</g>
<!-- Node11 -->
<g id="node11" class="node">
<title>Node11</title>
<g id="a_node11"><a xlink:href="DeleteAction_8cpp.html" target="_top" xlink:title=" ">
<polygon fill="white" stroke="#666666" points="2779.5,-30 2675.5,-30 2675.5,0 2779.5,0 2779.5,-30"/>
<text text-anchor="start" x="2683.5" y="-18" font-family="Helvetica,sans-Serif" font-size="10.00">src/action/foreach</text>
<text text-anchor="middle" x="2727.5" y="-7" font-family="Helvetica,sans-Serif" font-size="10.00">/DeleteAction.cpp</text>
</a>
</g>
</g>
<!-- Node10&#45;&gt;Node11 -->
<g id="edge10" class="edge">
<title>Node10&#45;&gt;Node11</title>
<path fill="none" stroke="#63b8ff" d="M2727.5,-55.54C2727.5,-46.96 2727.5,-37.61 2727.5,-30.16"/>
<polygon fill="#63b8ff" stroke="#63b8ff" points="2724,-55.8 2727.5,-65.8 2731,-55.8 2724,-55.8"/>
</g>
<!-- Node12&#45;&gt;Node9 -->
<g id="edge14" class="edge">
<title>Node12&#45;&gt;Node9</title>
<path fill="none" stroke="#63b8ff" d="M2787.01,-66.12C2626.35,-48.55 1781.57,-22.9 1587.33,-17.16"/>
<polygon fill="#63b8ff" stroke="#63b8ff" points="2787.03,-69.64 2797.37,-67.37 2787.86,-62.7 2787.03,-69.64"/>
</g>
<!-- Node13 -->
<g id="node13" class="node">
<title>Node13</title>
<g id="a_node13"><a xlink:href="MoveAction_8cpp.html" target="_top" xlink:title=" ">
<polygon fill="white" stroke="#666666" points="2901.5,-30 2797.5,-30 2797.5,0 2901.5,0 2901.5,-30"/>
<text text-anchor="start" x="2805.5" y="-18" font-family="Helvetica,sans-Serif" font-size="10.00">src/action/foreach</text>
<text text-anchor="middle" x="2849.5" y="-7" font-family="Helvetica,sans-Serif" font-size="10.00">/MoveAction.cpp</text>
</a>
</g>
</g>
<!-- Node12&#45;&gt;Node13 -->
<g id="edge13" class="edge">
<title>Node12&#45;&gt;Node13</title>
<path fill="none" stroke="#63b8ff" d="M2849.5,-55.54C2849.5,-46.96 2849.5,-37.61 2849.5,-30.16"/>
<polygon fill="#63b8ff" stroke="#63b8ff" points="2846,-55.8 2849.5,-65.8 2853,-55.8 2846,-55.8"/>
</g>
<!-- Node15 -->
<g id="node15" class="node">
<title>Node15</title>
<g id="a_node15"><a xlink:href="OnceAction_8cpp.html" target="_top" xlink:title=" ">
<polygon fill="white" stroke="#666666" points="2350,-90.5 2207,-90.5 2207,-71.5 2350,-71.5 2350,-90.5"/>
<text text-anchor="middle" x="2278.5" y="-78.5" font-family="Helvetica,sans-Serif" font-size="10.00">src/action/OnceAction.cpp</text>
</a>
</g>
</g>
<!-- Node14&#45;&gt;Node15 -->
<g id="edge16" class="edge">
<title>Node14&#45;&gt;Node15</title>
<path fill="none" stroke="#63b8ff" d="M1450.2,-139.37C1595.52,-136.54 1923.44,-126.99 2197.5,-96 2209.55,-94.64 2222.53,-92.64 2234.49,-90.57"/>
<polygon fill="#63b8ff" stroke="#63b8ff" points="1449.99,-135.87 1440.06,-139.56 1450.13,-142.87 1449.99,-135.87"/>
</g>
<!-- Node16 -->
<g id="node16" class="node">
<title>Node16</title>
<g id="a_node16"><a xlink:href="ConcatAction_8h.html" target="_top" xlink:title=" ">
<polygon fill="white" stroke="#666666" points="2535,-90.5 2368,-90.5 2368,-71.5 2535,-71.5 2535,-90.5"/>
<text text-anchor="middle" x="2451.5" y="-78.5" font-family="Helvetica,sans-Serif" font-size="10.00">src/action/once/ConcatAction.h</text>
</a>
</g>
</g>
<!-- Node14&#45;&gt;Node16 -->
<g id="edge17" class="edge">
<title>Node14&#45;&gt;Node16</title>
<path fill="none" stroke="#63b8ff" d="M1450.07,-139.76C1615.25,-137.57 2020.71,-128.97 2358.5,-96 2372.48,-94.64 2387.56,-92.61 2401.42,-90.52"/>
<polygon fill="#63b8ff" stroke="#63b8ff" points="1449.97,-136.26 1440.01,-139.89 1450.06,-143.26 1449.97,-136.26"/>
</g>
<!-- Node18 -->
<g id="node18" class="node">
<title>Node18</title>
<g id="a_node18"><a xlink:href="CreateFileAction_8h.html" target="_top" xlink:title=" ">
<polygon fill="white" stroke="#666666" points="143,-96 0,-96 0,-66 143,-66 143,-96"/>
<text text-anchor="start" x="8" y="-84" font-family="Helvetica,sans-Serif" font-size="10.00">src/action/once/CreateFile</text>
<text text-anchor="middle" x="71.5" y="-73" font-family="Helvetica,sans-Serif" font-size="10.00">Action.h</text>
</a>
</g>
</g>
<!-- Node14&#45;&gt;Node18 -->
<g id="edge20" class="edge">
<title>Node14&#45;&gt;Node18</title>
<path fill="none" stroke="#63b8ff" d="M1298.36,-139.1C1067.16,-134.62 375.47,-119.56 151.5,-96 148.84,-95.72 146.13,-95.4 143.39,-95.06"/>
<polygon fill="#63b8ff" stroke="#63b8ff" points="1298.62,-142.6 1308.69,-139.29 1298.76,-135.6 1298.62,-142.6"/>
</g>
<!-- Node20 -->
<g id="node20" class="node">
<title>Node20</title>
<g id="a_node20"><a xlink:href="CreateFolderAction_8h.html" target="_top" xlink:title=" ">
<polygon fill="white" stroke="#666666" points="316,-96 161,-96 161,-66 316,-66 316,-96"/>
<text text-anchor="start" x="169" y="-84" font-family="Helvetica,sans-Serif" font-size="10.00">src/action/once/CreateFolder</text>
<text text-anchor="middle" x="238.5" y="-73" font-family="Helvetica,sans-Serif" font-size="10.00">Action.h</text>
</a>
</g>
</g>
<!-- Node14&#45;&gt;Node20 -->
<g id="edge23" class="edge">
<title>Node14&#45;&gt;Node20</title>
<path fill="none" stroke="#63b8ff" d="M1298.86,-140.38C1125.86,-139.42 688.21,-133.18 324.5,-96 321.79,-95.72 319.04,-95.42 316.26,-95.08"/>
<polygon fill="#63b8ff" stroke="#63b8ff" points="1298.86,-143.88 1308.88,-140.43 1298.9,-136.88 1298.86,-143.88"/>
</g>
<!-- Node22 -->
<g id="node22" class="node">
<title>Node22</title>
<g id="a_node22"><a xlink:href="CreateSymlinkAction_8h.html" target="_top" xlink:title=" ">
<polygon fill="white" stroke="#666666" points="499,-96 334,-96 334,-66 499,-66 499,-96"/>
<text text-anchor="start" x="342" y="-84" font-family="Helvetica,sans-Serif" font-size="10.00">src/action/once/CreateSymlink</text>
<text text-anchor="middle" x="416.5" y="-73" font-family="Helvetica,sans-Serif" font-size="10.00">Action.h</text>
</a>
</g>
</g>
<!-- Node14&#45;&gt;Node22 -->
<g id="edge26" class="edge">
<title>Node14&#45;&gt;Node22</title>
<path fill="none" stroke="#63b8ff" d="M1298.8,-139.15C1148.03,-135.89 799.68,-125.56 508.5,-96 505.45,-95.69 502.34,-95.35 499.2,-94.98"/>
<polygon fill="#63b8ff" stroke="#63b8ff" points="1298.8,-142.65 1308.88,-139.36 1298.95,-135.65 1298.8,-142.65"/>
</g>
<!-- Node24 -->
<g id="node24" class="node">
<title>Node24</title>
<g id="a_node24"><a xlink:href="CursorDownAction_8h.html" target="_top" xlink:title=" ">
<polygon fill="white" stroke="#666666" points="669.5,-96 517.5,-96 517.5,-66 669.5,-66 669.5,-96"/>
<text text-anchor="start" x="525.5" y="-84" font-family="Helvetica,sans-Serif" font-size="10.00">src/action/once/CursorDown</text>
<text text-anchor="middle" x="593.5" y="-73" font-family="Helvetica,sans-Serif" font-size="10.00">Action.h</text>
</a>
</g>
</g>
<!-- Node14&#45;&gt;Node24 -->
<g id="edge29" class="edge">
<title>Node14&#45;&gt;Node24</title>
<path fill="none" stroke="#63b8ff" d="M1298.47,-138.11C1170.27,-133.53 903.09,-121.61 678.5,-96 675.68,-95.68 672.8,-95.33 669.91,-94.95"/>
<polygon fill="#63b8ff" stroke="#63b8ff" points="1298.46,-141.61 1308.57,-138.47 1298.7,-134.62 1298.46,-141.61"/>
</g>
<!-- Node26 -->
<g id="node26" class="node">
<title>Node26</title>
<g id="a_node26"><a xlink:href="CursorUpAction_8h.html" target="_top" xlink:title=" ">
<polygon fill="white" stroke="#666666" points="825.5,-96 687.5,-96 687.5,-66 825.5,-66 825.5,-96"/>
<text text-anchor="start" x="695.5" y="-84" font-family="Helvetica,sans-Serif" font-size="10.00">src/action/once/CursorUp</text>
<text text-anchor="middle" x="756.5" y="-73" font-family="Helvetica,sans-Serif" font-size="10.00">Action.h</text>
</a>
</g>
</g>
<!-- Node14&#45;&gt;Node26 -->
<g id="edge32" class="edge">
<title>Node14&#45;&gt;Node26</title>
<path fill="none" stroke="#63b8ff" d="M1298.45,-136.53C1193.7,-130.53 999.24,-117.52 834.5,-96 831.64,-95.63 828.72,-95.22 825.77,-94.79"/>
<polygon fill="#63b8ff" stroke="#63b8ff" points="1298.44,-140.03 1308.62,-137.1 1298.83,-133.04 1298.44,-140.03"/>
</g>
<!-- Node28 -->
<g id="node28" class="node">
<title>Node28</title>
<g id="a_node28"><a xlink:href="DeduplicateAction_8h.html" target="_top" xlink:title=" ">
<polygon fill="white" stroke="#666666" points="2188.5,-96 2036.5,-96 2036.5,-66 2188.5,-66 2188.5,-96"/>
<text text-anchor="start" x="2044.5" y="-84" font-family="Helvetica,sans-Serif" font-size="10.00">src/action/once/Deduplicate</text>
<text text-anchor="middle" x="2112.5" y="-73" font-family="Helvetica,sans-Serif" font-size="10.00">Action.h</text>
</a>
</g>
</g>
<!-- Node14&#45;&gt;Node28 -->
<g id="edge35" class="edge">
<title>Node14&#45;&gt;Node28</title>
<path fill="none" stroke="#63b8ff" d="M1450.37,-137.68C1572.33,-132.61 1819.39,-120.17 2027.5,-96 2030.32,-95.67 2033.19,-95.32 2036.09,-94.94"/>
<polygon fill="#63b8ff" stroke="#63b8ff" points="1449.88,-134.19 1440.03,-138.1 1450.17,-141.19 1449.88,-134.19"/>
</g>
<!-- Node30 -->
<g id="node30" class="node">
<title>Node30</title>
<g id="a_node30"><a xlink:href="GoBackAction_8h.html" target="_top" xlink:title=" ">
<polygon fill="#fff0f0" stroke="red" points="1013.5,-90.5 843.5,-90.5 843.5,-71.5 1013.5,-71.5 1013.5,-90.5"/>
<text text-anchor="middle" x="928.5" y="-78.5" font-family="Helvetica,sans-Serif" font-size="10.00">src/action/once/GoBackAction.h</text>
</a>
</g>
</g>
<!-- Node14&#45;&gt;Node30 -->
<g id="edge38" class="edge">
<title>Node14&#45;&gt;Node30</title>
<path fill="none" stroke="#63b8ff" d="M1298.68,-131.41C1227.35,-122.73 1117.59,-109.09 1022.5,-96 1010.24,-94.31 997.1,-92.41 984.64,-90.57"/>
<polygon fill="#63b8ff" stroke="#63b8ff" points="1298.57,-134.92 1308.92,-132.65 1299.41,-127.97 1298.57,-134.92"/>
</g>
<!-- Node32 -->
<g id="node31" class="node">
<title>Node32</title>
<g id="a_node31"><a xlink:href="ManualSelectAction_8h.html" target="_top" xlink:title=" ">
<polygon fill="#fff0f0" stroke="red" points="1191,-96 1032,-96 1032,-66 1191,-66 1191,-96"/>
<text text-anchor="start" x="1040" y="-84" font-family="Helvetica,sans-Serif" font-size="10.00">src/action/once/ManualSelect</text>
<text text-anchor="middle" x="1111.5" y="-73" font-family="Helvetica,sans-Serif" font-size="10.00">Action.h</text>
</a>
</g>
</g>
<!-- Node14&#45;&gt;Node32 -->
<g id="edge40" class="edge">
<title>Node14&#45;&gt;Node32</title>
<path fill="none" stroke="#63b8ff" d="M1326.4,-129.8C1283.73,-120.31 1221.12,-106.38 1174.47,-96.01"/>
<polygon fill="#63b8ff" stroke="#63b8ff" points="1325.74,-133.24 1336.26,-131.99 1327.26,-126.41 1325.74,-133.24"/>
</g>
<!-- Node34 -->
<g id="node32" class="node">
<title>Node34</title>
<g id="a_node32"><a xlink:href="OpenAction_8h.html" target="_top" xlink:title=" ">
<polygon fill="#fff0f0" stroke="red" points="1366.5,-90.5 1208.5,-90.5 1208.5,-71.5 1366.5,-71.5 1366.5,-90.5"/>
<text text-anchor="middle" x="1287.5" y="-78.5" font-family="Helvetica,sans-Serif" font-size="10.00">src/action/once/OpenAction.h</text>
</a>
</g>
</g>
<!-- Node14&#45;&gt;Node34 -->
<g id="edge42" class="edge">
<title>Node14&#45;&gt;Node34</title>
<path fill="none" stroke="#63b8ff" d="M1353.17,-126.16C1336.64,-115.05 1314.29,-100.01 1300.39,-90.67"/>
<polygon fill="#63b8ff" stroke="#63b8ff" points="1351.41,-129.19 1361.66,-131.87 1355.32,-123.38 1351.41,-129.19"/>
</g>
<!-- Node36 -->
<g id="node33" class="node">
<title>Node36</title>
<g id="a_node33"><a xlink:href="QuitAction_8h.html" target="_top" xlink:title=" ">
<polygon fill="#fff0f0" stroke="red" points="1538,-90.5 1385,-90.5 1385,-71.5 1538,-71.5 1538,-90.5"/>
<text text-anchor="middle" x="1461.5" y="-78.5" font-family="Helvetica,sans-Serif" font-size="10.00">src/action/once/QuitAction.h</text>
</a>
</g>
</g>
<!-- Node14&#45;&gt;Node36 -->
<g id="edge44" class="edge">
<title>Node14&#45;&gt;Node36</title>
<path fill="none" stroke="#63b8ff" d="M1395.83,-126.16C1412.36,-115.05 1434.71,-100.01 1448.61,-90.67"/>
<polygon fill="#63b8ff" stroke="#63b8ff" points="1393.68,-123.38 1387.34,-131.87 1397.59,-129.19 1393.68,-123.38"/>
</g>
<!-- Node38 -->
<g id="node34" class="node">
<title>Node38</title>
<g id="a_node34"><a xlink:href="RegexSelectAction_8h.html" target="_top" xlink:title=" ">
<polygon fill="#fff0f0" stroke="red" points="1710.5,-96 1556.5,-96 1556.5,-66 1710.5,-66 1710.5,-96"/>
<text text-anchor="start" x="1564.5" y="-84" font-family="Helvetica,sans-Serif" font-size="10.00">src/action/once/RegexSelect</text>
<text text-anchor="middle" x="1633.5" y="-73" font-family="Helvetica,sans-Serif" font-size="10.00">Action.h</text>
</a>
</g>
</g>
<!-- Node14&#45;&gt;Node38 -->
<g id="edge46" class="edge">
<title>Node14&#45;&gt;Node38</title>
<path fill="none" stroke="#63b8ff" d="M1422.14,-129.74C1464.15,-120.25 1525.64,-106.36 1571.48,-96.01"/>
<polygon fill="#63b8ff" stroke="#63b8ff" points="1421.14,-126.38 1412.16,-131.99 1422.69,-133.2 1421.14,-126.38"/>
</g>
<!-- Node40 -->
<g id="node35" class="node">
<title>Node40</title>
<g id="a_node35"><a xlink:href="SelectByContentAction_8h.html" target="_top" xlink:title=" ">
<polygon fill="#fff0f0" stroke="red" points="1864.5,-96 1728.5,-96 1728.5,-66 1864.5,-66 1864.5,-96"/>
<text text-anchor="start" x="1736.5" y="-84" font-family="Helvetica,sans-Serif" font-size="10.00">src/action/once/SelectBy</text>
<text text-anchor="middle" x="1796.5" y="-73" font-family="Helvetica,sans-Serif" font-size="10.00">ContentAction.h</text>
</a>
</g>
</g>
<!-- Node14&#45;&gt;Node40 -->
<g id="edge48" class="edge">
<title>Node14&#45;&gt;Node40</title>
<path fill="none" stroke="#63b8ff" d="M1450.19,-131.87C1520.2,-123.63 1627.07,-110.35 1719.5,-96 1722.32,-95.56 1725.19,-95.1 1728.1,-94.63"/>
<polygon fill="#63b8ff" stroke="#63b8ff" points="1449.66,-128.41 1440.14,-133.05 1450.48,-135.37 1449.66,-128.41"/>
</g>
<!-- Node42 -->
<g id="node36" class="node">
<title>Node42</title>
<g id="a_node36"><a xlink:href="UnselectAllAction_8h.html" target="_top" xlink:title=" ">
<polygon fill="#fff0f0" stroke="red" points="2018.5,-96 1882.5,-96 1882.5,-66 2018.5,-66 2018.5,-96"/>
<text text-anchor="start" x="1890.5" y="-84" font-family="Helvetica,sans-Serif" font-size="10.00">src/action/once/Unselect</text>
<text text-anchor="middle" x="1950.5" y="-73" font-family="Helvetica,sans-Serif" font-size="10.00">AllAction.h</text>
</a>
</g>
</g>
<!-- Node14&#45;&gt;Node42 -->
<g id="edge50" class="edge">
<title>Node14&#45;&gt;Node42</title>
<path fill="none" stroke="#63b8ff" d="M1450.21,-135.9C1548.19,-129.45 1724.07,-116.2 1873.5,-96 1876.33,-95.62 1879.21,-95.2 1882.12,-94.77"/>
<polygon fill="#63b8ff" stroke="#63b8ff" points="1449.85,-132.41 1440.1,-136.56 1450.31,-139.4 1449.85,-132.41"/>
</g>
<!-- Node16&#45;&gt;Node9 -->
<g id="edge19" class="edge">
<title>Node16&#45;&gt;Node9</title>
<path fill="none" stroke="#63b8ff" d="M2390.4,-70.02C2379.78,-68.51 2368.84,-67.09 2358.5,-66 2063.21,-34.73 1705.2,-21.08 1587.27,-17.21"/>
<polygon fill="#63b8ff" stroke="#63b8ff" points="2390.04,-73.5 2400.44,-71.49 2391.05,-66.58 2390.04,-73.5"/>
</g>
<!-- Node17 -->
<g id="node17" class="node">
<title>Node17</title>
<g id="a_node17"><a xlink:href="ConcatAction_8cpp.html" target="_top" xlink:title=" ">
<polygon fill="white" stroke="#666666" points="2535.5,-24.5 2357.5,-24.5 2357.5,-5.5 2535.5,-5.5 2535.5,-24.5"/>
<text text-anchor="middle" x="2446.5" y="-12.5" font-family="Helvetica,sans-Serif" font-size="10.00">src/action/once/ConcatAction.cpp</text>
</a>
</g>
</g>
<!-- Node16&#45;&gt;Node17 -->
<g id="edge18" class="edge">
<title>Node16&#45;&gt;Node17</title>
<path fill="none" stroke="#63b8ff" d="M2450.02,-61.08C2449.09,-49.13 2447.92,-34.22 2447.2,-24.91"/>
<polygon fill="#63b8ff" stroke="#63b8ff" points="2446.56,-61.67 2450.83,-71.37 2453.54,-61.13 2446.56,-61.67"/>
</g>
<!-- Node18&#45;&gt;Node9 -->
<g id="edge22" class="edge">
<title>Node18&#45;&gt;Node9</title>
<path fill="none" stroke="#63b8ff" d="M153.54,-65.9C445.58,-36.91 1311.53,-20.18 1507.7,-16.69"/>
<polygon fill="#63b8ff" stroke="#63b8ff" points="152.99,-62.44 143.39,-66.94 153.7,-69.4 152.99,-62.44"/>
</g>
<!-- Node19 -->
<g id="node19" class="node">
<title>Node19</title>
<g id="a_node19"><a xlink:href="CreateFileAction_8cpp.html" target="_top" xlink:title=" ">
<polygon fill="white" stroke="#666666" points="143,-30 0,-30 0,0 143,0 143,-30"/>
<text text-anchor="start" x="8" y="-18" font-family="Helvetica,sans-Serif" font-size="10.00">src/action/once/CreateFile</text>
<text text-anchor="middle" x="71.5" y="-7" font-family="Helvetica,sans-Serif" font-size="10.00">Action.cpp</text>
</a>
</g>
</g>
<!-- Node18&#45;&gt;Node19 -->
<g id="edge21" class="edge">
<title>Node18&#45;&gt;Node19</title>
<path fill="none" stroke="#63b8ff" d="M71.5,-55.54C71.5,-46.96 71.5,-37.61 71.5,-30.16"/>
<polygon fill="#63b8ff" stroke="#63b8ff" points="68,-55.8 71.5,-65.8 75,-55.8 68,-55.8"/>
</g>
<!-- Node20&#45;&gt;Node9 -->
<g id="edge25" class="edge">
<title>Node20&#45;&gt;Node9</title>
<path fill="none" stroke="#63b8ff" d="M326.29,-65.9C796.04,-18.92 1355.74,-15.82 1507.78,-15.89"/>
<polygon fill="#63b8ff" stroke="#63b8ff" points="325.86,-62.43 316.26,-66.91 326.56,-69.39 325.86,-62.43"/>
</g>
<!-- Node21 -->
<g id="node21" class="node">
<title>Node21</title>
<g id="a_node21"><a xlink:href="CreateFolderAction_8cpp.html" target="_top" xlink:title=" ">
<polygon fill="white" stroke="#666666" points="316,-30 161,-30 161,0 316,0 316,-30"/>
<text text-anchor="start" x="169" y="-18" font-family="Helvetica,sans-Serif" font-size="10.00">src/action/once/CreateFolder</text>
<text text-anchor="middle" x="238.5" y="-7" font-family="Helvetica,sans-Serif" font-size="10.00">Action.cpp</text>
</a>
</g>
</g>
<!-- Node20&#45;&gt;Node21 -->
<g id="edge24" class="edge">
<title>Node20&#45;&gt;Node21</title>
<path fill="none" stroke="#63b8ff" d="M238.5,-55.54C238.5,-46.96 238.5,-37.61 238.5,-30.16"/>
<polygon fill="#63b8ff" stroke="#63b8ff" points="235,-55.8 238.5,-65.8 242,-55.8 235,-55.8"/>
</g>
<!-- Node22&#45;&gt;Node9 -->
<g id="edge28" class="edge">
<title>Node22&#45;&gt;Node9</title>
<path fill="none" stroke="#63b8ff" d="M509.41,-65.99C904.7,-27.08 1370.66,-18.27 1507.76,-16.44"/>
<polygon fill="#63b8ff" stroke="#63b8ff" points="508.81,-62.53 499.2,-67 509.5,-69.5 508.81,-62.53"/>
</g>
<!-- Node23 -->
<g id="node23" class="node">
<title>Node23</title>
<g id="a_node23"><a xlink:href="CreateSymlinkAction_8cpp.html" target="_top" xlink:title=" ">
<polygon fill="white" stroke="#666666" points="499,-30 334,-30 334,0 499,0 499,-30"/>
<text text-anchor="start" x="342" y="-18" font-family="Helvetica,sans-Serif" font-size="10.00">src/action/once/CreateSymlink</text>
<text text-anchor="middle" x="416.5" y="-7" font-family="Helvetica,sans-Serif" font-size="10.00">Action.cpp</text>
</a>
</g>
</g>
<!-- Node22&#45;&gt;Node23 -->
<g id="edge27" class="edge">
<title>Node22&#45;&gt;Node23</title>
<path fill="none" stroke="#63b8ff" d="M416.5,-55.54C416.5,-46.96 416.5,-37.61 416.5,-30.16"/>
<polygon fill="#63b8ff" stroke="#63b8ff" points="413,-55.8 416.5,-65.8 420,-55.8 413,-55.8"/>
</g>
<!-- Node24&#45;&gt;Node9 -->
<g id="edge31" class="edge">
<title>Node24&#45;&gt;Node9</title>
<path fill="none" stroke="#63b8ff" d="M679.99,-65.91C1005.22,-30.45 1386.08,-19.53 1507.97,-16.79"/>
<polygon fill="#63b8ff" stroke="#63b8ff" points="679.46,-62.45 669.9,-67.02 680.23,-69.41 679.46,-62.45"/>
</g>
<!-- Node25 -->
<g id="node25" class="node">
<title>Node25</title>
<g id="a_node25"><a xlink:href="CursorDownAction_8cpp.html" target="_top" xlink:title=" ">
<polygon fill="white" stroke="#666666" points="669.5,-30 517.5,-30 517.5,0 669.5,0 669.5,-30"/>
<text text-anchor="start" x="525.5" y="-18" font-family="Helvetica,sans-Serif" font-size="10.00">src/action/once/CursorDown</text>
<text text-anchor="middle" x="593.5" y="-7" font-family="Helvetica,sans-Serif" font-size="10.00">Action.cpp</text>
</a>
</g>
</g>
<!-- Node24&#45;&gt;Node25 -->
<g id="edge30" class="edge">
<title>Node24&#45;&gt;Node25</title>
<path fill="none" stroke="#63b8ff" d="M593.5,-55.54C593.5,-46.96 593.5,-37.61 593.5,-30.16"/>
<polygon fill="#63b8ff" stroke="#63b8ff" points="590,-55.8 593.5,-65.8 597,-55.8 590,-55.8"/>
</g>
<!-- Node26&#45;&gt;Node9 -->
<g id="edge34" class="edge">
<title>Node26&#45;&gt;Node9</title>
<path fill="none" stroke="#63b8ff" d="M835.85,-65.92C1097.85,-33.87 1401.12,-21.05 1507.94,-17.28"/>
<polygon fill="#63b8ff" stroke="#63b8ff" points="835.26,-62.47 825.76,-67.17 836.12,-69.42 835.26,-62.47"/>
</g>
<!-- Node27 -->
<g id="node27" class="node">
<title>Node27</title>
<g id="a_node27"><a xlink:href="CursorUpAction_8cpp.html" target="_top" xlink:title=" ">
<polygon fill="white" stroke="#666666" points="825.5,-30 687.5,-30 687.5,0 825.5,0 825.5,-30"/>
<text text-anchor="start" x="695.5" y="-18" font-family="Helvetica,sans-Serif" font-size="10.00">src/action/once/CursorUp</text>
<text text-anchor="middle" x="756.5" y="-7" font-family="Helvetica,sans-Serif" font-size="10.00">Action.cpp</text>
</a>
</g>
</g>
<!-- Node26&#45;&gt;Node27 -->
<g id="edge33" class="edge">
<title>Node26&#45;&gt;Node27</title>
<path fill="none" stroke="#63b8ff" d="M756.5,-55.54C756.5,-46.96 756.5,-37.61 756.5,-30.16"/>
<polygon fill="#63b8ff" stroke="#63b8ff" points="753,-55.8 756.5,-65.8 760,-55.8 753,-55.8"/>
</g>
<!-- Node28&#45;&gt;Node9 -->
<g id="edge37" class="edge">
<title>Node28&#45;&gt;Node9</title>
<path fill="none" stroke="#63b8ff" d="M2026,-65.85C1856.96,-43.42 1667.74,-26.26 1587.11,-19.32"/>
<polygon fill="#63b8ff" stroke="#63b8ff" points="2025.7,-69.34 2036.08,-67.19 2026.63,-62.4 2025.7,-69.34"/>
</g>
<!-- Node29 -->
<g id="node29" class="node">
<title>Node29</title>
<g id="a_node29"><a xlink:href="DeduplicateAction_8cpp.html" target="_top" xlink:title=" ">
<polygon fill="white" stroke="#666666" points="2188.5,-30 2036.5,-30 2036.5,0 2188.5,0 2188.5,-30"/>
<text text-anchor="start" x="2044.5" y="-18" font-family="Helvetica,sans-Serif" font-size="10.00">src/action/once/Deduplicate</text>
<text text-anchor="middle" x="2112.5" y="-7" font-family="Helvetica,sans-Serif" font-size="10.00">Action.cpp</text>
</a>
</g>
</g>
<!-- Node28&#45;&gt;Node29 -->
<g id="edge36" class="edge">
<title>Node28&#45;&gt;Node29</title>
<path fill="none" stroke="#63b8ff" d="M2112.5,-55.54C2112.5,-46.96 2112.5,-37.61 2112.5,-30.16"/>
<polygon fill="#63b8ff" stroke="#63b8ff" points="2109,-55.8 2112.5,-65.8 2116,-55.8 2109,-55.8"/>
</g>
<!-- Node30&#45;&gt;Node9 -->
<g id="edge39" class="edge">
<title>Node30&#45;&gt;Node9</title>
<path fill="none" stroke="#63b8ff" d="M992.53,-70C1002.55,-68.57 1012.8,-67.18 1022.5,-66 1203.36,-43.94 1420.28,-25.96 1507.91,-19.05"/>
<polygon fill="#63b8ff" stroke="#63b8ff" points="992.01,-66.54 982.61,-71.44 993.01,-73.47 992.01,-66.54"/>
</g>
<!-- Node32&#45;&gt;Node9 -->
<g id="edge41" class="edge">
<title>Node32&#45;&gt;Node9</title>
<path fill="none" stroke="#63b8ff" d="M1201.34,-65.73C1318.57,-48.05 1445,-30.26 1507.81,-21.5"/>
<polygon fill="#63b8ff" stroke="#63b8ff" points="1200.48,-62.32 1191.12,-67.28 1201.53,-69.24 1200.48,-62.32"/>
</g>
<!-- Node34&#45;&gt;Node9 -->
<g id="edge43" class="edge">
<title>Node34&#45;&gt;Node9</title>
<path fill="none" stroke="#63b8ff" d="M1332.1,-69.02C1383.34,-56.41 1466.32,-35.98 1512.91,-24.51"/>
<polygon fill="#63b8ff" stroke="#63b8ff" points="1331.17,-65.65 1322.29,-71.44 1332.84,-72.44 1331.17,-65.65"/>
</g>
<!-- Node36&#45;&gt;Node9 -->
<g id="edge45" class="edge">
<title>Node36&#45;&gt;Node9</title>
<path fill="none" stroke="#63b8ff" d="M1481.21,-65.33C1498.07,-52.78 1521.79,-35.13 1535.81,-24.7"/>
<polygon fill="#63b8ff" stroke="#63b8ff" points="1479.03,-62.59 1473.1,-71.37 1483.21,-68.21 1479.03,-62.59"/>
</g>
<!-- Node38&#45;&gt;Node9 -->
<g id="edge47" class="edge">
<title>Node38&#45;&gt;Node9</title>
<path fill="none" stroke="#63b8ff" d="M1606.07,-59.58C1590.33,-47.87 1571.38,-33.77 1559.38,-24.84"/>
<polygon fill="#63b8ff" stroke="#63b8ff" points="1604.3,-62.63 1614.41,-65.8 1608.48,-57.02 1604.3,-62.63"/>
</g>
<!-- Node40&#45;&gt;Node9 -->
<g id="edge49" class="edge">
<title>Node40&#45;&gt;Node9</title>
<path fill="none" stroke="#63b8ff" d="M1732.08,-63.44C1683.61,-50.98 1619.15,-34.42 1580.64,-24.52"/>
<polygon fill="#63b8ff" stroke="#63b8ff" points="1731.3,-66.86 1741.86,-65.95 1733.04,-60.08 1731.3,-66.86"/>
</g>
<!-- Node42&#45;&gt;Node9 -->
<g id="edge51" class="edge">
<title>Node42&#45;&gt;Node9</title>
<path fill="none" stroke="#63b8ff" d="M1872.63,-65.88C1763.35,-47.68 1646.84,-30.41 1587.2,-21.73"/>
<polygon fill="#63b8ff" stroke="#63b8ff" points="1872.06,-69.33 1882.5,-67.53 1873.21,-62.43 1872.06,-69.33"/>
</g>
<!-- Node45 -->
<g id="node38" class="node">
<title>Node45</title>
<g id="a_node38"><a xlink:href="Application_8h.html" target="_top" xlink:title=" ">
<polygon fill="white" stroke="#666666" points="3353.5,-90.5 3255.5,-90.5 3255.5,-71.5 3353.5,-71.5 3353.5,-90.5"/>
<text text-anchor="middle" x="3304.5" y="-78.5" font-family="Helvetica,sans-Serif" font-size="10.00">src/Application.h</text>
</a>
</g>
</g>
<!-- Node44&#45;&gt;Node45 -->
<g id="edge53" class="edge">
<title>Node44&#45;&gt;Node45</title>
<path fill="none" stroke="#63b8ff" d="M3195.01,-128.08C3221.86,-116.78 3260.78,-100.4 3284.26,-90.52"/>
<polygon fill="#63b8ff" stroke="#63b8ff" points="3193.57,-124.89 3185.71,-131.99 3196.29,-131.34 3193.57,-124.89"/>
</g>
<!-- Node47 -->
<g id="node40" class="node">
<title>Node47</title>
<g id="a_node40"><a xlink:href="Interface_8cpp.html" target="_top" xlink:title=" ">
<polygon fill="white" stroke="#666666" points="3237.5,-90.5 3093.5,-90.5 3093.5,-71.5 3237.5,-71.5 3237.5,-90.5"/>
<text text-anchor="middle" x="3165.5" y="-78.5" font-family="Helvetica,sans-Serif" font-size="10.00">src/interface/Interface.cpp</text>
</a>
</g>
</g>
<!-- Node44&#45;&gt;Node47 -->
<g id="edge56" class="edge">
<title>Node44&#45;&gt;Node47</title>
<path fill="none" stroke="#63b8ff" d="M3165.5,-121.66C3165.5,-111.24 3165.5,-98.8 3165.5,-90.67"/>
<polygon fill="#63b8ff" stroke="#63b8ff" points="3162,-121.87 3165.5,-131.87 3169,-121.87 3162,-121.87"/>
</g>
<!-- Node45&#45;&gt;Node9 -->
<g id="edge55" class="edge">
<title>Node45&#45;&gt;Node9</title>
<path fill="none" stroke="#63b8ff" d="M3264.46,-69.19C3258.48,-67.91 3252.35,-66.78 3246.5,-66 3243.84,-65.64 1843.12,-24.65 1587.34,-17.17"/>
<polygon fill="#63b8ff" stroke="#63b8ff" points="3263.79,-72.63 3274.32,-71.46 3265.36,-65.81 3263.79,-72.63"/>
</g>
<!-- Node46 -->
<g id="node39" class="node">
<title>Node46</title>
<g id="a_node39"><a xlink:href="Application_8cpp.html" target="_top" xlink:title=" ">
<polygon fill="white" stroke="#666666" points="3359,-24.5 3250,-24.5 3250,-5.5 3359,-5.5 3359,-24.5"/>
<text text-anchor="middle" x="3304.5" y="-12.5" font-family="Helvetica,sans-Serif" font-size="10.00">src/Application.cpp</text>
</a>
</g>
</g>
<!-- Node45&#45;&gt;Node46 -->
<g id="edge54" class="edge">
<title>Node45&#45;&gt;Node46</title>
<path fill="none" stroke="#63b8ff" d="M3304.5,-61.08C3304.5,-49.13 3304.5,-34.22 3304.5,-24.91"/>
<polygon fill="#63b8ff" stroke="#63b8ff" points="3301,-61.37 3304.5,-71.37 3308,-61.37 3301,-61.37"/>
</g>
<!-- Node48&#45;&gt;Node4 -->
<g id="edge60" class="edge">
<title>Node48&#45;&gt;Node4</title>
<path fill="none" stroke="#63b8ff" d="M3211.98,-236.97C3194.44,-227.28 3171.33,-214.52 3156.2,-206.17"/>
<polygon fill="#63b8ff" stroke="#63b8ff" points="3210.63,-240.22 3221.08,-241.98 3214.01,-234.09 3210.63,-240.22"/>
</g>
<!-- Node48&#45;&gt;Node44 -->
<g id="edge61" class="edge">
<title>Node48&#45;&gt;Node44</title>
<path fill="none" stroke="#63b8ff" d="M3228.18,-232.71C3221.8,-219.66 3212.42,-201.73 3202.5,-187 3193.63,-173.83 3181.62,-159.97 3173.72,-151.28"/>
<polygon fill="#63b8ff" stroke="#63b8ff" points="3225.14,-234.46 3232.61,-241.97 3231.45,-231.44 3225.14,-234.46"/>
</g>
<!-- Node48&#45;&gt;Node45 -->
<g id="edge59" class="edge">
<title>Node48&#45;&gt;Node45</title>
<path fill="none" stroke="#63b8ff" d="M3243.88,-232.21C3258.43,-196.16 3290.31,-117.15 3300.96,-90.77"/>
<polygon fill="#63b8ff" stroke="#63b8ff" points="3240.46,-231.33 3239.97,-241.91 3246.95,-233.95 3240.46,-231.33"/>
</g>
<!-- Node49&#45;&gt;Node3 -->
<g id="edge63" class="edge">
<title>Node49&#45;&gt;Node3</title>
<path fill="none" stroke="#63b8ff" d="M3397.34,-288.1C3391.53,-279.04 3384.68,-268.37 3380.01,-261.09"/>
<polygon fill="#63b8ff" stroke="#63b8ff" points="3394.54,-290.22 3402.89,-296.75 3400.43,-286.44 3394.54,-290.22"/>
</g>
<!-- Node49&#45;&gt;Node48 -->
<g id="edge64" class="edge">
<title>Node49&#45;&gt;Node48</title>
<path fill="none" stroke="#63b8ff" d="M3370.94,-293.93C3338.82,-284.03 3293.31,-270.01 3264.35,-261.08"/>
<polygon fill="#63b8ff" stroke="#63b8ff" points="3370.28,-297.38 3380.87,-296.98 3372.34,-290.69 3370.28,-297.38"/>
</g>
<!-- Node50 -->
<g id="node43" class="node">
<title>Node50</title>
<g id="a_node43"><a xlink:href="Utility_8cpp.html" target="_top" xlink:title=" ">
<polygon fill="white" stroke="#666666" points="3912,-261 3829,-261 3829,-242 3912,-242 3912,-261"/>
<text text-anchor="middle" x="3870.5" y="-249" font-family="Helvetica,sans-Serif" font-size="10.00">src/Utility.cpp</text>
</a>
</g>
</g>
<!-- Node49&#45;&gt;Node50 -->
<g id="edge65" class="edge">
<title>Node49&#45;&gt;Node50</title>
<path fill="none" stroke="#63b8ff" d="M3454.79,-296.78C3616.48,-273.79 3660.35,-282.04 3819.5,-261 3822.53,-260.6 3825.65,-260.16 3828.79,-259.69"/>
<polygon fill="#63b8ff" stroke="#63b8ff" points="3453.87,-293.38 3444.47,-298.27 3454.87,-300.31 3453.87,-293.38"/>
</g>
<!-- Node51 -->
<g id="node44" class="node">
<title>Node51</title>
<g id="a_node44"><a xlink:href="File_8cpp.html" target="_top" xlink:title=" ">
<polygon fill="white" stroke="#666666" points="3540.5,-261 3440.5,-261 3440.5,-242 3540.5,-242 3540.5,-261"/>
<text text-anchor="middle" x="3490.5" y="-249" font-family="Helvetica,sans-Serif" font-size="10.00">src/entry/File.cpp</text>
</a>
</g>
</g>
<!-- Node49&#45;&gt;Node51 -->
<g id="edge66" class="edge">
<title>Node49&#45;&gt;Node51</title>
<path fill="none" stroke="#63b8ff" d="M3430.28,-291.42C3445.16,-281.81 3464.41,-269.37 3477.09,-261.17"/>
<polygon fill="#63b8ff" stroke="#63b8ff" points="3428.17,-288.62 3421.67,-296.98 3431.97,-294.5 3428.17,-288.62"/>
</g>
<!-- Node52 -->
<g id="node45" class="node">
<title>Node52</title>
<g id="a_node45"><a xlink:href="Folder_8cpp.html" target="_top" xlink:title=" ">
<polygon fill="white" stroke="#666666" points="3670.5,-261 3558.5,-261 3558.5,-242 3670.5,-242 3670.5,-261"/>
<text text-anchor="middle" x="3614.5" y="-249" font-family="Helvetica,sans-Serif" font-size="10.00">src/entry/Folder.cpp</text>
</a>
</g>
</g>
<!-- Node49&#45;&gt;Node52 -->
<g id="edge67" class="edge">
<title>Node49&#45;&gt;Node52</title>
<path fill="none" stroke="#63b8ff" d="M3451.5,-294.44C3490.06,-284.52 3545.86,-270.16 3581.14,-261.08"/>
<polygon fill="#63b8ff" stroke="#63b8ff" points="3450.41,-291.1 3441.6,-296.98 3452.15,-297.88 3450.41,-291.1"/>
</g>
<!-- Node53 -->
<g id="node46" class="node">
<title>Node53</title>
<g id="a_node46"><a xlink:href="Symlink_8cpp.html" target="_top" xlink:title=" ">
<polygon fill="white" stroke="#666666" points="3810.5,-261 3688.5,-261 3688.5,-242 3810.5,-242 3810.5,-261"/>
<text text-anchor="middle" x="3749.5" y="-249" font-family="Helvetica,sans-Serif" font-size="10.00">src/entry/Symlink.cpp</text>
</a>
</g>
</g>
<!-- Node49&#45;&gt;Node53 -->
<g id="edge68" class="edge">
<title>Node49&#45;&gt;Node53</title>
<path fill="none" stroke="#63b8ff" d="M3454.03,-296.79C3540.77,-282.05 3630.33,-269.04 3688.23,-260.91"/>
<polygon fill="#63b8ff" stroke="#63b8ff" points="3453.29,-293.37 3444.02,-298.51 3454.46,-300.27 3453.29,-293.37"/>
</g>
<!-- Node55&#45;&gt;Node50 -->
<g id="edge71" class="edge">
<title>Node55&#45;&gt;Node50</title>
<path fill="none" stroke="#63b8ff" d="M3679.68,-294.82C3724.47,-284.88 3790.34,-270.28 3831.8,-261.08"/>
<polygon fill="#63b8ff" stroke="#63b8ff" points="3678.9,-291.4 3669.9,-296.98 3680.42,-298.24 3678.9,-291.4"/>
</g>
<!-- Node55&#45;&gt;Node51 -->
<g id="edge72" class="edge">
<title>Node55&#45;&gt;Node51</title>
<path fill="none" stroke="#63b8ff" d="M3599.36,-293.42C3573.21,-283.59 3536.91,-269.95 3513.57,-261.17"/>
<polygon fill="#63b8ff" stroke="#63b8ff" points="3598.25,-296.74 3608.85,-296.98 3600.72,-290.19 3598.25,-296.74"/>
</g>
<!-- Node56&#45;&gt;Node50 -->
<g id="edge74" class="edge">
<title>Node56&#45;&gt;Node50</title>
<path fill="none" stroke="#63b8ff" d="M3774.15,-293.03C3797.45,-283.23 3829.3,-269.83 3849.89,-261.17"/>
<polygon fill="#63b8ff" stroke="#63b8ff" points="3772.6,-289.88 3764.74,-296.98 3775.32,-296.33 3772.6,-289.88"/>
</g>
<!-- Node56&#45;&gt;Node52 -->
<g id="edge75" class="edge">
<title>Node56&#45;&gt;Node52</title>
<path fill="none" stroke="#63b8ff" d="M3714.23,-293.16C3690.16,-283.35 3657.1,-269.87 3635.77,-261.17"/>
<polygon fill="#63b8ff" stroke="#63b8ff" points="3713.03,-296.45 3723.61,-296.98 3715.67,-289.97 3713.03,-296.45"/>
</g>
<!-- Node57&#45;&gt;Node50 -->
<g id="edge77" class="edge">
<title>Node57&#45;&gt;Node50</title>
<path fill="none" stroke="#63b8ff" d="M3869.21,-286.66C3869.54,-277.93 3869.92,-267.99 3870.18,-261.09"/>
<polygon fill="#63b8ff" stroke="#63b8ff" points="3865.71,-286.62 3868.83,-296.75 3872.7,-286.89 3865.71,-286.62"/>
</g>
<!-- Node57&#45;&gt;Node53 -->
<g id="edge78" class="edge">
<title>Node57&#45;&gt;Node53</title>
<path fill="none" stroke="#63b8ff" d="M3840.2,-292.9C3818.22,-283.11 3788.32,-269.79 3768.97,-261.17"/>
<polygon fill="#63b8ff" stroke="#63b8ff" points="3838.82,-296.11 3849.38,-296.98 3841.67,-289.72 3838.82,-296.11"/>
</g>
</g>
</svg>
