<?xml version="1.0" encoding="UTF-8" standalone="no"?>
<!DOCTYPE svg PUBLIC "-//W3C//DTD SVG 1.1//EN"
 "http://www.w3.org/Graphics/SVG/1.1/DTD/svg11.dtd">
<!-- Generated by graphviz version 2.43.0 (0)
 -->
<!-- Title: src/FileView.cpp Pages: 1 -->
<svg width="252pt" height="192pt"
 viewBox="0.00 0.00 251.50 192.00" xmlns="http://www.w3.org/2000/svg" xmlns:xlink="http://www.w3.org/1999/xlink">
<g id="graph0" class="graph" transform="scale(1 1) rotate(0) translate(4 188)">
<title>src/FileView.cpp</title>
<!-- Node1 -->
<g id="node1" class="node">
<title>Node1</title>
<g id="a_node1"><a xlink:title=" ">
<polygon fill="#999999" stroke="#666666" points="162,-184 67,-184 67,-165 162,-165 162,-184"/>
<text text-anchor="middle" x="114.5" y="-172" font-family="Helvetica,sans-Serif" font-size="10.00">src/FileView.cpp</text>
</a>
</g>
</g>
<!-- Node2 -->
<g id="node2" class="node">
<title>Node2</title>
<g id="a_node2"><a xlink:href="FileView_8h.html" target="_top" xlink:title=" ">
<polygon fill="white" stroke="#666666" points="108.5,-129 42.5,-129 42.5,-110 108.5,-110 108.5,-129"/>
<text text-anchor="middle" x="75.5" y="-117" font-family="Helvetica,sans-Serif" font-size="10.00">FileView.h</text>
</a>
</g>
</g>
<!-- Node1&#45;&gt;Node2 -->
<g id="edge1" class="edge">
<title>Node1&#45;&gt;Node2</title>
<path fill="none" stroke="#63b8ff" d="M108.06,-164.75C102.61,-157.34 94.64,-146.5 87.94,-137.41"/>
<polygon fill="#63b8ff" stroke="#63b8ff" points="90.57,-135.07 81.82,-129.09 84.93,-139.22 90.57,-135.07"/>
</g>
<!-- Node7 -->
<g id="node7" class="node">
<title>Node7</title>
<g id="a_node7"><a xlink:href="Utility_8h.html" target="_top" xlink:title=" ">
<polygon fill="white" stroke="#666666" points="180.5,-129 126.5,-129 126.5,-110 180.5,-110 180.5,-129"/>
<text text-anchor="middle" x="153.5" y="-117" font-family="Helvetica,sans-Serif" font-size="10.00">Utility.h</text>
</a>
</g>
</g>
<!-- Node1&#45;&gt;Node7 -->
<g id="edge7" class="edge">
<title>Node1&#45;&gt;Node7</title>
<path fill="none" stroke="#63b8ff" d="M120.94,-164.75C126.39,-157.34 134.36,-146.5 141.06,-137.41"/>
<polygon fill="#63b8ff" stroke="#63b8ff" points="144.07,-139.22 147.18,-129.09 138.43,-135.07 144.07,-139.22"/>
</g>
<!-- Node3 -->
<g id="node3" class="node">
<title>Node3</title>
<g id="a_node3"><a xlink:title=" ">
<polygon fill="#e0e0e0" stroke="#999999" points="47,-74 0,-74 0,-55 47,-55 47,-74"/>
<text text-anchor="middle" x="23.5" y="-62" font-family="Helvetica,sans-Serif" font-size="10.00">vector</text>
</a>
</g>
</g>
<!-- Node2&#45;&gt;Node3 -->
<g id="edge2" class="edge">
<title>Node2&#45;&gt;Node3</title>
<path fill="none" stroke="#63b8ff" d="M66.91,-109.75C59.34,-102.03 48.12,-90.6 38.99,-81.28"/>
<polygon fill="#63b8ff" stroke="#63b8ff" points="41.43,-78.78 31.93,-74.09 36.43,-83.68 41.43,-78.78"/>
</g>
<!-- Node4 -->
<g id="node4" class="node">
<title>Node4</title>
<g id="a_node4"><a xlink:title=" ">
<polygon fill="#e0e0e0" stroke="#999999" points="109.5,-19 41.5,-19 41.5,0 109.5,0 109.5,-19"/>
<text text-anchor="middle" x="75.5" y="-7" font-family="Helvetica,sans-Serif" font-size="10.00">filesystem</text>
</a>
</g>
</g>
<!-- Node2&#45;&gt;Node4 -->
<g id="edge3" class="edge">
<title>Node2&#45;&gt;Node4</title>
<path fill="none" stroke="#63b8ff" d="M75.5,-109.66C75.5,-92.17 75.5,-52.8 75.5,-29.27"/>
<polygon fill="#63b8ff" stroke="#63b8ff" points="79,-29.16 75.5,-19.16 72,-29.16 79,-29.16"/>
</g>
<!-- Node5 -->
<g id="node5" class="node">
<title>Node5</title>
<g id="a_node5"><a xlink:href="Entry_8h.html" target="_top" xlink:title=" ">
<polygon fill="white" stroke="#666666" points="181.5,-74 103.5,-74 103.5,-55 181.5,-55 181.5,-74"/>
<text text-anchor="middle" x="142.5" y="-62" font-family="Helvetica,sans-Serif" font-size="10.00">entry/Entry.h</text>
</a>
</g>
</g>
<!-- Node2&#45;&gt;Node5 -->
<g id="edge4" class="edge">
<title>Node2&#45;&gt;Node5</title>
<path fill="none" stroke="#63b8ff" d="M86.26,-109.98C96.27,-102.07 111.39,-90.11 123.43,-80.58"/>
<polygon fill="#63b8ff" stroke="#63b8ff" points="125.87,-83.12 131.54,-74.17 121.53,-77.63 125.87,-83.12"/>
</g>
<!-- Node5&#45;&gt;Node4 -->
<g id="edge5" class="edge">
<title>Node5&#45;&gt;Node4</title>
<path fill="none" stroke="#63b8ff" d="M131.74,-54.98C121.73,-47.07 106.61,-35.11 94.57,-25.58"/>
<polygon fill="#63b8ff" stroke="#63b8ff" points="96.47,-22.63 86.46,-19.17 92.13,-28.12 96.47,-22.63"/>
</g>
<!-- Node6 -->
<g id="node6" class="node">
<title>Node6</title>
<g id="a_node6"><a xlink:href="Modifier_8h.html" target="_top" xlink:title=" ">
<polygon fill="white" stroke="#666666" points="193,-19 128,-19 128,0 193,0 193,-19"/>
<text text-anchor="middle" x="160.5" y="-7" font-family="Helvetica,sans-Serif" font-size="10.00">Modifier.h</text>
</a>
</g>
</g>
<!-- Node5&#45;&gt;Node6 -->
<g id="edge6" class="edge">
<title>Node5&#45;&gt;Node6</title>
<path fill="none" stroke="#63b8ff" d="M145.47,-54.75C147.86,-47.72 151.29,-37.62 154.27,-28.84"/>
<polygon fill="#63b8ff" stroke="#63b8ff" points="157.68,-29.68 157.58,-19.09 151.05,-27.43 157.68,-29.68"/>
</g>
<!-- Node7&#45;&gt;Node5 -->
<g id="edge9" class="edge">
<title>Node7&#45;&gt;Node5</title>
<path fill="none" stroke="#63b8ff" d="M151.68,-109.75C150.24,-102.8 148.18,-92.85 146.37,-84.13"/>
<polygon fill="#63b8ff" stroke="#63b8ff" points="149.74,-83.17 144.28,-74.09 142.89,-84.59 149.74,-83.17"/>
</g>
<!-- Node8 -->
<g id="node8" class="node">
<title>Node8</title>
<g id="a_node8"><a xlink:title=" ">
<polygon fill="#e0e0e0" stroke="#999999" points="243.5,-74 199.5,-74 199.5,-55 243.5,-55 243.5,-74"/>
<text text-anchor="middle" x="221.5" y="-62" font-family="Helvetica,sans-Serif" font-size="10.00">string</text>
</a>
</g>
</g>
<!-- Node7&#45;&gt;Node8 -->
<g id="edge8" class="edge">
<title>Node7&#45;&gt;Node8</title>
<path fill="none" stroke="#63b8ff" d="M164.43,-109.98C174.58,-102.07 189.92,-90.11 202.15,-80.58"/>
<polygon fill="#63b8ff" stroke="#63b8ff" points="204.64,-83.08 210.38,-74.17 200.34,-77.56 204.64,-83.08"/>
</g>
</g>
</svg>
