<?xml version="1.0" encoding="UTF-8" standalone="no"?>
<!DOCTYPE svg PUBLIC "-//W3C//DTD SVG 1.1//EN"
 "http://www.w3.org/Graphics/SVG/1.1/DTD/svg11.dtd">
<!-- Generated by graphviz version 2.43.0 (0)
 -->
<!-- Title: src/entry/File.cpp Pages: 1 -->
<svg width="351pt" height="192pt"
 viewBox="0.00 0.00 350.50 192.00" xmlns="http://www.w3.org/2000/svg" xmlns:xlink="http://www.w3.org/1999/xlink">
<g id="graph0" class="graph" transform="scale(1 1) rotate(0) translate(4 188)">
<title>src/entry/File.cpp</title>
<!-- Node1 -->
<g id="node1" class="node">
<title>Node1</title>
<g id="a_node1"><a xlink:title=" ">
<polygon fill="#999999" stroke="#666666" points="206,-184 106,-184 106,-165 206,-165 206,-184"/>
<text text-anchor="middle" x="156" y="-172" font-family="Helvetica,sans-Serif" font-size="10.00">src/entry/File.cpp</text>
</a>
</g>
</g>
<!-- Node2 -->
<g id="node2" class="node">
<title>Node2</title>
<g id="a_node2"><a xlink:href="File_8h.html" target="_top" xlink:title=" ">
<polygon fill="white" stroke="#666666" points="55.5,-129 12.5,-129 12.5,-110 55.5,-110 55.5,-129"/>
<text text-anchor="middle" x="34" y="-117" font-family="Helvetica,sans-Serif" font-size="10.00">File.h</text>
</a>
</g>
</g>
<!-- Node1&#45;&gt;Node2 -->
<g id="edge1" class="edge">
<title>Node1&#45;&gt;Node2</title>
<path fill="none" stroke="#63b8ff" d="M136.4,-164.98C116.68,-156.42 86.05,-143.11 63.42,-133.28"/>
<polygon fill="#63b8ff" stroke="#63b8ff" points="64.52,-129.94 53.96,-129.17 61.74,-136.37 64.52,-129.94"/>
</g>
<!-- Node6 -->
<g id="node6" class="node">
<title>Node6</title>
<g id="a_node6"><a xlink:title=" ">
<polygon fill="#e0e0e0" stroke="#999999" points="136.5,-129 73.5,-129 73.5,-110 136.5,-110 136.5,-129"/>
<text text-anchor="middle" x="105" y="-117" font-family="Helvetica,sans-Serif" font-size="10.00">ncurses.h</text>
</a>
</g>
</g>
<!-- Node1&#45;&gt;Node6 -->
<g id="edge6" class="edge">
<title>Node1&#45;&gt;Node6</title>
<path fill="none" stroke="#63b8ff" d="M147.58,-164.75C140.23,-157.11 129.37,-145.82 120.46,-136.56"/>
<polygon fill="#63b8ff" stroke="#63b8ff" points="122.72,-133.87 113.26,-129.09 117.68,-138.72 122.72,-133.87"/>
</g>
<!-- Node7 -->
<g id="node7" class="node">
<title>Node7</title>
<g id="a_node7"><a xlink:href="Color_8h.html" target="_top" xlink:title=" ">
<polygon fill="white" stroke="#666666" points="261,-129 155,-129 155,-110 261,-110 261,-129"/>
<text text-anchor="middle" x="208" y="-117" font-family="Helvetica,sans-Serif" font-size="10.00">../interface/Color.h</text>
</a>
</g>
</g>
<!-- Node1&#45;&gt;Node7 -->
<g id="edge7" class="edge">
<title>Node1&#45;&gt;Node7</title>
<path fill="none" stroke="#63b8ff" d="M164.59,-164.75C172.16,-157.03 183.38,-145.6 192.51,-136.28"/>
<polygon fill="#63b8ff" stroke="#63b8ff" points="195.07,-138.68 199.57,-129.09 190.07,-133.78 195.07,-138.68"/>
</g>
<!-- Node8 -->
<g id="node8" class="node">
<title>Node8</title>
<g id="a_node8"><a xlink:href="Utility_8h.html" target="_top" xlink:title=" ">
<polygon fill="white" stroke="#666666" points="342.5,-129 279.5,-129 279.5,-110 342.5,-110 342.5,-129"/>
<text text-anchor="middle" x="311" y="-117" font-family="Helvetica,sans-Serif" font-size="10.00">../Utility.h</text>
</a>
</g>
</g>
<!-- Node1&#45;&gt;Node8 -->
<g id="edge8" class="edge">
<title>Node1&#45;&gt;Node8</title>
<path fill="none" stroke="#63b8ff" d="M180.9,-164.98C206.7,-156.16 247.22,-142.31 276.18,-132.41"/>
<polygon fill="#63b8ff" stroke="#63b8ff" points="277.57,-135.63 285.9,-129.08 275.31,-129.01 277.57,-135.63"/>
</g>
<!-- Node3 -->
<g id="node3" class="node">
<title>Node3</title>
<g id="a_node3"><a xlink:title=" ">
<polygon fill="#e0e0e0" stroke="#999999" points="68,-19 0,-19 0,0 68,0 68,-19"/>
<text text-anchor="middle" x="34" y="-7" font-family="Helvetica,sans-Serif" font-size="10.00">filesystem</text>
</a>
</g>
</g>
<!-- Node2&#45;&gt;Node3 -->
<g id="edge2" class="edge">
<title>Node2&#45;&gt;Node3</title>
<path fill="none" stroke="#63b8ff" d="M34,-109.66C34,-92.17 34,-52.8 34,-29.27"/>
<polygon fill="#63b8ff" stroke="#63b8ff" points="37.5,-29.16 34,-19.16 30.5,-29.16 37.5,-29.16"/>
</g>
<!-- Node4 -->
<g id="node4" class="node">
<title>Node4</title>
<g id="a_node4"><a xlink:href="Entry_8h.html" target="_top" xlink:title=" ">
<polygon fill="white" stroke="#666666" points="128,-74 78,-74 78,-55 128,-55 128,-74"/>
<text text-anchor="middle" x="103" y="-62" font-family="Helvetica,sans-Serif" font-size="10.00">Entry.h</text>
</a>
</g>
</g>
<!-- Node2&#45;&gt;Node4 -->
<g id="edge3" class="edge">
<title>Node2&#45;&gt;Node4</title>
<path fill="none" stroke="#63b8ff" d="M45.09,-109.98C55.49,-102 71.26,-89.88 83.72,-80.31"/>
<polygon fill="#63b8ff" stroke="#63b8ff" points="85.91,-83.04 91.71,-74.17 81.65,-77.49 85.91,-83.04"/>
</g>
<!-- Node4&#45;&gt;Node3 -->
<g id="edge4" class="edge">
<title>Node4&#45;&gt;Node3</title>
<path fill="none" stroke="#63b8ff" d="M91.91,-54.98C81.51,-47 65.74,-34.88 53.28,-25.31"/>
<polygon fill="#63b8ff" stroke="#63b8ff" points="55.35,-22.49 45.29,-19.17 51.09,-28.04 55.35,-22.49"/>
</g>
<!-- Node5 -->
<g id="node5" class="node">
<title>Node5</title>
<g id="a_node5"><a xlink:href="Modifier_8h.html" target="_top" xlink:title=" ">
<polygon fill="white" stroke="#666666" points="151.5,-19 86.5,-19 86.5,0 151.5,0 151.5,-19"/>
<text text-anchor="middle" x="119" y="-7" font-family="Helvetica,sans-Serif" font-size="10.00">Modifier.h</text>
</a>
</g>
</g>
<!-- Node4&#45;&gt;Node5 -->
<g id="edge5" class="edge">
<title>Node4&#45;&gt;Node5</title>
<path fill="none" stroke="#63b8ff" d="M105.64,-54.75C107.76,-47.72 110.81,-37.62 113.46,-28.84"/>
<polygon fill="#63b8ff" stroke="#63b8ff" points="116.87,-29.67 116.41,-19.09 110.17,-27.65 116.87,-29.67"/>
</g>
<!-- Node8&#45;&gt;Node4 -->
<g id="edge10" class="edge">
<title>Node8&#45;&gt;Node4</title>
<path fill="none" stroke="#63b8ff" d="M279.41,-110.45C241.25,-100.73 177.27,-84.42 137.75,-74.35"/>
<polygon fill="#63b8ff" stroke="#63b8ff" points="138.57,-70.95 128.02,-71.87 136.84,-77.74 138.57,-70.95"/>
</g>
<!-- Node9 -->
<g id="node9" class="node">
<title>Node9</title>
<g id="a_node9"><a xlink:title=" ">
<polygon fill="#e0e0e0" stroke="#999999" points="333,-74 289,-74 289,-55 333,-55 333,-74"/>
<text text-anchor="middle" x="311" y="-62" font-family="Helvetica,sans-Serif" font-size="10.00">string</text>
</a>
</g>
</g>
<!-- Node8&#45;&gt;Node9 -->
<g id="edge9" class="edge">
<title>Node8&#45;&gt;Node9</title>
<path fill="none" stroke="#63b8ff" d="M311,-109.75C311,-102.8 311,-92.85 311,-84.13"/>
<polygon fill="#63b8ff" stroke="#63b8ff" points="314.5,-84.09 311,-74.09 307.5,-84.09 314.5,-84.09"/>
</g>
</g>
</svg>
