<?xml version="1.0" encoding="UTF-8" standalone="no"?>
<!DOCTYPE svg PUBLIC "-//W3C//DTD SVG 1.1//EN"
 "http://www.w3.org/Graphics/SVG/1.1/DTD/svg11.dtd">
<!-- Generated by graphviz version 2.43.0 (0)
 -->
<!-- Title: src/FileView.h Pages: 1 -->
<svg width="3377pt" height="269pt"
 viewBox="0.00 0.00 3376.50 269.00" xmlns="http://www.w3.org/2000/svg" xmlns:xlink="http://www.w3.org/1999/xlink">
<g id="graph0" class="graph" transform="scale(1 1) rotate(0) translate(4 265)">
<title>src/FileView.h</title>
<!-- Node1 -->
<g id="node1" class="node">
<title>Node1</title>
<g id="a_node1"><a xlink:title=" ">
<polygon fill="#999999" stroke="#666666" points="2984.5,-261 2901.5,-261 2901.5,-242 2984.5,-242 2984.5,-261"/>
<text text-anchor="middle" x="2943" y="-249" font-family="Helvetica,sans-Serif" font-size="10.00">src/FileView.h</text>
</a>
</g>
</g>
<!-- Node2 -->
<g id="node2" class="node">
<title>Node2</title>
<g id="a_node2"><a xlink:href="FileView_8cpp.html" target="_top" xlink:title=" ">
<polygon fill="white" stroke="#666666" points="2871.5,-206 2776.5,-206 2776.5,-187 2871.5,-187 2871.5,-206"/>
<text text-anchor="middle" x="2824" y="-194" font-family="Helvetica,sans-Serif" font-size="10.00">src/FileView.cpp</text>
</a>
</g>
</g>
<!-- Node1&#45;&gt;Node2 -->
<g id="edge1" class="edge">
<title>Node1&#45;&gt;Node2</title>
<path fill="none" stroke="#63b8ff" d="M2914.7,-237.9C2892.72,-228.11 2862.82,-214.79 2843.47,-206.17"/>
<polygon fill="#63b8ff" stroke="#63b8ff" points="2913.32,-241.11 2923.88,-241.98 2916.17,-234.72 2913.32,-241.11"/>
</g>
<!-- Node3 -->
<g id="node3" class="node">
<title>Node3</title>
<g id="a_node3"><a xlink:href="Action_8h.html" target="_top" xlink:title=" ">
<polygon fill="white" stroke="#666666" points="2996.5,-206 2889.5,-206 2889.5,-187 2996.5,-187 2996.5,-206"/>
<text text-anchor="middle" x="2943" y="-194" font-family="Helvetica,sans-Serif" font-size="10.00">src/action/Action.h</text>
</a>
</g>
</g>
<!-- Node1&#45;&gt;Node3 -->
<g id="edge2" class="edge">
<title>Node1&#45;&gt;Node3</title>
<path fill="none" stroke="#63b8ff" d="M2943,-231.66C2943,-222.93 2943,-212.99 2943,-206.09"/>
<polygon fill="#63b8ff" stroke="#63b8ff" points="2939.5,-231.75 2943,-241.75 2946.5,-231.75 2939.5,-231.75"/>
</g>
<!-- Node43 -->
<g id="node43" class="node">
<title>Node43</title>
<g id="a_node43"><a xlink:href="Interface_8h.html" target="_top" xlink:title=" ">
<polygon fill="white" stroke="#666666" points="3187.5,-151 3054.5,-151 3054.5,-132 3187.5,-132 3187.5,-151"/>
<text text-anchor="middle" x="3121" y="-139" font-family="Helvetica,sans-Serif" font-size="10.00">src/interface/Interface.h</text>
</a>
</g>
</g>
<!-- Node1&#45;&gt;Node43 -->
<g id="edge63" class="edge">
<title>Node1&#45;&gt;Node43</title>
<path fill="none" stroke="#63b8ff" d="M2965.93,-236.59C3003.21,-213.97 3075.88,-169.88 3106.67,-151.2"/>
<polygon fill="#63b8ff" stroke="#63b8ff" points="2964,-233.66 2957.27,-241.84 2967.63,-239.65 2964,-233.66"/>
</g>
<!-- Node4 -->
<g id="node4" class="node">
<title>Node4</title>
<g id="a_node4"><a xlink:href="ForEachAction_8h.html" target="_top" xlink:title=" ">
<polygon fill="white" stroke="#666666" points="2983.5,-151 2838.5,-151 2838.5,-132 2983.5,-132 2983.5,-151"/>
<text text-anchor="middle" x="2911" y="-139" font-family="Helvetica,sans-Serif" font-size="10.00">src/action/ForEachAction.h</text>
</a>
</g>
</g>
<!-- Node3&#45;&gt;Node4 -->
<g id="edge3" class="edge">
<title>Node3&#45;&gt;Node4</title>
<path fill="none" stroke="#63b8ff" d="M2932.5,-178.1C2927.03,-169.04 2920.58,-158.37 2916.19,-151.09"/>
<polygon fill="#63b8ff" stroke="#63b8ff" points="2929.55,-180 2937.72,-186.75 2935.54,-176.38 2929.55,-180"/>
</g>
<!-- Node13 -->
<g id="node13" class="node">
<title>Node13</title>
<g id="a_node13"><a xlink:href="OnceAction_8h.html" target="_top" xlink:title=" ">
<polygon fill="white" stroke="#666666" points="1401.5,-151 1270.5,-151 1270.5,-132 1401.5,-132 1401.5,-151"/>
<text text-anchor="middle" x="1336" y="-139" font-family="Helvetica,sans-Serif" font-size="10.00">src/action/OnceAction.h</text>
</a>
</g>
</g>
<!-- Node3&#45;&gt;Node13 -->
<g id="edge14" class="edge">
<title>Node3&#45;&gt;Node13</title>
<path fill="none" stroke="#63b8ff" d="M2879.21,-187.05C2300.58,-140.36 1613.76,-140.59 1401.6,-141.92"/>
<polygon fill="#63b8ff" stroke="#63b8ff" points="2879.17,-190.56 2889.43,-187.88 2879.74,-183.58 2879.17,-190.56"/>
</g>
<!-- Node3&#45;&gt;Node43 -->
<g id="edge58" class="edge">
<title>Node3&#45;&gt;Node43</title>
<path fill="none" stroke="#63b8ff" d="M2981.44,-184.06C3014.7,-174.15 3062.08,-160.04 3092.18,-151.08"/>
<polygon fill="#63b8ff" stroke="#63b8ff" points="2980.18,-180.78 2971.6,-186.98 2982.18,-187.49 2980.18,-180.78"/>
</g>
<!-- Node5 -->
<g id="node5" class="node">
<title>Node5</title>
<g id="a_node5"><a xlink:href="ForEachAction_8cpp.html" target="_top" xlink:title=" ">
<polygon fill="white" stroke="#666666" points="2719,-90.5 2563,-90.5 2563,-71.5 2719,-71.5 2719,-90.5"/>
<text text-anchor="middle" x="2641" y="-78.5" font-family="Helvetica,sans-Serif" font-size="10.00">src/action/ForEachAction.cpp</text>
</a>
</g>
</g>
<!-- Node4&#45;&gt;Node5 -->
<g id="edge4" class="edge">
<title>Node4&#45;&gt;Node5</title>
<path fill="none" stroke="#63b8ff" d="M2861.72,-129.82C2809.57,-118.52 2728.32,-100.92 2680.31,-90.52"/>
<polygon fill="#63b8ff" stroke="#63b8ff" points="2861.23,-133.3 2871.74,-131.99 2862.71,-126.46 2861.23,-133.3"/>
</g>
<!-- Node6 -->
<g id="node6" class="node">
<title>Node6</title>
<g id="a_node6"><a xlink:href="CopyAction_8h.html" target="_top" xlink:title=" ">
<polygon fill="white" stroke="#666666" points="2841,-96 2737,-96 2737,-66 2841,-66 2841,-96"/>
<text text-anchor="start" x="2745" y="-84" font-family="Helvetica,sans-Serif" font-size="10.00">src/action/foreach</text>
<text text-anchor="middle" x="2789" y="-73" font-family="Helvetica,sans-Serif" font-size="10.00">/CopyAction.h</text>
</a>
</g>
</g>
<!-- Node4&#45;&gt;Node6 -->
<g id="edge5" class="edge">
<title>Node4&#45;&gt;Node6</title>
<path fill="none" stroke="#63b8ff" d="M2884.07,-127.59C2864.69,-118.29 2838.53,-105.75 2818.57,-96.18"/>
<polygon fill="#63b8ff" stroke="#63b8ff" points="2882.73,-130.83 2893.26,-131.99 2885.76,-124.51 2882.73,-130.83"/>
</g>
<!-- Node9 -->
<g id="node9" class="node">
<title>Node9</title>
<g id="a_node9"><a xlink:href="DeleteAction_8h.html" target="_top" xlink:title=" ">
<polygon fill="white" stroke="#666666" points="2963,-96 2859,-96 2859,-66 2963,-66 2963,-96"/>
<text text-anchor="start" x="2867" y="-84" font-family="Helvetica,sans-Serif" font-size="10.00">src/action/foreach</text>
<text text-anchor="middle" x="2911" y="-73" font-family="Helvetica,sans-Serif" font-size="10.00">/DeleteAction.h</text>
</a>
</g>
</g>
<!-- Node4&#45;&gt;Node9 -->
<g id="edge8" class="edge">
<title>Node4&#45;&gt;Node9</title>
<path fill="none" stroke="#63b8ff" d="M2911,-121.65C2911,-113.36 2911,-103.78 2911,-96.11"/>
<polygon fill="#63b8ff" stroke="#63b8ff" points="2907.5,-121.87 2911,-131.87 2914.5,-121.87 2907.5,-121.87"/>
</g>
<!-- Node11 -->
<g id="node11" class="node">
<title>Node11</title>
<g id="a_node11"><a xlink:href="MoveAction_8h.html" target="_top" xlink:title=" ">
<polygon fill="white" stroke="#666666" points="3085,-96 2981,-96 2981,-66 3085,-66 3085,-96"/>
<text text-anchor="start" x="2989" y="-84" font-family="Helvetica,sans-Serif" font-size="10.00">src/action/foreach</text>
<text text-anchor="middle" x="3033" y="-73" font-family="Helvetica,sans-Serif" font-size="10.00">/MoveAction.h</text>
</a>
</g>
</g>
<!-- Node4&#45;&gt;Node11 -->
<g id="edge11" class="edge">
<title>Node4&#45;&gt;Node11</title>
<path fill="none" stroke="#63b8ff" d="M2937.93,-127.59C2957.31,-118.29 2983.47,-105.75 3003.43,-96.18"/>
<polygon fill="#63b8ff" stroke="#63b8ff" points="2936.24,-124.51 2928.74,-131.99 2939.27,-130.83 2936.24,-124.51"/>
</g>
<!-- Node7 -->
<g id="node7" class="node">
<title>Node7</title>
<g id="a_node7"><a xlink:href="CopyAction_8cpp.html" target="_top" xlink:title=" ">
<polygon fill="white" stroke="#666666" points="2841,-30 2737,-30 2737,0 2841,0 2841,-30"/>
<text text-anchor="start" x="2745" y="-18" font-family="Helvetica,sans-Serif" font-size="10.00">src/action/foreach</text>
<text text-anchor="middle" x="2789" y="-7" font-family="Helvetica,sans-Serif" font-size="10.00">/CopyAction.cpp</text>
</a>
</g>
</g>
<!-- Node6&#45;&gt;Node7 -->
<g id="edge6" class="edge">
<title>Node6&#45;&gt;Node7</title>
<path fill="none" stroke="#63b8ff" d="M2789,-55.54C2789,-46.96 2789,-37.61 2789,-30.16"/>
<polygon fill="#63b8ff" stroke="#63b8ff" points="2785.5,-55.8 2789,-65.8 2792.5,-55.8 2785.5,-55.8"/>
</g>
<!-- Node8 -->
<g id="node8" class="node">
<title>Node8</title>
<g id="a_node8"><a xlink:href="main_8cpp.html" target="_top" xlink:title=" ">
<polygon fill="white" stroke="#666666" points="1726.5,-24.5 1647.5,-24.5 1647.5,-5.5 1726.5,-5.5 1726.5,-24.5"/>
<text text-anchor="middle" x="1687" y="-12.5" font-family="Helvetica,sans-Serif" font-size="10.00">src/main.cpp</text>
</a>
</g>
</g>
<!-- Node6&#45;&gt;Node8 -->
<g id="edge7" class="edge">
<title>Node6&#45;&gt;Node8</title>
<path fill="none" stroke="#63b8ff" d="M2726.8,-66.04C2288.78,-9.76 2168.44,-98.58 1736,-30 1728.22,-28.77 1719.93,-26.7 1712.42,-24.53"/>
<polygon fill="#63b8ff" stroke="#63b8ff" points="2726.51,-69.53 2736.87,-67.35 2727.41,-62.59 2726.51,-69.53"/>
</g>
<!-- Node9&#45;&gt;Node8 -->
<g id="edge10" class="edge">
<title>Node9&#45;&gt;Node8</title>
<path fill="none" stroke="#63b8ff" d="M2848.67,-66.03C2356.9,-3.72 2222.06,-106.1 1736,-30 1728.22,-28.78 1719.93,-26.72 1712.42,-24.55"/>
<polygon fill="#63b8ff" stroke="#63b8ff" points="2848.51,-69.54 2858.88,-67.34 2849.4,-62.59 2848.51,-69.54"/>
</g>
<!-- Node10 -->
<g id="node10" class="node">
<title>Node10</title>
<g id="a_node10"><a xlink:href="DeleteAction_8cpp.html" target="_top" xlink:title=" ">
<polygon fill="white" stroke="#666666" points="2963,-30 2859,-30 2859,0 2963,0 2963,-30"/>
<text text-anchor="start" x="2867" y="-18" font-family="Helvetica,sans-Serif" font-size="10.00">src/action/foreach</text>
<text text-anchor="middle" x="2911" y="-7" font-family="Helvetica,sans-Serif" font-size="10.00">/DeleteAction.cpp</text>
</a>
</g>
</g>
<!-- Node9&#45;&gt;Node10 -->
<g id="edge9" class="edge">
<title>Node9&#45;&gt;Node10</title>
<path fill="none" stroke="#63b8ff" d="M2911,-55.54C2911,-46.96 2911,-37.61 2911,-30.16"/>
<polygon fill="#63b8ff" stroke="#63b8ff" points="2907.5,-55.8 2911,-65.8 2914.5,-55.8 2907.5,-55.8"/>
</g>
<!-- Node11&#45;&gt;Node8 -->
<g id="edge13" class="edge">
<title>Node11&#45;&gt;Node8</title>
<path fill="none" stroke="#63b8ff" d="M2970.78,-66.05C2425.07,2.37 2275.77,-113.63 1736,-30 1728.22,-28.79 1719.93,-26.74 1712.42,-24.56"/>
<polygon fill="#63b8ff" stroke="#63b8ff" points="2970.52,-69.54 2980.88,-67.33 2971.4,-62.6 2970.52,-69.54"/>
</g>
<!-- Node12 -->
<g id="node12" class="node">
<title>Node12</title>
<g id="a_node12"><a xlink:href="MoveAction_8cpp.html" target="_top" xlink:title=" ">
<polygon fill="white" stroke="#666666" points="3085,-30 2981,-30 2981,0 3085,0 3085,-30"/>
<text text-anchor="start" x="2989" y="-18" font-family="Helvetica,sans-Serif" font-size="10.00">src/action/foreach</text>
<text text-anchor="middle" x="3033" y="-7" font-family="Helvetica,sans-Serif" font-size="10.00">/MoveAction.cpp</text>
</a>
</g>
</g>
<!-- Node11&#45;&gt;Node12 -->
<g id="edge12" class="edge">
<title>Node11&#45;&gt;Node12</title>
<path fill="none" stroke="#63b8ff" d="M3033,-55.54C3033,-46.96 3033,-37.61 3033,-30.16"/>
<polygon fill="#63b8ff" stroke="#63b8ff" points="3029.5,-55.8 3033,-65.8 3036.5,-55.8 3029.5,-55.8"/>
</g>
<!-- Node14 -->
<g id="node14" class="node">
<title>Node14</title>
<g id="a_node14"><a xlink:href="OnceAction_8cpp.html" target="_top" xlink:title=" ">
<polygon fill="white" stroke="#666666" points="805.5,-90.5 662.5,-90.5 662.5,-71.5 805.5,-71.5 805.5,-90.5"/>
<text text-anchor="middle" x="734" y="-78.5" font-family="Helvetica,sans-Serif" font-size="10.00">src/action/OnceAction.cpp</text>
</a>
</g>
</g>
<!-- Node13&#45;&gt;Node14 -->
<g id="edge15" class="edge">
<title>Node13&#45;&gt;Node14</title>
<path fill="none" stroke="#63b8ff" d="M1260.1,-136.14C1158.31,-129.8 972.05,-116.53 814,-96 802.53,-94.51 790.21,-92.54 778.74,-90.55"/>
<polygon fill="#63b8ff" stroke="#63b8ff" points="1260.09,-139.64 1270.29,-136.76 1260.52,-132.65 1260.09,-139.64"/>
</g>
<!-- Node15 -->
<g id="node15" class="node">
<title>Node15</title>
<g id="a_node15"><a xlink:href="ConcatAction_8h.html" target="_top" xlink:title=" ">
<polygon fill="white" stroke="#666666" points="990.5,-90.5 823.5,-90.5 823.5,-71.5 990.5,-71.5 990.5,-90.5"/>
<text text-anchor="middle" x="907" y="-78.5" font-family="Helvetica,sans-Serif" font-size="10.00">src/action/once/ConcatAction.h</text>
</a>
</g>
</g>
<!-- Node13&#45;&gt;Node15 -->
<g id="edge16" class="edge">
<title>Node13&#45;&gt;Node15</title>
<path fill="none" stroke="#63b8ff" d="M1260.16,-130.92C1191.82,-122.18 1088.61,-108.73 999,-96 987,-94.3 974.14,-92.39 961.95,-90.54"/>
<polygon fill="#63b8ff" stroke="#63b8ff" points="1260.03,-134.43 1270.4,-132.23 1260.92,-127.49 1260.03,-134.43"/>
</g>
<!-- Node17 -->
<g id="node17" class="node">
<title>Node17</title>
<g id="a_node17"><a xlink:href="CreateFileAction_8h.html" target="_top" xlink:title=" ">
<polygon fill="white" stroke="#666666" points="1151.5,-96 1008.5,-96 1008.5,-66 1151.5,-66 1151.5,-96"/>
<text text-anchor="start" x="1016.5" y="-84" font-family="Helvetica,sans-Serif" font-size="10.00">src/action/once/CreateFile</text>
<text text-anchor="middle" x="1080" y="-73" font-family="Helvetica,sans-Serif" font-size="10.00">Action.h</text>
</a>
</g>
</g>
<!-- Node13&#45;&gt;Node17 -->
<g id="edge19" class="edge">
<title>Node13&#45;&gt;Node17</title>
<path fill="none" stroke="#63b8ff" d="M1288.93,-129.74C1247.48,-120.27 1186.84,-106.41 1141.55,-96.06"/>
<polygon fill="#63b8ff" stroke="#63b8ff" points="1288.25,-133.18 1298.78,-131.99 1289.81,-126.35 1288.25,-133.18"/>
</g>
<!-- Node19 -->
<g id="node19" class="node">
<title>Node19</title>
<g id="a_node19"><a xlink:href="CreateFolderAction_8h.html" target="_top" xlink:title=" ">
<polygon fill="white" stroke="#666666" points="1324.5,-96 1169.5,-96 1169.5,-66 1324.5,-66 1324.5,-96"/>
<text text-anchor="start" x="1177.5" y="-84" font-family="Helvetica,sans-Serif" font-size="10.00">src/action/once/CreateFolder</text>
<text text-anchor="middle" x="1247" y="-73" font-family="Helvetica,sans-Serif" font-size="10.00">Action.h</text>
</a>
</g>
</g>
<!-- Node13&#45;&gt;Node19 -->
<g id="edge22" class="edge">
<title>Node13&#45;&gt;Node19</title>
<path fill="none" stroke="#63b8ff" d="M1314.39,-126.29C1300.45,-117.13 1282.39,-105.26 1268.47,-96.11"/>
<polygon fill="#63b8ff" stroke="#63b8ff" points="1312.59,-129.3 1322.87,-131.87 1316.43,-123.45 1312.59,-129.3"/>
</g>
<!-- Node21 -->
<g id="node21" class="node">
<title>Node21</title>
<g id="a_node21"><a xlink:href="CreateSymlinkAction_8h.html" target="_top" xlink:title=" ">
<polygon fill="white" stroke="#666666" points="1507.5,-96 1342.5,-96 1342.5,-66 1507.5,-66 1507.5,-96"/>
<text text-anchor="start" x="1350.5" y="-84" font-family="Helvetica,sans-Serif" font-size="10.00">src/action/once/CreateSymlink</text>
<text text-anchor="middle" x="1425" y="-73" font-family="Helvetica,sans-Serif" font-size="10.00">Action.h</text>
</a>
</g>
</g>
<!-- Node13&#45;&gt;Node21 -->
<g id="edge25" class="edge">
<title>Node13&#45;&gt;Node21</title>
<path fill="none" stroke="#63b8ff" d="M1357.61,-126.29C1371.55,-117.13 1389.61,-105.26 1403.53,-96.11"/>
<polygon fill="#63b8ff" stroke="#63b8ff" points="1355.57,-123.45 1349.13,-131.87 1359.41,-129.3 1355.57,-123.45"/>
</g>
<!-- Node23 -->
<g id="node23" class="node">
<title>Node23</title>
<g id="a_node23"><a xlink:href="CursorDownAction_8h.html" target="_top" xlink:title=" ">
<polygon fill="white" stroke="#666666" points="1678,-96 1526,-96 1526,-66 1678,-66 1678,-96"/>
<text text-anchor="start" x="1534" y="-84" font-family="Helvetica,sans-Serif" font-size="10.00">src/action/once/CursorDown</text>
<text text-anchor="middle" x="1602" y="-73" font-family="Helvetica,sans-Serif" font-size="10.00">Action.h</text>
</a>
</g>
</g>
<!-- Node13&#45;&gt;Node23 -->
<g id="edge28" class="edge">
<title>Node13&#45;&gt;Node23</title>
<path fill="none" stroke="#63b8ff" d="M1384.65,-129.8C1427.8,-120.31 1491.13,-106.38 1538.31,-96.01"/>
<polygon fill="#63b8ff" stroke="#63b8ff" points="1383.69,-126.43 1374.68,-131.99 1385.2,-133.26 1383.69,-126.43"/>
</g>
<!-- Node25 -->
<g id="node25" class="node">
<title>Node25</title>
<g id="a_node25"><a xlink:href="CursorUpAction_8h.html" target="_top" xlink:title=" ">
<polygon fill="white" stroke="#666666" points="1834,-96 1696,-96 1696,-66 1834,-66 1834,-96"/>
<text text-anchor="start" x="1704" y="-84" font-family="Helvetica,sans-Serif" font-size="10.00">src/action/once/CursorUp</text>
<text text-anchor="middle" x="1765" y="-73" font-family="Helvetica,sans-Serif" font-size="10.00">Action.h</text>
</a>
</g>
</g>
<!-- Node13&#45;&gt;Node25 -->
<g id="edge31" class="edge">
<title>Node13&#45;&gt;Node25</title>
<path fill="none" stroke="#63b8ff" d="M1412.02,-132.01C1483.23,-123.78 1592.52,-110.46 1687,-96 1689.86,-95.56 1692.77,-95.1 1695.71,-94.63"/>
<polygon fill="#63b8ff" stroke="#63b8ff" points="1411.34,-128.56 1401.8,-133.18 1412.14,-135.52 1411.34,-128.56"/>
</g>
<!-- Node27 -->
<g id="node27" class="node">
<title>Node27</title>
<g id="a_node27"><a xlink:href="DeduplicateAction_8h.html" target="_top" xlink:title=" ">
<polygon fill="white" stroke="#666666" points="2004,-96 1852,-96 1852,-66 2004,-66 2004,-96"/>
<text text-anchor="start" x="1860" y="-84" font-family="Helvetica,sans-Serif" font-size="10.00">src/action/once/Deduplicate</text>
<text text-anchor="middle" x="1928" y="-73" font-family="Helvetica,sans-Serif" font-size="10.00">Action.h</text>
</a>
</g>
</g>
<!-- Node13&#45;&gt;Node27 -->
<g id="edge34" class="edge">
<title>Node13&#45;&gt;Node27</title>
<path fill="none" stroke="#63b8ff" d="M1412.04,-135.63C1511.37,-128.85 1690.6,-115.21 1843,-96 1845.82,-95.64 1848.69,-95.26 1851.58,-94.87"/>
<polygon fill="#63b8ff" stroke="#63b8ff" points="1411.54,-132.15 1401.8,-136.32 1412.01,-139.14 1411.54,-132.15"/>
</g>
<!-- Node29 -->
<g id="node29" class="node">
<title>Node29</title>
<g id="a_node29"><a xlink:href="GoBackAction_8h.html" target="_top" xlink:title=" ">
<polygon fill="white" stroke="#666666" points="2192,-90.5 2022,-90.5 2022,-71.5 2192,-71.5 2192,-90.5"/>
<text text-anchor="middle" x="2107" y="-78.5" font-family="Helvetica,sans-Serif" font-size="10.00">src/action/once/GoBackAction.h</text>
</a>
</g>
</g>
<!-- Node13&#45;&gt;Node29 -->
<g id="edge37" class="edge">
<title>Node13&#45;&gt;Node29</title>
<path fill="none" stroke="#63b8ff" d="M1411.76,-137.55C1537.1,-132.23 1795.42,-119.31 2013,-96 2026.62,-94.54 2041.28,-92.56 2054.89,-90.54"/>
<polygon fill="#63b8ff" stroke="#63b8ff" points="1411.35,-134.07 1401.51,-137.99 1411.65,-141.06 1411.35,-134.07"/>
</g>
<!-- Node31 -->
<g id="node31" class="node">
<title>Node31</title>
<g id="a_node31"><a xlink:href="ManualSelectAction_8h.html" target="_top" xlink:title=" ">
<polygon fill="white" stroke="#666666" points="2369.5,-96 2210.5,-96 2210.5,-66 2369.5,-66 2369.5,-96"/>
<text text-anchor="start" x="2218.5" y="-84" font-family="Helvetica,sans-Serif" font-size="10.00">src/action/once/ManualSelect</text>
<text text-anchor="middle" x="2290" y="-73" font-family="Helvetica,sans-Serif" font-size="10.00">Action.h</text>
</a>
</g>
</g>
<!-- Node13&#45;&gt;Node31 -->
<g id="edge40" class="edge">
<title>Node13&#45;&gt;Node31</title>
<path fill="none" stroke="#63b8ff" d="M1411.63,-139.27C1562.24,-136.23 1910.24,-126.26 2201,-96 2204.11,-95.68 2207.28,-95.32 2210.48,-94.93"/>
<polygon fill="#63b8ff" stroke="#63b8ff" points="1411.49,-135.77 1401.56,-139.47 1411.63,-142.77 1411.49,-135.77"/>
</g>
<!-- Node33 -->
<g id="node33" class="node">
<title>Node33</title>
<g id="a_node33"><a xlink:href="OpenAction_8h.html" target="_top" xlink:title=" ">
<polygon fill="white" stroke="#666666" points="2545,-90.5 2387,-90.5 2387,-71.5 2545,-71.5 2545,-90.5"/>
<text text-anchor="middle" x="2466" y="-78.5" font-family="Helvetica,sans-Serif" font-size="10.00">src/action/once/OpenAction.h</text>
</a>
</g>
</g>
<!-- Node13&#45;&gt;Node33 -->
<g id="edge43" class="edge">
<title>Node13&#45;&gt;Node33</title>
<path fill="none" stroke="#63b8ff" d="M1411.94,-140.25C1584.21,-139.02 2017.61,-132.24 2378,-96 2391.24,-94.67 2405.51,-92.65 2418.63,-90.56"/>
<polygon fill="#63b8ff" stroke="#63b8ff" points="1411.69,-136.75 1401.72,-140.31 1411.74,-143.75 1411.69,-136.75"/>
</g>
<!-- Node35 -->
<g id="node35" class="node">
<title>Node35</title>
<g id="a_node35"><a xlink:href="QuitAction_8h.html" target="_top" xlink:title=" ">
<polygon fill="white" stroke="#666666" points="163.5,-90.5 10.5,-90.5 10.5,-71.5 163.5,-71.5 163.5,-90.5"/>
<text text-anchor="middle" x="87" y="-78.5" font-family="Helvetica,sans-Serif" font-size="10.00">src/action/once/QuitAction.h</text>
</a>
</g>
</g>
<!-- Node13&#45;&gt;Node35 -->
<g id="edge46" class="edge">
<title>Node13&#45;&gt;Node35</title>
<path fill="none" stroke="#63b8ff" d="M1260.01,-140.82C1074.06,-140.91 581.46,-136.9 173,-96 159.9,-94.69 145.78,-92.65 132.83,-90.53"/>
<polygon fill="#63b8ff" stroke="#63b8ff" points="1260.23,-144.32 1270.23,-140.81 1260.23,-137.32 1260.23,-144.32"/>
</g>
<!-- Node37 -->
<g id="node37" class="node">
<title>Node37</title>
<g id="a_node37"><a xlink:href="RegexSelectAction_8h.html" target="_top" xlink:title=" ">
<polygon fill="white" stroke="#666666" points="336,-96 182,-96 182,-66 336,-66 336,-96"/>
<text text-anchor="start" x="190" y="-84" font-family="Helvetica,sans-Serif" font-size="10.00">src/action/once/RegexSelect</text>
<text text-anchor="middle" x="259" y="-73" font-family="Helvetica,sans-Serif" font-size="10.00">Action.h</text>
</a>
</g>
</g>
<!-- Node13&#45;&gt;Node37 -->
<g id="edge49" class="edge">
<title>Node13&#45;&gt;Node37</title>
<path fill="none" stroke="#63b8ff" d="M1260.17,-140.1C1093.95,-138.57 685.2,-131.21 345,-96 342.14,-95.7 339.23,-95.38 336.3,-95.02"/>
<polygon fill="#63b8ff" stroke="#63b8ff" points="1260.26,-143.6 1270.29,-140.19 1260.32,-136.6 1260.26,-143.6"/>
</g>
<!-- Node39 -->
<g id="node39" class="node">
<title>Node39</title>
<g id="a_node39"><a xlink:href="SelectByContentAction_8h.html" target="_top" xlink:title=" ">
<polygon fill="white" stroke="#666666" points="490,-96 354,-96 354,-66 490,-66 490,-96"/>
<text text-anchor="start" x="362" y="-84" font-family="Helvetica,sans-Serif" font-size="10.00">src/action/once/SelectBy</text>
<text text-anchor="middle" x="422" y="-73" font-family="Helvetica,sans-Serif" font-size="10.00">ContentAction.h</text>
</a>
</g>
</g>
<!-- Node13&#45;&gt;Node39 -->
<g id="edge52" class="edge">
<title>Node13&#45;&gt;Node39</title>
<path fill="none" stroke="#63b8ff" d="M1260.1,-139.68C1112.84,-137.38 778.29,-128.68 499,-96 496.17,-95.67 493.28,-95.3 490.37,-94.89"/>
<polygon fill="#63b8ff" stroke="#63b8ff" points="1260.33,-143.18 1270.38,-139.84 1260.43,-136.18 1260.33,-143.18"/>
</g>
<!-- Node41 -->
<g id="node41" class="node">
<title>Node41</title>
<g id="a_node41"><a xlink:href="UnselectAllAction_8h.html" target="_top" xlink:title=" ">
<polygon fill="white" stroke="#666666" points="644,-96 508,-96 508,-66 644,-66 644,-96"/>
<text text-anchor="start" x="516" y="-84" font-family="Helvetica,sans-Serif" font-size="10.00">src/action/once/Unselect</text>
<text text-anchor="middle" x="576" y="-73" font-family="Helvetica,sans-Serif" font-size="10.00">AllAction.h</text>
</a>
</g>
</g>
<!-- Node13&#45;&gt;Node41 -->
<g id="edge55" class="edge">
<title>Node13&#45;&gt;Node41</title>
<path fill="none" stroke="#63b8ff" d="M1259.97,-138.4C1133.57,-134.26 872.39,-123 653,-96 650.17,-95.65 647.28,-95.27 644.37,-94.85"/>
<polygon fill="#63b8ff" stroke="#63b8ff" points="1260.2,-141.9 1270.31,-138.73 1260.43,-134.91 1260.2,-141.9"/>
</g>
<!-- Node15&#45;&gt;Node8 -->
<g id="edge18" class="edge">
<title>Node15&#45;&gt;Node8</title>
<path fill="none" stroke="#63b8ff" d="M967.44,-69.97C977.94,-68.46 988.77,-67.06 999,-66 1281.92,-36.57 1357.52,-77.36 1638,-30 1645.59,-28.72 1653.68,-26.69 1661.05,-24.57"/>
<polygon fill="#63b8ff" stroke="#63b8ff" points="966.89,-66.51 957.5,-71.43 967.91,-73.44 966.89,-66.51"/>
</g>
<!-- Node16 -->
<g id="node16" class="node">
<title>Node16</title>
<g id="a_node16"><a xlink:href="ConcatAction_8cpp.html" target="_top" xlink:title=" ">
<polygon fill="white" stroke="#666666" points="941,-24.5 763,-24.5 763,-5.5 941,-5.5 941,-24.5"/>
<text text-anchor="middle" x="852" y="-12.5" font-family="Helvetica,sans-Serif" font-size="10.00">src/action/once/ConcatAction.cpp</text>
</a>
</g>
</g>
<!-- Node15&#45;&gt;Node16 -->
<g id="edge17" class="edge">
<title>Node15&#45;&gt;Node16</title>
<path fill="none" stroke="#63b8ff" d="M892.93,-63.62C882.34,-51.31 868.24,-34.89 859.65,-24.91"/>
<polygon fill="#63b8ff" stroke="#63b8ff" points="890.41,-66.07 899.58,-71.37 895.72,-61.5 890.41,-66.07"/>
</g>
<!-- Node17&#45;&gt;Node8 -->
<g id="edge21" class="edge">
<title>Node17&#45;&gt;Node8</title>
<path fill="none" stroke="#63b8ff" d="M1162.08,-65.83C1373.22,-40.46 1431.55,-66.87 1638,-30 1645.49,-28.66 1653.48,-26.64 1660.78,-24.55"/>
<polygon fill="#63b8ff" stroke="#63b8ff" points="1161.41,-62.38 1151.91,-67.07 1162.26,-69.33 1161.41,-62.38"/>
</g>
<!-- Node18 -->
<g id="node18" class="node">
<title>Node18</title>
<g id="a_node18"><a xlink:href="CreateFileAction_8cpp.html" target="_top" xlink:title=" ">
<polygon fill="white" stroke="#666666" points="1102.5,-30 959.5,-30 959.5,0 1102.5,0 1102.5,-30"/>
<text text-anchor="start" x="967.5" y="-18" font-family="Helvetica,sans-Serif" font-size="10.00">src/action/once/CreateFile</text>
<text text-anchor="middle" x="1031" y="-7" font-family="Helvetica,sans-Serif" font-size="10.00">Action.cpp</text>
</a>
</g>
</g>
<!-- Node17&#45;&gt;Node18 -->
<g id="edge20" class="edge">
<title>Node17&#45;&gt;Node18</title>
<path fill="none" stroke="#63b8ff" d="M1063.01,-57.81C1055.99,-48.64 1048.06,-38.28 1041.84,-30.16"/>
<polygon fill="#63b8ff" stroke="#63b8ff" points="1060.27,-59.98 1069.13,-65.8 1065.83,-55.73 1060.27,-59.98"/>
</g>
<!-- Node19&#45;&gt;Node8 -->
<g id="edge24" class="edge">
<title>Node19&#45;&gt;Node8</title>
<path fill="none" stroke="#63b8ff" d="M1334.7,-65.81C1469.91,-47.47 1507.3,-56.21 1638,-30 1645.2,-28.56 1652.88,-26.58 1659.98,-24.56"/>
<polygon fill="#63b8ff" stroke="#63b8ff" points="1334.22,-62.34 1324.79,-67.18 1335.18,-69.28 1334.22,-62.34"/>
</g>
<!-- Node20 -->
<g id="node20" class="node">
<title>Node20</title>
<g id="a_node20"><a xlink:href="CreateFolderAction_8cpp.html" target="_top" xlink:title=" ">
<polygon fill="white" stroke="#666666" points="1275.5,-30 1120.5,-30 1120.5,0 1275.5,0 1275.5,-30"/>
<text text-anchor="start" x="1128.5" y="-18" font-family="Helvetica,sans-Serif" font-size="10.00">src/action/once/CreateFolder</text>
<text text-anchor="middle" x="1198" y="-7" font-family="Helvetica,sans-Serif" font-size="10.00">Action.cpp</text>
</a>
</g>
</g>
<!-- Node19&#45;&gt;Node20 -->
<g id="edge23" class="edge">
<title>Node19&#45;&gt;Node20</title>
<path fill="none" stroke="#63b8ff" d="M1230.01,-57.81C1222.99,-48.64 1215.06,-38.28 1208.84,-30.16"/>
<polygon fill="#63b8ff" stroke="#63b8ff" points="1227.27,-59.98 1236.13,-65.8 1232.83,-55.73 1227.27,-59.98"/>
</g>
<!-- Node21&#45;&gt;Node8 -->
<g id="edge27" class="edge">
<title>Node21&#45;&gt;Node8</title>
<path fill="none" stroke="#63b8ff" d="M1498.51,-63.65C1539.66,-54.28 1591.81,-42.01 1638,-30 1644.51,-28.31 1651.47,-26.39 1658.04,-24.52"/>
<polygon fill="#63b8ff" stroke="#63b8ff" points="1497.55,-60.28 1488.57,-65.91 1499.1,-67.11 1497.55,-60.28"/>
</g>
<!-- Node22 -->
<g id="node22" class="node">
<title>Node22</title>
<g id="a_node22"><a xlink:href="CreateSymlinkAction_8cpp.html" target="_top" xlink:title=" ">
<polygon fill="white" stroke="#666666" points="1458.5,-30 1293.5,-30 1293.5,0 1458.5,0 1458.5,-30"/>
<text text-anchor="start" x="1301.5" y="-18" font-family="Helvetica,sans-Serif" font-size="10.00">src/action/once/CreateSymlink</text>
<text text-anchor="middle" x="1376" y="-7" font-family="Helvetica,sans-Serif" font-size="10.00">Action.cpp</text>
</a>
</g>
</g>
<!-- Node21&#45;&gt;Node22 -->
<g id="edge26" class="edge">
<title>Node21&#45;&gt;Node22</title>
<path fill="none" stroke="#63b8ff" d="M1408.01,-57.81C1400.99,-48.64 1393.06,-38.28 1386.84,-30.16"/>
<polygon fill="#63b8ff" stroke="#63b8ff" points="1405.27,-59.98 1414.13,-65.8 1410.83,-55.73 1405.27,-59.98"/>
</g>
<!-- Node23&#45;&gt;Node8 -->
<g id="edge30" class="edge">
<title>Node23&#45;&gt;Node8</title>
<path fill="none" stroke="#63b8ff" d="M1629.11,-59.58C1644.67,-47.87 1663.4,-33.77 1675.25,-24.84"/>
<polygon fill="#63b8ff" stroke="#63b8ff" points="1626.75,-56.99 1620.86,-65.8 1630.96,-62.58 1626.75,-56.99"/>
</g>
<!-- Node24 -->
<g id="node24" class="node">
<title>Node24</title>
<g id="a_node24"><a xlink:href="CursorDownAction_8cpp.html" target="_top" xlink:title=" ">
<polygon fill="white" stroke="#666666" points="1629,-30 1477,-30 1477,0 1629,0 1629,-30"/>
<text text-anchor="start" x="1485" y="-18" font-family="Helvetica,sans-Serif" font-size="10.00">src/action/once/CursorDown</text>
<text text-anchor="middle" x="1553" y="-7" font-family="Helvetica,sans-Serif" font-size="10.00">Action.cpp</text>
</a>
</g>
</g>
<!-- Node23&#45;&gt;Node24 -->
<g id="edge29" class="edge">
<title>Node23&#45;&gt;Node24</title>
<path fill="none" stroke="#63b8ff" d="M1585.01,-57.81C1577.99,-48.64 1570.06,-38.28 1563.84,-30.16"/>
<polygon fill="#63b8ff" stroke="#63b8ff" points="1582.27,-59.98 1591.13,-65.8 1587.83,-55.73 1582.27,-59.98"/>
</g>
<!-- Node25&#45;&gt;Node8 -->
<g id="edge33" class="edge">
<title>Node25&#45;&gt;Node8</title>
<path fill="none" stroke="#63b8ff" d="M1739.72,-59.26C1725.53,-47.61 1708.56,-33.69 1697.78,-24.84"/>
<polygon fill="#63b8ff" stroke="#63b8ff" points="1737.74,-62.16 1747.69,-65.8 1742.18,-56.75 1737.74,-62.16"/>
</g>
<!-- Node26 -->
<g id="node26" class="node">
<title>Node26</title>
<g id="a_node26"><a xlink:href="CursorUpAction_8cpp.html" target="_top" xlink:title=" ">
<polygon fill="white" stroke="#666666" points="1883,-30 1745,-30 1745,0 1883,0 1883,-30"/>
<text text-anchor="start" x="1753" y="-18" font-family="Helvetica,sans-Serif" font-size="10.00">src/action/once/CursorUp</text>
<text text-anchor="middle" x="1814" y="-7" font-family="Helvetica,sans-Serif" font-size="10.00">Action.cpp</text>
</a>
</g>
</g>
<!-- Node25&#45;&gt;Node26 -->
<g id="edge32" class="edge">
<title>Node25&#45;&gt;Node26</title>
<path fill="none" stroke="#63b8ff" d="M1781.99,-57.81C1789.01,-48.64 1796.94,-38.28 1803.16,-30.16"/>
<polygon fill="#63b8ff" stroke="#63b8ff" points="1779.17,-55.73 1775.87,-65.8 1784.73,-59.98 1779.17,-55.73"/>
</g>
<!-- Node27&#45;&gt;Node8 -->
<g id="edge36" class="edge">
<title>Node27&#45;&gt;Node8</title>
<path fill="none" stroke="#63b8ff" d="M1862.74,-63.41C1825.54,-53.85 1778.09,-41.49 1736,-30 1729.68,-28.28 1722.93,-26.38 1716.51,-24.55"/>
<polygon fill="#63b8ff" stroke="#63b8ff" points="1861.9,-66.81 1872.46,-65.9 1863.64,-60.03 1861.9,-66.81"/>
</g>
<!-- Node28 -->
<g id="node28" class="node">
<title>Node28</title>
<g id="a_node28"><a xlink:href="DeduplicateAction_8cpp.html" target="_top" xlink:title=" ">
<polygon fill="white" stroke="#666666" points="2053,-30 1901,-30 1901,0 2053,0 2053,-30"/>
<text text-anchor="start" x="1909" y="-18" font-family="Helvetica,sans-Serif" font-size="10.00">src/action/once/Deduplicate</text>
<text text-anchor="middle" x="1977" y="-7" font-family="Helvetica,sans-Serif" font-size="10.00">Action.cpp</text>
</a>
</g>
</g>
<!-- Node27&#45;&gt;Node28 -->
<g id="edge35" class="edge">
<title>Node27&#45;&gt;Node28</title>
<path fill="none" stroke="#63b8ff" d="M1944.99,-57.81C1952.01,-48.64 1959.94,-38.28 1966.16,-30.16"/>
<polygon fill="#63b8ff" stroke="#63b8ff" points="1942.17,-55.73 1938.87,-65.8 1947.73,-59.98 1942.17,-55.73"/>
</g>
<!-- Node29&#45;&gt;Node8 -->
<g id="edge39" class="edge">
<title>Node29&#45;&gt;Node8</title>
<path fill="none" stroke="#63b8ff" d="M2040.81,-69.98C2031.48,-68.62 2022,-67.26 2013,-66 1890.04,-48.86 1857.58,-55.12 1736,-30 1728.81,-28.51 1721.13,-26.52 1714.04,-24.5"/>
<polygon fill="#63b8ff" stroke="#63b8ff" points="2040.45,-73.47 2050.86,-71.46 2041.47,-66.54 2040.45,-73.47"/>
</g>
<!-- Node30 -->
<g id="node30" class="node">
<title>Node30</title>
<g id="a_node30"><a xlink:href="GoBackAction_8cpp.html" target="_top" xlink:title=" ">
<polygon fill="white" stroke="#666666" points="2253,-24.5 2071,-24.5 2071,-5.5 2253,-5.5 2253,-24.5"/>
<text text-anchor="middle" x="2162" y="-12.5" font-family="Helvetica,sans-Serif" font-size="10.00">src/action/once/GoBackAction.cpp</text>
</a>
</g>
</g>
<!-- Node29&#45;&gt;Node30 -->
<g id="edge38" class="edge">
<title>Node29&#45;&gt;Node30</title>
<path fill="none" stroke="#63b8ff" d="M2121.07,-63.62C2131.66,-51.31 2145.76,-34.89 2154.35,-24.91"/>
<polygon fill="#63b8ff" stroke="#63b8ff" points="2118.28,-61.5 2114.42,-71.37 2123.59,-66.07 2118.28,-61.5"/>
</g>
<!-- Node31&#45;&gt;Node8 -->
<g id="edge42" class="edge">
<title>Node31&#45;&gt;Node8</title>
<path fill="none" stroke="#63b8ff" d="M2200.49,-66.02C1993.37,-42.64 1936.83,-66.09 1736,-30 1728.51,-28.65 1720.52,-26.63 1713.22,-24.54"/>
<polygon fill="#63b8ff" stroke="#63b8ff" points="2200.13,-69.5 2210.47,-67.17 2200.93,-62.55 2200.13,-69.5"/>
</g>
<!-- Node32 -->
<g id="node32" class="node">
<title>Node32</title>
<g id="a_node32"><a xlink:href="ManualSelectAction_8cpp.html" target="_top" xlink:title=" ">
<polygon fill="white" stroke="#666666" points="2430.5,-30 2271.5,-30 2271.5,0 2430.5,0 2430.5,-30"/>
<text text-anchor="start" x="2279.5" y="-18" font-family="Helvetica,sans-Serif" font-size="10.00">src/action/once/ManualSelect</text>
<text text-anchor="middle" x="2351" y="-7" font-family="Helvetica,sans-Serif" font-size="10.00">Action.cpp</text>
</a>
</g>
</g>
<!-- Node31&#45;&gt;Node32 -->
<g id="edge41" class="edge">
<title>Node31&#45;&gt;Node32</title>
<path fill="none" stroke="#63b8ff" d="M2310.62,-58.37C2319.49,-49.06 2329.61,-38.44 2337.5,-30.16"/>
<polygon fill="#63b8ff" stroke="#63b8ff" points="2307.9,-56.14 2303.54,-65.8 2312.97,-60.97 2307.9,-56.14"/>
</g>
<!-- Node33&#45;&gt;Node8 -->
<g id="edge45" class="edge">
<title>Node33&#45;&gt;Node8</title>
<path fill="none" stroke="#63b8ff" d="M2408.24,-69.95C2398.18,-68.45 2387.81,-67.05 2378,-66 2093.85,-35.51 2017.8,-77.55 1736,-30 1728.32,-28.7 1720.13,-26.65 1712.69,-24.5"/>
<polygon fill="#63b8ff" stroke="#63b8ff" points="2407.75,-73.42 2418.16,-71.48 2408.81,-66.5 2407.75,-73.42"/>
</g>
<!-- Node34 -->
<g id="node34" class="node">
<title>Node34</title>
<g id="a_node34"><a xlink:href="OpenAction_8cpp.html" target="_top" xlink:title=" ">
<polygon fill="white" stroke="#666666" points="2619,-24.5 2449,-24.5 2449,-5.5 2619,-5.5 2619,-24.5"/>
<text text-anchor="middle" x="2534" y="-12.5" font-family="Helvetica,sans-Serif" font-size="10.00">src/action/once/OpenAction.cpp</text>
</a>
</g>
</g>
<!-- Node33&#45;&gt;Node34 -->
<g id="edge44" class="edge">
<title>Node33&#45;&gt;Node34</title>
<path fill="none" stroke="#63b8ff" d="M2482.65,-64.33C2495.81,-51.94 2513.72,-35.09 2524.54,-24.91"/>
<polygon fill="#63b8ff" stroke="#63b8ff" points="2480.05,-61.97 2475.17,-71.37 2484.85,-67.06 2480.05,-61.97"/>
</g>
<!-- Node35&#45;&gt;Node8 -->
<g id="edge48" class="edge">
<title>Node35&#45;&gt;Node8</title>
<path fill="none" stroke="#63b8ff" d="M142.03,-69.9C152.29,-68.34 162.95,-66.94 173,-66 497.25,-35.77 1316.07,-79.13 1638,-30 1645.87,-28.8 1654.26,-26.71 1661.84,-24.51"/>
<polygon fill="#63b8ff" stroke="#63b8ff" points="141.26,-66.47 131.93,-71.5 142.36,-73.39 141.26,-66.47"/>
</g>
<!-- Node36 -->
<g id="node36" class="node">
<title>Node36</title>
<g id="a_node36"><a xlink:href="QuitAction_8cpp.html" target="_top" xlink:title=" ">
<polygon fill="white" stroke="#666666" points="164,-24.5 0,-24.5 0,-5.5 164,-5.5 164,-24.5"/>
<text text-anchor="middle" x="82" y="-12.5" font-family="Helvetica,sans-Serif" font-size="10.00">src/action/once/QuitAction.cpp</text>
</a>
</g>
</g>
<!-- Node35&#45;&gt;Node36 -->
<g id="edge47" class="edge">
<title>Node35&#45;&gt;Node36</title>
<path fill="none" stroke="#63b8ff" d="M85.52,-61.08C84.59,-49.13 83.42,-34.22 82.7,-24.91"/>
<polygon fill="#63b8ff" stroke="#63b8ff" points="82.06,-61.67 86.33,-71.37 89.04,-61.13 82.06,-61.67"/>
</g>
<!-- Node37&#45;&gt;Node8 -->
<g id="edge51" class="edge">
<title>Node37&#45;&gt;Node8</title>
<path fill="none" stroke="#63b8ff" d="M346.39,-66C647.34,-39.62 1357.11,-73.33 1638,-30 1645.78,-28.8 1654.08,-26.74 1661.58,-24.57"/>
<polygon fill="#63b8ff" stroke="#63b8ff" points="345.93,-62.52 336.29,-66.92 346.57,-69.49 345.93,-62.52"/>
</g>
<!-- Node38 -->
<g id="node38" class="node">
<title>Node38</title>
<g id="a_node38"><a xlink:href="RegexSelectAction_8cpp.html" target="_top" xlink:title=" ">
<polygon fill="white" stroke="#666666" points="336,-30 182,-30 182,0 336,0 336,-30"/>
<text text-anchor="start" x="190" y="-18" font-family="Helvetica,sans-Serif" font-size="10.00">src/action/once/RegexSelect</text>
<text text-anchor="middle" x="259" y="-7" font-family="Helvetica,sans-Serif" font-size="10.00">Action.cpp</text>
</a>
</g>
</g>
<!-- Node37&#45;&gt;Node38 -->
<g id="edge50" class="edge">
<title>Node37&#45;&gt;Node38</title>
<path fill="none" stroke="#63b8ff" d="M259,-55.54C259,-46.96 259,-37.61 259,-30.16"/>
<polygon fill="#63b8ff" stroke="#63b8ff" points="255.5,-55.8 259,-65.8 262.5,-55.8 255.5,-55.8"/>
</g>
<!-- Node39&#45;&gt;Node8 -->
<g id="edge54" class="edge">
<title>Node39&#45;&gt;Node8</title>
<path fill="none" stroke="#63b8ff" d="M500.44,-65.97C1004.44,-13.81 1140.89,-107.65 1638,-30 1645.78,-28.78 1654.07,-26.72 1661.58,-24.55"/>
<polygon fill="#63b8ff" stroke="#63b8ff" points="499.94,-62.5 490.36,-67.03 500.67,-69.47 499.94,-62.5"/>
</g>
<!-- Node40 -->
<g id="node40" class="node">
<title>Node40</title>
<g id="a_node40"><a xlink:href="SelectByContentAction_8cpp.html" target="_top" xlink:title=" ">
<polygon fill="white" stroke="#666666" points="490,-30 354,-30 354,0 490,0 490,-30"/>
<text text-anchor="start" x="362" y="-18" font-family="Helvetica,sans-Serif" font-size="10.00">src/action/once/SelectBy</text>
<text text-anchor="middle" x="422" y="-7" font-family="Helvetica,sans-Serif" font-size="10.00">ContentAction.cpp</text>
</a>
</g>
</g>
<!-- Node39&#45;&gt;Node40 -->
<g id="edge53" class="edge">
<title>Node39&#45;&gt;Node40</title>
<path fill="none" stroke="#63b8ff" d="M422,-55.54C422,-46.96 422,-37.61 422,-30.16"/>
<polygon fill="#63b8ff" stroke="#63b8ff" points="418.5,-55.8 422,-65.8 425.5,-55.8 418.5,-55.8"/>
</g>
<!-- Node41&#45;&gt;Node8 -->
<g id="edge57" class="edge">
<title>Node41&#45;&gt;Node8</title>
<path fill="none" stroke="#63b8ff" d="M654.39,-65.97C1090.3,-19.9 1208.62,-98.15 1638,-30 1645.78,-28.77 1654.07,-26.7 1661.58,-24.52"/>
<polygon fill="#63b8ff" stroke="#63b8ff" points="653.93,-62.5 644.36,-67.05 654.68,-69.46 653.93,-62.5"/>
</g>
<!-- Node42 -->
<g id="node42" class="node">
<title>Node42</title>
<g id="a_node42"><a xlink:href="UnselectAllAction_8cpp.html" target="_top" xlink:title=" ">
<polygon fill="white" stroke="#666666" points="644,-30 508,-30 508,0 644,0 644,-30"/>
<text text-anchor="start" x="516" y="-18" font-family="Helvetica,sans-Serif" font-size="10.00">src/action/once/Unselect</text>
<text text-anchor="middle" x="576" y="-7" font-family="Helvetica,sans-Serif" font-size="10.00">AllAction.cpp</text>
</a>
</g>
</g>
<!-- Node41&#45;&gt;Node42 -->
<g id="edge56" class="edge">
<title>Node41&#45;&gt;Node42</title>
<path fill="none" stroke="#63b8ff" d="M576,-55.54C576,-46.96 576,-37.61 576,-30.16"/>
<polygon fill="#63b8ff" stroke="#63b8ff" points="572.5,-55.8 576,-65.8 579.5,-55.8 572.5,-55.8"/>
</g>
<!-- Node44 -->
<g id="node44" class="node">
<title>Node44</title>
<g id="a_node44"><a xlink:href="Application_8h.html" target="_top" xlink:title=" ">
<polygon fill="white" stroke="#666666" points="3363,-90.5 3265,-90.5 3265,-71.5 3363,-71.5 3363,-90.5"/>
<text text-anchor="middle" x="3314" y="-78.5" font-family="Helvetica,sans-Serif" font-size="10.00">src/Application.h</text>
</a>
</g>
</g>
<!-- Node43&#45;&gt;Node44 -->
<g id="edge59" class="edge">
<title>Node43&#45;&gt;Node44</title>
<path fill="none" stroke="#63b8ff" d="M3159.06,-128.96C3196.39,-117.65 3252.44,-100.66 3285.9,-90.52"/>
<polygon fill="#63b8ff" stroke="#63b8ff" points="3157.62,-125.74 3149.06,-131.99 3159.65,-132.44 3157.62,-125.74"/>
</g>
<!-- Node46 -->
<g id="node46" class="node">
<title>Node46</title>
<g id="a_node46"><a xlink:href="Interface_8cpp.html" target="_top" xlink:title=" ">
<polygon fill="white" stroke="#666666" points="3247,-90.5 3103,-90.5 3103,-71.5 3247,-71.5 3247,-90.5"/>
<text text-anchor="middle" x="3175" y="-78.5" font-family="Helvetica,sans-Serif" font-size="10.00">src/interface/Interface.cpp</text>
</a>
</g>
</g>
<!-- Node43&#45;&gt;Node46 -->
<g id="edge62" class="edge">
<title>Node43&#45;&gt;Node46</title>
<path fill="none" stroke="#63b8ff" d="M3135.98,-124.27C3146.02,-113.39 3158.85,-99.49 3167,-90.67"/>
<polygon fill="#63b8ff" stroke="#63b8ff" points="3133.18,-122.15 3128.97,-131.87 3138.32,-126.89 3133.18,-122.15"/>
</g>
<!-- Node44&#45;&gt;Node8 -->
<g id="edge61" class="edge">
<title>Node44&#45;&gt;Node8</title>
<path fill="none" stroke="#63b8ff" d="M3273.96,-69.16C3267.98,-67.89 3261.86,-66.77 3256,-66 2920.99,-22.11 2070.03,-80.82 1736,-30 1728.13,-28.8 1719.73,-26.72 1712.16,-24.51"/>
<polygon fill="#63b8ff" stroke="#63b8ff" points="3273.3,-72.6 3283.83,-71.43 3274.86,-65.78 3273.3,-72.6"/>
</g>
<!-- Node45 -->
<g id="node45" class="node">
<title>Node45</title>
<g id="a_node45"><a xlink:href="Application_8cpp.html" target="_top" xlink:title=" ">
<polygon fill="white" stroke="#666666" points="3368.5,-24.5 3259.5,-24.5 3259.5,-5.5 3368.5,-5.5 3368.5,-24.5"/>
<text text-anchor="middle" x="3314" y="-12.5" font-family="Helvetica,sans-Serif" font-size="10.00">src/Application.cpp</text>
</a>
</g>
</g>
<!-- Node44&#45;&gt;Node45 -->
<g id="edge60" class="edge">
<title>Node44&#45;&gt;Node45</title>
<path fill="none" stroke="#63b8ff" d="M3314,-61.08C3314,-49.13 3314,-34.22 3314,-24.91"/>
<polygon fill="#63b8ff" stroke="#63b8ff" points="3310.5,-61.37 3314,-71.37 3317.5,-61.37 3310.5,-61.37"/>
</g>
</g>
</svg>
