<?xml version="1.0" encoding="UTF-8" standalone="no"?>
<!DOCTYPE svg PUBLIC "-//W3C//DTD SVG 1.1//EN"
 "http://www.w3.org/Graphics/SVG/1.1/DTD/svg11.dtd">
<!-- Generated by graphviz version 2.43.0 (0)
 -->
<!-- Title: src/entry/Folder.cpp Pages: 1 -->
<svg width="356pt" height="192pt"
 viewBox="0.00 0.00 356.00 192.00" xmlns="http://www.w3.org/2000/svg" xmlns:xlink="http://www.w3.org/1999/xlink">
<g id="graph0" class="graph" transform="scale(1 1) rotate(0) translate(4 188)">
<title>src/entry/Folder.cpp</title>
<!-- Node1 -->
<g id="node1" class="node">
<title>Node1</title>
<g id="a_node1"><a xlink:title=" ">
<polygon fill="#999999" stroke="#666666" points="207,-184 95,-184 95,-165 207,-165 207,-184"/>
<text text-anchor="middle" x="151" y="-172" font-family="Helvetica,sans-Serif" font-size="10.00">src/entry/Folder.cpp</text>
</a>
</g>
</g>
<!-- Node2 -->
<g id="node2" class="node">
<title>Node2</title>
<g id="a_node2"><a xlink:href="Folder_8h.html" target="_top" xlink:title=" ">
<polygon fill="white" stroke="#666666" points="61.5,-129 6.5,-129 6.5,-110 61.5,-110 61.5,-129"/>
<text text-anchor="middle" x="34" y="-117" font-family="Helvetica,sans-Serif" font-size="10.00">Folder.h</text>
</a>
</g>
</g>
<!-- Node1&#45;&gt;Node2 -->
<g id="edge1" class="edge">
<title>Node1&#45;&gt;Node2</title>
<path fill="none" stroke="#63b8ff" d="M132.2,-164.98C113.38,-156.46 84.18,-143.23 62.5,-133.41"/>
<polygon fill="#63b8ff" stroke="#63b8ff" points="63.69,-130.11 53.14,-129.17 60.8,-136.48 63.69,-130.11"/>
</g>
<!-- Node6 -->
<g id="node6" class="node">
<title>Node6</title>
<g id="a_node6"><a xlink:title=" ">
<polygon fill="#e0e0e0" stroke="#999999" points="142.5,-129 79.5,-129 79.5,-110 142.5,-110 142.5,-129"/>
<text text-anchor="middle" x="111" y="-117" font-family="Helvetica,sans-Serif" font-size="10.00">ncurses.h</text>
</a>
</g>
</g>
<!-- Node1&#45;&gt;Node6 -->
<g id="edge6" class="edge">
<title>Node1&#45;&gt;Node6</title>
<path fill="none" stroke="#63b8ff" d="M144.39,-164.75C138.74,-157.26 130.46,-146.28 123.55,-137.13"/>
<polygon fill="#63b8ff" stroke="#63b8ff" points="126.3,-134.96 117.48,-129.09 120.71,-139.18 126.3,-134.96"/>
</g>
<!-- Node7 -->
<g id="node7" class="node">
<title>Node7</title>
<g id="a_node7"><a xlink:href="Utility_8h.html" target="_top" xlink:title=" ">
<polygon fill="white" stroke="#666666" points="223.5,-129 160.5,-129 160.5,-110 223.5,-110 223.5,-129"/>
<text text-anchor="middle" x="192" y="-117" font-family="Helvetica,sans-Serif" font-size="10.00">../Utility.h</text>
</a>
</g>
</g>
<!-- Node1&#45;&gt;Node7 -->
<g id="edge7" class="edge">
<title>Node1&#45;&gt;Node7</title>
<path fill="none" stroke="#63b8ff" d="M157.77,-164.75C163.56,-157.26 172.06,-146.28 179.14,-137.13"/>
<polygon fill="#63b8ff" stroke="#63b8ff" points="182.01,-139.14 185.36,-129.09 176.47,-134.86 182.01,-139.14"/>
</g>
<!-- Node9 -->
<g id="node9" class="node">
<title>Node9</title>
<g id="a_node9"><a xlink:href="Color_8h.html" target="_top" xlink:title=" ">
<polygon fill="white" stroke="#666666" points="348,-129 242,-129 242,-110 348,-110 348,-129"/>
<text text-anchor="middle" x="295" y="-117" font-family="Helvetica,sans-Serif" font-size="10.00">../interface/Color.h</text>
</a>
</g>
</g>
<!-- Node1&#45;&gt;Node9 -->
<g id="edge10" class="edge">
<title>Node1&#45;&gt;Node9</title>
<path fill="none" stroke="#63b8ff" d="M174.14,-164.98C197.82,-156.27 234.87,-142.63 261.71,-132.75"/>
<polygon fill="#63b8ff" stroke="#63b8ff" points="263.27,-135.91 271.44,-129.17 260.85,-129.34 263.27,-135.91"/>
</g>
<!-- Node3 -->
<g id="node3" class="node">
<title>Node3</title>
<g id="a_node3"><a xlink:title=" ">
<polygon fill="#e0e0e0" stroke="#999999" points="68,-19 0,-19 0,0 68,0 68,-19"/>
<text text-anchor="middle" x="34" y="-7" font-family="Helvetica,sans-Serif" font-size="10.00">filesystem</text>
</a>
</g>
</g>
<!-- Node2&#45;&gt;Node3 -->
<g id="edge2" class="edge">
<title>Node2&#45;&gt;Node3</title>
<path fill="none" stroke="#63b8ff" d="M34,-109.66C34,-92.17 34,-52.8 34,-29.27"/>
<polygon fill="#63b8ff" stroke="#63b8ff" points="37.5,-29.16 34,-19.16 30.5,-29.16 37.5,-29.16"/>
</g>
<!-- Node4 -->
<g id="node4" class="node">
<title>Node4</title>
<g id="a_node4"><a xlink:href="Entry_8h.html" target="_top" xlink:title=" ">
<polygon fill="white" stroke="#666666" points="128,-74 78,-74 78,-55 128,-55 128,-74"/>
<text text-anchor="middle" x="103" y="-62" font-family="Helvetica,sans-Serif" font-size="10.00">Entry.h</text>
</a>
</g>
</g>
<!-- Node2&#45;&gt;Node4 -->
<g id="edge3" class="edge">
<title>Node2&#45;&gt;Node4</title>
<path fill="none" stroke="#63b8ff" d="M45.09,-109.98C55.49,-102 71.26,-89.88 83.72,-80.31"/>
<polygon fill="#63b8ff" stroke="#63b8ff" points="85.91,-83.04 91.71,-74.17 81.65,-77.49 85.91,-83.04"/>
</g>
<!-- Node4&#45;&gt;Node3 -->
<g id="edge4" class="edge">
<title>Node4&#45;&gt;Node3</title>
<path fill="none" stroke="#63b8ff" d="M91.91,-54.98C81.51,-47 65.74,-34.88 53.28,-25.31"/>
<polygon fill="#63b8ff" stroke="#63b8ff" points="55.35,-22.49 45.29,-19.17 51.09,-28.04 55.35,-22.49"/>
</g>
<!-- Node5 -->
<g id="node5" class="node">
<title>Node5</title>
<g id="a_node5"><a xlink:href="Modifier_8h.html" target="_top" xlink:title=" ">
<polygon fill="white" stroke="#666666" points="151.5,-19 86.5,-19 86.5,0 151.5,0 151.5,-19"/>
<text text-anchor="middle" x="119" y="-7" font-family="Helvetica,sans-Serif" font-size="10.00">Modifier.h</text>
</a>
</g>
</g>
<!-- Node4&#45;&gt;Node5 -->
<g id="edge5" class="edge">
<title>Node4&#45;&gt;Node5</title>
<path fill="none" stroke="#63b8ff" d="M105.64,-54.75C107.76,-47.72 110.81,-37.62 113.46,-28.84"/>
<polygon fill="#63b8ff" stroke="#63b8ff" points="116.87,-29.67 116.41,-19.09 110.17,-27.65 116.87,-29.67"/>
</g>
<!-- Node7&#45;&gt;Node4 -->
<g id="edge9" class="edge">
<title>Node7&#45;&gt;Node4</title>
<path fill="none" stroke="#63b8ff" d="M177.7,-109.98C163.9,-101.77 142.76,-89.18 126.49,-79.49"/>
<polygon fill="#63b8ff" stroke="#63b8ff" points="127.94,-76.28 117.56,-74.17 124.36,-82.29 127.94,-76.28"/>
</g>
<!-- Node8 -->
<g id="node8" class="node">
<title>Node8</title>
<g id="a_node8"><a xlink:title=" ">
<polygon fill="#e0e0e0" stroke="#999999" points="214,-74 170,-74 170,-55 214,-55 214,-74"/>
<text text-anchor="middle" x="192" y="-62" font-family="Helvetica,sans-Serif" font-size="10.00">string</text>
</a>
</g>
</g>
<!-- Node7&#45;&gt;Node8 -->
<g id="edge8" class="edge">
<title>Node7&#45;&gt;Node8</title>
<path fill="none" stroke="#63b8ff" d="M192,-109.75C192,-102.8 192,-92.85 192,-84.13"/>
<polygon fill="#63b8ff" stroke="#63b8ff" points="195.5,-84.09 192,-74.09 188.5,-84.09 195.5,-84.09"/>
</g>
</g>
</svg>
