<?xml version="1.0" encoding="UTF-8" standalone="no"?>
<!DOCTYPE svg PUBLIC "-//W3C//DTD SVG 1.1//EN"
 "http://www.w3.org/Graphics/SVG/1.1/DTD/svg11.dtd">
<!-- Generated by graphviz version 2.43.0 (0)
 -->
<!-- Title: src/action/ForEachAction.h Pages: 1 -->
<svg width="315pt" height="302pt"
 viewBox="0.00 0.00 314.50 302.00" xmlns="http://www.w3.org/2000/svg" xmlns:xlink="http://www.w3.org/1999/xlink">
<g id="graph0" class="graph" transform="scale(1 1) rotate(0) translate(4 298)">
<title>src/action/ForEachAction.h</title>
<!-- Node1 -->
<g id="node1" class="node">
<title>Node1</title>
<g id="a_node1"><a xlink:title=" ">
<polygon fill="#999999" stroke="#666666" points="145,-294 0,-294 0,-275 145,-275 145,-294"/>
<text text-anchor="middle" x="72.5" y="-282" font-family="Helvetica,sans-Serif" font-size="10.00">src/action/ForEachAction.h</text>
</a>
</g>
</g>
<!-- Node2 -->
<g id="node2" class="node">
<title>Node2</title>
<g id="a_node2"><a xlink:href="Action_8h.html" target="_top" xlink:title=" ">
<polygon fill="white" stroke="#666666" points="100.5,-239 44.5,-239 44.5,-220 100.5,-220 100.5,-239"/>
<text text-anchor="middle" x="72.5" y="-227" font-family="Helvetica,sans-Serif" font-size="10.00">Action.h</text>
</a>
</g>
</g>
<!-- Node1&#45;&gt;Node2 -->
<g id="edge1" class="edge">
<title>Node1&#45;&gt;Node2</title>
<path fill="none" stroke="#63b8ff" d="M72.5,-274.75C72.5,-267.8 72.5,-257.85 72.5,-249.13"/>
<polygon fill="#63b8ff" stroke="#63b8ff" points="76,-249.09 72.5,-239.09 69,-249.09 76,-249.09"/>
</g>
<!-- Node3 -->
<g id="node3" class="node">
<title>Node3</title>
<g id="a_node3"><a xlink:title=" ">
<polygon fill="#e0e0e0" stroke="#999999" points="70,-129 23,-129 23,-110 70,-110 70,-129"/>
<text text-anchor="middle" x="46.5" y="-117" font-family="Helvetica,sans-Serif" font-size="10.00">vector</text>
</a>
</g>
</g>
<!-- Node2&#45;&gt;Node3 -->
<g id="edge2" class="edge">
<title>Node2&#45;&gt;Node3</title>
<path fill="none" stroke="#63b8ff" d="M69.4,-219.72C66.33,-210.81 61.65,-196.57 58.5,-184 54.78,-169.17 51.62,-152.13 49.48,-139.44"/>
<polygon fill="#63b8ff" stroke="#63b8ff" points="52.87,-138.51 47.81,-129.2 45.96,-139.63 52.87,-138.51"/>
</g>
<!-- Node4 -->
<g id="node4" class="node">
<title>Node4</title>
<g id="a_node4"><a xlink:title=" ">
<polygon fill="#e0e0e0" stroke="#999999" points="132.5,-19 64.5,-19 64.5,0 132.5,0 132.5,-19"/>
<text text-anchor="middle" x="98.5" y="-7" font-family="Helvetica,sans-Serif" font-size="10.00">filesystem</text>
</a>
</g>
</g>
<!-- Node2&#45;&gt;Node4 -->
<g id="edge3" class="edge">
<title>Node2&#45;&gt;Node4</title>
<path fill="none" stroke="#63b8ff" d="M62.67,-219.87C42.1,-200.71 -2.33,-152.91 13.5,-110 26.56,-74.59 58.46,-43.24 79.25,-25.59"/>
<polygon fill="#63b8ff" stroke="#63b8ff" points="81.64,-28.16 87.14,-19.1 77.19,-22.76 81.64,-28.16"/>
</g>
<!-- Node5 -->
<g id="node5" class="node">
<title>Node5</title>
<g id="a_node5"><a xlink:href="FileView_8h.html" target="_top" xlink:title=" ">
<polygon fill="white" stroke="#666666" points="143,-184 68,-184 68,-165 143,-165 143,-184"/>
<text text-anchor="middle" x="105.5" y="-172" font-family="Helvetica,sans-Serif" font-size="10.00">../FileView.h</text>
</a>
</g>
</g>
<!-- Node2&#45;&gt;Node5 -->
<g id="edge4" class="edge">
<title>Node2&#45;&gt;Node5</title>
<path fill="none" stroke="#63b8ff" d="M77.95,-219.75C82.51,-212.42 89.17,-201.73 94.79,-192.7"/>
<polygon fill="#63b8ff" stroke="#63b8ff" points="97.84,-194.43 100.15,-184.09 91.9,-190.73 97.84,-194.43"/>
</g>
<!-- Node8 -->
<g id="node8" class="node">
<title>Node8</title>
<g id="a_node8"><a xlink:href="State_8h.html" target="_top" xlink:title=" ">
<polygon fill="white" stroke="#666666" points="240.5,-184 180.5,-184 180.5,-165 240.5,-165 240.5,-184"/>
<text text-anchor="middle" x="210.5" y="-172" font-family="Helvetica,sans-Serif" font-size="10.00">../State.h</text>
</a>
</g>
</g>
<!-- Node2&#45;&gt;Node8 -->
<g id="edge10" class="edge">
<title>Node2&#45;&gt;Node8</title>
<path fill="none" stroke="#63b8ff" d="M94.67,-219.98C117.27,-211.3 152.56,-197.75 178.25,-187.88"/>
<polygon fill="#63b8ff" stroke="#63b8ff" points="179.84,-191.02 187.92,-184.17 177.33,-184.49 179.84,-191.02"/>
</g>
<!-- Node5&#45;&gt;Node3 -->
<g id="edge5" class="edge">
<title>Node5&#45;&gt;Node3</title>
<path fill="none" stroke="#63b8ff" d="M96.02,-164.98C87.3,-157.15 74.16,-145.34 63.6,-135.86"/>
<polygon fill="#63b8ff" stroke="#63b8ff" points="65.93,-133.25 56.15,-129.17 61.25,-138.46 65.93,-133.25"/>
</g>
<!-- Node5&#45;&gt;Node4 -->
<g id="edge6" class="edge">
<title>Node5&#45;&gt;Node4</title>
<path fill="none" stroke="#63b8ff" d="M105.12,-164.74C104.03,-139.31 100.84,-65.08 99.32,-29.69"/>
<polygon fill="#63b8ff" stroke="#63b8ff" points="102.8,-29.15 98.88,-19.31 95.81,-29.45 102.8,-29.15"/>
</g>
<!-- Node6 -->
<g id="node6" class="node">
<title>Node6</title>
<g id="a_node6"><a xlink:href="Entry_8h.html" target="_top" xlink:title=" ">
<polygon fill="white" stroke="#666666" points="230.5,-74 152.5,-74 152.5,-55 230.5,-55 230.5,-74"/>
<text text-anchor="middle" x="191.5" y="-62" font-family="Helvetica,sans-Serif" font-size="10.00">entry/Entry.h</text>
</a>
</g>
</g>
<!-- Node5&#45;&gt;Node6 -->
<g id="edge7" class="edge">
<title>Node5&#45;&gt;Node6</title>
<path fill="none" stroke="#63b8ff" d="M112.26,-164.84C121.83,-152.6 139.92,-129.52 155.5,-110 162.95,-100.66 171.35,-90.28 178.15,-81.89"/>
<polygon fill="#63b8ff" stroke="#63b8ff" points="180.97,-83.97 184.57,-74 175.54,-79.56 180.97,-83.97"/>
</g>
<!-- Node6&#45;&gt;Node4 -->
<g id="edge8" class="edge">
<title>Node6&#45;&gt;Node4</title>
<path fill="none" stroke="#63b8ff" d="M176.56,-54.98C162,-46.69 139.63,-33.94 122.57,-24.22"/>
<polygon fill="#63b8ff" stroke="#63b8ff" points="124.14,-21.08 113.71,-19.17 120.67,-27.16 124.14,-21.08"/>
</g>
<!-- Node7 -->
<g id="node7" class="node">
<title>Node7</title>
<g id="a_node7"><a xlink:href="Modifier_8h.html" target="_top" xlink:title=" ">
<polygon fill="white" stroke="#666666" points="224,-19 159,-19 159,0 224,0 224,-19"/>
<text text-anchor="middle" x="191.5" y="-7" font-family="Helvetica,sans-Serif" font-size="10.00">Modifier.h</text>
</a>
</g>
</g>
<!-- Node6&#45;&gt;Node7 -->
<g id="edge9" class="edge">
<title>Node6&#45;&gt;Node7</title>
<path fill="none" stroke="#63b8ff" d="M191.5,-54.75C191.5,-47.8 191.5,-37.85 191.5,-29.13"/>
<polygon fill="#63b8ff" stroke="#63b8ff" points="195,-29.09 191.5,-19.09 188,-29.09 195,-29.09"/>
</g>
<!-- Node8&#45;&gt;Node6 -->
<g id="edge12" class="edge">
<title>Node8&#45;&gt;Node6</title>
<path fill="none" stroke="#63b8ff" d="M210.43,-164.79C210.2,-152.47 209.25,-129.32 205.5,-110 203.8,-101.25 200.98,-91.81 198.31,-83.88"/>
<polygon fill="#63b8ff" stroke="#63b8ff" points="201.53,-82.47 194.89,-74.21 194.93,-84.81 201.53,-82.47"/>
</g>
<!-- Node9 -->
<g id="node9" class="node">
<title>Node9</title>
<g id="a_node9"><a xlink:title=" ">
<polygon fill="#e0e0e0" stroke="#999999" points="196.5,-129 164.5,-129 164.5,-110 196.5,-110 196.5,-129"/>
<text text-anchor="middle" x="180.5" y="-117" font-family="Helvetica,sans-Serif" font-size="10.00">set</text>
</a>
</g>
</g>
<!-- Node8&#45;&gt;Node9 -->
<g id="edge11" class="edge">
<title>Node8&#45;&gt;Node9</title>
<path fill="none" stroke="#63b8ff" d="M205.55,-164.75C201.44,-157.49 195.47,-146.95 190.4,-137.98"/>
<polygon fill="#63b8ff" stroke="#63b8ff" points="193.33,-136.07 185.36,-129.09 187.24,-139.52 193.33,-136.07"/>
</g>
<!-- Node10 -->
<g id="node10" class="node">
<title>Node10</title>
<g id="a_node10"><a xlink:href="Utility_8h.html" target="_top" xlink:title=" ">
<polygon fill="white" stroke="#666666" points="306.5,-129 252.5,-129 252.5,-110 306.5,-110 306.5,-129"/>
<text text-anchor="middle" x="279.5" y="-117" font-family="Helvetica,sans-Serif" font-size="10.00">Utility.h</text>
</a>
</g>
</g>
<!-- Node8&#45;&gt;Node10 -->
<g id="edge13" class="edge">
<title>Node8&#45;&gt;Node10</title>
<path fill="none" stroke="#63b8ff" d="M221.59,-164.98C231.99,-157 247.76,-144.88 260.22,-135.31"/>
<polygon fill="#63b8ff" stroke="#63b8ff" points="262.41,-138.04 268.21,-129.17 258.15,-132.49 262.41,-138.04"/>
</g>
<!-- Node10&#45;&gt;Node6 -->
<g id="edge15" class="edge">
<title>Node10&#45;&gt;Node6</title>
<path fill="none" stroke="#63b8ff" d="M265.36,-109.98C251.71,-101.77 230.81,-89.18 214.72,-79.49"/>
<polygon fill="#63b8ff" stroke="#63b8ff" points="216.27,-76.33 205.9,-74.17 212.66,-82.33 216.27,-76.33"/>
</g>
<!-- Node11 -->
<g id="node11" class="node">
<title>Node11</title>
<g id="a_node11"><a xlink:title=" ">
<polygon fill="#e0e0e0" stroke="#999999" points="301.5,-74 257.5,-74 257.5,-55 301.5,-55 301.5,-74"/>
<text text-anchor="middle" x="279.5" y="-62" font-family="Helvetica,sans-Serif" font-size="10.00">string</text>
</a>
</g>
</g>
<!-- Node10&#45;&gt;Node11 -->
<g id="edge14" class="edge">
<title>Node10&#45;&gt;Node11</title>
<path fill="none" stroke="#63b8ff" d="M279.5,-109.75C279.5,-102.8 279.5,-92.85 279.5,-84.13"/>
<polygon fill="#63b8ff" stroke="#63b8ff" points="283,-84.09 279.5,-74.09 276,-84.09 283,-84.09"/>
</g>
</g>
</svg>
