<?xml version="1.0" encoding="UTF-8" standalone="no"?>
<!DOCTYPE svg PUBLIC "-//W3C//DTD SVG 1.1//EN"
 "http://www.w3.org/Graphics/SVG/1.1/DTD/svg11.dtd">
<!-- Generated by graphviz version 2.43.0 (0)
 -->
<!-- Title: src/action/ForEachAction.h Pages: 1 -->
<svg width="579pt" height="159pt"
 viewBox="0.00 0.00 579.00 159.00" xmlns="http://www.w3.org/2000/svg" xmlns:xlink="http://www.w3.org/1999/xlink">
<g id="graph0" class="graph" transform="scale(1 1) rotate(0) translate(4 155)">
<title>src/action/ForEachAction.h</title>
<!-- Node1 -->
<g id="node1" class="node">
<title>Node1</title>
<g id="a_node1"><a xlink:title=" ">
<polygon fill="#999999" stroke="#666666" points="359.5,-151 214.5,-151 214.5,-132 359.5,-132 359.5,-151"/>
<text text-anchor="middle" x="287" y="-139" font-family="Helvetica,sans-Serif" font-size="10.00">src/action/ForEachAction.h</text>
</a>
</g>
</g>
<!-- Node2 -->
<g id="node2" class="node">
<title>Node2</title>
<g id="a_node2"><a xlink:href="ForEachAction_8cpp.html" target="_top" xlink:title=" ">
<polygon fill="white" stroke="#666666" points="156,-90.5 0,-90.5 0,-71.5 156,-71.5 156,-90.5"/>
<text text-anchor="middle" x="78" y="-78.5" font-family="Helvetica,sans-Serif" font-size="10.00">src/action/ForEachAction.cpp</text>
</a>
</g>
</g>
<!-- Node1&#45;&gt;Node2 -->
<g id="edge1" class="edge">
<title>Node1&#45;&gt;Node2</title>
<path fill="none" stroke="#63b8ff" d="M246.81,-129.25C206.4,-117.94 144.97,-100.75 108.43,-90.52"/>
<polygon fill="#63b8ff" stroke="#63b8ff" points="246.04,-132.67 256.61,-131.99 247.92,-125.93 246.04,-132.67"/>
</g>
<!-- Node3 -->
<g id="node3" class="node">
<title>Node3</title>
<g id="a_node3"><a xlink:href="CopyAction_8h.html" target="_top" xlink:title=" ">
<polygon fill="white" stroke="#666666" points="278,-96 174,-96 174,-66 278,-66 278,-96"/>
<text text-anchor="start" x="182" y="-84" font-family="Helvetica,sans-Serif" font-size="10.00">src/action/foreach</text>
<text text-anchor="middle" x="226" y="-73" font-family="Helvetica,sans-Serif" font-size="10.00">/CopyAction.h</text>
</a>
</g>
</g>
<!-- Node1&#45;&gt;Node3 -->
<g id="edge2" class="edge">
<title>Node1&#45;&gt;Node3</title>
<path fill="none" stroke="#63b8ff" d="M270.52,-124.7C261.23,-115.78 249.71,-104.74 240.72,-96.11"/>
<polygon fill="#63b8ff" stroke="#63b8ff" points="268.36,-127.47 278,-131.87 273.2,-122.42 268.36,-127.47"/>
</g>
<!-- Node6 -->
<g id="node6" class="node">
<title>Node6</title>
<g id="a_node6"><a xlink:href="DeleteAction_8h.html" target="_top" xlink:title=" ">
<polygon fill="white" stroke="#666666" points="400,-96 296,-96 296,-66 400,-66 400,-96"/>
<text text-anchor="start" x="304" y="-84" font-family="Helvetica,sans-Serif" font-size="10.00">src/action/foreach</text>
<text text-anchor="middle" x="348" y="-73" font-family="Helvetica,sans-Serif" font-size="10.00">/DeleteAction.h</text>
</a>
</g>
</g>
<!-- Node1&#45;&gt;Node6 -->
<g id="edge5" class="edge">
<title>Node1&#45;&gt;Node6</title>
<path fill="none" stroke="#63b8ff" d="M303.48,-124.7C312.77,-115.78 324.29,-104.74 333.28,-96.11"/>
<polygon fill="#63b8ff" stroke="#63b8ff" points="300.8,-122.42 296,-131.87 305.64,-127.47 300.8,-122.42"/>
</g>
<!-- Node8 -->
<g id="node8" class="node">
<title>Node8</title>
<g id="a_node8"><a xlink:href="MoveAction_8h.html" target="_top" xlink:title=" ">
<polygon fill="white" stroke="#666666" points="522,-96 418,-96 418,-66 522,-66 522,-96"/>
<text text-anchor="start" x="426" y="-84" font-family="Helvetica,sans-Serif" font-size="10.00">src/action/foreach</text>
<text text-anchor="middle" x="470" y="-73" font-family="Helvetica,sans-Serif" font-size="10.00">/MoveAction.h</text>
</a>
</g>
</g>
<!-- Node1&#45;&gt;Node8 -->
<g id="edge8" class="edge">
<title>Node1&#45;&gt;Node8</title>
<path fill="none" stroke="#63b8ff" d="M323.5,-128.83C353.01,-119.4 394.66,-106.09 426,-96.06"/>
<polygon fill="#63b8ff" stroke="#63b8ff" points="322.07,-125.61 313.61,-131.99 324.2,-132.28 322.07,-125.61"/>
</g>
<!-- Node4 -->
<g id="node4" class="node">
<title>Node4</title>
<g id="a_node4"><a xlink:href="CopyAction_8cpp.html" target="_top" xlink:title=" ">
<polygon fill="white" stroke="#666666" points="229,-30 125,-30 125,0 229,0 229,-30"/>
<text text-anchor="start" x="133" y="-18" font-family="Helvetica,sans-Serif" font-size="10.00">src/action/foreach</text>
<text text-anchor="middle" x="177" y="-7" font-family="Helvetica,sans-Serif" font-size="10.00">/CopyAction.cpp</text>
</a>
</g>
</g>
<!-- Node3&#45;&gt;Node4 -->
<g id="edge3" class="edge">
<title>Node3&#45;&gt;Node4</title>
<path fill="none" stroke="#63b8ff" d="M209.01,-57.81C201.99,-48.64 194.06,-38.28 187.84,-30.16"/>
<polygon fill="#63b8ff" stroke="#63b8ff" points="206.27,-59.98 215.13,-65.8 211.83,-55.73 206.27,-59.98"/>
</g>
<!-- Node5 -->
<g id="node5" class="node">
<title>Node5</title>
<g id="a_node5"><a xlink:href="main_8cpp.html" target="_top" xlink:title=" ">
<polygon fill="white" stroke="#666666" points="326.5,-24.5 247.5,-24.5 247.5,-5.5 326.5,-5.5 326.5,-24.5"/>
<text text-anchor="middle" x="287" y="-12.5" font-family="Helvetica,sans-Serif" font-size="10.00">src/main.cpp</text>
</a>
</g>
</g>
<!-- Node3&#45;&gt;Node5 -->
<g id="edge4" class="edge">
<title>Node3&#45;&gt;Node5</title>
<path fill="none" stroke="#63b8ff" d="M246.71,-58.27C257.61,-46.84 270.38,-33.44 278.57,-24.84"/>
<polygon fill="#63b8ff" stroke="#63b8ff" points="243.9,-56.14 239.54,-65.8 248.97,-60.97 243.9,-56.14"/>
</g>
<!-- Node6&#45;&gt;Node5 -->
<g id="edge7" class="edge">
<title>Node6&#45;&gt;Node5</title>
<path fill="none" stroke="#63b8ff" d="M327.29,-58.27C316.39,-46.84 303.62,-33.44 295.43,-24.84"/>
<polygon fill="#63b8ff" stroke="#63b8ff" points="325.03,-60.97 334.46,-65.8 330.1,-56.14 325.03,-60.97"/>
</g>
<!-- Node7 -->
<g id="node7" class="node">
<title>Node7</title>
<g id="a_node7"><a xlink:href="DeleteAction_8cpp.html" target="_top" xlink:title=" ">
<polygon fill="white" stroke="#666666" points="449,-30 345,-30 345,0 449,0 449,-30"/>
<text text-anchor="start" x="353" y="-18" font-family="Helvetica,sans-Serif" font-size="10.00">src/action/foreach</text>
<text text-anchor="middle" x="397" y="-7" font-family="Helvetica,sans-Serif" font-size="10.00">/DeleteAction.cpp</text>
</a>
</g>
</g>
<!-- Node6&#45;&gt;Node7 -->
<g id="edge6" class="edge">
<title>Node6&#45;&gt;Node7</title>
<path fill="none" stroke="#63b8ff" d="M364.99,-57.81C372.01,-48.64 379.94,-38.28 386.16,-30.16"/>
<polygon fill="#63b8ff" stroke="#63b8ff" points="362.17,-55.73 358.87,-65.8 367.73,-59.98 362.17,-55.73"/>
</g>
<!-- Node8&#45;&gt;Node5 -->
<g id="edge10" class="edge">
<title>Node8&#45;&gt;Node5</title>
<path fill="none" stroke="#63b8ff" d="M420.18,-62.58C384.86,-50.23 339.01,-34.19 311.35,-24.52"/>
<polygon fill="#63b8ff" stroke="#63b8ff" points="419.25,-65.96 429.84,-65.95 421.56,-59.35 419.25,-65.96"/>
</g>
<!-- Node9 -->
<g id="node9" class="node">
<title>Node9</title>
<g id="a_node9"><a xlink:href="MoveAction_8cpp.html" target="_top" xlink:title=" ">
<polygon fill="white" stroke="#666666" points="571,-30 467,-30 467,0 571,0 571,-30"/>
<text text-anchor="start" x="475" y="-18" font-family="Helvetica,sans-Serif" font-size="10.00">src/action/foreach</text>
<text text-anchor="middle" x="519" y="-7" font-family="Helvetica,sans-Serif" font-size="10.00">/MoveAction.cpp</text>
</a>
</g>
</g>
<!-- Node8&#45;&gt;Node9 -->
<g id="edge9" class="edge">
<title>Node8&#45;&gt;Node9</title>
<path fill="none" stroke="#63b8ff" d="M486.99,-57.81C494.01,-48.64 501.94,-38.28 508.16,-30.16"/>
<polygon fill="#63b8ff" stroke="#63b8ff" points="484.17,-55.73 480.87,-65.8 489.73,-59.98 484.17,-55.73"/>
</g>
</g>
</svg>
