<?xml version="1.0" encoding="UTF-8" standalone="no"?>
<!DOCTYPE svg PUBLIC "-//W3C//DTD SVG 1.1//EN"
 "http://www.w3.org/Graphics/SVG/1.1/DTD/svg11.dtd">
<!-- Generated by graphviz version 2.43.0 (0)
 -->
<!-- Title: src/action/ForEachAction.cpp Pages: 1 -->
<svg width="320pt" height="357pt"
 viewBox="0.00 0.00 320.00 357.00" xmlns="http://www.w3.org/2000/svg" xmlns:xlink="http://www.w3.org/1999/xlink">
<g id="graph0" class="graph" transform="scale(1 1) rotate(0) translate(4 353)">
<title>src/action/ForEachAction.cpp</title>
<!-- Node1 -->
<g id="node1" class="node">
<title>Node1</title>
<g id="a_node1"><a xlink:title=" ">
<polygon fill="#999999" stroke="#666666" points="156,-349 0,-349 0,-330 156,-330 156,-349"/>
<text text-anchor="middle" x="78" y="-337" font-family="Helvetica,sans-Serif" font-size="10.00">src/action/ForEachAction.cpp</text>
</a>
</g>
</g>
<!-- Node2 -->
<g id="node2" class="node">
<title>Node2</title>
<g id="a_node2"><a xlink:href="ForEachAction_8h.html" target="_top" xlink:title=" ">
<polygon fill="white" stroke="#666666" points="125.5,-294 30.5,-294 30.5,-275 125.5,-275 125.5,-294"/>
<text text-anchor="middle" x="78" y="-282" font-family="Helvetica,sans-Serif" font-size="10.00">ForEachAction.h</text>
</a>
</g>
</g>
<!-- Node1&#45;&gt;Node2 -->
<g id="edge1" class="edge">
<title>Node1&#45;&gt;Node2</title>
<path fill="none" stroke="#63b8ff" d="M78,-329.75C78,-322.8 78,-312.85 78,-304.13"/>
<polygon fill="#63b8ff" stroke="#63b8ff" points="81.5,-304.09 78,-294.09 74.5,-304.09 81.5,-304.09"/>
</g>
<!-- Node3 -->
<g id="node3" class="node">
<title>Node3</title>
<g id="a_node3"><a xlink:href="Action_8h.html" target="_top" xlink:title=" ">
<polygon fill="white" stroke="#666666" points="106,-239 50,-239 50,-220 106,-220 106,-239"/>
<text text-anchor="middle" x="78" y="-227" font-family="Helvetica,sans-Serif" font-size="10.00">Action.h</text>
</a>
</g>
</g>
<!-- Node2&#45;&gt;Node3 -->
<g id="edge2" class="edge">
<title>Node2&#45;&gt;Node3</title>
<path fill="none" stroke="#63b8ff" d="M78,-274.75C78,-267.8 78,-257.85 78,-249.13"/>
<polygon fill="#63b8ff" stroke="#63b8ff" points="81.5,-249.09 78,-239.09 74.5,-249.09 81.5,-249.09"/>
</g>
<!-- Node4 -->
<g id="node4" class="node">
<title>Node4</title>
<g id="a_node4"><a xlink:title=" ">
<polygon fill="#e0e0e0" stroke="#999999" points="75.5,-129 28.5,-129 28.5,-110 75.5,-110 75.5,-129"/>
<text text-anchor="middle" x="52" y="-117" font-family="Helvetica,sans-Serif" font-size="10.00">vector</text>
</a>
</g>
</g>
<!-- Node3&#45;&gt;Node4 -->
<g id="edge3" class="edge">
<title>Node3&#45;&gt;Node4</title>
<path fill="none" stroke="#63b8ff" d="M74.9,-219.72C71.83,-210.81 67.15,-196.57 64,-184 60.28,-169.17 57.12,-152.13 54.98,-139.44"/>
<polygon fill="#63b8ff" stroke="#63b8ff" points="58.37,-138.51 53.31,-129.2 51.46,-139.63 58.37,-138.51"/>
</g>
<!-- Node5 -->
<g id="node5" class="node">
<title>Node5</title>
<g id="a_node5"><a xlink:title=" ">
<polygon fill="#e0e0e0" stroke="#999999" points="138,-19 70,-19 70,0 138,0 138,-19"/>
<text text-anchor="middle" x="104" y="-7" font-family="Helvetica,sans-Serif" font-size="10.00">filesystem</text>
</a>
</g>
</g>
<!-- Node3&#45;&gt;Node5 -->
<g id="edge4" class="edge">
<title>Node3&#45;&gt;Node5</title>
<path fill="none" stroke="#63b8ff" d="M68.17,-219.87C47.6,-200.71 3.17,-152.91 19,-110 32.06,-74.59 63.96,-43.24 84.75,-25.59"/>
<polygon fill="#63b8ff" stroke="#63b8ff" points="87.14,-28.16 92.64,-19.1 82.69,-22.76 87.14,-28.16"/>
</g>
<!-- Node6 -->
<g id="node6" class="node">
<title>Node6</title>
<g id="a_node6"><a xlink:href="FileView_8h.html" target="_top" xlink:title=" ">
<polygon fill="white" stroke="#666666" points="148.5,-184 73.5,-184 73.5,-165 148.5,-165 148.5,-184"/>
<text text-anchor="middle" x="111" y="-172" font-family="Helvetica,sans-Serif" font-size="10.00">../FileView.h</text>
</a>
</g>
</g>
<!-- Node3&#45;&gt;Node6 -->
<g id="edge5" class="edge">
<title>Node3&#45;&gt;Node6</title>
<path fill="none" stroke="#63b8ff" d="M83.45,-219.75C88.01,-212.42 94.67,-201.73 100.29,-192.7"/>
<polygon fill="#63b8ff" stroke="#63b8ff" points="103.34,-194.43 105.65,-184.09 97.4,-190.73 103.34,-194.43"/>
</g>
<!-- Node9 -->
<g id="node9" class="node">
<title>Node9</title>
<g id="a_node9"><a xlink:href="State_8h.html" target="_top" xlink:title=" ">
<polygon fill="white" stroke="#666666" points="246,-184 186,-184 186,-165 246,-165 246,-184"/>
<text text-anchor="middle" x="216" y="-172" font-family="Helvetica,sans-Serif" font-size="10.00">../State.h</text>
</a>
</g>
</g>
<!-- Node3&#45;&gt;Node9 -->
<g id="edge11" class="edge">
<title>Node3&#45;&gt;Node9</title>
<path fill="none" stroke="#63b8ff" d="M100.17,-219.98C122.77,-211.3 158.06,-197.75 183.75,-187.88"/>
<polygon fill="#63b8ff" stroke="#63b8ff" points="185.34,-191.02 193.42,-184.17 182.83,-184.49 185.34,-191.02"/>
</g>
<!-- Node6&#45;&gt;Node4 -->
<g id="edge6" class="edge">
<title>Node6&#45;&gt;Node4</title>
<path fill="none" stroke="#63b8ff" d="M101.52,-164.98C92.8,-157.15 79.66,-145.34 69.1,-135.86"/>
<polygon fill="#63b8ff" stroke="#63b8ff" points="71.43,-133.25 61.65,-129.17 66.75,-138.46 71.43,-133.25"/>
</g>
<!-- Node6&#45;&gt;Node5 -->
<g id="edge7" class="edge">
<title>Node6&#45;&gt;Node5</title>
<path fill="none" stroke="#63b8ff" d="M110.62,-164.74C109.53,-139.31 106.34,-65.08 104.82,-29.69"/>
<polygon fill="#63b8ff" stroke="#63b8ff" points="108.3,-29.15 104.38,-19.31 101.31,-29.45 108.3,-29.15"/>
</g>
<!-- Node7 -->
<g id="node7" class="node">
<title>Node7</title>
<g id="a_node7"><a xlink:href="Entry_8h.html" target="_top" xlink:title=" ">
<polygon fill="white" stroke="#666666" points="236,-74 158,-74 158,-55 236,-55 236,-74"/>
<text text-anchor="middle" x="197" y="-62" font-family="Helvetica,sans-Serif" font-size="10.00">entry/Entry.h</text>
</a>
</g>
</g>
<!-- Node6&#45;&gt;Node7 -->
<g id="edge8" class="edge">
<title>Node6&#45;&gt;Node7</title>
<path fill="none" stroke="#63b8ff" d="M117.76,-164.84C127.33,-152.6 145.42,-129.52 161,-110 168.45,-100.66 176.85,-90.28 183.65,-81.89"/>
<polygon fill="#63b8ff" stroke="#63b8ff" points="186.47,-83.97 190.07,-74 181.04,-79.56 186.47,-83.97"/>
</g>
<!-- Node7&#45;&gt;Node5 -->
<g id="edge9" class="edge">
<title>Node7&#45;&gt;Node5</title>
<path fill="none" stroke="#63b8ff" d="M182.06,-54.98C167.5,-46.69 145.13,-33.94 128.07,-24.22"/>
<polygon fill="#63b8ff" stroke="#63b8ff" points="129.64,-21.08 119.21,-19.17 126.17,-27.16 129.64,-21.08"/>
</g>
<!-- Node8 -->
<g id="node8" class="node">
<title>Node8</title>
<g id="a_node8"><a xlink:href="Modifier_8h.html" target="_top" xlink:title=" ">
<polygon fill="white" stroke="#666666" points="229.5,-19 164.5,-19 164.5,0 229.5,0 229.5,-19"/>
<text text-anchor="middle" x="197" y="-7" font-family="Helvetica,sans-Serif" font-size="10.00">Modifier.h</text>
</a>
</g>
</g>
<!-- Node7&#45;&gt;Node8 -->
<g id="edge10" class="edge">
<title>Node7&#45;&gt;Node8</title>
<path fill="none" stroke="#63b8ff" d="M197,-54.75C197,-47.8 197,-37.85 197,-29.13"/>
<polygon fill="#63b8ff" stroke="#63b8ff" points="200.5,-29.09 197,-19.09 193.5,-29.09 200.5,-29.09"/>
</g>
<!-- Node9&#45;&gt;Node7 -->
<g id="edge13" class="edge">
<title>Node9&#45;&gt;Node7</title>
<path fill="none" stroke="#63b8ff" d="M215.93,-164.79C215.7,-152.47 214.75,-129.32 211,-110 209.3,-101.25 206.48,-91.81 203.81,-83.88"/>
<polygon fill="#63b8ff" stroke="#63b8ff" points="207.03,-82.47 200.39,-74.21 200.43,-84.81 207.03,-82.47"/>
</g>
<!-- Node10 -->
<g id="node10" class="node">
<title>Node10</title>
<g id="a_node10"><a xlink:title=" ">
<polygon fill="#e0e0e0" stroke="#999999" points="202,-129 170,-129 170,-110 202,-110 202,-129"/>
<text text-anchor="middle" x="186" y="-117" font-family="Helvetica,sans-Serif" font-size="10.00">set</text>
</a>
</g>
</g>
<!-- Node9&#45;&gt;Node10 -->
<g id="edge12" class="edge">
<title>Node9&#45;&gt;Node10</title>
<path fill="none" stroke="#63b8ff" d="M211.05,-164.75C206.94,-157.49 200.97,-146.95 195.9,-137.98"/>
<polygon fill="#63b8ff" stroke="#63b8ff" points="198.83,-136.07 190.86,-129.09 192.74,-139.52 198.83,-136.07"/>
</g>
<!-- Node11 -->
<g id="node11" class="node">
<title>Node11</title>
<g id="a_node11"><a xlink:href="Utility_8h.html" target="_top" xlink:title=" ">
<polygon fill="white" stroke="#666666" points="312,-129 258,-129 258,-110 312,-110 312,-129"/>
<text text-anchor="middle" x="285" y="-117" font-family="Helvetica,sans-Serif" font-size="10.00">Utility.h</text>
</a>
</g>
</g>
<!-- Node9&#45;&gt;Node11 -->
<g id="edge14" class="edge">
<title>Node9&#45;&gt;Node11</title>
<path fill="none" stroke="#63b8ff" d="M227.09,-164.98C237.49,-157 253.26,-144.88 265.72,-135.31"/>
<polygon fill="#63b8ff" stroke="#63b8ff" points="267.91,-138.04 273.71,-129.17 263.65,-132.49 267.91,-138.04"/>
</g>
<!-- Node11&#45;&gt;Node7 -->
<g id="edge16" class="edge">
<title>Node11&#45;&gt;Node7</title>
<path fill="none" stroke="#63b8ff" d="M270.86,-109.98C257.21,-101.77 236.31,-89.18 220.22,-79.49"/>
<polygon fill="#63b8ff" stroke="#63b8ff" points="221.77,-76.33 211.4,-74.17 218.16,-82.33 221.77,-76.33"/>
</g>
<!-- Node12 -->
<g id="node12" class="node">
<title>Node12</title>
<g id="a_node12"><a xlink:title=" ">
<polygon fill="#e0e0e0" stroke="#999999" points="307,-74 263,-74 263,-55 307,-55 307,-74"/>
<text text-anchor="middle" x="285" y="-62" font-family="Helvetica,sans-Serif" font-size="10.00">string</text>
</a>
</g>
</g>
<!-- Node11&#45;&gt;Node12 -->
<g id="edge15" class="edge">
<title>Node11&#45;&gt;Node12</title>
<path fill="none" stroke="#63b8ff" d="M285,-109.75C285,-102.8 285,-92.85 285,-84.13"/>
<polygon fill="#63b8ff" stroke="#63b8ff" points="288.5,-84.09 285,-74.09 281.5,-84.09 288.5,-84.09"/>
</g>
</g>
</svg>
