<?xml version="1.0" encoding="UTF-8" standalone="no"?>
<!DOCTYPE svg PUBLIC "-//W3C//DTD SVG 1.1//EN"
 "http://www.w3.org/Graphics/SVG/1.1/DTD/svg11.dtd">
<!-- Generated by graphviz version 2.43.0 (0)
 -->
<!-- Title: src/action/once/GoBackAction.cpp Pages: 1 -->
<svg width="333pt" height="412pt"
 viewBox="0.00 0.00 333.00 412.00" xmlns="http://www.w3.org/2000/svg" xmlns:xlink="http://www.w3.org/1999/xlink">
<g id="graph0" class="graph" transform="scale(1 1) rotate(0) translate(4 408)">
<title>src/action/once/GoBackAction.cpp</title>
<!-- Node1 -->
<g id="node1" class="node">
<title>Node1</title>
<g id="a_node1"><a xlink:title=" ">
<polygon fill="#999999" stroke="#666666" points="182,-404 0,-404 0,-385 182,-385 182,-404"/>
<text text-anchor="middle" x="91" y="-392" font-family="Helvetica,sans-Serif" font-size="10.00">src/action/once/GoBackAction.cpp</text>
</a>
</g>
</g>
<!-- Node2 -->
<g id="node2" class="node">
<title>Node2</title>
<g id="a_node2"><a xlink:href="GoBackAction_8h.html" target="_top" xlink:title=" ">
<polygon fill="white" stroke="#666666" points="138,-349 44,-349 44,-330 138,-330 138,-349"/>
<text text-anchor="middle" x="91" y="-337" font-family="Helvetica,sans-Serif" font-size="10.00">GoBackAction.h</text>
</a>
</g>
</g>
<!-- Node1&#45;&gt;Node2 -->
<g id="edge1" class="edge">
<title>Node1&#45;&gt;Node2</title>
<path fill="none" stroke="#63b8ff" d="M91,-384.75C91,-377.8 91,-367.85 91,-359.13"/>
<polygon fill="#63b8ff" stroke="#63b8ff" points="94.5,-359.09 91,-349.09 87.5,-359.09 94.5,-359.09"/>
</g>
<!-- Node3 -->
<g id="node3" class="node">
<title>Node3</title>
<g id="a_node3"><a xlink:href="OnceAction_8h.html" target="_top" xlink:title=" ">
<polygon fill="white" stroke="#666666" points="136,-294 46,-294 46,-275 136,-275 136,-294"/>
<text text-anchor="middle" x="91" y="-282" font-family="Helvetica,sans-Serif" font-size="10.00">../OnceAction.h</text>
</a>
</g>
</g>
<!-- Node2&#45;&gt;Node3 -->
<g id="edge2" class="edge">
<title>Node2&#45;&gt;Node3</title>
<path fill="none" stroke="#63b8ff" d="M91,-329.75C91,-322.8 91,-312.85 91,-304.13"/>
<polygon fill="#63b8ff" stroke="#63b8ff" points="94.5,-304.09 91,-294.09 87.5,-304.09 94.5,-304.09"/>
</g>
<!-- Node4 -->
<g id="node4" class="node">
<title>Node4</title>
<g id="a_node4"><a xlink:href="Action_8h.html" target="_top" xlink:title=" ">
<polygon fill="white" stroke="#666666" points="119,-239 63,-239 63,-220 119,-220 119,-239"/>
<text text-anchor="middle" x="91" y="-227" font-family="Helvetica,sans-Serif" font-size="10.00">Action.h</text>
</a>
</g>
</g>
<!-- Node3&#45;&gt;Node4 -->
<g id="edge3" class="edge">
<title>Node3&#45;&gt;Node4</title>
<path fill="none" stroke="#63b8ff" d="M91,-274.75C91,-267.8 91,-257.85 91,-249.13"/>
<polygon fill="#63b8ff" stroke="#63b8ff" points="94.5,-249.09 91,-239.09 87.5,-249.09 94.5,-249.09"/>
</g>
<!-- Node5 -->
<g id="node5" class="node">
<title>Node5</title>
<g id="a_node5"><a xlink:title=" ">
<polygon fill="#e0e0e0" stroke="#999999" points="88.5,-129 41.5,-129 41.5,-110 88.5,-110 88.5,-129"/>
<text text-anchor="middle" x="65" y="-117" font-family="Helvetica,sans-Serif" font-size="10.00">vector</text>
</a>
</g>
</g>
<!-- Node4&#45;&gt;Node5 -->
<g id="edge4" class="edge">
<title>Node4&#45;&gt;Node5</title>
<path fill="none" stroke="#63b8ff" d="M87.9,-219.72C84.83,-210.81 80.15,-196.57 77,-184 73.28,-169.17 70.12,-152.13 67.98,-139.44"/>
<polygon fill="#63b8ff" stroke="#63b8ff" points="71.37,-138.51 66.31,-129.2 64.46,-139.63 71.37,-138.51"/>
</g>
<!-- Node6 -->
<g id="node6" class="node">
<title>Node6</title>
<g id="a_node6"><a xlink:title=" ">
<polygon fill="#e0e0e0" stroke="#999999" points="151,-19 83,-19 83,0 151,0 151,-19"/>
<text text-anchor="middle" x="117" y="-7" font-family="Helvetica,sans-Serif" font-size="10.00">filesystem</text>
</a>
</g>
</g>
<!-- Node4&#45;&gt;Node6 -->
<g id="edge5" class="edge">
<title>Node4&#45;&gt;Node6</title>
<path fill="none" stroke="#63b8ff" d="M81.17,-219.87C60.6,-200.71 16.17,-152.91 32,-110 45.06,-74.59 76.96,-43.24 97.75,-25.59"/>
<polygon fill="#63b8ff" stroke="#63b8ff" points="100.14,-28.16 105.64,-19.1 95.69,-22.76 100.14,-28.16"/>
</g>
<!-- Node7 -->
<g id="node7" class="node">
<title>Node7</title>
<g id="a_node7"><a xlink:href="FileView_8h.html" target="_top" xlink:title=" ">
<polygon fill="white" stroke="#666666" points="161.5,-184 86.5,-184 86.5,-165 161.5,-165 161.5,-184"/>
<text text-anchor="middle" x="124" y="-172" font-family="Helvetica,sans-Serif" font-size="10.00">../FileView.h</text>
</a>
</g>
</g>
<!-- Node4&#45;&gt;Node7 -->
<g id="edge6" class="edge">
<title>Node4&#45;&gt;Node7</title>
<path fill="none" stroke="#63b8ff" d="M96.45,-219.75C101.01,-212.42 107.67,-201.73 113.29,-192.7"/>
<polygon fill="#63b8ff" stroke="#63b8ff" points="116.34,-194.43 118.65,-184.09 110.4,-190.73 116.34,-194.43"/>
</g>
<!-- Node10 -->
<g id="node10" class="node">
<title>Node10</title>
<g id="a_node10"><a xlink:href="State_8h.html" target="_top" xlink:title=" ">
<polygon fill="white" stroke="#666666" points="259,-184 199,-184 199,-165 259,-165 259,-184"/>
<text text-anchor="middle" x="229" y="-172" font-family="Helvetica,sans-Serif" font-size="10.00">../State.h</text>
</a>
</g>
</g>
<!-- Node4&#45;&gt;Node10 -->
<g id="edge12" class="edge">
<title>Node4&#45;&gt;Node10</title>
<path fill="none" stroke="#63b8ff" d="M113.17,-219.98C135.77,-211.3 171.06,-197.75 196.75,-187.88"/>
<polygon fill="#63b8ff" stroke="#63b8ff" points="198.34,-191.02 206.42,-184.17 195.83,-184.49 198.34,-191.02"/>
</g>
<!-- Node7&#45;&gt;Node5 -->
<g id="edge7" class="edge">
<title>Node7&#45;&gt;Node5</title>
<path fill="none" stroke="#63b8ff" d="M114.52,-164.98C105.8,-157.15 92.66,-145.34 82.1,-135.86"/>
<polygon fill="#63b8ff" stroke="#63b8ff" points="84.43,-133.25 74.65,-129.17 79.75,-138.46 84.43,-133.25"/>
</g>
<!-- Node7&#45;&gt;Node6 -->
<g id="edge8" class="edge">
<title>Node7&#45;&gt;Node6</title>
<path fill="none" stroke="#63b8ff" d="M123.62,-164.74C122.53,-139.31 119.34,-65.08 117.82,-29.69"/>
<polygon fill="#63b8ff" stroke="#63b8ff" points="121.3,-29.15 117.38,-19.31 114.31,-29.45 121.3,-29.15"/>
</g>
<!-- Node8 -->
<g id="node8" class="node">
<title>Node8</title>
<g id="a_node8"><a xlink:href="Entry_8h.html" target="_top" xlink:title=" ">
<polygon fill="white" stroke="#666666" points="249,-74 171,-74 171,-55 249,-55 249,-74"/>
<text text-anchor="middle" x="210" y="-62" font-family="Helvetica,sans-Serif" font-size="10.00">entry/Entry.h</text>
</a>
</g>
</g>
<!-- Node7&#45;&gt;Node8 -->
<g id="edge9" class="edge">
<title>Node7&#45;&gt;Node8</title>
<path fill="none" stroke="#63b8ff" d="M130.76,-164.84C140.33,-152.6 158.42,-129.52 174,-110 181.45,-100.66 189.85,-90.28 196.65,-81.89"/>
<polygon fill="#63b8ff" stroke="#63b8ff" points="199.47,-83.97 203.07,-74 194.04,-79.56 199.47,-83.97"/>
</g>
<!-- Node8&#45;&gt;Node6 -->
<g id="edge10" class="edge">
<title>Node8&#45;&gt;Node6</title>
<path fill="none" stroke="#63b8ff" d="M195.06,-54.98C180.5,-46.69 158.13,-33.94 141.07,-24.22"/>
<polygon fill="#63b8ff" stroke="#63b8ff" points="142.64,-21.08 132.21,-19.17 139.17,-27.16 142.64,-21.08"/>
</g>
<!-- Node9 -->
<g id="node9" class="node">
<title>Node9</title>
<g id="a_node9"><a xlink:href="Modifier_8h.html" target="_top" xlink:title=" ">
<polygon fill="white" stroke="#666666" points="242.5,-19 177.5,-19 177.5,0 242.5,0 242.5,-19"/>
<text text-anchor="middle" x="210" y="-7" font-family="Helvetica,sans-Serif" font-size="10.00">Modifier.h</text>
</a>
</g>
</g>
<!-- Node8&#45;&gt;Node9 -->
<g id="edge11" class="edge">
<title>Node8&#45;&gt;Node9</title>
<path fill="none" stroke="#63b8ff" d="M210,-54.75C210,-47.8 210,-37.85 210,-29.13"/>
<polygon fill="#63b8ff" stroke="#63b8ff" points="213.5,-29.09 210,-19.09 206.5,-29.09 213.5,-29.09"/>
</g>
<!-- Node10&#45;&gt;Node8 -->
<g id="edge14" class="edge">
<title>Node10&#45;&gt;Node8</title>
<path fill="none" stroke="#63b8ff" d="M228.93,-164.79C228.7,-152.47 227.75,-129.32 224,-110 222.3,-101.25 219.48,-91.81 216.81,-83.88"/>
<polygon fill="#63b8ff" stroke="#63b8ff" points="220.03,-82.47 213.39,-74.21 213.43,-84.81 220.03,-82.47"/>
</g>
<!-- Node11 -->
<g id="node11" class="node">
<title>Node11</title>
<g id="a_node11"><a xlink:title=" ">
<polygon fill="#e0e0e0" stroke="#999999" points="215,-129 183,-129 183,-110 215,-110 215,-129"/>
<text text-anchor="middle" x="199" y="-117" font-family="Helvetica,sans-Serif" font-size="10.00">set</text>
</a>
</g>
</g>
<!-- Node10&#45;&gt;Node11 -->
<g id="edge13" class="edge">
<title>Node10&#45;&gt;Node11</title>
<path fill="none" stroke="#63b8ff" d="M224.05,-164.75C219.94,-157.49 213.97,-146.95 208.9,-137.98"/>
<polygon fill="#63b8ff" stroke="#63b8ff" points="211.83,-136.07 203.86,-129.09 205.74,-139.52 211.83,-136.07"/>
</g>
<!-- Node12 -->
<g id="node12" class="node">
<title>Node12</title>
<g id="a_node12"><a xlink:href="Utility_8h.html" target="_top" xlink:title=" ">
<polygon fill="white" stroke="#666666" points="325,-129 271,-129 271,-110 325,-110 325,-129"/>
<text text-anchor="middle" x="298" y="-117" font-family="Helvetica,sans-Serif" font-size="10.00">Utility.h</text>
</a>
</g>
</g>
<!-- Node10&#45;&gt;Node12 -->
<g id="edge15" class="edge">
<title>Node10&#45;&gt;Node12</title>
<path fill="none" stroke="#63b8ff" d="M240.09,-164.98C250.49,-157 266.26,-144.88 278.72,-135.31"/>
<polygon fill="#63b8ff" stroke="#63b8ff" points="280.91,-138.04 286.71,-129.17 276.65,-132.49 280.91,-138.04"/>
</g>
<!-- Node12&#45;&gt;Node8 -->
<g id="edge17" class="edge">
<title>Node12&#45;&gt;Node8</title>
<path fill="none" stroke="#63b8ff" d="M283.86,-109.98C270.21,-101.77 249.31,-89.18 233.22,-79.49"/>
<polygon fill="#63b8ff" stroke="#63b8ff" points="234.77,-76.33 224.4,-74.17 231.16,-82.33 234.77,-76.33"/>
</g>
<!-- Node13 -->
<g id="node13" class="node">
<title>Node13</title>
<g id="a_node13"><a xlink:title=" ">
<polygon fill="#e0e0e0" stroke="#999999" points="320,-74 276,-74 276,-55 320,-55 320,-74"/>
<text text-anchor="middle" x="298" y="-62" font-family="Helvetica,sans-Serif" font-size="10.00">string</text>
</a>
</g>
</g>
<!-- Node12&#45;&gt;Node13 -->
<g id="edge16" class="edge">
<title>Node12&#45;&gt;Node13</title>
<path fill="none" stroke="#63b8ff" d="M298,-109.75C298,-102.8 298,-92.85 298,-84.13"/>
<polygon fill="#63b8ff" stroke="#63b8ff" points="301.5,-84.09 298,-74.09 294.5,-84.09 301.5,-84.09"/>
</g>
</g>
</svg>
