<?xml version="1.0" encoding="UTF-8" standalone="no"?>
<!DOCTYPE svg PUBLIC "-//W3C//DTD SVG 1.1//EN"
 "http://www.w3.org/Graphics/SVG/1.1/DTD/svg11.dtd">
<!-- Generated by graphviz version 2.43.0 (0)
 -->
<!-- Title: src/action/once/GoBackAction.h Pages: 1 -->
<svg width="327pt" height="357pt"
 viewBox="0.00 0.00 327.00 357.00" xmlns="http://www.w3.org/2000/svg" xmlns:xlink="http://www.w3.org/1999/xlink">
<g id="graph0" class="graph" transform="scale(1 1) rotate(0) translate(4 353)">
<title>src/action/once/GoBackAction.h</title>
<!-- Node1 -->
<g id="node1" class="node">
<title>Node1</title>
<g id="a_node1"><a xlink:title=" ">
<polygon fill="#999999" stroke="#666666" points="170,-349 0,-349 0,-330 170,-330 170,-349"/>
<text text-anchor="middle" x="85" y="-337" font-family="Helvetica,sans-Serif" font-size="10.00">src/action/once/GoBackAction.h</text>
</a>
</g>
</g>
<!-- Node2 -->
<g id="node2" class="node">
<title>Node2</title>
<g id="a_node2"><a xlink:href="OnceAction_8h.html" target="_top" xlink:title=" ">
<polygon fill="white" stroke="#666666" points="130,-294 40,-294 40,-275 130,-275 130,-294"/>
<text text-anchor="middle" x="85" y="-282" font-family="Helvetica,sans-Serif" font-size="10.00">../OnceAction.h</text>
</a>
</g>
</g>
<!-- Node1&#45;&gt;Node2 -->
<g id="edge1" class="edge">
<title>Node1&#45;&gt;Node2</title>
<path fill="none" stroke="#63b8ff" d="M85,-329.75C85,-322.8 85,-312.85 85,-304.13"/>
<polygon fill="#63b8ff" stroke="#63b8ff" points="88.5,-304.09 85,-294.09 81.5,-304.09 88.5,-304.09"/>
</g>
<!-- Node3 -->
<g id="node3" class="node">
<title>Node3</title>
<g id="a_node3"><a xlink:href="Action_8h.html" target="_top" xlink:title=" ">
<polygon fill="white" stroke="#666666" points="113,-239 57,-239 57,-220 113,-220 113,-239"/>
<text text-anchor="middle" x="85" y="-227" font-family="Helvetica,sans-Serif" font-size="10.00">Action.h</text>
</a>
</g>
</g>
<!-- Node2&#45;&gt;Node3 -->
<g id="edge2" class="edge">
<title>Node2&#45;&gt;Node3</title>
<path fill="none" stroke="#63b8ff" d="M85,-274.75C85,-267.8 85,-257.85 85,-249.13"/>
<polygon fill="#63b8ff" stroke="#63b8ff" points="88.5,-249.09 85,-239.09 81.5,-249.09 88.5,-249.09"/>
</g>
<!-- Node4 -->
<g id="node4" class="node">
<title>Node4</title>
<g id="a_node4"><a xlink:title=" ">
<polygon fill="#e0e0e0" stroke="#999999" points="82.5,-129 35.5,-129 35.5,-110 82.5,-110 82.5,-129"/>
<text text-anchor="middle" x="59" y="-117" font-family="Helvetica,sans-Serif" font-size="10.00">vector</text>
</a>
</g>
</g>
<!-- Node3&#45;&gt;Node4 -->
<g id="edge3" class="edge">
<title>Node3&#45;&gt;Node4</title>
<path fill="none" stroke="#63b8ff" d="M81.9,-219.72C78.83,-210.81 74.15,-196.57 71,-184 67.28,-169.17 64.12,-152.13 61.98,-139.44"/>
<polygon fill="#63b8ff" stroke="#63b8ff" points="65.37,-138.51 60.31,-129.2 58.46,-139.63 65.37,-138.51"/>
</g>
<!-- Node5 -->
<g id="node5" class="node">
<title>Node5</title>
<g id="a_node5"><a xlink:title=" ">
<polygon fill="#e0e0e0" stroke="#999999" points="145,-19 77,-19 77,0 145,0 145,-19"/>
<text text-anchor="middle" x="111" y="-7" font-family="Helvetica,sans-Serif" font-size="10.00">filesystem</text>
</a>
</g>
</g>
<!-- Node3&#45;&gt;Node5 -->
<g id="edge4" class="edge">
<title>Node3&#45;&gt;Node5</title>
<path fill="none" stroke="#63b8ff" d="M75.17,-219.87C54.6,-200.71 10.17,-152.91 26,-110 39.06,-74.59 70.96,-43.24 91.75,-25.59"/>
<polygon fill="#63b8ff" stroke="#63b8ff" points="94.14,-28.16 99.64,-19.1 89.69,-22.76 94.14,-28.16"/>
</g>
<!-- Node6 -->
<g id="node6" class="node">
<title>Node6</title>
<g id="a_node6"><a xlink:href="FileView_8h.html" target="_top" xlink:title=" ">
<polygon fill="white" stroke="#666666" points="155.5,-184 80.5,-184 80.5,-165 155.5,-165 155.5,-184"/>
<text text-anchor="middle" x="118" y="-172" font-family="Helvetica,sans-Serif" font-size="10.00">../FileView.h</text>
</a>
</g>
</g>
<!-- Node3&#45;&gt;Node6 -->
<g id="edge5" class="edge">
<title>Node3&#45;&gt;Node6</title>
<path fill="none" stroke="#63b8ff" d="M90.45,-219.75C95.01,-212.42 101.67,-201.73 107.29,-192.7"/>
<polygon fill="#63b8ff" stroke="#63b8ff" points="110.34,-194.43 112.65,-184.09 104.4,-190.73 110.34,-194.43"/>
</g>
<!-- Node9 -->
<g id="node9" class="node">
<title>Node9</title>
<g id="a_node9"><a xlink:href="State_8h.html" target="_top" xlink:title=" ">
<polygon fill="white" stroke="#666666" points="253,-184 193,-184 193,-165 253,-165 253,-184"/>
<text text-anchor="middle" x="223" y="-172" font-family="Helvetica,sans-Serif" font-size="10.00">../State.h</text>
</a>
</g>
</g>
<!-- Node3&#45;&gt;Node9 -->
<g id="edge11" class="edge">
<title>Node3&#45;&gt;Node9</title>
<path fill="none" stroke="#63b8ff" d="M107.17,-219.98C129.77,-211.3 165.06,-197.75 190.75,-187.88"/>
<polygon fill="#63b8ff" stroke="#63b8ff" points="192.34,-191.02 200.42,-184.17 189.83,-184.49 192.34,-191.02"/>
</g>
<!-- Node6&#45;&gt;Node4 -->
<g id="edge6" class="edge">
<title>Node6&#45;&gt;Node4</title>
<path fill="none" stroke="#63b8ff" d="M108.52,-164.98C99.8,-157.15 86.66,-145.34 76.1,-135.86"/>
<polygon fill="#63b8ff" stroke="#63b8ff" points="78.43,-133.25 68.65,-129.17 73.75,-138.46 78.43,-133.25"/>
</g>
<!-- Node6&#45;&gt;Node5 -->
<g id="edge7" class="edge">
<title>Node6&#45;&gt;Node5</title>
<path fill="none" stroke="#63b8ff" d="M117.62,-164.74C116.53,-139.31 113.34,-65.08 111.82,-29.69"/>
<polygon fill="#63b8ff" stroke="#63b8ff" points="115.3,-29.15 111.38,-19.31 108.31,-29.45 115.3,-29.15"/>
</g>
<!-- Node7 -->
<g id="node7" class="node">
<title>Node7</title>
<g id="a_node7"><a xlink:href="Entry_8h.html" target="_top" xlink:title=" ">
<polygon fill="white" stroke="#666666" points="243,-74 165,-74 165,-55 243,-55 243,-74"/>
<text text-anchor="middle" x="204" y="-62" font-family="Helvetica,sans-Serif" font-size="10.00">entry/Entry.h</text>
</a>
</g>
</g>
<!-- Node6&#45;&gt;Node7 -->
<g id="edge8" class="edge">
<title>Node6&#45;&gt;Node7</title>
<path fill="none" stroke="#63b8ff" d="M124.76,-164.84C134.33,-152.6 152.42,-129.52 168,-110 175.45,-100.66 183.85,-90.28 190.65,-81.89"/>
<polygon fill="#63b8ff" stroke="#63b8ff" points="193.47,-83.97 197.07,-74 188.04,-79.56 193.47,-83.97"/>
</g>
<!-- Node7&#45;&gt;Node5 -->
<g id="edge9" class="edge">
<title>Node7&#45;&gt;Node5</title>
<path fill="none" stroke="#63b8ff" d="M189.06,-54.98C174.5,-46.69 152.13,-33.94 135.07,-24.22"/>
<polygon fill="#63b8ff" stroke="#63b8ff" points="136.64,-21.08 126.21,-19.17 133.17,-27.16 136.64,-21.08"/>
</g>
<!-- Node8 -->
<g id="node8" class="node">
<title>Node8</title>
<g id="a_node8"><a xlink:href="Modifier_8h.html" target="_top" xlink:title=" ">
<polygon fill="white" stroke="#666666" points="236.5,-19 171.5,-19 171.5,0 236.5,0 236.5,-19"/>
<text text-anchor="middle" x="204" y="-7" font-family="Helvetica,sans-Serif" font-size="10.00">Modifier.h</text>
</a>
</g>
</g>
<!-- Node7&#45;&gt;Node8 -->
<g id="edge10" class="edge">
<title>Node7&#45;&gt;Node8</title>
<path fill="none" stroke="#63b8ff" d="M204,-54.75C204,-47.8 204,-37.85 204,-29.13"/>
<polygon fill="#63b8ff" stroke="#63b8ff" points="207.5,-29.09 204,-19.09 200.5,-29.09 207.5,-29.09"/>
</g>
<!-- Node9&#45;&gt;Node7 -->
<g id="edge13" class="edge">
<title>Node9&#45;&gt;Node7</title>
<path fill="none" stroke="#63b8ff" d="M222.93,-164.79C222.7,-152.47 221.75,-129.32 218,-110 216.3,-101.25 213.48,-91.81 210.81,-83.88"/>
<polygon fill="#63b8ff" stroke="#63b8ff" points="214.03,-82.47 207.39,-74.21 207.43,-84.81 214.03,-82.47"/>
</g>
<!-- Node10 -->
<g id="node10" class="node">
<title>Node10</title>
<g id="a_node10"><a xlink:title=" ">
<polygon fill="#e0e0e0" stroke="#999999" points="209,-129 177,-129 177,-110 209,-110 209,-129"/>
<text text-anchor="middle" x="193" y="-117" font-family="Helvetica,sans-Serif" font-size="10.00">set</text>
</a>
</g>
</g>
<!-- Node9&#45;&gt;Node10 -->
<g id="edge12" class="edge">
<title>Node9&#45;&gt;Node10</title>
<path fill="none" stroke="#63b8ff" d="M218.05,-164.75C213.94,-157.49 207.97,-146.95 202.9,-137.98"/>
<polygon fill="#63b8ff" stroke="#63b8ff" points="205.83,-136.07 197.86,-129.09 199.74,-139.52 205.83,-136.07"/>
</g>
<!-- Node11 -->
<g id="node11" class="node">
<title>Node11</title>
<g id="a_node11"><a xlink:href="Utility_8h.html" target="_top" xlink:title=" ">
<polygon fill="white" stroke="#666666" points="319,-129 265,-129 265,-110 319,-110 319,-129"/>
<text text-anchor="middle" x="292" y="-117" font-family="Helvetica,sans-Serif" font-size="10.00">Utility.h</text>
</a>
</g>
</g>
<!-- Node9&#45;&gt;Node11 -->
<g id="edge14" class="edge">
<title>Node9&#45;&gt;Node11</title>
<path fill="none" stroke="#63b8ff" d="M234.09,-164.98C244.49,-157 260.26,-144.88 272.72,-135.31"/>
<polygon fill="#63b8ff" stroke="#63b8ff" points="274.91,-138.04 280.71,-129.17 270.65,-132.49 274.91,-138.04"/>
</g>
<!-- Node11&#45;&gt;Node7 -->
<g id="edge16" class="edge">
<title>Node11&#45;&gt;Node7</title>
<path fill="none" stroke="#63b8ff" d="M277.86,-109.98C264.21,-101.77 243.31,-89.18 227.22,-79.49"/>
<polygon fill="#63b8ff" stroke="#63b8ff" points="228.77,-76.33 218.4,-74.17 225.16,-82.33 228.77,-76.33"/>
</g>
<!-- Node12 -->
<g id="node12" class="node">
<title>Node12</title>
<g id="a_node12"><a xlink:title=" ">
<polygon fill="#e0e0e0" stroke="#999999" points="314,-74 270,-74 270,-55 314,-55 314,-74"/>
<text text-anchor="middle" x="292" y="-62" font-family="Helvetica,sans-Serif" font-size="10.00">string</text>
</a>
</g>
</g>
<!-- Node11&#45;&gt;Node12 -->
<g id="edge15" class="edge">
<title>Node11&#45;&gt;Node12</title>
<path fill="none" stroke="#63b8ff" d="M292,-109.75C292,-102.8 292,-92.85 292,-84.13"/>
<polygon fill="#63b8ff" stroke="#63b8ff" points="295.5,-84.09 292,-74.09 288.5,-84.09 295.5,-84.09"/>
</g>
</g>
</svg>
