<?xml version="1.0" encoding="UTF-8" standalone="no"?>
<!DOCTYPE svg PUBLIC "-//W3C//DTD SVG 1.1//EN"
 "http://www.w3.org/Graphics/SVG/1.1/DTD/svg11.dtd">
<!-- Generated by graphviz version 2.43.0 (0)
 -->
<!-- Title: src/action/once/GoBackAction.h Pages: 1 -->
<svg width="288pt" height="82pt"
 viewBox="0.00 0.00 287.50 82.00" xmlns="http://www.w3.org/2000/svg" xmlns:xlink="http://www.w3.org/1999/xlink">
<g id="graph0" class="graph" transform="scale(1 1) rotate(0) translate(4 78)">
<title>src/action/once/GoBackAction.h</title>
<!-- Node1 -->
<g id="node1" class="node">
<title>Node1</title>
<g id="a_node1"><a xlink:title=" ">
<polygon fill="#999999" stroke="#666666" points="250,-74 80,-74 80,-55 250,-55 250,-74"/>
<text text-anchor="middle" x="165" y="-62" font-family="Helvetica,sans-Serif" font-size="10.00">src/action/once/GoBackAction.h</text>
</a>
</g>
</g>
<!-- Node2 -->
<g id="node2" class="node">
<title>Node2</title>
<g id="a_node2"><a xlink:href="GoBackAction_8cpp.html" target="_top" xlink:title=" ">
<polygon fill="white" stroke="#666666" points="182,-19 0,-19 0,0 182,0 182,-19"/>
<text text-anchor="middle" x="91" y="-7" font-family="Helvetica,sans-Serif" font-size="10.00">src/action/once/GoBackAction.cpp</text>
</a>
</g>
</g>
<!-- Node1&#45;&gt;Node2 -->
<g id="edge1" class="edge">
<title>Node1&#45;&gt;Node2</title>
<path fill="none" stroke="#63b8ff" d="M144.97,-49.15C131.59,-39.57 114.44,-27.29 103.11,-19.17"/>
<polygon fill="#63b8ff" stroke="#63b8ff" points="142.94,-52.01 153.11,-54.98 147.02,-46.32 142.94,-52.01"/>
</g>
<!-- Node3 -->
<g id="node3" class="node">
<title>Node3</title>
<g id="a_node3"><a xlink:href="main_8cpp.html" target="_top" xlink:title=" ">
<polygon fill="white" stroke="#666666" points="279.5,-19 200.5,-19 200.5,0 279.5,0 279.5,-19"/>
<text text-anchor="middle" x="240" y="-7" font-family="Helvetica,sans-Serif" font-size="10.00">src/main.cpp</text>
</a>
</g>
</g>
<!-- Node1&#45;&gt;Node3 -->
<g id="edge2" class="edge">
<title>Node1&#45;&gt;Node3</title>
<path fill="none" stroke="#63b8ff" d="M185.31,-49.15C198.86,-39.57 216.24,-27.29 227.73,-19.17"/>
<polygon fill="#63b8ff" stroke="#63b8ff" points="183.2,-46.36 177.05,-54.98 187.24,-52.07 183.2,-46.36"/>
</g>
</g>
</svg>
