<?xml version="1.0" encoding="UTF-8" standalone="no"?>
<!DOCTYPE svg PUBLIC "-//W3C//DTD SVG 1.1//EN"
 "http://www.w3.org/Graphics/SVG/1.1/DTD/svg11.dtd">
<!-- Generated by graphviz version 2.43.0 (0)
 -->
<!-- Title: Graphical Class Hierarchy Pages: 1 -->
<svg width="142pt" height="101pt"
 viewBox="0.00 0.00 142.00 101.00" xmlns="http://www.w3.org/2000/svg" xmlns:xlink="http://www.w3.org/1999/xlink">
<g id="graph0" class="graph" transform="scale(1 1) rotate(0) translate(4 97)">
<title>Graphical Class Hierarchy</title>
<!-- Node0 -->
<g id="node1" class="node">
<title>Node0</title>
<g id="a_node1"><a xlink:href="classEntry.html" target="_top" xlink:title="An abstract class representing a general FileView entry.">
<polygon fill="white" stroke="#666666" points="42,-56 0,-56 0,-37 42,-37 42,-56"/>
<text text-anchor="middle" x="21" y="-44" font-family="Helvetica,sans-Serif" font-size="10.00">Entry</text>
</a>
</g>
</g>
<!-- Node1 -->
<g id="node2" class="node">
<title>Node1</title>
<g id="a_node2"><a xlink:href="classFile.html" target="_top" xlink:title="Represents a file in the program.">
<polygon fill="white" stroke="#666666" points="123,-93 89,-93 89,-74 123,-74 123,-93"/>
<text text-anchor="middle" x="106" y="-81" font-family="Helvetica,sans-Serif" font-size="10.00">File</text>
</a>
</g>
</g>
<!-- Node0&#45;&gt;Node1 -->
<g id="edge1" class="edge">
<title>Node0&#45;&gt;Node1</title>
<path fill="none" stroke="#63b8ff" d="M51.36,-59.59C64.02,-65.23 78.32,-71.61 88.98,-76.36"/>
<polygon fill="#63b8ff" stroke="#63b8ff" points="52.65,-56.33 42.09,-55.46 49.8,-62.73 52.65,-56.33"/>
</g>
<!-- Node2 -->
<g id="node3" class="node">
<title>Node2</title>
<g id="a_node3"><a xlink:href="classFolder.html" target="_top" xlink:title="Represents a folder in the program.">
<polygon fill="white" stroke="#666666" points="129.5,-56 82.5,-56 82.5,-37 129.5,-37 129.5,-56"/>
<text text-anchor="middle" x="106" y="-44" font-family="Helvetica,sans-Serif" font-size="10.00">Folder</text>
</a>
</g>
</g>
<!-- Node0&#45;&gt;Node2 -->
<g id="edge2" class="edge">
<title>Node0&#45;&gt;Node2</title>
<path fill="none" stroke="#63b8ff" d="M52.4,-46.5C62.34,-46.5 73.2,-46.5 82.46,-46.5"/>
<polygon fill="#63b8ff" stroke="#63b8ff" points="52.09,-43 42.09,-46.5 52.09,-50 52.09,-43"/>
</g>
<!-- Node3 -->
<g id="node4" class="node">
<title>Node3</title>
<g id="a_node4"><a xlink:href="classSymlink.html" target="_top" xlink:title="Represents a symlink in the program.">
<polygon fill="white" stroke="#666666" points="134,-19 78,-19 78,0 134,0 134,-19"/>
<text text-anchor="middle" x="106" y="-7" font-family="Helvetica,sans-Serif" font-size="10.00">Symlink</text>
</a>
</g>
</g>
<!-- Node0&#45;&gt;Node3 -->
<g id="edge3" class="edge">
<title>Node0&#45;&gt;Node3</title>
<path fill="none" stroke="#63b8ff" d="M51.43,-33.38C62.06,-28.64 73.84,-23.39 83.64,-19.02"/>
<polygon fill="#63b8ff" stroke="#63b8ff" points="49.8,-30.27 42.09,-37.54 52.65,-36.67 49.8,-30.27"/>
</g>
</g>
</svg>
