<?xml version="1.0" encoding="UTF-8" standalone="no"?>
<!DOCTYPE svg PUBLIC "-//W3C//DTD SVG 1.1//EN"
 "http://www.w3.org/Graphics/SVG/1.1/DTD/svg11.dtd">
<!-- Generated by graphviz version 2.43.0 (0)
 -->
<!-- Title: src/interface/Interface.h Pages: 1 -->
<svg width="478pt" height="302pt"
 viewBox="0.00 0.00 478.00 302.00" xmlns="http://www.w3.org/2000/svg" xmlns:xlink="http://www.w3.org/1999/xlink">
<g id="graph0" class="graph" transform="scale(1 1) rotate(0) translate(4 298)">
<title>src/interface/Interface.h</title>
<!-- Node1 -->
<g id="node1" class="node">
<title>Node1</title>
<g id="a_node1"><a xlink:title=" ">
<polygon fill="#999999" stroke="#666666" points="287.5,-294 154.5,-294 154.5,-275 287.5,-275 287.5,-294"/>
<text text-anchor="middle" x="221" y="-282" font-family="Helvetica,sans-Serif" font-size="10.00">src/interface/Interface.h</text>
</a>
</g>
</g>
<!-- Node2 -->
<g id="node2" class="node">
<title>Node2</title>
<g id="a_node2"><a xlink:title=" ">
<polygon fill="#e0e0e0" stroke="#999999" points="38,-239 0,-239 0,-220 38,-220 38,-239"/>
<text text-anchor="middle" x="19" y="-227" font-family="Helvetica,sans-Serif" font-size="10.00">map</text>
</a>
</g>
</g>
<!-- Node1&#45;&gt;Node2 -->
<g id="edge1" class="edge">
<title>Node1&#45;&gt;Node2</title>
<path fill="none" stroke="#63b8ff" d="M185.55,-274.92C152.37,-266.79 101.19,-253.96 48.16,-239.24"/>
<polygon fill="#63b8ff" stroke="#63b8ff" points="48.82,-235.79 38.25,-236.47 46.94,-242.53 48.82,-235.79"/>
</g>
<!-- Node3 -->
<g id="node3" class="node">
<title>Node3</title>
<g id="a_node3"><a xlink:title=" ">
<polygon fill="#e0e0e0" stroke="#999999" points="129.5,-184 66.5,-184 66.5,-165 129.5,-165 129.5,-184"/>
<text text-anchor="middle" x="98" y="-172" font-family="Helvetica,sans-Serif" font-size="10.00">ncurses.h</text>
</a>
</g>
</g>
<!-- Node1&#45;&gt;Node3 -->
<g id="edge2" class="edge">
<title>Node1&#45;&gt;Node3</title>
<path fill="none" stroke="#63b8ff" d="M208.67,-274.7C196.7,-266.01 178.15,-252.13 163,-239 145.23,-223.6 126.12,-204.6 113.25,-191.42"/>
<polygon fill="#63b8ff" stroke="#63b8ff" points="115.58,-188.8 106.11,-184.05 110.55,-193.67 115.58,-188.8"/>
</g>
<!-- Node4 -->
<g id="node4" class="node">
<title>Node4</title>
<g id="a_node4"><a xlink:href="FileView_8h.html" target="_top" xlink:title=" ">
<polygon fill="white" stroke="#666666" points="306.5,-184 231.5,-184 231.5,-165 306.5,-165 306.5,-184"/>
<text text-anchor="middle" x="269" y="-172" font-family="Helvetica,sans-Serif" font-size="10.00">../FileView.h</text>
</a>
</g>
</g>
<!-- Node1&#45;&gt;Node4 -->
<g id="edge3" class="edge">
<title>Node1&#45;&gt;Node4</title>
<path fill="none" stroke="#63b8ff" d="M239.67,-274.97C253.33,-267.59 270.86,-255.5 279,-239 286.01,-224.78 282.16,-206.8 277.35,-193.6"/>
<polygon fill="#63b8ff" stroke="#63b8ff" points="280.52,-192.11 273.47,-184.2 274.05,-194.78 280.52,-192.11"/>
</g>
<!-- Node9 -->
<g id="node9" class="node">
<title>Node9</title>
<g id="a_node9"><a xlink:href="State_8h.html" target="_top" xlink:title=" ">
<polygon fill="white" stroke="#666666" points="384,-184 324,-184 324,-165 384,-165 384,-184"/>
<text text-anchor="middle" x="354" y="-172" font-family="Helvetica,sans-Serif" font-size="10.00">../State.h</text>
</a>
</g>
</g>
<!-- Node1&#45;&gt;Node9 -->
<g id="edge9" class="edge">
<title>Node1&#45;&gt;Node9</title>
<path fill="none" stroke="#63b8ff" d="M238.34,-274.86C253.94,-266.7 277.07,-253.55 295,-239 312.44,-224.84 329.61,-205.6 340.89,-192.02"/>
<polygon fill="#63b8ff" stroke="#63b8ff" points="343.8,-193.99 347.39,-184.02 338.37,-189.57 343.8,-193.99"/>
</g>
<!-- Node13 -->
<g id="node13" class="node">
<title>Node13</title>
<g id="a_node13"><a xlink:href="Action_8h.html" target="_top" xlink:title=" ">
<polygon fill="white" stroke="#666666" points="270,-239 172,-239 172,-220 270,-220 270,-239"/>
<text text-anchor="middle" x="221" y="-227" font-family="Helvetica,sans-Serif" font-size="10.00">../action/Action.h</text>
</a>
</g>
</g>
<!-- Node1&#45;&gt;Node13 -->
<g id="edge15" class="edge">
<title>Node1&#45;&gt;Node13</title>
<path fill="none" stroke="#63b8ff" d="M221,-274.75C221,-267.8 221,-257.85 221,-249.13"/>
<polygon fill="#63b8ff" stroke="#63b8ff" points="224.5,-249.09 221,-239.09 217.5,-249.09 224.5,-249.09"/>
</g>
<!-- Node14 -->
<g id="node14" class="node">
<title>Node14</title>
<g id="a_node14"><a xlink:href="Theme_8h.html" target="_top" xlink:title=" ">
<polygon fill="white" stroke="#666666" points="115.5,-239 56.5,-239 56.5,-220 115.5,-220 115.5,-239"/>
<text text-anchor="middle" x="86" y="-227" font-family="Helvetica,sans-Serif" font-size="10.00">Theme.h</text>
</a>
</g>
</g>
<!-- Node1&#45;&gt;Node14 -->
<g id="edge20" class="edge">
<title>Node1&#45;&gt;Node14</title>
<path fill="none" stroke="#63b8ff" d="M199.31,-274.98C177.2,-266.3 142.68,-252.75 117.55,-242.88"/>
<polygon fill="#63b8ff" stroke="#63b8ff" points="118.67,-239.57 108.08,-239.17 116.11,-246.08 118.67,-239.57"/>
</g>
<!-- Node15 -->
<g id="node15" class="node">
<title>Node15</title>
<g id="a_node15"><a xlink:href="Color_8h.html" target="_top" xlink:title=" ">
<polygon fill="white" stroke="#666666" points="414,-239 364,-239 364,-220 414,-220 414,-239"/>
<text text-anchor="middle" x="389" y="-227" font-family="Helvetica,sans-Serif" font-size="10.00">Color.h</text>
</a>
</g>
</g>
<!-- Node1&#45;&gt;Node15 -->
<g id="edge22" class="edge">
<title>Node1&#45;&gt;Node15</title>
<path fill="none" stroke="#63b8ff" d="M247.99,-274.98C276.87,-265.88 322.76,-251.4 354.3,-241.45"/>
<polygon fill="#63b8ff" stroke="#63b8ff" points="355.51,-244.74 363.99,-238.39 353.4,-238.06 355.51,-244.74"/>
</g>
<!-- Node5 -->
<g id="node5" class="node">
<title>Node5</title>
<g id="a_node5"><a xlink:title=" ">
<polygon fill="#e0e0e0" stroke="#999999" points="233.5,-129 186.5,-129 186.5,-110 233.5,-110 233.5,-129"/>
<text text-anchor="middle" x="210" y="-117" font-family="Helvetica,sans-Serif" font-size="10.00">vector</text>
</a>
</g>
</g>
<!-- Node4&#45;&gt;Node5 -->
<g id="edge4" class="edge">
<title>Node4&#45;&gt;Node5</title>
<path fill="none" stroke="#63b8ff" d="M259.52,-164.98C250.8,-157.15 237.66,-145.34 227.1,-135.86"/>
<polygon fill="#63b8ff" stroke="#63b8ff" points="229.43,-133.25 219.65,-129.17 224.75,-138.46 229.43,-133.25"/>
</g>
<!-- Node6 -->
<g id="node6" class="node">
<title>Node6</title>
<g id="a_node6"><a xlink:title=" ">
<polygon fill="#e0e0e0" stroke="#999999" points="291,-19 223,-19 223,0 291,0 291,-19"/>
<text text-anchor="middle" x="257" y="-7" font-family="Helvetica,sans-Serif" font-size="10.00">filesystem</text>
</a>
</g>
</g>
<!-- Node4&#45;&gt;Node6 -->
<g id="edge5" class="edge">
<title>Node4&#45;&gt;Node6</title>
<path fill="none" stroke="#63b8ff" d="M268.35,-164.74C266.48,-139.31 261.02,-65.08 258.41,-29.69"/>
<polygon fill="#63b8ff" stroke="#63b8ff" points="261.87,-29.02 257.65,-19.31 254.89,-29.54 261.87,-29.02"/>
</g>
<!-- Node7 -->
<g id="node7" class="node">
<title>Node7</title>
<g id="a_node7"><a xlink:href="Entry_8h.html" target="_top" xlink:title=" ">
<polygon fill="white" stroke="#666666" points="377,-74 299,-74 299,-55 377,-55 377,-74"/>
<text text-anchor="middle" x="338" y="-62" font-family="Helvetica,sans-Serif" font-size="10.00">entry/Entry.h</text>
</a>
</g>
</g>
<!-- Node4&#45;&gt;Node7 -->
<g id="edge6" class="edge">
<title>Node4&#45;&gt;Node7</title>
<path fill="none" stroke="#63b8ff" d="M274.65,-164.66C286.08,-146.77 312.12,-106 327.02,-82.69"/>
<polygon fill="#63b8ff" stroke="#63b8ff" points="330.03,-84.47 332.47,-74.16 324.13,-80.7 330.03,-84.47"/>
</g>
<!-- Node7&#45;&gt;Node6 -->
<g id="edge7" class="edge">
<title>Node7&#45;&gt;Node6</title>
<path fill="none" stroke="#63b8ff" d="M324.99,-54.98C312.54,-46.84 293.54,-34.41 278.79,-24.76"/>
<polygon fill="#63b8ff" stroke="#63b8ff" points="280.54,-21.72 270.25,-19.17 276.7,-27.57 280.54,-21.72"/>
</g>
<!-- Node8 -->
<g id="node8" class="node">
<title>Node8</title>
<g id="a_node8"><a xlink:href="Modifier_8h.html" target="_top" xlink:title=" ">
<polygon fill="white" stroke="#666666" points="374.5,-19 309.5,-19 309.5,0 374.5,0 374.5,-19"/>
<text text-anchor="middle" x="342" y="-7" font-family="Helvetica,sans-Serif" font-size="10.00">Modifier.h</text>
</a>
</g>
</g>
<!-- Node7&#45;&gt;Node8 -->
<g id="edge8" class="edge">
<title>Node7&#45;&gt;Node8</title>
<path fill="none" stroke="#63b8ff" d="M338.66,-54.75C339.18,-47.8 339.94,-37.85 340.59,-29.13"/>
<polygon fill="#63b8ff" stroke="#63b8ff" points="344.09,-29.32 341.35,-19.09 337.11,-28.8 344.09,-29.32"/>
</g>
<!-- Node9&#45;&gt;Node7 -->
<g id="edge11" class="edge">
<title>Node9&#45;&gt;Node7</title>
<path fill="none" stroke="#63b8ff" d="M352.69,-164.66C350.1,-147.17 344.27,-107.8 340.78,-84.27"/>
<polygon fill="#63b8ff" stroke="#63b8ff" points="344.21,-83.54 339.28,-74.16 337.29,-84.56 344.21,-83.54"/>
</g>
<!-- Node10 -->
<g id="node10" class="node">
<title>Node10</title>
<g id="a_node10"><a xlink:title=" ">
<polygon fill="#e0e0e0" stroke="#999999" points="398,-129 366,-129 366,-110 398,-110 398,-129"/>
<text text-anchor="middle" x="382" y="-117" font-family="Helvetica,sans-Serif" font-size="10.00">set</text>
</a>
</g>
</g>
<!-- Node9&#45;&gt;Node10 -->
<g id="edge10" class="edge">
<title>Node9&#45;&gt;Node10</title>
<path fill="none" stroke="#63b8ff" d="M358.62,-164.75C362.46,-157.49 368.02,-146.95 372.76,-137.98"/>
<polygon fill="#63b8ff" stroke="#63b8ff" points="375.89,-139.57 377.46,-129.09 369.7,-136.3 375.89,-139.57"/>
</g>
<!-- Node11 -->
<g id="node11" class="node">
<title>Node11</title>
<g id="a_node11"><a xlink:href="Utility_8h.html" target="_top" xlink:title=" ">
<polygon fill="white" stroke="#666666" points="470,-129 416,-129 416,-110 470,-110 470,-129"/>
<text text-anchor="middle" x="443" y="-117" font-family="Helvetica,sans-Serif" font-size="10.00">Utility.h</text>
</a>
</g>
</g>
<!-- Node9&#45;&gt;Node11 -->
<g id="edge12" class="edge">
<title>Node9&#45;&gt;Node11</title>
<path fill="none" stroke="#63b8ff" d="M368.3,-164.98C382.1,-156.77 403.24,-144.18 419.51,-134.49"/>
<polygon fill="#63b8ff" stroke="#63b8ff" points="421.64,-137.29 428.44,-129.17 418.06,-131.28 421.64,-137.29"/>
</g>
<!-- Node11&#45;&gt;Node7 -->
<g id="edge14" class="edge">
<title>Node11&#45;&gt;Node7</title>
<path fill="none" stroke="#63b8ff" d="M426.13,-109.98C409.39,-101.54 383.5,-88.47 364.11,-78.68"/>
<polygon fill="#63b8ff" stroke="#63b8ff" points="365.68,-75.55 355.18,-74.17 362.53,-81.8 365.68,-75.55"/>
</g>
<!-- Node12 -->
<g id="node12" class="node">
<title>Node12</title>
<g id="a_node12"><a xlink:title=" ">
<polygon fill="#e0e0e0" stroke="#999999" points="465,-74 421,-74 421,-55 465,-55 465,-74"/>
<text text-anchor="middle" x="443" y="-62" font-family="Helvetica,sans-Serif" font-size="10.00">string</text>
</a>
</g>
</g>
<!-- Node11&#45;&gt;Node12 -->
<g id="edge13" class="edge">
<title>Node11&#45;&gt;Node12</title>
<path fill="none" stroke="#63b8ff" d="M443,-109.75C443,-102.8 443,-92.85 443,-84.13"/>
<polygon fill="#63b8ff" stroke="#63b8ff" points="446.5,-84.09 443,-74.09 439.5,-84.09 446.5,-84.09"/>
</g>
<!-- Node13&#45;&gt;Node4 -->
<g id="edge18" class="edge">
<title>Node13&#45;&gt;Node4</title>
<path fill="none" stroke="#63b8ff" d="M228.93,-219.75C235.85,-212.11 246.07,-200.82 254.45,-191.56"/>
<polygon fill="#63b8ff" stroke="#63b8ff" points="257.1,-193.85 261.22,-184.09 251.91,-189.15 257.1,-193.85"/>
</g>
<!-- Node13&#45;&gt;Node5 -->
<g id="edge16" class="edge">
<title>Node13&#45;&gt;Node5</title>
<path fill="none" stroke="#63b8ff" d="M220.1,-219.66C218.32,-202.17 214.31,-162.8 211.91,-139.27"/>
<polygon fill="#63b8ff" stroke="#63b8ff" points="215.38,-138.75 210.88,-129.16 208.41,-139.46 215.38,-138.75"/>
</g>
<!-- Node13&#45;&gt;Node6 -->
<g id="edge17" class="edge">
<title>Node13&#45;&gt;Node6</title>
<path fill="none" stroke="#63b8ff" d="M213.51,-219.91C197.48,-200.44 162.42,-151.4 177,-110 189.24,-75.24 219.32,-43.67 238.91,-25.8"/>
<polygon fill="#63b8ff" stroke="#63b8ff" points="241.41,-28.26 246.58,-19.01 236.77,-23.02 241.41,-28.26"/>
</g>
<!-- Node13&#45;&gt;Node9 -->
<g id="edge19" class="edge">
<title>Node13&#45;&gt;Node9</title>
<path fill="none" stroke="#63b8ff" d="M242.37,-219.98C264.15,-211.3 298.16,-197.75 322.92,-187.88"/>
<polygon fill="#63b8ff" stroke="#63b8ff" points="324.25,-191.12 332.24,-184.17 321.66,-184.62 324.25,-191.12"/>
</g>
<!-- Node14&#45;&gt;Node3 -->
<g id="edge21" class="edge">
<title>Node14&#45;&gt;Node3</title>
<path fill="none" stroke="#63b8ff" d="M87.98,-219.75C89.57,-212.72 91.86,-202.62 93.85,-193.84"/>
<polygon fill="#63b8ff" stroke="#63b8ff" points="97.26,-194.62 96.06,-184.09 90.43,-193.07 97.26,-194.62"/>
</g>
</g>
</svg>
