<?xml version="1.0" encoding="UTF-8" standalone="no"?>
<!DOCTYPE svg PUBLIC "-//W3C//DTD SVG 1.1//EN"
 "http://www.w3.org/Graphics/SVG/1.1/DTD/svg11.dtd">
<!-- Generated by graphviz version 2.43.0 (0)
 -->
<!-- Title: src/interface/Interface.cpp Pages: 1 -->
<svg width="469pt" height="357pt"
 viewBox="0.00 0.00 469.00 357.00" xmlns="http://www.w3.org/2000/svg" xmlns:xlink="http://www.w3.org/1999/xlink">
<g id="graph0" class="graph" transform="scale(1 1) rotate(0) translate(4 353)">
<title>src/interface/Interface.cpp</title>
<!-- Node1 -->
<g id="node1" class="node">
<title>Node1</title>
<g id="a_node1"><a xlink:title=" ">
<polygon fill="#999999" stroke="#666666" points="461,-349 317,-349 317,-330 461,-330 461,-349"/>
<text text-anchor="middle" x="389" y="-337" font-family="Helvetica,sans-Serif" font-size="10.00">src/interface/Interface.cpp</text>
</a>
</g>
</g>
<!-- Node2 -->
<g id="node2" class="node">
<title>Node2</title>
<g id="a_node2"><a xlink:href="Interface_8h.html" target="_top" xlink:title=" ">
<polygon fill="white" stroke="#666666" points="279.5,-294 210.5,-294 210.5,-275 279.5,-275 279.5,-294"/>
<text text-anchor="middle" x="245" y="-282" font-family="Helvetica,sans-Serif" font-size="10.00">Interface.h</text>
</a>
</g>
</g>
<!-- Node1&#45;&gt;Node2 -->
<g id="edge1" class="edge">
<title>Node1&#45;&gt;Node2</title>
<path fill="none" stroke="#63b8ff" d="M365.86,-329.98C342.18,-321.27 305.13,-307.63 278.29,-297.75"/>
<polygon fill="#63b8ff" stroke="#63b8ff" points="279.15,-294.34 268.56,-294.17 276.73,-300.91 279.15,-294.34"/>
</g>
<!-- Node4 -->
<g id="node4" class="node">
<title>Node4</title>
<g id="a_node4"><a xlink:title=" ">
<polygon fill="#e0e0e0" stroke="#999999" points="367.5,-184 304.5,-184 304.5,-165 367.5,-165 367.5,-184"/>
<text text-anchor="middle" x="336" y="-172" font-family="Helvetica,sans-Serif" font-size="10.00">ncurses.h</text>
</a>
</g>
</g>
<!-- Node1&#45;&gt;Node4 -->
<g id="edge24" class="edge">
<title>Node1&#45;&gt;Node4</title>
<path fill="none" stroke="#63b8ff" d="M395.91,-329.83C411.35,-309.34 445.56,-256.88 423,-220 413.01,-203.67 394.92,-193.09 377.81,-186.36"/>
<polygon fill="#63b8ff" stroke="#63b8ff" points="378.52,-182.9 367.93,-182.83 376.17,-189.49 378.52,-182.9"/>
</g>
<!-- Node16 -->
<g id="node16" class="node">
<title>Node16</title>
<g id="a_node16"><a xlink:href="Color_8h.html" target="_top" xlink:title=" ">
<polygon fill="white" stroke="#666666" points="414,-239 364,-239 364,-220 414,-220 414,-239"/>
<text text-anchor="middle" x="389" y="-227" font-family="Helvetica,sans-Serif" font-size="10.00">Color.h</text>
</a>
</g>
</g>
<!-- Node1&#45;&gt;Node16 -->
<g id="edge25" class="edge">
<title>Node1&#45;&gt;Node16</title>
<path fill="none" stroke="#63b8ff" d="M389,-329.66C389,-312.17 389,-272.8 389,-249.27"/>
<polygon fill="#63b8ff" stroke="#63b8ff" points="392.5,-249.16 389,-239.16 385.5,-249.16 392.5,-249.16"/>
</g>
<!-- Node3 -->
<g id="node3" class="node">
<title>Node3</title>
<g id="a_node3"><a xlink:title=" ">
<polygon fill="#e0e0e0" stroke="#999999" points="230,-239 192,-239 192,-220 230,-220 230,-239"/>
<text text-anchor="middle" x="211" y="-227" font-family="Helvetica,sans-Serif" font-size="10.00">map</text>
</a>
</g>
</g>
<!-- Node2&#45;&gt;Node3 -->
<g id="edge2" class="edge">
<title>Node2&#45;&gt;Node3</title>
<path fill="none" stroke="#63b8ff" d="M239.39,-274.75C234.68,-267.42 227.83,-256.73 222.03,-247.7"/>
<polygon fill="#63b8ff" stroke="#63b8ff" points="224.86,-245.62 216.51,-239.09 218.96,-249.4 224.86,-245.62"/>
</g>
<!-- Node2&#45;&gt;Node4 -->
<g id="edge3" class="edge">
<title>Node2&#45;&gt;Node4</title>
<path fill="none" stroke="#63b8ff" d="M266.52,-274.92C282.33,-267.58 303.19,-255.57 316,-239 326.05,-226 331.11,-207.85 333.62,-194.28"/>
<polygon fill="#63b8ff" stroke="#63b8ff" points="337.11,-194.6 335.18,-184.18 330.19,-193.53 337.11,-194.6"/>
</g>
<!-- Node5 -->
<g id="node5" class="node">
<title>Node5</title>
<g id="a_node5"><a xlink:href="FileView_8h.html" target="_top" xlink:title=" ">
<polygon fill="white" stroke="#666666" points="134.5,-184 59.5,-184 59.5,-165 134.5,-165 134.5,-184"/>
<text text-anchor="middle" x="97" y="-172" font-family="Helvetica,sans-Serif" font-size="10.00">../FileView.h</text>
</a>
</g>
</g>
<!-- Node2&#45;&gt;Node5 -->
<g id="edge4" class="edge">
<title>Node2&#45;&gt;Node5</title>
<path fill="none" stroke="#63b8ff" d="M229.95,-274.84C215.32,-266.24 192.64,-252.44 174,-239 152.65,-223.61 129.54,-204.13 114.26,-190.83"/>
<polygon fill="#63b8ff" stroke="#63b8ff" points="116.47,-188.11 106.64,-184.14 111.85,-193.37 116.47,-188.11"/>
</g>
<!-- Node10 -->
<g id="node10" class="node">
<title>Node10</title>
<g id="a_node10"><a xlink:href="State_8h.html" target="_top" xlink:title=" ">
<polygon fill="white" stroke="#666666" points="212,-184 152,-184 152,-165 212,-165 212,-184"/>
<text text-anchor="middle" x="182" y="-172" font-family="Helvetica,sans-Serif" font-size="10.00">../State.h</text>
</a>
</g>
</g>
<!-- Node2&#45;&gt;Node10 -->
<g id="edge10" class="edge">
<title>Node2&#45;&gt;Node10</title>
<path fill="none" stroke="#63b8ff" d="M224.56,-274.96C210.1,-267.71 191.78,-255.79 183,-239 175.81,-225.26 176.22,-207.46 178.05,-194.2"/>
<polygon fill="#63b8ff" stroke="#63b8ff" points="181.5,-194.77 179.78,-184.32 174.6,-193.56 181.5,-194.77"/>
</g>
<!-- Node14 -->
<g id="node14" class="node">
<title>Node14</title>
<g id="a_node14"><a xlink:href="Action_8h.html" target="_top" xlink:title=" ">
<polygon fill="white" stroke="#666666" points="98,-239 0,-239 0,-220 98,-220 98,-239"/>
<text text-anchor="middle" x="49" y="-227" font-family="Helvetica,sans-Serif" font-size="10.00">../action/Action.h</text>
</a>
</g>
</g>
<!-- Node2&#45;&gt;Node14 -->
<g id="edge16" class="edge">
<title>Node2&#45;&gt;Node14</title>
<path fill="none" stroke="#63b8ff" d="M213.51,-274.98C180.18,-265.97 127.4,-251.7 90.65,-241.76"/>
<polygon fill="#63b8ff" stroke="#63b8ff" points="91.3,-238.31 80.74,-239.08 89.48,-245.07 91.3,-238.31"/>
</g>
<!-- Node15 -->
<g id="node15" class="node">
<title>Node15</title>
<g id="a_node15"><a xlink:href="Theme_8h.html" target="_top" xlink:title=" ">
<polygon fill="white" stroke="#666666" points="307.5,-239 248.5,-239 248.5,-220 307.5,-220 307.5,-239"/>
<text text-anchor="middle" x="278" y="-227" font-family="Helvetica,sans-Serif" font-size="10.00">Theme.h</text>
</a>
</g>
</g>
<!-- Node2&#45;&gt;Node15 -->
<g id="edge21" class="edge">
<title>Node2&#45;&gt;Node15</title>
<path fill="none" stroke="#63b8ff" d="M250.45,-274.75C255.01,-267.42 261.67,-256.73 267.29,-247.7"/>
<polygon fill="#63b8ff" stroke="#63b8ff" points="270.34,-249.43 272.65,-239.09 264.4,-245.73 270.34,-249.43"/>
</g>
<!-- Node2&#45;&gt;Node16 -->
<g id="edge23" class="edge">
<title>Node2&#45;&gt;Node16</title>
<path fill="none" stroke="#63b8ff" d="M268.14,-274.98C291.82,-266.27 328.87,-252.63 355.71,-242.75"/>
<polygon fill="#63b8ff" stroke="#63b8ff" points="357.27,-245.91 365.44,-239.17 354.85,-239.34 357.27,-245.91"/>
</g>
<!-- Node6 -->
<g id="node6" class="node">
<title>Node6</title>
<g id="a_node6"><a xlink:title=" ">
<polygon fill="#e0e0e0" stroke="#999999" points="61.5,-129 14.5,-129 14.5,-110 61.5,-110 61.5,-129"/>
<text text-anchor="middle" x="38" y="-117" font-family="Helvetica,sans-Serif" font-size="10.00">vector</text>
</a>
</g>
</g>
<!-- Node5&#45;&gt;Node6 -->
<g id="edge5" class="edge">
<title>Node5&#45;&gt;Node6</title>
<path fill="none" stroke="#63b8ff" d="M87.52,-164.98C78.8,-157.15 65.66,-145.34 55.1,-135.86"/>
<polygon fill="#63b8ff" stroke="#63b8ff" points="57.43,-133.25 47.65,-129.17 52.75,-138.46 57.43,-133.25"/>
</g>
<!-- Node7 -->
<g id="node7" class="node">
<title>Node7</title>
<g id="a_node7"><a xlink:title=" ">
<polygon fill="#e0e0e0" stroke="#999999" points="119,-19 51,-19 51,0 119,0 119,-19"/>
<text text-anchor="middle" x="85" y="-7" font-family="Helvetica,sans-Serif" font-size="10.00">filesystem</text>
</a>
</g>
</g>
<!-- Node5&#45;&gt;Node7 -->
<g id="edge6" class="edge">
<title>Node5&#45;&gt;Node7</title>
<path fill="none" stroke="#63b8ff" d="M96.35,-164.74C94.48,-139.31 89.02,-65.08 86.41,-29.69"/>
<polygon fill="#63b8ff" stroke="#63b8ff" points="89.87,-29.02 85.65,-19.31 82.89,-29.54 89.87,-29.02"/>
</g>
<!-- Node8 -->
<g id="node8" class="node">
<title>Node8</title>
<g id="a_node8"><a xlink:href="Entry_8h.html" target="_top" xlink:title=" ">
<polygon fill="white" stroke="#666666" points="205,-74 127,-74 127,-55 205,-55 205,-74"/>
<text text-anchor="middle" x="166" y="-62" font-family="Helvetica,sans-Serif" font-size="10.00">entry/Entry.h</text>
</a>
</g>
</g>
<!-- Node5&#45;&gt;Node8 -->
<g id="edge7" class="edge">
<title>Node5&#45;&gt;Node8</title>
<path fill="none" stroke="#63b8ff" d="M102.65,-164.66C114.08,-146.77 140.12,-106 155.02,-82.69"/>
<polygon fill="#63b8ff" stroke="#63b8ff" points="158.03,-84.47 160.47,-74.16 152.13,-80.7 158.03,-84.47"/>
</g>
<!-- Node8&#45;&gt;Node7 -->
<g id="edge8" class="edge">
<title>Node8&#45;&gt;Node7</title>
<path fill="none" stroke="#63b8ff" d="M152.99,-54.98C140.54,-46.84 121.54,-34.41 106.79,-24.76"/>
<polygon fill="#63b8ff" stroke="#63b8ff" points="108.54,-21.72 98.25,-19.17 104.7,-27.57 108.54,-21.72"/>
</g>
<!-- Node9 -->
<g id="node9" class="node">
<title>Node9</title>
<g id="a_node9"><a xlink:href="Modifier_8h.html" target="_top" xlink:title=" ">
<polygon fill="white" stroke="#666666" points="202.5,-19 137.5,-19 137.5,0 202.5,0 202.5,-19"/>
<text text-anchor="middle" x="170" y="-7" font-family="Helvetica,sans-Serif" font-size="10.00">Modifier.h</text>
</a>
</g>
</g>
<!-- Node8&#45;&gt;Node9 -->
<g id="edge9" class="edge">
<title>Node8&#45;&gt;Node9</title>
<path fill="none" stroke="#63b8ff" d="M166.66,-54.75C167.18,-47.8 167.94,-37.85 168.59,-29.13"/>
<polygon fill="#63b8ff" stroke="#63b8ff" points="172.09,-29.32 169.35,-19.09 165.11,-28.8 172.09,-29.32"/>
</g>
<!-- Node10&#45;&gt;Node8 -->
<g id="edge12" class="edge">
<title>Node10&#45;&gt;Node8</title>
<path fill="none" stroke="#63b8ff" d="M180.69,-164.66C178.1,-147.17 172.27,-107.8 168.78,-84.27"/>
<polygon fill="#63b8ff" stroke="#63b8ff" points="172.21,-83.54 167.28,-74.16 165.29,-84.56 172.21,-83.54"/>
</g>
<!-- Node11 -->
<g id="node11" class="node">
<title>Node11</title>
<g id="a_node11"><a xlink:title=" ">
<polygon fill="#e0e0e0" stroke="#999999" points="226,-129 194,-129 194,-110 226,-110 226,-129"/>
<text text-anchor="middle" x="210" y="-117" font-family="Helvetica,sans-Serif" font-size="10.00">set</text>
</a>
</g>
</g>
<!-- Node10&#45;&gt;Node11 -->
<g id="edge11" class="edge">
<title>Node10&#45;&gt;Node11</title>
<path fill="none" stroke="#63b8ff" d="M186.62,-164.75C190.46,-157.49 196.02,-146.95 200.76,-137.98"/>
<polygon fill="#63b8ff" stroke="#63b8ff" points="203.89,-139.57 205.46,-129.09 197.7,-136.3 203.89,-139.57"/>
</g>
<!-- Node12 -->
<g id="node12" class="node">
<title>Node12</title>
<g id="a_node12"><a xlink:href="Utility_8h.html" target="_top" xlink:title=" ">
<polygon fill="white" stroke="#666666" points="298,-129 244,-129 244,-110 298,-110 298,-129"/>
<text text-anchor="middle" x="271" y="-117" font-family="Helvetica,sans-Serif" font-size="10.00">Utility.h</text>
</a>
</g>
</g>
<!-- Node10&#45;&gt;Node12 -->
<g id="edge13" class="edge">
<title>Node10&#45;&gt;Node12</title>
<path fill="none" stroke="#63b8ff" d="M196.3,-164.98C210.1,-156.77 231.24,-144.18 247.51,-134.49"/>
<polygon fill="#63b8ff" stroke="#63b8ff" points="249.64,-137.29 256.44,-129.17 246.06,-131.28 249.64,-137.29"/>
</g>
<!-- Node12&#45;&gt;Node8 -->
<g id="edge15" class="edge">
<title>Node12&#45;&gt;Node8</title>
<path fill="none" stroke="#63b8ff" d="M254.13,-109.98C237.39,-101.54 211.5,-88.47 192.11,-78.68"/>
<polygon fill="#63b8ff" stroke="#63b8ff" points="193.68,-75.55 183.18,-74.17 190.53,-81.8 193.68,-75.55"/>
</g>
<!-- Node13 -->
<g id="node13" class="node">
<title>Node13</title>
<g id="a_node13"><a xlink:title=" ">
<polygon fill="#e0e0e0" stroke="#999999" points="293,-74 249,-74 249,-55 293,-55 293,-74"/>
<text text-anchor="middle" x="271" y="-62" font-family="Helvetica,sans-Serif" font-size="10.00">string</text>
</a>
</g>
</g>
<!-- Node12&#45;&gt;Node13 -->
<g id="edge14" class="edge">
<title>Node12&#45;&gt;Node13</title>
<path fill="none" stroke="#63b8ff" d="M271,-109.75C271,-102.8 271,-92.85 271,-84.13"/>
<polygon fill="#63b8ff" stroke="#63b8ff" points="274.5,-84.09 271,-74.09 267.5,-84.09 274.5,-84.09"/>
</g>
<!-- Node14&#45;&gt;Node5 -->
<g id="edge19" class="edge">
<title>Node14&#45;&gt;Node5</title>
<path fill="none" stroke="#63b8ff" d="M56.93,-219.75C63.85,-212.11 74.07,-200.82 82.45,-191.56"/>
<polygon fill="#63b8ff" stroke="#63b8ff" points="85.1,-193.85 89.22,-184.09 79.91,-189.15 85.1,-193.85"/>
</g>
<!-- Node14&#45;&gt;Node6 -->
<g id="edge17" class="edge">
<title>Node14&#45;&gt;Node6</title>
<path fill="none" stroke="#63b8ff" d="M48.1,-219.66C46.32,-202.17 42.31,-162.8 39.91,-139.27"/>
<polygon fill="#63b8ff" stroke="#63b8ff" points="43.38,-138.75 38.88,-129.16 36.41,-139.46 43.38,-138.75"/>
</g>
<!-- Node14&#45;&gt;Node7 -->
<g id="edge18" class="edge">
<title>Node14&#45;&gt;Node7</title>
<path fill="none" stroke="#63b8ff" d="M41.51,-219.91C25.48,-200.44 -9.58,-151.4 5,-110 17.24,-75.24 47.32,-43.67 66.91,-25.8"/>
<polygon fill="#63b8ff" stroke="#63b8ff" points="69.41,-28.26 74.58,-19.01 64.77,-23.02 69.41,-28.26"/>
</g>
<!-- Node14&#45;&gt;Node10 -->
<g id="edge20" class="edge">
<title>Node14&#45;&gt;Node10</title>
<path fill="none" stroke="#63b8ff" d="M70.37,-219.98C92.15,-211.3 126.16,-197.75 150.92,-187.88"/>
<polygon fill="#63b8ff" stroke="#63b8ff" points="152.25,-191.12 160.24,-184.17 149.66,-184.62 152.25,-191.12"/>
</g>
<!-- Node15&#45;&gt;Node4 -->
<g id="edge22" class="edge">
<title>Node15&#45;&gt;Node4</title>
<path fill="none" stroke="#63b8ff" d="M287.32,-219.98C295.81,-212.23 308.56,-200.58 318.88,-191.14"/>
<polygon fill="#63b8ff" stroke="#63b8ff" points="321.49,-193.5 326.51,-184.17 316.77,-188.33 321.49,-193.5"/>
</g>
</g>
</svg>
