<?xml version="1.0" encoding="UTF-8" standalone="no"?>
<!DOCTYPE svg PUBLIC "-//W3C//DTD SVG 1.1//EN"
 "http://www.w3.org/Graphics/SVG/1.1/DTD/svg11.dtd">
<!-- Generated by graphviz version 2.43.0 (0)
 -->
<!-- Title: src/main.cpp Pages: 1 -->
<svg width="3139pt" height="423pt"
 viewBox="0.00 0.00 3139.00 423.00" xmlns="http://www.w3.org/2000/svg" xmlns:xlink="http://www.w3.org/1999/xlink">
<g id="graph0" class="graph" transform="scale(1 1) rotate(0) translate(4 419)">
<title>src/main.cpp</title>
<!-- Node1 -->
<g id="node1" class="node">
<title>Node1</title>
<g id="a_node1"><a xlink:title=" ">
<polygon fill="#999999" stroke="#666666" points="1576.5,-415 1497.5,-415 1497.5,-396 1576.5,-396 1576.5,-415"/>
<text text-anchor="middle" x="1537" y="-403" font-family="Helvetica,sans-Serif" font-size="10.00">src/main.cpp</text>
</a>
</g>
</g>
<!-- Node2 -->
<g id="node2" class="node">
<title>Node2</title>
<g id="a_node2"><a xlink:href="Application_8h.html" target="_top" xlink:title=" ">
<polygon fill="white" stroke="#666666" points="164,-354.5 84,-354.5 84,-335.5 164,-335.5 164,-354.5"/>
<text text-anchor="middle" x="124" y="-342.5" font-family="Helvetica,sans-Serif" font-size="10.00">Application.h</text>
</a>
</g>
</g>
<!-- Node1&#45;&gt;Node2 -->
<g id="edge1" class="edge">
<title>Node1&#45;&gt;Node2</title>
<path fill="none" stroke="#63b8ff" d="M1497.4,-404.52C1301.85,-404.41 438.09,-401.55 173,-360 168.5,-359.3 163.83,-358.31 159.24,-357.18"/>
<polygon fill="#63b8ff" stroke="#63b8ff" points="159.98,-353.76 149.42,-354.54 158.17,-360.52 159.98,-353.76"/>
</g>
<!-- Node18 -->
<g id="node18" class="node">
<title>Node18</title>
<g id="a_node18"><a xlink:href="QuitAction_8h.html" target="_top" xlink:title=" ">
<polygon fill="white" stroke="#666666" points="2268,-354.5 2132,-354.5 2132,-335.5 2268,-335.5 2268,-354.5"/>
<text text-anchor="middle" x="2200" y="-342.5" font-family="Helvetica,sans-Serif" font-size="10.00">action/once/QuitAction.h</text>
</a>
</g>
</g>
<!-- Node1&#45;&gt;Node18 -->
<g id="edge26" class="edge">
<title>Node1&#45;&gt;Node18</title>
<path fill="none" stroke="#63b8ff" d="M1576.58,-402.92C1671.3,-398.82 1918.33,-386.31 2123,-360 2130.86,-358.99 2139.15,-357.71 2147.24,-356.34"/>
<polygon fill="#63b8ff" stroke="#63b8ff" points="2148.11,-359.74 2157.36,-354.57 2146.9,-352.85 2148.11,-359.74"/>
</g>
<!-- Node20 -->
<g id="node20" class="node">
<title>Node20</title>
<g id="a_node20"><a xlink:href="CursorDownAction_8h.html" target="_top" xlink:title=" ">
<polygon fill="white" stroke="#666666" points="2461.5,-354.5 2286.5,-354.5 2286.5,-335.5 2461.5,-335.5 2461.5,-354.5"/>
<text text-anchor="middle" x="2374" y="-342.5" font-family="Helvetica,sans-Serif" font-size="10.00">action/once/CursorDownAction.h</text>
</a>
</g>
</g>
<!-- Node1&#45;&gt;Node20 -->
<g id="edge29" class="edge">
<title>Node1&#45;&gt;Node20</title>
<path fill="none" stroke="#63b8ff" d="M1576.8,-403.27C1687.84,-399.6 2010.36,-387.21 2277,-360 2287.89,-358.89 2299.42,-357.45 2310.6,-355.92"/>
<polygon fill="#63b8ff" stroke="#63b8ff" points="2311.32,-359.36 2320.73,-354.5 2310.34,-352.43 2311.32,-359.36"/>
</g>
<!-- Node21 -->
<g id="node21" class="node">
<title>Node21</title>
<g id="a_node21"><a xlink:href="CursorUpAction_8h.html" target="_top" xlink:title=" ">
<polygon fill="white" stroke="#666666" points="2640.5,-354.5 2479.5,-354.5 2479.5,-335.5 2640.5,-335.5 2640.5,-354.5"/>
<text text-anchor="middle" x="2560" y="-342.5" font-family="Helvetica,sans-Serif" font-size="10.00">action/once/CursorUpAction.h</text>
</a>
</g>
</g>
<!-- Node1&#45;&gt;Node21 -->
<g id="edge31" class="edge">
<title>Node1&#45;&gt;Node21</title>
<path fill="none" stroke="#63b8ff" d="M1576.72,-404.15C1705.91,-402.67 2125.8,-395.27 2471,-360 2481.04,-358.97 2491.67,-357.58 2501.95,-356.06"/>
<polygon fill="#63b8ff" stroke="#63b8ff" points="2502.73,-359.48 2512.09,-354.51 2501.67,-352.56 2502.73,-359.48"/>
</g>
<!-- Node22 -->
<g id="node22" class="node">
<title>Node22</title>
<g id="a_node22"><a xlink:href="OpenAction_8h.html" target="_top" xlink:title=" ">
<polygon fill="white" stroke="#666666" points="2799.5,-354.5 2658.5,-354.5 2658.5,-335.5 2799.5,-335.5 2799.5,-354.5"/>
<text text-anchor="middle" x="2729" y="-342.5" font-family="Helvetica,sans-Serif" font-size="10.00">action/once/OpenAction.h</text>
</a>
</g>
</g>
<!-- Node1&#45;&gt;Node22 -->
<g id="edge33" class="edge">
<title>Node1&#45;&gt;Node22</title>
<path fill="none" stroke="#63b8ff" d="M1576.57,-404.85C1720.82,-405.72 2231.83,-405.2 2650,-360 2658.75,-359.05 2668,-357.72 2676.96,-356.25"/>
<polygon fill="#63b8ff" stroke="#63b8ff" points="2677.66,-359.68 2686.92,-354.55 2676.48,-352.78 2677.66,-359.68"/>
</g>
<!-- Node23 -->
<g id="node23" class="node">
<title>Node23</title>
<g id="a_node23"><a xlink:href="GoBackAction_8h.html" target="_top" xlink:title=" ">
<polygon fill="white" stroke="#666666" points="2970.5,-354.5 2817.5,-354.5 2817.5,-335.5 2970.5,-335.5 2970.5,-354.5"/>
<text text-anchor="middle" x="2894" y="-342.5" font-family="Helvetica,sans-Serif" font-size="10.00">action/once/GoBackAction.h</text>
</a>
</g>
</g>
<!-- Node1&#45;&gt;Node23 -->
<g id="edge35" class="edge">
<title>Node1&#45;&gt;Node23</title>
<path fill="none" stroke="#63b8ff" d="M1576.69,-404.96C1733.54,-406.39 2325.25,-408.1 2809,-360 2818.61,-359.04 2828.78,-357.68 2838.61,-356.17"/>
<polygon fill="#63b8ff" stroke="#63b8ff" points="2839.38,-359.6 2848.71,-354.57 2838.28,-352.68 2839.38,-359.6"/>
</g>
<!-- Node24 -->
<g id="node24" class="node">
<title>Node24</title>
<g id="a_node24"><a xlink:href="ManualSelectAction_8h.html" target="_top" xlink:title=" ">
<polygon fill="white" stroke="#666666" points="3131,-360 2989,-360 2989,-330 3131,-330 3131,-360"/>
<text text-anchor="start" x="2997" y="-348" font-family="Helvetica,sans-Serif" font-size="10.00">action/once/ManualSelect</text>
<text text-anchor="middle" x="3060" y="-337" font-family="Helvetica,sans-Serif" font-size="10.00">Action.h</text>
</a>
</g>
</g>
<!-- Node1&#45;&gt;Node24 -->
<g id="edge37" class="edge">
<title>Node1&#45;&gt;Node24</title>
<path fill="none" stroke="#63b8ff" d="M1576.79,-404.04C1777,-401.61 2676.18,-389.29 2978.89,-359.98"/>
<polygon fill="#63b8ff" stroke="#63b8ff" points="2979.37,-363.45 2988.97,-358.97 2978.68,-356.48 2979.37,-363.45"/>
</g>
<!-- Node25 -->
<g id="node25" class="node">
<title>Node25</title>
<g id="a_node25"><a xlink:href="RegexSelectAction_8h.html" target="_top" xlink:title=" ">
<polygon fill="white" stroke="#666666" points="884,-354.5 708,-354.5 708,-335.5 884,-335.5 884,-354.5"/>
<text text-anchor="middle" x="796" y="-342.5" font-family="Helvetica,sans-Serif" font-size="10.00">action/once/RegexSelectAction.h</text>
</a>
</g>
</g>
<!-- Node1&#45;&gt;Node25 -->
<g id="edge39" class="edge">
<title>Node1&#45;&gt;Node25</title>
<path fill="none" stroke="#63b8ff" d="M1497.4,-402.76C1396.54,-398.13 1121.84,-384.13 894,-360 883.2,-358.86 871.77,-357.43 860.67,-355.92"/>
<polygon fill="#63b8ff" stroke="#63b8ff" points="860.98,-352.43 850.6,-354.52 860.02,-359.36 860.98,-352.43"/>
</g>
<!-- Node26 -->
<g id="node26" class="node">
<title>Node26</title>
<g id="a_node26"><a xlink:href="UnselectAllAction_8h.html" target="_top" xlink:title=" ">
<polygon fill="white" stroke="#666666" points="1073.5,-354.5 902.5,-354.5 902.5,-335.5 1073.5,-335.5 1073.5,-354.5"/>
<text text-anchor="middle" x="988" y="-342.5" font-family="Helvetica,sans-Serif" font-size="10.00">action/once/UnselectAllAction.h</text>
</a>
</g>
</g>
<!-- Node1&#45;&gt;Node26 -->
<g id="edge41" class="edge">
<title>Node1&#45;&gt;Node26</title>
<path fill="none" stroke="#63b8ff" d="M1497.46,-401.28C1418.53,-394.7 1235.89,-378.75 1083,-360 1073.2,-358.8 1062.84,-357.4 1052.72,-355.97"/>
<polygon fill="#63b8ff" stroke="#63b8ff" points="1053.09,-352.49 1042.7,-354.52 1052.09,-359.41 1053.09,-352.49"/>
</g>
<!-- Node27 -->
<g id="node27" class="node">
<title>Node27</title>
<g id="a_node27"><a xlink:href="DeleteAction_8h.html" target="_top" xlink:title=" ">
<polygon fill="white" stroke="#666666" points="517.5,-354.5 356.5,-354.5 356.5,-335.5 517.5,-335.5 517.5,-354.5"/>
<text text-anchor="middle" x="437" y="-342.5" font-family="Helvetica,sans-Serif" font-size="10.00">action/foreach/DeleteAction.h</text>
</a>
</g>
</g>
<!-- Node1&#45;&gt;Node27 -->
<g id="edge43" class="edge">
<title>Node1&#45;&gt;Node27</title>
<path fill="none" stroke="#63b8ff" d="M1497.42,-404.32C1361.8,-403.38 903.38,-397.45 527,-360 516.75,-358.98 505.88,-357.57 495.38,-356.04"/>
<polygon fill="#63b8ff" stroke="#63b8ff" points="495.86,-352.57 485.45,-354.54 494.82,-359.49 495.86,-352.57"/>
</g>
<!-- Node29 -->
<g id="node29" class="node">
<title>Node29</title>
<g id="a_node29"><a xlink:href="CopyAction_8h.html" target="_top" xlink:title=" ">
<polygon fill="white" stroke="#666666" points="690,-354.5 536,-354.5 536,-335.5 690,-335.5 690,-354.5"/>
<text text-anchor="middle" x="613" y="-342.5" font-family="Helvetica,sans-Serif" font-size="10.00">action/foreach/CopyAction.h</text>
</a>
</g>
</g>
<!-- Node1&#45;&gt;Node29 -->
<g id="edge46" class="edge">
<title>Node1&#45;&gt;Node29</title>
<path fill="none" stroke="#63b8ff" d="M1497.18,-403.92C1376.62,-401.82 1005.01,-392.93 699,-360 689.51,-358.98 679.48,-357.61 669.74,-356.13"/>
<polygon fill="#63b8ff" stroke="#63b8ff" points="670.16,-352.65 659.74,-354.55 669.07,-359.57 670.16,-352.65"/>
</g>
<!-- Node30 -->
<g id="node30" class="node">
<title>Node30</title>
<g id="a_node30"><a xlink:href="MoveAction_8h.html" target="_top" xlink:title=" ">
<polygon fill="white" stroke="#666666" points="338,-354.5 182,-354.5 182,-335.5 338,-335.5 338,-354.5"/>
<text text-anchor="middle" x="260" y="-342.5" font-family="Helvetica,sans-Serif" font-size="10.00">action/foreach/MoveAction.h</text>
</a>
</g>
</g>
<!-- Node1&#45;&gt;Node30 -->
<g id="edge48" class="edge">
<title>Node1&#45;&gt;Node30</title>
<path fill="none" stroke="#63b8ff" d="M1497.37,-404.74C1347.03,-405.3 797.72,-404.03 348,-360 337.95,-359.02 327.31,-357.62 317.03,-356.1"/>
<polygon fill="#63b8ff" stroke="#63b8ff" points="317.32,-352.6 306.91,-354.53 316.25,-359.52 317.32,-352.6"/>
</g>
<!-- Node31 -->
<g id="node31" class="node">
<title>Node31</title>
<g id="a_node31"><a xlink:href="CreateFileAction_8h.html" target="_top" xlink:title=" ">
<polygon fill="white" stroke="#666666" points="1256.5,-354.5 1091.5,-354.5 1091.5,-335.5 1256.5,-335.5 1256.5,-354.5"/>
<text text-anchor="middle" x="1174" y="-342.5" font-family="Helvetica,sans-Serif" font-size="10.00">action/once/CreateFileAction.h</text>
</a>
</g>
</g>
<!-- Node1&#45;&gt;Node31 -->
<g id="edge50" class="edge">
<title>Node1&#45;&gt;Node31</title>
<path fill="none" stroke="#63b8ff" d="M1497.46,-398.13C1434.81,-388.03 1312.15,-368.26 1237.2,-356.18"/>
<polygon fill="#63b8ff" stroke="#63b8ff" points="1237.38,-352.67 1226.95,-354.53 1236.26,-359.58 1237.38,-352.67"/>
</g>
<!-- Node32 -->
<g id="node32" class="node">
<title>Node32</title>
<g id="a_node32"><a xlink:href="SelectByContentAction_8h.html" target="_top" xlink:title=" ">
<polygon fill="white" stroke="#666666" points="1431.5,-360 1274.5,-360 1274.5,-330 1431.5,-330 1431.5,-360"/>
<text text-anchor="start" x="1282.5" y="-348" font-family="Helvetica,sans-Serif" font-size="10.00">action/once/SelectByContent</text>
<text text-anchor="middle" x="1353" y="-337" font-family="Helvetica,sans-Serif" font-size="10.00">Action.h</text>
</a>
</g>
</g>
<!-- Node1&#45;&gt;Node32 -->
<g id="edge52" class="edge">
<title>Node1&#45;&gt;Node32</title>
<path fill="none" stroke="#63b8ff" d="M1510.24,-395.99C1483.3,-387.43 1440.98,-373.97 1407.02,-363.18"/>
<polygon fill="#63b8ff" stroke="#63b8ff" points="1407.83,-359.76 1397.24,-360.06 1405.71,-366.43 1407.83,-359.76"/>
</g>
<!-- Node33 -->
<g id="node33" class="node">
<title>Node33</title>
<g id="a_node33"><a xlink:href="DeduplicateAction_8h.html" target="_top" xlink:title=" ">
<polygon fill="white" stroke="#666666" points="1624,-354.5 1450,-354.5 1450,-335.5 1624,-335.5 1624,-354.5"/>
<text text-anchor="middle" x="1537" y="-342.5" font-family="Helvetica,sans-Serif" font-size="10.00">action/once/DeduplicateAction.h</text>
</a>
</g>
</g>
<!-- Node1&#45;&gt;Node33 -->
<g id="edge54" class="edge">
<title>Node1&#45;&gt;Node33</title>
<path fill="none" stroke="#63b8ff" d="M1537,-395.87C1537,-387.75 1537,-375.31 1537,-364.89"/>
<polygon fill="#63b8ff" stroke="#63b8ff" points="1540.5,-364.67 1537,-354.67 1533.5,-364.67 1540.5,-364.67"/>
</g>
<!-- Node34 -->
<g id="node34" class="node">
<title>Node34</title>
<g id="a_node34"><a xlink:href="ConcatAction_8h.html" target="_top" xlink:title=" ">
<polygon fill="white" stroke="#666666" points="1791.5,-354.5 1642.5,-354.5 1642.5,-335.5 1791.5,-335.5 1791.5,-354.5"/>
<text text-anchor="middle" x="1717" y="-342.5" font-family="Helvetica,sans-Serif" font-size="10.00">action/once/ConcatAction.h</text>
</a>
</g>
</g>
<!-- Node1&#45;&gt;Node34 -->
<g id="edge56" class="edge">
<title>Node1&#45;&gt;Node34</title>
<path fill="none" stroke="#63b8ff" d="M1563.17,-395.99C1594.23,-385.9 1646.19,-369.01 1681.02,-357.69"/>
<polygon fill="#63b8ff" stroke="#63b8ff" points="1682.37,-360.94 1690.79,-354.52 1680.2,-354.28 1682.37,-360.94"/>
</g>
<!-- Node35 -->
<g id="node35" class="node">
<title>Node35</title>
<g id="a_node35"><a xlink:href="CreateFolderAction_8h.html" target="_top" xlink:title=" ">
<polygon fill="white" stroke="#666666" points="1948,-360 1810,-360 1810,-330 1948,-330 1948,-360"/>
<text text-anchor="start" x="1818" y="-348" font-family="Helvetica,sans-Serif" font-size="10.00">action/once/CreateFolder</text>
<text text-anchor="middle" x="1879" y="-337" font-family="Helvetica,sans-Serif" font-size="10.00">Action.h</text>
</a>
</g>
</g>
<!-- Node1&#45;&gt;Node35 -->
<g id="edge58" class="edge">
<title>Node1&#45;&gt;Node35</title>
<path fill="none" stroke="#63b8ff" d="M1576.83,-397.92C1626.56,-389.68 1714.53,-375 1799.6,-360.23"/>
<polygon fill="#63b8ff" stroke="#63b8ff" points="1800.43,-363.64 1809.68,-358.48 1799.23,-356.75 1800.43,-363.64"/>
</g>
<!-- Node36 -->
<g id="node36" class="node">
<title>Node36</title>
<g id="a_node36"><a xlink:href="CreateSymlinkAction_8h.html" target="_top" xlink:title=" ">
<polygon fill="white" stroke="#666666" points="2114,-360 1966,-360 1966,-330 2114,-330 2114,-360"/>
<text text-anchor="start" x="1974" y="-348" font-family="Helvetica,sans-Serif" font-size="10.00">action/once/CreateSymlink</text>
<text text-anchor="middle" x="2040" y="-337" font-family="Helvetica,sans-Serif" font-size="10.00">Action.h</text>
</a>
</g>
</g>
<!-- Node1&#45;&gt;Node36 -->
<g id="edge60" class="edge">
<title>Node1&#45;&gt;Node36</title>
<path fill="none" stroke="#63b8ff" d="M1576.76,-401.11C1649.77,-394.7 1810.28,-379.8 1955.82,-360.11"/>
<polygon fill="#63b8ff" stroke="#63b8ff" points="1956.39,-363.56 1965.82,-358.74 1955.44,-356.63 1956.39,-363.56"/>
</g>
<!-- Node37 -->
<g id="node37" class="node">
<title>Node37</title>
<g id="a_node37"><a xlink:href="Config_8h.html" target="_top" xlink:title=" ">
<polygon fill="white" stroke="#666666" points="84,-294 28,-294 28,-275 84,-275 84,-294"/>
<text text-anchor="middle" x="56" y="-282" font-family="Helvetica,sans-Serif" font-size="10.00">Config.h</text>
</a>
</g>
</g>
<!-- Node1&#45;&gt;Node37 -->
<g id="edge62" class="edge">
<title>Node1&#45;&gt;Node37</title>
<path fill="none" stroke="#63b8ff" d="M1497.33,-404.63C1269.15,-405.19 132.02,-405.71 75,-360 58.6,-346.85 55.19,-321.68 54.99,-304.26"/>
<polygon fill="#63b8ff" stroke="#63b8ff" points="58.49,-304.21 55.22,-294.13 51.49,-304.05 58.49,-304.21"/>
</g>
<!-- Node3 -->
<g id="node3" class="node">
<title>Node3</title>
<g id="a_node3"><a xlink:href="Interface_8h.html" target="_top" xlink:title=" ">
<polygon fill="white" stroke="#666666" points="253,-294 137,-294 137,-275 253,-275 253,-294"/>
<text text-anchor="middle" x="195" y="-282" font-family="Helvetica,sans-Serif" font-size="10.00">interface/Interface.h</text>
</a>
</g>
</g>
<!-- Node2&#45;&gt;Node3 -->
<g id="edge2" class="edge">
<title>Node2&#45;&gt;Node3</title>
<path fill="none" stroke="#63b8ff" d="M134.48,-335.37C145.49,-326.3 163.04,-311.84 176.41,-300.82"/>
<polygon fill="#63b8ff" stroke="#63b8ff" points="178.99,-303.23 184.48,-294.17 174.54,-297.83 178.99,-303.23"/>
</g>
<!-- Node11 -->
<g id="node11" class="node">
<title>Node11</title>
<g id="a_node11"><a xlink:href="State_8h.html" target="_top" xlink:title=" ">
<polygon fill="white" stroke="#666666" points="275,-184 215,-184 215,-165 275,-165 275,-184"/>
<text text-anchor="middle" x="245" y="-172" font-family="Helvetica,sans-Serif" font-size="10.00">../State.h</text>
</a>
</g>
</g>
<!-- Node2&#45;&gt;Node11 -->
<g id="edge25" class="edge">
<title>Node2&#45;&gt;Node11</title>
<path fill="none" stroke="#63b8ff" d="M154.54,-335.45C189.79,-325.15 245.1,-307.55 262,-294 290.38,-271.24 312.22,-253.05 297,-220 291.25,-207.52 280.09,-197.24 269.58,-189.71"/>
<polygon fill="#63b8ff" stroke="#63b8ff" points="271.3,-186.65 261.03,-184.05 267.43,-192.49 271.3,-186.65"/>
</g>
<!-- Node4 -->
<g id="node4" class="node">
<title>Node4</title>
<g id="a_node4"><a xlink:title=" ">
<polygon fill="#e0e0e0" stroke="#999999" points="288,-239 250,-239 250,-220 288,-220 288,-239"/>
<text text-anchor="middle" x="269" y="-227" font-family="Helvetica,sans-Serif" font-size="10.00">map</text>
</a>
</g>
</g>
<!-- Node3&#45;&gt;Node4 -->
<g id="edge3" class="edge">
<title>Node3&#45;&gt;Node4</title>
<path fill="none" stroke="#63b8ff" d="M206.89,-274.98C218.15,-266.92 235.29,-254.65 248.71,-245.03"/>
<polygon fill="#63b8ff" stroke="#63b8ff" points="250.8,-247.84 256.89,-239.17 246.73,-242.15 250.8,-247.84"/>
</g>
<!-- Node5 -->
<g id="node5" class="node">
<title>Node5</title>
<g id="a_node5"><a xlink:title=" ">
<polygon fill="#e0e0e0" stroke="#999999" points="119.5,-184 56.5,-184 56.5,-165 119.5,-165 119.5,-184"/>
<text text-anchor="middle" x="88" y="-172" font-family="Helvetica,sans-Serif" font-size="10.00">ncurses.h</text>
</a>
</g>
</g>
<!-- Node3&#45;&gt;Node5 -->
<g id="edge4" class="edge">
<title>Node3&#45;&gt;Node5</title>
<path fill="none" stroke="#63b8ff" d="M181.23,-274.99C168.45,-266.71 149.3,-253.31 135,-239 120.96,-224.95 107.76,-206.47 98.95,-193.07"/>
<polygon fill="#63b8ff" stroke="#63b8ff" points="101.7,-190.88 93.35,-184.35 95.81,-194.66 101.7,-190.88"/>
</g>
<!-- Node6 -->
<g id="node6" class="node">
<title>Node6</title>
<g id="a_node6"><a xlink:href="FileView_8h.html" target="_top" xlink:title=" ">
<polygon fill="white" stroke="#666666" points="396.5,-184 321.5,-184 321.5,-165 396.5,-165 396.5,-184"/>
<text text-anchor="middle" x="359" y="-172" font-family="Helvetica,sans-Serif" font-size="10.00">../FileView.h</text>
</a>
</g>
</g>
<!-- Node3&#45;&gt;Node6 -->
<g id="edge5" class="edge">
<title>Node3&#45;&gt;Node6</title>
<path fill="none" stroke="#63b8ff" d="M222.02,-274.94C243.47,-267.42 273.63,-255.14 297,-239 316.11,-225.8 334.21,-206.14 345.86,-192.19"/>
<polygon fill="#63b8ff" stroke="#63b8ff" points="348.64,-194.32 352.24,-184.36 343.21,-189.9 348.64,-194.32"/>
</g>
<!-- Node3&#45;&gt;Node11 -->
<g id="edge11" class="edge">
<title>Node3&#45;&gt;Node11</title>
<path fill="none" stroke="#63b8ff" d="M199.09,-274.66C207.3,-256.93 225.91,-216.73 236.75,-193.32"/>
<polygon fill="#63b8ff" stroke="#63b8ff" points="239.97,-194.7 240.99,-184.16 233.61,-191.76 239.97,-194.7"/>
</g>
<!-- Node15 -->
<g id="node15" class="node">
<title>Node15</title>
<g id="a_node15"><a xlink:href="Action_8h.html" target="_top" xlink:title=" ">
<polygon fill="white" stroke="#666666" points="480,-239 382,-239 382,-220 480,-220 480,-239"/>
<text text-anchor="middle" x="431" y="-227" font-family="Helvetica,sans-Serif" font-size="10.00">../action/Action.h</text>
</a>
</g>
</g>
<!-- Node3&#45;&gt;Node15 -->
<g id="edge17" class="edge">
<title>Node3&#45;&gt;Node15</title>
<path fill="none" stroke="#63b8ff" d="M232.92,-274.98C273.65,-265.84 338.5,-251.27 382.82,-241.32"/>
<polygon fill="#63b8ff" stroke="#63b8ff" points="383.8,-244.69 392.79,-239.08 382.26,-237.86 383.8,-244.69"/>
</g>
<!-- Node16 -->
<g id="node16" class="node">
<title>Node16</title>
<g id="a_node16"><a xlink:href="Theme_8h.html" target="_top" xlink:title=" ">
<polygon fill="white" stroke="#666666" points="87.5,-239 28.5,-239 28.5,-220 87.5,-220 87.5,-239"/>
<text text-anchor="middle" x="58" y="-227" font-family="Helvetica,sans-Serif" font-size="10.00">Theme.h</text>
</a>
</g>
</g>
<!-- Node3&#45;&gt;Node16 -->
<g id="edge22" class="edge">
<title>Node3&#45;&gt;Node16</title>
<path fill="none" stroke="#63b8ff" d="M172.99,-274.98C150.55,-266.3 115.52,-252.75 90.01,-242.88"/>
<polygon fill="#63b8ff" stroke="#63b8ff" points="91,-239.51 80.41,-239.17 88.48,-246.04 91,-239.51"/>
</g>
<!-- Node17 -->
<g id="node17" class="node">
<title>Node17</title>
<g id="a_node17"><a xlink:href="Color_8h.html" target="_top" xlink:title=" ">
<polygon fill="white" stroke="#666666" points="194,-239 144,-239 144,-220 194,-220 194,-239"/>
<text text-anchor="middle" x="169" y="-227" font-family="Helvetica,sans-Serif" font-size="10.00">Color.h</text>
</a>
</g>
</g>
<!-- Node3&#45;&gt;Node17 -->
<g id="edge24" class="edge">
<title>Node3&#45;&gt;Node17</title>
<path fill="none" stroke="#63b8ff" d="M190.71,-274.75C187.19,-267.57 182.09,-257.18 177.72,-248.27"/>
<polygon fill="#63b8ff" stroke="#63b8ff" points="180.76,-246.53 173.21,-239.09 174.48,-249.61 180.76,-246.53"/>
</g>
<!-- Node7 -->
<g id="node7" class="node">
<title>Node7</title>
<g id="a_node7"><a xlink:title=" ">
<polygon fill="#e0e0e0" stroke="#999999" points="434.5,-129 387.5,-129 387.5,-110 434.5,-110 434.5,-129"/>
<text text-anchor="middle" x="411" y="-117" font-family="Helvetica,sans-Serif" font-size="10.00">vector</text>
</a>
</g>
</g>
<!-- Node6&#45;&gt;Node7 -->
<g id="edge6" class="edge">
<title>Node6&#45;&gt;Node7</title>
<path fill="none" stroke="#63b8ff" d="M367.59,-164.75C375.16,-157.03 386.38,-145.6 395.51,-136.28"/>
<polygon fill="#63b8ff" stroke="#63b8ff" points="398.07,-138.68 402.57,-129.09 393.07,-133.78 398.07,-138.68"/>
</g>
<!-- Node8 -->
<g id="node8" class="node">
<title>Node8</title>
<g id="a_node8"><a xlink:title=" ">
<polygon fill="#e0e0e0" stroke="#999999" points="371,-19 303,-19 303,0 371,0 371,-19"/>
<text text-anchor="middle" x="337" y="-7" font-family="Helvetica,sans-Serif" font-size="10.00">filesystem</text>
</a>
</g>
</g>
<!-- Node6&#45;&gt;Node8 -->
<g id="edge7" class="edge">
<title>Node6&#45;&gt;Node8</title>
<path fill="none" stroke="#63b8ff" d="M357.82,-164.74C354.37,-139.2 344.28,-64.43 339.53,-29.23"/>
<polygon fill="#63b8ff" stroke="#63b8ff" points="342.99,-28.75 338.19,-19.31 336.06,-29.69 342.99,-28.75"/>
</g>
<!-- Node9 -->
<g id="node9" class="node">
<title>Node9</title>
<g id="a_node9"><a xlink:href="Entry_8h.html" target="_top" xlink:title=" ">
<polygon fill="white" stroke="#666666" points="269,-74 191,-74 191,-55 269,-55 269,-74"/>
<text text-anchor="middle" x="230" y="-62" font-family="Helvetica,sans-Serif" font-size="10.00">entry/Entry.h</text>
</a>
</g>
</g>
<!-- Node6&#45;&gt;Node9 -->
<g id="edge8" class="edge">
<title>Node6&#45;&gt;Node9</title>
<path fill="none" stroke="#63b8ff" d="M331.87,-164.94C312.38,-157.74 286.39,-145.9 268,-129 254.28,-116.39 243.91,-97.69 237.5,-83.84"/>
<polygon fill="#63b8ff" stroke="#63b8ff" points="240.58,-82.15 233.37,-74.38 234.16,-84.95 240.58,-82.15"/>
</g>
<!-- Node9&#45;&gt;Node8 -->
<g id="edge9" class="edge">
<title>Node9&#45;&gt;Node8</title>
<path fill="none" stroke="#63b8ff" d="M247.19,-54.98C264.25,-46.54 290.63,-33.47 310.4,-23.68"/>
<polygon fill="#63b8ff" stroke="#63b8ff" points="312.09,-26.75 319.5,-19.17 308.98,-20.47 312.09,-26.75"/>
</g>
<!-- Node10 -->
<g id="node10" class="node">
<title>Node10</title>
<g id="a_node10"><a xlink:href="Modifier_8h.html" target="_top" xlink:title=" ">
<polygon fill="white" stroke="#666666" points="262.5,-19 197.5,-19 197.5,0 262.5,0 262.5,-19"/>
<text text-anchor="middle" x="230" y="-7" font-family="Helvetica,sans-Serif" font-size="10.00">Modifier.h</text>
</a>
</g>
</g>
<!-- Node9&#45;&gt;Node10 -->
<g id="edge10" class="edge">
<title>Node9&#45;&gt;Node10</title>
<path fill="none" stroke="#63b8ff" d="M230,-54.75C230,-47.8 230,-37.85 230,-29.13"/>
<polygon fill="#63b8ff" stroke="#63b8ff" points="233.5,-29.09 230,-19.09 226.5,-29.09 233.5,-29.09"/>
</g>
<!-- Node11&#45;&gt;Node9 -->
<g id="edge13" class="edge">
<title>Node11&#45;&gt;Node9</title>
<path fill="none" stroke="#63b8ff" d="M222.88,-164.95C207.8,-157.82 188.99,-146.06 180,-129 170.25,-110.5 188.79,-92.02 205.99,-79.81"/>
<polygon fill="#63b8ff" stroke="#63b8ff" points="208.31,-82.47 214.71,-74.03 204.44,-76.64 208.31,-82.47"/>
</g>
<!-- Node12 -->
<g id="node12" class="node">
<title>Node12</title>
<g id="a_node12"><a xlink:title=" ">
<polygon fill="#e0e0e0" stroke="#999999" points="221,-129 189,-129 189,-110 221,-110 221,-129"/>
<text text-anchor="middle" x="205" y="-117" font-family="Helvetica,sans-Serif" font-size="10.00">set</text>
</a>
</g>
</g>
<!-- Node11&#45;&gt;Node12 -->
<g id="edge12" class="edge">
<title>Node11&#45;&gt;Node12</title>
<path fill="none" stroke="#63b8ff" d="M238.39,-164.75C232.74,-157.26 224.46,-146.28 217.55,-137.13"/>
<polygon fill="#63b8ff" stroke="#63b8ff" points="220.3,-134.96 211.48,-129.09 214.71,-139.18 220.3,-134.96"/>
</g>
<!-- Node13 -->
<g id="node13" class="node">
<title>Node13</title>
<g id="a_node13"><a xlink:href="Utility_8h.html" target="_top" xlink:title=" ">
<polygon fill="white" stroke="#666666" points="331,-129 277,-129 277,-110 331,-110 331,-129"/>
<text text-anchor="middle" x="304" y="-117" font-family="Helvetica,sans-Serif" font-size="10.00">Utility.h</text>
</a>
</g>
</g>
<!-- Node11&#45;&gt;Node13 -->
<g id="edge14" class="edge">
<title>Node11&#45;&gt;Node13</title>
<path fill="none" stroke="#63b8ff" d="M254.48,-164.98C263.2,-157.15 276.34,-145.34 286.9,-135.86"/>
<polygon fill="#63b8ff" stroke="#63b8ff" points="289.25,-138.46 294.35,-129.17 284.57,-133.25 289.25,-138.46"/>
</g>
<!-- Node13&#45;&gt;Node9 -->
<g id="edge16" class="edge">
<title>Node13&#45;&gt;Node9</title>
<path fill="none" stroke="#63b8ff" d="M292.11,-109.98C280.85,-101.92 263.71,-89.65 250.29,-80.03"/>
<polygon fill="#63b8ff" stroke="#63b8ff" points="252.27,-77.15 242.11,-74.17 248.2,-82.84 252.27,-77.15"/>
</g>
<!-- Node14 -->
<g id="node14" class="node">
<title>Node14</title>
<g id="a_node14"><a xlink:title=" ">
<polygon fill="#e0e0e0" stroke="#999999" points="331,-74 287,-74 287,-55 331,-55 331,-74"/>
<text text-anchor="middle" x="309" y="-62" font-family="Helvetica,sans-Serif" font-size="10.00">string</text>
</a>
</g>
</g>
<!-- Node13&#45;&gt;Node14 -->
<g id="edge15" class="edge">
<title>Node13&#45;&gt;Node14</title>
<path fill="none" stroke="#63b8ff" d="M304.83,-109.75C305.48,-102.8 306.42,-92.85 307.24,-84.13"/>
<polygon fill="#63b8ff" stroke="#63b8ff" points="310.73,-84.37 308.19,-74.09 303.77,-83.72 310.73,-84.37"/>
</g>
<!-- Node15&#45;&gt;Node6 -->
<g id="edge20" class="edge">
<title>Node15&#45;&gt;Node6</title>
<path fill="none" stroke="#63b8ff" d="M419.43,-219.98C408.58,-212 392.12,-199.88 379.12,-190.31"/>
<polygon fill="#63b8ff" stroke="#63b8ff" points="380.91,-187.28 370.78,-184.17 376.76,-192.92 380.91,-187.28"/>
</g>
<!-- Node15&#45;&gt;Node7 -->
<g id="edge18" class="edge">
<title>Node15&#45;&gt;Node7</title>
<path fill="none" stroke="#63b8ff" d="M429.36,-219.66C426.12,-202.17 418.83,-162.8 414.48,-139.27"/>
<polygon fill="#63b8ff" stroke="#63b8ff" points="417.87,-138.35 412.6,-129.16 410.98,-139.63 417.87,-138.35"/>
</g>
<!-- Node15&#45;&gt;Node8 -->
<g id="edge19" class="edge">
<title>Node15&#45;&gt;Node8</title>
<path fill="none" stroke="#63b8ff" d="M434.84,-219.72C443.12,-199.44 460.61,-148.14 444,-110 427.14,-71.31 387,-40.88 360.96,-24.32"/>
<polygon fill="#63b8ff" stroke="#63b8ff" points="362.75,-21.31 352.4,-19.05 359.08,-27.27 362.75,-21.31"/>
</g>
<!-- Node15&#45;&gt;Node11 -->
<g id="edge21" class="edge">
<title>Node15&#45;&gt;Node11</title>
<path fill="none" stroke="#63b8ff" d="M401.12,-219.98C369.62,-211.01 319.83,-196.82 284.97,-186.89"/>
<polygon fill="#63b8ff" stroke="#63b8ff" points="285.69,-183.46 275.12,-184.08 283.78,-190.19 285.69,-183.46"/>
</g>
<!-- Node16&#45;&gt;Node5 -->
<g id="edge23" class="edge">
<title>Node16&#45;&gt;Node5</title>
<path fill="none" stroke="#63b8ff" d="M62.95,-219.75C67.06,-212.49 73.03,-201.95 78.1,-192.98"/>
<polygon fill="#63b8ff" stroke="#63b8ff" points="81.26,-194.52 83.14,-184.09 75.17,-191.07 81.26,-194.52"/>
</g>
<!-- Node19 -->
<g id="node19" class="node">
<title>Node19</title>
<g id="a_node19"><a xlink:href="OnceAction_8h.html" target="_top" xlink:title=" ">
<polygon fill="white" stroke="#666666" points="1924,-294 1834,-294 1834,-275 1924,-275 1924,-294"/>
<text text-anchor="middle" x="1879" y="-282" font-family="Helvetica,sans-Serif" font-size="10.00">../OnceAction.h</text>
</a>
</g>
</g>
<!-- Node18&#45;&gt;Node19 -->
<g id="edge27" class="edge">
<title>Node18&#45;&gt;Node19</title>
<path fill="none" stroke="#63b8ff" d="M2153.32,-335.49C2095.18,-324.9 1995.97,-306.82 1934.14,-295.55"/>
<polygon fill="#63b8ff" stroke="#63b8ff" points="1934.64,-292.08 1924.18,-293.73 1933.39,-298.97 1934.64,-292.08"/>
</g>
<!-- Node19&#45;&gt;Node15 -->
<g id="edge28" class="edge">
<title>Node19&#45;&gt;Node15</title>
<path fill="none" stroke="#63b8ff" d="M1833.68,-281.84C1621.85,-274.09 729.72,-241.43 490.33,-232.67"/>
<polygon fill="#63b8ff" stroke="#63b8ff" points="490.21,-229.16 480.09,-232.3 489.95,-236.16 490.21,-229.16"/>
</g>
<!-- Node20&#45;&gt;Node19 -->
<g id="edge30" class="edge">
<title>Node20&#45;&gt;Node19</title>
<path fill="none" stroke="#63b8ff" d="M2317.11,-335.48C2303.95,-333.59 2290,-331.66 2277,-330 2154.98,-314.38 2011.52,-299.09 1934.53,-291.14"/>
<polygon fill="#63b8ff" stroke="#63b8ff" points="1934.43,-287.61 1924.12,-290.07 1933.71,-294.58 1934.43,-287.61"/>
</g>
<!-- Node21&#45;&gt;Node19 -->
<g id="edge32" class="edge">
<title>Node21&#45;&gt;Node19</title>
<path fill="none" stroke="#63b8ff" d="M2510.2,-335.44C2497.45,-333.45 2483.74,-331.48 2471,-330 2274.08,-307.15 2038.87,-293.51 1934.08,-288.15"/>
<polygon fill="#63b8ff" stroke="#63b8ff" points="1934.21,-284.65 1924.05,-287.64 1933.86,-291.64 1934.21,-284.65"/>
</g>
<!-- Node22&#45;&gt;Node19 -->
<g id="edge34" class="edge">
<title>Node22&#45;&gt;Node19</title>
<path fill="none" stroke="#63b8ff" d="M2686.08,-335.45C2674.42,-333.38 2661.76,-331.38 2650,-330 2383.18,-298.77 2061.72,-289.16 1934.61,-286.47"/>
<polygon fill="#63b8ff" stroke="#63b8ff" points="1934.42,-282.96 1924.35,-286.25 1934.28,-289.96 1934.42,-282.96"/>
</g>
<!-- Node23&#45;&gt;Node19 -->
<g id="edge36" class="edge">
<title>Node23&#45;&gt;Node19</title>
<path fill="none" stroke="#63b8ff" d="M2848.25,-335.47C2835.58,-333.38 2821.79,-331.35 2809,-330 2478.5,-294.99 2078.99,-287.51 1934.51,-285.92"/>
<polygon fill="#63b8ff" stroke="#63b8ff" points="1934.18,-282.42 1924.14,-285.82 1934.11,-289.42 1934.18,-282.42"/>
</g>
<!-- Node24&#45;&gt;Node19 -->
<g id="edge38" class="edge">
<title>Node24&#45;&gt;Node19</title>
<path fill="none" stroke="#63b8ff" d="M2988.97,-331.07C2985.94,-330.67 2982.94,-330.32 2980,-330 2580.76,-287.19 2096.07,-284.67 1934.43,-285.14"/>
<polygon fill="#63b8ff" stroke="#63b8ff" points="1934.24,-281.65 1924.25,-285.18 1934.27,-288.64 1934.24,-281.65"/>
</g>
<!-- Node25&#45;&gt;Node19 -->
<g id="edge40" class="edge">
<title>Node25&#45;&gt;Node19</title>
<path fill="none" stroke="#63b8ff" d="M849.04,-335.47C863.58,-333.39 879.37,-331.37 894,-330 1246.85,-296.9 1673.2,-288.23 1823.4,-286.13"/>
<polygon fill="#63b8ff" stroke="#63b8ff" points="1823.78,-289.62 1833.73,-285.99 1823.68,-282.62 1823.78,-289.62"/>
</g>
<!-- Node26&#45;&gt;Node19 -->
<g id="edge42" class="edge">
<title>Node26&#45;&gt;Node19</title>
<path fill="none" stroke="#63b8ff" d="M1040.16,-335.45C1054.05,-333.41 1069.07,-331.41 1083,-330 1360.2,-301.89 1693.63,-290.47 1823.47,-286.88"/>
<polygon fill="#63b8ff" stroke="#63b8ff" points="1823.66,-290.37 1833.56,-286.6 1823.47,-283.37 1823.66,-290.37"/>
</g>
<!-- Node28 -->
<g id="node28" class="node">
<title>Node28</title>
<g id="a_node28"><a xlink:href="ForEachAction_8h.html" target="_top" xlink:title=" ">
<polygon fill="white" stroke="#666666" points="485,-294 381,-294 381,-275 485,-275 485,-294"/>
<text text-anchor="middle" x="433" y="-282" font-family="Helvetica,sans-Serif" font-size="10.00">../ForEachAction.h</text>
</a>
</g>
</g>
<!-- Node27&#45;&gt;Node28 -->
<g id="edge44" class="edge">
<title>Node27&#45;&gt;Node28</title>
<path fill="none" stroke="#63b8ff" d="M436.41,-335.37C435.85,-327.25 435,-314.81 434.29,-304.39"/>
<polygon fill="#63b8ff" stroke="#63b8ff" points="437.77,-303.91 433.59,-294.17 430.78,-304.38 437.77,-303.91"/>
</g>
<!-- Node28&#45;&gt;Node15 -->
<g id="edge45" class="edge">
<title>Node28&#45;&gt;Node15</title>
<path fill="none" stroke="#63b8ff" d="M432.67,-274.75C432.41,-267.8 432.03,-257.85 431.7,-249.13"/>
<polygon fill="#63b8ff" stroke="#63b8ff" points="435.2,-248.95 431.32,-239.09 428.2,-249.21 435.2,-248.95"/>
</g>
<!-- Node29&#45;&gt;Node28 -->
<g id="edge47" class="edge">
<title>Node29&#45;&gt;Node28</title>
<path fill="none" stroke="#63b8ff" d="M586.83,-335.49C555.77,-325.4 503.81,-308.51 468.98,-297.19"/>
<polygon fill="#63b8ff" stroke="#63b8ff" points="469.8,-293.78 459.21,-294.02 467.63,-300.44 469.8,-293.78"/>
</g>
<!-- Node30&#45;&gt;Node28 -->
<g id="edge49" class="edge">
<title>Node30&#45;&gt;Node28</title>
<path fill="none" stroke="#63b8ff" d="M285.16,-335.49C314.88,-325.44 364.52,-308.66 397.99,-297.34"/>
<polygon fill="#63b8ff" stroke="#63b8ff" points="399.46,-300.54 407.81,-294.02 397.22,-293.9 399.46,-300.54"/>
</g>
<!-- Node31&#45;&gt;Node19 -->
<g id="edge51" class="edge">
<title>Node31&#45;&gt;Node19</title>
<path fill="none" stroke="#63b8ff" d="M1225.48,-335.44C1238.66,-333.44 1252.83,-331.48 1266,-330 1470.99,-307 1715.93,-293.36 1823.6,-288.06"/>
<polygon fill="#63b8ff" stroke="#63b8ff" points="1824.08,-291.54 1833.9,-287.56 1823.74,-284.55 1824.08,-291.54"/>
</g>
<!-- Node32&#45;&gt;Node19 -->
<g id="edge53" class="edge">
<title>Node32&#45;&gt;Node19</title>
<path fill="none" stroke="#63b8ff" d="M1431.65,-331.26C1434.81,-330.82 1437.93,-330.4 1441,-330 1578.33,-312.11 1740.68,-297.25 1823.84,-290.1"/>
<polygon fill="#63b8ff" stroke="#63b8ff" points="1824.16,-293.58 1833.82,-289.24 1823.56,-286.61 1824.16,-293.58"/>
</g>
<!-- Node33&#45;&gt;Node19 -->
<g id="edge55" class="edge">
<title>Node33&#45;&gt;Node19</title>
<path fill="none" stroke="#63b8ff" d="M1586.73,-335.49C1649.77,-324.71 1758.12,-306.18 1823.71,-294.96"/>
<polygon fill="#63b8ff" stroke="#63b8ff" points="1824.58,-298.36 1833.85,-293.22 1823.4,-291.46 1824.58,-298.36"/>
</g>
<!-- Node34&#45;&gt;Node19 -->
<g id="edge57" class="edge">
<title>Node34&#45;&gt;Node19</title>
<path fill="none" stroke="#63b8ff" d="M1740.56,-335.49C1768.27,-325.49 1814.47,-308.8 1845.81,-297.49"/>
<polygon fill="#63b8ff" stroke="#63b8ff" points="1847.2,-300.71 1855.42,-294.02 1844.82,-294.12 1847.2,-300.71"/>
</g>
<!-- Node35&#45;&gt;Node19 -->
<g id="edge59" class="edge">
<title>Node35&#45;&gt;Node19</title>
<path fill="none" stroke="#63b8ff" d="M1879,-329.84C1879,-322.21 1879,-312.7 1879,-304.45"/>
<polygon fill="#63b8ff" stroke="#63b8ff" points="1882.5,-304.27 1879,-294.27 1875.5,-304.27 1882.5,-304.27"/>
</g>
<!-- Node36&#45;&gt;Node19 -->
<g id="edge61" class="edge">
<title>Node36&#45;&gt;Node19</title>
<path fill="none" stroke="#63b8ff" d="M2001.44,-329.99C1974.21,-320.1 1938.12,-306.98 1912.18,-297.56"/>
<polygon fill="#63b8ff" stroke="#63b8ff" points="1913.37,-294.26 1902.78,-294.14 1910.98,-300.84 1913.37,-294.26"/>
</g>
<!-- Node37&#45;&gt;Node8 -->
<g id="edge63" class="edge">
<title>Node37&#45;&gt;Node8</title>
<path fill="none" stroke="#63b8ff" d="M46.86,-274.76C38.53,-266.32 26.41,-252.81 19,-239 5.08,-213.04 0,-204.96 0,-175.5 0,-175.5 0,-175.5 0,-118.5 0,-88.08 201.75,-40.08 293.05,-19.91"/>
<polygon fill="#63b8ff" stroke="#63b8ff" points="293.82,-23.33 302.83,-17.77 292.31,-16.49 293.82,-23.33"/>
</g>
<!-- Node37&#45;&gt;Node16 -->
<g id="edge64" class="edge">
<title>Node37&#45;&gt;Node16</title>
<path fill="none" stroke="#63b8ff" d="M56.33,-274.75C56.59,-267.8 56.97,-257.85 57.3,-249.13"/>
<polygon fill="#63b8ff" stroke="#63b8ff" points="60.8,-249.21 57.68,-239.09 53.8,-248.95 60.8,-249.21"/>
</g>
</g>
</svg>
