<?xml version="1.0" encoding="UTF-8" standalone="no"?>
<!DOCTYPE svg PUBLIC "-//W3C//DTD SVG 1.1//EN"
 "http://www.w3.org/Graphics/SVG/1.1/DTD/svg11.dtd">
<!-- Generated by graphviz version 2.43.0 (0)
 -->
<!-- Title: main Pages: 1 -->
<svg width="320pt" height="27pt"
 viewBox="0.00 0.00 320.00 27.00" xmlns="http://www.w3.org/2000/svg" xmlns:xlink="http://www.w3.org/1999/xlink">
<g id="graph0" class="graph" transform="scale(1 1) rotate(0) translate(4 23)">
<title>main</title>
<!-- Node1 -->
<g id="node1" class="node">
<title>Node1</title>
<g id="a_node1"><a xlink:title=" ">
<polygon fill="#999999" stroke="#666666" points="41,-19 0,-19 0,0 41,0 41,-19"/>
<text text-anchor="middle" x="20.5" y="-7" font-family="Helvetica,sans-Serif" font-size="10.00">main</text>
</a>
</g>
</g>
<!-- Node2 -->
<g id="node2" class="node">
<title>Node2</title>
<g id="a_node2"><a xlink:href="classInterface.html#ae3509564ba046391cbd2ced3247e621c" target="_top" xlink:title=" ">
<polygon fill="white" stroke="#666666" points="196,-19 77,-19 77,0 196,0 196,-19"/>
<text text-anchor="middle" x="136.5" y="-7" font-family="Helvetica,sans-Serif" font-size="10.00">Interface::addHotkey</text>
</a>
</g>
</g>
<!-- Node1&#45;&gt;Node2 -->
<g id="edge1" class="edge">
<title>Node1&#45;&gt;Node2</title>
<path fill="none" stroke="#63b8ff" d="M41.1,-9.5C48.48,-9.5 57.37,-9.5 66.7,-9.5"/>
<polygon fill="#63b8ff" stroke="#63b8ff" points="66.94,-13 76.94,-9.5 66.94,-6 66.94,-13"/>
</g>
<!-- Node3 -->
<g id="node3" class="node">
<title>Node3</title>
<g id="a_node3"><a xlink:href="classAction.html#a52a12beae95fac4b24e6f70a3c9ed028" target="_top" xlink:title=" ">
<polygon fill="white" stroke="#666666" points="312,-19 232,-19 232,0 312,0 312,-19"/>
<text text-anchor="middle" x="272" y="-7" font-family="Helvetica,sans-Serif" font-size="10.00">Action::clone</text>
</a>
</g>
</g>
<!-- Node2&#45;&gt;Node3 -->
<g id="edge2" class="edge">
<title>Node2&#45;&gt;Node3</title>
<path fill="none" stroke="#63b8ff" d="M196.06,-9.5C204.53,-9.5 213.18,-9.5 221.45,-9.5"/>
<polygon fill="#63b8ff" stroke="#63b8ff" points="221.69,-13 231.69,-9.5 221.69,-6 221.69,-13"/>
</g>
</g>
</svg>
