<?xml version="1.0" encoding="UTF-8" standalone="no"?>
<!DOCTYPE svg PUBLIC "-//W3C//DTD SVG 1.1//EN"
 "http://www.w3.org/Graphics/SVG/1.1/DTD/svg11.dtd">
<!-- Generated by graphviz version 2.43.0 (0)
 -->
<!-- Title: src/action/once/ManualSelectAction.cpp Pages: 1 -->
<svg width="322pt" height="423pt"
 viewBox="0.00 0.00 321.50 423.00" xmlns="http://www.w3.org/2000/svg" xmlns:xlink="http://www.w3.org/1999/xlink">
<g id="graph0" class="graph" transform="scale(1 1) rotate(0) translate(4 419)">
<title>src/action/once/ManualSelectAction.cpp</title>
<!-- Node1 -->
<g id="node1" class="node">
<title>Node1</title>
<g id="a_node1"><a xlink:title=" ">
<polygon fill="#999999" stroke="#666666" points="159,-415 0,-415 0,-385 159,-385 159,-415"/>
<text text-anchor="start" x="8" y="-403" font-family="Helvetica,sans-Serif" font-size="10.00">src/action/once/ManualSelect</text>
<text text-anchor="middle" x="79.5" y="-392" font-family="Helvetica,sans-Serif" font-size="10.00">Action.cpp</text>
</a>
</g>
</g>
<!-- Node2 -->
<g id="node2" class="node">
<title>Node2</title>
<g id="a_node2"><a xlink:href="ManualSelectAction_8h.html" target="_top" xlink:title=" ">
<polygon fill="white" stroke="#666666" points="140.5,-349 18.5,-349 18.5,-330 140.5,-330 140.5,-349"/>
<text text-anchor="middle" x="79.5" y="-337" font-family="Helvetica,sans-Serif" font-size="10.00">ManualSelectAction.h</text>
</a>
</g>
</g>
<!-- Node1&#45;&gt;Node2 -->
<g id="edge1" class="edge">
<title>Node1&#45;&gt;Node2</title>
<path fill="none" stroke="#63b8ff" d="M79.5,-384.84C79.5,-377.21 79.5,-367.7 79.5,-359.45"/>
<polygon fill="#63b8ff" stroke="#63b8ff" points="83,-359.27 79.5,-349.27 76,-359.27 83,-359.27"/>
</g>
<!-- Node3 -->
<g id="node3" class="node">
<title>Node3</title>
<g id="a_node3"><a xlink:href="OnceAction_8h.html" target="_top" xlink:title=" ">
<polygon fill="white" stroke="#666666" points="124.5,-294 34.5,-294 34.5,-275 124.5,-275 124.5,-294"/>
<text text-anchor="middle" x="79.5" y="-282" font-family="Helvetica,sans-Serif" font-size="10.00">../OnceAction.h</text>
</a>
</g>
</g>
<!-- Node2&#45;&gt;Node3 -->
<g id="edge2" class="edge">
<title>Node2&#45;&gt;Node3</title>
<path fill="none" stroke="#63b8ff" d="M79.5,-329.75C79.5,-322.8 79.5,-312.85 79.5,-304.13"/>
<polygon fill="#63b8ff" stroke="#63b8ff" points="83,-304.09 79.5,-294.09 76,-304.09 83,-304.09"/>
</g>
<!-- Node4 -->
<g id="node4" class="node">
<title>Node4</title>
<g id="a_node4"><a xlink:href="Action_8h.html" target="_top" xlink:title=" ">
<polygon fill="white" stroke="#666666" points="107.5,-239 51.5,-239 51.5,-220 107.5,-220 107.5,-239"/>
<text text-anchor="middle" x="79.5" y="-227" font-family="Helvetica,sans-Serif" font-size="10.00">Action.h</text>
</a>
</g>
</g>
<!-- Node3&#45;&gt;Node4 -->
<g id="edge3" class="edge">
<title>Node3&#45;&gt;Node4</title>
<path fill="none" stroke="#63b8ff" d="M79.5,-274.75C79.5,-267.8 79.5,-257.85 79.5,-249.13"/>
<polygon fill="#63b8ff" stroke="#63b8ff" points="83,-249.09 79.5,-239.09 76,-249.09 83,-249.09"/>
</g>
<!-- Node5 -->
<g id="node5" class="node">
<title>Node5</title>
<g id="a_node5"><a xlink:title=" ">
<polygon fill="#e0e0e0" stroke="#999999" points="77,-129 30,-129 30,-110 77,-110 77,-129"/>
<text text-anchor="middle" x="53.5" y="-117" font-family="Helvetica,sans-Serif" font-size="10.00">vector</text>
</a>
</g>
</g>
<!-- Node4&#45;&gt;Node5 -->
<g id="edge4" class="edge">
<title>Node4&#45;&gt;Node5</title>
<path fill="none" stroke="#63b8ff" d="M76.4,-219.72C73.33,-210.81 68.65,-196.57 65.5,-184 61.78,-169.17 58.62,-152.13 56.48,-139.44"/>
<polygon fill="#63b8ff" stroke="#63b8ff" points="59.87,-138.51 54.81,-129.2 52.96,-139.63 59.87,-138.51"/>
</g>
<!-- Node6 -->
<g id="node6" class="node">
<title>Node6</title>
<g id="a_node6"><a xlink:title=" ">
<polygon fill="#e0e0e0" stroke="#999999" points="139.5,-19 71.5,-19 71.5,0 139.5,0 139.5,-19"/>
<text text-anchor="middle" x="105.5" y="-7" font-family="Helvetica,sans-Serif" font-size="10.00">filesystem</text>
</a>
</g>
</g>
<!-- Node4&#45;&gt;Node6 -->
<g id="edge5" class="edge">
<title>Node4&#45;&gt;Node6</title>
<path fill="none" stroke="#63b8ff" d="M69.67,-219.87C49.1,-200.71 4.67,-152.91 20.5,-110 33.56,-74.59 65.46,-43.24 86.25,-25.59"/>
<polygon fill="#63b8ff" stroke="#63b8ff" points="88.64,-28.16 94.14,-19.1 84.19,-22.76 88.64,-28.16"/>
</g>
<!-- Node7 -->
<g id="node7" class="node">
<title>Node7</title>
<g id="a_node7"><a xlink:href="FileView_8h.html" target="_top" xlink:title=" ">
<polygon fill="white" stroke="#666666" points="150,-184 75,-184 75,-165 150,-165 150,-184"/>
<text text-anchor="middle" x="112.5" y="-172" font-family="Helvetica,sans-Serif" font-size="10.00">../FileView.h</text>
</a>
</g>
</g>
<!-- Node4&#45;&gt;Node7 -->
<g id="edge6" class="edge">
<title>Node4&#45;&gt;Node7</title>
<path fill="none" stroke="#63b8ff" d="M84.95,-219.75C89.51,-212.42 96.17,-201.73 101.79,-192.7"/>
<polygon fill="#63b8ff" stroke="#63b8ff" points="104.84,-194.43 107.15,-184.09 98.9,-190.73 104.84,-194.43"/>
</g>
<!-- Node10 -->
<g id="node10" class="node">
<title>Node10</title>
<g id="a_node10"><a xlink:href="State_8h.html" target="_top" xlink:title=" ">
<polygon fill="white" stroke="#666666" points="247.5,-184 187.5,-184 187.5,-165 247.5,-165 247.5,-184"/>
<text text-anchor="middle" x="217.5" y="-172" font-family="Helvetica,sans-Serif" font-size="10.00">../State.h</text>
</a>
</g>
</g>
<!-- Node4&#45;&gt;Node10 -->
<g id="edge12" class="edge">
<title>Node4&#45;&gt;Node10</title>
<path fill="none" stroke="#63b8ff" d="M101.67,-219.98C124.27,-211.3 159.56,-197.75 185.25,-187.88"/>
<polygon fill="#63b8ff" stroke="#63b8ff" points="186.84,-191.02 194.92,-184.17 184.33,-184.49 186.84,-191.02"/>
</g>
<!-- Node7&#45;&gt;Node5 -->
<g id="edge7" class="edge">
<title>Node7&#45;&gt;Node5</title>
<path fill="none" stroke="#63b8ff" d="M103.02,-164.98C94.3,-157.15 81.16,-145.34 70.6,-135.86"/>
<polygon fill="#63b8ff" stroke="#63b8ff" points="72.93,-133.25 63.15,-129.17 68.25,-138.46 72.93,-133.25"/>
</g>
<!-- Node7&#45;&gt;Node6 -->
<g id="edge8" class="edge">
<title>Node7&#45;&gt;Node6</title>
<path fill="none" stroke="#63b8ff" d="M112.12,-164.74C111.03,-139.31 107.84,-65.08 106.32,-29.69"/>
<polygon fill="#63b8ff" stroke="#63b8ff" points="109.8,-29.15 105.88,-19.31 102.81,-29.45 109.8,-29.15"/>
</g>
<!-- Node8 -->
<g id="node8" class="node">
<title>Node8</title>
<g id="a_node8"><a xlink:href="Entry_8h.html" target="_top" xlink:title=" ">
<polygon fill="white" stroke="#666666" points="237.5,-74 159.5,-74 159.5,-55 237.5,-55 237.5,-74"/>
<text text-anchor="middle" x="198.5" y="-62" font-family="Helvetica,sans-Serif" font-size="10.00">entry/Entry.h</text>
</a>
</g>
</g>
<!-- Node7&#45;&gt;Node8 -->
<g id="edge9" class="edge">
<title>Node7&#45;&gt;Node8</title>
<path fill="none" stroke="#63b8ff" d="M119.26,-164.84C128.83,-152.6 146.92,-129.52 162.5,-110 169.95,-100.66 178.35,-90.28 185.15,-81.89"/>
<polygon fill="#63b8ff" stroke="#63b8ff" points="187.97,-83.97 191.57,-74 182.54,-79.56 187.97,-83.97"/>
</g>
<!-- Node8&#45;&gt;Node6 -->
<g id="edge10" class="edge">
<title>Node8&#45;&gt;Node6</title>
<path fill="none" stroke="#63b8ff" d="M183.56,-54.98C169,-46.69 146.63,-33.94 129.57,-24.22"/>
<polygon fill="#63b8ff" stroke="#63b8ff" points="131.14,-21.08 120.71,-19.17 127.67,-27.16 131.14,-21.08"/>
</g>
<!-- Node9 -->
<g id="node9" class="node">
<title>Node9</title>
<g id="a_node9"><a xlink:href="Modifier_8h.html" target="_top" xlink:title=" ">
<polygon fill="white" stroke="#666666" points="231,-19 166,-19 166,0 231,0 231,-19"/>
<text text-anchor="middle" x="198.5" y="-7" font-family="Helvetica,sans-Serif" font-size="10.00">Modifier.h</text>
</a>
</g>
</g>
<!-- Node8&#45;&gt;Node9 -->
<g id="edge11" class="edge">
<title>Node8&#45;&gt;Node9</title>
<path fill="none" stroke="#63b8ff" d="M198.5,-54.75C198.5,-47.8 198.5,-37.85 198.5,-29.13"/>
<polygon fill="#63b8ff" stroke="#63b8ff" points="202,-29.09 198.5,-19.09 195,-29.09 202,-29.09"/>
</g>
<!-- Node10&#45;&gt;Node8 -->
<g id="edge14" class="edge">
<title>Node10&#45;&gt;Node8</title>
<path fill="none" stroke="#63b8ff" d="M217.43,-164.79C217.2,-152.47 216.25,-129.32 212.5,-110 210.8,-101.25 207.98,-91.81 205.31,-83.88"/>
<polygon fill="#63b8ff" stroke="#63b8ff" points="208.53,-82.47 201.89,-74.21 201.93,-84.81 208.53,-82.47"/>
</g>
<!-- Node11 -->
<g id="node11" class="node">
<title>Node11</title>
<g id="a_node11"><a xlink:title=" ">
<polygon fill="#e0e0e0" stroke="#999999" points="203.5,-129 171.5,-129 171.5,-110 203.5,-110 203.5,-129"/>
<text text-anchor="middle" x="187.5" y="-117" font-family="Helvetica,sans-Serif" font-size="10.00">set</text>
</a>
</g>
</g>
<!-- Node10&#45;&gt;Node11 -->
<g id="edge13" class="edge">
<title>Node10&#45;&gt;Node11</title>
<path fill="none" stroke="#63b8ff" d="M212.55,-164.75C208.44,-157.49 202.47,-146.95 197.4,-137.98"/>
<polygon fill="#63b8ff" stroke="#63b8ff" points="200.33,-136.07 192.36,-129.09 194.24,-139.52 200.33,-136.07"/>
</g>
<!-- Node12 -->
<g id="node12" class="node">
<title>Node12</title>
<g id="a_node12"><a xlink:href="Utility_8h.html" target="_top" xlink:title=" ">
<polygon fill="white" stroke="#666666" points="313.5,-129 259.5,-129 259.5,-110 313.5,-110 313.5,-129"/>
<text text-anchor="middle" x="286.5" y="-117" font-family="Helvetica,sans-Serif" font-size="10.00">Utility.h</text>
</a>
</g>
</g>
<!-- Node10&#45;&gt;Node12 -->
<g id="edge15" class="edge">
<title>Node10&#45;&gt;Node12</title>
<path fill="none" stroke="#63b8ff" d="M228.59,-164.98C238.99,-157 254.76,-144.88 267.22,-135.31"/>
<polygon fill="#63b8ff" stroke="#63b8ff" points="269.41,-138.04 275.21,-129.17 265.15,-132.49 269.41,-138.04"/>
</g>
<!-- Node12&#45;&gt;Node8 -->
<g id="edge17" class="edge">
<title>Node12&#45;&gt;Node8</title>
<path fill="none" stroke="#63b8ff" d="M272.36,-109.98C258.71,-101.77 237.81,-89.18 221.72,-79.49"/>
<polygon fill="#63b8ff" stroke="#63b8ff" points="223.27,-76.33 212.9,-74.17 219.66,-82.33 223.27,-76.33"/>
</g>
<!-- Node13 -->
<g id="node13" class="node">
<title>Node13</title>
<g id="a_node13"><a xlink:title=" ">
<polygon fill="#e0e0e0" stroke="#999999" points="308.5,-74 264.5,-74 264.5,-55 308.5,-55 308.5,-74"/>
<text text-anchor="middle" x="286.5" y="-62" font-family="Helvetica,sans-Serif" font-size="10.00">string</text>
</a>
</g>
</g>
<!-- Node12&#45;&gt;Node13 -->
<g id="edge16" class="edge">
<title>Node12&#45;&gt;Node13</title>
<path fill="none" stroke="#63b8ff" d="M286.5,-109.75C286.5,-102.8 286.5,-92.85 286.5,-84.13"/>
<polygon fill="#63b8ff" stroke="#63b8ff" points="290,-84.09 286.5,-74.09 283,-84.09 290,-84.09"/>
</g>
</g>
</svg>
