<?xml version="1.0" encoding="UTF-8" standalone="no"?>
<!DOCTYPE svg PUBLIC "-//W3C//DTD SVG 1.1//EN"
 "http://www.w3.org/Graphics/SVG/1.1/DTD/svg11.dtd">
<!-- Generated by graphviz version 2.43.0 (0)
 -->
<!-- Title: src/interface/Modal.h Pages: 1 -->
<svg width="1368pt" height="93pt"
 viewBox="0.00 0.00 1367.50 93.00" xmlns="http://www.w3.org/2000/svg" xmlns:xlink="http://www.w3.org/1999/xlink">
<g id="graph0" class="graph" transform="scale(1 1) rotate(0) translate(4 89)">
<title>src/interface/Modal.h</title>
<!-- Node1 -->
<g id="node1" class="node">
<title>Node1</title>
<g id="a_node1"><a xlink:title=" ">
<polygon fill="#999999" stroke="#666666" points="765.5,-85 646.5,-85 646.5,-66 765.5,-66 765.5,-85"/>
<text text-anchor="middle" x="706" y="-73" font-family="Helvetica,sans-Serif" font-size="10.00">src/interface/Modal.h</text>
</a>
</g>
</g>
<!-- Node2 -->
<g id="node2" class="node">
<title>Node2</title>
<g id="a_node2"><a xlink:href="ConcatAction_8cpp.html" target="_top" xlink:title=" ">
<polygon fill="white" stroke="#666666" points="178,-24.5 0,-24.5 0,-5.5 178,-5.5 178,-24.5"/>
<text text-anchor="middle" x="89" y="-12.5" font-family="Helvetica,sans-Serif" font-size="10.00">src/action/once/ConcatAction.cpp</text>
</a>
</g>
</g>
<!-- Node1&#45;&gt;Node2 -->
<g id="edge1" class="edge">
<title>Node1&#45;&gt;Node2</title>
<path fill="none" stroke="#63b8ff" d="M636.09,-69.76C536.3,-62.71 347.33,-48.31 187,-30 173.25,-28.43 158.46,-26.46 144.64,-24.5"/>
<polygon fill="#63b8ff" stroke="#63b8ff" points="636.13,-73.27 646.35,-70.48 636.62,-66.29 636.13,-73.27"/>
</g>
<!-- Node3 -->
<g id="node3" class="node">
<title>Node3</title>
<g id="a_node3"><a xlink:href="CreateFileAction_8cpp.html" target="_top" xlink:title=" ">
<polygon fill="white" stroke="#666666" points="339.5,-30 196.5,-30 196.5,0 339.5,0 339.5,-30"/>
<text text-anchor="start" x="204.5" y="-18" font-family="Helvetica,sans-Serif" font-size="10.00">src/action/once/CreateFile</text>
<text text-anchor="middle" x="268" y="-7" font-family="Helvetica,sans-Serif" font-size="10.00">Action.cpp</text>
</a>
</g>
</g>
<!-- Node1&#45;&gt;Node3 -->
<g id="edge2" class="edge">
<title>Node1&#45;&gt;Node3</title>
<path fill="none" stroke="#63b8ff" d="M635.99,-66.84C563.73,-58.68 447.78,-44.92 348,-30 345.21,-29.58 342.37,-29.15 339.5,-28.69"/>
<polygon fill="#63b8ff" stroke="#63b8ff" points="636,-70.36 646.33,-68 636.79,-63.4 636,-70.36"/>
</g>
<!-- Node4 -->
<g id="node4" class="node">
<title>Node4</title>
<g id="a_node4"><a xlink:href="CreateFolderAction_8cpp.html" target="_top" xlink:title=" ">
<polygon fill="white" stroke="#666666" points="512.5,-30 357.5,-30 357.5,0 512.5,0 512.5,-30"/>
<text text-anchor="start" x="365.5" y="-18" font-family="Helvetica,sans-Serif" font-size="10.00">src/action/once/CreateFolder</text>
<text text-anchor="middle" x="435" y="-7" font-family="Helvetica,sans-Serif" font-size="10.00">Action.cpp</text>
</a>
</g>
</g>
<!-- Node1&#45;&gt;Node4 -->
<g id="edge3" class="edge">
<title>Node1&#45;&gt;Node4</title>
<path fill="none" stroke="#63b8ff" d="M656.71,-63.86C612.74,-54.37 548.06,-40.41 499.89,-30.01"/>
<polygon fill="#63b8ff" stroke="#63b8ff" points="656.08,-67.3 666.59,-65.99 657.56,-60.46 656.08,-67.3"/>
</g>
<!-- Node5 -->
<g id="node5" class="node">
<title>Node5</title>
<g id="a_node5"><a xlink:href="CreateSymlinkAction_8cpp.html" target="_top" xlink:title=" ">
<polygon fill="white" stroke="#666666" points="695.5,-30 530.5,-30 530.5,0 695.5,0 695.5,-30"/>
<text text-anchor="start" x="538.5" y="-18" font-family="Helvetica,sans-Serif" font-size="10.00">src/action/once/CreateSymlink</text>
<text text-anchor="middle" x="613" y="-7" font-family="Helvetica,sans-Serif" font-size="10.00">Action.cpp</text>
</a>
</g>
</g>
<!-- Node1&#45;&gt;Node5 -->
<g id="edge4" class="edge">
<title>Node1&#45;&gt;Node5</title>
<path fill="none" stroke="#63b8ff" d="M683.41,-60.29C668.85,-51.13 649.98,-39.26 635.44,-30.11"/>
<polygon fill="#63b8ff" stroke="#63b8ff" points="681.95,-63.51 692.28,-65.87 685.68,-57.58 681.95,-63.51"/>
</g>
<!-- Node6 -->
<g id="node6" class="node">
<title>Node6</title>
<g id="a_node6"><a xlink:href="OpenAction_8cpp.html" target="_top" xlink:title=" ">
<polygon fill="white" stroke="#666666" points="884,-24.5 714,-24.5 714,-5.5 884,-5.5 884,-24.5"/>
<text text-anchor="middle" x="799" y="-12.5" font-family="Helvetica,sans-Serif" font-size="10.00">src/action/once/OpenAction.cpp</text>
</a>
</g>
</g>
<!-- Node1&#45;&gt;Node6 -->
<g id="edge5" class="edge">
<title>Node1&#45;&gt;Node6</title>
<path fill="none" stroke="#63b8ff" d="M728.31,-60.47C746.02,-49.32 770.22,-34.1 785.22,-24.67"/>
<polygon fill="#63b8ff" stroke="#63b8ff" points="726.32,-57.58 719.72,-65.87 730.05,-63.51 726.32,-57.58"/>
</g>
<!-- Node7 -->
<g id="node7" class="node">
<title>Node7</title>
<g id="a_node7"><a xlink:href="RegexSelectAction_8cpp.html" target="_top" xlink:title=" ">
<polygon fill="white" stroke="#666666" points="1056,-30 902,-30 902,0 1056,0 1056,-30"/>
<text text-anchor="start" x="910" y="-18" font-family="Helvetica,sans-Serif" font-size="10.00">src/action/once/RegexSelect</text>
<text text-anchor="middle" x="979" y="-7" font-family="Helvetica,sans-Serif" font-size="10.00">Action.cpp</text>
</a>
</g>
</g>
<!-- Node1&#45;&gt;Node7 -->
<g id="edge6" class="edge">
<title>Node1&#45;&gt;Node7</title>
<path fill="none" stroke="#63b8ff" d="M755.65,-63.86C799.94,-54.37 865.11,-40.41 913.63,-30.01"/>
<polygon fill="#63b8ff" stroke="#63b8ff" points="754.74,-60.48 745.7,-65.99 756.21,-67.32 754.74,-60.48"/>
</g>
<!-- Node8 -->
<g id="node8" class="node">
<title>Node8</title>
<g id="a_node8"><a xlink:href="SelectByContentAction_8cpp.html" target="_top" xlink:title=" ">
<polygon fill="white" stroke="#666666" points="1210,-30 1074,-30 1074,0 1210,0 1210,-30"/>
<text text-anchor="start" x="1082" y="-18" font-family="Helvetica,sans-Serif" font-size="10.00">src/action/once/SelectBy</text>
<text text-anchor="middle" x="1142" y="-7" font-family="Helvetica,sans-Serif" font-size="10.00">ContentAction.cpp</text>
</a>
</g>
</g>
<!-- Node1&#45;&gt;Node8 -->
<g id="edge7" class="edge">
<title>Node1&#45;&gt;Node8</title>
<path fill="none" stroke="#63b8ff" d="M775.9,-67.02C848.37,-58.99 964.85,-45.3 1065,-30 1067.82,-29.57 1070.7,-29.11 1073.6,-28.64"/>
<polygon fill="#63b8ff" stroke="#63b8ff" points="775.09,-63.59 765.54,-68.16 775.86,-70.55 775.09,-63.59"/>
</g>
<!-- Node9 -->
<g id="node9" class="node">
<title>Node9</title>
<g id="a_node9"><a xlink:href="Modal_8cpp.html" target="_top" xlink:title=" ">
<polygon fill="white" stroke="#666666" points="1359.5,-24.5 1228.5,-24.5 1228.5,-5.5 1359.5,-5.5 1359.5,-24.5"/>
<text text-anchor="middle" x="1294" y="-12.5" font-family="Helvetica,sans-Serif" font-size="10.00">src/interface/Modal.cpp</text>
</a>
</g>
</g>
<!-- Node1&#45;&gt;Node9 -->
<g id="edge8" class="edge">
<title>Node1&#45;&gt;Node9</title>
<path fill="none" stroke="#63b8ff" d="M776.02,-70.61C875.01,-64.61 1061.37,-51.5 1219,-30 1229.89,-28.51 1241.61,-26.52 1252.46,-24.5"/>
<polygon fill="#63b8ff" stroke="#63b8ff" points="775.62,-67.13 765.84,-71.22 776.04,-74.11 775.62,-67.13"/>
</g>
</g>
</svg>
