<?xml version="1.0" encoding="UTF-8" standalone="no"?>
<!DOCTYPE svg PUBLIC "-//W3C//DTD SVG 1.1//EN"
 "http://www.w3.org/Graphics/SVG/1.1/DTD/svg11.dtd">
<!-- Generated by graphviz version 2.43.0 (0)
 -->
<!-- Title: src/entry/Modifier.h Pages: 1 -->
<svg width="3932pt" height="434pt"
 viewBox="0.00 0.00 3932.00 434.00" xmlns="http://www.w3.org/2000/svg" xmlns:xlink="http://www.w3.org/1999/xlink">
<g id="graph0" class="graph" transform="scale(1 1) rotate(0) translate(4 430)">
<title>src/entry/Modifier.h</title>
<!-- Node1 -->
<g id="node1" class="node">
<title>Node1</title>
<g id="a_node1"><a xlink:title=" ">
<polygon fill="#999999" stroke="#666666" points="3570.5,-426 3460.5,-426 3460.5,-407 3570.5,-407 3570.5,-426"/>
<text text-anchor="middle" x="3515.5" y="-414" font-family="Helvetica,sans-Serif" font-size="10.00">src/entry/Modifier.h</text>
</a>
</g>
</g>
<!-- Node2 -->
<g id="node2" class="node">
<title>Node2</title>
<g id="a_node2"><a xlink:href="Entry_8h.html" target="_top" xlink:title=" ">
<polygon fill="white" stroke="#666666" points="3563,-371 3468,-371 3468,-352 3563,-352 3563,-371"/>
<text text-anchor="middle" x="3515.5" y="-359" font-family="Helvetica,sans-Serif" font-size="10.00">src/entry/Entry.h</text>
</a>
</g>
</g>
<!-- Node1&#45;&gt;Node2 -->
<g id="edge1" class="edge">
<title>Node1&#45;&gt;Node2</title>
<path fill="none" stroke="#63b8ff" d="M3515.5,-396.66C3515.5,-387.93 3515.5,-377.99 3515.5,-371.09"/>
<polygon fill="#63b8ff" stroke="#63b8ff" points="3512,-396.75 3515.5,-406.75 3519,-396.75 3512,-396.75"/>
</g>
<!-- Node3 -->
<g id="node3" class="node">
<title>Node3</title>
<g id="a_node3"><a xlink:href="FileView_8h.html" target="_top" xlink:title=" ">
<polygon fill="white" stroke="#666666" points="3354,-316 3271,-316 3271,-297 3354,-297 3354,-316"/>
<text text-anchor="middle" x="3312.5" y="-304" font-family="Helvetica,sans-Serif" font-size="10.00">src/FileView.h</text>
</a>
</g>
</g>
<!-- Node2&#45;&gt;Node3 -->
<g id="edge2" class="edge">
<title>Node2&#45;&gt;Node3</title>
<path fill="none" stroke="#63b8ff" d="M3473.13,-349.44C3435.13,-339.52 3380.14,-325.16 3345.37,-316.08"/>
<polygon fill="#63b8ff" stroke="#63b8ff" points="3472.32,-352.84 3482.88,-351.98 3474.09,-346.07 3472.32,-352.84"/>
</g>
<!-- Node49 -->
<g id="node41" class="node">
<title>Node49</title>
<g id="a_node41"><a xlink:href="State_8h.html" target="_top" xlink:title=" ">
<polygon fill="white" stroke="#666666" points="3270.5,-261 3202.5,-261 3202.5,-242 3270.5,-242 3270.5,-261"/>
<text text-anchor="middle" x="3236.5" y="-249" font-family="Helvetica,sans-Serif" font-size="10.00">src/State.h</text>
</a>
</g>
</g>
<!-- Node2&#45;&gt;Node49 -->
<g id="edge58" class="edge">
<title>Node2&#45;&gt;Node49</title>
<path fill="none" stroke="#63b8ff" d="M3457.82,-356.88C3392.35,-351.68 3290.84,-339.95 3261.5,-316 3244.43,-302.06 3238.97,-274.86 3237.26,-261.02"/>
<polygon fill="#63b8ff" stroke="#63b8ff" points="3457.76,-360.39 3468,-357.66 3458.29,-353.41 3457.76,-360.39"/>
</g>
<!-- Node50 -->
<g id="node42" class="node">
<title>Node50</title>
<g id="a_node42"><a xlink:href="Utility_8h.html" target="_top" xlink:title=" ">
<polygon fill="white" stroke="#666666" points="3444,-316 3373,-316 3373,-297 3444,-297 3444,-316"/>
<text text-anchor="middle" x="3408.5" y="-304" font-family="Helvetica,sans-Serif" font-size="10.00">src/Utility.h</text>
</a>
</g>
</g>
<!-- Node2&#45;&gt;Node50 -->
<g id="edge62" class="edge">
<title>Node2&#45;&gt;Node50</title>
<path fill="none" stroke="#63b8ff" d="M3489.26,-347.5C3469.57,-337.75 3443.18,-324.68 3426,-316.17"/>
<polygon fill="#63b8ff" stroke="#63b8ff" points="3487.79,-350.68 3498.31,-351.98 3490.9,-344.41 3487.79,-350.68"/>
</g>
<!-- Node55 -->
<g id="node47" class="node">
<title>Node55</title>
<g id="a_node47"><a xlink:href="Entry_8cpp.html" target="_top" xlink:title=" ">
<polygon fill="white" stroke="#666666" points="3569,-316 3462,-316 3462,-297 3569,-297 3569,-316"/>
<text text-anchor="middle" x="3515.5" y="-304" font-family="Helvetica,sans-Serif" font-size="10.00">src/entry/Entry.cpp</text>
</a>
</g>
</g>
<!-- Node2&#45;&gt;Node55 -->
<g id="edge69" class="edge">
<title>Node2&#45;&gt;Node55</title>
<path fill="none" stroke="#63b8ff" d="M3515.5,-341.66C3515.5,-332.93 3515.5,-322.99 3515.5,-316.09"/>
<polygon fill="#63b8ff" stroke="#63b8ff" points="3512,-341.75 3515.5,-351.75 3519,-341.75 3512,-341.75"/>
</g>
<!-- Node56 -->
<g id="node48" class="node">
<title>Node56</title>
<g id="a_node48"><a xlink:href="File_8h.html" target="_top" xlink:title=" ">
<polygon fill="white" stroke="#666666" points="3676,-316 3587,-316 3587,-297 3676,-297 3676,-316"/>
<text text-anchor="middle" x="3631.5" y="-304" font-family="Helvetica,sans-Serif" font-size="10.00">src/entry/File.h</text>
</a>
</g>
</g>
<!-- Node2&#45;&gt;Node56 -->
<g id="edge70" class="edge">
<title>Node2&#45;&gt;Node56</title>
<path fill="none" stroke="#63b8ff" d="M3543.37,-347.77C3564.77,-337.99 3593.74,-324.75 3612.52,-316.17"/>
<polygon fill="#63b8ff" stroke="#63b8ff" points="3541.78,-344.65 3534.14,-351.98 3544.69,-351.01 3541.78,-344.65"/>
</g>
<!-- Node57 -->
<g id="node49" class="node">
<title>Node57</title>
<g id="a_node49"><a xlink:href="Folder_8h.html" target="_top" xlink:title=" ">
<polygon fill="white" stroke="#666666" points="3795,-316 3694,-316 3694,-297 3795,-297 3795,-316"/>
<text text-anchor="middle" x="3744.5" y="-304" font-family="Helvetica,sans-Serif" font-size="10.00">src/entry/Folder.h</text>
</a>
</g>
</g>
<!-- Node2&#45;&gt;Node57 -->
<g id="edge73" class="edge">
<title>Node2&#45;&gt;Node57</title>
<path fill="none" stroke="#63b8ff" d="M3562.21,-349.69C3605.11,-339.76 3667.86,-325.24 3707.42,-316.08"/>
<polygon fill="#63b8ff" stroke="#63b8ff" points="3561.25,-346.32 3552.29,-351.98 3562.82,-353.14 3561.25,-346.32"/>
</g>
<!-- Node58 -->
<g id="node50" class="node">
<title>Node58</title>
<g id="a_node50"><a xlink:href="Symlink_8h.html" target="_top" xlink:title=" ">
<polygon fill="white" stroke="#666666" points="3924,-316 3813,-316 3813,-297 3924,-297 3924,-316"/>
<text text-anchor="middle" x="3868.5" y="-304" font-family="Helvetica,sans-Serif" font-size="10.00">src/entry/Symlink.h</text>
</a>
</g>
</g>
<!-- Node2&#45;&gt;Node58 -->
<g id="edge76" class="edge">
<title>Node2&#45;&gt;Node58</title>
<path fill="none" stroke="#63b8ff" d="M3573.38,-351.81C3639.7,-341.85 3747.62,-325.65 3812.95,-315.84"/>
<polygon fill="#63b8ff" stroke="#63b8ff" points="3572.48,-348.41 3563.11,-353.35 3573.52,-355.33 3572.48,-348.41"/>
</g>
<!-- Node4 -->
<g id="node4" class="node">
<title>Node4</title>
<g id="a_node4"><a xlink:href="FileView_8cpp.html" target="_top" xlink:title=" ">
<polygon fill="white" stroke="#666666" points="3422,-261 3327,-261 3327,-242 3422,-242 3422,-261"/>
<text text-anchor="middle" x="3374.5" y="-249" font-family="Helvetica,sans-Serif" font-size="10.00">src/FileView.cpp</text>
</a>
</g>
</g>
<!-- Node3&#45;&gt;Node4 -->
<g id="edge3" class="edge">
<title>Node3&#45;&gt;Node4</title>
<path fill="none" stroke="#63b8ff" d="M3330.25,-290.32C3341.31,-280.87 3355.13,-269.06 3364.36,-261.17"/>
<polygon fill="#63b8ff" stroke="#63b8ff" points="3327.79,-287.83 3322.46,-296.98 3332.34,-293.15 3327.79,-287.83"/>
</g>
<!-- Node5 -->
<g id="node5" class="node">
<title>Node5</title>
<g id="a_node5"><a xlink:href="Action_8h.html" target="_top" xlink:title=" ">
<polygon fill="white" stroke="#666666" points="3194,-206 3087,-206 3087,-187 3194,-187 3194,-206"/>
<text text-anchor="middle" x="3140.5" y="-194" font-family="Helvetica,sans-Serif" font-size="10.00">src/action/Action.h</text>
</a>
</g>
</g>
<!-- Node3&#45;&gt;Node5 -->
<g id="edge4" class="edge">
<title>Node3&#45;&gt;Node5</title>
<path fill="none" stroke="#63b8ff" d="M3265.89,-294.18C3242.74,-287.1 3215.15,-276.34 3193.5,-261 3171.94,-245.72 3153.99,-219.6 3145.6,-206.12"/>
<polygon fill="#63b8ff" stroke="#63b8ff" points="3264.94,-297.55 3275.52,-297 3266.9,-290.83 3264.94,-297.55"/>
</g>
<!-- Node45 -->
<g id="node37" class="node">
<title>Node45</title>
<g id="a_node37"><a xlink:href="Interface_8h.html" target="_top" xlink:title=" ">
<polygon fill="white" stroke="#666666" points="3232,-151 3099,-151 3099,-132 3232,-132 3232,-151"/>
<text text-anchor="middle" x="3165.5" y="-139" font-family="Helvetica,sans-Serif" font-size="10.00">src/interface/Interface.h</text>
</a>
</g>
</g>
<!-- Node3&#45;&gt;Node45 -->
<g id="edge57" class="edge">
<title>Node3&#45;&gt;Node45</title>
<path fill="none" stroke="#63b8ff" d="M3304.98,-287.36C3299.06,-274.14 3290.06,-256.14 3279.5,-242 3249.8,-202.21 3201.82,-166.94 3178.74,-151.2"/>
<polygon fill="#63b8ff" stroke="#63b8ff" points="3301.86,-288.98 3309.04,-296.77 3308.29,-286.2 3301.86,-288.98"/>
</g>
<!-- Node6 -->
<g id="node6" class="node">
<title>Node6</title>
<g id="a_node6"><a xlink:href="ForEachAction_8h.html" target="_top" xlink:title=" ">
<polygon fill="white" stroke="#666666" points="2922,-151 2777,-151 2777,-132 2922,-132 2922,-151"/>
<text text-anchor="middle" x="2849.5" y="-139" font-family="Helvetica,sans-Serif" font-size="10.00">src/action/ForEachAction.h</text>
</a>
</g>
</g>
<!-- Node5&#45;&gt;Node6 -->
<g id="edge5" class="edge">
<title>Node5&#45;&gt;Node6</title>
<path fill="none" stroke="#63b8ff" d="M3083.89,-185.19C3029.33,-175.25 2947.74,-160.39 2896.62,-151.08"/>
<polygon fill="#63b8ff" stroke="#63b8ff" points="3083.28,-188.64 3093.75,-186.98 3084.53,-181.75 3083.28,-188.64"/>
</g>
<!-- Node15 -->
<g id="node15" class="node">
<title>Node15</title>
<g id="a_node15"><a xlink:href="OnceAction_8h.html" target="_top" xlink:title=" ">
<polygon fill="white" stroke="#666666" points="1399,-151 1268,-151 1268,-132 1399,-132 1399,-151"/>
<text text-anchor="middle" x="1333.5" y="-139" font-family="Helvetica,sans-Serif" font-size="10.00">src/action/OnceAction.h</text>
</a>
</g>
</g>
<!-- Node5&#45;&gt;Node15 -->
<g id="edge16" class="edge">
<title>Node5&#45;&gt;Node15</title>
<path fill="none" stroke="#63b8ff" d="M3076.54,-193.62C2796.88,-185.42 1682.94,-152.75 1399.42,-144.43"/>
<polygon fill="#63b8ff" stroke="#63b8ff" points="3076.81,-197.13 3086.91,-193.93 3077.02,-190.14 3076.81,-197.13"/>
</g>
<!-- Node5&#45;&gt;Node45 -->
<g id="edge52" class="edge">
<title>Node5&#45;&gt;Node45</title>
<path fill="none" stroke="#63b8ff" d="M3148.98,-177.53C3153.19,-168.6 3158.09,-158.22 3161.45,-151.09"/>
<polygon fill="#63b8ff" stroke="#63b8ff" points="3145.73,-176.21 3144.63,-186.75 3152.06,-179.2 3145.73,-176.21"/>
</g>
<!-- Node7 -->
<g id="node7" class="node">
<title>Node7</title>
<g id="a_node7"><a xlink:href="ForEachAction_8cpp.html" target="_top" xlink:title=" ">
<polygon fill="white" stroke="#666666" points="3075.5,-90.5 2919.5,-90.5 2919.5,-71.5 3075.5,-71.5 3075.5,-90.5"/>
<text text-anchor="middle" x="2997.5" y="-78.5" font-family="Helvetica,sans-Serif" font-size="10.00">src/action/ForEachAction.cpp</text>
</a>
</g>
</g>
<!-- Node6&#45;&gt;Node7 -->
<g id="edge6" class="edge">
<title>Node6&#45;&gt;Node7</title>
<path fill="none" stroke="#63b8ff" d="M2880.54,-128.23C2909.14,-116.92 2950.84,-100.44 2975.95,-90.52"/>
<polygon fill="#63b8ff" stroke="#63b8ff" points="2879.03,-125.06 2871.02,-131.99 2881.61,-131.57 2879.03,-125.06"/>
</g>
<!-- Node8 -->
<g id="node8" class="node">
<title>Node8</title>
<g id="a_node8"><a xlink:href="CopyAction_8h.html" target="_top" xlink:title=" ">
<polygon fill="white" stroke="#666666" points="2657.5,-96 2553.5,-96 2553.5,-66 2657.5,-66 2657.5,-96"/>
<text text-anchor="start" x="2561.5" y="-84" font-family="Helvetica,sans-Serif" font-size="10.00">src/action/foreach</text>
<text text-anchor="middle" x="2605.5" y="-73" font-family="Helvetica,sans-Serif" font-size="10.00">/CopyAction.h</text>
</a>
</g>
</g>
<!-- Node6&#45;&gt;Node8 -->
<g id="edge7" class="edge">
<title>Node6&#45;&gt;Node8</title>
<path fill="none" stroke="#63b8ff" d="M2804.18,-129.63C2762.66,-119.68 2701.22,-104.95 2657.67,-94.51"/>
<polygon fill="#63b8ff" stroke="#63b8ff" points="2803.48,-133.07 2814.02,-131.99 2805.11,-126.26 2803.48,-133.07"/>
</g>
<!-- Node11 -->
<g id="node11" class="node">
<title>Node11</title>
<g id="a_node11"><a xlink:href="DeleteAction_8h.html" target="_top" xlink:title=" ">
<polygon fill="white" stroke="#666666" points="2779.5,-96 2675.5,-96 2675.5,-66 2779.5,-66 2779.5,-96"/>
<text text-anchor="start" x="2683.5" y="-84" font-family="Helvetica,sans-Serif" font-size="10.00">src/action/foreach</text>
<text text-anchor="middle" x="2727.5" y="-73" font-family="Helvetica,sans-Serif" font-size="10.00">/DeleteAction.h</text>
</a>
</g>
</g>
<!-- Node6&#45;&gt;Node11 -->
<g id="edge10" class="edge">
<title>Node6&#45;&gt;Node11</title>
<path fill="none" stroke="#63b8ff" d="M2822.57,-127.59C2803.19,-118.29 2777.03,-105.75 2757.07,-96.18"/>
<polygon fill="#63b8ff" stroke="#63b8ff" points="2821.23,-130.83 2831.76,-131.99 2824.26,-124.51 2821.23,-130.83"/>
</g>
<!-- Node13 -->
<g id="node13" class="node">
<title>Node13</title>
<g id="a_node13"><a xlink:href="MoveAction_8h.html" target="_top" xlink:title=" ">
<polygon fill="white" stroke="#666666" points="2901.5,-96 2797.5,-96 2797.5,-66 2901.5,-66 2901.5,-96"/>
<text text-anchor="start" x="2805.5" y="-84" font-family="Helvetica,sans-Serif" font-size="10.00">src/action/foreach</text>
<text text-anchor="middle" x="2849.5" y="-73" font-family="Helvetica,sans-Serif" font-size="10.00">/MoveAction.h</text>
</a>
</g>
</g>
<!-- Node6&#45;&gt;Node13 -->
<g id="edge13" class="edge">
<title>Node6&#45;&gt;Node13</title>
<path fill="none" stroke="#63b8ff" d="M2849.5,-121.65C2849.5,-113.36 2849.5,-103.78 2849.5,-96.11"/>
<polygon fill="#63b8ff" stroke="#63b8ff" points="2846,-121.87 2849.5,-131.87 2853,-121.87 2846,-121.87"/>
</g>
<!-- Node9 -->
<g id="node9" class="node">
<title>Node9</title>
<g id="a_node9"><a xlink:href="CopyAction_8cpp.html" target="_top" xlink:title=" ">
<polygon fill="white" stroke="#666666" points="2657.5,-30 2553.5,-30 2553.5,0 2657.5,0 2657.5,-30"/>
<text text-anchor="start" x="2561.5" y="-18" font-family="Helvetica,sans-Serif" font-size="10.00">src/action/foreach</text>
<text text-anchor="middle" x="2605.5" y="-7" font-family="Helvetica,sans-Serif" font-size="10.00">/CopyAction.cpp</text>
</a>
</g>
</g>
<!-- Node8&#45;&gt;Node9 -->
<g id="edge8" class="edge">
<title>Node8&#45;&gt;Node9</title>
<path fill="none" stroke="#63b8ff" d="M2605.5,-55.54C2605.5,-46.96 2605.5,-37.61 2605.5,-30.16"/>
<polygon fill="#63b8ff" stroke="#63b8ff" points="2602,-55.8 2605.5,-65.8 2609,-55.8 2602,-55.8"/>
</g>
<!-- Node10 -->
<g id="node10" class="node">
<title>Node10</title>
<g id="a_node10"><a xlink:href="main_8cpp.html" target="_top" xlink:title=" ">
<polygon fill="white" stroke="#666666" points="1553,-24.5 1474,-24.5 1474,-5.5 1553,-5.5 1553,-24.5"/>
<text text-anchor="middle" x="1513.5" y="-12.5" font-family="Helvetica,sans-Serif" font-size="10.00">src/main.cpp</text>
</a>
</g>
</g>
<!-- Node8&#45;&gt;Node10 -->
<g id="edge9" class="edge">
<title>Node8&#45;&gt;Node10</title>
<path fill="none" stroke="#63b8ff" d="M2543.2,-66.2C2327.15,-38.65 1714.76,-21.23 1553.04,-17"/>
<polygon fill="#63b8ff" stroke="#63b8ff" points="2542.81,-69.68 2553.19,-67.52 2543.73,-62.74 2542.81,-69.68"/>
</g>
<!-- Node11&#45;&gt;Node10 -->
<g id="edge12" class="edge">
<title>Node11&#45;&gt;Node10</title>
<path fill="none" stroke="#63b8ff" d="M2665.3,-66.15C2515.21,-49.52 1738.76,-23.38 1553.3,-17.29"/>
<polygon fill="#63b8ff" stroke="#63b8ff" points="2665.02,-69.64 2675.37,-67.38 2665.87,-62.69 2665.02,-69.64"/>
</g>
<!-- Node12 -->
<g id="node12" class="node">
<title>Node12</title>
<g id="a_node12"><a xlink:href="DeleteAction_8cpp.html" target="_top" xlink:title=" ">
<polygon fill="white" stroke="#666666" points="2779.5,-30 2675.5,-30 2675.5,0 2779.5,0 2779.5,-30"/>
<text text-anchor="start" x="2683.5" y="-18" font-family="Helvetica,sans-Serif" font-size="10.00">src/action/foreach</text>
<text text-anchor="middle" x="2727.5" y="-7" font-family="Helvetica,sans-Serif" font-size="10.00">/DeleteAction.cpp</text>
</a>
</g>
</g>
<!-- Node11&#45;&gt;Node12 -->
<g id="edge11" class="edge">
<title>Node11&#45;&gt;Node12</title>
<path fill="none" stroke="#63b8ff" d="M2727.5,-55.54C2727.5,-46.96 2727.5,-37.61 2727.5,-30.16"/>
<polygon fill="#63b8ff" stroke="#63b8ff" points="2724,-55.8 2727.5,-65.8 2731,-55.8 2724,-55.8"/>
</g>
<!-- Node13&#45;&gt;Node10 -->
<g id="edge15" class="edge">
<title>Node13&#45;&gt;Node10</title>
<path fill="none" stroke="#63b8ff" d="M2787.21,-66.14C2623.21,-48.2 1750.25,-22.71 1553.08,-17.11"/>
<polygon fill="#63b8ff" stroke="#63b8ff" points="2787.03,-69.64 2797.37,-67.36 2787.86,-62.69 2787.03,-69.64"/>
</g>
<!-- Node14 -->
<g id="node14" class="node">
<title>Node14</title>
<g id="a_node14"><a xlink:href="MoveAction_8cpp.html" target="_top" xlink:title=" ">
<polygon fill="white" stroke="#666666" points="2901.5,-30 2797.5,-30 2797.5,0 2901.5,0 2901.5,-30"/>
<text text-anchor="start" x="2805.5" y="-18" font-family="Helvetica,sans-Serif" font-size="10.00">src/action/foreach</text>
<text text-anchor="middle" x="2849.5" y="-7" font-family="Helvetica,sans-Serif" font-size="10.00">/MoveAction.cpp</text>
</a>
</g>
</g>
<!-- Node13&#45;&gt;Node14 -->
<g id="edge14" class="edge">
<title>Node13&#45;&gt;Node14</title>
<path fill="none" stroke="#63b8ff" d="M2849.5,-55.54C2849.5,-46.96 2849.5,-37.61 2849.5,-30.16"/>
<polygon fill="#63b8ff" stroke="#63b8ff" points="2846,-55.8 2849.5,-65.8 2853,-55.8 2846,-55.8"/>
</g>
<!-- Node16 -->
<g id="node16" class="node">
<title>Node16</title>
<g id="a_node16"><a xlink:href="OnceAction_8cpp.html" target="_top" xlink:title=" ">
<polygon fill="white" stroke="#666666" points="2350,-90.5 2207,-90.5 2207,-71.5 2350,-71.5 2350,-90.5"/>
<text text-anchor="middle" x="2278.5" y="-78.5" font-family="Helvetica,sans-Serif" font-size="10.00">src/action/OnceAction.cpp</text>
</a>
</g>
</g>
<!-- Node15&#45;&gt;Node16 -->
<g id="edge17" class="edge">
<title>Node15&#45;&gt;Node16</title>
<path fill="none" stroke="#63b8ff" d="M1409.08,-139.64C1559.6,-137.27 1907.31,-128.43 2197.5,-96 2209.7,-94.64 2222.84,-92.61 2234.92,-90.52"/>
<polygon fill="#63b8ff" stroke="#63b8ff" points="1408.96,-136.15 1399.02,-139.8 1409.07,-143.14 1408.96,-136.15"/>
</g>
<!-- Node17 -->
<g id="node17" class="node">
<title>Node17</title>
<g id="a_node17"><a xlink:href="ConcatAction_8h.html" target="_top" xlink:title=" ">
<polygon fill="white" stroke="#666666" points="2535,-90.5 2368,-90.5 2368,-71.5 2535,-71.5 2535,-90.5"/>
<text text-anchor="middle" x="2451.5" y="-78.5" font-family="Helvetica,sans-Serif" font-size="10.00">src/action/once/ConcatAction.h</text>
</a>
</g>
</g>
<!-- Node15&#45;&gt;Node17 -->
<g id="edge18" class="edge">
<title>Node15&#45;&gt;Node17</title>
<path fill="none" stroke="#63b8ff" d="M1409.12,-139.96C1579.16,-138.14 2004.5,-130.23 2358.5,-96 2372.48,-94.65 2387.56,-92.63 2401.42,-90.53"/>
<polygon fill="#63b8ff" stroke="#63b8ff" points="1408.99,-136.46 1399.02,-140.06 1409.06,-143.46 1408.99,-136.46"/>
</g>
<!-- Node19 -->
<g id="node19" class="node">
<title>Node19</title>
<g id="a_node19"><a xlink:href="CreateFileAction_8h.html" target="_top" xlink:title=" ">
<polygon fill="white" stroke="#666666" points="143,-96 0,-96 0,-66 143,-66 143,-96"/>
<text text-anchor="start" x="8" y="-84" font-family="Helvetica,sans-Serif" font-size="10.00">src/action/once/CreateFile</text>
<text text-anchor="middle" x="71.5" y="-73" font-family="Helvetica,sans-Serif" font-size="10.00">Action.h</text>
</a>
</g>
</g>
<!-- Node15&#45;&gt;Node19 -->
<g id="edge21" class="edge">
<title>Node15&#45;&gt;Node19</title>
<path fill="none" stroke="#63b8ff" d="M1257.88,-141.2C1070.1,-142.16 567.59,-140.03 151.5,-96 148.84,-95.72 146.13,-95.4 143.39,-95.06"/>
<polygon fill="#63b8ff" stroke="#63b8ff" points="1257.95,-144.7 1267.93,-141.14 1257.91,-137.7 1257.95,-144.7"/>
</g>
<!-- Node21 -->
<g id="node21" class="node">
<title>Node21</title>
<g id="a_node21"><a xlink:href="CreateFolderAction_8h.html" target="_top" xlink:title=" ">
<polygon fill="white" stroke="#666666" points="316,-96 161,-96 161,-66 316,-66 316,-96"/>
<text text-anchor="start" x="169" y="-84" font-family="Helvetica,sans-Serif" font-size="10.00">src/action/once/CreateFolder</text>
<text text-anchor="middle" x="238.5" y="-73" font-family="Helvetica,sans-Serif" font-size="10.00">Action.h</text>
</a>
</g>
</g>
<!-- Node15&#45;&gt;Node21 -->
<g id="edge24" class="edge">
<title>Node15&#45;&gt;Node21</title>
<path fill="none" stroke="#63b8ff" d="M1257.54,-140.19C1089.11,-138.83 671.74,-131.8 324.5,-96 321.79,-95.72 319.04,-95.41 316.26,-95.08"/>
<polygon fill="#63b8ff" stroke="#63b8ff" points="1257.76,-143.69 1267.79,-140.27 1257.82,-136.69 1257.76,-143.69"/>
</g>
<!-- Node23 -->
<g id="node23" class="node">
<title>Node23</title>
<g id="a_node23"><a xlink:href="CreateSymlinkAction_8h.html" target="_top" xlink:title=" ">
<polygon fill="white" stroke="#666666" points="499,-96 334,-96 334,-66 499,-66 499,-96"/>
<text text-anchor="start" x="342" y="-84" font-family="Helvetica,sans-Serif" font-size="10.00">src/action/once/CreateSymlink</text>
<text text-anchor="middle" x="416.5" y="-73" font-family="Helvetica,sans-Serif" font-size="10.00">Action.h</text>
</a>
</g>
</g>
<!-- Node15&#45;&gt;Node23 -->
<g id="edge27" class="edge">
<title>Node15&#45;&gt;Node23</title>
<path fill="none" stroke="#63b8ff" d="M1257.67,-138.87C1112.09,-135.2 783.52,-124.28 508.5,-96 505.45,-95.69 502.34,-95.34 499.2,-94.97"/>
<polygon fill="#63b8ff" stroke="#63b8ff" points="1257.74,-142.37 1267.83,-139.12 1257.92,-135.38 1257.74,-142.37"/>
</g>
<!-- Node25 -->
<g id="node25" class="node">
<title>Node25</title>
<g id="a_node25"><a xlink:href="CursorDownAction_8h.html" target="_top" xlink:title=" ">
<polygon fill="white" stroke="#666666" points="669.5,-96 517.5,-96 517.5,-66 669.5,-66 669.5,-96"/>
<text text-anchor="start" x="525.5" y="-84" font-family="Helvetica,sans-Serif" font-size="10.00">src/action/once/CursorDown</text>
<text text-anchor="middle" x="593.5" y="-73" font-family="Helvetica,sans-Serif" font-size="10.00">Action.h</text>
</a>
</g>
</g>
<!-- Node15&#45;&gt;Node25 -->
<g id="edge30" class="edge">
<title>Node15&#45;&gt;Node25</title>
<path fill="none" stroke="#63b8ff" d="M1257.76,-137.7C1135.56,-132.66 887.46,-120.25 678.5,-96 675.68,-95.67 672.81,-95.32 669.91,-94.94"/>
<polygon fill="#63b8ff" stroke="#63b8ff" points="1257.63,-141.2 1267.77,-138.11 1257.92,-134.21 1257.63,-141.2"/>
</g>
<!-- Node27 -->
<g id="node27" class="node">
<title>Node27</title>
<g id="a_node27"><a xlink:href="CursorUpAction_8h.html" target="_top" xlink:title=" ">
<polygon fill="white" stroke="#666666" points="2188.5,-96 2050.5,-96 2050.5,-66 2188.5,-66 2188.5,-96"/>
<text text-anchor="start" x="2058.5" y="-84" font-family="Helvetica,sans-Serif" font-size="10.00">src/action/once/CursorUp</text>
<text text-anchor="middle" x="2119.5" y="-73" font-family="Helvetica,sans-Serif" font-size="10.00">Action.h</text>
</a>
</g>
</g>
<!-- Node15&#45;&gt;Node27 -->
<g id="edge33" class="edge">
<title>Node15&#45;&gt;Node27</title>
<path fill="none" stroke="#63b8ff" d="M1409.25,-138.53C1538.92,-134.53 1811.63,-123.39 2040.5,-96 2043.68,-95.62 2046.93,-95.19 2050.2,-94.74"/>
<polygon fill="#63b8ff" stroke="#63b8ff" points="1408.92,-135.04 1399.03,-138.84 1409.13,-142.03 1408.92,-135.04"/>
</g>
<!-- Node29 -->
<g id="node29" class="node">
<title>Node29</title>
<g id="a_node29"><a xlink:href="DeduplicateAction_8h.html" target="_top" xlink:title=" ">
<polygon fill="#fff0f0" stroke="red" points="1319.5,-96 1167.5,-96 1167.5,-66 1319.5,-66 1319.5,-96"/>
<text text-anchor="start" x="1175.5" y="-84" font-family="Helvetica,sans-Serif" font-size="10.00">src/action/once/Deduplicate</text>
<text text-anchor="middle" x="1243.5" y="-73" font-family="Helvetica,sans-Serif" font-size="10.00">Action.h</text>
</a>
</g>
</g>
<!-- Node15&#45;&gt;Node29 -->
<g id="edge36" class="edge">
<title>Node15&#45;&gt;Node29</title>
<path fill="none" stroke="#63b8ff" d="M1311.64,-126.29C1297.55,-117.13 1279.28,-105.26 1265.21,-96.11"/>
<polygon fill="#63b8ff" stroke="#63b8ff" points="1309.93,-129.35 1320.22,-131.87 1313.74,-123.48 1309.93,-129.35"/>
</g>
<!-- Node31 -->
<g id="node30" class="node">
<title>Node31</title>
<g id="a_node30"><a xlink:href="GoBackAction_8h.html" target="_top" xlink:title=" ">
<polygon fill="#fff0f0" stroke="red" points="1507.5,-90.5 1337.5,-90.5 1337.5,-71.5 1507.5,-71.5 1507.5,-90.5"/>
<text text-anchor="middle" x="1422.5" y="-78.5" font-family="Helvetica,sans-Serif" font-size="10.00">src/action/once/GoBackAction.h</text>
</a>
</g>
</g>
<!-- Node15&#45;&gt;Node31 -->
<g id="edge38" class="edge">
<title>Node15&#45;&gt;Node31</title>
<path fill="none" stroke="#63b8ff" d="M1355.32,-126.16C1372.23,-115.05 1395.09,-100.01 1409.31,-90.67"/>
<polygon fill="#63b8ff" stroke="#63b8ff" points="1353.07,-123.45 1346.63,-131.87 1356.91,-129.3 1353.07,-123.45"/>
</g>
<!-- Node33 -->
<g id="node31" class="node">
<title>Node33</title>
<g id="a_node31"><a xlink:href="ManualSelectAction_8h.html" target="_top" xlink:title=" ">
<polygon fill="#fff0f0" stroke="red" points="1685,-96 1526,-96 1526,-66 1685,-66 1685,-96"/>
<text text-anchor="start" x="1534" y="-84" font-family="Helvetica,sans-Serif" font-size="10.00">src/action/once/ManualSelect</text>
<text text-anchor="middle" x="1605.5" y="-73" font-family="Helvetica,sans-Serif" font-size="10.00">Action.h</text>
</a>
</g>
</g>
<!-- Node15&#45;&gt;Node33 -->
<g id="edge40" class="edge">
<title>Node15&#45;&gt;Node33</title>
<path fill="none" stroke="#63b8ff" d="M1382.97,-129.86C1427.1,-120.37 1492.03,-106.41 1540.37,-96.01"/>
<polygon fill="#63b8ff" stroke="#63b8ff" points="1382.09,-126.47 1373.05,-131.99 1383.56,-133.31 1382.09,-126.47"/>
</g>
<!-- Node35 -->
<g id="node32" class="node">
<title>Node35</title>
<g id="a_node32"><a xlink:href="OpenAction_8h.html" target="_top" xlink:title=" ">
<polygon fill="#fff0f0" stroke="red" points="1860.5,-90.5 1702.5,-90.5 1702.5,-71.5 1860.5,-71.5 1860.5,-90.5"/>
<text text-anchor="middle" x="1781.5" y="-78.5" font-family="Helvetica,sans-Serif" font-size="10.00">src/action/once/OpenAction.h</text>
</a>
</g>
</g>
<!-- Node15&#45;&gt;Node35 -->
<g id="edge42" class="edge">
<title>Node15&#45;&gt;Node35</title>
<path fill="none" stroke="#63b8ff" d="M1409.3,-131.91C1482.22,-123.46 1595.53,-109.84 1693.5,-96 1705.29,-94.33 1717.96,-92.4 1729.89,-90.52"/>
<polygon fill="#63b8ff" stroke="#63b8ff" points="1408.81,-128.44 1399.28,-133.06 1409.62,-135.39 1408.81,-128.44"/>
</g>
<!-- Node37 -->
<g id="node33" class="node">
<title>Node37</title>
<g id="a_node33"><a xlink:href="QuitAction_8h.html" target="_top" xlink:title=" ">
<polygon fill="#fff0f0" stroke="red" points="2032,-90.5 1879,-90.5 1879,-71.5 2032,-71.5 2032,-90.5"/>
<text text-anchor="middle" x="1955.5" y="-78.5" font-family="Helvetica,sans-Serif" font-size="10.00">src/action/once/QuitAction.h</text>
</a>
</g>
</g>
<!-- Node15&#45;&gt;Node37 -->
<g id="edge44" class="edge">
<title>Node15&#45;&gt;Node37</title>
<path fill="none" stroke="#63b8ff" d="M1409.36,-136.08C1513.38,-129.6 1706.03,-116.06 1869.5,-96 1881.81,-94.49 1895.06,-92.51 1907.38,-90.52"/>
<polygon fill="#63b8ff" stroke="#63b8ff" points="1409.03,-132.6 1399.27,-136.71 1409.46,-139.59 1409.03,-132.6"/>
</g>
<!-- Node39 -->
<g id="node34" class="node">
<title>Node39</title>
<g id="a_node34"><a xlink:href="RegexSelectAction_8h.html" target="_top" xlink:title=" ">
<polygon fill="#fff0f0" stroke="red" points="841.5,-96 687.5,-96 687.5,-66 841.5,-66 841.5,-96"/>
<text text-anchor="start" x="695.5" y="-84" font-family="Helvetica,sans-Serif" font-size="10.00">src/action/once/RegexSelect</text>
<text text-anchor="middle" x="764.5" y="-73" font-family="Helvetica,sans-Serif" font-size="10.00">Action.h</text>
</a>
</g>
</g>
<!-- Node15&#45;&gt;Node39 -->
<g id="edge46" class="edge">
<title>Node15&#45;&gt;Node39</title>
<path fill="none" stroke="#63b8ff" d="M1257.6,-135.15C1162.32,-128.05 993.97,-114.26 850.5,-96 847.65,-95.64 844.75,-95.25 841.82,-94.85"/>
<polygon fill="#63b8ff" stroke="#63b8ff" points="1257.49,-138.65 1267.72,-135.9 1258,-131.67 1257.49,-138.65"/>
</g>
<!-- Node41 -->
<g id="node35" class="node">
<title>Node41</title>
<g id="a_node35"><a xlink:href="SelectByContentAction_8h.html" target="_top" xlink:title=" ">
<polygon fill="#fff0f0" stroke="red" points="995.5,-96 859.5,-96 859.5,-66 995.5,-66 995.5,-96"/>
<text text-anchor="start" x="867.5" y="-84" font-family="Helvetica,sans-Serif" font-size="10.00">src/action/once/SelectBy</text>
<text text-anchor="middle" x="927.5" y="-73" font-family="Helvetica,sans-Serif" font-size="10.00">ContentAction.h</text>
</a>
</g>
</g>
<!-- Node15&#45;&gt;Node41 -->
<g id="edge48" class="edge">
<title>Node15&#45;&gt;Node41</title>
<path fill="none" stroke="#63b8ff" d="M1257.81,-131.25C1191.04,-122.86 1091.14,-109.73 1004.5,-96 1001.68,-95.55 998.81,-95.09 995.91,-94.6"/>
<polygon fill="#63b8ff" stroke="#63b8ff" points="1257.47,-134.74 1267.83,-132.51 1258.34,-127.79 1257.47,-134.74"/>
</g>
<!-- Node43 -->
<g id="node36" class="node">
<title>Node43</title>
<g id="a_node36"><a xlink:href="UnselectAllAction_8h.html" target="_top" xlink:title=" ">
<polygon fill="#fff0f0" stroke="red" points="1149.5,-96 1013.5,-96 1013.5,-66 1149.5,-66 1149.5,-96"/>
<text text-anchor="start" x="1021.5" y="-84" font-family="Helvetica,sans-Serif" font-size="10.00">src/action/once/Unselect</text>
<text text-anchor="middle" x="1081.5" y="-73" font-family="Helvetica,sans-Serif" font-size="10.00">AllAction.h</text>
</a>
</g>
</g>
<!-- Node15&#45;&gt;Node43 -->
<g id="edge50" class="edge">
<title>Node15&#45;&gt;Node43</title>
<path fill="none" stroke="#63b8ff" d="M1286.91,-129.68C1246.11,-120.21 1186.57,-106.39 1142.08,-96.06"/>
<polygon fill="#63b8ff" stroke="#63b8ff" points="1286.32,-133.14 1296.86,-131.99 1287.91,-126.32 1286.32,-133.14"/>
</g>
<!-- Node17&#45;&gt;Node10 -->
<g id="edge20" class="edge">
<title>Node17&#45;&gt;Node10</title>
<path fill="none" stroke="#63b8ff" d="M2390.4,-70C2379.78,-68.49 2368.84,-67.08 2358.5,-66 2049.37,-33.65 1674.27,-20.63 1553.2,-17.07"/>
<polygon fill="#63b8ff" stroke="#63b8ff" points="2390.04,-73.48 2400.44,-71.47 2391.05,-66.56 2390.04,-73.48"/>
</g>
<!-- Node18 -->
<g id="node18" class="node">
<title>Node18</title>
<g id="a_node18"><a xlink:href="ConcatAction_8cpp.html" target="_top" xlink:title=" ">
<polygon fill="white" stroke="#666666" points="2535.5,-24.5 2357.5,-24.5 2357.5,-5.5 2535.5,-5.5 2535.5,-24.5"/>
<text text-anchor="middle" x="2446.5" y="-12.5" font-family="Helvetica,sans-Serif" font-size="10.00">src/action/once/ConcatAction.cpp</text>
</a>
</g>
</g>
<!-- Node17&#45;&gt;Node18 -->
<g id="edge19" class="edge">
<title>Node17&#45;&gt;Node18</title>
<path fill="none" stroke="#63b8ff" d="M2450.02,-61.08C2449.09,-49.13 2447.92,-34.22 2447.2,-24.91"/>
<polygon fill="#63b8ff" stroke="#63b8ff" points="2446.56,-61.67 2450.83,-71.37 2453.54,-61.13 2446.56,-61.67"/>
</g>
<!-- Node19&#45;&gt;Node10 -->
<g id="edge23" class="edge">
<title>Node19&#45;&gt;Node10</title>
<path fill="none" stroke="#63b8ff" d="M153.7,-65.88C438.75,-37.51 1280.54,-20.36 1473.7,-16.73"/>
<polygon fill="#63b8ff" stroke="#63b8ff" points="152.98,-62.44 143.39,-66.94 153.7,-69.4 152.98,-62.44"/>
</g>
<!-- Node20 -->
<g id="node20" class="node">
<title>Node20</title>
<g id="a_node20"><a xlink:href="CreateFileAction_8cpp.html" target="_top" xlink:title=" ">
<polygon fill="white" stroke="#666666" points="143,-30 0,-30 0,0 143,0 143,-30"/>
<text text-anchor="start" x="8" y="-18" font-family="Helvetica,sans-Serif" font-size="10.00">src/action/once/CreateFile</text>
<text text-anchor="middle" x="71.5" y="-7" font-family="Helvetica,sans-Serif" font-size="10.00">Action.cpp</text>
</a>
</g>
</g>
<!-- Node19&#45;&gt;Node20 -->
<g id="edge22" class="edge">
<title>Node19&#45;&gt;Node20</title>
<path fill="none" stroke="#63b8ff" d="M71.5,-55.54C71.5,-46.96 71.5,-37.61 71.5,-30.16"/>
<polygon fill="#63b8ff" stroke="#63b8ff" points="68,-55.8 71.5,-65.8 75,-55.8 68,-55.8"/>
</g>
<!-- Node21&#45;&gt;Node10 -->
<g id="edge26" class="edge">
<title>Node21&#45;&gt;Node10</title>
<path fill="none" stroke="#63b8ff" d="M326.34,-65.89C782.14,-20.06 1324.6,-16.14 1473.86,-15.95"/>
<polygon fill="#63b8ff" stroke="#63b8ff" points="325.86,-62.42 316.26,-66.91 326.56,-69.39 325.86,-62.42"/>
</g>
<!-- Node22 -->
<g id="node22" class="node">
<title>Node22</title>
<g id="a_node22"><a xlink:href="CreateFolderAction_8cpp.html" target="_top" xlink:title=" ">
<polygon fill="white" stroke="#666666" points="316,-30 161,-30 161,0 316,0 316,-30"/>
<text text-anchor="start" x="169" y="-18" font-family="Helvetica,sans-Serif" font-size="10.00">src/action/once/CreateFolder</text>
<text text-anchor="middle" x="238.5" y="-7" font-family="Helvetica,sans-Serif" font-size="10.00">Action.cpp</text>
</a>
</g>
</g>
<!-- Node21&#45;&gt;Node22 -->
<g id="edge25" class="edge">
<title>Node21&#45;&gt;Node22</title>
<path fill="none" stroke="#63b8ff" d="M238.5,-55.54C238.5,-46.96 238.5,-37.61 238.5,-30.16"/>
<polygon fill="#63b8ff" stroke="#63b8ff" points="235,-55.8 238.5,-65.8 242,-55.8 235,-55.8"/>
</g>
<!-- Node23&#45;&gt;Node10 -->
<g id="edge29" class="edge">
<title>Node23&#45;&gt;Node10</title>
<path fill="none" stroke="#63b8ff" d="M509.33,-66C890.62,-28.15 1339.32,-18.64 1473.65,-16.53"/>
<polygon fill="#63b8ff" stroke="#63b8ff" points="508.8,-62.53 499.2,-67.01 509.5,-69.5 508.8,-62.53"/>
</g>
<!-- Node24 -->
<g id="node24" class="node">
<title>Node24</title>
<g id="a_node24"><a xlink:href="CreateSymlinkAction_8cpp.html" target="_top" xlink:title=" ">
<polygon fill="white" stroke="#666666" points="499,-30 334,-30 334,0 499,0 499,-30"/>
<text text-anchor="start" x="342" y="-18" font-family="Helvetica,sans-Serif" font-size="10.00">src/action/once/CreateSymlink</text>
<text text-anchor="middle" x="416.5" y="-7" font-family="Helvetica,sans-Serif" font-size="10.00">Action.cpp</text>
</a>
</g>
</g>
<!-- Node23&#45;&gt;Node24 -->
<g id="edge28" class="edge">
<title>Node23&#45;&gt;Node24</title>
<path fill="none" stroke="#63b8ff" d="M416.5,-55.54C416.5,-46.96 416.5,-37.61 416.5,-30.16"/>
<polygon fill="#63b8ff" stroke="#63b8ff" points="413,-55.8 416.5,-65.8 420,-55.8 413,-55.8"/>
</g>
<!-- Node25&#45;&gt;Node10 -->
<g id="edge32" class="edge">
<title>Node25&#45;&gt;Node10</title>
<path fill="none" stroke="#63b8ff" d="M680.03,-65.91C991.31,-31.6 1354.97,-19.98 1473.82,-16.92"/>
<polygon fill="#63b8ff" stroke="#63b8ff" points="679.46,-62.45 669.9,-67.03 680.23,-69.41 679.46,-62.45"/>
</g>
<!-- Node26 -->
<g id="node26" class="node">
<title>Node26</title>
<g id="a_node26"><a xlink:href="CursorDownAction_8cpp.html" target="_top" xlink:title=" ">
<polygon fill="white" stroke="#666666" points="669.5,-30 517.5,-30 517.5,0 669.5,0 669.5,-30"/>
<text text-anchor="start" x="525.5" y="-18" font-family="Helvetica,sans-Serif" font-size="10.00">src/action/once/CursorDown</text>
<text text-anchor="middle" x="593.5" y="-7" font-family="Helvetica,sans-Serif" font-size="10.00">Action.cpp</text>
</a>
</g>
</g>
<!-- Node25&#45;&gt;Node26 -->
<g id="edge31" class="edge">
<title>Node25&#45;&gt;Node26</title>
<path fill="none" stroke="#63b8ff" d="M593.5,-55.54C593.5,-46.96 593.5,-37.61 593.5,-30.16"/>
<polygon fill="#63b8ff" stroke="#63b8ff" points="590,-55.8 593.5,-65.8 597,-55.8 590,-55.8"/>
</g>
<!-- Node27&#45;&gt;Node10 -->
<g id="edge35" class="edge">
<title>Node27&#45;&gt;Node10</title>
<path fill="none" stroke="#63b8ff" d="M2040.1,-66.03C1851.65,-40.81 1639.8,-24.72 1553.29,-18.67"/>
<polygon fill="#63b8ff" stroke="#63b8ff" points="2039.81,-69.52 2050.19,-67.39 2040.75,-62.58 2039.81,-69.52"/>
</g>
<!-- Node28 -->
<g id="node28" class="node">
<title>Node28</title>
<g id="a_node28"><a xlink:href="CursorUpAction_8cpp.html" target="_top" xlink:title=" ">
<polygon fill="white" stroke="#666666" points="2188.5,-30 2050.5,-30 2050.5,0 2188.5,0 2188.5,-30"/>
<text text-anchor="start" x="2058.5" y="-18" font-family="Helvetica,sans-Serif" font-size="10.00">src/action/once/CursorUp</text>
<text text-anchor="middle" x="2119.5" y="-7" font-family="Helvetica,sans-Serif" font-size="10.00">Action.cpp</text>
</a>
</g>
</g>
<!-- Node27&#45;&gt;Node28 -->
<g id="edge34" class="edge">
<title>Node27&#45;&gt;Node28</title>
<path fill="none" stroke="#63b8ff" d="M2119.5,-55.54C2119.5,-46.96 2119.5,-37.61 2119.5,-30.16"/>
<polygon fill="#63b8ff" stroke="#63b8ff" points="2116,-55.8 2119.5,-65.8 2123,-55.8 2116,-55.8"/>
</g>
<!-- Node29&#45;&gt;Node10 -->
<g id="edge37" class="edge">
<title>Node29&#45;&gt;Node10</title>
<path fill="none" stroke="#63b8ff" d="M1312.7,-63.6C1365.33,-51.12 1435.63,-34.46 1477.57,-24.52"/>
<polygon fill="#63b8ff" stroke="#63b8ff" points="1311.68,-60.24 1302.75,-65.95 1313.29,-67.05 1311.68,-60.24"/>
</g>
<!-- Node31&#45;&gt;Node10 -->
<g id="edge39" class="edge">
<title>Node31&#45;&gt;Node10</title>
<path fill="none" stroke="#63b8ff" d="M1443.35,-65.33C1461.2,-52.78 1486.3,-35.13 1501.13,-24.7"/>
<polygon fill="#63b8ff" stroke="#63b8ff" points="1440.94,-62.75 1434.77,-71.37 1444.97,-68.48 1440.94,-62.75"/>
</g>
<!-- Node33&#45;&gt;Node10 -->
<g id="edge41" class="edge">
<title>Node33&#45;&gt;Node10</title>
<path fill="none" stroke="#63b8ff" d="M1576.57,-59.87C1559.54,-48.03 1538.87,-33.65 1525.95,-24.66"/>
<polygon fill="#63b8ff" stroke="#63b8ff" points="1574.87,-62.96 1585.08,-65.8 1578.87,-57.21 1574.87,-62.96"/>
</g>
<!-- Node35&#45;&gt;Node10 -->
<g id="edge43" class="edge">
<title>Node35&#45;&gt;Node10</title>
<path fill="none" stroke="#63b8ff" d="M1735.86,-69.1C1683.07,-56.49 1597.28,-36.01 1549.15,-24.51"/>
<polygon fill="#63b8ff" stroke="#63b8ff" points="1735.09,-72.52 1745.63,-71.44 1736.72,-65.71 1735.09,-72.52"/>
</g>
<!-- Node37&#45;&gt;Node10 -->
<g id="edge45" class="edge">
<title>Node37&#45;&gt;Node10</title>
<path fill="none" stroke="#63b8ff" d="M1894.13,-69.84C1885.86,-68.52 1877.47,-67.21 1869.5,-66 1754.72,-48.6 1618.8,-30.09 1553.05,-21.27"/>
<polygon fill="#63b8ff" stroke="#63b8ff" points="1893.71,-73.32 1904.14,-71.45 1894.82,-66.41 1893.71,-73.32"/>
</g>
<!-- Node39&#45;&gt;Node10 -->
<g id="edge47" class="edge">
<title>Node39&#45;&gt;Node10</title>
<path fill="none" stroke="#63b8ff" d="M851.85,-65.91C1093.8,-37.58 1372.07,-22.67 1473.78,-17.8"/>
<polygon fill="#63b8ff" stroke="#63b8ff" points="851.33,-62.44 841.81,-67.09 852.15,-69.4 851.33,-62.44"/>
</g>
<!-- Node41&#45;&gt;Node10 -->
<g id="edge49" class="edge">
<title>Node41&#45;&gt;Node10</title>
<path fill="none" stroke="#63b8ff" d="M1005.82,-65.89C1186.14,-41.06 1389.44,-24.95 1473.77,-18.79"/>
<polygon fill="#63b8ff" stroke="#63b8ff" points="1005.31,-62.42 995.89,-67.27 1006.27,-69.36 1005.31,-62.42"/>
</g>
<!-- Node43&#45;&gt;Node10 -->
<g id="edge51" class="edge">
<title>Node43&#45;&gt;Node10</title>
<path fill="none" stroke="#63b8ff" d="M1160,-65.79C1279.99,-46.62 1409.84,-29.34 1473.76,-21.07"/>
<polygon fill="#63b8ff" stroke="#63b8ff" points="1159.23,-62.37 1149.91,-67.42 1160.34,-69.28 1159.23,-62.37"/>
</g>
<!-- Node46 -->
<g id="node38" class="node">
<title>Node46</title>
<g id="a_node38"><a xlink:href="Application_8h.html" target="_top" xlink:title=" ">
<polygon fill="white" stroke="#666666" points="3353.5,-90.5 3255.5,-90.5 3255.5,-71.5 3353.5,-71.5 3353.5,-90.5"/>
<text text-anchor="middle" x="3304.5" y="-78.5" font-family="Helvetica,sans-Serif" font-size="10.00">src/Application.h</text>
</a>
</g>
</g>
<!-- Node45&#45;&gt;Node46 -->
<g id="edge53" class="edge">
<title>Node45&#45;&gt;Node46</title>
<path fill="none" stroke="#63b8ff" d="M3195.01,-128.08C3221.86,-116.78 3260.78,-100.4 3284.26,-90.52"/>
<polygon fill="#63b8ff" stroke="#63b8ff" points="3193.57,-124.89 3185.71,-131.99 3196.29,-131.34 3193.57,-124.89"/>
</g>
<!-- Node48 -->
<g id="node40" class="node">
<title>Node48</title>
<g id="a_node40"><a xlink:href="Interface_8cpp.html" target="_top" xlink:title=" ">
<polygon fill="white" stroke="#666666" points="3237.5,-90.5 3093.5,-90.5 3093.5,-71.5 3237.5,-71.5 3237.5,-90.5"/>
<text text-anchor="middle" x="3165.5" y="-78.5" font-family="Helvetica,sans-Serif" font-size="10.00">src/interface/Interface.cpp</text>
</a>
</g>
</g>
<!-- Node45&#45;&gt;Node48 -->
<g id="edge56" class="edge">
<title>Node45&#45;&gt;Node48</title>
<path fill="none" stroke="#63b8ff" d="M3165.5,-121.66C3165.5,-111.24 3165.5,-98.8 3165.5,-90.67"/>
<polygon fill="#63b8ff" stroke="#63b8ff" points="3162,-121.87 3165.5,-131.87 3169,-121.87 3162,-121.87"/>
</g>
<!-- Node46&#45;&gt;Node10 -->
<g id="edge55" class="edge">
<title>Node46&#45;&gt;Node10</title>
<path fill="none" stroke="#63b8ff" d="M3264.46,-69.19C3258.48,-67.91 3252.35,-66.78 3246.5,-66 3224.8,-63.1 1810.05,-24.14 1553.25,-17.09"/>
<polygon fill="#63b8ff" stroke="#63b8ff" points="3263.79,-72.63 3274.32,-71.46 3265.36,-65.81 3263.79,-72.63"/>
</g>
<!-- Node47 -->
<g id="node39" class="node">
<title>Node47</title>
<g id="a_node39"><a xlink:href="Application_8cpp.html" target="_top" xlink:title=" ">
<polygon fill="white" stroke="#666666" points="3359,-24.5 3250,-24.5 3250,-5.5 3359,-5.5 3359,-24.5"/>
<text text-anchor="middle" x="3304.5" y="-12.5" font-family="Helvetica,sans-Serif" font-size="10.00">src/Application.cpp</text>
</a>
</g>
</g>
<!-- Node46&#45;&gt;Node47 -->
<g id="edge54" class="edge">
<title>Node46&#45;&gt;Node47</title>
<path fill="none" stroke="#63b8ff" d="M3304.5,-61.08C3304.5,-49.13 3304.5,-34.22 3304.5,-24.91"/>
<polygon fill="#63b8ff" stroke="#63b8ff" points="3301,-61.37 3304.5,-71.37 3308,-61.37 3301,-61.37"/>
</g>
<!-- Node49&#45;&gt;Node5 -->
<g id="edge60" class="edge">
<title>Node49&#45;&gt;Node5</title>
<path fill="none" stroke="#63b8ff" d="M3211.98,-236.97C3194.44,-227.28 3171.33,-214.52 3156.2,-206.17"/>
<polygon fill="#63b8ff" stroke="#63b8ff" points="3210.63,-240.22 3221.08,-241.98 3214.01,-234.09 3210.63,-240.22"/>
</g>
<!-- Node49&#45;&gt;Node45 -->
<g id="edge61" class="edge">
<title>Node49&#45;&gt;Node45</title>
<path fill="none" stroke="#63b8ff" d="M3228.18,-232.71C3221.8,-219.66 3212.42,-201.73 3202.5,-187 3193.63,-173.83 3181.62,-159.97 3173.72,-151.28"/>
<polygon fill="#63b8ff" stroke="#63b8ff" points="3225.14,-234.46 3232.61,-241.97 3231.45,-231.44 3225.14,-234.46"/>
</g>
<!-- Node49&#45;&gt;Node46 -->
<g id="edge59" class="edge">
<title>Node49&#45;&gt;Node46</title>
<path fill="none" stroke="#63b8ff" d="M3243.88,-232.21C3258.43,-196.16 3290.31,-117.15 3300.96,-90.77"/>
<polygon fill="#63b8ff" stroke="#63b8ff" points="3240.46,-231.33 3239.97,-241.91 3246.95,-233.95 3240.46,-231.33"/>
</g>
<!-- Node50&#45;&gt;Node4 -->
<g id="edge63" class="edge">
<title>Node50&#45;&gt;Node4</title>
<path fill="none" stroke="#63b8ff" d="M3397.34,-288.1C3391.53,-279.04 3384.68,-268.37 3380.01,-261.09"/>
<polygon fill="#63b8ff" stroke="#63b8ff" points="3394.54,-290.22 3402.89,-296.75 3400.43,-286.44 3394.54,-290.22"/>
</g>
<!-- Node50&#45;&gt;Node49 -->
<g id="edge64" class="edge">
<title>Node50&#45;&gt;Node49</title>
<path fill="none" stroke="#63b8ff" d="M3370.94,-293.93C3338.82,-284.03 3293.31,-270.01 3264.35,-261.08"/>
<polygon fill="#63b8ff" stroke="#63b8ff" points="3370.28,-297.38 3380.87,-296.98 3372.34,-290.69 3370.28,-297.38"/>
</g>
<!-- Node51 -->
<g id="node43" class="node">
<title>Node51</title>
<g id="a_node43"><a xlink:href="Utility_8cpp.html" target="_top" xlink:title=" ">
<polygon fill="white" stroke="#666666" points="3912,-261 3829,-261 3829,-242 3912,-242 3912,-261"/>
<text text-anchor="middle" x="3870.5" y="-249" font-family="Helvetica,sans-Serif" font-size="10.00">src/Utility.cpp</text>
</a>
</g>
</g>
<!-- Node50&#45;&gt;Node51 -->
<g id="edge65" class="edge">
<title>Node50&#45;&gt;Node51</title>
<path fill="none" stroke="#63b8ff" d="M3454.79,-296.78C3616.48,-273.79 3660.35,-282.04 3819.5,-261 3822.53,-260.6 3825.65,-260.16 3828.79,-259.69"/>
<polygon fill="#63b8ff" stroke="#63b8ff" points="3453.87,-293.38 3444.47,-298.27 3454.87,-300.31 3453.87,-293.38"/>
</g>
<!-- Node52 -->
<g id="node44" class="node">
<title>Node52</title>
<g id="a_node44"><a xlink:href="File_8cpp.html" target="_top" xlink:title=" ">
<polygon fill="white" stroke="#666666" points="3540.5,-261 3440.5,-261 3440.5,-242 3540.5,-242 3540.5,-261"/>
<text text-anchor="middle" x="3490.5" y="-249" font-family="Helvetica,sans-Serif" font-size="10.00">src/entry/File.cpp</text>
</a>
</g>
</g>
<!-- Node50&#45;&gt;Node52 -->
<g id="edge66" class="edge">
<title>Node50&#45;&gt;Node52</title>
<path fill="none" stroke="#63b8ff" d="M3430.28,-291.42C3445.16,-281.81 3464.41,-269.37 3477.09,-261.17"/>
<polygon fill="#63b8ff" stroke="#63b8ff" points="3428.17,-288.62 3421.67,-296.98 3431.97,-294.5 3428.17,-288.62"/>
</g>
<!-- Node53 -->
<g id="node45" class="node">
<title>Node53</title>
<g id="a_node45"><a xlink:href="Folder_8cpp.html" target="_top" xlink:title=" ">
<polygon fill="white" stroke="#666666" points="3670.5,-261 3558.5,-261 3558.5,-242 3670.5,-242 3670.5,-261"/>
<text text-anchor="middle" x="3614.5" y="-249" font-family="Helvetica,sans-Serif" font-size="10.00">src/entry/Folder.cpp</text>
</a>
</g>
</g>
<!-- Node50&#45;&gt;Node53 -->
<g id="edge67" class="edge">
<title>Node50&#45;&gt;Node53</title>
<path fill="none" stroke="#63b8ff" d="M3451.5,-294.44C3490.06,-284.52 3545.86,-270.16 3581.14,-261.08"/>
<polygon fill="#63b8ff" stroke="#63b8ff" points="3450.41,-291.1 3441.6,-296.98 3452.15,-297.88 3450.41,-291.1"/>
</g>
<!-- Node54 -->
<g id="node46" class="node">
<title>Node54</title>
<g id="a_node46"><a xlink:href="Symlink_8cpp.html" target="_top" xlink:title=" ">
<polygon fill="white" stroke="#666666" points="3810.5,-261 3688.5,-261 3688.5,-242 3810.5,-242 3810.5,-261"/>
<text text-anchor="middle" x="3749.5" y="-249" font-family="Helvetica,sans-Serif" font-size="10.00">src/entry/Symlink.cpp</text>
</a>
</g>
</g>
<!-- Node50&#45;&gt;Node54 -->
<g id="edge68" class="edge">
<title>Node50&#45;&gt;Node54</title>
<path fill="none" stroke="#63b8ff" d="M3454.03,-296.79C3540.77,-282.05 3630.33,-269.04 3688.23,-260.91"/>
<polygon fill="#63b8ff" stroke="#63b8ff" points="3453.29,-293.37 3444.02,-298.51 3454.46,-300.27 3453.29,-293.37"/>
</g>
<!-- Node56&#45;&gt;Node51 -->
<g id="edge71" class="edge">
<title>Node56&#45;&gt;Node51</title>
<path fill="none" stroke="#63b8ff" d="M3679.68,-294.82C3724.47,-284.88 3790.34,-270.28 3831.8,-261.08"/>
<polygon fill="#63b8ff" stroke="#63b8ff" points="3678.9,-291.4 3669.9,-296.98 3680.42,-298.24 3678.9,-291.4"/>
</g>
<!-- Node56&#45;&gt;Node52 -->
<g id="edge72" class="edge">
<title>Node56&#45;&gt;Node52</title>
<path fill="none" stroke="#63b8ff" d="M3599.36,-293.42C3573.21,-283.59 3536.91,-269.95 3513.57,-261.17"/>
<polygon fill="#63b8ff" stroke="#63b8ff" points="3598.25,-296.74 3608.85,-296.98 3600.72,-290.19 3598.25,-296.74"/>
</g>
<!-- Node57&#45;&gt;Node51 -->
<g id="edge74" class="edge">
<title>Node57&#45;&gt;Node51</title>
<path fill="none" stroke="#63b8ff" d="M3774.15,-293.03C3797.45,-283.23 3829.3,-269.83 3849.89,-261.17"/>
<polygon fill="#63b8ff" stroke="#63b8ff" points="3772.6,-289.88 3764.74,-296.98 3775.32,-296.33 3772.6,-289.88"/>
</g>
<!-- Node57&#45;&gt;Node53 -->
<g id="edge75" class="edge">
<title>Node57&#45;&gt;Node53</title>
<path fill="none" stroke="#63b8ff" d="M3714.23,-293.16C3690.16,-283.35 3657.1,-269.87 3635.77,-261.17"/>
<polygon fill="#63b8ff" stroke="#63b8ff" points="3713.03,-296.45 3723.61,-296.98 3715.67,-289.97 3713.03,-296.45"/>
</g>
<!-- Node58&#45;&gt;Node51 -->
<g id="edge77" class="edge">
<title>Node58&#45;&gt;Node51</title>
<path fill="none" stroke="#63b8ff" d="M3869.21,-286.66C3869.54,-277.93 3869.92,-267.99 3870.18,-261.09"/>
<polygon fill="#63b8ff" stroke="#63b8ff" points="3865.71,-286.62 3868.83,-296.75 3872.7,-286.89 3865.71,-286.62"/>
</g>
<!-- Node58&#45;&gt;Node54 -->
<g id="edge78" class="edge">
<title>Node58&#45;&gt;Node54</title>
<path fill="none" stroke="#63b8ff" d="M3840.2,-292.9C3818.22,-283.11 3788.32,-269.79 3768.97,-261.17"/>
<polygon fill="#63b8ff" stroke="#63b8ff" points="3838.82,-296.11 3849.38,-296.98 3841.67,-289.72 3838.82,-296.11"/>
</g>
</g>
</svg>
