<?xml version="1.0" encoding="UTF-8" standalone="no"?>
<!DOCTYPE svg PUBLIC "-//W3C//DTD SVG 1.1//EN"
 "http://www.w3.org/Graphics/SVG/1.1/DTD/svg11.dtd">
<!-- Generated by graphviz version 2.43.0 (0)
 -->
<!-- Title: src/action/OnceAction.h Pages: 1 -->
<svg width="308pt" height="302pt"
 viewBox="0.00 0.00 307.50 302.00" xmlns="http://www.w3.org/2000/svg" xmlns:xlink="http://www.w3.org/1999/xlink">
<g id="graph0" class="graph" transform="scale(1 1) rotate(0) translate(4 298)">
<title>src/action/OnceAction.h</title>
<!-- Node1 -->
<g id="node1" class="node">
<title>Node1</title>
<g id="a_node1"><a xlink:title=" ">
<polygon fill="#999999" stroke="#666666" points="131,-294 0,-294 0,-275 131,-275 131,-294"/>
<text text-anchor="middle" x="65.5" y="-282" font-family="Helvetica,sans-Serif" font-size="10.00">src/action/OnceAction.h</text>
</a>
</g>
</g>
<!-- Node2 -->
<g id="node2" class="node">
<title>Node2</title>
<g id="a_node2"><a xlink:href="Action_8h.html" target="_top" xlink:title=" ">
<polygon fill="white" stroke="#666666" points="93.5,-239 37.5,-239 37.5,-220 93.5,-220 93.5,-239"/>
<text text-anchor="middle" x="65.5" y="-227" font-family="Helvetica,sans-Serif" font-size="10.00">Action.h</text>
</a>
</g>
</g>
<!-- Node1&#45;&gt;Node2 -->
<g id="edge1" class="edge">
<title>Node1&#45;&gt;Node2</title>
<path fill="none" stroke="#63b8ff" d="M65.5,-274.75C65.5,-267.8 65.5,-257.85 65.5,-249.13"/>
<polygon fill="#63b8ff" stroke="#63b8ff" points="69,-249.09 65.5,-239.09 62,-249.09 69,-249.09"/>
</g>
<!-- Node3 -->
<g id="node3" class="node">
<title>Node3</title>
<g id="a_node3"><a xlink:title=" ">
<polygon fill="#e0e0e0" stroke="#999999" points="63,-129 16,-129 16,-110 63,-110 63,-129"/>
<text text-anchor="middle" x="39.5" y="-117" font-family="Helvetica,sans-Serif" font-size="10.00">vector</text>
</a>
</g>
</g>
<!-- Node2&#45;&gt;Node3 -->
<g id="edge2" class="edge">
<title>Node2&#45;&gt;Node3</title>
<path fill="none" stroke="#63b8ff" d="M62.4,-219.72C59.33,-210.81 54.65,-196.57 51.5,-184 47.78,-169.17 44.62,-152.13 42.48,-139.44"/>
<polygon fill="#63b8ff" stroke="#63b8ff" points="45.87,-138.51 40.81,-129.2 38.96,-139.63 45.87,-138.51"/>
</g>
<!-- Node4 -->
<g id="node4" class="node">
<title>Node4</title>
<g id="a_node4"><a xlink:title=" ">
<polygon fill="#e0e0e0" stroke="#999999" points="125.5,-19 57.5,-19 57.5,0 125.5,0 125.5,-19"/>
<text text-anchor="middle" x="91.5" y="-7" font-family="Helvetica,sans-Serif" font-size="10.00">filesystem</text>
</a>
</g>
</g>
<!-- Node2&#45;&gt;Node4 -->
<g id="edge3" class="edge">
<title>Node2&#45;&gt;Node4</title>
<path fill="none" stroke="#63b8ff" d="M55.67,-219.87C35.1,-200.71 -9.33,-152.91 6.5,-110 19.56,-74.59 51.46,-43.24 72.25,-25.59"/>
<polygon fill="#63b8ff" stroke="#63b8ff" points="74.64,-28.16 80.14,-19.1 70.19,-22.76 74.64,-28.16"/>
</g>
<!-- Node5 -->
<g id="node5" class="node">
<title>Node5</title>
<g id="a_node5"><a xlink:href="FileView_8h.html" target="_top" xlink:title=" ">
<polygon fill="white" stroke="#666666" points="136,-184 61,-184 61,-165 136,-165 136,-184"/>
<text text-anchor="middle" x="98.5" y="-172" font-family="Helvetica,sans-Serif" font-size="10.00">../FileView.h</text>
</a>
</g>
</g>
<!-- Node2&#45;&gt;Node5 -->
<g id="edge4" class="edge">
<title>Node2&#45;&gt;Node5</title>
<path fill="none" stroke="#63b8ff" d="M70.95,-219.75C75.51,-212.42 82.17,-201.73 87.79,-192.7"/>
<polygon fill="#63b8ff" stroke="#63b8ff" points="90.84,-194.43 93.15,-184.09 84.9,-190.73 90.84,-194.43"/>
</g>
<!-- Node8 -->
<g id="node8" class="node">
<title>Node8</title>
<g id="a_node8"><a xlink:href="State_8h.html" target="_top" xlink:title=" ">
<polygon fill="white" stroke="#666666" points="233.5,-184 173.5,-184 173.5,-165 233.5,-165 233.5,-184"/>
<text text-anchor="middle" x="203.5" y="-172" font-family="Helvetica,sans-Serif" font-size="10.00">../State.h</text>
</a>
</g>
</g>
<!-- Node2&#45;&gt;Node8 -->
<g id="edge10" class="edge">
<title>Node2&#45;&gt;Node8</title>
<path fill="none" stroke="#63b8ff" d="M87.67,-219.98C110.27,-211.3 145.56,-197.75 171.25,-187.88"/>
<polygon fill="#63b8ff" stroke="#63b8ff" points="172.84,-191.02 180.92,-184.17 170.33,-184.49 172.84,-191.02"/>
</g>
<!-- Node5&#45;&gt;Node3 -->
<g id="edge5" class="edge">
<title>Node5&#45;&gt;Node3</title>
<path fill="none" stroke="#63b8ff" d="M89.02,-164.98C80.3,-157.15 67.16,-145.34 56.6,-135.86"/>
<polygon fill="#63b8ff" stroke="#63b8ff" points="58.93,-133.25 49.15,-129.17 54.25,-138.46 58.93,-133.25"/>
</g>
<!-- Node5&#45;&gt;Node4 -->
<g id="edge6" class="edge">
<title>Node5&#45;&gt;Node4</title>
<path fill="none" stroke="#63b8ff" d="M98.12,-164.74C97.03,-139.31 93.84,-65.08 92.32,-29.69"/>
<polygon fill="#63b8ff" stroke="#63b8ff" points="95.8,-29.15 91.88,-19.31 88.81,-29.45 95.8,-29.15"/>
</g>
<!-- Node6 -->
<g id="node6" class="node">
<title>Node6</title>
<g id="a_node6"><a xlink:href="Entry_8h.html" target="_top" xlink:title=" ">
<polygon fill="white" stroke="#666666" points="223.5,-74 145.5,-74 145.5,-55 223.5,-55 223.5,-74"/>
<text text-anchor="middle" x="184.5" y="-62" font-family="Helvetica,sans-Serif" font-size="10.00">entry/Entry.h</text>
</a>
</g>
</g>
<!-- Node5&#45;&gt;Node6 -->
<g id="edge7" class="edge">
<title>Node5&#45;&gt;Node6</title>
<path fill="none" stroke="#63b8ff" d="M105.26,-164.84C114.83,-152.6 132.92,-129.52 148.5,-110 155.95,-100.66 164.35,-90.28 171.15,-81.89"/>
<polygon fill="#63b8ff" stroke="#63b8ff" points="173.97,-83.97 177.57,-74 168.54,-79.56 173.97,-83.97"/>
</g>
<!-- Node6&#45;&gt;Node4 -->
<g id="edge8" class="edge">
<title>Node6&#45;&gt;Node4</title>
<path fill="none" stroke="#63b8ff" d="M169.56,-54.98C155,-46.69 132.63,-33.94 115.57,-24.22"/>
<polygon fill="#63b8ff" stroke="#63b8ff" points="117.14,-21.08 106.71,-19.17 113.67,-27.16 117.14,-21.08"/>
</g>
<!-- Node7 -->
<g id="node7" class="node">
<title>Node7</title>
<g id="a_node7"><a xlink:href="Modifier_8h.html" target="_top" xlink:title=" ">
<polygon fill="white" stroke="#666666" points="217,-19 152,-19 152,0 217,0 217,-19"/>
<text text-anchor="middle" x="184.5" y="-7" font-family="Helvetica,sans-Serif" font-size="10.00">Modifier.h</text>
</a>
</g>
</g>
<!-- Node6&#45;&gt;Node7 -->
<g id="edge9" class="edge">
<title>Node6&#45;&gt;Node7</title>
<path fill="none" stroke="#63b8ff" d="M184.5,-54.75C184.5,-47.8 184.5,-37.85 184.5,-29.13"/>
<polygon fill="#63b8ff" stroke="#63b8ff" points="188,-29.09 184.5,-19.09 181,-29.09 188,-29.09"/>
</g>
<!-- Node8&#45;&gt;Node6 -->
<g id="edge12" class="edge">
<title>Node8&#45;&gt;Node6</title>
<path fill="none" stroke="#63b8ff" d="M203.43,-164.79C203.2,-152.47 202.25,-129.32 198.5,-110 196.8,-101.25 193.98,-91.81 191.31,-83.88"/>
<polygon fill="#63b8ff" stroke="#63b8ff" points="194.53,-82.47 187.89,-74.21 187.93,-84.81 194.53,-82.47"/>
</g>
<!-- Node9 -->
<g id="node9" class="node">
<title>Node9</title>
<g id="a_node9"><a xlink:title=" ">
<polygon fill="#e0e0e0" stroke="#999999" points="189.5,-129 157.5,-129 157.5,-110 189.5,-110 189.5,-129"/>
<text text-anchor="middle" x="173.5" y="-117" font-family="Helvetica,sans-Serif" font-size="10.00">set</text>
</a>
</g>
</g>
<!-- Node8&#45;&gt;Node9 -->
<g id="edge11" class="edge">
<title>Node8&#45;&gt;Node9</title>
<path fill="none" stroke="#63b8ff" d="M198.55,-164.75C194.44,-157.49 188.47,-146.95 183.4,-137.98"/>
<polygon fill="#63b8ff" stroke="#63b8ff" points="186.33,-136.07 178.36,-129.09 180.24,-139.52 186.33,-136.07"/>
</g>
<!-- Node10 -->
<g id="node10" class="node">
<title>Node10</title>
<g id="a_node10"><a xlink:href="Utility_8h.html" target="_top" xlink:title=" ">
<polygon fill="white" stroke="#666666" points="299.5,-129 245.5,-129 245.5,-110 299.5,-110 299.5,-129"/>
<text text-anchor="middle" x="272.5" y="-117" font-family="Helvetica,sans-Serif" font-size="10.00">Utility.h</text>
</a>
</g>
</g>
<!-- Node8&#45;&gt;Node10 -->
<g id="edge13" class="edge">
<title>Node8&#45;&gt;Node10</title>
<path fill="none" stroke="#63b8ff" d="M214.59,-164.98C224.99,-157 240.76,-144.88 253.22,-135.31"/>
<polygon fill="#63b8ff" stroke="#63b8ff" points="255.41,-138.04 261.21,-129.17 251.15,-132.49 255.41,-138.04"/>
</g>
<!-- Node10&#45;&gt;Node6 -->
<g id="edge15" class="edge">
<title>Node10&#45;&gt;Node6</title>
<path fill="none" stroke="#63b8ff" d="M258.36,-109.98C244.71,-101.77 223.81,-89.18 207.72,-79.49"/>
<polygon fill="#63b8ff" stroke="#63b8ff" points="209.27,-76.33 198.9,-74.17 205.66,-82.33 209.27,-76.33"/>
</g>
<!-- Node11 -->
<g id="node11" class="node">
<title>Node11</title>
<g id="a_node11"><a xlink:title=" ">
<polygon fill="#e0e0e0" stroke="#999999" points="294.5,-74 250.5,-74 250.5,-55 294.5,-55 294.5,-74"/>
<text text-anchor="middle" x="272.5" y="-62" font-family="Helvetica,sans-Serif" font-size="10.00">string</text>
</a>
</g>
</g>
<!-- Node10&#45;&gt;Node11 -->
<g id="edge14" class="edge">
<title>Node10&#45;&gt;Node11</title>
<path fill="none" stroke="#63b8ff" d="M272.5,-109.75C272.5,-102.8 272.5,-92.85 272.5,-84.13"/>
<polygon fill="#63b8ff" stroke="#63b8ff" points="276,-84.09 272.5,-74.09 269,-84.09 276,-84.09"/>
</g>
</g>
</svg>
