<?xml version="1.0" encoding="UTF-8" standalone="no"?>
<!DOCTYPE svg PUBLIC "-//W3C//DTD SVG 1.1//EN"
 "http://www.w3.org/Graphics/SVG/1.1/DTD/svg11.dtd">
<!-- Generated by graphviz version 2.43.0 (0)
 -->
<!-- Title: src/action/OnceAction.h Pages: 1 -->
<svg width="2624pt" height="159pt"
 viewBox="0.00 0.00 2623.50 159.00" xmlns="http://www.w3.org/2000/svg" xmlns:xlink="http://www.w3.org/1999/xlink">
<g id="graph0" class="graph" transform="scale(1 1) rotate(0) translate(4 155)">
<title>src/action/OnceAction.h</title>
<!-- Node1 -->
<g id="node1" class="node">
<title>Node1</title>
<g id="a_node1"><a xlink:title=" ">
<polygon fill="#999999" stroke="#666666" points="1331,-151 1200,-151 1200,-132 1331,-132 1331,-151"/>
<text text-anchor="middle" x="1265.5" y="-139" font-family="Helvetica,sans-Serif" font-size="10.00">src/action/OnceAction.h</text>
</a>
</g>
</g>
<!-- Node2 -->
<g id="node2" class="node">
<title>Node2</title>
<g id="a_node2"><a xlink:href="OnceAction_8cpp.html" target="_top" xlink:title=" ">
<polygon fill="white" stroke="#666666" points="143,-90.5 0,-90.5 0,-71.5 143,-71.5 143,-90.5"/>
<text text-anchor="middle" x="71.5" y="-78.5" font-family="Helvetica,sans-Serif" font-size="10.00">src/action/OnceAction.cpp</text>
</a>
</g>
</g>
<!-- Node1&#45;&gt;Node2 -->
<g id="edge1" class="edge">
<title>Node1&#45;&gt;Node2</title>
<path fill="none" stroke="#63b8ff" d="M1189.81,-140.95C1009.47,-141.26 540.41,-137.61 151.5,-96 139.3,-94.69 126.16,-92.66 114.11,-90.54"/>
<polygon fill="#63b8ff" stroke="#63b8ff" points="1189.99,-144.45 1199.98,-140.92 1189.98,-137.45 1189.99,-144.45"/>
</g>
<!-- Node3 -->
<g id="node3" class="node">
<title>Node3</title>
<g id="a_node3"><a xlink:href="ConcatAction_8h.html" target="_top" xlink:title=" ">
<polygon fill="white" stroke="#666666" points="328,-90.5 161,-90.5 161,-71.5 328,-71.5 328,-90.5"/>
<text text-anchor="middle" x="244.5" y="-78.5" font-family="Helvetica,sans-Serif" font-size="10.00">src/action/once/ConcatAction.h</text>
</a>
</g>
</g>
<!-- Node1&#45;&gt;Node3 -->
<g id="edge2" class="edge">
<title>Node1&#45;&gt;Node3</title>
<path fill="none" stroke="#63b8ff" d="M1189.58,-139.51C1030.83,-136.87 652.32,-127.51 336.5,-96 322.84,-94.64 308.1,-92.64 294.52,-90.57"/>
<polygon fill="#63b8ff" stroke="#63b8ff" points="1189.66,-143.01 1199.72,-139.68 1189.78,-136.02 1189.66,-143.01"/>
</g>
<!-- Node6 -->
<g id="node6" class="node">
<title>Node6</title>
<g id="a_node6"><a xlink:href="CreateFileAction_8h.html" target="_top" xlink:title=" ">
<polygon fill="white" stroke="#666666" points="489,-96 346,-96 346,-66 489,-66 489,-96"/>
<text text-anchor="start" x="354" y="-84" font-family="Helvetica,sans-Serif" font-size="10.00">src/action/once/CreateFile</text>
<text text-anchor="middle" x="417.5" y="-73" font-family="Helvetica,sans-Serif" font-size="10.00">Action.h</text>
</a>
</g>
</g>
<!-- Node1&#45;&gt;Node6 -->
<g id="edge5" class="edge">
<title>Node1&#45;&gt;Node6</title>
<path fill="none" stroke="#63b8ff" d="M1189.73,-139.01C1051.66,-135.64 750.04,-125.32 497.5,-96 494.84,-95.69 492.13,-95.35 489.4,-94.99"/>
<polygon fill="#63b8ff" stroke="#63b8ff" points="1189.7,-142.51 1199.79,-139.25 1189.87,-135.51 1189.7,-142.51"/>
</g>
<!-- Node8 -->
<g id="node8" class="node">
<title>Node8</title>
<g id="a_node8"><a xlink:href="CreateFolderAction_8h.html" target="_top" xlink:title=" ">
<polygon fill="white" stroke="#666666" points="662,-96 507,-96 507,-66 662,-66 662,-96"/>
<text text-anchor="start" x="515" y="-84" font-family="Helvetica,sans-Serif" font-size="10.00">src/action/once/CreateFolder</text>
<text text-anchor="middle" x="584.5" y="-73" font-family="Helvetica,sans-Serif" font-size="10.00">Action.h</text>
</a>
</g>
</g>
<!-- Node1&#45;&gt;Node8 -->
<g id="edge8" class="edge">
<title>Node1&#45;&gt;Node8</title>
<path fill="none" stroke="#63b8ff" d="M1189.43,-136.93C1076.09,-131.12 856.29,-118.03 670.5,-96 667.8,-95.68 665.05,-95.33 662.27,-94.97"/>
<polygon fill="#63b8ff" stroke="#63b8ff" points="1189.56,-140.44 1199.73,-137.45 1189.92,-133.45 1189.56,-140.44"/>
</g>
<!-- Node10 -->
<g id="node10" class="node">
<title>Node10</title>
<g id="a_node10"><a xlink:href="CreateSymlinkAction_8h.html" target="_top" xlink:title=" ">
<polygon fill="white" stroke="#666666" points="845,-96 680,-96 680,-66 845,-66 845,-96"/>
<text text-anchor="start" x="688" y="-84" font-family="Helvetica,sans-Serif" font-size="10.00">src/action/once/CreateSymlink</text>
<text text-anchor="middle" x="762.5" y="-73" font-family="Helvetica,sans-Serif" font-size="10.00">Action.h</text>
</a>
</g>
</g>
<!-- Node1&#45;&gt;Node10 -->
<g id="edge11" class="edge">
<title>Node1&#45;&gt;Node10</title>
<path fill="none" stroke="#63b8ff" d="M1189.86,-133.3C1107.32,-125.21 971.33,-111.21 854.5,-96 851.46,-95.6 848.36,-95.19 845.23,-94.76"/>
<polygon fill="#63b8ff" stroke="#63b8ff" points="1189.62,-136.79 1199.91,-134.28 1190.3,-129.82 1189.62,-136.79"/>
</g>
<!-- Node12 -->
<g id="node12" class="node">
<title>Node12</title>
<g id="a_node12"><a xlink:href="CursorDownAction_8h.html" target="_top" xlink:title=" ">
<polygon fill="white" stroke="#666666" points="1015.5,-96 863.5,-96 863.5,-66 1015.5,-66 1015.5,-96"/>
<text text-anchor="start" x="871.5" y="-84" font-family="Helvetica,sans-Serif" font-size="10.00">src/action/once/CursorDown</text>
<text text-anchor="middle" x="939.5" y="-73" font-family="Helvetica,sans-Serif" font-size="10.00">Action.h</text>
</a>
</g>
</g>
<!-- Node1&#45;&gt;Node12 -->
<g id="edge14" class="edge">
<title>Node1&#45;&gt;Node12</title>
<path fill="none" stroke="#63b8ff" d="M1208.1,-130.2C1154.62,-120.6 1074.5,-106.22 1015.68,-95.67"/>
<polygon fill="#63b8ff" stroke="#63b8ff" points="1207.64,-133.67 1218.1,-131.99 1208.87,-126.78 1207.64,-133.67"/>
</g>
<!-- Node14 -->
<g id="node14" class="node">
<title>Node14</title>
<g id="a_node14"><a xlink:href="CursorUpAction_8h.html" target="_top" xlink:title=" ">
<polygon fill="white" stroke="#666666" points="1171.5,-96 1033.5,-96 1033.5,-66 1171.5,-66 1171.5,-96"/>
<text text-anchor="start" x="1041.5" y="-84" font-family="Helvetica,sans-Serif" font-size="10.00">src/action/once/CursorUp</text>
<text text-anchor="middle" x="1102.5" y="-73" font-family="Helvetica,sans-Serif" font-size="10.00">Action.h</text>
</a>
</g>
</g>
<!-- Node1&#45;&gt;Node14 -->
<g id="edge17" class="edge">
<title>Node1&#45;&gt;Node14</title>
<path fill="none" stroke="#63b8ff" d="M1232.29,-128.58C1206.05,-119.16 1169.37,-106 1141.69,-96.06"/>
<polygon fill="#63b8ff" stroke="#63b8ff" points="1231.2,-131.91 1241.8,-131.99 1233.57,-125.32 1231.2,-131.91"/>
</g>
<!-- Node16 -->
<g id="node16" class="node">
<title>Node16</title>
<g id="a_node16"><a xlink:href="DeduplicateAction_8h.html" target="_top" xlink:title=" ">
<polygon fill="white" stroke="#666666" points="1341.5,-96 1189.5,-96 1189.5,-66 1341.5,-66 1341.5,-96"/>
<text text-anchor="start" x="1197.5" y="-84" font-family="Helvetica,sans-Serif" font-size="10.00">src/action/once/Deduplicate</text>
<text text-anchor="middle" x="1265.5" y="-73" font-family="Helvetica,sans-Serif" font-size="10.00">Action.h</text>
</a>
</g>
</g>
<!-- Node1&#45;&gt;Node16 -->
<g id="edge20" class="edge">
<title>Node1&#45;&gt;Node16</title>
<path fill="none" stroke="#63b8ff" d="M1265.5,-121.65C1265.5,-113.36 1265.5,-103.78 1265.5,-96.11"/>
<polygon fill="#63b8ff" stroke="#63b8ff" points="1262,-121.87 1265.5,-131.87 1269,-121.87 1262,-121.87"/>
</g>
<!-- Node18 -->
<g id="node18" class="node">
<title>Node18</title>
<g id="a_node18"><a xlink:href="GoBackAction_8h.html" target="_top" xlink:title=" ">
<polygon fill="white" stroke="#666666" points="1529.5,-90.5 1359.5,-90.5 1359.5,-71.5 1529.5,-71.5 1529.5,-90.5"/>
<text text-anchor="middle" x="1444.5" y="-78.5" font-family="Helvetica,sans-Serif" font-size="10.00">src/action/once/GoBackAction.h</text>
</a>
</g>
</g>
<!-- Node1&#45;&gt;Node18 -->
<g id="edge23" class="edge">
<title>Node1&#45;&gt;Node18</title>
<path fill="none" stroke="#63b8ff" d="M1301.25,-128.82C1335.87,-117.5 1387.54,-100.62 1418.44,-90.52"/>
<polygon fill="#63b8ff" stroke="#63b8ff" points="1299.95,-125.56 1291.53,-131.99 1302.12,-132.21 1299.95,-125.56"/>
</g>
<!-- Node20 -->
<g id="node20" class="node">
<title>Node20</title>
<g id="a_node20"><a xlink:href="ManualSelectAction_8h.html" target="_top" xlink:title=" ">
<polygon fill="white" stroke="#666666" points="1707,-96 1548,-96 1548,-66 1707,-66 1707,-96"/>
<text text-anchor="start" x="1556" y="-84" font-family="Helvetica,sans-Serif" font-size="10.00">src/action/once/ManualSelect</text>
<text text-anchor="middle" x="1627.5" y="-73" font-family="Helvetica,sans-Serif" font-size="10.00">Action.h</text>
</a>
</g>
</g>
<!-- Node1&#45;&gt;Node20 -->
<g id="edge26" class="edge">
<title>Node1&#45;&gt;Node20</title>
<path fill="none" stroke="#63b8ff" d="M1328.37,-130.34C1389.23,-120.51 1481.71,-105.56 1547.72,-94.89"/>
<polygon fill="#63b8ff" stroke="#63b8ff" points="1327.45,-126.94 1318.14,-131.99 1328.57,-133.85 1327.45,-126.94"/>
</g>
<!-- Node22 -->
<g id="node22" class="node">
<title>Node22</title>
<g id="a_node22"><a xlink:href="OpenAction_8h.html" target="_top" xlink:title=" ">
<polygon fill="white" stroke="#666666" points="1882.5,-90.5 1724.5,-90.5 1724.5,-71.5 1882.5,-71.5 1882.5,-90.5"/>
<text text-anchor="middle" x="1803.5" y="-78.5" font-family="Helvetica,sans-Serif" font-size="10.00">src/action/once/OpenAction.h</text>
</a>
</g>
</g>
<!-- Node1&#45;&gt;Node22 -->
<g id="edge29" class="edge">
<title>Node1&#45;&gt;Node22</title>
<path fill="none" stroke="#63b8ff" d="M1341.46,-134.43C1431.23,-126.93 1585.02,-113.05 1716.5,-96 1728.64,-94.43 1741.68,-92.47 1753.89,-90.52"/>
<polygon fill="#63b8ff" stroke="#63b8ff" points="1341.05,-130.96 1331.37,-135.27 1341.63,-137.93 1341.05,-130.96"/>
</g>
<!-- Node24 -->
<g id="node24" class="node">
<title>Node24</title>
<g id="a_node24"><a xlink:href="QuitAction_8h.html" target="_top" xlink:title=" ">
<polygon fill="white" stroke="#666666" points="2054,-90.5 1901,-90.5 1901,-71.5 2054,-71.5 2054,-90.5"/>
<text text-anchor="middle" x="1977.5" y="-78.5" font-family="Helvetica,sans-Serif" font-size="10.00">src/action/once/QuitAction.h</text>
</a>
</g>
</g>
<!-- Node1&#45;&gt;Node24 -->
<g id="edge32" class="edge">
<title>Node1&#45;&gt;Node24</title>
<path fill="none" stroke="#63b8ff" d="M1341.02,-137.34C1458.88,-131.91 1693.54,-119.1 1891.5,-96 1903.97,-94.54 1917.4,-92.56 1929.84,-90.55"/>
<polygon fill="#63b8ff" stroke="#63b8ff" points="1340.85,-133.84 1331.02,-137.79 1341.17,-140.84 1340.85,-133.84"/>
</g>
<!-- Node26 -->
<g id="node26" class="node">
<title>Node26</title>
<g id="a_node26"><a xlink:href="RegexSelectAction_8h.html" target="_top" xlink:title=" ">
<polygon fill="white" stroke="#666666" points="2226.5,-96 2072.5,-96 2072.5,-66 2226.5,-66 2226.5,-96"/>
<text text-anchor="start" x="2080.5" y="-84" font-family="Helvetica,sans-Serif" font-size="10.00">src/action/once/RegexSelect</text>
<text text-anchor="middle" x="2149.5" y="-73" font-family="Helvetica,sans-Serif" font-size="10.00">Action.h</text>
</a>
</g>
</g>
<!-- Node1&#45;&gt;Node26 -->
<g id="edge35" class="edge">
<title>Node1&#45;&gt;Node26</title>
<path fill="none" stroke="#63b8ff" d="M1341.46,-138.94C1483.58,-135.41 1799.23,-124.8 2063.5,-96 2066.36,-95.69 2069.26,-95.35 2072.2,-94.98"/>
<polygon fill="#63b8ff" stroke="#63b8ff" points="1341.03,-135.44 1331.12,-139.19 1341.2,-142.44 1341.03,-135.44"/>
</g>
<!-- Node28 -->
<g id="node28" class="node">
<title>Node28</title>
<g id="a_node28"><a xlink:href="SelectByContentAction_8h.html" target="_top" xlink:title=" ">
<polygon fill="white" stroke="#666666" points="2380.5,-96 2244.5,-96 2244.5,-66 2380.5,-66 2380.5,-96"/>
<text text-anchor="start" x="2252.5" y="-84" font-family="Helvetica,sans-Serif" font-size="10.00">src/action/once/SelectBy</text>
<text text-anchor="middle" x="2312.5" y="-73" font-family="Helvetica,sans-Serif" font-size="10.00">ContentAction.h</text>
</a>
</g>
</g>
<!-- Node1&#45;&gt;Node28 -->
<g id="edge38" class="edge">
<title>Node1&#45;&gt;Node28</title>
<path fill="none" stroke="#63b8ff" d="M1341.47,-140.47C1505.34,-139.65 1903.99,-133.57 2235.5,-96 2238.34,-95.68 2241.22,-95.32 2244.14,-94.92"/>
<polygon fill="#63b8ff" stroke="#63b8ff" points="1341.01,-136.97 1331.02,-140.52 1341.04,-143.97 1341.01,-136.97"/>
</g>
<!-- Node30 -->
<g id="node30" class="node">
<title>Node30</title>
<g id="a_node30"><a xlink:href="UnselectAllAction_8h.html" target="_top" xlink:title=" ">
<polygon fill="white" stroke="#666666" points="2534.5,-96 2398.5,-96 2398.5,-66 2534.5,-66 2534.5,-96"/>
<text text-anchor="start" x="2406.5" y="-84" font-family="Helvetica,sans-Serif" font-size="10.00">src/action/once/Unselect</text>
<text text-anchor="middle" x="2466.5" y="-73" font-family="Helvetica,sans-Serif" font-size="10.00">AllAction.h</text>
</a>
</g>
</g>
<!-- Node1&#45;&gt;Node30 -->
<g id="edge41" class="edge">
<title>Node1&#45;&gt;Node30</title>
<path fill="none" stroke="#63b8ff" d="M1341.56,-141.16C1523.32,-141.93 1996.99,-139.24 2389.5,-96 2392.34,-95.69 2395.23,-95.33 2398.14,-94.94"/>
<polygon fill="#63b8ff" stroke="#63b8ff" points="1341.32,-137.66 1331.3,-141.11 1341.29,-144.66 1341.32,-137.66"/>
</g>
<!-- Node4 -->
<g id="node4" class="node">
<title>Node4</title>
<g id="a_node4"><a xlink:href="ConcatAction_8cpp.html" target="_top" xlink:title=" ">
<polygon fill="white" stroke="#666666" points="275.5,-24.5 97.5,-24.5 97.5,-5.5 275.5,-5.5 275.5,-24.5"/>
<text text-anchor="middle" x="186.5" y="-12.5" font-family="Helvetica,sans-Serif" font-size="10.00">src/action/once/ConcatAction.cpp</text>
</a>
</g>
</g>
<!-- Node3&#45;&gt;Node4 -->
<g id="edge3" class="edge">
<title>Node3&#45;&gt;Node4</title>
<path fill="none" stroke="#63b8ff" d="M229.66,-63.62C218.5,-51.31 203.62,-34.89 194.57,-24.91"/>
<polygon fill="#63b8ff" stroke="#63b8ff" points="227.37,-66.31 236.68,-71.37 232.56,-61.61 227.37,-66.31"/>
</g>
<!-- Node5 -->
<g id="node5" class="node">
<title>Node5</title>
<g id="a_node5"><a xlink:href="main_8cpp.html" target="_top" xlink:title=" ">
<polygon fill="white" stroke="#666666" points="1387,-24.5 1308,-24.5 1308,-5.5 1387,-5.5 1387,-24.5"/>
<text text-anchor="middle" x="1347.5" y="-12.5" font-family="Helvetica,sans-Serif" font-size="10.00">src/main.cpp</text>
</a>
</g>
</g>
<!-- Node3&#45;&gt;Node5 -->
<g id="edge4" class="edge">
<title>Node3&#45;&gt;Node5</title>
<path fill="none" stroke="#63b8ff" d="M303.46,-70.01C314.42,-68.45 325.79,-67.01 336.5,-66 762.46,-25.75 875.96,-97.26 1298.5,-30 1306.28,-28.76 1314.57,-26.69 1322.08,-24.52"/>
<polygon fill="#63b8ff" stroke="#63b8ff" points="302.93,-66.55 293.55,-71.48 303.96,-73.48 302.93,-66.55"/>
</g>
<!-- Node6&#45;&gt;Node5 -->
<g id="edge7" class="edge">
<title>Node6&#45;&gt;Node5</title>
<path fill="none" stroke="#63b8ff" d="M499.41,-65.89C853.53,-28.31 950.05,-86.81 1298.5,-30 1306.18,-28.75 1314.38,-26.7 1321.82,-24.56"/>
<polygon fill="#63b8ff" stroke="#63b8ff" points="498.96,-62.42 489.4,-66.97 499.71,-69.38 498.96,-62.42"/>
</g>
<!-- Node7 -->
<g id="node7" class="node">
<title>Node7</title>
<g id="a_node7"><a xlink:href="CreateFileAction_8cpp.html" target="_top" xlink:title=" ">
<polygon fill="white" stroke="#666666" points="437,-30 294,-30 294,0 437,0 437,-30"/>
<text text-anchor="start" x="302" y="-18" font-family="Helvetica,sans-Serif" font-size="10.00">src/action/once/CreateFile</text>
<text text-anchor="middle" x="365.5" y="-7" font-family="Helvetica,sans-Serif" font-size="10.00">Action.cpp</text>
</a>
</g>
</g>
<!-- Node6&#45;&gt;Node7 -->
<g id="edge6" class="edge">
<title>Node6&#45;&gt;Node7</title>
<path fill="none" stroke="#63b8ff" d="M399.47,-57.81C392.02,-48.64 383.6,-38.28 377.01,-30.16"/>
<polygon fill="#63b8ff" stroke="#63b8ff" points="396.94,-60.24 405.96,-65.8 402.37,-55.83 396.94,-60.24"/>
</g>
<!-- Node8&#45;&gt;Node5 -->
<g id="edge10" class="edge">
<title>Node8&#45;&gt;Node5</title>
<path fill="none" stroke="#63b8ff" d="M672.24,-65.89C950.17,-36.45 1026.09,-76.14 1298.5,-30 1306.09,-28.71 1314.18,-26.69 1321.55,-24.57"/>
<polygon fill="#63b8ff" stroke="#63b8ff" points="671.83,-62.41 662.27,-66.97 672.58,-69.37 671.83,-62.41"/>
</g>
<!-- Node9 -->
<g id="node9" class="node">
<title>Node9</title>
<g id="a_node9"><a xlink:href="CreateFolderAction_8cpp.html" target="_top" xlink:title=" ">
<polygon fill="white" stroke="#666666" points="610,-30 455,-30 455,0 610,0 610,-30"/>
<text text-anchor="start" x="463" y="-18" font-family="Helvetica,sans-Serif" font-size="10.00">src/action/once/CreateFolder</text>
<text text-anchor="middle" x="532.5" y="-7" font-family="Helvetica,sans-Serif" font-size="10.00">Action.cpp</text>
</a>
</g>
</g>
<!-- Node8&#45;&gt;Node9 -->
<g id="edge9" class="edge">
<title>Node8&#45;&gt;Node9</title>
<path fill="none" stroke="#63b8ff" d="M566.47,-57.81C559.02,-48.64 550.6,-38.28 544.01,-30.16"/>
<polygon fill="#63b8ff" stroke="#63b8ff" points="563.94,-60.24 572.96,-65.8 569.37,-55.83 563.94,-60.24"/>
</g>
<!-- Node10&#45;&gt;Node5 -->
<g id="edge13" class="edge">
<title>Node10&#45;&gt;Node5</title>
<path fill="none" stroke="#63b8ff" d="M855.35,-65.97C1052.94,-43.82 1106.94,-64.78 1298.5,-30 1305.99,-28.64 1313.97,-26.61 1321.28,-24.52"/>
<polygon fill="#63b8ff" stroke="#63b8ff" points="854.75,-62.52 845.22,-67.13 855.55,-69.47 854.75,-62.52"/>
</g>
<!-- Node11 -->
<g id="node11" class="node">
<title>Node11</title>
<g id="a_node11"><a xlink:href="CreateSymlinkAction_8cpp.html" target="_top" xlink:title=" ">
<polygon fill="white" stroke="#666666" points="793,-30 628,-30 628,0 793,0 793,-30"/>
<text text-anchor="start" x="636" y="-18" font-family="Helvetica,sans-Serif" font-size="10.00">src/action/once/CreateSymlink</text>
<text text-anchor="middle" x="710.5" y="-7" font-family="Helvetica,sans-Serif" font-size="10.00">Action.cpp</text>
</a>
</g>
</g>
<!-- Node10&#45;&gt;Node11 -->
<g id="edge12" class="edge">
<title>Node10&#45;&gt;Node11</title>
<path fill="none" stroke="#63b8ff" d="M744.47,-57.81C737.02,-48.64 728.6,-38.28 722.01,-30.16"/>
<polygon fill="#63b8ff" stroke="#63b8ff" points="741.94,-60.24 750.96,-65.8 747.37,-55.83 741.94,-60.24"/>
</g>
<!-- Node12&#45;&gt;Node5 -->
<g id="edge16" class="edge">
<title>Node12&#45;&gt;Node5</title>
<path fill="none" stroke="#63b8ff" d="M1026.02,-65.82C1147.76,-48.36 1181.41,-54.28 1298.5,-30 1305.6,-28.53 1313.18,-26.56 1320.21,-24.57"/>
<polygon fill="#63b8ff" stroke="#63b8ff" points="1025.33,-62.38 1015.94,-67.29 1026.34,-69.31 1025.33,-62.38"/>
</g>
<!-- Node13 -->
<g id="node13" class="node">
<title>Node13</title>
<g id="a_node13"><a xlink:href="CursorDownAction_8cpp.html" target="_top" xlink:title=" ">
<polygon fill="white" stroke="#666666" points="963.5,-30 811.5,-30 811.5,0 963.5,0 963.5,-30"/>
<text text-anchor="start" x="819.5" y="-18" font-family="Helvetica,sans-Serif" font-size="10.00">src/action/once/CursorDown</text>
<text text-anchor="middle" x="887.5" y="-7" font-family="Helvetica,sans-Serif" font-size="10.00">Action.cpp</text>
</a>
</g>
</g>
<!-- Node12&#45;&gt;Node13 -->
<g id="edge15" class="edge">
<title>Node12&#45;&gt;Node13</title>
<path fill="none" stroke="#63b8ff" d="M921.47,-57.81C914.02,-48.64 905.6,-38.28 899.01,-30.16"/>
<polygon fill="#63b8ff" stroke="#63b8ff" points="918.94,-60.24 927.96,-65.8 924.37,-55.83 918.94,-60.24"/>
</g>
<!-- Node14&#45;&gt;Node5 -->
<g id="edge19" class="edge">
<title>Node14&#45;&gt;Node5</title>
<path fill="none" stroke="#63b8ff" d="M1169.14,-63.5C1207.12,-53.97 1255.55,-41.61 1298.5,-30 1304.91,-28.27 1311.76,-26.35 1318.26,-24.5"/>
<polygon fill="#63b8ff" stroke="#63b8ff" points="1168.07,-60.16 1159.22,-65.99 1169.77,-66.95 1168.07,-60.16"/>
</g>
<!-- Node15 -->
<g id="node15" class="node">
<title>Node15</title>
<g id="a_node15"><a xlink:href="CursorUpAction_8cpp.html" target="_top" xlink:title=" ">
<polygon fill="white" stroke="#666666" points="1119.5,-30 981.5,-30 981.5,0 1119.5,0 1119.5,-30"/>
<text text-anchor="start" x="989.5" y="-18" font-family="Helvetica,sans-Serif" font-size="10.00">src/action/once/CursorUp</text>
<text text-anchor="middle" x="1050.5" y="-7" font-family="Helvetica,sans-Serif" font-size="10.00">Action.cpp</text>
</a>
</g>
</g>
<!-- Node14&#45;&gt;Node15 -->
<g id="edge18" class="edge">
<title>Node14&#45;&gt;Node15</title>
<path fill="none" stroke="#63b8ff" d="M1084.47,-57.81C1077.02,-48.64 1068.6,-38.28 1062.01,-30.16"/>
<polygon fill="#63b8ff" stroke="#63b8ff" points="1081.94,-60.24 1090.96,-65.8 1087.37,-55.83 1081.94,-60.24"/>
</g>
<!-- Node16&#45;&gt;Node5 -->
<g id="edge22" class="edge">
<title>Node16&#45;&gt;Node5</title>
<path fill="none" stroke="#63b8ff" d="M1291.66,-59.58C1306.66,-47.87 1324.73,-33.77 1336.17,-24.84"/>
<polygon fill="#63b8ff" stroke="#63b8ff" points="1289.43,-56.88 1283.7,-65.8 1293.74,-62.4 1289.43,-56.88"/>
</g>
<!-- Node17 -->
<g id="node17" class="node">
<title>Node17</title>
<g id="a_node17"><a xlink:href="DeduplicateAction_8cpp.html" target="_top" xlink:title=" ">
<polygon fill="white" stroke="#666666" points="1289.5,-30 1137.5,-30 1137.5,0 1289.5,0 1289.5,-30"/>
<text text-anchor="start" x="1145.5" y="-18" font-family="Helvetica,sans-Serif" font-size="10.00">src/action/once/Deduplicate</text>
<text text-anchor="middle" x="1213.5" y="-7" font-family="Helvetica,sans-Serif" font-size="10.00">Action.cpp</text>
</a>
</g>
</g>
<!-- Node16&#45;&gt;Node17 -->
<g id="edge21" class="edge">
<title>Node16&#45;&gt;Node17</title>
<path fill="none" stroke="#63b8ff" d="M1247.47,-57.81C1240.02,-48.64 1231.6,-38.28 1225.01,-30.16"/>
<polygon fill="#63b8ff" stroke="#63b8ff" points="1244.94,-60.24 1253.96,-65.8 1250.37,-55.83 1244.94,-60.24"/>
</g>
<!-- Node18&#45;&gt;Node5 -->
<g id="edge25" class="edge">
<title>Node18&#45;&gt;Node5</title>
<path fill="none" stroke="#63b8ff" d="M1423.05,-65.85C1403.99,-53.27 1376.71,-35.28 1360.68,-24.7"/>
<polygon fill="#63b8ff" stroke="#63b8ff" points="1421.14,-68.78 1431.42,-71.37 1425,-62.94 1421.14,-68.78"/>
</g>
<!-- Node19 -->
<g id="node19" class="node">
<title>Node19</title>
<g id="a_node19"><a xlink:href="GoBackAction_8cpp.html" target="_top" xlink:title=" ">
<polygon fill="white" stroke="#666666" points="1587.5,-24.5 1405.5,-24.5 1405.5,-5.5 1587.5,-5.5 1587.5,-24.5"/>
<text text-anchor="middle" x="1496.5" y="-12.5" font-family="Helvetica,sans-Serif" font-size="10.00">src/action/once/GoBackAction.cpp</text>
</a>
</g>
</g>
<!-- Node18&#45;&gt;Node19 -->
<g id="edge24" class="edge">
<title>Node18&#45;&gt;Node19</title>
<path fill="none" stroke="#63b8ff" d="M1458.1,-63.27C1468.07,-50.99 1481.23,-34.8 1489.26,-24.91"/>
<polygon fill="#63b8ff" stroke="#63b8ff" points="1455.1,-61.4 1451.51,-71.37 1460.54,-65.81 1455.1,-61.4"/>
</g>
<!-- Node20&#45;&gt;Node5 -->
<g id="edge28" class="edge">
<title>Node20&#45;&gt;Node5</title>
<path fill="none" stroke="#63b8ff" d="M1547.07,-63.93C1502.53,-54.7 1446.27,-42.48 1396.5,-30 1389.89,-28.34 1382.83,-26.42 1376.18,-24.53"/>
<polygon fill="#63b8ff" stroke="#63b8ff" points="1546.46,-67.38 1556.96,-65.98 1547.88,-60.53 1546.46,-67.38"/>
</g>
<!-- Node21 -->
<g id="node21" class="node">
<title>Node21</title>
<g id="a_node21"><a xlink:href="ManualSelectAction_8cpp.html" target="_top" xlink:title=" ">
<polygon fill="white" stroke="#666666" points="1765,-30 1606,-30 1606,0 1765,0 1765,-30"/>
<text text-anchor="start" x="1614" y="-18" font-family="Helvetica,sans-Serif" font-size="10.00">src/action/once/ManualSelect</text>
<text text-anchor="middle" x="1685.5" y="-7" font-family="Helvetica,sans-Serif" font-size="10.00">Action.cpp</text>
</a>
</g>
</g>
<!-- Node20&#45;&gt;Node21 -->
<g id="edge27" class="edge">
<title>Node20&#45;&gt;Node21</title>
<path fill="none" stroke="#63b8ff" d="M1647.1,-58.37C1655.54,-49.06 1665.16,-38.44 1672.66,-30.16"/>
<polygon fill="#63b8ff" stroke="#63b8ff" points="1644.49,-56.04 1640.37,-65.8 1649.68,-60.74 1644.49,-56.04"/>
</g>
<!-- Node22&#45;&gt;Node5 -->
<g id="edge31" class="edge">
<title>Node22&#45;&gt;Node5</title>
<path fill="none" stroke="#63b8ff" d="M1743.03,-69.89C1734.14,-68.51 1725.09,-67.17 1716.5,-66 1574.7,-46.63 1536.9,-57.75 1396.5,-30 1389.21,-28.56 1381.43,-26.56 1374.26,-24.52"/>
<polygon fill="#63b8ff" stroke="#63b8ff" points="1742.53,-73.35 1752.96,-71.45 1743.62,-66.44 1742.53,-73.35"/>
</g>
<!-- Node23 -->
<g id="node23" class="node">
<title>Node23</title>
<g id="a_node23"><a xlink:href="OpenAction_8cpp.html" target="_top" xlink:title=" ">
<polygon fill="white" stroke="#666666" points="1953.5,-24.5 1783.5,-24.5 1783.5,-5.5 1953.5,-5.5 1953.5,-24.5"/>
<text text-anchor="middle" x="1868.5" y="-12.5" font-family="Helvetica,sans-Serif" font-size="10.00">src/action/once/OpenAction.cpp</text>
</a>
</g>
</g>
<!-- Node22&#45;&gt;Node23 -->
<g id="edge30" class="edge">
<title>Node22&#45;&gt;Node23</title>
<path fill="none" stroke="#63b8ff" d="M1819.42,-64.33C1832,-51.94 1849.12,-35.09 1859.46,-24.91"/>
<polygon fill="#63b8ff" stroke="#63b8ff" points="1816.94,-61.86 1812.27,-71.37 1821.85,-66.85 1816.94,-61.86"/>
</g>
<!-- Node24&#45;&gt;Node5 -->
<g id="edge34" class="edge">
<title>Node24&#45;&gt;Node5</title>
<path fill="none" stroke="#63b8ff" d="M1919.75,-69.88C1910.33,-68.43 1900.66,-67.08 1891.5,-66 1672.43,-40.25 1613.69,-68.5 1396.5,-30 1389.01,-28.67 1381.02,-26.66 1373.71,-24.56"/>
<polygon fill="#63b8ff" stroke="#63b8ff" points="1919.42,-73.37 1929.84,-71.47 1920.51,-66.45 1919.42,-73.37"/>
</g>
<!-- Node25 -->
<g id="node25" class="node">
<title>Node25</title>
<g id="a_node25"><a xlink:href="QuitAction_8cpp.html" target="_top" xlink:title=" ">
<polygon fill="white" stroke="#666666" points="2135.5,-24.5 1971.5,-24.5 1971.5,-5.5 2135.5,-5.5 2135.5,-24.5"/>
<text text-anchor="middle" x="2053.5" y="-12.5" font-family="Helvetica,sans-Serif" font-size="10.00">src/action/once/QuitAction.cpp</text>
</a>
</g>
</g>
<!-- Node24&#45;&gt;Node25 -->
<g id="edge33" class="edge">
<title>Node24&#45;&gt;Node25</title>
<path fill="none" stroke="#63b8ff" d="M1995.69,-64.68C2010.44,-52.26 2030.72,-35.18 2042.93,-24.91"/>
<polygon fill="#63b8ff" stroke="#63b8ff" points="1993.14,-62.25 1987.75,-71.37 1997.65,-67.6 1993.14,-62.25"/>
</g>
<!-- Node26&#45;&gt;Node5 -->
<g id="edge37" class="edge">
<title>Node26&#45;&gt;Node5</title>
<path fill="none" stroke="#63b8ff" d="M2062.05,-65.93C1766.54,-35.1 1686,-78.54 1396.5,-30 1388.82,-28.71 1380.63,-26.66 1373.19,-24.51"/>
<polygon fill="#63b8ff" stroke="#63b8ff" points="2061.88,-69.44 2072.2,-67.01 2062.62,-62.48 2061.88,-69.44"/>
</g>
<!-- Node27 -->
<g id="node27" class="node">
<title>Node27</title>
<g id="a_node27"><a xlink:href="RegexSelectAction_8cpp.html" target="_top" xlink:title=" ">
<polygon fill="white" stroke="#666666" points="2307.5,-30 2153.5,-30 2153.5,0 2307.5,0 2307.5,-30"/>
<text text-anchor="start" x="2161.5" y="-18" font-family="Helvetica,sans-Serif" font-size="10.00">src/action/once/RegexSelect</text>
<text text-anchor="middle" x="2230.5" y="-7" font-family="Helvetica,sans-Serif" font-size="10.00">Action.cpp</text>
</a>
</g>
</g>
<!-- Node26&#45;&gt;Node27 -->
<g id="edge36" class="edge">
<title>Node26&#45;&gt;Node27</title>
<path fill="none" stroke="#63b8ff" d="M2175.47,-59.48C2187.58,-49.91 2201.68,-38.77 2212.57,-30.16"/>
<polygon fill="#63b8ff" stroke="#63b8ff" points="2173.15,-56.85 2167.48,-65.8 2177.49,-62.34 2173.15,-56.85"/>
</g>
<!-- Node28&#45;&gt;Node5 -->
<g id="edge40" class="edge">
<title>Node28&#45;&gt;Node5</title>
<path fill="none" stroke="#63b8ff" d="M2234.19,-65.97C1862.81,-25.66 1761.69,-89.16 1396.5,-30 1388.81,-28.76 1380.62,-26.71 1373.18,-24.57"/>
<polygon fill="#63b8ff" stroke="#63b8ff" points="2233.81,-69.45 2244.14,-67.07 2234.58,-62.49 2233.81,-69.45"/>
</g>
<!-- Node29 -->
<g id="node29" class="node">
<title>Node29</title>
<g id="a_node29"><a xlink:href="SelectByContentAction_8cpp.html" target="_top" xlink:title=" ">
<polygon fill="white" stroke="#666666" points="2461.5,-30 2325.5,-30 2325.5,0 2461.5,0 2461.5,-30"/>
<text text-anchor="start" x="2333.5" y="-18" font-family="Helvetica,sans-Serif" font-size="10.00">src/action/once/SelectBy</text>
<text text-anchor="middle" x="2393.5" y="-7" font-family="Helvetica,sans-Serif" font-size="10.00">ContentAction.cpp</text>
</a>
</g>
</g>
<!-- Node28&#45;&gt;Node29 -->
<g id="edge39" class="edge">
<title>Node28&#45;&gt;Node29</title>
<path fill="none" stroke="#63b8ff" d="M2338.47,-59.48C2350.58,-49.91 2364.68,-38.77 2375.57,-30.16"/>
<polygon fill="#63b8ff" stroke="#63b8ff" points="2336.15,-56.85 2330.48,-65.8 2340.49,-62.34 2336.15,-56.85"/>
</g>
<!-- Node30&#45;&gt;Node5 -->
<g id="edge43" class="edge">
<title>Node30&#45;&gt;Node5</title>
<path fill="none" stroke="#63b8ff" d="M2388.03,-65.96C1948.65,-19.59 1829.37,-98.64 1396.5,-30 1388.72,-28.77 1380.43,-26.7 1372.92,-24.53"/>
<polygon fill="#63b8ff" stroke="#63b8ff" points="2387.82,-69.46 2398.14,-67.05 2388.57,-62.5 2387.82,-69.46"/>
</g>
<!-- Node31 -->
<g id="node31" class="node">
<title>Node31</title>
<g id="a_node31"><a xlink:href="UnselectAllAction_8cpp.html" target="_top" xlink:title=" ">
<polygon fill="white" stroke="#666666" points="2615.5,-30 2479.5,-30 2479.5,0 2615.5,0 2615.5,-30"/>
<text text-anchor="start" x="2487.5" y="-18" font-family="Helvetica,sans-Serif" font-size="10.00">src/action/once/Unselect</text>
<text text-anchor="middle" x="2547.5" y="-7" font-family="Helvetica,sans-Serif" font-size="10.00">AllAction.cpp</text>
</a>
</g>
</g>
<!-- Node30&#45;&gt;Node31 -->
<g id="edge42" class="edge">
<title>Node30&#45;&gt;Node31</title>
<path fill="none" stroke="#63b8ff" d="M2492.47,-59.48C2504.58,-49.91 2518.68,-38.77 2529.57,-30.16"/>
<polygon fill="#63b8ff" stroke="#63b8ff" points="2490.15,-56.85 2484.48,-65.8 2494.49,-62.34 2490.15,-56.85"/>
</g>
</g>
</svg>
