<?xml version="1.0" encoding="UTF-8" standalone="no"?>
<!DOCTYPE svg PUBLIC "-//W3C//DTD SVG 1.1//EN"
 "http://www.w3.org/Graphics/SVG/1.1/DTD/svg11.dtd">
<!-- Generated by graphviz version 2.43.0 (0)
 -->
<!-- Title: src/action/once/OpenAction.h Pages: 1 -->
<svg width="321pt" height="357pt"
 viewBox="0.00 0.00 321.00 357.00" xmlns="http://www.w3.org/2000/svg" xmlns:xlink="http://www.w3.org/1999/xlink">
<g id="graph0" class="graph" transform="scale(1 1) rotate(0) translate(4 353)">
<title>src/action/once/OpenAction.h</title>
<!-- Node1 -->
<g id="node1" class="node">
<title>Node1</title>
<g id="a_node1"><a xlink:title=" ">
<polygon fill="#999999" stroke="#666666" points="158,-349 0,-349 0,-330 158,-330 158,-349"/>
<text text-anchor="middle" x="79" y="-337" font-family="Helvetica,sans-Serif" font-size="10.00">src/action/once/OpenAction.h</text>
</a>
</g>
</g>
<!-- Node2 -->
<g id="node2" class="node">
<title>Node2</title>
<g id="a_node2"><a xlink:href="OnceAction_8h.html" target="_top" xlink:title=" ">
<polygon fill="white" stroke="#666666" points="124,-294 34,-294 34,-275 124,-275 124,-294"/>
<text text-anchor="middle" x="79" y="-282" font-family="Helvetica,sans-Serif" font-size="10.00">../OnceAction.h</text>
</a>
</g>
</g>
<!-- Node1&#45;&gt;Node2 -->
<g id="edge1" class="edge">
<title>Node1&#45;&gt;Node2</title>
<path fill="none" stroke="#63b8ff" d="M79,-329.75C79,-322.8 79,-312.85 79,-304.13"/>
<polygon fill="#63b8ff" stroke="#63b8ff" points="82.5,-304.09 79,-294.09 75.5,-304.09 82.5,-304.09"/>
</g>
<!-- Node3 -->
<g id="node3" class="node">
<title>Node3</title>
<g id="a_node3"><a xlink:href="Action_8h.html" target="_top" xlink:title=" ">
<polygon fill="white" stroke="#666666" points="107,-239 51,-239 51,-220 107,-220 107,-239"/>
<text text-anchor="middle" x="79" y="-227" font-family="Helvetica,sans-Serif" font-size="10.00">Action.h</text>
</a>
</g>
</g>
<!-- Node2&#45;&gt;Node3 -->
<g id="edge2" class="edge">
<title>Node2&#45;&gt;Node3</title>
<path fill="none" stroke="#63b8ff" d="M79,-274.75C79,-267.8 79,-257.85 79,-249.13"/>
<polygon fill="#63b8ff" stroke="#63b8ff" points="82.5,-249.09 79,-239.09 75.5,-249.09 82.5,-249.09"/>
</g>
<!-- Node4 -->
<g id="node4" class="node">
<title>Node4</title>
<g id="a_node4"><a xlink:title=" ">
<polygon fill="#e0e0e0" stroke="#999999" points="76.5,-129 29.5,-129 29.5,-110 76.5,-110 76.5,-129"/>
<text text-anchor="middle" x="53" y="-117" font-family="Helvetica,sans-Serif" font-size="10.00">vector</text>
</a>
</g>
</g>
<!-- Node3&#45;&gt;Node4 -->
<g id="edge3" class="edge">
<title>Node3&#45;&gt;Node4</title>
<path fill="none" stroke="#63b8ff" d="M75.9,-219.72C72.83,-210.81 68.15,-196.57 65,-184 61.28,-169.17 58.12,-152.13 55.98,-139.44"/>
<polygon fill="#63b8ff" stroke="#63b8ff" points="59.37,-138.51 54.31,-129.2 52.46,-139.63 59.37,-138.51"/>
</g>
<!-- Node5 -->
<g id="node5" class="node">
<title>Node5</title>
<g id="a_node5"><a xlink:title=" ">
<polygon fill="#e0e0e0" stroke="#999999" points="139,-19 71,-19 71,0 139,0 139,-19"/>
<text text-anchor="middle" x="105" y="-7" font-family="Helvetica,sans-Serif" font-size="10.00">filesystem</text>
</a>
</g>
</g>
<!-- Node3&#45;&gt;Node5 -->
<g id="edge4" class="edge">
<title>Node3&#45;&gt;Node5</title>
<path fill="none" stroke="#63b8ff" d="M69.17,-219.87C48.6,-200.71 4.17,-152.91 20,-110 33.06,-74.59 64.96,-43.24 85.75,-25.59"/>
<polygon fill="#63b8ff" stroke="#63b8ff" points="88.14,-28.16 93.64,-19.1 83.69,-22.76 88.14,-28.16"/>
</g>
<!-- Node6 -->
<g id="node6" class="node">
<title>Node6</title>
<g id="a_node6"><a xlink:href="FileView_8h.html" target="_top" xlink:title=" ">
<polygon fill="white" stroke="#666666" points="149.5,-184 74.5,-184 74.5,-165 149.5,-165 149.5,-184"/>
<text text-anchor="middle" x="112" y="-172" font-family="Helvetica,sans-Serif" font-size="10.00">../FileView.h</text>
</a>
</g>
</g>
<!-- Node3&#45;&gt;Node6 -->
<g id="edge5" class="edge">
<title>Node3&#45;&gt;Node6</title>
<path fill="none" stroke="#63b8ff" d="M84.45,-219.75C89.01,-212.42 95.67,-201.73 101.29,-192.7"/>
<polygon fill="#63b8ff" stroke="#63b8ff" points="104.34,-194.43 106.65,-184.09 98.4,-190.73 104.34,-194.43"/>
</g>
<!-- Node9 -->
<g id="node9" class="node">
<title>Node9</title>
<g id="a_node9"><a xlink:href="State_8h.html" target="_top" xlink:title=" ">
<polygon fill="white" stroke="#666666" points="247,-184 187,-184 187,-165 247,-165 247,-184"/>
<text text-anchor="middle" x="217" y="-172" font-family="Helvetica,sans-Serif" font-size="10.00">../State.h</text>
</a>
</g>
</g>
<!-- Node3&#45;&gt;Node9 -->
<g id="edge11" class="edge">
<title>Node3&#45;&gt;Node9</title>
<path fill="none" stroke="#63b8ff" d="M101.17,-219.98C123.77,-211.3 159.06,-197.75 184.75,-187.88"/>
<polygon fill="#63b8ff" stroke="#63b8ff" points="186.34,-191.02 194.42,-184.17 183.83,-184.49 186.34,-191.02"/>
</g>
<!-- Node6&#45;&gt;Node4 -->
<g id="edge6" class="edge">
<title>Node6&#45;&gt;Node4</title>
<path fill="none" stroke="#63b8ff" d="M102.52,-164.98C93.8,-157.15 80.66,-145.34 70.1,-135.86"/>
<polygon fill="#63b8ff" stroke="#63b8ff" points="72.43,-133.25 62.65,-129.17 67.75,-138.46 72.43,-133.25"/>
</g>
<!-- Node6&#45;&gt;Node5 -->
<g id="edge7" class="edge">
<title>Node6&#45;&gt;Node5</title>
<path fill="none" stroke="#63b8ff" d="M111.62,-164.74C110.53,-139.31 107.34,-65.08 105.82,-29.69"/>
<polygon fill="#63b8ff" stroke="#63b8ff" points="109.3,-29.15 105.38,-19.31 102.31,-29.45 109.3,-29.15"/>
</g>
<!-- Node7 -->
<g id="node7" class="node">
<title>Node7</title>
<g id="a_node7"><a xlink:href="Entry_8h.html" target="_top" xlink:title=" ">
<polygon fill="white" stroke="#666666" points="237,-74 159,-74 159,-55 237,-55 237,-74"/>
<text text-anchor="middle" x="198" y="-62" font-family="Helvetica,sans-Serif" font-size="10.00">entry/Entry.h</text>
</a>
</g>
</g>
<!-- Node6&#45;&gt;Node7 -->
<g id="edge8" class="edge">
<title>Node6&#45;&gt;Node7</title>
<path fill="none" stroke="#63b8ff" d="M118.76,-164.84C128.33,-152.6 146.42,-129.52 162,-110 169.45,-100.66 177.85,-90.28 184.65,-81.89"/>
<polygon fill="#63b8ff" stroke="#63b8ff" points="187.47,-83.97 191.07,-74 182.04,-79.56 187.47,-83.97"/>
</g>
<!-- Node7&#45;&gt;Node5 -->
<g id="edge9" class="edge">
<title>Node7&#45;&gt;Node5</title>
<path fill="none" stroke="#63b8ff" d="M183.06,-54.98C168.5,-46.69 146.13,-33.94 129.07,-24.22"/>
<polygon fill="#63b8ff" stroke="#63b8ff" points="130.64,-21.08 120.21,-19.17 127.17,-27.16 130.64,-21.08"/>
</g>
<!-- Node8 -->
<g id="node8" class="node">
<title>Node8</title>
<g id="a_node8"><a xlink:href="Modifier_8h.html" target="_top" xlink:title=" ">
<polygon fill="white" stroke="#666666" points="230.5,-19 165.5,-19 165.5,0 230.5,0 230.5,-19"/>
<text text-anchor="middle" x="198" y="-7" font-family="Helvetica,sans-Serif" font-size="10.00">Modifier.h</text>
</a>
</g>
</g>
<!-- Node7&#45;&gt;Node8 -->
<g id="edge10" class="edge">
<title>Node7&#45;&gt;Node8</title>
<path fill="none" stroke="#63b8ff" d="M198,-54.75C198,-47.8 198,-37.85 198,-29.13"/>
<polygon fill="#63b8ff" stroke="#63b8ff" points="201.5,-29.09 198,-19.09 194.5,-29.09 201.5,-29.09"/>
</g>
<!-- Node9&#45;&gt;Node7 -->
<g id="edge13" class="edge">
<title>Node9&#45;&gt;Node7</title>
<path fill="none" stroke="#63b8ff" d="M216.93,-164.79C216.7,-152.47 215.75,-129.32 212,-110 210.3,-101.25 207.48,-91.81 204.81,-83.88"/>
<polygon fill="#63b8ff" stroke="#63b8ff" points="208.03,-82.47 201.39,-74.21 201.43,-84.81 208.03,-82.47"/>
</g>
<!-- Node10 -->
<g id="node10" class="node">
<title>Node10</title>
<g id="a_node10"><a xlink:title=" ">
<polygon fill="#e0e0e0" stroke="#999999" points="203,-129 171,-129 171,-110 203,-110 203,-129"/>
<text text-anchor="middle" x="187" y="-117" font-family="Helvetica,sans-Serif" font-size="10.00">set</text>
</a>
</g>
</g>
<!-- Node9&#45;&gt;Node10 -->
<g id="edge12" class="edge">
<title>Node9&#45;&gt;Node10</title>
<path fill="none" stroke="#63b8ff" d="M212.05,-164.75C207.94,-157.49 201.97,-146.95 196.9,-137.98"/>
<polygon fill="#63b8ff" stroke="#63b8ff" points="199.83,-136.07 191.86,-129.09 193.74,-139.52 199.83,-136.07"/>
</g>
<!-- Node11 -->
<g id="node11" class="node">
<title>Node11</title>
<g id="a_node11"><a xlink:href="Utility_8h.html" target="_top" xlink:title=" ">
<polygon fill="white" stroke="#666666" points="313,-129 259,-129 259,-110 313,-110 313,-129"/>
<text text-anchor="middle" x="286" y="-117" font-family="Helvetica,sans-Serif" font-size="10.00">Utility.h</text>
</a>
</g>
</g>
<!-- Node9&#45;&gt;Node11 -->
<g id="edge14" class="edge">
<title>Node9&#45;&gt;Node11</title>
<path fill="none" stroke="#63b8ff" d="M228.09,-164.98C238.49,-157 254.26,-144.88 266.72,-135.31"/>
<polygon fill="#63b8ff" stroke="#63b8ff" points="268.91,-138.04 274.71,-129.17 264.65,-132.49 268.91,-138.04"/>
</g>
<!-- Node11&#45;&gt;Node7 -->
<g id="edge16" class="edge">
<title>Node11&#45;&gt;Node7</title>
<path fill="none" stroke="#63b8ff" d="M271.86,-109.98C258.21,-101.77 237.31,-89.18 221.22,-79.49"/>
<polygon fill="#63b8ff" stroke="#63b8ff" points="222.77,-76.33 212.4,-74.17 219.16,-82.33 222.77,-76.33"/>
</g>
<!-- Node12 -->
<g id="node12" class="node">
<title>Node12</title>
<g id="a_node12"><a xlink:title=" ">
<polygon fill="#e0e0e0" stroke="#999999" points="308,-74 264,-74 264,-55 308,-55 308,-74"/>
<text text-anchor="middle" x="286" y="-62" font-family="Helvetica,sans-Serif" font-size="10.00">string</text>
</a>
</g>
</g>
<!-- Node11&#45;&gt;Node12 -->
<g id="edge15" class="edge">
<title>Node11&#45;&gt;Node12</title>
<path fill="none" stroke="#63b8ff" d="M286,-109.75C286,-102.8 286,-92.85 286,-84.13"/>
<polygon fill="#63b8ff" stroke="#63b8ff" points="289.5,-84.09 286,-74.09 282.5,-84.09 289.5,-84.09"/>
</g>
</g>
</svg>
