<?xml version="1.0" encoding="UTF-8" standalone="no"?>
<!DOCTYPE svg PUBLIC "-//W3C//DTD SVG 1.1//EN"
 "http://www.w3.org/Graphics/SVG/1.1/DTD/svg11.dtd">
<!-- Generated by graphviz version 2.43.0 (0)
 -->
<!-- Title: src/action/once/OpenAction.cpp Pages: 1 -->
<svg width="344pt" height="412pt"
 viewBox="0.00 0.00 344.00 412.00" xmlns="http://www.w3.org/2000/svg" xmlns:xlink="http://www.w3.org/1999/xlink">
<g id="graph0" class="graph" transform="scale(1 1) rotate(0) translate(4 408)">
<title>src/action/once/OpenAction.cpp</title>
<!-- Node1 -->
<g id="node1" class="node">
<title>Node1</title>
<g id="a_node1"><a xlink:title=" ">
<polygon fill="#999999" stroke="#666666" points="294,-404 124,-404 124,-385 294,-385 294,-404"/>
<text text-anchor="middle" x="209" y="-392" font-family="Helvetica,sans-Serif" font-size="10.00">src/action/once/OpenAction.cpp</text>
</a>
</g>
</g>
<!-- Node2 -->
<g id="node2" class="node">
<title>Node2</title>
<g id="a_node2"><a xlink:href="OpenAction_8h.html" target="_top" xlink:title=" ">
<polygon fill="white" stroke="#666666" points="191,-349 109,-349 109,-330 191,-330 191,-349"/>
<text text-anchor="middle" x="150" y="-337" font-family="Helvetica,sans-Serif" font-size="10.00">OpenAction.h</text>
</a>
</g>
</g>
<!-- Node1&#45;&gt;Node2 -->
<g id="edge1" class="edge">
<title>Node1&#45;&gt;Node2</title>
<path fill="none" stroke="#63b8ff" d="M199.52,-384.98C190.8,-377.15 177.66,-365.34 167.1,-355.86"/>
<polygon fill="#63b8ff" stroke="#63b8ff" points="169.43,-353.25 159.65,-349.17 164.75,-358.46 169.43,-353.25"/>
</g>
<!-- Node14 -->
<g id="node14" class="node">
<title>Node14</title>
<g id="a_node14"><a xlink:href="Modal_8h.html" target="_top" xlink:title=" ">
<polygon fill="white" stroke="#666666" points="334,-349 214,-349 214,-330 334,-330 334,-349"/>
<text text-anchor="middle" x="274" y="-337" font-family="Helvetica,sans-Serif" font-size="10.00">../../interface/Modal.h</text>
</a>
</g>
</g>
<!-- Node1&#45;&gt;Node14 -->
<g id="edge18" class="edge">
<title>Node1&#45;&gt;Node14</title>
<path fill="none" stroke="#63b8ff" d="M219.44,-384.98C229.15,-377.07 243.82,-365.11 255.5,-355.58"/>
<polygon fill="#63b8ff" stroke="#63b8ff" points="257.83,-358.2 263.37,-349.17 253.4,-352.78 257.83,-358.2"/>
</g>
<!-- Node3 -->
<g id="node3" class="node">
<title>Node3</title>
<g id="a_node3"><a xlink:href="OnceAction_8h.html" target="_top" xlink:title=" ">
<polygon fill="white" stroke="#666666" points="186,-294 96,-294 96,-275 186,-275 186,-294"/>
<text text-anchor="middle" x="141" y="-282" font-family="Helvetica,sans-Serif" font-size="10.00">../OnceAction.h</text>
</a>
</g>
</g>
<!-- Node2&#45;&gt;Node3 -->
<g id="edge2" class="edge">
<title>Node2&#45;&gt;Node3</title>
<path fill="none" stroke="#63b8ff" d="M148.51,-329.75C147.33,-322.8 145.64,-312.85 144.16,-304.13"/>
<polygon fill="#63b8ff" stroke="#63b8ff" points="147.58,-303.36 142.46,-294.09 140.68,-304.53 147.58,-303.36"/>
</g>
<!-- Node4 -->
<g id="node4" class="node">
<title>Node4</title>
<g id="a_node4"><a xlink:href="Action_8h.html" target="_top" xlink:title=" ">
<polygon fill="white" stroke="#666666" points="166,-239 110,-239 110,-220 166,-220 166,-239"/>
<text text-anchor="middle" x="138" y="-227" font-family="Helvetica,sans-Serif" font-size="10.00">Action.h</text>
</a>
</g>
</g>
<!-- Node3&#45;&gt;Node4 -->
<g id="edge3" class="edge">
<title>Node3&#45;&gt;Node4</title>
<path fill="none" stroke="#63b8ff" d="M140.5,-274.75C140.11,-267.8 139.55,-257.85 139.05,-249.13"/>
<polygon fill="#63b8ff" stroke="#63b8ff" points="142.55,-248.88 138.49,-239.09 135.56,-249.27 142.55,-248.88"/>
</g>
<!-- Node5 -->
<g id="node5" class="node">
<title>Node5</title>
<g id="a_node5"><a xlink:title=" ">
<polygon fill="#e0e0e0" stroke="#999999" points="147.5,-129 100.5,-129 100.5,-110 147.5,-110 147.5,-129"/>
<text text-anchor="middle" x="124" y="-117" font-family="Helvetica,sans-Serif" font-size="10.00">vector</text>
</a>
</g>
</g>
<!-- Node4&#45;&gt;Node5 -->
<g id="edge4" class="edge">
<title>Node4&#45;&gt;Node5</title>
<path fill="none" stroke="#63b8ff" d="M136.85,-219.66C134.59,-202.17 129.48,-162.8 126.43,-139.27"/>
<polygon fill="#63b8ff" stroke="#63b8ff" points="129.88,-138.63 125.12,-129.16 122.94,-139.53 129.88,-138.63"/>
</g>
<!-- Node6 -->
<g id="node6" class="node">
<title>Node6</title>
<g id="a_node6"><a xlink:title=" ">
<polygon fill="#e0e0e0" stroke="#999999" points="68,-19 0,-19 0,0 68,0 68,-19"/>
<text text-anchor="middle" x="34" y="-7" font-family="Helvetica,sans-Serif" font-size="10.00">filesystem</text>
</a>
</g>
</g>
<!-- Node4&#45;&gt;Node6 -->
<g id="edge5" class="edge">
<title>Node4&#45;&gt;Node6</title>
<path fill="none" stroke="#63b8ff" d="M109.75,-226.11C82.89,-222.17 43.87,-211.71 25,-184 -7.63,-136.08 13.81,-62.32 26.52,-28.53"/>
<polygon fill="#63b8ff" stroke="#63b8ff" points="29.85,-29.63 30.26,-19.05 23.34,-27.06 29.85,-29.63"/>
</g>
<!-- Node7 -->
<g id="node7" class="node">
<title>Node7</title>
<g id="a_node7"><a xlink:href="FileView_8h.html" target="_top" xlink:title=" ">
<polygon fill="white" stroke="#666666" points="109.5,-184 34.5,-184 34.5,-165 109.5,-165 109.5,-184"/>
<text text-anchor="middle" x="72" y="-172" font-family="Helvetica,sans-Serif" font-size="10.00">../FileView.h</text>
</a>
</g>
</g>
<!-- Node4&#45;&gt;Node7 -->
<g id="edge6" class="edge">
<title>Node4&#45;&gt;Node7</title>
<path fill="none" stroke="#63b8ff" d="M127.4,-219.98C117.54,-212.07 102.65,-200.11 90.78,-190.58"/>
<polygon fill="#63b8ff" stroke="#63b8ff" points="92.79,-187.7 82.8,-184.17 88.4,-193.16 92.79,-187.7"/>
</g>
<!-- Node10 -->
<g id="node10" class="node">
<title>Node10</title>
<g id="a_node10"><a xlink:href="State_8h.html" target="_top" xlink:title=" ">
<polygon fill="white" stroke="#666666" points="238,-184 178,-184 178,-165 238,-165 238,-184"/>
<text text-anchor="middle" x="208" y="-172" font-family="Helvetica,sans-Serif" font-size="10.00">../State.h</text>
</a>
</g>
</g>
<!-- Node4&#45;&gt;Node10 -->
<g id="edge12" class="edge">
<title>Node4&#45;&gt;Node10</title>
<path fill="none" stroke="#63b8ff" d="M149.25,-219.98C159.8,-212 175.8,-199.88 188.44,-190.31"/>
<polygon fill="#63b8ff" stroke="#63b8ff" points="190.69,-193 196.55,-184.17 186.46,-187.42 190.69,-193"/>
</g>
<!-- Node7&#45;&gt;Node5 -->
<g id="edge7" class="edge">
<title>Node7&#45;&gt;Node5</title>
<path fill="none" stroke="#63b8ff" d="M80.59,-164.75C88.16,-157.03 99.38,-145.6 108.51,-136.28"/>
<polygon fill="#63b8ff" stroke="#63b8ff" points="111.07,-138.68 115.57,-129.09 106.07,-133.78 111.07,-138.68"/>
</g>
<!-- Node7&#45;&gt;Node6 -->
<g id="edge8" class="edge">
<title>Node7&#45;&gt;Node6</title>
<path fill="none" stroke="#63b8ff" d="M69.96,-164.74C64,-139.2 46.57,-64.43 38.37,-29.23"/>
<polygon fill="#63b8ff" stroke="#63b8ff" points="41.73,-28.25 36.05,-19.31 34.92,-29.84 41.73,-28.25"/>
</g>
<!-- Node8 -->
<g id="node8" class="node">
<title>Node8</title>
<g id="a_node8"><a xlink:href="Entry_8h.html" target="_top" xlink:title=" ">
<polygon fill="white" stroke="#666666" points="186,-74 108,-74 108,-55 186,-55 186,-74"/>
<text text-anchor="middle" x="147" y="-62" font-family="Helvetica,sans-Serif" font-size="10.00">entry/Entry.h</text>
</a>
</g>
</g>
<!-- Node7&#45;&gt;Node8 -->
<g id="edge9" class="edge">
<title>Node7&#45;&gt;Node8</title>
<path fill="none" stroke="#63b8ff" d="M72.9,-165C74.61,-152.12 79.26,-127.34 91,-110 99.24,-97.83 111.83,-87.4 122.99,-79.7"/>
<polygon fill="#63b8ff" stroke="#63b8ff" points="125.06,-82.53 131.52,-74.14 121.23,-76.67 125.06,-82.53"/>
</g>
<!-- Node8&#45;&gt;Node6 -->
<g id="edge10" class="edge">
<title>Node8&#45;&gt;Node6</title>
<path fill="none" stroke="#63b8ff" d="M128.84,-54.98C110.75,-46.5 82.72,-33.35 61.81,-23.54"/>
<polygon fill="#63b8ff" stroke="#63b8ff" points="63.03,-20.25 52.49,-19.17 60.05,-26.59 63.03,-20.25"/>
</g>
<!-- Node9 -->
<g id="node9" class="node">
<title>Node9</title>
<g id="a_node9"><a xlink:href="Modifier_8h.html" target="_top" xlink:title=" ">
<polygon fill="white" stroke="#666666" points="179.5,-19 114.5,-19 114.5,0 179.5,0 179.5,-19"/>
<text text-anchor="middle" x="147" y="-7" font-family="Helvetica,sans-Serif" font-size="10.00">Modifier.h</text>
</a>
</g>
</g>
<!-- Node8&#45;&gt;Node9 -->
<g id="edge11" class="edge">
<title>Node8&#45;&gt;Node9</title>
<path fill="none" stroke="#63b8ff" d="M147,-54.75C147,-47.8 147,-37.85 147,-29.13"/>
<polygon fill="#63b8ff" stroke="#63b8ff" points="150.5,-29.09 147,-19.09 143.5,-29.09 150.5,-29.09"/>
</g>
<!-- Node10&#45;&gt;Node8 -->
<g id="edge14" class="edge">
<title>Node10&#45;&gt;Node8</title>
<path fill="none" stroke="#63b8ff" d="M203.01,-164.66C192.95,-146.85 170.08,-106.37 156.89,-83.01"/>
<polygon fill="#63b8ff" stroke="#63b8ff" points="159.86,-81.14 151.89,-74.16 153.76,-84.59 159.86,-81.14"/>
</g>
<!-- Node11 -->
<g id="node11" class="node">
<title>Node11</title>
<g id="a_node11"><a xlink:title=" ">
<polygon fill="#e0e0e0" stroke="#999999" points="236,-129 204,-129 204,-110 236,-110 236,-129"/>
<text text-anchor="middle" x="220" y="-117" font-family="Helvetica,sans-Serif" font-size="10.00">set</text>
</a>
</g>
</g>
<!-- Node10&#45;&gt;Node11 -->
<g id="edge13" class="edge">
<title>Node10&#45;&gt;Node11</title>
<path fill="none" stroke="#63b8ff" d="M209.98,-164.75C211.57,-157.72 213.86,-147.62 215.85,-138.84"/>
<polygon fill="#63b8ff" stroke="#63b8ff" points="219.26,-139.62 218.06,-129.09 212.43,-138.07 219.26,-139.62"/>
</g>
<!-- Node12 -->
<g id="node12" class="node">
<title>Node12</title>
<g id="a_node12"><a xlink:href="Utility_8h.html" target="_top" xlink:title=" ">
<polygon fill="white" stroke="#666666" points="308,-129 254,-129 254,-110 308,-110 308,-129"/>
<text text-anchor="middle" x="281" y="-117" font-family="Helvetica,sans-Serif" font-size="10.00">Utility.h</text>
</a>
</g>
</g>
<!-- Node10&#45;&gt;Node12 -->
<g id="edge15" class="edge">
<title>Node10&#45;&gt;Node12</title>
<path fill="none" stroke="#63b8ff" d="M219.73,-164.98C230.73,-157 247.42,-144.88 260.6,-135.31"/>
<polygon fill="#63b8ff" stroke="#63b8ff" points="263.02,-137.88 269.06,-129.17 258.91,-132.21 263.02,-137.88"/>
</g>
<!-- Node12&#45;&gt;Node8 -->
<g id="edge17" class="edge">
<title>Node12&#45;&gt;Node8</title>
<path fill="none" stroke="#63b8ff" d="M259.47,-109.98C237.53,-101.3 203.26,-87.75 178.31,-77.88"/>
<polygon fill="#63b8ff" stroke="#63b8ff" points="179.51,-74.59 168.92,-74.17 176.93,-81.1 179.51,-74.59"/>
</g>
<!-- Node13 -->
<g id="node13" class="node">
<title>Node13</title>
<g id="a_node13"><a xlink:title=" ">
<polygon fill="#e0e0e0" stroke="#999999" points="330,-74 286,-74 286,-55 330,-55 330,-74"/>
<text text-anchor="middle" x="308" y="-62" font-family="Helvetica,sans-Serif" font-size="10.00">string</text>
</a>
</g>
</g>
<!-- Node12&#45;&gt;Node13 -->
<g id="edge16" class="edge">
<title>Node12&#45;&gt;Node13</title>
<path fill="none" stroke="#63b8ff" d="M285.46,-109.75C289.12,-102.57 294.41,-92.18 298.95,-83.27"/>
<polygon fill="#63b8ff" stroke="#63b8ff" points="302.2,-84.59 303.62,-74.09 295.97,-81.41 302.2,-84.59"/>
</g>
<!-- Node14&#45;&gt;Node13 -->
<g id="edge19" class="edge">
<title>Node14&#45;&gt;Node13</title>
<path fill="none" stroke="#63b8ff" d="M284.08,-329.9C293.28,-321.56 306.69,-308.12 315,-294 330.08,-268.38 336,-260.23 336,-230.5 336,-230.5 336,-230.5 336,-173.5 336,-141.02 323.99,-104.76 315.7,-83.6"/>
<polygon fill="#63b8ff" stroke="#63b8ff" points="318.91,-82.2 311.89,-74.26 312.43,-84.84 318.91,-82.2"/>
</g>
<!-- Node15 -->
<g id="node15" class="node">
<title>Node15</title>
<g id="a_node15"><a xlink:title=" ">
<polygon fill="#e0e0e0" stroke="#999999" points="305.5,-294 242.5,-294 242.5,-275 305.5,-275 305.5,-294"/>
<text text-anchor="middle" x="274" y="-282" font-family="Helvetica,sans-Serif" font-size="10.00">ncurses.h</text>
</a>
</g>
</g>
<!-- Node14&#45;&gt;Node15 -->
<g id="edge20" class="edge">
<title>Node14&#45;&gt;Node15</title>
<path fill="none" stroke="#63b8ff" d="M274,-329.75C274,-322.8 274,-312.85 274,-304.13"/>
<polygon fill="#63b8ff" stroke="#63b8ff" points="277.5,-304.09 274,-294.09 270.5,-304.09 277.5,-304.09"/>
</g>
</g>
</svg>
