<?xml version="1.0" encoding="UTF-8" standalone="no"?>
<!DOCTYPE svg PUBLIC "-//W3C//DTD SVG 1.1//EN"
 "http://www.w3.org/Graphics/SVG/1.1/DTD/svg11.dtd">
<!-- Generated by graphviz version 2.43.0 (0)
 -->
<!-- Title: src/action/once/QuitAction.cpp Pages: 1 -->
<svg width="324pt" height="412pt"
 viewBox="0.00 0.00 324.00 412.00" xmlns="http://www.w3.org/2000/svg" xmlns:xlink="http://www.w3.org/1999/xlink">
<g id="graph0" class="graph" transform="scale(1 1) rotate(0) translate(4 408)">
<title>src/action/once/QuitAction.cpp</title>
<!-- Node1 -->
<g id="node1" class="node">
<title>Node1</title>
<g id="a_node1"><a xlink:title=" ">
<polygon fill="#999999" stroke="#666666" points="164,-404 0,-404 0,-385 164,-385 164,-404"/>
<text text-anchor="middle" x="82" y="-392" font-family="Helvetica,sans-Serif" font-size="10.00">src/action/once/QuitAction.cpp</text>
</a>
</g>
</g>
<!-- Node2 -->
<g id="node2" class="node">
<title>Node2</title>
<g id="a_node2"><a xlink:href="QuitAction_8h.html" target="_top" xlink:title=" ">
<polygon fill="white" stroke="#666666" points="120.5,-349 43.5,-349 43.5,-330 120.5,-330 120.5,-349"/>
<text text-anchor="middle" x="82" y="-337" font-family="Helvetica,sans-Serif" font-size="10.00">QuitAction.h</text>
</a>
</g>
</g>
<!-- Node1&#45;&gt;Node2 -->
<g id="edge1" class="edge">
<title>Node1&#45;&gt;Node2</title>
<path fill="none" stroke="#63b8ff" d="M82,-384.75C82,-377.8 82,-367.85 82,-359.13"/>
<polygon fill="#63b8ff" stroke="#63b8ff" points="85.5,-359.09 82,-349.09 78.5,-359.09 85.5,-359.09"/>
</g>
<!-- Node3 -->
<g id="node3" class="node">
<title>Node3</title>
<g id="a_node3"><a xlink:href="OnceAction_8h.html" target="_top" xlink:title=" ">
<polygon fill="white" stroke="#666666" points="127,-294 37,-294 37,-275 127,-275 127,-294"/>
<text text-anchor="middle" x="82" y="-282" font-family="Helvetica,sans-Serif" font-size="10.00">../OnceAction.h</text>
</a>
</g>
</g>
<!-- Node2&#45;&gt;Node3 -->
<g id="edge2" class="edge">
<title>Node2&#45;&gt;Node3</title>
<path fill="none" stroke="#63b8ff" d="M82,-329.75C82,-322.8 82,-312.85 82,-304.13"/>
<polygon fill="#63b8ff" stroke="#63b8ff" points="85.5,-304.09 82,-294.09 78.5,-304.09 85.5,-304.09"/>
</g>
<!-- Node4 -->
<g id="node4" class="node">
<title>Node4</title>
<g id="a_node4"><a xlink:href="Action_8h.html" target="_top" xlink:title=" ">
<polygon fill="white" stroke="#666666" points="110,-239 54,-239 54,-220 110,-220 110,-239"/>
<text text-anchor="middle" x="82" y="-227" font-family="Helvetica,sans-Serif" font-size="10.00">Action.h</text>
</a>
</g>
</g>
<!-- Node3&#45;&gt;Node4 -->
<g id="edge3" class="edge">
<title>Node3&#45;&gt;Node4</title>
<path fill="none" stroke="#63b8ff" d="M82,-274.75C82,-267.8 82,-257.85 82,-249.13"/>
<polygon fill="#63b8ff" stroke="#63b8ff" points="85.5,-249.09 82,-239.09 78.5,-249.09 85.5,-249.09"/>
</g>
<!-- Node5 -->
<g id="node5" class="node">
<title>Node5</title>
<g id="a_node5"><a xlink:title=" ">
<polygon fill="#e0e0e0" stroke="#999999" points="79.5,-129 32.5,-129 32.5,-110 79.5,-110 79.5,-129"/>
<text text-anchor="middle" x="56" y="-117" font-family="Helvetica,sans-Serif" font-size="10.00">vector</text>
</a>
</g>
</g>
<!-- Node4&#45;&gt;Node5 -->
<g id="edge4" class="edge">
<title>Node4&#45;&gt;Node5</title>
<path fill="none" stroke="#63b8ff" d="M78.9,-219.72C75.83,-210.81 71.15,-196.57 68,-184 64.28,-169.17 61.12,-152.13 58.98,-139.44"/>
<polygon fill="#63b8ff" stroke="#63b8ff" points="62.37,-138.51 57.31,-129.2 55.46,-139.63 62.37,-138.51"/>
</g>
<!-- Node6 -->
<g id="node6" class="node">
<title>Node6</title>
<g id="a_node6"><a xlink:title=" ">
<polygon fill="#e0e0e0" stroke="#999999" points="142,-19 74,-19 74,0 142,0 142,-19"/>
<text text-anchor="middle" x="108" y="-7" font-family="Helvetica,sans-Serif" font-size="10.00">filesystem</text>
</a>
</g>
</g>
<!-- Node4&#45;&gt;Node6 -->
<g id="edge5" class="edge">
<title>Node4&#45;&gt;Node6</title>
<path fill="none" stroke="#63b8ff" d="M72.17,-219.87C51.6,-200.71 7.17,-152.91 23,-110 36.06,-74.59 67.96,-43.24 88.75,-25.59"/>
<polygon fill="#63b8ff" stroke="#63b8ff" points="91.14,-28.16 96.64,-19.1 86.69,-22.76 91.14,-28.16"/>
</g>
<!-- Node7 -->
<g id="node7" class="node">
<title>Node7</title>
<g id="a_node7"><a xlink:href="FileView_8h.html" target="_top" xlink:title=" ">
<polygon fill="white" stroke="#666666" points="152.5,-184 77.5,-184 77.5,-165 152.5,-165 152.5,-184"/>
<text text-anchor="middle" x="115" y="-172" font-family="Helvetica,sans-Serif" font-size="10.00">../FileView.h</text>
</a>
</g>
</g>
<!-- Node4&#45;&gt;Node7 -->
<g id="edge6" class="edge">
<title>Node4&#45;&gt;Node7</title>
<path fill="none" stroke="#63b8ff" d="M87.45,-219.75C92.01,-212.42 98.67,-201.73 104.29,-192.7"/>
<polygon fill="#63b8ff" stroke="#63b8ff" points="107.34,-194.43 109.65,-184.09 101.4,-190.73 107.34,-194.43"/>
</g>
<!-- Node10 -->
<g id="node10" class="node">
<title>Node10</title>
<g id="a_node10"><a xlink:href="State_8h.html" target="_top" xlink:title=" ">
<polygon fill="white" stroke="#666666" points="250,-184 190,-184 190,-165 250,-165 250,-184"/>
<text text-anchor="middle" x="220" y="-172" font-family="Helvetica,sans-Serif" font-size="10.00">../State.h</text>
</a>
</g>
</g>
<!-- Node4&#45;&gt;Node10 -->
<g id="edge12" class="edge">
<title>Node4&#45;&gt;Node10</title>
<path fill="none" stroke="#63b8ff" d="M104.17,-219.98C126.77,-211.3 162.06,-197.75 187.75,-187.88"/>
<polygon fill="#63b8ff" stroke="#63b8ff" points="189.34,-191.02 197.42,-184.17 186.83,-184.49 189.34,-191.02"/>
</g>
<!-- Node7&#45;&gt;Node5 -->
<g id="edge7" class="edge">
<title>Node7&#45;&gt;Node5</title>
<path fill="none" stroke="#63b8ff" d="M105.52,-164.98C96.8,-157.15 83.66,-145.34 73.1,-135.86"/>
<polygon fill="#63b8ff" stroke="#63b8ff" points="75.43,-133.25 65.65,-129.17 70.75,-138.46 75.43,-133.25"/>
</g>
<!-- Node7&#45;&gt;Node6 -->
<g id="edge8" class="edge">
<title>Node7&#45;&gt;Node6</title>
<path fill="none" stroke="#63b8ff" d="M114.62,-164.74C113.53,-139.31 110.34,-65.08 108.82,-29.69"/>
<polygon fill="#63b8ff" stroke="#63b8ff" points="112.3,-29.15 108.38,-19.31 105.31,-29.45 112.3,-29.15"/>
</g>
<!-- Node8 -->
<g id="node8" class="node">
<title>Node8</title>
<g id="a_node8"><a xlink:href="Entry_8h.html" target="_top" xlink:title=" ">
<polygon fill="white" stroke="#666666" points="240,-74 162,-74 162,-55 240,-55 240,-74"/>
<text text-anchor="middle" x="201" y="-62" font-family="Helvetica,sans-Serif" font-size="10.00">entry/Entry.h</text>
</a>
</g>
</g>
<!-- Node7&#45;&gt;Node8 -->
<g id="edge9" class="edge">
<title>Node7&#45;&gt;Node8</title>
<path fill="none" stroke="#63b8ff" d="M121.76,-164.84C131.33,-152.6 149.42,-129.52 165,-110 172.45,-100.66 180.85,-90.28 187.65,-81.89"/>
<polygon fill="#63b8ff" stroke="#63b8ff" points="190.47,-83.97 194.07,-74 185.04,-79.56 190.47,-83.97"/>
</g>
<!-- Node8&#45;&gt;Node6 -->
<g id="edge10" class="edge">
<title>Node8&#45;&gt;Node6</title>
<path fill="none" stroke="#63b8ff" d="M186.06,-54.98C171.5,-46.69 149.13,-33.94 132.07,-24.22"/>
<polygon fill="#63b8ff" stroke="#63b8ff" points="133.64,-21.08 123.21,-19.17 130.17,-27.16 133.64,-21.08"/>
</g>
<!-- Node9 -->
<g id="node9" class="node">
<title>Node9</title>
<g id="a_node9"><a xlink:href="Modifier_8h.html" target="_top" xlink:title=" ">
<polygon fill="white" stroke="#666666" points="233.5,-19 168.5,-19 168.5,0 233.5,0 233.5,-19"/>
<text text-anchor="middle" x="201" y="-7" font-family="Helvetica,sans-Serif" font-size="10.00">Modifier.h</text>
</a>
</g>
</g>
<!-- Node8&#45;&gt;Node9 -->
<g id="edge11" class="edge">
<title>Node8&#45;&gt;Node9</title>
<path fill="none" stroke="#63b8ff" d="M201,-54.75C201,-47.8 201,-37.85 201,-29.13"/>
<polygon fill="#63b8ff" stroke="#63b8ff" points="204.5,-29.09 201,-19.09 197.5,-29.09 204.5,-29.09"/>
</g>
<!-- Node10&#45;&gt;Node8 -->
<g id="edge14" class="edge">
<title>Node10&#45;&gt;Node8</title>
<path fill="none" stroke="#63b8ff" d="M219.93,-164.79C219.7,-152.47 218.75,-129.32 215,-110 213.3,-101.25 210.48,-91.81 207.81,-83.88"/>
<polygon fill="#63b8ff" stroke="#63b8ff" points="211.03,-82.47 204.39,-74.21 204.43,-84.81 211.03,-82.47"/>
</g>
<!-- Node11 -->
<g id="node11" class="node">
<title>Node11</title>
<g id="a_node11"><a xlink:title=" ">
<polygon fill="#e0e0e0" stroke="#999999" points="206,-129 174,-129 174,-110 206,-110 206,-129"/>
<text text-anchor="middle" x="190" y="-117" font-family="Helvetica,sans-Serif" font-size="10.00">set</text>
</a>
</g>
</g>
<!-- Node10&#45;&gt;Node11 -->
<g id="edge13" class="edge">
<title>Node10&#45;&gt;Node11</title>
<path fill="none" stroke="#63b8ff" d="M215.05,-164.75C210.94,-157.49 204.97,-146.95 199.9,-137.98"/>
<polygon fill="#63b8ff" stroke="#63b8ff" points="202.83,-136.07 194.86,-129.09 196.74,-139.52 202.83,-136.07"/>
</g>
<!-- Node12 -->
<g id="node12" class="node">
<title>Node12</title>
<g id="a_node12"><a xlink:href="Utility_8h.html" target="_top" xlink:title=" ">
<polygon fill="white" stroke="#666666" points="316,-129 262,-129 262,-110 316,-110 316,-129"/>
<text text-anchor="middle" x="289" y="-117" font-family="Helvetica,sans-Serif" font-size="10.00">Utility.h</text>
</a>
</g>
</g>
<!-- Node10&#45;&gt;Node12 -->
<g id="edge15" class="edge">
<title>Node10&#45;&gt;Node12</title>
<path fill="none" stroke="#63b8ff" d="M231.09,-164.98C241.49,-157 257.26,-144.88 269.72,-135.31"/>
<polygon fill="#63b8ff" stroke="#63b8ff" points="271.91,-138.04 277.71,-129.17 267.65,-132.49 271.91,-138.04"/>
</g>
<!-- Node12&#45;&gt;Node8 -->
<g id="edge17" class="edge">
<title>Node12&#45;&gt;Node8</title>
<path fill="none" stroke="#63b8ff" d="M274.86,-109.98C261.21,-101.77 240.31,-89.18 224.22,-79.49"/>
<polygon fill="#63b8ff" stroke="#63b8ff" points="225.77,-76.33 215.4,-74.17 222.16,-82.33 225.77,-76.33"/>
</g>
<!-- Node13 -->
<g id="node13" class="node">
<title>Node13</title>
<g id="a_node13"><a xlink:title=" ">
<polygon fill="#e0e0e0" stroke="#999999" points="311,-74 267,-74 267,-55 311,-55 311,-74"/>
<text text-anchor="middle" x="289" y="-62" font-family="Helvetica,sans-Serif" font-size="10.00">string</text>
</a>
</g>
</g>
<!-- Node12&#45;&gt;Node13 -->
<g id="edge16" class="edge">
<title>Node12&#45;&gt;Node13</title>
<path fill="none" stroke="#63b8ff" d="M289,-109.75C289,-102.8 289,-92.85 289,-84.13"/>
<polygon fill="#63b8ff" stroke="#63b8ff" points="292.5,-84.09 289,-74.09 285.5,-84.09 292.5,-84.09"/>
</g>
</g>
</svg>
