<?xml version="1.0" encoding="UTF-8" standalone="no"?>
<!DOCTYPE svg PUBLIC "-//W3C//DTD SVG 1.1//EN"
 "http://www.w3.org/Graphics/SVG/1.1/DTD/svg11.dtd">
<!-- Generated by graphviz version 2.43.0 (0)
 -->
<!-- Title: src/action/once/QuitAction.h Pages: 1 -->
<svg width="319pt" height="357pt"
 viewBox="0.00 0.00 318.50 357.00" xmlns="http://www.w3.org/2000/svg" xmlns:xlink="http://www.w3.org/1999/xlink">
<g id="graph0" class="graph" transform="scale(1 1) rotate(0) translate(4 353)">
<title>src/action/once/QuitAction.h</title>
<!-- Node1 -->
<g id="node1" class="node">
<title>Node1</title>
<g id="a_node1"><a xlink:title=" ">
<polygon fill="#999999" stroke="#666666" points="153,-349 0,-349 0,-330 153,-330 153,-349"/>
<text text-anchor="middle" x="76.5" y="-337" font-family="Helvetica,sans-Serif" font-size="10.00">src/action/once/QuitAction.h</text>
</a>
</g>
</g>
<!-- Node2 -->
<g id="node2" class="node">
<title>Node2</title>
<g id="a_node2"><a xlink:href="OnceAction_8h.html" target="_top" xlink:title=" ">
<polygon fill="white" stroke="#666666" points="121.5,-294 31.5,-294 31.5,-275 121.5,-275 121.5,-294"/>
<text text-anchor="middle" x="76.5" y="-282" font-family="Helvetica,sans-Serif" font-size="10.00">../OnceAction.h</text>
</a>
</g>
</g>
<!-- Node1&#45;&gt;Node2 -->
<g id="edge1" class="edge">
<title>Node1&#45;&gt;Node2</title>
<path fill="none" stroke="#63b8ff" d="M76.5,-329.75C76.5,-322.8 76.5,-312.85 76.5,-304.13"/>
<polygon fill="#63b8ff" stroke="#63b8ff" points="80,-304.09 76.5,-294.09 73,-304.09 80,-304.09"/>
</g>
<!-- Node3 -->
<g id="node3" class="node">
<title>Node3</title>
<g id="a_node3"><a xlink:href="Action_8h.html" target="_top" xlink:title=" ">
<polygon fill="white" stroke="#666666" points="104.5,-239 48.5,-239 48.5,-220 104.5,-220 104.5,-239"/>
<text text-anchor="middle" x="76.5" y="-227" font-family="Helvetica,sans-Serif" font-size="10.00">Action.h</text>
</a>
</g>
</g>
<!-- Node2&#45;&gt;Node3 -->
<g id="edge2" class="edge">
<title>Node2&#45;&gt;Node3</title>
<path fill="none" stroke="#63b8ff" d="M76.5,-274.75C76.5,-267.8 76.5,-257.85 76.5,-249.13"/>
<polygon fill="#63b8ff" stroke="#63b8ff" points="80,-249.09 76.5,-239.09 73,-249.09 80,-249.09"/>
</g>
<!-- Node4 -->
<g id="node4" class="node">
<title>Node4</title>
<g id="a_node4"><a xlink:title=" ">
<polygon fill="#e0e0e0" stroke="#999999" points="74,-129 27,-129 27,-110 74,-110 74,-129"/>
<text text-anchor="middle" x="50.5" y="-117" font-family="Helvetica,sans-Serif" font-size="10.00">vector</text>
</a>
</g>
</g>
<!-- Node3&#45;&gt;Node4 -->
<g id="edge3" class="edge">
<title>Node3&#45;&gt;Node4</title>
<path fill="none" stroke="#63b8ff" d="M73.4,-219.72C70.33,-210.81 65.65,-196.57 62.5,-184 58.78,-169.17 55.62,-152.13 53.48,-139.44"/>
<polygon fill="#63b8ff" stroke="#63b8ff" points="56.87,-138.51 51.81,-129.2 49.96,-139.63 56.87,-138.51"/>
</g>
<!-- Node5 -->
<g id="node5" class="node">
<title>Node5</title>
<g id="a_node5"><a xlink:title=" ">
<polygon fill="#e0e0e0" stroke="#999999" points="136.5,-19 68.5,-19 68.5,0 136.5,0 136.5,-19"/>
<text text-anchor="middle" x="102.5" y="-7" font-family="Helvetica,sans-Serif" font-size="10.00">filesystem</text>
</a>
</g>
</g>
<!-- Node3&#45;&gt;Node5 -->
<g id="edge4" class="edge">
<title>Node3&#45;&gt;Node5</title>
<path fill="none" stroke="#63b8ff" d="M66.67,-219.87C46.1,-200.71 1.67,-152.91 17.5,-110 30.56,-74.59 62.46,-43.24 83.25,-25.59"/>
<polygon fill="#63b8ff" stroke="#63b8ff" points="85.64,-28.16 91.14,-19.1 81.19,-22.76 85.64,-28.16"/>
</g>
<!-- Node6 -->
<g id="node6" class="node">
<title>Node6</title>
<g id="a_node6"><a xlink:href="FileView_8h.html" target="_top" xlink:title=" ">
<polygon fill="white" stroke="#666666" points="147,-184 72,-184 72,-165 147,-165 147,-184"/>
<text text-anchor="middle" x="109.5" y="-172" font-family="Helvetica,sans-Serif" font-size="10.00">../FileView.h</text>
</a>
</g>
</g>
<!-- Node3&#45;&gt;Node6 -->
<g id="edge5" class="edge">
<title>Node3&#45;&gt;Node6</title>
<path fill="none" stroke="#63b8ff" d="M81.95,-219.75C86.51,-212.42 93.17,-201.73 98.79,-192.7"/>
<polygon fill="#63b8ff" stroke="#63b8ff" points="101.84,-194.43 104.15,-184.09 95.9,-190.73 101.84,-194.43"/>
</g>
<!-- Node9 -->
<g id="node9" class="node">
<title>Node9</title>
<g id="a_node9"><a xlink:href="State_8h.html" target="_top" xlink:title=" ">
<polygon fill="white" stroke="#666666" points="244.5,-184 184.5,-184 184.5,-165 244.5,-165 244.5,-184"/>
<text text-anchor="middle" x="214.5" y="-172" font-family="Helvetica,sans-Serif" font-size="10.00">../State.h</text>
</a>
</g>
</g>
<!-- Node3&#45;&gt;Node9 -->
<g id="edge11" class="edge">
<title>Node3&#45;&gt;Node9</title>
<path fill="none" stroke="#63b8ff" d="M98.67,-219.98C121.27,-211.3 156.56,-197.75 182.25,-187.88"/>
<polygon fill="#63b8ff" stroke="#63b8ff" points="183.84,-191.02 191.92,-184.17 181.33,-184.49 183.84,-191.02"/>
</g>
<!-- Node6&#45;&gt;Node4 -->
<g id="edge6" class="edge">
<title>Node6&#45;&gt;Node4</title>
<path fill="none" stroke="#63b8ff" d="M100.02,-164.98C91.3,-157.15 78.16,-145.34 67.6,-135.86"/>
<polygon fill="#63b8ff" stroke="#63b8ff" points="69.93,-133.25 60.15,-129.17 65.25,-138.46 69.93,-133.25"/>
</g>
<!-- Node6&#45;&gt;Node5 -->
<g id="edge7" class="edge">
<title>Node6&#45;&gt;Node5</title>
<path fill="none" stroke="#63b8ff" d="M109.12,-164.74C108.03,-139.31 104.84,-65.08 103.32,-29.69"/>
<polygon fill="#63b8ff" stroke="#63b8ff" points="106.8,-29.15 102.88,-19.31 99.81,-29.45 106.8,-29.15"/>
</g>
<!-- Node7 -->
<g id="node7" class="node">
<title>Node7</title>
<g id="a_node7"><a xlink:href="Entry_8h.html" target="_top" xlink:title=" ">
<polygon fill="white" stroke="#666666" points="234.5,-74 156.5,-74 156.5,-55 234.5,-55 234.5,-74"/>
<text text-anchor="middle" x="195.5" y="-62" font-family="Helvetica,sans-Serif" font-size="10.00">entry/Entry.h</text>
</a>
</g>
</g>
<!-- Node6&#45;&gt;Node7 -->
<g id="edge8" class="edge">
<title>Node6&#45;&gt;Node7</title>
<path fill="none" stroke="#63b8ff" d="M116.26,-164.84C125.83,-152.6 143.92,-129.52 159.5,-110 166.95,-100.66 175.35,-90.28 182.15,-81.89"/>
<polygon fill="#63b8ff" stroke="#63b8ff" points="184.97,-83.97 188.57,-74 179.54,-79.56 184.97,-83.97"/>
</g>
<!-- Node7&#45;&gt;Node5 -->
<g id="edge9" class="edge">
<title>Node7&#45;&gt;Node5</title>
<path fill="none" stroke="#63b8ff" d="M180.56,-54.98C166,-46.69 143.63,-33.94 126.57,-24.22"/>
<polygon fill="#63b8ff" stroke="#63b8ff" points="128.14,-21.08 117.71,-19.17 124.67,-27.16 128.14,-21.08"/>
</g>
<!-- Node8 -->
<g id="node8" class="node">
<title>Node8</title>
<g id="a_node8"><a xlink:href="Modifier_8h.html" target="_top" xlink:title=" ">
<polygon fill="white" stroke="#666666" points="228,-19 163,-19 163,0 228,0 228,-19"/>
<text text-anchor="middle" x="195.5" y="-7" font-family="Helvetica,sans-Serif" font-size="10.00">Modifier.h</text>
</a>
</g>
</g>
<!-- Node7&#45;&gt;Node8 -->
<g id="edge10" class="edge">
<title>Node7&#45;&gt;Node8</title>
<path fill="none" stroke="#63b8ff" d="M195.5,-54.75C195.5,-47.8 195.5,-37.85 195.5,-29.13"/>
<polygon fill="#63b8ff" stroke="#63b8ff" points="199,-29.09 195.5,-19.09 192,-29.09 199,-29.09"/>
</g>
<!-- Node9&#45;&gt;Node7 -->
<g id="edge13" class="edge">
<title>Node9&#45;&gt;Node7</title>
<path fill="none" stroke="#63b8ff" d="M214.43,-164.79C214.2,-152.47 213.25,-129.32 209.5,-110 207.8,-101.25 204.98,-91.81 202.31,-83.88"/>
<polygon fill="#63b8ff" stroke="#63b8ff" points="205.53,-82.47 198.89,-74.21 198.93,-84.81 205.53,-82.47"/>
</g>
<!-- Node10 -->
<g id="node10" class="node">
<title>Node10</title>
<g id="a_node10"><a xlink:title=" ">
<polygon fill="#e0e0e0" stroke="#999999" points="200.5,-129 168.5,-129 168.5,-110 200.5,-110 200.5,-129"/>
<text text-anchor="middle" x="184.5" y="-117" font-family="Helvetica,sans-Serif" font-size="10.00">set</text>
</a>
</g>
</g>
<!-- Node9&#45;&gt;Node10 -->
<g id="edge12" class="edge">
<title>Node9&#45;&gt;Node10</title>
<path fill="none" stroke="#63b8ff" d="M209.55,-164.75C205.44,-157.49 199.47,-146.95 194.4,-137.98"/>
<polygon fill="#63b8ff" stroke="#63b8ff" points="197.33,-136.07 189.36,-129.09 191.24,-139.52 197.33,-136.07"/>
</g>
<!-- Node11 -->
<g id="node11" class="node">
<title>Node11</title>
<g id="a_node11"><a xlink:href="Utility_8h.html" target="_top" xlink:title=" ">
<polygon fill="white" stroke="#666666" points="310.5,-129 256.5,-129 256.5,-110 310.5,-110 310.5,-129"/>
<text text-anchor="middle" x="283.5" y="-117" font-family="Helvetica,sans-Serif" font-size="10.00">Utility.h</text>
</a>
</g>
</g>
<!-- Node9&#45;&gt;Node11 -->
<g id="edge14" class="edge">
<title>Node9&#45;&gt;Node11</title>
<path fill="none" stroke="#63b8ff" d="M225.59,-164.98C235.99,-157 251.76,-144.88 264.22,-135.31"/>
<polygon fill="#63b8ff" stroke="#63b8ff" points="266.41,-138.04 272.21,-129.17 262.15,-132.49 266.41,-138.04"/>
</g>
<!-- Node11&#45;&gt;Node7 -->
<g id="edge16" class="edge">
<title>Node11&#45;&gt;Node7</title>
<path fill="none" stroke="#63b8ff" d="M269.36,-109.98C255.71,-101.77 234.81,-89.18 218.72,-79.49"/>
<polygon fill="#63b8ff" stroke="#63b8ff" points="220.27,-76.33 209.9,-74.17 216.66,-82.33 220.27,-76.33"/>
</g>
<!-- Node12 -->
<g id="node12" class="node">
<title>Node12</title>
<g id="a_node12"><a xlink:title=" ">
<polygon fill="#e0e0e0" stroke="#999999" points="305.5,-74 261.5,-74 261.5,-55 305.5,-55 305.5,-74"/>
<text text-anchor="middle" x="283.5" y="-62" font-family="Helvetica,sans-Serif" font-size="10.00">string</text>
</a>
</g>
</g>
<!-- Node11&#45;&gt;Node12 -->
<g id="edge15" class="edge">
<title>Node11&#45;&gt;Node12</title>
<path fill="none" stroke="#63b8ff" d="M283.5,-109.75C283.5,-102.8 283.5,-92.85 283.5,-84.13"/>
<polygon fill="#63b8ff" stroke="#63b8ff" points="287,-84.09 283.5,-74.09 280,-84.09 287,-84.09"/>
</g>
</g>
</svg>
