<?xml version="1.0" encoding="UTF-8" standalone="no"?>
<!DOCTYPE svg PUBLIC "-//W3C//DTD SVG 1.1//EN"
 "http://www.w3.org/Graphics/SVG/1.1/DTD/svg11.dtd">
<!-- Generated by graphviz version 2.43.0 (0)
 -->
<!-- Title: src/action/once/RegexSelectAction.cpp Pages: 1 -->
<svg width="400pt" height="423pt"
 viewBox="0.00 0.00 400.00 423.00" xmlns="http://www.w3.org/2000/svg" xmlns:xlink="http://www.w3.org/1999/xlink">
<g id="graph0" class="graph" transform="scale(1 1) rotate(0) translate(4 419)">
<title>src/action/once/RegexSelectAction.cpp</title>
<!-- Node1 -->
<g id="node1" class="node">
<title>Node1</title>
<g id="a_node1"><a xlink:title=" ">
<polygon fill="#999999" stroke="#666666" points="309,-415 155,-415 155,-385 309,-385 309,-415"/>
<text text-anchor="start" x="163" y="-403" font-family="Helvetica,sans-Serif" font-size="10.00">src/action/once/RegexSelect</text>
<text text-anchor="middle" x="232" y="-392" font-family="Helvetica,sans-Serif" font-size="10.00">Action.cpp</text>
</a>
</g>
</g>
<!-- Node2 -->
<g id="node2" class="node">
<title>Node2</title>
<g id="a_node2"><a xlink:href="RegexSelectAction_8h.html" target="_top" xlink:title=" ">
<polygon fill="white" stroke="#666666" points="191.5,-349 74.5,-349 74.5,-330 191.5,-330 191.5,-349"/>
<text text-anchor="middle" x="133" y="-337" font-family="Helvetica,sans-Serif" font-size="10.00">RegexSelectAction.h</text>
</a>
</g>
</g>
<!-- Node1&#45;&gt;Node2 -->
<g id="edge1" class="edge">
<title>Node1&#45;&gt;Node2</title>
<path fill="none" stroke="#63b8ff" d="M208.29,-384.99C192.65,-375.75 172.26,-363.7 156.64,-354.47"/>
<polygon fill="#63b8ff" stroke="#63b8ff" points="158.01,-351.21 147.62,-349.14 154.45,-357.24 158.01,-351.21"/>
</g>
<!-- Node14 -->
<g id="node14" class="node">
<title>Node14</title>
<g id="a_node14"><a xlink:title=" ">
<polygon fill="#e0e0e0" stroke="#999999" points="254,-349 210,-349 210,-330 254,-330 254,-349"/>
<text text-anchor="middle" x="232" y="-337" font-family="Helvetica,sans-Serif" font-size="10.00">regex</text>
</a>
</g>
</g>
<!-- Node1&#45;&gt;Node14 -->
<g id="edge18" class="edge">
<title>Node1&#45;&gt;Node14</title>
<path fill="none" stroke="#63b8ff" d="M232,-384.84C232,-377.21 232,-367.7 232,-359.45"/>
<polygon fill="#63b8ff" stroke="#63b8ff" points="235.5,-359.27 232,-349.27 228.5,-359.27 235.5,-359.27"/>
</g>
<!-- Node15 -->
<g id="node15" class="node">
<title>Node15</title>
<g id="a_node15"><a xlink:href="Modal_8h.html" target="_top" xlink:title=" ">
<polygon fill="white" stroke="#666666" points="392,-349 272,-349 272,-330 392,-330 392,-349"/>
<text text-anchor="middle" x="332" y="-337" font-family="Helvetica,sans-Serif" font-size="10.00">../../interface/Modal.h</text>
</a>
</g>
</g>
<!-- Node1&#45;&gt;Node15 -->
<g id="edge19" class="edge">
<title>Node1&#45;&gt;Node15</title>
<path fill="none" stroke="#63b8ff" d="M255.95,-384.99C271.89,-375.66 292.73,-363.47 308.56,-354.21"/>
<polygon fill="#63b8ff" stroke="#63b8ff" points="310.37,-357.21 317.23,-349.14 306.83,-351.17 310.37,-357.21"/>
</g>
<!-- Node3 -->
<g id="node3" class="node">
<title>Node3</title>
<g id="a_node3"><a xlink:href="OnceAction_8h.html" target="_top" xlink:title=" ">
<polygon fill="white" stroke="#666666" points="178,-294 88,-294 88,-275 178,-275 178,-294"/>
<text text-anchor="middle" x="133" y="-282" font-family="Helvetica,sans-Serif" font-size="10.00">../OnceAction.h</text>
</a>
</g>
</g>
<!-- Node2&#45;&gt;Node3 -->
<g id="edge2" class="edge">
<title>Node2&#45;&gt;Node3</title>
<path fill="none" stroke="#63b8ff" d="M133,-329.75C133,-322.8 133,-312.85 133,-304.13"/>
<polygon fill="#63b8ff" stroke="#63b8ff" points="136.5,-304.09 133,-294.09 129.5,-304.09 136.5,-304.09"/>
</g>
<!-- Node4 -->
<g id="node4" class="node">
<title>Node4</title>
<g id="a_node4"><a xlink:href="Action_8h.html" target="_top" xlink:title=" ">
<polygon fill="white" stroke="#666666" points="161,-239 105,-239 105,-220 161,-220 161,-239"/>
<text text-anchor="middle" x="133" y="-227" font-family="Helvetica,sans-Serif" font-size="10.00">Action.h</text>
</a>
</g>
</g>
<!-- Node3&#45;&gt;Node4 -->
<g id="edge3" class="edge">
<title>Node3&#45;&gt;Node4</title>
<path fill="none" stroke="#63b8ff" d="M133,-274.75C133,-267.8 133,-257.85 133,-249.13"/>
<polygon fill="#63b8ff" stroke="#63b8ff" points="136.5,-249.09 133,-239.09 129.5,-249.09 136.5,-249.09"/>
</g>
<!-- Node5 -->
<g id="node5" class="node">
<title>Node5</title>
<g id="a_node5"><a xlink:title=" ">
<polygon fill="#e0e0e0" stroke="#999999" points="147.5,-129 100.5,-129 100.5,-110 147.5,-110 147.5,-129"/>
<text text-anchor="middle" x="124" y="-117" font-family="Helvetica,sans-Serif" font-size="10.00">vector</text>
</a>
</g>
</g>
<!-- Node4&#45;&gt;Node5 -->
<g id="edge4" class="edge">
<title>Node4&#45;&gt;Node5</title>
<path fill="none" stroke="#63b8ff" d="M132.26,-219.66C130.81,-202.17 127.53,-162.8 125.56,-139.27"/>
<polygon fill="#63b8ff" stroke="#63b8ff" points="129.04,-138.83 124.72,-129.16 122.06,-139.41 129.04,-138.83"/>
</g>
<!-- Node6 -->
<g id="node6" class="node">
<title>Node6</title>
<g id="a_node6"><a xlink:title=" ">
<polygon fill="#e0e0e0" stroke="#999999" points="68,-19 0,-19 0,0 68,0 68,-19"/>
<text text-anchor="middle" x="34" y="-7" font-family="Helvetica,sans-Serif" font-size="10.00">filesystem</text>
</a>
</g>
</g>
<!-- Node4&#45;&gt;Node6 -->
<g id="edge5" class="edge">
<title>Node4&#45;&gt;Node6</title>
<path fill="none" stroke="#63b8ff" d="M104.75,-226.11C77.89,-222.17 38.87,-211.71 20,-184 -12.69,-135.99 11.6,-62.27 25.73,-28.51"/>
<polygon fill="#63b8ff" stroke="#63b8ff" points="29.08,-29.6 29.88,-19.04 22.66,-26.79 29.08,-29.6"/>
</g>
<!-- Node7 -->
<g id="node7" class="node">
<title>Node7</title>
<g id="a_node7"><a xlink:href="FileView_8h.html" target="_top" xlink:title=" ">
<polygon fill="white" stroke="#666666" points="104.5,-184 29.5,-184 29.5,-165 104.5,-165 104.5,-184"/>
<text text-anchor="middle" x="67" y="-172" font-family="Helvetica,sans-Serif" font-size="10.00">../FileView.h</text>
</a>
</g>
</g>
<!-- Node4&#45;&gt;Node7 -->
<g id="edge6" class="edge">
<title>Node4&#45;&gt;Node7</title>
<path fill="none" stroke="#63b8ff" d="M122.4,-219.98C112.54,-212.07 97.65,-200.11 85.78,-190.58"/>
<polygon fill="#63b8ff" stroke="#63b8ff" points="87.79,-187.7 77.8,-184.17 83.4,-193.16 87.79,-187.7"/>
</g>
<!-- Node10 -->
<g id="node10" class="node">
<title>Node10</title>
<g id="a_node10"><a xlink:href="State_8h.html" target="_top" xlink:title=" ">
<polygon fill="white" stroke="#666666" points="238,-184 178,-184 178,-165 238,-165 238,-184"/>
<text text-anchor="middle" x="208" y="-172" font-family="Helvetica,sans-Serif" font-size="10.00">../State.h</text>
</a>
</g>
</g>
<!-- Node4&#45;&gt;Node10 -->
<g id="edge12" class="edge">
<title>Node4&#45;&gt;Node10</title>
<path fill="none" stroke="#63b8ff" d="M145.05,-219.98C156.46,-211.92 173.83,-199.65 187.43,-190.03"/>
<polygon fill="#63b8ff" stroke="#63b8ff" points="189.58,-192.8 195.73,-184.17 185.54,-187.08 189.58,-192.8"/>
</g>
<!-- Node7&#45;&gt;Node5 -->
<g id="edge7" class="edge">
<title>Node7&#45;&gt;Node5</title>
<path fill="none" stroke="#63b8ff" d="M76.16,-164.98C84.5,-157.23 97.03,-145.58 107.18,-136.14"/>
<polygon fill="#63b8ff" stroke="#63b8ff" points="109.74,-138.54 114.68,-129.17 104.97,-133.42 109.74,-138.54"/>
</g>
<!-- Node7&#45;&gt;Node6 -->
<g id="edge8" class="edge">
<title>Node7&#45;&gt;Node6</title>
<path fill="none" stroke="#63b8ff" d="M65.23,-164.74C60.06,-139.2 44.92,-64.43 37.79,-29.23"/>
<polygon fill="#63b8ff" stroke="#63b8ff" points="41.2,-28.41 35.78,-19.31 34.34,-29.8 41.2,-28.41"/>
</g>
<!-- Node8 -->
<g id="node8" class="node">
<title>Node8</title>
<g id="a_node8"><a xlink:href="Entry_8h.html" target="_top" xlink:title=" ">
<polygon fill="white" stroke="#666666" points="186,-74 108,-74 108,-55 186,-55 186,-74"/>
<text text-anchor="middle" x="147" y="-62" font-family="Helvetica,sans-Serif" font-size="10.00">entry/Entry.h</text>
</a>
</g>
</g>
<!-- Node7&#45;&gt;Node8 -->
<g id="edge9" class="edge">
<title>Node7&#45;&gt;Node8</title>
<path fill="none" stroke="#63b8ff" d="M68.69,-164.99C71.56,-152.11 78.36,-127.33 91,-110 99.78,-97.97 112.62,-87.44 123.8,-79.65"/>
<polygon fill="#63b8ff" stroke="#63b8ff" points="125.89,-82.46 132.29,-74.02 122.02,-76.63 125.89,-82.46"/>
</g>
<!-- Node8&#45;&gt;Node6 -->
<g id="edge10" class="edge">
<title>Node8&#45;&gt;Node6</title>
<path fill="none" stroke="#63b8ff" d="M128.84,-54.98C110.75,-46.5 82.72,-33.35 61.81,-23.54"/>
<polygon fill="#63b8ff" stroke="#63b8ff" points="63.03,-20.25 52.49,-19.17 60.05,-26.59 63.03,-20.25"/>
</g>
<!-- Node9 -->
<g id="node9" class="node">
<title>Node9</title>
<g id="a_node9"><a xlink:href="Modifier_8h.html" target="_top" xlink:title=" ">
<polygon fill="white" stroke="#666666" points="179.5,-19 114.5,-19 114.5,0 179.5,0 179.5,-19"/>
<text text-anchor="middle" x="147" y="-7" font-family="Helvetica,sans-Serif" font-size="10.00">Modifier.h</text>
</a>
</g>
</g>
<!-- Node8&#45;&gt;Node9 -->
<g id="edge11" class="edge">
<title>Node8&#45;&gt;Node9</title>
<path fill="none" stroke="#63b8ff" d="M147,-54.75C147,-47.8 147,-37.85 147,-29.13"/>
<polygon fill="#63b8ff" stroke="#63b8ff" points="150.5,-29.09 147,-19.09 143.5,-29.09 150.5,-29.09"/>
</g>
<!-- Node10&#45;&gt;Node8 -->
<g id="edge14" class="edge">
<title>Node10&#45;&gt;Node8</title>
<path fill="none" stroke="#63b8ff" d="M203.01,-164.66C192.95,-146.85 170.08,-106.37 156.89,-83.01"/>
<polygon fill="#63b8ff" stroke="#63b8ff" points="159.86,-81.14 151.89,-74.16 153.76,-84.59 159.86,-81.14"/>
</g>
<!-- Node11 -->
<g id="node11" class="node">
<title>Node11</title>
<g id="a_node11"><a xlink:title=" ">
<polygon fill="#e0e0e0" stroke="#999999" points="236,-129 204,-129 204,-110 236,-110 236,-129"/>
<text text-anchor="middle" x="220" y="-117" font-family="Helvetica,sans-Serif" font-size="10.00">set</text>
</a>
</g>
</g>
<!-- Node10&#45;&gt;Node11 -->
<g id="edge13" class="edge">
<title>Node10&#45;&gt;Node11</title>
<path fill="none" stroke="#63b8ff" d="M209.98,-164.75C211.57,-157.72 213.86,-147.62 215.85,-138.84"/>
<polygon fill="#63b8ff" stroke="#63b8ff" points="219.26,-139.62 218.06,-129.09 212.43,-138.07 219.26,-139.62"/>
</g>
<!-- Node12 -->
<g id="node12" class="node">
<title>Node12</title>
<g id="a_node12"><a xlink:href="Utility_8h.html" target="_top" xlink:title=" ">
<polygon fill="white" stroke="#666666" points="308,-129 254,-129 254,-110 308,-110 308,-129"/>
<text text-anchor="middle" x="281" y="-117" font-family="Helvetica,sans-Serif" font-size="10.00">Utility.h</text>
</a>
</g>
</g>
<!-- Node10&#45;&gt;Node12 -->
<g id="edge15" class="edge">
<title>Node10&#45;&gt;Node12</title>
<path fill="none" stroke="#63b8ff" d="M219.73,-164.98C230.73,-157 247.42,-144.88 260.6,-135.31"/>
<polygon fill="#63b8ff" stroke="#63b8ff" points="263.02,-137.88 269.06,-129.17 258.91,-132.21 263.02,-137.88"/>
</g>
<!-- Node12&#45;&gt;Node8 -->
<g id="edge17" class="edge">
<title>Node12&#45;&gt;Node8</title>
<path fill="none" stroke="#63b8ff" d="M259.47,-109.98C237.53,-101.3 203.26,-87.75 178.31,-77.88"/>
<polygon fill="#63b8ff" stroke="#63b8ff" points="179.51,-74.59 168.92,-74.17 176.93,-81.1 179.51,-74.59"/>
</g>
<!-- Node13 -->
<g id="node13" class="node">
<title>Node13</title>
<g id="a_node13"><a xlink:title=" ">
<polygon fill="#e0e0e0" stroke="#999999" points="330,-74 286,-74 286,-55 330,-55 330,-74"/>
<text text-anchor="middle" x="308" y="-62" font-family="Helvetica,sans-Serif" font-size="10.00">string</text>
</a>
</g>
</g>
<!-- Node12&#45;&gt;Node13 -->
<g id="edge16" class="edge">
<title>Node12&#45;&gt;Node13</title>
<path fill="none" stroke="#63b8ff" d="M285.46,-109.75C289.12,-102.57 294.41,-92.18 298.95,-83.27"/>
<polygon fill="#63b8ff" stroke="#63b8ff" points="302.2,-84.59 303.62,-74.09 295.97,-81.41 302.2,-84.59"/>
</g>
<!-- Node15&#45;&gt;Node13 -->
<g id="edge20" class="edge">
<title>Node15&#45;&gt;Node13</title>
<path fill="none" stroke="#63b8ff" d="M332.54,-329.82C333.63,-311.49 336,-267.46 336,-230.5 336,-230.5 336,-230.5 336,-173.5 336,-141.02 323.99,-104.76 315.7,-83.6"/>
<polygon fill="#63b8ff" stroke="#63b8ff" points="318.91,-82.2 311.89,-74.26 312.43,-84.84 318.91,-82.2"/>
</g>
<!-- Node16 -->
<g id="node16" class="node">
<title>Node16</title>
<g id="a_node16"><a xlink:title=" ">
<polygon fill="#e0e0e0" stroke="#999999" points="307.5,-294 244.5,-294 244.5,-275 307.5,-275 307.5,-294"/>
<text text-anchor="middle" x="276" y="-282" font-family="Helvetica,sans-Serif" font-size="10.00">ncurses.h</text>
</a>
</g>
</g>
<!-- Node15&#45;&gt;Node16 -->
<g id="edge21" class="edge">
<title>Node15&#45;&gt;Node16</title>
<path fill="none" stroke="#63b8ff" d="M323,-329.98C314.81,-322.23 302.49,-310.58 292.53,-301.14"/>
<polygon fill="#63b8ff" stroke="#63b8ff" points="294.83,-298.5 285.16,-294.17 290.02,-303.59 294.83,-298.5"/>
</g>
</g>
</svg>
