<?xml version="1.0" encoding="UTF-8" standalone="no"?>
<!DOCTYPE svg PUBLIC "-//W3C//DTD SVG 1.1//EN"
 "http://www.w3.org/Graphics/SVG/1.1/DTD/svg11.dtd">
<!-- Generated by graphviz version 2.43.0 (0)
 -->
<!-- Title: src/action/once/RegexSelectAction.h Pages: 1 -->
<svg width="319pt" height="368pt"
 viewBox="0.00 0.00 319.00 368.00" xmlns="http://www.w3.org/2000/svg" xmlns:xlink="http://www.w3.org/1999/xlink">
<g id="graph0" class="graph" transform="scale(1 1) rotate(0) translate(4 364)">
<title>src/action/once/RegexSelectAction.h</title>
<!-- Node1 -->
<g id="node1" class="node">
<title>Node1</title>
<g id="a_node1"><a xlink:title=" ">
<polygon fill="#999999" stroke="#666666" points="154,-360 0,-360 0,-330 154,-330 154,-360"/>
<text text-anchor="start" x="8" y="-348" font-family="Helvetica,sans-Serif" font-size="10.00">src/action/once/RegexSelect</text>
<text text-anchor="middle" x="77" y="-337" font-family="Helvetica,sans-Serif" font-size="10.00">Action.h</text>
</a>
</g>
</g>
<!-- Node2 -->
<g id="node2" class="node">
<title>Node2</title>
<g id="a_node2"><a xlink:href="OnceAction_8h.html" target="_top" xlink:title=" ">
<polygon fill="white" stroke="#666666" points="122,-294 32,-294 32,-275 122,-275 122,-294"/>
<text text-anchor="middle" x="77" y="-282" font-family="Helvetica,sans-Serif" font-size="10.00">../OnceAction.h</text>
</a>
</g>
</g>
<!-- Node1&#45;&gt;Node2 -->
<g id="edge1" class="edge">
<title>Node1&#45;&gt;Node2</title>
<path fill="none" stroke="#63b8ff" d="M77,-329.84C77,-322.21 77,-312.7 77,-304.45"/>
<polygon fill="#63b8ff" stroke="#63b8ff" points="80.5,-304.27 77,-294.27 73.5,-304.27 80.5,-304.27"/>
</g>
<!-- Node3 -->
<g id="node3" class="node">
<title>Node3</title>
<g id="a_node3"><a xlink:href="Action_8h.html" target="_top" xlink:title=" ">
<polygon fill="white" stroke="#666666" points="105,-239 49,-239 49,-220 105,-220 105,-239"/>
<text text-anchor="middle" x="77" y="-227" font-family="Helvetica,sans-Serif" font-size="10.00">Action.h</text>
</a>
</g>
</g>
<!-- Node2&#45;&gt;Node3 -->
<g id="edge2" class="edge">
<title>Node2&#45;&gt;Node3</title>
<path fill="none" stroke="#63b8ff" d="M77,-274.75C77,-267.8 77,-257.85 77,-249.13"/>
<polygon fill="#63b8ff" stroke="#63b8ff" points="80.5,-249.09 77,-239.09 73.5,-249.09 80.5,-249.09"/>
</g>
<!-- Node4 -->
<g id="node4" class="node">
<title>Node4</title>
<g id="a_node4"><a xlink:title=" ">
<polygon fill="#e0e0e0" stroke="#999999" points="74.5,-129 27.5,-129 27.5,-110 74.5,-110 74.5,-129"/>
<text text-anchor="middle" x="51" y="-117" font-family="Helvetica,sans-Serif" font-size="10.00">vector</text>
</a>
</g>
</g>
<!-- Node3&#45;&gt;Node4 -->
<g id="edge3" class="edge">
<title>Node3&#45;&gt;Node4</title>
<path fill="none" stroke="#63b8ff" d="M73.9,-219.72C70.83,-210.81 66.15,-196.57 63,-184 59.28,-169.17 56.12,-152.13 53.98,-139.44"/>
<polygon fill="#63b8ff" stroke="#63b8ff" points="57.37,-138.51 52.31,-129.2 50.46,-139.63 57.37,-138.51"/>
</g>
<!-- Node5 -->
<g id="node5" class="node">
<title>Node5</title>
<g id="a_node5"><a xlink:title=" ">
<polygon fill="#e0e0e0" stroke="#999999" points="137,-19 69,-19 69,0 137,0 137,-19"/>
<text text-anchor="middle" x="103" y="-7" font-family="Helvetica,sans-Serif" font-size="10.00">filesystem</text>
</a>
</g>
</g>
<!-- Node3&#45;&gt;Node5 -->
<g id="edge4" class="edge">
<title>Node3&#45;&gt;Node5</title>
<path fill="none" stroke="#63b8ff" d="M67.17,-219.87C46.6,-200.71 2.17,-152.91 18,-110 31.06,-74.59 62.96,-43.24 83.75,-25.59"/>
<polygon fill="#63b8ff" stroke="#63b8ff" points="86.14,-28.16 91.64,-19.1 81.69,-22.76 86.14,-28.16"/>
</g>
<!-- Node6 -->
<g id="node6" class="node">
<title>Node6</title>
<g id="a_node6"><a xlink:href="FileView_8h.html" target="_top" xlink:title=" ">
<polygon fill="white" stroke="#666666" points="147.5,-184 72.5,-184 72.5,-165 147.5,-165 147.5,-184"/>
<text text-anchor="middle" x="110" y="-172" font-family="Helvetica,sans-Serif" font-size="10.00">../FileView.h</text>
</a>
</g>
</g>
<!-- Node3&#45;&gt;Node6 -->
<g id="edge5" class="edge">
<title>Node3&#45;&gt;Node6</title>
<path fill="none" stroke="#63b8ff" d="M82.45,-219.75C87.01,-212.42 93.67,-201.73 99.29,-192.7"/>
<polygon fill="#63b8ff" stroke="#63b8ff" points="102.34,-194.43 104.65,-184.09 96.4,-190.73 102.34,-194.43"/>
</g>
<!-- Node9 -->
<g id="node9" class="node">
<title>Node9</title>
<g id="a_node9"><a xlink:href="State_8h.html" target="_top" xlink:title=" ">
<polygon fill="white" stroke="#666666" points="245,-184 185,-184 185,-165 245,-165 245,-184"/>
<text text-anchor="middle" x="215" y="-172" font-family="Helvetica,sans-Serif" font-size="10.00">../State.h</text>
</a>
</g>
</g>
<!-- Node3&#45;&gt;Node9 -->
<g id="edge11" class="edge">
<title>Node3&#45;&gt;Node9</title>
<path fill="none" stroke="#63b8ff" d="M99.17,-219.98C121.77,-211.3 157.06,-197.75 182.75,-187.88"/>
<polygon fill="#63b8ff" stroke="#63b8ff" points="184.34,-191.02 192.42,-184.17 181.83,-184.49 184.34,-191.02"/>
</g>
<!-- Node6&#45;&gt;Node4 -->
<g id="edge6" class="edge">
<title>Node6&#45;&gt;Node4</title>
<path fill="none" stroke="#63b8ff" d="M100.52,-164.98C91.8,-157.15 78.66,-145.34 68.1,-135.86"/>
<polygon fill="#63b8ff" stroke="#63b8ff" points="70.43,-133.25 60.65,-129.17 65.75,-138.46 70.43,-133.25"/>
</g>
<!-- Node6&#45;&gt;Node5 -->
<g id="edge7" class="edge">
<title>Node6&#45;&gt;Node5</title>
<path fill="none" stroke="#63b8ff" d="M109.62,-164.74C108.53,-139.31 105.34,-65.08 103.82,-29.69"/>
<polygon fill="#63b8ff" stroke="#63b8ff" points="107.3,-29.15 103.38,-19.31 100.31,-29.45 107.3,-29.15"/>
</g>
<!-- Node7 -->
<g id="node7" class="node">
<title>Node7</title>
<g id="a_node7"><a xlink:href="Entry_8h.html" target="_top" xlink:title=" ">
<polygon fill="white" stroke="#666666" points="235,-74 157,-74 157,-55 235,-55 235,-74"/>
<text text-anchor="middle" x="196" y="-62" font-family="Helvetica,sans-Serif" font-size="10.00">entry/Entry.h</text>
</a>
</g>
</g>
<!-- Node6&#45;&gt;Node7 -->
<g id="edge8" class="edge">
<title>Node6&#45;&gt;Node7</title>
<path fill="none" stroke="#63b8ff" d="M116.76,-164.84C126.33,-152.6 144.42,-129.52 160,-110 167.45,-100.66 175.85,-90.28 182.65,-81.89"/>
<polygon fill="#63b8ff" stroke="#63b8ff" points="185.47,-83.97 189.07,-74 180.04,-79.56 185.47,-83.97"/>
</g>
<!-- Node7&#45;&gt;Node5 -->
<g id="edge9" class="edge">
<title>Node7&#45;&gt;Node5</title>
<path fill="none" stroke="#63b8ff" d="M181.06,-54.98C166.5,-46.69 144.13,-33.94 127.07,-24.22"/>
<polygon fill="#63b8ff" stroke="#63b8ff" points="128.64,-21.08 118.21,-19.17 125.17,-27.16 128.64,-21.08"/>
</g>
<!-- Node8 -->
<g id="node8" class="node">
<title>Node8</title>
<g id="a_node8"><a xlink:href="Modifier_8h.html" target="_top" xlink:title=" ">
<polygon fill="white" stroke="#666666" points="228.5,-19 163.5,-19 163.5,0 228.5,0 228.5,-19"/>
<text text-anchor="middle" x="196" y="-7" font-family="Helvetica,sans-Serif" font-size="10.00">Modifier.h</text>
</a>
</g>
</g>
<!-- Node7&#45;&gt;Node8 -->
<g id="edge10" class="edge">
<title>Node7&#45;&gt;Node8</title>
<path fill="none" stroke="#63b8ff" d="M196,-54.75C196,-47.8 196,-37.85 196,-29.13"/>
<polygon fill="#63b8ff" stroke="#63b8ff" points="199.5,-29.09 196,-19.09 192.5,-29.09 199.5,-29.09"/>
</g>
<!-- Node9&#45;&gt;Node7 -->
<g id="edge13" class="edge">
<title>Node9&#45;&gt;Node7</title>
<path fill="none" stroke="#63b8ff" d="M214.93,-164.79C214.7,-152.47 213.75,-129.32 210,-110 208.3,-101.25 205.48,-91.81 202.81,-83.88"/>
<polygon fill="#63b8ff" stroke="#63b8ff" points="206.03,-82.47 199.39,-74.21 199.43,-84.81 206.03,-82.47"/>
</g>
<!-- Node10 -->
<g id="node10" class="node">
<title>Node10</title>
<g id="a_node10"><a xlink:title=" ">
<polygon fill="#e0e0e0" stroke="#999999" points="201,-129 169,-129 169,-110 201,-110 201,-129"/>
<text text-anchor="middle" x="185" y="-117" font-family="Helvetica,sans-Serif" font-size="10.00">set</text>
</a>
</g>
</g>
<!-- Node9&#45;&gt;Node10 -->
<g id="edge12" class="edge">
<title>Node9&#45;&gt;Node10</title>
<path fill="none" stroke="#63b8ff" d="M210.05,-164.75C205.94,-157.49 199.97,-146.95 194.9,-137.98"/>
<polygon fill="#63b8ff" stroke="#63b8ff" points="197.83,-136.07 189.86,-129.09 191.74,-139.52 197.83,-136.07"/>
</g>
<!-- Node11 -->
<g id="node11" class="node">
<title>Node11</title>
<g id="a_node11"><a xlink:href="Utility_8h.html" target="_top" xlink:title=" ">
<polygon fill="white" stroke="#666666" points="311,-129 257,-129 257,-110 311,-110 311,-129"/>
<text text-anchor="middle" x="284" y="-117" font-family="Helvetica,sans-Serif" font-size="10.00">Utility.h</text>
</a>
</g>
</g>
<!-- Node9&#45;&gt;Node11 -->
<g id="edge14" class="edge">
<title>Node9&#45;&gt;Node11</title>
<path fill="none" stroke="#63b8ff" d="M226.09,-164.98C236.49,-157 252.26,-144.88 264.72,-135.31"/>
<polygon fill="#63b8ff" stroke="#63b8ff" points="266.91,-138.04 272.71,-129.17 262.65,-132.49 266.91,-138.04"/>
</g>
<!-- Node11&#45;&gt;Node7 -->
<g id="edge16" class="edge">
<title>Node11&#45;&gt;Node7</title>
<path fill="none" stroke="#63b8ff" d="M269.86,-109.98C256.21,-101.77 235.31,-89.18 219.22,-79.49"/>
<polygon fill="#63b8ff" stroke="#63b8ff" points="220.77,-76.33 210.4,-74.17 217.16,-82.33 220.77,-76.33"/>
</g>
<!-- Node12 -->
<g id="node12" class="node">
<title>Node12</title>
<g id="a_node12"><a xlink:title=" ">
<polygon fill="#e0e0e0" stroke="#999999" points="306,-74 262,-74 262,-55 306,-55 306,-74"/>
<text text-anchor="middle" x="284" y="-62" font-family="Helvetica,sans-Serif" font-size="10.00">string</text>
</a>
</g>
</g>
<!-- Node11&#45;&gt;Node12 -->
<g id="edge15" class="edge">
<title>Node11&#45;&gt;Node12</title>
<path fill="none" stroke="#63b8ff" d="M284,-109.75C284,-102.8 284,-92.85 284,-84.13"/>
<polygon fill="#63b8ff" stroke="#63b8ff" points="287.5,-84.09 284,-74.09 280.5,-84.09 287.5,-84.09"/>
</g>
</g>
</svg>
