<?xml version="1.0" encoding="UTF-8" standalone="no"?>
<!DOCTYPE svg PUBLIC "-//W3C//DTD SVG 1.1//EN"
 "http://www.w3.org/Graphics/SVG/1.1/DTD/svg11.dtd">
<!-- Generated by graphviz version 2.43.0 (0)
 -->
<!-- Title: src/action/once/SelectByContentAction.cpp Pages: 1 -->
<svg width="419pt" height="423pt"
 viewBox="0.00 0.00 418.50 423.00" xmlns="http://www.w3.org/2000/svg" xmlns:xlink="http://www.w3.org/1999/xlink">
<g id="graph0" class="graph" transform="scale(1 1) rotate(0) translate(4 419)">
<title>src/action/once/SelectByContentAction.cpp</title>
<!-- Node1 -->
<g id="node1" class="node">
<title>Node1</title>
<g id="a_node1"><a xlink:title=" ">
<polygon fill="#999999" stroke="#666666" points="284.5,-415 148.5,-415 148.5,-385 284.5,-385 284.5,-415"/>
<text text-anchor="start" x="156.5" y="-403" font-family="Helvetica,sans-Serif" font-size="10.00">src/action/once/SelectBy</text>
<text text-anchor="middle" x="216.5" y="-392" font-family="Helvetica,sans-Serif" font-size="10.00">ContentAction.cpp</text>
</a>
</g>
</g>
<!-- Node2 -->
<g id="node2" class="node">
<title>Node2</title>
<g id="a_node2"><a xlink:href="SelectByContentAction_8h.html" target="_top" xlink:title=" ">
<polygon fill="white" stroke="#666666" points="137,-349 0,-349 0,-330 137,-330 137,-349"/>
<text text-anchor="middle" x="68.5" y="-337" font-family="Helvetica,sans-Serif" font-size="10.00">SelectByContentAction.h</text>
</a>
</g>
</g>
<!-- Node1&#45;&gt;Node2 -->
<g id="edge1" class="edge">
<title>Node1&#45;&gt;Node2</title>
<path fill="none" stroke="#63b8ff" d="M181.05,-384.99C156.36,-375.23 123.72,-362.33 99.95,-352.93"/>
<polygon fill="#63b8ff" stroke="#63b8ff" points="100.94,-349.56 90.36,-349.14 98.37,-356.07 100.94,-349.56"/>
</g>
<!-- Node14 -->
<g id="node14" class="node">
<title>Node14</title>
<g id="a_node14"><a xlink:title=" ">
<polygon fill="#e0e0e0" stroke="#999999" points="210,-349 155,-349 155,-330 210,-330 210,-349"/>
<text text-anchor="middle" x="182.5" y="-337" font-family="Helvetica,sans-Serif" font-size="10.00">fstream</text>
</a>
</g>
</g>
<!-- Node1&#45;&gt;Node14 -->
<g id="edge18" class="edge">
<title>Node1&#45;&gt;Node14</title>
<path fill="none" stroke="#63b8ff" d="M208.27,-384.84C203.59,-376.78 197.68,-366.62 192.7,-358.06"/>
<polygon fill="#63b8ff" stroke="#63b8ff" points="195.65,-356.15 187.59,-349.27 189.59,-359.67 195.65,-356.15"/>
</g>
<!-- Node15 -->
<g id="node15" class="node">
<title>Node15</title>
<g id="a_node15"><a xlink:title=" ">
<polygon fill="#e0e0e0" stroke="#999999" points="272.5,-349 228.5,-349 228.5,-330 272.5,-330 272.5,-349"/>
<text text-anchor="middle" x="250.5" y="-337" font-family="Helvetica,sans-Serif" font-size="10.00">regex</text>
</a>
</g>
</g>
<!-- Node1&#45;&gt;Node15 -->
<g id="edge19" class="edge">
<title>Node1&#45;&gt;Node15</title>
<path fill="none" stroke="#63b8ff" d="M224.73,-384.84C229.41,-376.78 235.32,-366.62 240.3,-358.06"/>
<polygon fill="#63b8ff" stroke="#63b8ff" points="243.41,-359.67 245.41,-349.27 237.35,-356.15 243.41,-359.67"/>
</g>
<!-- Node16 -->
<g id="node16" class="node">
<title>Node16</title>
<g id="a_node16"><a xlink:href="Modal_8h.html" target="_top" xlink:title=" ">
<polygon fill="white" stroke="#666666" points="410.5,-349 290.5,-349 290.5,-330 410.5,-330 410.5,-349"/>
<text text-anchor="middle" x="350.5" y="-337" font-family="Helvetica,sans-Serif" font-size="10.00">../../interface/Modal.h</text>
</a>
</g>
</g>
<!-- Node1&#45;&gt;Node16 -->
<g id="edge20" class="edge">
<title>Node1&#45;&gt;Node16</title>
<path fill="none" stroke="#63b8ff" d="M248.6,-384.99C270.75,-375.31 299.98,-362.56 321.45,-353.18"/>
<polygon fill="#63b8ff" stroke="#63b8ff" points="322.95,-356.35 330.71,-349.14 320.15,-349.93 322.95,-356.35"/>
</g>
<!-- Node3 -->
<g id="node3" class="node">
<title>Node3</title>
<g id="a_node3"><a xlink:href="OnceAction_8h.html" target="_top" xlink:title=" ">
<polygon fill="white" stroke="#666666" points="117.5,-294 27.5,-294 27.5,-275 117.5,-275 117.5,-294"/>
<text text-anchor="middle" x="72.5" y="-282" font-family="Helvetica,sans-Serif" font-size="10.00">../OnceAction.h</text>
</a>
</g>
</g>
<!-- Node2&#45;&gt;Node3 -->
<g id="edge2" class="edge">
<title>Node2&#45;&gt;Node3</title>
<path fill="none" stroke="#63b8ff" d="M69.16,-329.75C69.68,-322.8 70.44,-312.85 71.09,-304.13"/>
<polygon fill="#63b8ff" stroke="#63b8ff" points="74.59,-304.32 71.85,-294.09 67.61,-303.8 74.59,-304.32"/>
</g>
<!-- Node4 -->
<g id="node4" class="node">
<title>Node4</title>
<g id="a_node4"><a xlink:href="Action_8h.html" target="_top" xlink:title=" ">
<polygon fill="white" stroke="#666666" points="102.5,-239 46.5,-239 46.5,-220 102.5,-220 102.5,-239"/>
<text text-anchor="middle" x="74.5" y="-227" font-family="Helvetica,sans-Serif" font-size="10.00">Action.h</text>
</a>
</g>
</g>
<!-- Node3&#45;&gt;Node4 -->
<g id="edge3" class="edge">
<title>Node3&#45;&gt;Node4</title>
<path fill="none" stroke="#63b8ff" d="M72.83,-274.75C73.09,-267.8 73.47,-257.85 73.8,-249.13"/>
<polygon fill="#63b8ff" stroke="#63b8ff" points="77.3,-249.21 74.18,-239.09 70.3,-248.95 77.3,-249.21"/>
</g>
<!-- Node5 -->
<g id="node5" class="node">
<title>Node5</title>
<g id="a_node5"><a xlink:title=" ">
<polygon fill="#e0e0e0" stroke="#999999" points="160,-129 113,-129 113,-110 160,-110 160,-129"/>
<text text-anchor="middle" x="136.5" y="-117" font-family="Helvetica,sans-Serif" font-size="10.00">vector</text>
</a>
</g>
</g>
<!-- Node4&#45;&gt;Node5 -->
<g id="edge4" class="edge">
<title>Node4&#45;&gt;Node5</title>
<path fill="none" stroke="#63b8ff" d="M86.51,-219.99C97.03,-211.91 111.93,-198.81 120.5,-184 128.42,-170.3 132.46,-152.72 134.5,-139.53"/>
<polygon fill="#63b8ff" stroke="#63b8ff" points="138.01,-139.65 135.82,-129.28 131.07,-138.75 138.01,-139.65"/>
</g>
<!-- Node6 -->
<g id="node6" class="node">
<title>Node6</title>
<g id="a_node6"><a xlink:title=" ">
<polygon fill="#e0e0e0" stroke="#999999" points="80.5,-19 12.5,-19 12.5,0 80.5,0 80.5,-19"/>
<text text-anchor="middle" x="46.5" y="-7" font-family="Helvetica,sans-Serif" font-size="10.00">filesystem</text>
</a>
</g>
</g>
<!-- Node4&#45;&gt;Node6 -->
<g id="edge5" class="edge">
<title>Node4&#45;&gt;Node6</title>
<path fill="none" stroke="#63b8ff" d="M60.43,-219.89C49.15,-212.1 34.16,-199.48 27.5,-184 4.79,-131.23 26.14,-61.48 38.74,-28.83"/>
<polygon fill="#63b8ff" stroke="#63b8ff" points="42.11,-29.84 42.6,-19.25 35.61,-27.22 42.11,-29.84"/>
</g>
<!-- Node7 -->
<g id="node7" class="node">
<title>Node7</title>
<g id="a_node7"><a xlink:href="FileView_8h.html" target="_top" xlink:title=" ">
<polygon fill="white" stroke="#666666" points="112,-184 37,-184 37,-165 112,-165 112,-184"/>
<text text-anchor="middle" x="74.5" y="-172" font-family="Helvetica,sans-Serif" font-size="10.00">../FileView.h</text>
</a>
</g>
</g>
<!-- Node4&#45;&gt;Node7 -->
<g id="edge6" class="edge">
<title>Node4&#45;&gt;Node7</title>
<path fill="none" stroke="#63b8ff" d="M74.5,-219.75C74.5,-212.8 74.5,-202.85 74.5,-194.13"/>
<polygon fill="#63b8ff" stroke="#63b8ff" points="78,-194.09 74.5,-184.09 71,-194.09 78,-194.09"/>
</g>
<!-- Node10 -->
<g id="node10" class="node">
<title>Node10</title>
<g id="a_node10"><a xlink:href="State_8h.html" target="_top" xlink:title=" ">
<polygon fill="white" stroke="#666666" points="245.5,-184 185.5,-184 185.5,-165 245.5,-165 245.5,-184"/>
<text text-anchor="middle" x="215.5" y="-172" font-family="Helvetica,sans-Serif" font-size="10.00">../State.h</text>
</a>
</g>
</g>
<!-- Node4&#45;&gt;Node10 -->
<g id="edge12" class="edge">
<title>Node4&#45;&gt;Node10</title>
<path fill="none" stroke="#63b8ff" d="M97.15,-219.98C120.35,-211.27 156.62,-197.63 182.9,-187.75"/>
<polygon fill="#63b8ff" stroke="#63b8ff" points="184.3,-190.97 192.43,-184.17 181.84,-184.41 184.3,-190.97"/>
</g>
<!-- Node7&#45;&gt;Node5 -->
<g id="edge7" class="edge">
<title>Node7&#45;&gt;Node5</title>
<path fill="none" stroke="#63b8ff" d="M84.46,-164.98C93.63,-157.15 107.44,-145.34 118.53,-135.86"/>
<polygon fill="#63b8ff" stroke="#63b8ff" points="121.03,-138.33 126.36,-129.17 116.48,-133.01 121.03,-138.33"/>
</g>
<!-- Node7&#45;&gt;Node6 -->
<g id="edge8" class="edge">
<title>Node7&#45;&gt;Node6</title>
<path fill="none" stroke="#63b8ff" d="M72.99,-164.74C68.61,-139.2 55.76,-64.43 49.72,-29.23"/>
<polygon fill="#63b8ff" stroke="#63b8ff" points="53.16,-28.57 48.01,-19.31 46.26,-29.76 53.16,-28.57"/>
</g>
<!-- Node8 -->
<g id="node8" class="node">
<title>Node8</title>
<g id="a_node8"><a xlink:href="Entry_8h.html" target="_top" xlink:title=" ">
<polygon fill="white" stroke="#666666" points="198.5,-74 120.5,-74 120.5,-55 198.5,-55 198.5,-74"/>
<text text-anchor="middle" x="159.5" y="-62" font-family="Helvetica,sans-Serif" font-size="10.00">entry/Entry.h</text>
</a>
</g>
</g>
<!-- Node7&#45;&gt;Node8 -->
<g id="edge9" class="edge">
<title>Node7&#45;&gt;Node8</title>
<path fill="none" stroke="#63b8ff" d="M77.1,-164.58C81.18,-151.6 90.06,-127.18 103.5,-110 112.68,-98.27 125.55,-87.76 136.64,-79.91"/>
<polygon fill="#63b8ff" stroke="#63b8ff" points="138.73,-82.72 145.04,-74.2 134.8,-76.92 138.73,-82.72"/>
</g>
<!-- Node8&#45;&gt;Node6 -->
<g id="edge10" class="edge">
<title>Node8&#45;&gt;Node6</title>
<path fill="none" stroke="#63b8ff" d="M141.34,-54.98C123.25,-46.5 95.22,-33.35 74.31,-23.54"/>
<polygon fill="#63b8ff" stroke="#63b8ff" points="75.53,-20.25 64.99,-19.17 72.55,-26.59 75.53,-20.25"/>
</g>
<!-- Node9 -->
<g id="node9" class="node">
<title>Node9</title>
<g id="a_node9"><a xlink:href="Modifier_8h.html" target="_top" xlink:title=" ">
<polygon fill="white" stroke="#666666" points="192,-19 127,-19 127,0 192,0 192,-19"/>
<text text-anchor="middle" x="159.5" y="-7" font-family="Helvetica,sans-Serif" font-size="10.00">Modifier.h</text>
</a>
</g>
</g>
<!-- Node8&#45;&gt;Node9 -->
<g id="edge11" class="edge">
<title>Node8&#45;&gt;Node9</title>
<path fill="none" stroke="#63b8ff" d="M159.5,-54.75C159.5,-47.8 159.5,-37.85 159.5,-29.13"/>
<polygon fill="#63b8ff" stroke="#63b8ff" points="163,-29.09 159.5,-19.09 156,-29.09 163,-29.09"/>
</g>
<!-- Node10&#45;&gt;Node8 -->
<g id="edge14" class="edge">
<title>Node10&#45;&gt;Node8</title>
<path fill="none" stroke="#63b8ff" d="M210.92,-164.66C201.72,-146.93 180.88,-106.73 168.74,-83.32"/>
<polygon fill="#63b8ff" stroke="#63b8ff" points="171.7,-81.42 163.99,-74.16 165.49,-84.65 171.7,-81.42"/>
</g>
<!-- Node11 -->
<g id="node11" class="node">
<title>Node11</title>
<g id="a_node11"><a xlink:title=" ">
<polygon fill="#e0e0e0" stroke="#999999" points="248.5,-129 216.5,-129 216.5,-110 248.5,-110 248.5,-129"/>
<text text-anchor="middle" x="232.5" y="-117" font-family="Helvetica,sans-Serif" font-size="10.00">set</text>
</a>
</g>
</g>
<!-- Node10&#45;&gt;Node11 -->
<g id="edge13" class="edge">
<title>Node10&#45;&gt;Node11</title>
<path fill="none" stroke="#63b8ff" d="M218.31,-164.75C220.56,-157.72 223.8,-147.62 226.62,-138.84"/>
<polygon fill="#63b8ff" stroke="#63b8ff" points="230.02,-139.68 229.75,-129.09 223.36,-137.54 230.02,-139.68"/>
</g>
<!-- Node12 -->
<g id="node12" class="node">
<title>Node12</title>
<g id="a_node12"><a xlink:href="Utility_8h.html" target="_top" xlink:title=" ">
<polygon fill="white" stroke="#666666" points="320.5,-129 266.5,-129 266.5,-110 320.5,-110 320.5,-129"/>
<text text-anchor="middle" x="293.5" y="-117" font-family="Helvetica,sans-Serif" font-size="10.00">Utility.h</text>
</a>
</g>
</g>
<!-- Node10&#45;&gt;Node12 -->
<g id="edge15" class="edge">
<title>Node10&#45;&gt;Node12</title>
<path fill="none" stroke="#63b8ff" d="M228.03,-164.98C239.9,-156.92 257.96,-144.65 272.11,-135.03"/>
<polygon fill="#63b8ff" stroke="#63b8ff" points="274.44,-137.69 280.74,-129.17 270.5,-131.9 274.44,-137.69"/>
</g>
<!-- Node12&#45;&gt;Node8 -->
<g id="edge17" class="edge">
<title>Node12&#45;&gt;Node8</title>
<path fill="none" stroke="#63b8ff" d="M271.97,-109.98C250.03,-101.3 215.76,-87.75 190.81,-77.88"/>
<polygon fill="#63b8ff" stroke="#63b8ff" points="192.01,-74.59 181.42,-74.17 189.43,-81.1 192.01,-74.59"/>
</g>
<!-- Node13 -->
<g id="node13" class="node">
<title>Node13</title>
<g id="a_node13"><a xlink:title=" ">
<polygon fill="#e0e0e0" stroke="#999999" points="343.5,-74 299.5,-74 299.5,-55 343.5,-55 343.5,-74"/>
<text text-anchor="middle" x="321.5" y="-62" font-family="Helvetica,sans-Serif" font-size="10.00">string</text>
</a>
</g>
</g>
<!-- Node12&#45;&gt;Node13 -->
<g id="edge16" class="edge">
<title>Node12&#45;&gt;Node13</title>
<path fill="none" stroke="#63b8ff" d="M298.12,-109.75C301.96,-102.49 307.52,-91.95 312.26,-82.98"/>
<polygon fill="#63b8ff" stroke="#63b8ff" points="315.39,-84.57 316.96,-74.09 309.2,-81.3 315.39,-84.57"/>
</g>
<!-- Node16&#45;&gt;Node13 -->
<g id="edge21" class="edge">
<title>Node16&#45;&gt;Node13</title>
<path fill="none" stroke="#63b8ff" d="M350.5,-329.82C350.5,-311.48 350.5,-267.44 350.5,-230.5 350.5,-230.5 350.5,-230.5 350.5,-173.5 350.5,-140.95 338.06,-104.71 329.47,-83.57"/>
<polygon fill="#63b8ff" stroke="#63b8ff" points="332.65,-82.09 325.53,-74.25 326.2,-84.82 332.65,-82.09"/>
</g>
<!-- Node17 -->
<g id="node17" class="node">
<title>Node17</title>
<g id="a_node17"><a xlink:title=" ">
<polygon fill="#e0e0e0" stroke="#999999" points="322,-294 259,-294 259,-275 322,-275 322,-294"/>
<text text-anchor="middle" x="290.5" y="-282" font-family="Helvetica,sans-Serif" font-size="10.00">ncurses.h</text>
</a>
</g>
</g>
<!-- Node16&#45;&gt;Node17 -->
<g id="edge22" class="edge">
<title>Node16&#45;&gt;Node17</title>
<path fill="none" stroke="#63b8ff" d="M340.86,-329.98C331.99,-322.15 318.63,-310.34 307.89,-300.86"/>
<polygon fill="#63b8ff" stroke="#63b8ff" points="310.13,-298.17 300.32,-294.17 305.49,-303.41 310.13,-298.17"/>
</g>
</g>
</svg>
