<?xml version="1.0" encoding="UTF-8" standalone="no"?>
<!DOCTYPE svg PUBLIC "-//W3C//DTD SVG 1.1//EN"
 "http://www.w3.org/Graphics/SVG/1.1/DTD/svg11.dtd">
<!-- Generated by graphviz version 2.43.0 (0)
 -->
<!-- Title: src/action/once/SelectByContentAction.h Pages: 1 -->
<svg width="310pt" height="368pt"
 viewBox="0.00 0.00 310.00 368.00" xmlns="http://www.w3.org/2000/svg" xmlns:xlink="http://www.w3.org/1999/xlink">
<g id="graph0" class="graph" transform="scale(1 1) rotate(0) translate(4 364)">
<title>src/action/once/SelectByContentAction.h</title>
<!-- Node1 -->
<g id="node1" class="node">
<title>Node1</title>
<g id="a_node1"><a xlink:title=" ">
<polygon fill="#999999" stroke="#666666" points="136,-360 0,-360 0,-330 136,-330 136,-360"/>
<text text-anchor="start" x="8" y="-348" font-family="Helvetica,sans-Serif" font-size="10.00">src/action/once/SelectBy</text>
<text text-anchor="middle" x="68" y="-337" font-family="Helvetica,sans-Serif" font-size="10.00">ContentAction.h</text>
</a>
</g>
</g>
<!-- Node2 -->
<g id="node2" class="node">
<title>Node2</title>
<g id="a_node2"><a xlink:href="OnceAction_8h.html" target="_top" xlink:title=" ">
<polygon fill="white" stroke="#666666" points="113,-294 23,-294 23,-275 113,-275 113,-294"/>
<text text-anchor="middle" x="68" y="-282" font-family="Helvetica,sans-Serif" font-size="10.00">../OnceAction.h</text>
</a>
</g>
</g>
<!-- Node1&#45;&gt;Node2 -->
<g id="edge1" class="edge">
<title>Node1&#45;&gt;Node2</title>
<path fill="none" stroke="#63b8ff" d="M68,-329.84C68,-322.21 68,-312.7 68,-304.45"/>
<polygon fill="#63b8ff" stroke="#63b8ff" points="71.5,-304.27 68,-294.27 64.5,-304.27 71.5,-304.27"/>
</g>
<!-- Node3 -->
<g id="node3" class="node">
<title>Node3</title>
<g id="a_node3"><a xlink:href="Action_8h.html" target="_top" xlink:title=" ">
<polygon fill="white" stroke="#666666" points="96,-239 40,-239 40,-220 96,-220 96,-239"/>
<text text-anchor="middle" x="68" y="-227" font-family="Helvetica,sans-Serif" font-size="10.00">Action.h</text>
</a>
</g>
</g>
<!-- Node2&#45;&gt;Node3 -->
<g id="edge2" class="edge">
<title>Node2&#45;&gt;Node3</title>
<path fill="none" stroke="#63b8ff" d="M68,-274.75C68,-267.8 68,-257.85 68,-249.13"/>
<polygon fill="#63b8ff" stroke="#63b8ff" points="71.5,-249.09 68,-239.09 64.5,-249.09 71.5,-249.09"/>
</g>
<!-- Node4 -->
<g id="node4" class="node">
<title>Node4</title>
<g id="a_node4"><a xlink:title=" ">
<polygon fill="#e0e0e0" stroke="#999999" points="65.5,-129 18.5,-129 18.5,-110 65.5,-110 65.5,-129"/>
<text text-anchor="middle" x="42" y="-117" font-family="Helvetica,sans-Serif" font-size="10.00">vector</text>
</a>
</g>
</g>
<!-- Node3&#45;&gt;Node4 -->
<g id="edge3" class="edge">
<title>Node3&#45;&gt;Node4</title>
<path fill="none" stroke="#63b8ff" d="M64.9,-219.72C61.83,-210.81 57.15,-196.57 54,-184 50.28,-169.17 47.12,-152.13 44.98,-139.44"/>
<polygon fill="#63b8ff" stroke="#63b8ff" points="48.37,-138.51 43.31,-129.2 41.46,-139.63 48.37,-138.51"/>
</g>
<!-- Node5 -->
<g id="node5" class="node">
<title>Node5</title>
<g id="a_node5"><a xlink:title=" ">
<polygon fill="#e0e0e0" stroke="#999999" points="128,-19 60,-19 60,0 128,0 128,-19"/>
<text text-anchor="middle" x="94" y="-7" font-family="Helvetica,sans-Serif" font-size="10.00">filesystem</text>
</a>
</g>
</g>
<!-- Node3&#45;&gt;Node5 -->
<g id="edge4" class="edge">
<title>Node3&#45;&gt;Node5</title>
<path fill="none" stroke="#63b8ff" d="M58.17,-219.87C37.6,-200.71 -6.83,-152.91 9,-110 22.06,-74.59 53.96,-43.24 74.75,-25.59"/>
<polygon fill="#63b8ff" stroke="#63b8ff" points="77.14,-28.16 82.64,-19.1 72.69,-22.76 77.14,-28.16"/>
</g>
<!-- Node6 -->
<g id="node6" class="node">
<title>Node6</title>
<g id="a_node6"><a xlink:href="FileView_8h.html" target="_top" xlink:title=" ">
<polygon fill="white" stroke="#666666" points="138.5,-184 63.5,-184 63.5,-165 138.5,-165 138.5,-184"/>
<text text-anchor="middle" x="101" y="-172" font-family="Helvetica,sans-Serif" font-size="10.00">../FileView.h</text>
</a>
</g>
</g>
<!-- Node3&#45;&gt;Node6 -->
<g id="edge5" class="edge">
<title>Node3&#45;&gt;Node6</title>
<path fill="none" stroke="#63b8ff" d="M73.45,-219.75C78.01,-212.42 84.67,-201.73 90.29,-192.7"/>
<polygon fill="#63b8ff" stroke="#63b8ff" points="93.34,-194.43 95.65,-184.09 87.4,-190.73 93.34,-194.43"/>
</g>
<!-- Node9 -->
<g id="node9" class="node">
<title>Node9</title>
<g id="a_node9"><a xlink:href="State_8h.html" target="_top" xlink:title=" ">
<polygon fill="white" stroke="#666666" points="236,-184 176,-184 176,-165 236,-165 236,-184"/>
<text text-anchor="middle" x="206" y="-172" font-family="Helvetica,sans-Serif" font-size="10.00">../State.h</text>
</a>
</g>
</g>
<!-- Node3&#45;&gt;Node9 -->
<g id="edge11" class="edge">
<title>Node3&#45;&gt;Node9</title>
<path fill="none" stroke="#63b8ff" d="M90.17,-219.98C112.77,-211.3 148.06,-197.75 173.75,-187.88"/>
<polygon fill="#63b8ff" stroke="#63b8ff" points="175.34,-191.02 183.42,-184.17 172.83,-184.49 175.34,-191.02"/>
</g>
<!-- Node6&#45;&gt;Node4 -->
<g id="edge6" class="edge">
<title>Node6&#45;&gt;Node4</title>
<path fill="none" stroke="#63b8ff" d="M91.52,-164.98C82.8,-157.15 69.66,-145.34 59.1,-135.86"/>
<polygon fill="#63b8ff" stroke="#63b8ff" points="61.43,-133.25 51.65,-129.17 56.75,-138.46 61.43,-133.25"/>
</g>
<!-- Node6&#45;&gt;Node5 -->
<g id="edge7" class="edge">
<title>Node6&#45;&gt;Node5</title>
<path fill="none" stroke="#63b8ff" d="M100.62,-164.74C99.53,-139.31 96.34,-65.08 94.82,-29.69"/>
<polygon fill="#63b8ff" stroke="#63b8ff" points="98.3,-29.15 94.38,-19.31 91.31,-29.45 98.3,-29.15"/>
</g>
<!-- Node7 -->
<g id="node7" class="node">
<title>Node7</title>
<g id="a_node7"><a xlink:href="Entry_8h.html" target="_top" xlink:title=" ">
<polygon fill="white" stroke="#666666" points="226,-74 148,-74 148,-55 226,-55 226,-74"/>
<text text-anchor="middle" x="187" y="-62" font-family="Helvetica,sans-Serif" font-size="10.00">entry/Entry.h</text>
</a>
</g>
</g>
<!-- Node6&#45;&gt;Node7 -->
<g id="edge8" class="edge">
<title>Node6&#45;&gt;Node7</title>
<path fill="none" stroke="#63b8ff" d="M107.76,-164.84C117.33,-152.6 135.42,-129.52 151,-110 158.45,-100.66 166.85,-90.28 173.65,-81.89"/>
<polygon fill="#63b8ff" stroke="#63b8ff" points="176.47,-83.97 180.07,-74 171.04,-79.56 176.47,-83.97"/>
</g>
<!-- Node7&#45;&gt;Node5 -->
<g id="edge9" class="edge">
<title>Node7&#45;&gt;Node5</title>
<path fill="none" stroke="#63b8ff" d="M172.06,-54.98C157.5,-46.69 135.13,-33.94 118.07,-24.22"/>
<polygon fill="#63b8ff" stroke="#63b8ff" points="119.64,-21.08 109.21,-19.17 116.17,-27.16 119.64,-21.08"/>
</g>
<!-- Node8 -->
<g id="node8" class="node">
<title>Node8</title>
<g id="a_node8"><a xlink:href="Modifier_8h.html" target="_top" xlink:title=" ">
<polygon fill="white" stroke="#666666" points="219.5,-19 154.5,-19 154.5,0 219.5,0 219.5,-19"/>
<text text-anchor="middle" x="187" y="-7" font-family="Helvetica,sans-Serif" font-size="10.00">Modifier.h</text>
</a>
</g>
</g>
<!-- Node7&#45;&gt;Node8 -->
<g id="edge10" class="edge">
<title>Node7&#45;&gt;Node8</title>
<path fill="none" stroke="#63b8ff" d="M187,-54.75C187,-47.8 187,-37.85 187,-29.13"/>
<polygon fill="#63b8ff" stroke="#63b8ff" points="190.5,-29.09 187,-19.09 183.5,-29.09 190.5,-29.09"/>
</g>
<!-- Node9&#45;&gt;Node7 -->
<g id="edge13" class="edge">
<title>Node9&#45;&gt;Node7</title>
<path fill="none" stroke="#63b8ff" d="M205.93,-164.79C205.7,-152.47 204.75,-129.32 201,-110 199.3,-101.25 196.48,-91.81 193.81,-83.88"/>
<polygon fill="#63b8ff" stroke="#63b8ff" points="197.03,-82.47 190.39,-74.21 190.43,-84.81 197.03,-82.47"/>
</g>
<!-- Node10 -->
<g id="node10" class="node">
<title>Node10</title>
<g id="a_node10"><a xlink:title=" ">
<polygon fill="#e0e0e0" stroke="#999999" points="192,-129 160,-129 160,-110 192,-110 192,-129"/>
<text text-anchor="middle" x="176" y="-117" font-family="Helvetica,sans-Serif" font-size="10.00">set</text>
</a>
</g>
</g>
<!-- Node9&#45;&gt;Node10 -->
<g id="edge12" class="edge">
<title>Node9&#45;&gt;Node10</title>
<path fill="none" stroke="#63b8ff" d="M201.05,-164.75C196.94,-157.49 190.97,-146.95 185.9,-137.98"/>
<polygon fill="#63b8ff" stroke="#63b8ff" points="188.83,-136.07 180.86,-129.09 182.74,-139.52 188.83,-136.07"/>
</g>
<!-- Node11 -->
<g id="node11" class="node">
<title>Node11</title>
<g id="a_node11"><a xlink:href="Utility_8h.html" target="_top" xlink:title=" ">
<polygon fill="white" stroke="#666666" points="302,-129 248,-129 248,-110 302,-110 302,-129"/>
<text text-anchor="middle" x="275" y="-117" font-family="Helvetica,sans-Serif" font-size="10.00">Utility.h</text>
</a>
</g>
</g>
<!-- Node9&#45;&gt;Node11 -->
<g id="edge14" class="edge">
<title>Node9&#45;&gt;Node11</title>
<path fill="none" stroke="#63b8ff" d="M217.09,-164.98C227.49,-157 243.26,-144.88 255.72,-135.31"/>
<polygon fill="#63b8ff" stroke="#63b8ff" points="257.91,-138.04 263.71,-129.17 253.65,-132.49 257.91,-138.04"/>
</g>
<!-- Node11&#45;&gt;Node7 -->
<g id="edge16" class="edge">
<title>Node11&#45;&gt;Node7</title>
<path fill="none" stroke="#63b8ff" d="M260.86,-109.98C247.21,-101.77 226.31,-89.18 210.22,-79.49"/>
<polygon fill="#63b8ff" stroke="#63b8ff" points="211.77,-76.33 201.4,-74.17 208.16,-82.33 211.77,-76.33"/>
</g>
<!-- Node12 -->
<g id="node12" class="node">
<title>Node12</title>
<g id="a_node12"><a xlink:title=" ">
<polygon fill="#e0e0e0" stroke="#999999" points="297,-74 253,-74 253,-55 297,-55 297,-74"/>
<text text-anchor="middle" x="275" y="-62" font-family="Helvetica,sans-Serif" font-size="10.00">string</text>
</a>
</g>
</g>
<!-- Node11&#45;&gt;Node12 -->
<g id="edge15" class="edge">
<title>Node11&#45;&gt;Node12</title>
<path fill="none" stroke="#63b8ff" d="M275,-109.75C275,-102.8 275,-92.85 275,-84.13"/>
<polygon fill="#63b8ff" stroke="#63b8ff" points="278.5,-84.09 275,-74.09 271.5,-84.09 278.5,-84.09"/>
</g>
</g>
</svg>
