<?xml version="1.0" encoding="UTF-8" standalone="no"?>
<!DOCTYPE svg PUBLIC "-//W3C//DTD SVG 1.1//EN"
 "http://www.w3.org/Graphics/SVG/1.1/DTD/svg11.dtd">
<!-- Generated by graphviz version 2.43.0 (0)
 -->
<!-- Title: src/State.h Pages: 1 -->
<svg width="3367pt" height="269pt"
 viewBox="0.00 0.00 3367.00 269.00" xmlns="http://www.w3.org/2000/svg" xmlns:xlink="http://www.w3.org/1999/xlink">
<g id="graph0" class="graph" transform="scale(1 1) rotate(0) translate(4 265)">
<title>src/State.h</title>
<!-- Node1 -->
<g id="node1" class="node">
<title>Node1</title>
<g id="a_node1"><a xlink:title=" ">
<polygon fill="#999999" stroke="#666666" points="227.5,-261 159.5,-261 159.5,-242 227.5,-242 227.5,-261"/>
<text text-anchor="middle" x="193.5" y="-249" font-family="Helvetica,sans-Serif" font-size="10.00">src/State.h</text>
</a>
</g>
</g>
<!-- Node2 -->
<g id="node2" class="node">
<title>Node2</title>
<g id="a_node2"><a xlink:href="Application_8h.html" target="_top" xlink:title=" ">
<polygon fill="white" stroke="#666666" points="103.5,-90.5 5.5,-90.5 5.5,-71.5 103.5,-71.5 103.5,-90.5"/>
<text text-anchor="middle" x="54.5" y="-78.5" font-family="Helvetica,sans-Serif" font-size="10.00">src/Application.h</text>
</a>
</g>
</g>
<!-- Node1&#45;&gt;Node2 -->
<g id="edge1" class="edge">
<title>Node1&#45;&gt;Node2</title>
<path fill="none" stroke="#63b8ff" d="M179.92,-234.04C150.94,-198.9 83.87,-117.61 61.74,-90.77"/>
<polygon fill="#63b8ff" stroke="#63b8ff" points="177.35,-236.43 186.42,-241.91 182.75,-231.97 177.35,-236.43"/>
</g>
<!-- Node5 -->
<g id="node5" class="node">
<title>Node5</title>
<g id="a_node5"><a xlink:href="Action_8h.html" target="_top" xlink:title=" ">
<polygon fill="white" stroke="#666666" points="446,-206 339,-206 339,-187 446,-187 446,-206"/>
<text text-anchor="middle" x="392.5" y="-194" font-family="Helvetica,sans-Serif" font-size="10.00">src/action/Action.h</text>
</a>
</g>
</g>
<!-- Node1&#45;&gt;Node5 -->
<g id="edge4" class="edge">
<title>Node1&#45;&gt;Node5</title>
<path fill="none" stroke="#63b8ff" d="M235.51,-239.31C272.75,-229.39 326.34,-215.12 360.28,-206.08"/>
<polygon fill="#63b8ff" stroke="#63b8ff" points="234.24,-236.03 225.47,-241.98 236.04,-242.79 234.24,-236.03"/>
</g>
<!-- Node44 -->
<g id="node44" class="node">
<title>Node44</title>
<g id="a_node44"><a xlink:href="Interface_8h.html" target="_top" xlink:title=" ">
<polygon fill="white" stroke="#666666" points="260,-151 127,-151 127,-132 260,-132 260,-151"/>
<text text-anchor="middle" x="193.5" y="-139" font-family="Helvetica,sans-Serif" font-size="10.00">src/interface/Interface.h</text>
</a>
</g>
</g>
<!-- Node1&#45;&gt;Node44 -->
<g id="edge63" class="edge">
<title>Node1&#45;&gt;Node44</title>
<path fill="none" stroke="#63b8ff" d="M193.5,-231.48C193.5,-207.84 193.5,-168.5 193.5,-151.16"/>
<polygon fill="#63b8ff" stroke="#63b8ff" points="190,-231.66 193.5,-241.66 197,-231.66 190,-231.66"/>
</g>
<!-- Node3 -->
<g id="node3" class="node">
<title>Node3</title>
<g id="a_node3"><a xlink:href="Application_8cpp.html" target="_top" xlink:title=" ">
<polygon fill="white" stroke="#666666" points="109,-24.5 0,-24.5 0,-5.5 109,-5.5 109,-24.5"/>
<text text-anchor="middle" x="54.5" y="-12.5" font-family="Helvetica,sans-Serif" font-size="10.00">src/Application.cpp</text>
</a>
</g>
</g>
<!-- Node2&#45;&gt;Node3 -->
<g id="edge2" class="edge">
<title>Node2&#45;&gt;Node3</title>
<path fill="none" stroke="#63b8ff" d="M54.5,-61.08C54.5,-49.13 54.5,-34.22 54.5,-24.91"/>
<polygon fill="#63b8ff" stroke="#63b8ff" points="51,-61.37 54.5,-71.37 58,-61.37 51,-61.37"/>
</g>
<!-- Node4 -->
<g id="node4" class="node">
<title>Node4</title>
<g id="a_node4"><a xlink:href="main_8cpp.html" target="_top" xlink:title=" ">
<polygon fill="white" stroke="#666666" points="1780,-24.5 1701,-24.5 1701,-5.5 1780,-5.5 1780,-24.5"/>
<text text-anchor="middle" x="1740.5" y="-12.5" font-family="Helvetica,sans-Serif" font-size="10.00">src/main.cpp</text>
</a>
</g>
</g>
<!-- Node2&#45;&gt;Node4 -->
<g id="edge3" class="edge">
<title>Node2&#45;&gt;Node4</title>
<path fill="none" stroke="#63b8ff" d="M94.33,-69.2C100.38,-67.91 106.58,-66.77 112.5,-66 460.53,-20.56 1344.49,-82.64 1691.5,-30 1699.37,-28.81 1707.77,-26.72 1715.34,-24.52"/>
<polygon fill="#63b8ff" stroke="#63b8ff" points="93.33,-65.84 84.37,-71.5 94.9,-72.66 93.33,-65.84"/>
</g>
<!-- Node6 -->
<g id="node6" class="node">
<title>Node6</title>
<g id="a_node6"><a xlink:href="ForEachAction_8h.html" target="_top" xlink:title=" ">
<polygon fill="white" stroke="#666666" points="582,-151 437,-151 437,-132 582,-132 582,-151"/>
<text text-anchor="middle" x="509.5" y="-139" font-family="Helvetica,sans-Serif" font-size="10.00">src/action/ForEachAction.h</text>
</a>
</g>
</g>
<!-- Node5&#45;&gt;Node6 -->
<g id="edge5" class="edge">
<title>Node5&#45;&gt;Node6</title>
<path fill="none" stroke="#63b8ff" d="M420.61,-182.77C442.19,-172.99 471.41,-159.75 490.36,-151.17"/>
<polygon fill="#63b8ff" stroke="#63b8ff" points="418.96,-179.67 411.3,-186.98 421.85,-186.05 418.96,-179.67"/>
</g>
<!-- Node14 -->
<g id="node14" class="node">
<title>Node14</title>
<g id="a_node14"><a xlink:href="OnceAction_8h.html" target="_top" xlink:title=" ">
<polygon fill="white" stroke="#666666" points="2100,-151 1969,-151 1969,-132 2100,-132 2100,-151"/>
<text text-anchor="middle" x="2034.5" y="-139" font-family="Helvetica,sans-Serif" font-size="10.00">src/action/OnceAction.h</text>
</a>
</g>
</g>
<!-- Node5&#45;&gt;Node14 -->
<g id="edge16" class="edge">
<title>Node5&#45;&gt;Node14</title>
<path fill="none" stroke="#63b8ff" d="M456.27,-193.44C717.39,-185.01 1703.64,-153.18 1968.62,-144.63"/>
<polygon fill="#63b8ff" stroke="#63b8ff" points="456.08,-189.95 446.2,-193.77 456.31,-196.94 456.08,-189.95"/>
</g>
<!-- Node5&#45;&gt;Node44 -->
<g id="edge60" class="edge">
<title>Node5&#45;&gt;Node44</title>
<path fill="none" stroke="#63b8ff" d="M350.49,-184.31C313.25,-174.39 259.66,-160.12 225.72,-151.08"/>
<polygon fill="#63b8ff" stroke="#63b8ff" points="349.96,-187.79 360.53,-186.98 351.76,-181.03 349.96,-187.79"/>
</g>
<!-- Node7 -->
<g id="node7" class="node">
<title>Node7</title>
<g id="a_node7"><a xlink:href="ForEachAction_8cpp.html" target="_top" xlink:title=" ">
<polygon fill="white" stroke="#666666" points="439.5,-90.5 283.5,-90.5 283.5,-71.5 439.5,-71.5 439.5,-90.5"/>
<text text-anchor="middle" x="361.5" y="-78.5" font-family="Helvetica,sans-Serif" font-size="10.00">src/action/ForEachAction.cpp</text>
</a>
</g>
</g>
<!-- Node6&#45;&gt;Node7 -->
<g id="edge6" class="edge">
<title>Node6&#45;&gt;Node7</title>
<path fill="none" stroke="#63b8ff" d="M478.46,-128.23C449.86,-116.92 408.16,-100.44 383.05,-90.52"/>
<polygon fill="#63b8ff" stroke="#63b8ff" points="477.39,-131.57 487.98,-131.99 479.97,-125.06 477.39,-131.57"/>
</g>
<!-- Node8 -->
<g id="node8" class="node">
<title>Node8</title>
<g id="a_node8"><a xlink:href="CopyAction_8h.html" target="_top" xlink:title=" ">
<polygon fill="white" stroke="#666666" points="561.5,-96 457.5,-96 457.5,-66 561.5,-66 561.5,-96"/>
<text text-anchor="start" x="465.5" y="-84" font-family="Helvetica,sans-Serif" font-size="10.00">src/action/foreach</text>
<text text-anchor="middle" x="509.5" y="-73" font-family="Helvetica,sans-Serif" font-size="10.00">/CopyAction.h</text>
</a>
</g>
</g>
<!-- Node6&#45;&gt;Node8 -->
<g id="edge7" class="edge">
<title>Node6&#45;&gt;Node8</title>
<path fill="none" stroke="#63b8ff" d="M509.5,-121.65C509.5,-113.36 509.5,-103.78 509.5,-96.11"/>
<polygon fill="#63b8ff" stroke="#63b8ff" points="506,-121.87 509.5,-131.87 513,-121.87 506,-121.87"/>
</g>
<!-- Node10 -->
<g id="node10" class="node">
<title>Node10</title>
<g id="a_node10"><a xlink:href="DeleteAction_8h.html" target="_top" xlink:title=" ">
<polygon fill="white" stroke="#666666" points="683.5,-96 579.5,-96 579.5,-66 683.5,-66 683.5,-96"/>
<text text-anchor="start" x="587.5" y="-84" font-family="Helvetica,sans-Serif" font-size="10.00">src/action/foreach</text>
<text text-anchor="middle" x="631.5" y="-73" font-family="Helvetica,sans-Serif" font-size="10.00">/DeleteAction.h</text>
</a>
</g>
</g>
<!-- Node6&#45;&gt;Node10 -->
<g id="edge10" class="edge">
<title>Node6&#45;&gt;Node10</title>
<path fill="none" stroke="#63b8ff" d="M536.43,-127.59C555.81,-118.29 581.97,-105.75 601.93,-96.18"/>
<polygon fill="#63b8ff" stroke="#63b8ff" points="534.74,-124.51 527.24,-131.99 537.77,-130.83 534.74,-124.51"/>
</g>
<!-- Node12 -->
<g id="node12" class="node">
<title>Node12</title>
<g id="a_node12"><a xlink:href="MoveAction_8h.html" target="_top" xlink:title=" ">
<polygon fill="white" stroke="#666666" points="805.5,-96 701.5,-96 701.5,-66 805.5,-66 805.5,-96"/>
<text text-anchor="start" x="709.5" y="-84" font-family="Helvetica,sans-Serif" font-size="10.00">src/action/foreach</text>
<text text-anchor="middle" x="753.5" y="-73" font-family="Helvetica,sans-Serif" font-size="10.00">/MoveAction.h</text>
</a>
</g>
</g>
<!-- Node6&#45;&gt;Node12 -->
<g id="edge13" class="edge">
<title>Node6&#45;&gt;Node12</title>
<path fill="none" stroke="#63b8ff" d="M554.82,-129.63C596.34,-119.68 657.78,-104.95 701.33,-94.51"/>
<polygon fill="#63b8ff" stroke="#63b8ff" points="553.89,-126.26 544.98,-131.99 555.52,-133.07 553.89,-126.26"/>
</g>
<!-- Node8&#45;&gt;Node4 -->
<g id="edge9" class="edge">
<title>Node8&#45;&gt;Node4</title>
<path fill="none" stroke="#63b8ff" d="M571.89,-66.02C1066.7,-3.38 1202.38,-106.53 1691.5,-30 1699.28,-28.78 1707.57,-26.72 1715.08,-24.55"/>
<polygon fill="#63b8ff" stroke="#63b8ff" points="571.1,-62.6 561.62,-67.34 571.99,-69.54 571.1,-62.6"/>
</g>
<!-- Node9 -->
<g id="node9" class="node">
<title>Node9</title>
<g id="a_node9"><a xlink:href="CopyAction_8cpp.html" target="_top" xlink:title=" ">
<polygon fill="white" stroke="#666666" points="558.5,-30 454.5,-30 454.5,0 558.5,0 558.5,-30"/>
<text text-anchor="start" x="462.5" y="-18" font-family="Helvetica,sans-Serif" font-size="10.00">src/action/foreach</text>
<text text-anchor="middle" x="506.5" y="-7" font-family="Helvetica,sans-Serif" font-size="10.00">/CopyAction.cpp</text>
</a>
</g>
</g>
<!-- Node8&#45;&gt;Node9 -->
<g id="edge8" class="edge">
<title>Node8&#45;&gt;Node9</title>
<path fill="none" stroke="#63b8ff" d="M508.35,-55.54C507.95,-46.96 507.51,-37.61 507.16,-30.16"/>
<polygon fill="#63b8ff" stroke="#63b8ff" points="504.87,-55.97 508.83,-65.8 511.86,-55.64 504.87,-55.97"/>
</g>
<!-- Node10&#45;&gt;Node4 -->
<g id="edge12" class="edge">
<title>Node10&#45;&gt;Node4</title>
<path fill="none" stroke="#63b8ff" d="M693.77,-66.03C1134.82,-9.42 1256.01,-99.01 1691.5,-30 1699.28,-28.77 1707.57,-26.7 1715.08,-24.53"/>
<polygon fill="#63b8ff" stroke="#63b8ff" points="693.09,-62.59 683.63,-67.35 693.99,-69.53 693.09,-62.59"/>
</g>
<!-- Node11 -->
<g id="node11" class="node">
<title>Node11</title>
<g id="a_node11"><a xlink:href="DeleteAction_8cpp.html" target="_top" xlink:title=" ">
<polygon fill="white" stroke="#666666" points="680.5,-30 576.5,-30 576.5,0 680.5,0 680.5,-30"/>
<text text-anchor="start" x="584.5" y="-18" font-family="Helvetica,sans-Serif" font-size="10.00">src/action/foreach</text>
<text text-anchor="middle" x="628.5" y="-7" font-family="Helvetica,sans-Serif" font-size="10.00">/DeleteAction.cpp</text>
</a>
</g>
</g>
<!-- Node10&#45;&gt;Node11 -->
<g id="edge11" class="edge">
<title>Node10&#45;&gt;Node11</title>
<path fill="none" stroke="#63b8ff" d="M630.35,-55.54C629.95,-46.96 629.51,-37.61 629.16,-30.16"/>
<polygon fill="#63b8ff" stroke="#63b8ff" points="626.87,-55.97 630.83,-65.8 633.86,-55.64 626.87,-55.97"/>
</g>
<!-- Node12&#45;&gt;Node4 -->
<g id="edge15" class="edge">
<title>Node12&#45;&gt;Node4</title>
<path fill="none" stroke="#63b8ff" d="M815.9,-66.17C1203.61,-16.18 1310.08,-91.43 1691.5,-30 1699.27,-28.75 1707.56,-26.67 1715.07,-24.5"/>
<polygon fill="#63b8ff" stroke="#63b8ff" points="815.27,-62.72 805.81,-67.49 816.18,-69.66 815.27,-62.72"/>
</g>
<!-- Node13 -->
<g id="node13" class="node">
<title>Node13</title>
<g id="a_node13"><a xlink:href="MoveAction_8cpp.html" target="_top" xlink:title=" ">
<polygon fill="white" stroke="#666666" points="802.5,-30 698.5,-30 698.5,0 802.5,0 802.5,-30"/>
<text text-anchor="start" x="706.5" y="-18" font-family="Helvetica,sans-Serif" font-size="10.00">src/action/foreach</text>
<text text-anchor="middle" x="750.5" y="-7" font-family="Helvetica,sans-Serif" font-size="10.00">/MoveAction.cpp</text>
</a>
</g>
</g>
<!-- Node12&#45;&gt;Node13 -->
<g id="edge14" class="edge">
<title>Node12&#45;&gt;Node13</title>
<path fill="none" stroke="#63b8ff" d="M752.35,-55.54C751.95,-46.96 751.51,-37.61 751.16,-30.16"/>
<polygon fill="#63b8ff" stroke="#63b8ff" points="748.87,-55.97 752.83,-65.8 755.86,-55.64 748.87,-55.97"/>
</g>
<!-- Node15 -->
<g id="node15" class="node">
<title>Node15</title>
<g id="a_node15"><a xlink:href="OnceAction_8cpp.html" target="_top" xlink:title=" ">
<polygon fill="white" stroke="#666666" points="2840,-90.5 2697,-90.5 2697,-71.5 2840,-71.5 2840,-90.5"/>
<text text-anchor="middle" x="2768.5" y="-78.5" font-family="Helvetica,sans-Serif" font-size="10.00">src/action/OnceAction.cpp</text>
</a>
</g>
</g>
<!-- Node14&#45;&gt;Node15 -->
<g id="edge17" class="edge">
<title>Node14&#45;&gt;Node15</title>
<path fill="none" stroke="#63b8ff" d="M2110.4,-137.87C2232.38,-133.07 2479.49,-121 2687.5,-96 2699.4,-94.57 2712.21,-92.57 2724.06,-90.53"/>
<polygon fill="#63b8ff" stroke="#63b8ff" points="2109.91,-134.39 2100.05,-138.27 2110.18,-141.38 2109.91,-134.39"/>
</g>
<!-- Node16 -->
<g id="node16" class="node">
<title>Node16</title>
<g id="a_node16"><a xlink:href="ConcatAction_8h.html" target="_top" xlink:title=" ">
<polygon fill="white" stroke="#666666" points="3025,-90.5 2858,-90.5 2858,-71.5 3025,-71.5 3025,-90.5"/>
<text text-anchor="middle" x="2941.5" y="-78.5" font-family="Helvetica,sans-Serif" font-size="10.00">src/action/once/ConcatAction.h</text>
</a>
</g>
</g>
<!-- Node14&#45;&gt;Node16 -->
<g id="edge18" class="edge">
<title>Node14&#45;&gt;Node16</title>
<path fill="none" stroke="#63b8ff" d="M2110.24,-138.8C2254.46,-135.03 2578.32,-123.97 2849.5,-96 2863.16,-94.59 2877.89,-92.57 2891.48,-90.51"/>
<polygon fill="#63b8ff" stroke="#63b8ff" points="2110.07,-135.31 2100.17,-139.06 2110.25,-142.3 2110.07,-135.31"/>
</g>
<!-- Node18 -->
<g id="node18" class="node">
<title>Node18</title>
<g id="a_node18"><a xlink:href="CreateFileAction_8h.html" target="_top" xlink:title=" ">
<polygon fill="white" stroke="#666666" points="3186,-96 3043,-96 3043,-66 3186,-66 3186,-96"/>
<text text-anchor="start" x="3051" y="-84" font-family="Helvetica,sans-Serif" font-size="10.00">src/action/once/CreateFile</text>
<text text-anchor="middle" x="3114.5" y="-73" font-family="Helvetica,sans-Serif" font-size="10.00">Action.h</text>
</a>
</g>
</g>
<!-- Node14&#45;&gt;Node18 -->
<g id="edge21" class="edge">
<title>Node14&#45;&gt;Node18</title>
<path fill="none" stroke="#63b8ff" d="M2110.43,-140.45C2277.82,-139.61 2691,-133.54 3034.5,-96 3037.16,-95.71 3039.87,-95.38 3042.6,-95.03"/>
<polygon fill="#63b8ff" stroke="#63b8ff" points="2110.23,-136.95 2100.24,-140.5 2110.26,-143.95 2110.23,-136.95"/>
</g>
<!-- Node20 -->
<g id="node20" class="node">
<title>Node20</title>
<g id="a_node20"><a xlink:href="CreateFolderAction_8h.html" target="_top" xlink:title=" ">
<polygon fill="white" stroke="#666666" points="3359,-96 3204,-96 3204,-66 3359,-66 3359,-96"/>
<text text-anchor="start" x="3212" y="-84" font-family="Helvetica,sans-Serif" font-size="10.00">src/action/once/CreateFolder</text>
<text text-anchor="middle" x="3281.5" y="-73" font-family="Helvetica,sans-Serif" font-size="10.00">Action.h</text>
</a>
</g>
</g>
<!-- Node14&#45;&gt;Node20 -->
<g id="edge24" class="edge">
<title>Node14&#45;&gt;Node20</title>
<path fill="none" stroke="#63b8ff" d="M2110.36,-140.82C2295.99,-140.89 2787.75,-136.85 3195.5,-96 3198.21,-95.73 3200.96,-95.43 3203.74,-95.1"/>
<polygon fill="#63b8ff" stroke="#63b8ff" points="2110.16,-137.32 2100.16,-140.81 2110.16,-144.32 2110.16,-137.32"/>
</g>
<!-- Node22 -->
<g id="node22" class="node">
<title>Node22</title>
<g id="a_node22"><a xlink:href="CreateSymlinkAction_8h.html" target="_top" xlink:title=" ">
<polygon fill="white" stroke="#666666" points="989,-96 824,-96 824,-66 989,-66 989,-96"/>
<text text-anchor="start" x="832" y="-84" font-family="Helvetica,sans-Serif" font-size="10.00">src/action/once/CreateSymlink</text>
<text text-anchor="middle" x="906.5" y="-73" font-family="Helvetica,sans-Serif" font-size="10.00">Action.h</text>
</a>
</g>
</g>
<!-- Node14&#45;&gt;Node22 -->
<g id="edge27" class="edge">
<title>Node14&#45;&gt;Node22</title>
<path fill="none" stroke="#63b8ff" d="M1958.69,-140.05C1787.25,-138.41 1356.71,-130.85 998.5,-96 995.44,-95.7 992.34,-95.37 989.2,-95.02"/>
<polygon fill="#63b8ff" stroke="#63b8ff" points="1958.84,-143.55 1968.87,-140.14 1958.91,-136.55 1958.84,-143.55"/>
</g>
<!-- Node24 -->
<g id="node24" class="node">
<title>Node24</title>
<g id="a_node24"><a xlink:href="CursorDownAction_8h.html" target="_top" xlink:title=" ">
<polygon fill="white" stroke="#666666" points="1159.5,-96 1007.5,-96 1007.5,-66 1159.5,-66 1159.5,-96"/>
<text text-anchor="start" x="1015.5" y="-84" font-family="Helvetica,sans-Serif" font-size="10.00">src/action/once/CursorDown</text>
<text text-anchor="middle" x="1083.5" y="-73" font-family="Helvetica,sans-Serif" font-size="10.00">Action.h</text>
</a>
</g>
</g>
<!-- Node14&#45;&gt;Node24 -->
<g id="edge30" class="edge">
<title>Node14&#45;&gt;Node24</title>
<path fill="none" stroke="#63b8ff" d="M1958.77,-139.45C1807.94,-136.74 1459.49,-127.34 1168.5,-96 1165.67,-95.7 1162.8,-95.36 1159.9,-95"/>
<polygon fill="#63b8ff" stroke="#63b8ff" points="1958.79,-142.96 1968.85,-139.63 1958.91,-135.96 1958.79,-142.96"/>
</g>
<!-- Node26 -->
<g id="node26" class="node">
<title>Node26</title>
<g id="a_node26"><a xlink:href="CursorUpAction_8h.html" target="_top" xlink:title=" ">
<polygon fill="white" stroke="#666666" points="1315.5,-96 1177.5,-96 1177.5,-66 1315.5,-66 1315.5,-96"/>
<text text-anchor="start" x="1185.5" y="-84" font-family="Helvetica,sans-Serif" font-size="10.00">src/action/once/CursorUp</text>
<text text-anchor="middle" x="1246.5" y="-73" font-family="Helvetica,sans-Serif" font-size="10.00">Action.h</text>
</a>
</g>
</g>
<!-- Node14&#45;&gt;Node26 -->
<g id="edge33" class="edge">
<title>Node14&#45;&gt;Node26</title>
<path fill="none" stroke="#63b8ff" d="M1958.43,-138.6C1828.19,-134.71 1554.31,-123.73 1324.5,-96 1321.63,-95.65 1318.71,-95.27 1315.76,-94.86"/>
<polygon fill="#63b8ff" stroke="#63b8ff" points="1958.59,-142.11 1968.69,-138.9 1958.79,-135.11 1958.59,-142.11"/>
</g>
<!-- Node28 -->
<g id="node28" class="node">
<title>Node28</title>
<g id="a_node28"><a xlink:href="DeduplicateAction_8h.html" target="_top" xlink:title=" ">
<polygon fill="white" stroke="#666666" points="1485.5,-96 1333.5,-96 1333.5,-66 1485.5,-66 1485.5,-96"/>
<text text-anchor="start" x="1341.5" y="-84" font-family="Helvetica,sans-Serif" font-size="10.00">src/action/once/Deduplicate</text>
<text text-anchor="middle" x="1409.5" y="-73" font-family="Helvetica,sans-Serif" font-size="10.00">Action.h</text>
</a>
</g>
</g>
<!-- Node14&#45;&gt;Node28 -->
<g id="edge36" class="edge">
<title>Node14&#45;&gt;Node28</title>
<path fill="none" stroke="#63b8ff" d="M1958.5,-136.18C1853.79,-129.8 1659.39,-116.34 1494.5,-96 1491.68,-95.65 1488.81,-95.28 1485.91,-94.89"/>
<polygon fill="#63b8ff" stroke="#63b8ff" points="1958.46,-139.69 1968.66,-136.8 1958.89,-132.7 1958.46,-139.69"/>
</g>
<!-- Node30 -->
<g id="node30" class="node">
<title>Node30</title>
<g id="a_node30"><a xlink:href="GoBackAction_8h.html" target="_top" xlink:title=" ">
<polygon fill="white" stroke="#666666" points="1673.5,-90.5 1503.5,-90.5 1503.5,-71.5 1673.5,-71.5 1673.5,-90.5"/>
<text text-anchor="middle" x="1588.5" y="-78.5" font-family="Helvetica,sans-Serif" font-size="10.00">src/action/once/GoBackAction.h</text>
</a>
</g>
</g>
<!-- Node14&#45;&gt;Node30 -->
<g id="edge39" class="edge">
<title>Node14&#45;&gt;Node30</title>
<path fill="none" stroke="#63b8ff" d="M1958.57,-131.32C1887.44,-122.62 1778.19,-108.98 1683.5,-96 1671.03,-94.29 1657.65,-92.37 1644.99,-90.52"/>
<polygon fill="#63b8ff" stroke="#63b8ff" points="1958.44,-134.83 1968.79,-132.57 1959.28,-127.88 1958.44,-134.83"/>
</g>
<!-- Node32 -->
<g id="node32" class="node">
<title>Node32</title>
<g id="a_node32"><a xlink:href="ManualSelectAction_8h.html" target="_top" xlink:title=" ">
<polygon fill="white" stroke="#666666" points="1851,-96 1692,-96 1692,-66 1851,-66 1851,-96"/>
<text text-anchor="start" x="1700" y="-84" font-family="Helvetica,sans-Serif" font-size="10.00">src/action/once/ManualSelect</text>
<text text-anchor="middle" x="1771.5" y="-73" font-family="Helvetica,sans-Serif" font-size="10.00">Action.h</text>
</a>
</g>
</g>
<!-- Node14&#45;&gt;Node32 -->
<g id="edge42" class="edge">
<title>Node14&#45;&gt;Node32</title>
<path fill="none" stroke="#63b8ff" d="M1986.4,-129.8C1943.73,-120.31 1881.12,-106.38 1834.47,-96.01"/>
<polygon fill="#63b8ff" stroke="#63b8ff" points="1985.74,-133.24 1996.26,-131.99 1987.26,-126.41 1985.74,-133.24"/>
</g>
<!-- Node34 -->
<g id="node34" class="node">
<title>Node34</title>
<g id="a_node34"><a xlink:href="OpenAction_8h.html" target="_top" xlink:title=" ">
<polygon fill="white" stroke="#666666" points="2026.5,-90.5 1868.5,-90.5 1868.5,-71.5 2026.5,-71.5 2026.5,-90.5"/>
<text text-anchor="middle" x="1947.5" y="-78.5" font-family="Helvetica,sans-Serif" font-size="10.00">src/action/once/OpenAction.h</text>
</a>
</g>
</g>
<!-- Node14&#45;&gt;Node34 -->
<g id="edge45" class="edge">
<title>Node14&#45;&gt;Node34</title>
<path fill="none" stroke="#63b8ff" d="M2013.17,-126.16C1996.64,-115.05 1974.29,-100.01 1960.39,-90.67"/>
<polygon fill="#63b8ff" stroke="#63b8ff" points="2011.41,-129.19 2021.66,-131.87 2015.32,-123.38 2011.41,-129.19"/>
</g>
<!-- Node36 -->
<g id="node36" class="node">
<title>Node36</title>
<g id="a_node36"><a xlink:href="QuitAction_8h.html" target="_top" xlink:title=" ">
<polygon fill="white" stroke="#666666" points="2198,-90.5 2045,-90.5 2045,-71.5 2198,-71.5 2198,-90.5"/>
<text text-anchor="middle" x="2121.5" y="-78.5" font-family="Helvetica,sans-Serif" font-size="10.00">src/action/once/QuitAction.h</text>
</a>
</g>
</g>
<!-- Node14&#45;&gt;Node36 -->
<g id="edge48" class="edge">
<title>Node14&#45;&gt;Node36</title>
<path fill="none" stroke="#63b8ff" d="M2055.83,-126.16C2072.36,-115.05 2094.71,-100.01 2108.61,-90.67"/>
<polygon fill="#63b8ff" stroke="#63b8ff" points="2053.68,-123.38 2047.34,-131.87 2057.59,-129.19 2053.68,-123.38"/>
</g>
<!-- Node38 -->
<g id="node38" class="node">
<title>Node38</title>
<g id="a_node38"><a xlink:href="RegexSelectAction_8h.html" target="_top" xlink:title=" ">
<polygon fill="white" stroke="#666666" points="2370.5,-96 2216.5,-96 2216.5,-66 2370.5,-66 2370.5,-96"/>
<text text-anchor="start" x="2224.5" y="-84" font-family="Helvetica,sans-Serif" font-size="10.00">src/action/once/RegexSelect</text>
<text text-anchor="middle" x="2293.5" y="-73" font-family="Helvetica,sans-Serif" font-size="10.00">Action.h</text>
</a>
</g>
</g>
<!-- Node14&#45;&gt;Node38 -->
<g id="edge51" class="edge">
<title>Node14&#45;&gt;Node38</title>
<path fill="none" stroke="#63b8ff" d="M2082.14,-129.74C2124.15,-120.25 2185.64,-106.36 2231.48,-96.01"/>
<polygon fill="#63b8ff" stroke="#63b8ff" points="2081.14,-126.38 2072.16,-131.99 2082.69,-133.2 2081.14,-126.38"/>
</g>
<!-- Node40 -->
<g id="node40" class="node">
<title>Node40</title>
<g id="a_node40"><a xlink:href="SelectByContentAction_8h.html" target="_top" xlink:title=" ">
<polygon fill="white" stroke="#666666" points="2524.5,-96 2388.5,-96 2388.5,-66 2524.5,-66 2524.5,-96"/>
<text text-anchor="start" x="2396.5" y="-84" font-family="Helvetica,sans-Serif" font-size="10.00">src/action/once/SelectBy</text>
<text text-anchor="middle" x="2456.5" y="-73" font-family="Helvetica,sans-Serif" font-size="10.00">ContentAction.h</text>
</a>
</g>
</g>
<!-- Node14&#45;&gt;Node40 -->
<g id="edge54" class="edge">
<title>Node14&#45;&gt;Node40</title>
<path fill="none" stroke="#63b8ff" d="M2110.19,-131.87C2180.2,-123.63 2287.07,-110.35 2379.5,-96 2382.32,-95.56 2385.19,-95.1 2388.1,-94.63"/>
<polygon fill="#63b8ff" stroke="#63b8ff" points="2109.66,-128.41 2100.14,-133.05 2110.48,-135.37 2109.66,-128.41"/>
</g>
<!-- Node42 -->
<g id="node42" class="node">
<title>Node42</title>
<g id="a_node42"><a xlink:href="UnselectAllAction_8h.html" target="_top" xlink:title=" ">
<polygon fill="white" stroke="#666666" points="2678.5,-96 2542.5,-96 2542.5,-66 2678.5,-66 2678.5,-96"/>
<text text-anchor="start" x="2550.5" y="-84" font-family="Helvetica,sans-Serif" font-size="10.00">src/action/once/Unselect</text>
<text text-anchor="middle" x="2610.5" y="-73" font-family="Helvetica,sans-Serif" font-size="10.00">AllAction.h</text>
</a>
</g>
</g>
<!-- Node14&#45;&gt;Node42 -->
<g id="edge57" class="edge">
<title>Node14&#45;&gt;Node42</title>
<path fill="none" stroke="#63b8ff" d="M2110.21,-135.9C2208.19,-129.45 2384.07,-116.2 2533.5,-96 2536.33,-95.62 2539.21,-95.2 2542.12,-94.77"/>
<polygon fill="#63b8ff" stroke="#63b8ff" points="2109.85,-132.41 2100.1,-136.56 2110.31,-139.4 2109.85,-132.41"/>
</g>
<!-- Node16&#45;&gt;Node4 -->
<g id="edge20" class="edge">
<title>Node16&#45;&gt;Node4</title>
<path fill="none" stroke="#63b8ff" d="M2882.54,-69.98C2871.58,-68.42 2860.22,-66.99 2849.5,-66 2380.13,-22.47 2255.15,-103.3 1789.5,-30 1781.72,-28.78 1773.43,-26.71 1765.92,-24.54"/>
<polygon fill="#63b8ff" stroke="#63b8ff" points="2882.05,-73.45 2892.45,-71.45 2883.07,-66.52 2882.05,-73.45"/>
</g>
<!-- Node17 -->
<g id="node17" class="node">
<title>Node17</title>
<g id="a_node17"><a xlink:href="ConcatAction_8cpp.html" target="_top" xlink:title=" ">
<polygon fill="white" stroke="#666666" points="3024.5,-24.5 2846.5,-24.5 2846.5,-5.5 3024.5,-5.5 3024.5,-24.5"/>
<text text-anchor="middle" x="2935.5" y="-12.5" font-family="Helvetica,sans-Serif" font-size="10.00">src/action/once/ConcatAction.cpp</text>
</a>
</g>
</g>
<!-- Node16&#45;&gt;Node17 -->
<g id="edge19" class="edge">
<title>Node16&#45;&gt;Node17</title>
<path fill="none" stroke="#63b8ff" d="M2939.73,-61.08C2938.61,-49.13 2937.21,-34.22 2936.33,-24.91"/>
<polygon fill="#63b8ff" stroke="#63b8ff" points="2936.27,-61.74 2940.69,-71.37 2943.24,-61.09 2936.27,-61.74"/>
</g>
<!-- Node18&#45;&gt;Node4 -->
<g id="edge23" class="edge">
<title>Node18&#45;&gt;Node4</title>
<path fill="none" stroke="#63b8ff" d="M3032.42,-65.89C2481.95,-11.41 2333.21,-114.18 1789.5,-30 1781.72,-28.8 1773.43,-26.74 1765.92,-24.56"/>
<polygon fill="#63b8ff" stroke="#63b8ff" points="3032.31,-69.4 3042.61,-66.91 3033.01,-62.43 3032.31,-69.4"/>
</g>
<!-- Node19 -->
<g id="node19" class="node">
<title>Node19</title>
<g id="a_node19"><a xlink:href="CreateFileAction_8cpp.html" target="_top" xlink:title=" ">
<polygon fill="white" stroke="#666666" points="3186,-30 3043,-30 3043,0 3186,0 3186,-30"/>
<text text-anchor="start" x="3051" y="-18" font-family="Helvetica,sans-Serif" font-size="10.00">src/action/once/CreateFile</text>
<text text-anchor="middle" x="3114.5" y="-7" font-family="Helvetica,sans-Serif" font-size="10.00">Action.cpp</text>
</a>
</g>
</g>
<!-- Node18&#45;&gt;Node19 -->
<g id="edge22" class="edge">
<title>Node18&#45;&gt;Node19</title>
<path fill="none" stroke="#63b8ff" d="M3114.5,-55.54C3114.5,-46.96 3114.5,-37.61 3114.5,-30.16"/>
<polygon fill="#63b8ff" stroke="#63b8ff" points="3111,-55.8 3114.5,-65.8 3118,-55.8 3111,-55.8"/>
</g>
<!-- Node20&#45;&gt;Node4 -->
<g id="edge26" class="edge">
<title>Node20&#45;&gt;Node4</title>
<path fill="none" stroke="#63b8ff" d="M3193.77,-65.96C2868.25,-37.64 2095.28,-76.82 1789.5,-30 1781.63,-28.79 1773.24,-26.71 1765.66,-24.51"/>
<polygon fill="#63b8ff" stroke="#63b8ff" points="3193.47,-69.44 3203.75,-66.86 3194.1,-62.47 3193.47,-69.44"/>
</g>
<!-- Node21 -->
<g id="node21" class="node">
<title>Node21</title>
<g id="a_node21"><a xlink:href="CreateFolderAction_8cpp.html" target="_top" xlink:title=" ">
<polygon fill="white" stroke="#666666" points="3359,-30 3204,-30 3204,0 3359,0 3359,-30"/>
<text text-anchor="start" x="3212" y="-18" font-family="Helvetica,sans-Serif" font-size="10.00">src/action/once/CreateFolder</text>
<text text-anchor="middle" x="3281.5" y="-7" font-family="Helvetica,sans-Serif" font-size="10.00">Action.cpp</text>
</a>
</g>
</g>
<!-- Node20&#45;&gt;Node21 -->
<g id="edge25" class="edge">
<title>Node20&#45;&gt;Node21</title>
<path fill="none" stroke="#63b8ff" d="M3281.5,-55.54C3281.5,-46.96 3281.5,-37.61 3281.5,-30.16"/>
<polygon fill="#63b8ff" stroke="#63b8ff" points="3278,-55.8 3281.5,-65.8 3285,-55.8 3278,-55.8"/>
</g>
<!-- Node22&#45;&gt;Node4 -->
<g id="edge29" class="edge">
<title>Node22&#45;&gt;Node4</title>
<path fill="none" stroke="#63b8ff" d="M999.31,-66.01C1307.12,-35.74 1390.55,-80.14 1691.5,-30 1699.18,-28.72 1707.37,-26.67 1714.81,-24.52"/>
<polygon fill="#63b8ff" stroke="#63b8ff" points="998.8,-62.54 989.2,-67.02 999.5,-69.5 998.8,-62.54"/>
</g>
<!-- Node23 -->
<g id="node23" class="node">
<title>Node23</title>
<g id="a_node23"><a xlink:href="CreateSymlinkAction_8cpp.html" target="_top" xlink:title=" ">
<polygon fill="white" stroke="#666666" points="986,-30 821,-30 821,0 986,0 986,-30"/>
<text text-anchor="start" x="829" y="-18" font-family="Helvetica,sans-Serif" font-size="10.00">src/action/once/CreateSymlink</text>
<text text-anchor="middle" x="903.5" y="-7" font-family="Helvetica,sans-Serif" font-size="10.00">Action.cpp</text>
</a>
</g>
</g>
<!-- Node22&#45;&gt;Node23 -->
<g id="edge28" class="edge">
<title>Node22&#45;&gt;Node23</title>
<path fill="none" stroke="#63b8ff" d="M905.35,-55.54C904.95,-46.96 904.51,-37.61 904.16,-30.16"/>
<polygon fill="#63b8ff" stroke="#63b8ff" points="901.87,-55.97 905.83,-65.8 908.86,-55.64 901.87,-55.97"/>
</g>
<!-- Node24&#45;&gt;Node4 -->
<g id="edge32" class="edge">
<title>Node24&#45;&gt;Node4</title>
<path fill="none" stroke="#63b8ff" d="M1170,-65.91C1401.72,-39.91 1465.25,-69.66 1691.5,-30 1699.08,-28.67 1707.17,-26.63 1714.54,-24.51"/>
<polygon fill="#63b8ff" stroke="#63b8ff" points="1169.44,-62.45 1159.91,-67.07 1170.24,-69.4 1169.44,-62.45"/>
</g>
<!-- Node25 -->
<g id="node25" class="node">
<title>Node25</title>
<g id="a_node25"><a xlink:href="CursorDownAction_8cpp.html" target="_top" xlink:title=" ">
<polygon fill="white" stroke="#666666" points="1156.5,-30 1004.5,-30 1004.5,0 1156.5,0 1156.5,-30"/>
<text text-anchor="start" x="1012.5" y="-18" font-family="Helvetica,sans-Serif" font-size="10.00">src/action/once/CursorDown</text>
<text text-anchor="middle" x="1080.5" y="-7" font-family="Helvetica,sans-Serif" font-size="10.00">Action.cpp</text>
</a>
</g>
</g>
<!-- Node24&#45;&gt;Node25 -->
<g id="edge31" class="edge">
<title>Node24&#45;&gt;Node25</title>
<path fill="none" stroke="#63b8ff" d="M1082.35,-55.54C1081.95,-46.96 1081.51,-37.61 1081.16,-30.16"/>
<polygon fill="#63b8ff" stroke="#63b8ff" points="1078.87,-55.97 1082.83,-65.8 1085.86,-55.64 1078.87,-55.97"/>
</g>
<!-- Node26&#45;&gt;Node4 -->
<g id="edge35" class="edge">
<title>Node26&#45;&gt;Node4</title>
<path fill="none" stroke="#63b8ff" d="M1326.14,-65.86C1488.68,-44.19 1533.8,-60.01 1691.5,-30 1698.89,-28.59 1706.77,-26.58 1714.01,-24.51"/>
<polygon fill="#63b8ff" stroke="#63b8ff" points="1325.21,-62.45 1315.78,-67.27 1326.16,-69.39 1325.21,-62.45"/>
</g>
<!-- Node27 -->
<g id="node27" class="node">
<title>Node27</title>
<g id="a_node27"><a xlink:href="CursorUpAction_8cpp.html" target="_top" xlink:title=" ">
<polygon fill="white" stroke="#666666" points="1312.5,-30 1174.5,-30 1174.5,0 1312.5,0 1312.5,-30"/>
<text text-anchor="start" x="1182.5" y="-18" font-family="Helvetica,sans-Serif" font-size="10.00">src/action/once/CursorUp</text>
<text text-anchor="middle" x="1243.5" y="-7" font-family="Helvetica,sans-Serif" font-size="10.00">Action.cpp</text>
</a>
</g>
</g>
<!-- Node26&#45;&gt;Node27 -->
<g id="edge34" class="edge">
<title>Node26&#45;&gt;Node27</title>
<path fill="none" stroke="#63b8ff" d="M1245.35,-55.54C1244.95,-46.96 1244.51,-37.61 1244.16,-30.16"/>
<polygon fill="#63b8ff" stroke="#63b8ff" points="1241.87,-55.97 1245.83,-65.8 1248.86,-55.64 1241.87,-55.97"/>
</g>
<!-- Node28&#45;&gt;Node4 -->
<g id="edge38" class="edge">
<title>Node28&#45;&gt;Node4</title>
<path fill="none" stroke="#63b8ff" d="M1495.66,-65.72C1564.45,-54.14 1655.14,-38.4 1691.5,-30 1698.31,-28.43 1705.58,-26.49 1712.39,-24.57"/>
<polygon fill="#63b8ff" stroke="#63b8ff" points="1494.96,-62.29 1485.67,-67.4 1496.12,-69.2 1494.96,-62.29"/>
</g>
<!-- Node29 -->
<g id="node29" class="node">
<title>Node29</title>
<g id="a_node29"><a xlink:href="DeduplicateAction_8cpp.html" target="_top" xlink:title=" ">
<polygon fill="white" stroke="#666666" points="1482.5,-30 1330.5,-30 1330.5,0 1482.5,0 1482.5,-30"/>
<text text-anchor="start" x="1338.5" y="-18" font-family="Helvetica,sans-Serif" font-size="10.00">src/action/once/Deduplicate</text>
<text text-anchor="middle" x="1406.5" y="-7" font-family="Helvetica,sans-Serif" font-size="10.00">Action.cpp</text>
</a>
</g>
</g>
<!-- Node28&#45;&gt;Node29 -->
<g id="edge37" class="edge">
<title>Node28&#45;&gt;Node29</title>
<path fill="none" stroke="#63b8ff" d="M1408.35,-55.54C1407.95,-46.96 1407.51,-37.61 1407.16,-30.16"/>
<polygon fill="#63b8ff" stroke="#63b8ff" points="1404.87,-55.97 1408.83,-65.8 1411.86,-55.64 1404.87,-55.97"/>
</g>
<!-- Node30&#45;&gt;Node4 -->
<g id="edge41" class="edge">
<title>Node30&#45;&gt;Node4</title>
<path fill="none" stroke="#63b8ff" d="M1618.52,-67.36C1648.48,-54.75 1693.7,-35.71 1719.84,-24.7"/>
<polygon fill="#63b8ff" stroke="#63b8ff" points="1616.86,-64.26 1609,-71.37 1619.57,-70.71 1616.86,-64.26"/>
</g>
<!-- Node31 -->
<g id="node31" class="node">
<title>Node31</title>
<g id="a_node31"><a xlink:href="GoBackAction_8cpp.html" target="_top" xlink:title=" ">
<polygon fill="white" stroke="#666666" points="1682.5,-24.5 1500.5,-24.5 1500.5,-5.5 1682.5,-5.5 1682.5,-24.5"/>
<text text-anchor="middle" x="1591.5" y="-12.5" font-family="Helvetica,sans-Serif" font-size="10.00">src/action/once/GoBackAction.cpp</text>
</a>
</g>
</g>
<!-- Node30&#45;&gt;Node31 -->
<g id="edge40" class="edge">
<title>Node30&#45;&gt;Node31</title>
<path fill="none" stroke="#63b8ff" d="M1589.39,-61.08C1589.95,-49.13 1590.65,-34.22 1591.08,-24.91"/>
<polygon fill="#63b8ff" stroke="#63b8ff" points="1585.88,-61.22 1588.9,-71.37 1592.87,-61.54 1585.88,-61.22"/>
</g>
<!-- Node32&#45;&gt;Node4 -->
<g id="edge44" class="edge">
<title>Node32&#45;&gt;Node4</title>
<path fill="none" stroke="#63b8ff" d="M1760.17,-56.61C1754.82,-45.56 1748.75,-33.03 1744.78,-24.84"/>
<polygon fill="#63b8ff" stroke="#63b8ff" points="1757.11,-58.32 1764.62,-65.8 1763.41,-55.27 1757.11,-58.32"/>
</g>
<!-- Node33 -->
<g id="node33" class="node">
<title>Node33</title>
<g id="a_node33"><a xlink:href="ManualSelectAction_8cpp.html" target="_top" xlink:title=" ">
<polygon fill="white" stroke="#666666" points="1957,-30 1798,-30 1798,0 1957,0 1957,-30"/>
<text text-anchor="start" x="1806" y="-18" font-family="Helvetica,sans-Serif" font-size="10.00">src/action/once/ManualSelect</text>
<text text-anchor="middle" x="1877.5" y="-7" font-family="Helvetica,sans-Serif" font-size="10.00">Action.cpp</text>
</a>
</g>
</g>
<!-- Node32&#45;&gt;Node33 -->
<g id="edge43" class="edge">
<title>Node32&#45;&gt;Node33</title>
<path fill="none" stroke="#63b8ff" d="M1803.47,-60.69C1819.84,-50.82 1839.39,-39.01 1854.29,-30.01"/>
<polygon fill="#63b8ff" stroke="#63b8ff" points="1801.51,-57.79 1794.76,-65.95 1805.13,-63.78 1801.51,-57.79"/>
</g>
<!-- Node34&#45;&gt;Node4 -->
<g id="edge47" class="edge">
<title>Node34&#45;&gt;Node4</title>
<path fill="none" stroke="#63b8ff" d="M1909.99,-68.4C1869.17,-55.78 1804.85,-35.89 1768.3,-24.6"/>
<polygon fill="#63b8ff" stroke="#63b8ff" points="1909,-71.76 1919.58,-71.37 1911.06,-65.07 1909,-71.76"/>
</g>
<!-- Node35 -->
<g id="node35" class="node">
<title>Node35</title>
<g id="a_node35"><a xlink:href="OpenAction_8cpp.html" target="_top" xlink:title=" ">
<polygon fill="white" stroke="#666666" points="2145.5,-24.5 1975.5,-24.5 1975.5,-5.5 2145.5,-5.5 2145.5,-24.5"/>
<text text-anchor="middle" x="2060.5" y="-12.5" font-family="Helvetica,sans-Serif" font-size="10.00">src/action/once/OpenAction.cpp</text>
</a>
</g>
</g>
<!-- Node34&#45;&gt;Node35 -->
<g id="edge46" class="edge">
<title>Node34&#45;&gt;Node35</title>
<path fill="none" stroke="#63b8ff" d="M1971.59,-66.36C1993.83,-53.76 2026.21,-35.42 2045.14,-24.7"/>
<polygon fill="#63b8ff" stroke="#63b8ff" points="1969.72,-63.39 1962.74,-71.37 1973.17,-69.49 1969.72,-63.39"/>
</g>
<!-- Node36&#45;&gt;Node4 -->
<g id="edge50" class="edge">
<title>Node36&#45;&gt;Node4</title>
<path fill="none" stroke="#63b8ff" d="M2060.13,-69.89C2051.85,-68.56 2043.47,-67.23 2035.5,-66 1926.3,-49.12 1897.53,-53.23 1789.5,-30 1782.49,-28.49 1775.02,-26.54 1768.07,-24.57"/>
<polygon fill="#63b8ff" stroke="#63b8ff" points="2059.7,-73.36 2070.13,-71.5 2060.82,-66.45 2059.7,-73.36"/>
</g>
<!-- Node37 -->
<g id="node37" class="node">
<title>Node37</title>
<g id="a_node37"><a xlink:href="QuitAction_8cpp.html" target="_top" xlink:title=" ">
<polygon fill="white" stroke="#666666" points="2327.5,-24.5 2163.5,-24.5 2163.5,-5.5 2327.5,-5.5 2327.5,-24.5"/>
<text text-anchor="middle" x="2245.5" y="-12.5" font-family="Helvetica,sans-Serif" font-size="10.00">src/action/once/QuitAction.cpp</text>
</a>
</g>
</g>
<!-- Node36&#45;&gt;Node37 -->
<g id="edge49" class="edge">
<title>Node36&#45;&gt;Node37</title>
<path fill="none" stroke="#63b8ff" d="M2147.28,-66.69C2171.71,-54.09 2207.69,-35.51 2228.65,-24.7"/>
<polygon fill="#63b8ff" stroke="#63b8ff" points="2145.5,-63.67 2138.22,-71.37 2148.71,-69.89 2145.5,-63.67"/>
</g>
<!-- Node38&#45;&gt;Node4 -->
<g id="edge53" class="edge">
<title>Node38&#45;&gt;Node4</title>
<path fill="none" stroke="#63b8ff" d="M2206.1,-65.9C2020.67,-43.72 1969.66,-63.18 1789.5,-30 1782.1,-28.64 1774.22,-26.64 1766.98,-24.57"/>
<polygon fill="#63b8ff" stroke="#63b8ff" points="2205.83,-69.39 2216.18,-67.13 2206.68,-62.44 2205.83,-69.39"/>
</g>
<!-- Node39 -->
<g id="node39" class="node">
<title>Node39</title>
<g id="a_node39"><a xlink:href="RegexSelectAction_8cpp.html" target="_top" xlink:title=" ">
<polygon fill="white" stroke="#666666" points="2499.5,-30 2345.5,-30 2345.5,0 2499.5,0 2499.5,-30"/>
<text text-anchor="start" x="2353.5" y="-18" font-family="Helvetica,sans-Serif" font-size="10.00">src/action/once/RegexSelect</text>
<text text-anchor="middle" x="2422.5" y="-7" font-family="Helvetica,sans-Serif" font-size="10.00">Action.cpp</text>
</a>
</g>
</g>
<!-- Node38&#45;&gt;Node39 -->
<g id="edge52" class="edge">
<title>Node38&#45;&gt;Node39</title>
<path fill="none" stroke="#63b8ff" d="M2331.04,-61.38C2351.22,-51.36 2375.7,-39.22 2394.26,-30.01"/>
<polygon fill="#63b8ff" stroke="#63b8ff" points="2329.21,-58.38 2321.81,-65.95 2332.32,-64.65 2329.21,-58.38"/>
</g>
<!-- Node40&#45;&gt;Node4 -->
<g id="edge56" class="edge">
<title>Node40&#45;&gt;Node4</title>
<path fill="none" stroke="#63b8ff" d="M2377.96,-65.92C2116.88,-35.45 2045.15,-73.78 1789.5,-30 1781.91,-28.7 1773.82,-26.67 1766.45,-24.55"/>
<polygon fill="#63b8ff" stroke="#63b8ff" points="2377.79,-69.43 2388.13,-67.13 2378.61,-62.48 2377.79,-69.43"/>
</g>
<!-- Node41 -->
<g id="node41" class="node">
<title>Node41</title>
<g id="a_node41"><a xlink:href="SelectByContentAction_8cpp.html" target="_top" xlink:title=" ">
<polygon fill="white" stroke="#666666" points="2653.5,-30 2517.5,-30 2517.5,0 2653.5,0 2653.5,-30"/>
<text text-anchor="start" x="2525.5" y="-18" font-family="Helvetica,sans-Serif" font-size="10.00">src/action/once/SelectBy</text>
<text text-anchor="middle" x="2585.5" y="-7" font-family="Helvetica,sans-Serif" font-size="10.00">ContentAction.cpp</text>
</a>
</g>
</g>
<!-- Node40&#45;&gt;Node41 -->
<g id="edge55" class="edge">
<title>Node40&#45;&gt;Node41</title>
<path fill="none" stroke="#63b8ff" d="M2494.04,-61.38C2514.22,-51.36 2538.7,-39.22 2557.26,-30.01"/>
<polygon fill="#63b8ff" stroke="#63b8ff" points="2492.21,-58.38 2484.81,-65.95 2495.32,-64.65 2492.21,-58.38"/>
</g>
<!-- Node42&#45;&gt;Node4 -->
<g id="edge59" class="edge">
<title>Node42&#45;&gt;Node4</title>
<path fill="none" stroke="#63b8ff" d="M2531.83,-65.92C2202.76,-29.44 2112.8,-83.28 1789.5,-30 1781.82,-28.73 1773.63,-26.68 1766.19,-24.54"/>
<polygon fill="#63b8ff" stroke="#63b8ff" points="2531.81,-69.44 2542.14,-67.09 2532.59,-62.49 2531.81,-69.44"/>
</g>
<!-- Node43 -->
<g id="node43" class="node">
<title>Node43</title>
<g id="a_node43"><a xlink:href="UnselectAllAction_8cpp.html" target="_top" xlink:title=" ">
<polygon fill="white" stroke="#666666" points="2807.5,-30 2671.5,-30 2671.5,0 2807.5,0 2807.5,-30"/>
<text text-anchor="start" x="2679.5" y="-18" font-family="Helvetica,sans-Serif" font-size="10.00">src/action/once/Unselect</text>
<text text-anchor="middle" x="2739.5" y="-7" font-family="Helvetica,sans-Serif" font-size="10.00">AllAction.cpp</text>
</a>
</g>
</g>
<!-- Node42&#45;&gt;Node43 -->
<g id="edge58" class="edge">
<title>Node42&#45;&gt;Node43</title>
<path fill="none" stroke="#63b8ff" d="M2648.04,-61.38C2668.22,-51.36 2692.7,-39.22 2711.26,-30.01"/>
<polygon fill="#63b8ff" stroke="#63b8ff" points="2646.21,-58.38 2638.81,-65.95 2649.32,-64.65 2646.21,-58.38"/>
</g>
<!-- Node44&#45;&gt;Node2 -->
<g id="edge61" class="edge">
<title>Node44&#45;&gt;Node2</title>
<path fill="none" stroke="#63b8ff" d="M163.99,-128.08C137.14,-116.78 98.22,-100.4 74.74,-90.52"/>
<polygon fill="#63b8ff" stroke="#63b8ff" points="162.71,-131.34 173.29,-131.99 165.43,-124.89 162.71,-131.34"/>
</g>
<!-- Node45 -->
<g id="node45" class="node">
<title>Node45</title>
<g id="a_node45"><a xlink:href="Interface_8cpp.html" target="_top" xlink:title=" ">
<polygon fill="white" stroke="#666666" points="265.5,-90.5 121.5,-90.5 121.5,-71.5 265.5,-71.5 265.5,-90.5"/>
<text text-anchor="middle" x="193.5" y="-78.5" font-family="Helvetica,sans-Serif" font-size="10.00">src/interface/Interface.cpp</text>
</a>
</g>
</g>
<!-- Node44&#45;&gt;Node45 -->
<g id="edge62" class="edge">
<title>Node44&#45;&gt;Node45</title>
<path fill="none" stroke="#63b8ff" d="M193.5,-121.66C193.5,-111.24 193.5,-98.8 193.5,-90.67"/>
<polygon fill="#63b8ff" stroke="#63b8ff" points="190,-121.87 193.5,-131.87 197,-121.87 190,-121.87"/>
</g>
</g>
</svg>
