<?xml version="1.0" encoding="UTF-8" standalone="no"?>
<!DOCTYPE svg PUBLIC "-//W3C//DTD SVG 1.1//EN"
 "http://www.w3.org/Graphics/SVG/1.1/DTD/svg11.dtd">
<!-- Generated by graphviz version 2.43.0 (0)
 -->
<!-- Title: src/entry/Symlink.h Pages: 1 -->
<svg width="232pt" height="82pt"
 viewBox="0.00 0.00 231.50 82.00" xmlns="http://www.w3.org/2000/svg" xmlns:xlink="http://www.w3.org/1999/xlink">
<g id="graph0" class="graph" transform="scale(1 1) rotate(0) translate(4 78)">
<title>src/entry/Symlink.h</title>
<!-- Node1 -->
<g id="node1" class="node">
<title>Node1</title>
<g id="a_node1"><a xlink:title=" ">
<polygon fill="#999999" stroke="#666666" points="157,-74 46,-74 46,-55 157,-55 157,-74"/>
<text text-anchor="middle" x="101.5" y="-62" font-family="Helvetica,sans-Serif" font-size="10.00">src/entry/Symlink.h</text>
</a>
</g>
</g>
<!-- Node2 -->
<g id="node2" class="node">
<title>Node2</title>
<g id="a_node2"><a xlink:href="Utility_8cpp.html" target="_top" xlink:title=" ">
<polygon fill="white" stroke="#666666" points="83,-19 0,-19 0,0 83,0 83,-19"/>
<text text-anchor="middle" x="41.5" y="-7" font-family="Helvetica,sans-Serif" font-size="10.00">src/Utility.cpp</text>
</a>
</g>
</g>
<!-- Node1&#45;&gt;Node2 -->
<g id="edge1" class="edge">
<title>Node1&#45;&gt;Node2</title>
<path fill="none" stroke="#63b8ff" d="M84.32,-48.32C73.62,-38.87 60.24,-27.06 51.32,-19.17"/>
<polygon fill="#63b8ff" stroke="#63b8ff" points="82.05,-50.99 91.86,-54.98 86.68,-45.74 82.05,-50.99"/>
</g>
<!-- Node3 -->
<g id="node3" class="node">
<title>Node3</title>
<g id="a_node3"><a xlink:href="Symlink_8cpp.html" target="_top" xlink:title=" ">
<polygon fill="white" stroke="#666666" points="223.5,-19 101.5,-19 101.5,0 223.5,0 223.5,-19"/>
<text text-anchor="middle" x="162.5" y="-7" font-family="Helvetica,sans-Serif" font-size="10.00">src/entry/Symlink.cpp</text>
</a>
</g>
</g>
<!-- Node1&#45;&gt;Node3 -->
<g id="edge2" class="edge">
<title>Node1&#45;&gt;Node3</title>
<path fill="none" stroke="#63b8ff" d="M118.97,-48.32C129.84,-38.87 143.44,-27.06 152.52,-19.17"/>
<polygon fill="#63b8ff" stroke="#63b8ff" points="116.55,-45.78 111.3,-54.98 121.15,-51.07 116.55,-45.78"/>
</g>
</g>
</svg>
