<?xml version="1.0" encoding="UTF-8" standalone="no"?>
<!DOCTYPE svg PUBLIC "-//W3C//DTD SVG 1.1//EN"
 "http://www.w3.org/Graphics/SVG/1.1/DTD/svg11.dtd">
<!-- Generated by graphviz version 2.43.0 (0)
 -->
<!-- Title: src/entry/Symlink.h Pages: 1 -->
<svg width="160pt" height="137pt"
 viewBox="0.00 0.00 159.50 137.00" xmlns="http://www.w3.org/2000/svg" xmlns:xlink="http://www.w3.org/1999/xlink">
<g id="graph0" class="graph" transform="scale(1 1) rotate(0) translate(4 133)">
<title>src/entry/Symlink.h</title>
<!-- Node1 -->
<g id="node1" class="node">
<title>Node1</title>
<g id="a_node1"><a xlink:title=" ">
<polygon fill="#999999" stroke="#666666" points="115.5,-129 4.5,-129 4.5,-110 115.5,-110 115.5,-129"/>
<text text-anchor="middle" x="60" y="-117" font-family="Helvetica,sans-Serif" font-size="10.00">src/entry/Symlink.h</text>
</a>
</g>
</g>
<!-- Node2 -->
<g id="node2" class="node">
<title>Node2</title>
<g id="a_node2"><a xlink:title=" ">
<polygon fill="#e0e0e0" stroke="#999999" points="68,-19 0,-19 0,0 68,0 68,-19"/>
<text text-anchor="middle" x="34" y="-7" font-family="Helvetica,sans-Serif" font-size="10.00">filesystem</text>
</a>
</g>
</g>
<!-- Node1&#45;&gt;Node2 -->
<g id="edge1" class="edge">
<title>Node1&#45;&gt;Node2</title>
<path fill="none" stroke="#63b8ff" d="M57.87,-109.66C53.64,-92.09 44.1,-52.45 38.44,-28.95"/>
<polygon fill="#63b8ff" stroke="#63b8ff" points="41.83,-28.06 36.08,-19.16 35.02,-29.7 41.83,-28.06"/>
</g>
<!-- Node3 -->
<g id="node3" class="node">
<title>Node3</title>
<g id="a_node3"><a xlink:href="Entry_8h.html" target="_top" xlink:title=" ">
<polygon fill="white" stroke="#666666" points="112,-74 62,-74 62,-55 112,-55 112,-74"/>
<text text-anchor="middle" x="87" y="-62" font-family="Helvetica,sans-Serif" font-size="10.00">Entry.h</text>
</a>
</g>
</g>
<!-- Node1&#45;&gt;Node3 -->
<g id="edge2" class="edge">
<title>Node1&#45;&gt;Node3</title>
<path fill="none" stroke="#63b8ff" d="M64.46,-109.75C68.12,-102.57 73.41,-92.18 77.95,-83.27"/>
<polygon fill="#63b8ff" stroke="#63b8ff" points="81.2,-84.59 82.62,-74.09 74.97,-81.41 81.2,-84.59"/>
</g>
<!-- Node3&#45;&gt;Node2 -->
<g id="edge3" class="edge">
<title>Node3&#45;&gt;Node2</title>
<path fill="none" stroke="#63b8ff" d="M78.25,-54.75C70.53,-47.03 59.1,-35.6 49.78,-26.28"/>
<polygon fill="#63b8ff" stroke="#63b8ff" points="52.14,-23.69 42.59,-19.09 47.19,-28.64 52.14,-23.69"/>
</g>
<!-- Node4 -->
<g id="node4" class="node">
<title>Node4</title>
<g id="a_node4"><a xlink:href="Modifier_8h.html" target="_top" xlink:title=" ">
<polygon fill="white" stroke="#666666" points="151.5,-19 86.5,-19 86.5,0 151.5,0 151.5,-19"/>
<text text-anchor="middle" x="119" y="-7" font-family="Helvetica,sans-Serif" font-size="10.00">Modifier.h</text>
</a>
</g>
</g>
<!-- Node3&#45;&gt;Node4 -->
<g id="edge4" class="edge">
<title>Node3&#45;&gt;Node4</title>
<path fill="none" stroke="#63b8ff" d="M92.28,-54.75C96.71,-47.42 103.16,-36.73 108.62,-27.7"/>
<polygon fill="#63b8ff" stroke="#63b8ff" points="111.64,-29.46 113.81,-19.09 105.65,-25.84 111.64,-29.46"/>
</g>
</g>
</svg>
