<?xml version="1.0" encoding="UTF-8" standalone="no"?>
<!DOCTYPE svg PUBLIC "-//W3C//DTD SVG 1.1//EN"
 "http://www.w3.org/Graphics/SVG/1.1/DTD/svg11.dtd">
<!-- Generated by graphviz version 2.43.0 (0)
 -->
<!-- Title: src/entry/Symlink.cpp Pages: 1 -->
<svg width="412pt" height="192pt"
 viewBox="0.00 0.00 411.50 192.00" xmlns="http://www.w3.org/2000/svg" xmlns:xlink="http://www.w3.org/1999/xlink">
<g id="graph0" class="graph" transform="scale(1 1) rotate(0) translate(4 188)">
<title>src/entry/Symlink.cpp</title>
<!-- Node1 -->
<g id="node1" class="node">
<title>Node1</title>
<g id="a_node1"><a xlink:title=" ">
<polygon fill="#999999" stroke="#666666" points="243,-184 121,-184 121,-165 243,-165 243,-184"/>
<text text-anchor="middle" x="182" y="-172" font-family="Helvetica,sans-Serif" font-size="10.00">src/entry/Symlink.cpp</text>
</a>
</g>
</g>
<!-- Node2 -->
<g id="node2" class="node">
<title>Node2</title>
<g id="a_node2"><a xlink:href="Symlink_8h.html" target="_top" xlink:title=" ">
<polygon fill="white" stroke="#666666" points="66.5,-129 1.5,-129 1.5,-110 66.5,-110 66.5,-129"/>
<text text-anchor="middle" x="34" y="-117" font-family="Helvetica,sans-Serif" font-size="10.00">Symlink.h</text>
</a>
</g>
</g>
<!-- Node1&#45;&gt;Node2 -->
<g id="edge1" class="edge">
<title>Node1&#45;&gt;Node2</title>
<path fill="none" stroke="#63b8ff" d="M158.22,-164.98C133.77,-156.23 95.47,-142.51 67.85,-132.62"/>
<polygon fill="#63b8ff" stroke="#63b8ff" points="68.81,-129.25 58.21,-129.17 66.45,-135.84 68.81,-129.25"/>
</g>
<!-- Node6 -->
<g id="node6" class="node">
<title>Node6</title>
<g id="a_node6"><a xlink:title=" ">
<polygon fill="#e0e0e0" stroke="#999999" points="147.5,-129 84.5,-129 84.5,-110 147.5,-110 147.5,-129"/>
<text text-anchor="middle" x="116" y="-117" font-family="Helvetica,sans-Serif" font-size="10.00">ncurses.h</text>
</a>
</g>
</g>
<!-- Node1&#45;&gt;Node6 -->
<g id="edge6" class="edge">
<title>Node1&#45;&gt;Node6</title>
<path fill="none" stroke="#63b8ff" d="M171.4,-164.98C161.54,-157.07 146.65,-145.11 134.78,-135.58"/>
<polygon fill="#63b8ff" stroke="#63b8ff" points="136.79,-132.7 126.8,-129.17 132.4,-138.16 136.79,-132.7"/>
</g>
<!-- Node7 -->
<g id="node7" class="node">
<title>Node7</title>
<g id="a_node7"><a xlink:title=" ">
<polygon fill="#e0e0e0" stroke="#999999" points="198,-129 166,-129 166,-110 198,-110 198,-129"/>
<text text-anchor="middle" x="182" y="-117" font-family="Helvetica,sans-Serif" font-size="10.00">set</text>
</a>
</g>
</g>
<!-- Node1&#45;&gt;Node7 -->
<g id="edge7" class="edge">
<title>Node1&#45;&gt;Node7</title>
<path fill="none" stroke="#63b8ff" d="M182,-164.75C182,-157.8 182,-147.85 182,-139.13"/>
<polygon fill="#63b8ff" stroke="#63b8ff" points="185.5,-139.09 182,-129.09 178.5,-139.09 185.5,-139.09"/>
</g>
<!-- Node8 -->
<g id="node8" class="node">
<title>Node8</title>
<g id="a_node8"><a xlink:href="Color_8h.html" target="_top" xlink:title=" ">
<polygon fill="white" stroke="#666666" points="322,-129 216,-129 216,-110 322,-110 322,-129"/>
<text text-anchor="middle" x="269" y="-117" font-family="Helvetica,sans-Serif" font-size="10.00">../interface/Color.h</text>
</a>
</g>
</g>
<!-- Node1&#45;&gt;Node8 -->
<g id="edge8" class="edge">
<title>Node1&#45;&gt;Node8</title>
<path fill="none" stroke="#63b8ff" d="M195.98,-164.98C209.47,-156.77 230.13,-144.18 246.04,-134.49"/>
<polygon fill="#63b8ff" stroke="#63b8ff" points="248.05,-137.36 254.77,-129.17 244.41,-131.38 248.05,-137.36"/>
</g>
<!-- Node9 -->
<g id="node9" class="node">
<title>Node9</title>
<g id="a_node9"><a xlink:href="Utility_8h.html" target="_top" xlink:title=" ">
<polygon fill="white" stroke="#666666" points="403.5,-129 340.5,-129 340.5,-110 403.5,-110 403.5,-129"/>
<text text-anchor="middle" x="372" y="-117" font-family="Helvetica,sans-Serif" font-size="10.00">../Utility.h</text>
</a>
</g>
</g>
<!-- Node1&#45;&gt;Node9 -->
<g id="edge9" class="edge">
<title>Node1&#45;&gt;Node9</title>
<path fill="none" stroke="#63b8ff" d="M212.53,-164.98C244.7,-156.01 295.56,-141.82 331.17,-131.89"/>
<polygon fill="#63b8ff" stroke="#63b8ff" points="332.54,-135.14 341.23,-129.08 330.66,-128.4 332.54,-135.14"/>
</g>
<!-- Node3 -->
<g id="node3" class="node">
<title>Node3</title>
<g id="a_node3"><a xlink:title=" ">
<polygon fill="#e0e0e0" stroke="#999999" points="68,-19 0,-19 0,0 68,0 68,-19"/>
<text text-anchor="middle" x="34" y="-7" font-family="Helvetica,sans-Serif" font-size="10.00">filesystem</text>
</a>
</g>
</g>
<!-- Node2&#45;&gt;Node3 -->
<g id="edge2" class="edge">
<title>Node2&#45;&gt;Node3</title>
<path fill="none" stroke="#63b8ff" d="M34,-109.66C34,-92.17 34,-52.8 34,-29.27"/>
<polygon fill="#63b8ff" stroke="#63b8ff" points="37.5,-29.16 34,-19.16 30.5,-29.16 37.5,-29.16"/>
</g>
<!-- Node4 -->
<g id="node4" class="node">
<title>Node4</title>
<g id="a_node4"><a xlink:href="Entry_8h.html" target="_top" xlink:title=" ">
<polygon fill="white" stroke="#666666" points="128,-74 78,-74 78,-55 128,-55 128,-74"/>
<text text-anchor="middle" x="103" y="-62" font-family="Helvetica,sans-Serif" font-size="10.00">Entry.h</text>
</a>
</g>
</g>
<!-- Node2&#45;&gt;Node4 -->
<g id="edge3" class="edge">
<title>Node2&#45;&gt;Node4</title>
<path fill="none" stroke="#63b8ff" d="M45.09,-109.98C55.49,-102 71.26,-89.88 83.72,-80.31"/>
<polygon fill="#63b8ff" stroke="#63b8ff" points="85.91,-83.04 91.71,-74.17 81.65,-77.49 85.91,-83.04"/>
</g>
<!-- Node4&#45;&gt;Node3 -->
<g id="edge4" class="edge">
<title>Node4&#45;&gt;Node3</title>
<path fill="none" stroke="#63b8ff" d="M91.91,-54.98C81.51,-47 65.74,-34.88 53.28,-25.31"/>
<polygon fill="#63b8ff" stroke="#63b8ff" points="55.35,-22.49 45.29,-19.17 51.09,-28.04 55.35,-22.49"/>
</g>
<!-- Node5 -->
<g id="node5" class="node">
<title>Node5</title>
<g id="a_node5"><a xlink:href="Modifier_8h.html" target="_top" xlink:title=" ">
<polygon fill="white" stroke="#666666" points="151.5,-19 86.5,-19 86.5,0 151.5,0 151.5,-19"/>
<text text-anchor="middle" x="119" y="-7" font-family="Helvetica,sans-Serif" font-size="10.00">Modifier.h</text>
</a>
</g>
</g>
<!-- Node4&#45;&gt;Node5 -->
<g id="edge5" class="edge">
<title>Node4&#45;&gt;Node5</title>
<path fill="none" stroke="#63b8ff" d="M105.64,-54.75C107.76,-47.72 110.81,-37.62 113.46,-28.84"/>
<polygon fill="#63b8ff" stroke="#63b8ff" points="116.87,-29.67 116.41,-19.09 110.17,-27.65 116.87,-29.67"/>
</g>
<!-- Node9&#45;&gt;Node4 -->
<g id="edge11" class="edge">
<title>Node9&#45;&gt;Node4</title>
<path fill="none" stroke="#63b8ff" d="M340.22,-111.87C337.11,-111.24 333.99,-110.6 331,-110 262.92,-96.3 183.27,-80.9 138.42,-72.28"/>
<polygon fill="#63b8ff" stroke="#63b8ff" points="138.8,-68.79 128.32,-70.34 137.48,-75.66 138.8,-68.79"/>
</g>
<!-- Node10 -->
<g id="node10" class="node">
<title>Node10</title>
<g id="a_node10"><a xlink:title=" ">
<polygon fill="#e0e0e0" stroke="#999999" points="394,-74 350,-74 350,-55 394,-55 394,-74"/>
<text text-anchor="middle" x="372" y="-62" font-family="Helvetica,sans-Serif" font-size="10.00">string</text>
</a>
</g>
</g>
<!-- Node9&#45;&gt;Node10 -->
<g id="edge10" class="edge">
<title>Node9&#45;&gt;Node10</title>
<path fill="none" stroke="#63b8ff" d="M372,-109.75C372,-102.8 372,-92.85 372,-84.13"/>
<polygon fill="#63b8ff" stroke="#63b8ff" points="375.5,-84.09 372,-74.09 368.5,-84.09 375.5,-84.09"/>
</g>
</g>
</svg>
