<?xml version="1.0" encoding="UTF-8" standalone="no"?>
<!DOCTYPE svg PUBLIC "-//W3C//DTD SVG 1.1//EN"
 "http://www.w3.org/Graphics/SVG/1.1/DTD/svg11.dtd">
<!-- Generated by graphviz version 2.43.0 (0)
 -->
<!-- Title: src/interface/Theme.cpp Pages: 1 -->
<svg width="142pt" height="137pt"
 viewBox="0.00 0.00 142.00 137.00" xmlns="http://www.w3.org/2000/svg" xmlns:xlink="http://www.w3.org/1999/xlink">
<g id="graph0" class="graph" transform="scale(1 1) rotate(0) translate(4 133)">
<title>src/interface/Theme.cpp</title>
<!-- Node1 -->
<g id="node1" class="node">
<title>Node1</title>
<g id="a_node1"><a xlink:title=" ">
<polygon fill="#999999" stroke="#666666" points="134,-129 0,-129 0,-110 134,-110 134,-129"/>
<text text-anchor="middle" x="67" y="-117" font-family="Helvetica,sans-Serif" font-size="10.00">src/interface/Theme.cpp</text>
</a>
</g>
</g>
<!-- Node2 -->
<g id="node2" class="node">
<title>Node2</title>
<g id="a_node2"><a xlink:href="Theme_8h.html" target="_top" xlink:title=" ">
<polygon fill="white" stroke="#666666" points="96.5,-74 37.5,-74 37.5,-55 96.5,-55 96.5,-74"/>
<text text-anchor="middle" x="67" y="-62" font-family="Helvetica,sans-Serif" font-size="10.00">Theme.h</text>
</a>
</g>
</g>
<!-- Node1&#45;&gt;Node2 -->
<g id="edge1" class="edge">
<title>Node1&#45;&gt;Node2</title>
<path fill="none" stroke="#63b8ff" d="M67,-109.75C67,-102.8 67,-92.85 67,-84.13"/>
<polygon fill="#63b8ff" stroke="#63b8ff" points="70.5,-84.09 67,-74.09 63.5,-84.09 70.5,-84.09"/>
</g>
<!-- Node3 -->
<g id="node3" class="node">
<title>Node3</title>
<g id="a_node3"><a xlink:title=" ">
<polygon fill="#e0e0e0" stroke="#999999" points="98.5,-19 35.5,-19 35.5,0 98.5,0 98.5,-19"/>
<text text-anchor="middle" x="67" y="-7" font-family="Helvetica,sans-Serif" font-size="10.00">ncurses.h</text>
</a>
</g>
</g>
<!-- Node2&#45;&gt;Node3 -->
<g id="edge2" class="edge">
<title>Node2&#45;&gt;Node3</title>
<path fill="none" stroke="#63b8ff" d="M67,-54.75C67,-47.8 67,-37.85 67,-29.13"/>
<polygon fill="#63b8ff" stroke="#63b8ff" points="70.5,-29.09 67,-19.09 63.5,-29.09 70.5,-29.09"/>
</g>
</g>
</svg>
