<?xml version="1.0" encoding="UTF-8" standalone="no"?>
<!DOCTYPE svg PUBLIC "-//W3C//DTD SVG 1.1//EN"
 "http://www.w3.org/Graphics/SVG/1.1/DTD/svg11.dtd">
<!-- Generated by graphviz version 2.43.0 (0)
 -->
<!-- Title: src/Utility.h Pages: 1 -->
<svg width="3374pt" height="324pt"
 viewBox="0.00 0.00 3374.00 324.00" xmlns="http://www.w3.org/2000/svg" xmlns:xlink="http://www.w3.org/1999/xlink">
<g id="graph0" class="graph" transform="scale(1 1) rotate(0) translate(4 320)">
<title>src/Utility.h</title>
<!-- Node1 -->
<g id="node1" class="node">
<title>Node1</title>
<g id="a_node1"><a xlink:title=" ">
<polygon fill="#999999" stroke="#666666" points="378,-316 307,-316 307,-297 378,-297 378,-316"/>
<text text-anchor="middle" x="342.5" y="-304" font-family="Helvetica,sans-Serif" font-size="10.00">src/Utility.h</text>
</a>
</g>
</g>
<!-- Node2 -->
<g id="node2" class="node">
<title>Node2</title>
<g id="a_node2"><a xlink:href="FileView_8cpp.html" target="_top" xlink:title=" ">
<polygon fill="white" stroke="#666666" points="141,-261 46,-261 46,-242 141,-242 141,-261"/>
<text text-anchor="middle" x="93.5" y="-249" font-family="Helvetica,sans-Serif" font-size="10.00">src/FileView.cpp</text>
</a>
</g>
</g>
<!-- Node1&#45;&gt;Node2 -->
<g id="edge1" class="edge">
<title>Node1&#45;&gt;Node2</title>
<path fill="none" stroke="#63b8ff" d="M296.97,-295.81C250.26,-285.87 178.29,-270.55 133.65,-261.05"/>
<polygon fill="#63b8ff" stroke="#63b8ff" points="296.31,-299.25 306.82,-297.91 297.77,-292.4 296.31,-299.25"/>
</g>
<!-- Node3 -->
<g id="node3" class="node">
<title>Node3</title>
<g id="a_node3"><a xlink:href="State_8h.html" target="_top" xlink:title=" ">
<polygon fill="white" stroke="#666666" points="227.5,-261 159.5,-261 159.5,-242 227.5,-242 227.5,-261"/>
<text text-anchor="middle" x="193.5" y="-249" font-family="Helvetica,sans-Serif" font-size="10.00">src/State.h</text>
</a>
</g>
</g>
<!-- Node1&#45;&gt;Node3 -->
<g id="edge2" class="edge">
<title>Node1&#45;&gt;Node3</title>
<path fill="none" stroke="#63b8ff" d="M308.91,-293.55C281.24,-283.71 242.66,-269.98 217.88,-261.17"/>
<polygon fill="#63b8ff" stroke="#63b8ff" points="307.97,-296.93 318.56,-296.98 310.31,-290.34 307.97,-296.93"/>
</g>
<!-- Node48 -->
<g id="node47" class="node">
<title>Node48</title>
<g id="a_node47"><a xlink:href="Utility_8cpp.html" target="_top" xlink:title=" ">
<polygon fill="white" stroke="#666666" points="329,-261 246,-261 246,-242 329,-242 329,-261"/>
<text text-anchor="middle" x="287.5" y="-249" font-family="Helvetica,sans-Serif" font-size="10.00">src/Utility.cpp</text>
</a>
</g>
</g>
<!-- Node1&#45;&gt;Node48 -->
<g id="edge65" class="edge">
<title>Node1&#45;&gt;Node48</title>
<path fill="none" stroke="#63b8ff" d="M326.21,-289.8C316.46,-280.41 304.45,-268.83 296.41,-261.09"/>
<polygon fill="#63b8ff" stroke="#63b8ff" points="323.79,-292.33 333.42,-296.75 328.65,-287.29 323.79,-292.33"/>
</g>
<!-- Node49 -->
<g id="node48" class="node">
<title>Node49</title>
<g id="a_node48"><a xlink:href="File_8cpp.html" target="_top" xlink:title=" ">
<polygon fill="white" stroke="#666666" points="447.5,-261 347.5,-261 347.5,-242 447.5,-242 447.5,-261"/>
<text text-anchor="middle" x="397.5" y="-249" font-family="Helvetica,sans-Serif" font-size="10.00">src/entry/File.cpp</text>
</a>
</g>
</g>
<!-- Node1&#45;&gt;Node49 -->
<g id="edge66" class="edge">
<title>Node1&#45;&gt;Node49</title>
<path fill="none" stroke="#63b8ff" d="M358.79,-289.8C368.54,-280.41 380.55,-268.83 388.59,-261.09"/>
<polygon fill="#63b8ff" stroke="#63b8ff" points="356.35,-287.29 351.58,-296.75 361.21,-292.33 356.35,-287.29"/>
</g>
<!-- Node50 -->
<g id="node49" class="node">
<title>Node50</title>
<g id="a_node49"><a xlink:href="Folder_8cpp.html" target="_top" xlink:title=" ">
<polygon fill="white" stroke="#666666" points="577.5,-261 465.5,-261 465.5,-242 577.5,-242 577.5,-261"/>
<text text-anchor="middle" x="521.5" y="-249" font-family="Helvetica,sans-Serif" font-size="10.00">src/entry/Folder.cpp</text>
</a>
</g>
</g>
<!-- Node1&#45;&gt;Node50 -->
<g id="edge67" class="edge">
<title>Node1&#45;&gt;Node50</title>
<path fill="none" stroke="#63b8ff" d="M381.15,-294.06C414.61,-284.15 462.25,-270.04 492.52,-261.08"/>
<polygon fill="#63b8ff" stroke="#63b8ff" points="379.85,-290.79 371.26,-296.98 381.84,-297.5 379.85,-290.79"/>
</g>
<!-- Node51 -->
<g id="node50" class="node">
<title>Node51</title>
<g id="a_node50"><a xlink:href="Symlink_8cpp.html" target="_top" xlink:title=" ">
<polygon fill="white" stroke="#666666" points="717.5,-261 595.5,-261 595.5,-242 717.5,-242 717.5,-261"/>
<text text-anchor="middle" x="656.5" y="-249" font-family="Helvetica,sans-Serif" font-size="10.00">src/entry/Symlink.cpp</text>
</a>
</g>
</g>
<!-- Node1&#45;&gt;Node51 -->
<g id="edge68" class="edge">
<title>Node1&#45;&gt;Node51</title>
<path fill="none" stroke="#63b8ff" d="M388.19,-297.79C446.19,-288 545.91,-271.17 606.08,-261.01"/>
<polygon fill="#63b8ff" stroke="#63b8ff" points="387.49,-294.36 378.21,-299.47 388.66,-301.26 387.49,-294.36"/>
</g>
<!-- Node4 -->
<g id="node4" class="node">
<title>Node4</title>
<g id="a_node4"><a xlink:href="Application_8h.html" target="_top" xlink:title=" ">
<polygon fill="white" stroke="#666666" points="103.5,-90.5 5.5,-90.5 5.5,-71.5 103.5,-71.5 103.5,-90.5"/>
<text text-anchor="middle" x="54.5" y="-78.5" font-family="Helvetica,sans-Serif" font-size="10.00">src/Application.h</text>
</a>
</g>
</g>
<!-- Node3&#45;&gt;Node4 -->
<g id="edge3" class="edge">
<title>Node3&#45;&gt;Node4</title>
<path fill="none" stroke="#63b8ff" d="M179.92,-234.04C150.94,-198.9 83.87,-117.61 61.74,-90.77"/>
<polygon fill="#63b8ff" stroke="#63b8ff" points="177.35,-236.43 186.42,-241.91 182.75,-231.97 177.35,-236.43"/>
</g>
<!-- Node7 -->
<g id="node7" class="node">
<title>Node7</title>
<g id="a_node7"><a xlink:href="Action_8h.html" target="_top" xlink:title=" ">
<polygon fill="white" stroke="#666666" points="446,-206 339,-206 339,-187 446,-187 446,-206"/>
<text text-anchor="middle" x="392.5" y="-194" font-family="Helvetica,sans-Serif" font-size="10.00">src/action/Action.h</text>
</a>
</g>
</g>
<!-- Node3&#45;&gt;Node7 -->
<g id="edge6" class="edge">
<title>Node3&#45;&gt;Node7</title>
<path fill="none" stroke="#63b8ff" d="M235.51,-239.31C272.75,-229.39 326.34,-215.12 360.28,-206.08"/>
<polygon fill="#63b8ff" stroke="#63b8ff" points="234.24,-236.03 225.47,-241.98 236.04,-242.79 234.24,-236.03"/>
</g>
<!-- Node46 -->
<g id="node45" class="node">
<title>Node46</title>
<g id="a_node45"><a xlink:href="Interface_8h.html" target="_top" xlink:title=" ">
<polygon fill="white" stroke="#666666" points="260,-151 127,-151 127,-132 260,-132 260,-151"/>
<text text-anchor="middle" x="193.5" y="-139" font-family="Helvetica,sans-Serif" font-size="10.00">src/interface/Interface.h</text>
</a>
</g>
</g>
<!-- Node3&#45;&gt;Node46 -->
<g id="edge64" class="edge">
<title>Node3&#45;&gt;Node46</title>
<path fill="none" stroke="#63b8ff" d="M193.5,-231.48C193.5,-207.84 193.5,-168.5 193.5,-151.16"/>
<polygon fill="#63b8ff" stroke="#63b8ff" points="190,-231.66 193.5,-241.66 197,-231.66 190,-231.66"/>
</g>
<!-- Node5 -->
<g id="node5" class="node">
<title>Node5</title>
<g id="a_node5"><a xlink:href="Application_8cpp.html" target="_top" xlink:title=" ">
<polygon fill="white" stroke="#666666" points="109,-24.5 0,-24.5 0,-5.5 109,-5.5 109,-24.5"/>
<text text-anchor="middle" x="54.5" y="-12.5" font-family="Helvetica,sans-Serif" font-size="10.00">src/Application.cpp</text>
</a>
</g>
</g>
<!-- Node4&#45;&gt;Node5 -->
<g id="edge4" class="edge">
<title>Node4&#45;&gt;Node5</title>
<path fill="none" stroke="#63b8ff" d="M54.5,-61.08C54.5,-49.13 54.5,-34.22 54.5,-24.91"/>
<polygon fill="#63b8ff" stroke="#63b8ff" points="51,-61.37 54.5,-71.37 58,-61.37 51,-61.37"/>
</g>
<!-- Node6 -->
<g id="node6" class="node">
<title>Node6</title>
<g id="a_node6"><a xlink:href="main_8cpp.html" target="_top" xlink:title=" ">
<polygon fill="white" stroke="#666666" points="1620,-24.5 1541,-24.5 1541,-5.5 1620,-5.5 1620,-24.5"/>
<text text-anchor="middle" x="1580.5" y="-12.5" font-family="Helvetica,sans-Serif" font-size="10.00">src/main.cpp</text>
</a>
</g>
</g>
<!-- Node4&#45;&gt;Node6 -->
<g id="edge5" class="edge">
<title>Node4&#45;&gt;Node6</title>
<path fill="none" stroke="#63b8ff" d="M94.54,-69.18C100.52,-67.9 106.64,-66.77 112.5,-66 722.95,14.69 884.6,-89.36 1497.5,-30 1511.75,-28.62 1527.26,-26.24 1540.97,-23.84"/>
<polygon fill="#63b8ff" stroke="#63b8ff" points="93.64,-65.79 84.68,-71.44 95.21,-72.61 93.64,-65.79"/>
</g>
<!-- Node8 -->
<g id="node8" class="node">
<title>Node8</title>
<g id="a_node8"><a xlink:href="ForEachAction_8h.html" target="_top" xlink:title=" ">
<polygon fill="white" stroke="#666666" points="582,-151 437,-151 437,-132 582,-132 582,-151"/>
<text text-anchor="middle" x="509.5" y="-139" font-family="Helvetica,sans-Serif" font-size="10.00">src/action/ForEachAction.h</text>
</a>
</g>
</g>
<!-- Node7&#45;&gt;Node8 -->
<g id="edge7" class="edge">
<title>Node7&#45;&gt;Node8</title>
<path fill="none" stroke="#63b8ff" d="M420.61,-182.77C442.19,-172.99 471.41,-159.75 490.36,-151.17"/>
<polygon fill="#63b8ff" stroke="#63b8ff" points="418.96,-179.67 411.3,-186.98 421.85,-186.05 418.96,-179.67"/>
</g>
<!-- Node16 -->
<g id="node16" class="node">
<title>Node16</title>
<g id="a_node16"><a xlink:href="OnceAction_8h.html" target="_top" xlink:title=" ">
<polygon fill="white" stroke="#666666" points="2072,-151 1941,-151 1941,-132 2072,-132 2072,-151"/>
<text text-anchor="middle" x="2006.5" y="-139" font-family="Helvetica,sans-Serif" font-size="10.00">src/action/OnceAction.h</text>
</a>
</g>
</g>
<!-- Node7&#45;&gt;Node16 -->
<g id="edge18" class="edge">
<title>Node7&#45;&gt;Node16</title>
<path fill="none" stroke="#63b8ff" d="M456.54,-193.4C714.99,-184.91 1679.86,-153.23 1940.99,-144.65"/>
<polygon fill="#63b8ff" stroke="#63b8ff" points="456.08,-189.91 446.2,-193.74 456.31,-196.91 456.08,-189.91"/>
</g>
<!-- Node7&#45;&gt;Node46 -->
<g id="edge61" class="edge">
<title>Node7&#45;&gt;Node46</title>
<path fill="none" stroke="#63b8ff" d="M350.49,-184.31C313.25,-174.39 259.66,-160.12 225.72,-151.08"/>
<polygon fill="#63b8ff" stroke="#63b8ff" points="349.96,-187.79 360.53,-186.98 351.76,-181.03 349.96,-187.79"/>
</g>
<!-- Node9 -->
<g id="node9" class="node">
<title>Node9</title>
<g id="a_node9"><a xlink:href="ForEachAction_8cpp.html" target="_top" xlink:title=" ">
<polygon fill="white" stroke="#666666" points="439.5,-90.5 283.5,-90.5 283.5,-71.5 439.5,-71.5 439.5,-90.5"/>
<text text-anchor="middle" x="361.5" y="-78.5" font-family="Helvetica,sans-Serif" font-size="10.00">src/action/ForEachAction.cpp</text>
</a>
</g>
</g>
<!-- Node8&#45;&gt;Node9 -->
<g id="edge8" class="edge">
<title>Node8&#45;&gt;Node9</title>
<path fill="none" stroke="#63b8ff" d="M478.46,-128.23C449.86,-116.92 408.16,-100.44 383.05,-90.52"/>
<polygon fill="#63b8ff" stroke="#63b8ff" points="477.39,-131.57 487.98,-131.99 479.97,-125.06 477.39,-131.57"/>
</g>
<!-- Node10 -->
<g id="node10" class="node">
<title>Node10</title>
<g id="a_node10"><a xlink:href="CopyAction_8h.html" target="_top" xlink:title=" ">
<polygon fill="white" stroke="#666666" points="561.5,-96 457.5,-96 457.5,-66 561.5,-66 561.5,-96"/>
<text text-anchor="start" x="465.5" y="-84" font-family="Helvetica,sans-Serif" font-size="10.00">src/action/foreach</text>
<text text-anchor="middle" x="509.5" y="-73" font-family="Helvetica,sans-Serif" font-size="10.00">/CopyAction.h</text>
</a>
</g>
</g>
<!-- Node8&#45;&gt;Node10 -->
<g id="edge9" class="edge">
<title>Node8&#45;&gt;Node10</title>
<path fill="none" stroke="#63b8ff" d="M509.5,-121.65C509.5,-113.36 509.5,-103.78 509.5,-96.11"/>
<polygon fill="#63b8ff" stroke="#63b8ff" points="506,-121.87 509.5,-131.87 513,-121.87 506,-121.87"/>
</g>
<!-- Node12 -->
<g id="node12" class="node">
<title>Node12</title>
<g id="a_node12"><a xlink:href="DeleteAction_8h.html" target="_top" xlink:title=" ">
<polygon fill="white" stroke="#666666" points="683.5,-96 579.5,-96 579.5,-66 683.5,-66 683.5,-96"/>
<text text-anchor="start" x="587.5" y="-84" font-family="Helvetica,sans-Serif" font-size="10.00">src/action/foreach</text>
<text text-anchor="middle" x="631.5" y="-73" font-family="Helvetica,sans-Serif" font-size="10.00">/DeleteAction.h</text>
</a>
</g>
</g>
<!-- Node8&#45;&gt;Node12 -->
<g id="edge12" class="edge">
<title>Node8&#45;&gt;Node12</title>
<path fill="none" stroke="#63b8ff" d="M536.43,-127.59C555.81,-118.29 581.97,-105.75 601.93,-96.18"/>
<polygon fill="#63b8ff" stroke="#63b8ff" points="534.74,-124.51 527.24,-131.99 537.77,-130.83 534.74,-124.51"/>
</g>
<!-- Node14 -->
<g id="node14" class="node">
<title>Node14</title>
<g id="a_node14"><a xlink:href="MoveAction_8h.html" target="_top" xlink:title=" ">
<polygon fill="white" stroke="#666666" points="805.5,-96 701.5,-96 701.5,-66 805.5,-66 805.5,-96"/>
<text text-anchor="start" x="709.5" y="-84" font-family="Helvetica,sans-Serif" font-size="10.00">src/action/foreach</text>
<text text-anchor="middle" x="753.5" y="-73" font-family="Helvetica,sans-Serif" font-size="10.00">/MoveAction.h</text>
</a>
</g>
</g>
<!-- Node8&#45;&gt;Node14 -->
<g id="edge15" class="edge">
<title>Node8&#45;&gt;Node14</title>
<path fill="none" stroke="#63b8ff" d="M554.82,-129.63C596.34,-119.68 657.78,-104.95 701.33,-94.51"/>
<polygon fill="#63b8ff" stroke="#63b8ff" points="553.89,-126.26 544.98,-131.99 555.52,-133.07 553.89,-126.26"/>
</g>
<!-- Node10&#45;&gt;Node6 -->
<g id="edge11" class="edge">
<title>Node10&#45;&gt;Node6</title>
<path fill="none" stroke="#63b8ff" d="M571.66,-66.04C980.97,-12.62 1090.68,-72.03 1497.5,-30 1511.75,-28.53 1527.25,-26.13 1540.96,-23.73"/>
<polygon fill="#63b8ff" stroke="#63b8ff" points="571.08,-62.58 561.63,-67.36 572,-69.52 571.08,-62.58"/>
</g>
<!-- Node11 -->
<g id="node11" class="node">
<title>Node11</title>
<g id="a_node11"><a xlink:href="CopyAction_8cpp.html" target="_top" xlink:title=" ">
<polygon fill="white" stroke="#666666" points="561.5,-30 457.5,-30 457.5,0 561.5,0 561.5,-30"/>
<text text-anchor="start" x="465.5" y="-18" font-family="Helvetica,sans-Serif" font-size="10.00">src/action/foreach</text>
<text text-anchor="middle" x="509.5" y="-7" font-family="Helvetica,sans-Serif" font-size="10.00">/CopyAction.cpp</text>
</a>
</g>
</g>
<!-- Node10&#45;&gt;Node11 -->
<g id="edge10" class="edge">
<title>Node10&#45;&gt;Node11</title>
<path fill="none" stroke="#63b8ff" d="M509.5,-55.54C509.5,-46.96 509.5,-37.61 509.5,-30.16"/>
<polygon fill="#63b8ff" stroke="#63b8ff" points="506,-55.8 509.5,-65.8 513,-55.8 506,-55.8"/>
</g>
<!-- Node12&#45;&gt;Node6 -->
<g id="edge14" class="edge">
<title>Node12&#45;&gt;Node6</title>
<path fill="none" stroke="#63b8ff" d="M693.68,-66.03C1049.14,-18.67 1144.67,-67.5 1497.5,-30 1511.74,-28.49 1527.24,-26.08 1540.95,-23.69"/>
<polygon fill="#63b8ff" stroke="#63b8ff" points="693.07,-62.58 683.63,-67.38 694.01,-69.52 693.07,-62.58"/>
</g>
<!-- Node13 -->
<g id="node13" class="node">
<title>Node13</title>
<g id="a_node13"><a xlink:href="DeleteAction_8cpp.html" target="_top" xlink:title=" ">
<polygon fill="white" stroke="#666666" points="683.5,-30 579.5,-30 579.5,0 683.5,0 683.5,-30"/>
<text text-anchor="start" x="587.5" y="-18" font-family="Helvetica,sans-Serif" font-size="10.00">src/action/foreach</text>
<text text-anchor="middle" x="631.5" y="-7" font-family="Helvetica,sans-Serif" font-size="10.00">/DeleteAction.cpp</text>
</a>
</g>
</g>
<!-- Node12&#45;&gt;Node13 -->
<g id="edge13" class="edge">
<title>Node12&#45;&gt;Node13</title>
<path fill="none" stroke="#63b8ff" d="M631.5,-55.54C631.5,-46.96 631.5,-37.61 631.5,-30.16"/>
<polygon fill="#63b8ff" stroke="#63b8ff" points="628,-55.8 631.5,-65.8 635,-55.8 628,-55.8"/>
</g>
<!-- Node14&#45;&gt;Node6 -->
<g id="edge17" class="edge">
<title>Node14&#45;&gt;Node6</title>
<path fill="none" stroke="#63b8ff" d="M815.74,-66.17C1117.91,-25.25 1199.04,-62.94 1497.5,-30 1511.73,-28.43 1527.23,-26.01 1540.94,-23.62"/>
<polygon fill="#63b8ff" stroke="#63b8ff" points="815.25,-62.71 805.82,-67.53 816.2,-69.64 815.25,-62.71"/>
</g>
<!-- Node15 -->
<g id="node15" class="node">
<title>Node15</title>
<g id="a_node15"><a xlink:href="MoveAction_8cpp.html" target="_top" xlink:title=" ">
<polygon fill="white" stroke="#666666" points="805.5,-30 701.5,-30 701.5,0 805.5,0 805.5,-30"/>
<text text-anchor="start" x="709.5" y="-18" font-family="Helvetica,sans-Serif" font-size="10.00">src/action/foreach</text>
<text text-anchor="middle" x="753.5" y="-7" font-family="Helvetica,sans-Serif" font-size="10.00">/MoveAction.cpp</text>
</a>
</g>
</g>
<!-- Node14&#45;&gt;Node15 -->
<g id="edge16" class="edge">
<title>Node14&#45;&gt;Node15</title>
<path fill="none" stroke="#63b8ff" d="M753.5,-55.54C753.5,-46.96 753.5,-37.61 753.5,-30.16"/>
<polygon fill="#63b8ff" stroke="#63b8ff" points="750,-55.8 753.5,-65.8 757,-55.8 750,-55.8"/>
</g>
<!-- Node17 -->
<g id="node17" class="node">
<title>Node17</title>
<g id="a_node17"><a xlink:href="OnceAction_8cpp.html" target="_top" xlink:title=" ">
<polygon fill="white" stroke="#666666" points="2859,-90.5 2716,-90.5 2716,-71.5 2859,-71.5 2859,-90.5"/>
<text text-anchor="middle" x="2787.5" y="-78.5" font-family="Helvetica,sans-Serif" font-size="10.00">src/action/OnceAction.cpp</text>
</a>
</g>
</g>
<!-- Node16&#45;&gt;Node17 -->
<g id="edge19" class="edge">
<title>Node16&#45;&gt;Node17</title>
<path fill="none" stroke="#63b8ff" d="M2082.49,-138.35C2211.26,-134.1 2480.43,-122.64 2706.5,-96 2718.41,-94.6 2731.22,-92.61 2743.06,-90.57"/>
<polygon fill="#63b8ff" stroke="#63b8ff" points="2082.22,-134.86 2072.34,-138.68 2082.45,-141.85 2082.22,-134.86"/>
</g>
<!-- Node18 -->
<g id="node18" class="node">
<title>Node18</title>
<g id="a_node18"><a xlink:href="ConcatAction_8h.html" target="_top" xlink:title=" ">
<polygon fill="white" stroke="#666666" points="3199,-90.5 3032,-90.5 3032,-71.5 3199,-71.5 3199,-90.5"/>
<text text-anchor="middle" x="3115.5" y="-78.5" font-family="Helvetica,sans-Serif" font-size="10.00">src/action/once/ConcatAction.h</text>
</a>
</g>
</g>
<!-- Node16&#45;&gt;Node18 -->
<g id="edge20" class="edge">
<title>Node16&#45;&gt;Node18</title>
<path fill="none" stroke="#63b8ff" d="M2082.08,-139.92C2251.04,-138.01 2672.04,-129.96 3022.5,-96 3036.48,-94.65 3051.56,-92.62 3065.42,-90.53"/>
<polygon fill="#63b8ff" stroke="#63b8ff" points="2082,-136.42 2072.04,-140.03 2082.08,-143.42 2082,-136.42"/>
</g>
<!-- Node20 -->
<g id="node20" class="node">
<title>Node20</title>
<g id="a_node20"><a xlink:href="CreateFileAction_8h.html" target="_top" xlink:title=" ">
<polygon fill="white" stroke="#666666" points="3360,-96 3217,-96 3217,-66 3360,-66 3360,-96"/>
<text text-anchor="start" x="3225" y="-84" font-family="Helvetica,sans-Serif" font-size="10.00">src/action/once/CreateFile</text>
<text text-anchor="middle" x="3288.5" y="-73" font-family="Helvetica,sans-Serif" font-size="10.00">Action.h</text>
</a>
</g>
</g>
<!-- Node16&#45;&gt;Node20 -->
<g id="edge23" class="edge">
<title>Node16&#45;&gt;Node20</title>
<path fill="none" stroke="#63b8ff" d="M2082.36,-141.27C2272.51,-142.42 2784.6,-140.73 3208.5,-96 3211.16,-95.72 3213.87,-95.4 3216.61,-95.06"/>
<polygon fill="#63b8ff" stroke="#63b8ff" points="2082.22,-137.77 2072.2,-141.2 2082.17,-144.77 2082.22,-137.77"/>
</g>
<!-- Node22 -->
<g id="node22" class="node">
<title>Node22</title>
<g id="a_node22"><a xlink:href="CreateFolderAction_8h.html" target="_top" xlink:title=" ">
<polygon fill="white" stroke="#666666" points="979,-96 824,-96 824,-66 979,-66 979,-96"/>
<text text-anchor="start" x="832" y="-84" font-family="Helvetica,sans-Serif" font-size="10.00">src/action/once/CreateFolder</text>
<text text-anchor="middle" x="901.5" y="-73" font-family="Helvetica,sans-Serif" font-size="10.00">Action.h</text>
</a>
</g>
</g>
<!-- Node16&#45;&gt;Node22 -->
<g id="edge26" class="edge">
<title>Node16&#45;&gt;Node22</title>
<path fill="none" stroke="#63b8ff" d="M1930.75,-140.18C1761.4,-138.82 1339.47,-131.79 988.5,-96 985.46,-95.69 982.36,-95.34 979.23,-94.97"/>
<polygon fill="#63b8ff" stroke="#63b8ff" points="1930.78,-143.68 1940.81,-140.26 1930.83,-136.68 1930.78,-143.68"/>
</g>
<!-- Node24 -->
<g id="node24" class="node">
<title>Node24</title>
<g id="a_node24"><a xlink:href="CreateSymlinkAction_8h.html" target="_top" xlink:title=" ">
<polygon fill="white" stroke="#666666" points="1162,-96 997,-96 997,-66 1162,-66 1162,-96"/>
<text text-anchor="start" x="1005" y="-84" font-family="Helvetica,sans-Serif" font-size="10.00">src/action/once/CreateSymlink</text>
<text text-anchor="middle" x="1079.5" y="-73" font-family="Helvetica,sans-Serif" font-size="10.00">Action.h</text>
</a>
</g>
</g>
<!-- Node16&#45;&gt;Node24 -->
<g id="edge29" class="edge">
<title>Node16&#45;&gt;Node24</title>
<path fill="none" stroke="#63b8ff" d="M1930.58,-138.94C1783.67,-135.36 1450.39,-124.58 1171.5,-96 1168.45,-95.69 1165.34,-95.34 1162.2,-94.98"/>
<polygon fill="#63b8ff" stroke="#63b8ff" points="1930.76,-142.44 1940.84,-139.18 1930.92,-135.44 1930.76,-142.44"/>
</g>
<!-- Node26 -->
<g id="node26" class="node">
<title>Node26</title>
<g id="a_node26"><a xlink:href="CursorDownAction_8h.html" target="_top" xlink:title=" ">
<polygon fill="white" stroke="#666666" points="1332.5,-96 1180.5,-96 1180.5,-66 1332.5,-66 1332.5,-96"/>
<text text-anchor="start" x="1188.5" y="-84" font-family="Helvetica,sans-Serif" font-size="10.00">src/action/once/CursorDown</text>
<text text-anchor="middle" x="1256.5" y="-73" font-family="Helvetica,sans-Serif" font-size="10.00">Action.h</text>
</a>
</g>
</g>
<!-- Node16&#45;&gt;Node26 -->
<g id="edge32" class="edge">
<title>Node16&#45;&gt;Node26</title>
<path fill="none" stroke="#63b8ff" d="M1930.58,-137.8C1806.87,-132.87 1554.2,-120.58 1341.5,-96 1338.68,-95.67 1335.81,-95.32 1332.91,-94.94"/>
<polygon fill="#63b8ff" stroke="#63b8ff" points="1930.58,-141.31 1940.71,-138.2 1930.85,-134.31 1930.58,-141.31"/>
</g>
<!-- Node28 -->
<g id="node28" class="node">
<title>Node28</title>
<g id="a_node28"><a xlink:href="CursorUpAction_8h.html" target="_top" xlink:title=" ">
<polygon fill="white" stroke="#666666" points="1488.5,-96 1350.5,-96 1350.5,-66 1488.5,-66 1488.5,-96"/>
<text text-anchor="start" x="1358.5" y="-84" font-family="Helvetica,sans-Serif" font-size="10.00">src/action/once/CursorUp</text>
<text text-anchor="middle" x="1419.5" y="-73" font-family="Helvetica,sans-Serif" font-size="10.00">Action.h</text>
</a>
</g>
</g>
<!-- Node16&#45;&gt;Node28 -->
<g id="edge35" class="edge">
<title>Node16&#45;&gt;Node28</title>
<path fill="none" stroke="#63b8ff" d="M1930.53,-136.01C1830.84,-129.62 1650.57,-116.39 1497.5,-96 1494.64,-95.62 1491.72,-95.21 1488.77,-94.77"/>
<polygon fill="#63b8ff" stroke="#63b8ff" points="1930.61,-139.52 1940.81,-136.66 1931.05,-132.54 1930.61,-139.52"/>
</g>
<!-- Node30 -->
<g id="node30" class="node">
<title>Node30</title>
<g id="a_node30"><a xlink:href="DeduplicateAction_8h.html" target="_top" xlink:title=" ">
<polygon fill="white" stroke="#666666" points="1812.5,-96 1660.5,-96 1660.5,-66 1812.5,-66 1812.5,-96"/>
<text text-anchor="start" x="1668.5" y="-84" font-family="Helvetica,sans-Serif" font-size="10.00">src/action/once/Deduplicate</text>
<text text-anchor="middle" x="1736.5" y="-73" font-family="Helvetica,sans-Serif" font-size="10.00">Action.h</text>
</a>
</g>
</g>
<!-- Node16&#45;&gt;Node30 -->
<g id="edge38" class="edge">
<title>Node16&#45;&gt;Node30</title>
<path fill="none" stroke="#63b8ff" d="M1957.4,-129.86C1913.59,-120.37 1849.14,-106.41 1801.15,-96.01"/>
<polygon fill="#63b8ff" stroke="#63b8ff" points="1956.73,-133.3 1967.24,-131.99 1958.21,-126.46 1956.73,-133.3"/>
</g>
<!-- Node32 -->
<g id="node32" class="node">
<title>Node32</title>
<g id="a_node32"><a xlink:href="GoBackAction_8h.html" target="_top" xlink:title=" ">
<polygon fill="white" stroke="#666666" points="2000.5,-90.5 1830.5,-90.5 1830.5,-71.5 2000.5,-71.5 2000.5,-90.5"/>
<text text-anchor="middle" x="1915.5" y="-78.5" font-family="Helvetica,sans-Serif" font-size="10.00">src/action/once/GoBackAction.h</text>
</a>
</g>
</g>
<!-- Node16&#45;&gt;Node32 -->
<g id="edge41" class="edge">
<title>Node16&#45;&gt;Node32</title>
<path fill="none" stroke="#63b8ff" d="M1984.19,-126.16C1966.9,-115.05 1943.52,-100.01 1928.98,-90.67"/>
<polygon fill="#63b8ff" stroke="#63b8ff" points="1982.77,-129.4 1993.07,-131.87 1986.55,-123.52 1982.77,-129.4"/>
</g>
<!-- Node34 -->
<g id="node34" class="node">
<title>Node34</title>
<g id="a_node34"><a xlink:href="ManualSelectAction_8h.html" target="_top" xlink:title=" ">
<polygon fill="white" stroke="#666666" points="2178,-96 2019,-96 2019,-66 2178,-66 2178,-96"/>
<text text-anchor="start" x="2027" y="-84" font-family="Helvetica,sans-Serif" font-size="10.00">src/action/once/ManualSelect</text>
<text text-anchor="middle" x="2098.5" y="-73" font-family="Helvetica,sans-Serif" font-size="10.00">Action.h</text>
</a>
</g>
</g>
<!-- Node16&#45;&gt;Node34 -->
<g id="edge44" class="edge">
<title>Node16&#45;&gt;Node34</title>
<path fill="none" stroke="#63b8ff" d="M2028.84,-126.29C2043.25,-117.13 2061.92,-105.26 2076.3,-96.11"/>
<polygon fill="#63b8ff" stroke="#63b8ff" points="2026.64,-123.55 2020.07,-131.87 2030.39,-129.46 2026.64,-123.55"/>
</g>
<!-- Node36 -->
<g id="node36" class="node">
<title>Node36</title>
<g id="a_node36"><a xlink:href="OpenAction_8h.html" target="_top" xlink:title=" ">
<polygon fill="white" stroke="#666666" points="2353.5,-90.5 2195.5,-90.5 2195.5,-71.5 2353.5,-71.5 2353.5,-90.5"/>
<text text-anchor="middle" x="2274.5" y="-78.5" font-family="Helvetica,sans-Serif" font-size="10.00">src/action/once/OpenAction.h</text>
</a>
</g>
</g>
<!-- Node16&#45;&gt;Node36 -->
<g id="edge47" class="edge">
<title>Node16&#45;&gt;Node36</title>
<path fill="none" stroke="#63b8ff" d="M2055.42,-129.82C2107.18,-118.52 2187.83,-100.92 2235.48,-90.52"/>
<polygon fill="#63b8ff" stroke="#63b8ff" points="2054.49,-126.44 2045.47,-131.99 2055.99,-133.28 2054.49,-126.44"/>
</g>
<!-- Node38 -->
<g id="node38" class="node">
<title>Node38</title>
<g id="a_node38"><a xlink:href="QuitAction_8h.html" target="_top" xlink:title=" ">
<polygon fill="white" stroke="#666666" points="2525,-90.5 2372,-90.5 2372,-71.5 2525,-71.5 2525,-90.5"/>
<text text-anchor="middle" x="2448.5" y="-78.5" font-family="Helvetica,sans-Serif" font-size="10.00">src/action/once/QuitAction.h</text>
</a>
</g>
</g>
<!-- Node16&#45;&gt;Node38 -->
<g id="edge50" class="edge">
<title>Node16&#45;&gt;Node38</title>
<path fill="none" stroke="#63b8ff" d="M2082.57,-131.82C2154.72,-123.39 2266.13,-109.86 2362.5,-96 2374.03,-94.34 2386.4,-92.41 2398.07,-90.53"/>
<polygon fill="#63b8ff" stroke="#63b8ff" points="2081.74,-128.39 2072.21,-133.02 2082.55,-135.34 2081.74,-128.39"/>
</g>
<!-- Node40 -->
<g id="node40" class="node">
<title>Node40</title>
<g id="a_node40"><a xlink:href="RegexSelectAction_8h.html" target="_top" xlink:title=" ">
<polygon fill="white" stroke="#666666" points="2697.5,-96 2543.5,-96 2543.5,-66 2697.5,-66 2697.5,-96"/>
<text text-anchor="start" x="2551.5" y="-84" font-family="Helvetica,sans-Serif" font-size="10.00">src/action/once/RegexSelect</text>
<text text-anchor="middle" x="2620.5" y="-73" font-family="Helvetica,sans-Serif" font-size="10.00">Action.h</text>
</a>
</g>
</g>
<!-- Node16&#45;&gt;Node40 -->
<g id="edge53" class="edge">
<title>Node16&#45;&gt;Node40</title>
<path fill="none" stroke="#63b8ff" d="M2082.38,-135.95C2185.12,-129.38 2374.07,-115.79 2534.5,-96 2537.35,-95.65 2540.26,-95.27 2543.19,-94.88"/>
<polygon fill="#63b8ff" stroke="#63b8ff" points="2081.87,-132.48 2072.11,-136.61 2082.31,-139.47 2081.87,-132.48"/>
</g>
<!-- Node42 -->
<g id="node42" class="node">
<title>Node42</title>
<g id="a_node42"><a xlink:href="SelectByContentAction_8h.html" target="_top" xlink:title=" ">
<polygon fill="white" stroke="#666666" points="3013.5,-96 2877.5,-96 2877.5,-66 3013.5,-66 3013.5,-96"/>
<text text-anchor="start" x="2885.5" y="-84" font-family="Helvetica,sans-Serif" font-size="10.00">src/action/once/SelectBy</text>
<text text-anchor="middle" x="2945.5" y="-73" font-family="Helvetica,sans-Serif" font-size="10.00">ContentAction.h</text>
</a>
</g>
</g>
<!-- Node16&#45;&gt;Node42 -->
<g id="edge56" class="edge">
<title>Node16&#45;&gt;Node42</title>
<path fill="none" stroke="#63b8ff" d="M2082.21,-139.85C2232.58,-137.84 2579.31,-129.61 2868.5,-96 2871.33,-95.67 2874.22,-95.3 2877.13,-94.9"/>
<polygon fill="#63b8ff" stroke="#63b8ff" points="2082.12,-136.35 2072.16,-139.98 2082.21,-143.35 2082.12,-136.35"/>
</g>
<!-- Node44 -->
<g id="node44" class="node">
<title>Node44</title>
<g id="a_node44"><a xlink:href="UnselectAllAction_8h.html" target="_top" xlink:title=" ">
<polygon fill="#fff0f0" stroke="red" points="1642.5,-96 1506.5,-96 1506.5,-66 1642.5,-66 1642.5,-96"/>
<text text-anchor="start" x="1514.5" y="-84" font-family="Helvetica,sans-Serif" font-size="10.00">src/action/once/Unselect</text>
<text text-anchor="middle" x="1574.5" y="-73" font-family="Helvetica,sans-Serif" font-size="10.00">AllAction.h</text>
</a>
</g>
</g>
<!-- Node16&#45;&gt;Node44 -->
<g id="edge59" class="edge">
<title>Node16&#45;&gt;Node44</title>
<path fill="none" stroke="#63b8ff" d="M1930.59,-132.21C1858.59,-124.06 1747.47,-110.73 1651.5,-96 1648.68,-95.57 1645.8,-95.11 1642.9,-94.64"/>
<polygon fill="#63b8ff" stroke="#63b8ff" points="1930.59,-135.73 1940.92,-133.38 1931.38,-128.78 1930.59,-135.73"/>
</g>
<!-- Node18&#45;&gt;Node6 -->
<g id="edge22" class="edge">
<title>Node18&#45;&gt;Node6</title>
<path fill="none" stroke="#63b8ff" d="M3056.28,-69.97C3045.09,-68.39 3033.46,-66.96 3022.5,-66 2408.22,-12 2246.32,-114.58 1635.5,-30 1626.81,-28.8 1617.52,-26.74 1609.09,-24.56"/>
<polygon fill="#63b8ff" stroke="#63b8ff" points="3056,-73.46 3066.41,-71.45 3057.02,-66.54 3056,-73.46"/>
</g>
<!-- Node19 -->
<g id="node19" class="node">
<title>Node19</title>
<g id="a_node19"><a xlink:href="ConcatAction_8cpp.html" target="_top" xlink:title=" ">
<polygon fill="white" stroke="#666666" points="3204.5,-24.5 3026.5,-24.5 3026.5,-5.5 3204.5,-5.5 3204.5,-24.5"/>
<text text-anchor="middle" x="3115.5" y="-12.5" font-family="Helvetica,sans-Serif" font-size="10.00">src/action/once/ConcatAction.cpp</text>
</a>
</g>
</g>
<!-- Node18&#45;&gt;Node19 -->
<g id="edge21" class="edge">
<title>Node18&#45;&gt;Node19</title>
<path fill="none" stroke="#63b8ff" d="M3115.5,-61.08C3115.5,-49.13 3115.5,-34.22 3115.5,-24.91"/>
<polygon fill="#63b8ff" stroke="#63b8ff" points="3112,-61.37 3115.5,-71.37 3119,-61.37 3112,-61.37"/>
</g>
<!-- Node20&#45;&gt;Node6 -->
<g id="edge25" class="edge">
<title>Node20&#45;&gt;Node6</title>
<path fill="none" stroke="#63b8ff" d="M3206.57,-65.94C2844.28,-32.61 1978.7,-76.99 1635.5,-30 1626.71,-28.8 1617.31,-26.71 1608.8,-24.51"/>
<polygon fill="#63b8ff" stroke="#63b8ff" points="3206.32,-69.43 3216.61,-66.89 3206.99,-62.46 3206.32,-69.43"/>
</g>
<!-- Node21 -->
<g id="node21" class="node">
<title>Node21</title>
<g id="a_node21"><a xlink:href="CreateFileAction_8cpp.html" target="_top" xlink:title=" ">
<polygon fill="white" stroke="#666666" points="3366,-30 3223,-30 3223,0 3366,0 3366,-30"/>
<text text-anchor="start" x="3231" y="-18" font-family="Helvetica,sans-Serif" font-size="10.00">src/action/once/CreateFile</text>
<text text-anchor="middle" x="3294.5" y="-7" font-family="Helvetica,sans-Serif" font-size="10.00">Action.cpp</text>
</a>
</g>
</g>
<!-- Node20&#45;&gt;Node21 -->
<g id="edge24" class="edge">
<title>Node20&#45;&gt;Node21</title>
<path fill="none" stroke="#63b8ff" d="M3290.77,-55.83C3291.58,-47.17 3292.47,-37.7 3293.17,-30.16"/>
<polygon fill="#63b8ff" stroke="#63b8ff" points="3287.28,-55.51 3289.83,-65.8 3294.25,-56.17 3287.28,-55.51"/>
</g>
<!-- Node22&#45;&gt;Node6 -->
<g id="edge28" class="edge">
<title>Node22&#45;&gt;Node6</title>
<path fill="none" stroke="#63b8ff" d="M989.44,-65.97C1215.54,-40.45 1275.61,-56.5 1497.5,-30 1511.72,-28.3 1527.22,-25.85 1540.93,-23.48"/>
<polygon fill="#63b8ff" stroke="#63b8ff" points="988.78,-62.52 979.24,-67.14 989.57,-69.48 988.78,-62.52"/>
</g>
<!-- Node23 -->
<g id="node23" class="node">
<title>Node23</title>
<g id="a_node23"><a xlink:href="CreateFolderAction_8cpp.html" target="_top" xlink:title=" ">
<polygon fill="white" stroke="#666666" points="979,-30 824,-30 824,0 979,0 979,-30"/>
<text text-anchor="start" x="832" y="-18" font-family="Helvetica,sans-Serif" font-size="10.00">src/action/once/CreateFolder</text>
<text text-anchor="middle" x="901.5" y="-7" font-family="Helvetica,sans-Serif" font-size="10.00">Action.cpp</text>
</a>
</g>
</g>
<!-- Node22&#45;&gt;Node23 -->
<g id="edge27" class="edge">
<title>Node22&#45;&gt;Node23</title>
<path fill="none" stroke="#63b8ff" d="M901.5,-55.54C901.5,-46.96 901.5,-37.61 901.5,-30.16"/>
<polygon fill="#63b8ff" stroke="#63b8ff" points="898,-55.8 901.5,-65.8 905,-55.8 898,-55.8"/>
</g>
<!-- Node24&#45;&gt;Node6 -->
<g id="edge31" class="edge">
<title>Node24&#45;&gt;Node6</title>
<path fill="none" stroke="#63b8ff" d="M1172.42,-65.92C1317.75,-47.16 1356.37,-49.68 1497.5,-30 1511.68,-28.02 1527.17,-25.51 1540.89,-23.16"/>
<polygon fill="#63b8ff" stroke="#63b8ff" points="1171.69,-62.48 1162.23,-67.25 1172.6,-69.43 1171.69,-62.48"/>
</g>
<!-- Node25 -->
<g id="node25" class="node">
<title>Node25</title>
<g id="a_node25"><a xlink:href="CreateSymlinkAction_8cpp.html" target="_top" xlink:title=" ">
<polygon fill="white" stroke="#666666" points="1162,-30 997,-30 997,0 1162,0 1162,-30"/>
<text text-anchor="start" x="1005" y="-18" font-family="Helvetica,sans-Serif" font-size="10.00">src/action/once/CreateSymlink</text>
<text text-anchor="middle" x="1079.5" y="-7" font-family="Helvetica,sans-Serif" font-size="10.00">Action.cpp</text>
</a>
</g>
</g>
<!-- Node24&#45;&gt;Node25 -->
<g id="edge30" class="edge">
<title>Node24&#45;&gt;Node25</title>
<path fill="none" stroke="#63b8ff" d="M1079.5,-55.54C1079.5,-46.96 1079.5,-37.61 1079.5,-30.16"/>
<polygon fill="#63b8ff" stroke="#63b8ff" points="1076,-55.8 1079.5,-65.8 1083,-55.8 1076,-55.8"/>
</g>
<!-- Node26&#45;&gt;Node6 -->
<g id="edge34" class="edge">
<title>Node26&#45;&gt;Node6</title>
<path fill="none" stroke="#63b8ff" d="M1337.78,-63.94C1402.49,-51.16 1490.27,-33.82 1540.6,-23.88"/>
<polygon fill="#63b8ff" stroke="#63b8ff" points="1336.74,-60.58 1327.6,-65.95 1338.09,-67.45 1336.74,-60.58"/>
</g>
<!-- Node27 -->
<g id="node27" class="node">
<title>Node27</title>
<g id="a_node27"><a xlink:href="CursorDownAction_8cpp.html" target="_top" xlink:title=" ">
<polygon fill="white" stroke="#666666" points="1332.5,-30 1180.5,-30 1180.5,0 1332.5,0 1332.5,-30"/>
<text text-anchor="start" x="1188.5" y="-18" font-family="Helvetica,sans-Serif" font-size="10.00">src/action/once/CursorDown</text>
<text text-anchor="middle" x="1256.5" y="-7" font-family="Helvetica,sans-Serif" font-size="10.00">Action.cpp</text>
</a>
</g>
</g>
<!-- Node26&#45;&gt;Node27 -->
<g id="edge33" class="edge">
<title>Node26&#45;&gt;Node27</title>
<path fill="none" stroke="#63b8ff" d="M1256.5,-55.54C1256.5,-46.96 1256.5,-37.61 1256.5,-30.16"/>
<polygon fill="#63b8ff" stroke="#63b8ff" points="1253,-55.8 1256.5,-65.8 1260,-55.8 1253,-55.8"/>
</g>
<!-- Node28&#45;&gt;Node6 -->
<g id="edge37" class="edge">
<title>Node28&#45;&gt;Node6</title>
<path fill="none" stroke="#63b8ff" d="M1464.13,-62.26C1495.09,-49.95 1534.95,-34.11 1559.07,-24.52"/>
<polygon fill="#63b8ff" stroke="#63b8ff" points="1462.83,-59.01 1454.83,-65.95 1465.42,-65.51 1462.83,-59.01"/>
</g>
<!-- Node29 -->
<g id="node29" class="node">
<title>Node29</title>
<g id="a_node29"><a xlink:href="CursorUpAction_8cpp.html" target="_top" xlink:title=" ">
<polygon fill="white" stroke="#666666" points="1488.5,-30 1350.5,-30 1350.5,0 1488.5,0 1488.5,-30"/>
<text text-anchor="start" x="1358.5" y="-18" font-family="Helvetica,sans-Serif" font-size="10.00">src/action/once/CursorUp</text>
<text text-anchor="middle" x="1419.5" y="-7" font-family="Helvetica,sans-Serif" font-size="10.00">Action.cpp</text>
</a>
</g>
</g>
<!-- Node28&#45;&gt;Node29 -->
<g id="edge36" class="edge">
<title>Node28&#45;&gt;Node29</title>
<path fill="none" stroke="#63b8ff" d="M1419.5,-55.54C1419.5,-46.96 1419.5,-37.61 1419.5,-30.16"/>
<polygon fill="#63b8ff" stroke="#63b8ff" points="1416,-55.8 1419.5,-65.8 1423,-55.8 1416,-55.8"/>
</g>
<!-- Node30&#45;&gt;Node6 -->
<g id="edge40" class="edge">
<title>Node30&#45;&gt;Node6</title>
<path fill="none" stroke="#63b8ff" d="M1692.87,-62.1C1662.92,-49.82 1624.53,-34.06 1601.26,-24.52"/>
<polygon fill="#63b8ff" stroke="#63b8ff" points="1691.68,-65.4 1702.27,-65.95 1694.34,-58.92 1691.68,-65.4"/>
</g>
<!-- Node31 -->
<g id="node31" class="node">
<title>Node31</title>
<g id="a_node31"><a xlink:href="DeduplicateAction_8cpp.html" target="_top" xlink:title=" ">
<polygon fill="white" stroke="#666666" points="1796.5,-30 1644.5,-30 1644.5,0 1796.5,0 1796.5,-30"/>
<text text-anchor="start" x="1652.5" y="-18" font-family="Helvetica,sans-Serif" font-size="10.00">src/action/once/Deduplicate</text>
<text text-anchor="middle" x="1720.5" y="-7" font-family="Helvetica,sans-Serif" font-size="10.00">Action.cpp</text>
</a>
</g>
</g>
<!-- Node30&#45;&gt;Node31 -->
<g id="edge39" class="edge">
<title>Node30&#45;&gt;Node31</title>
<path fill="none" stroke="#63b8ff" d="M1730.46,-55.83C1728.29,-47.17 1725.92,-37.7 1724.04,-30.16"/>
<polygon fill="#63b8ff" stroke="#63b8ff" points="1727.13,-56.94 1732.95,-65.8 1733.92,-55.25 1727.13,-56.94"/>
</g>
<!-- Node32&#45;&gt;Node6 -->
<g id="edge43" class="edge">
<title>Node32&#45;&gt;Node6</title>
<path fill="none" stroke="#63b8ff" d="M1851.13,-69.87C1794.21,-60.59 1709.03,-45.9 1635.5,-30 1627.99,-28.38 1619.95,-26.44 1612.4,-24.54"/>
<polygon fill="#63b8ff" stroke="#63b8ff" points="1850.64,-73.33 1861.07,-71.48 1851.76,-66.42 1850.64,-73.33"/>
</g>
<!-- Node33 -->
<g id="node33" class="node">
<title>Node33</title>
<g id="a_node33"><a xlink:href="GoBackAction_8cpp.html" target="_top" xlink:title=" ">
<polygon fill="white" stroke="#666666" points="1996.5,-24.5 1814.5,-24.5 1814.5,-5.5 1996.5,-5.5 1996.5,-24.5"/>
<text text-anchor="middle" x="1905.5" y="-12.5" font-family="Helvetica,sans-Serif" font-size="10.00">src/action/once/GoBackAction.cpp</text>
</a>
</g>
</g>
<!-- Node32&#45;&gt;Node33 -->
<g id="edge42" class="edge">
<title>Node32&#45;&gt;Node33</title>
<path fill="none" stroke="#63b8ff" d="M1912.6,-61.45C1910.72,-49.43 1908.36,-34.32 1906.89,-24.91"/>
<polygon fill="#63b8ff" stroke="#63b8ff" points="1909.15,-62.03 1914.15,-71.37 1916.07,-60.95 1909.15,-62.03"/>
</g>
<!-- Node34&#45;&gt;Node6 -->
<g id="edge46" class="edge">
<title>Node34&#45;&gt;Node6</title>
<path fill="none" stroke="#63b8ff" d="M2008.84,-65.98C1842.08,-45.53 1796.8,-58.12 1635.5,-30 1627.35,-28.58 1618.62,-26.58 1610.58,-24.54"/>
<polygon fill="#63b8ff" stroke="#63b8ff" points="2008.6,-69.48 2018.96,-67.25 2009.47,-62.53 2008.6,-69.48"/>
</g>
<!-- Node35 -->
<g id="node35" class="node">
<title>Node35</title>
<g id="a_node35"><a xlink:href="ManualSelectAction_8cpp.html" target="_top" xlink:title=" ">
<polygon fill="white" stroke="#666666" points="2174,-30 2015,-30 2015,0 2174,0 2174,-30"/>
<text text-anchor="start" x="2023" y="-18" font-family="Helvetica,sans-Serif" font-size="10.00">src/action/once/ManualSelect</text>
<text text-anchor="middle" x="2094.5" y="-7" font-family="Helvetica,sans-Serif" font-size="10.00">Action.cpp</text>
</a>
</g>
</g>
<!-- Node34&#45;&gt;Node35 -->
<g id="edge45" class="edge">
<title>Node34&#45;&gt;Node35</title>
<path fill="none" stroke="#63b8ff" d="M2096.97,-55.54C2096.44,-46.96 2095.85,-37.61 2095.39,-30.16"/>
<polygon fill="#63b8ff" stroke="#63b8ff" points="2093.5,-56.03 2097.61,-65.8 2100.48,-55.6 2093.5,-56.03"/>
</g>
<!-- Node36&#45;&gt;Node6 -->
<g id="edge49" class="edge">
<title>Node36&#45;&gt;Node6</title>
<path fill="none" stroke="#63b8ff" d="M2216.74,-69.92C2207,-68.45 2196.98,-67.07 2187.5,-66 1943.2,-38.44 1878.32,-68.49 1635.5,-30 1627.13,-28.67 1618.18,-26.66 1609.98,-24.57"/>
<polygon fill="#63b8ff" stroke="#63b8ff" points="2216.33,-73.4 2226.75,-71.48 2217.41,-66.48 2216.33,-73.4"/>
</g>
<!-- Node37 -->
<g id="node37" class="node">
<title>Node37</title>
<g id="a_node37"><a xlink:href="OpenAction_8cpp.html" target="_top" xlink:title=" ">
<polygon fill="white" stroke="#666666" points="2362.5,-24.5 2192.5,-24.5 2192.5,-5.5 2362.5,-5.5 2362.5,-24.5"/>
<text text-anchor="middle" x="2277.5" y="-12.5" font-family="Helvetica,sans-Serif" font-size="10.00">src/action/once/OpenAction.cpp</text>
</a>
</g>
</g>
<!-- Node36&#45;&gt;Node37 -->
<g id="edge48" class="edge">
<title>Node36&#45;&gt;Node37</title>
<path fill="none" stroke="#63b8ff" d="M2275.39,-61.08C2275.95,-49.13 2276.65,-34.22 2277.08,-24.91"/>
<polygon fill="#63b8ff" stroke="#63b8ff" points="2271.88,-61.22 2274.9,-71.37 2278.87,-61.54 2271.88,-61.22"/>
</g>
<!-- Node38&#45;&gt;Node6 -->
<g id="edge52" class="edge">
<title>Node38&#45;&gt;Node6</title>
<path fill="none" stroke="#63b8ff" d="M2392.1,-69.89C2382.26,-68.4 2372.1,-67.02 2362.5,-66 2040.79,-31.96 1955.41,-78.14 1635.5,-30 1626.93,-28.71 1617.75,-26.65 1609.39,-24.51"/>
<polygon fill="#63b8ff" stroke="#63b8ff" points="2391.79,-73.39 2402.21,-71.49 2392.88,-66.47 2391.79,-73.39"/>
</g>
<!-- Node39 -->
<g id="node39" class="node">
<title>Node39</title>
<g id="a_node39"><a xlink:href="QuitAction_8cpp.html" target="_top" xlink:title=" ">
<polygon fill="white" stroke="#666666" points="2544.5,-24.5 2380.5,-24.5 2380.5,-5.5 2544.5,-5.5 2544.5,-24.5"/>
<text text-anchor="middle" x="2462.5" y="-12.5" font-family="Helvetica,sans-Serif" font-size="10.00">src/action/once/QuitAction.cpp</text>
</a>
</g>
</g>
<!-- Node38&#45;&gt;Node39 -->
<g id="edge51" class="edge">
<title>Node38&#45;&gt;Node39</title>
<path fill="none" stroke="#63b8ff" d="M2452.56,-61.45C2455.19,-49.43 2458.49,-34.32 2460.55,-24.91"/>
<polygon fill="#63b8ff" stroke="#63b8ff" points="2449.11,-60.85 2450.39,-71.37 2455.94,-62.35 2449.11,-60.85"/>
</g>
<!-- Node40&#45;&gt;Node6 -->
<g id="edge55" class="edge">
<title>Node40&#45;&gt;Node6</title>
<path fill="none" stroke="#63b8ff" d="M2533.14,-65.96C2134.88,-26.82 2027.92,-87.16 1635.5,-30 1626.92,-28.75 1617.74,-26.71 1609.39,-24.56"/>
<polygon fill="#63b8ff" stroke="#63b8ff" points="2532.91,-69.45 2543.2,-66.96 2533.6,-62.49 2532.91,-69.45"/>
</g>
<!-- Node41 -->
<g id="node41" class="node">
<title>Node41</title>
<g id="a_node41"><a xlink:href="RegexSelectAction_8cpp.html" target="_top" xlink:title=" ">
<polygon fill="white" stroke="#666666" points="2716.5,-30 2562.5,-30 2562.5,0 2716.5,0 2716.5,-30"/>
<text text-anchor="start" x="2570.5" y="-18" font-family="Helvetica,sans-Serif" font-size="10.00">src/action/once/RegexSelect</text>
<text text-anchor="middle" x="2639.5" y="-7" font-family="Helvetica,sans-Serif" font-size="10.00">Action.cpp</text>
</a>
</g>
</g>
<!-- Node40&#45;&gt;Node41 -->
<g id="edge54" class="edge">
<title>Node40&#45;&gt;Node41</title>
<path fill="none" stroke="#63b8ff" d="M2627.59,-56.11C2630.19,-47.38 2633.03,-37.78 2635.3,-30.16"/>
<polygon fill="#63b8ff" stroke="#63b8ff" points="2624.21,-55.21 2624.72,-65.8 2630.92,-57.21 2624.21,-55.21"/>
</g>
<!-- Node42&#45;&gt;Node6 -->
<g id="edge58" class="edge">
<title>Node42&#45;&gt;Node6</title>
<path fill="none" stroke="#63b8ff" d="M2867.05,-65.97C2321.48,-9.98 2175.12,-105.61 1635.5,-30 1626.82,-28.78 1617.52,-26.72 1609.09,-24.55"/>
<polygon fill="#63b8ff" stroke="#63b8ff" points="2866.84,-69.47 2877.14,-67.02 2867.56,-62.51 2866.84,-69.47"/>
</g>
<!-- Node43 -->
<g id="node43" class="node">
<title>Node43</title>
<g id="a_node43"><a xlink:href="SelectByContentAction_8cpp.html" target="_top" xlink:title=" ">
<polygon fill="white" stroke="#666666" points="3008.5,-30 2872.5,-30 2872.5,0 3008.5,0 3008.5,-30"/>
<text text-anchor="start" x="2880.5" y="-18" font-family="Helvetica,sans-Serif" font-size="10.00">src/action/once/SelectBy</text>
<text text-anchor="middle" x="2940.5" y="-7" font-family="Helvetica,sans-Serif" font-size="10.00">ContentAction.cpp</text>
</a>
</g>
</g>
<!-- Node42&#45;&gt;Node43 -->
<g id="edge57" class="edge">
<title>Node42&#45;&gt;Node43</title>
<path fill="none" stroke="#63b8ff" d="M2943.61,-55.83C2942.94,-47.17 2942.2,-37.7 2941.61,-30.16"/>
<polygon fill="#63b8ff" stroke="#63b8ff" points="2940.12,-56.1 2944.39,-65.8 2947.1,-55.55 2940.12,-56.1"/>
</g>
<!-- Node44&#45;&gt;Node6 -->
<g id="edge60" class="edge">
<title>Node44&#45;&gt;Node6</title>
<path fill="none" stroke="#63b8ff" d="M1576.79,-55.6C1577.8,-44.8 1578.93,-32.78 1579.67,-24.84"/>
<polygon fill="#63b8ff" stroke="#63b8ff" points="1573.28,-55.51 1575.83,-65.8 1580.25,-56.17 1573.28,-55.51"/>
</g>
<!-- Node46&#45;&gt;Node4 -->
<g id="edge62" class="edge">
<title>Node46&#45;&gt;Node4</title>
<path fill="none" stroke="#63b8ff" d="M163.99,-128.08C137.14,-116.78 98.22,-100.4 74.74,-90.52"/>
<polygon fill="#63b8ff" stroke="#63b8ff" points="162.71,-131.34 173.29,-131.99 165.43,-124.89 162.71,-131.34"/>
</g>
<!-- Node47 -->
<g id="node46" class="node">
<title>Node47</title>
<g id="a_node46"><a xlink:href="Interface_8cpp.html" target="_top" xlink:title=" ">
<polygon fill="white" stroke="#666666" points="265.5,-90.5 121.5,-90.5 121.5,-71.5 265.5,-71.5 265.5,-90.5"/>
<text text-anchor="middle" x="193.5" y="-78.5" font-family="Helvetica,sans-Serif" font-size="10.00">src/interface/Interface.cpp</text>
</a>
</g>
</g>
<!-- Node46&#45;&gt;Node47 -->
<g id="edge63" class="edge">
<title>Node46&#45;&gt;Node47</title>
<path fill="none" stroke="#63b8ff" d="M193.5,-121.66C193.5,-111.24 193.5,-98.8 193.5,-90.67"/>
<polygon fill="#63b8ff" stroke="#63b8ff" points="190,-121.87 193.5,-131.87 197,-121.87 190,-121.87"/>
</g>
</g>
</svg>
