<?xml version="1.0" encoding="UTF-8" standalone="no"?>
<!DOCTYPE svg PUBLIC "-//W3C//DTD SVG 1.1//EN"
 "http://www.w3.org/Graphics/SVG/1.1/DTD/svg11.dtd">
<!-- Generated by graphviz version 2.43.0 (0)
 -->
<!-- Title: src/Utility.cpp Pages: 1 -->
<svg width="545pt" height="192pt"
 viewBox="0.00 0.00 544.50 192.00" xmlns="http://www.w3.org/2000/svg" xmlns:xlink="http://www.w3.org/1999/xlink">
<g id="graph0" class="graph" transform="scale(1 1) rotate(0) translate(4 188)">
<title>src/Utility.cpp</title>
<!-- Node1 -->
<g id="node1" class="node">
<title>Node1</title>
<g id="a_node1"><a xlink:title=" ">
<polygon fill="#999999" stroke="#666666" points="308.5,-184 225.5,-184 225.5,-165 308.5,-165 308.5,-184"/>
<text text-anchor="middle" x="267" y="-172" font-family="Helvetica,sans-Serif" font-size="10.00">src/Utility.cpp</text>
</a>
</g>
</g>
<!-- Node2 -->
<g id="node2" class="node">
<title>Node2</title>
<g id="a_node2"><a xlink:href="Utility_8h.html" target="_top" xlink:title=" ">
<polygon fill="white" stroke="#666666" points="54,-129 0,-129 0,-110 54,-110 54,-129"/>
<text text-anchor="middle" x="27" y="-117" font-family="Helvetica,sans-Serif" font-size="10.00">Utility.h</text>
</a>
</g>
</g>
<!-- Node1&#45;&gt;Node2 -->
<g id="edge1" class="edge">
<title>Node1&#45;&gt;Node2</title>
<path fill="none" stroke="#63b8ff" d="M226.7,-164.92C187.61,-156.55 126.35,-143.32 64.11,-129.22"/>
<polygon fill="#63b8ff" stroke="#63b8ff" points="64.64,-125.75 54.12,-126.95 63.09,-132.58 64.64,-125.75"/>
</g>
<!-- Node7 -->
<g id="node7" class="node">
<title>Node7</title>
<g id="a_node7"><a xlink:title=" ">
<polygon fill="#e0e0e0" stroke="#999999" points="463,-129 375,-129 375,-110 463,-110 463,-129"/>
<text text-anchor="middle" x="419" y="-117" font-family="Helvetica,sans-Serif" font-size="10.00">openssl/md5.h</text>
</a>
</g>
</g>
<!-- Node1&#45;&gt;Node7 -->
<g id="edge6" class="edge">
<title>Node1&#45;&gt;Node7</title>
<path fill="none" stroke="#63b8ff" d="M291.42,-164.98C316.72,-156.16 356.45,-142.31 384.86,-132.41"/>
<polygon fill="#63b8ff" stroke="#63b8ff" points="386.1,-135.68 394.39,-129.08 383.79,-129.07 386.1,-135.68"/>
</g>
<!-- Node8 -->
<g id="node8" class="node">
<title>Node8</title>
<g id="a_node8"><a xlink:title=" ">
<polygon fill="#e0e0e0" stroke="#999999" points="536.5,-129 481.5,-129 481.5,-110 536.5,-110 536.5,-129"/>
<text text-anchor="middle" x="509" y="-117" font-family="Helvetica,sans-Serif" font-size="10.00">fstream</text>
</a>
</g>
</g>
<!-- Node1&#45;&gt;Node8 -->
<g id="edge7" class="edge">
<title>Node1&#45;&gt;Node8</title>
<path fill="none" stroke="#63b8ff" d="M307.1,-164.95C346.35,-156.54 408.1,-143.22 471.02,-129.2"/>
<polygon fill="#63b8ff" stroke="#63b8ff" points="472.13,-132.54 481.13,-126.94 470.61,-125.7 472.13,-132.54"/>
</g>
<!-- Node9 -->
<g id="node9" class="node">
<title>Node9</title>
<g id="a_node9"><a xlink:href="Symlink_8h.html" target="_top" xlink:title=" ">
<polygon fill="white" stroke="#666666" points="166,-129 72,-129 72,-110 166,-110 166,-129"/>
<text text-anchor="middle" x="119" y="-117" font-family="Helvetica,sans-Serif" font-size="10.00">entry/Symlink.h</text>
</a>
</g>
</g>
<!-- Node1&#45;&gt;Node9 -->
<g id="edge8" class="edge">
<title>Node1&#45;&gt;Node9</title>
<path fill="none" stroke="#63b8ff" d="M243.22,-164.98C218.77,-156.23 180.47,-142.51 152.85,-132.62"/>
<polygon fill="#63b8ff" stroke="#63b8ff" points="153.81,-129.25 143.21,-129.17 151.45,-135.84 153.81,-129.25"/>
</g>
<!-- Node10 -->
<g id="node10" class="node">
<title>Node10</title>
<g id="a_node10"><a xlink:href="File_8h.html" target="_top" xlink:title=" ">
<polygon fill="white" stroke="#666666" points="255.5,-129 184.5,-129 184.5,-110 255.5,-110 255.5,-129"/>
<text text-anchor="middle" x="220" y="-117" font-family="Helvetica,sans-Serif" font-size="10.00">entry/File.h</text>
</a>
</g>
</g>
<!-- Node1&#45;&gt;Node10 -->
<g id="edge11" class="edge">
<title>Node1&#45;&gt;Node10</title>
<path fill="none" stroke="#63b8ff" d="M259.24,-164.75C252.53,-157.18 242.66,-146.05 234.49,-136.84"/>
<polygon fill="#63b8ff" stroke="#63b8ff" points="236.87,-134.25 227.62,-129.09 231.63,-138.89 236.87,-134.25"/>
</g>
<!-- Node11 -->
<g id="node11" class="node">
<title>Node11</title>
<g id="a_node11"><a xlink:href="Folder_8h.html" target="_top" xlink:title=" ">
<polygon fill="white" stroke="#666666" points="356.5,-129 273.5,-129 273.5,-110 356.5,-110 356.5,-129"/>
<text text-anchor="middle" x="315" y="-117" font-family="Helvetica,sans-Serif" font-size="10.00">entry/Folder.h</text>
</a>
</g>
</g>
<!-- Node1&#45;&gt;Node11 -->
<g id="edge14" class="edge">
<title>Node1&#45;&gt;Node11</title>
<path fill="none" stroke="#63b8ff" d="M274.93,-164.75C281.85,-157.11 292.07,-145.82 300.45,-136.56"/>
<polygon fill="#63b8ff" stroke="#63b8ff" points="303.1,-138.85 307.22,-129.09 297.91,-134.15 303.1,-138.85"/>
</g>
<!-- Node3 -->
<g id="node3" class="node">
<title>Node3</title>
<g id="a_node3"><a xlink:title=" ">
<polygon fill="#e0e0e0" stroke="#999999" points="49,-74 5,-74 5,-55 49,-55 49,-74"/>
<text text-anchor="middle" x="27" y="-62" font-family="Helvetica,sans-Serif" font-size="10.00">string</text>
</a>
</g>
</g>
<!-- Node2&#45;&gt;Node3 -->
<g id="edge2" class="edge">
<title>Node2&#45;&gt;Node3</title>
<path fill="none" stroke="#63b8ff" d="M27,-109.75C27,-102.8 27,-92.85 27,-84.13"/>
<polygon fill="#63b8ff" stroke="#63b8ff" points="30.5,-84.09 27,-74.09 23.5,-84.09 30.5,-84.09"/>
</g>
<!-- Node4 -->
<g id="node4" class="node">
<title>Node4</title>
<g id="a_node4"><a xlink:href="Entry_8h.html" target="_top" xlink:title=" ">
<polygon fill="white" stroke="#666666" points="225,-74 147,-74 147,-55 225,-55 225,-74"/>
<text text-anchor="middle" x="186" y="-62" font-family="Helvetica,sans-Serif" font-size="10.00">entry/Entry.h</text>
</a>
</g>
</g>
<!-- Node2&#45;&gt;Node4 -->
<g id="edge3" class="edge">
<title>Node2&#45;&gt;Node4</title>
<path fill="none" stroke="#63b8ff" d="M52.55,-109.98C79.12,-101.13 120.94,-87.19 150.67,-77.28"/>
<polygon fill="#63b8ff" stroke="#63b8ff" points="151.87,-80.56 160.25,-74.08 149.66,-73.92 151.87,-80.56"/>
</g>
<!-- Node5 -->
<g id="node5" class="node">
<title>Node5</title>
<g id="a_node5"><a xlink:title=" ">
<polygon fill="#e0e0e0" stroke="#999999" points="287,-19 219,-19 219,0 287,0 287,-19"/>
<text text-anchor="middle" x="253" y="-7" font-family="Helvetica,sans-Serif" font-size="10.00">filesystem</text>
</a>
</g>
</g>
<!-- Node4&#45;&gt;Node5 -->
<g id="edge4" class="edge">
<title>Node4&#45;&gt;Node5</title>
<path fill="none" stroke="#63b8ff" d="M196.76,-54.98C206.77,-47.07 221.89,-35.11 233.93,-25.58"/>
<polygon fill="#63b8ff" stroke="#63b8ff" points="236.37,-28.12 242.04,-19.17 232.03,-22.63 236.37,-28.12"/>
</g>
<!-- Node6 -->
<g id="node6" class="node">
<title>Node6</title>
<g id="a_node6"><a xlink:href="Modifier_8h.html" target="_top" xlink:title=" ">
<polygon fill="white" stroke="#666666" points="200.5,-19 135.5,-19 135.5,0 200.5,0 200.5,-19"/>
<text text-anchor="middle" x="168" y="-7" font-family="Helvetica,sans-Serif" font-size="10.00">Modifier.h</text>
</a>
</g>
</g>
<!-- Node4&#45;&gt;Node6 -->
<g id="edge5" class="edge">
<title>Node4&#45;&gt;Node6</title>
<path fill="none" stroke="#63b8ff" d="M183.03,-54.75C180.64,-47.72 177.21,-37.62 174.23,-28.84"/>
<polygon fill="#63b8ff" stroke="#63b8ff" points="177.45,-27.43 170.92,-19.09 170.82,-29.68 177.45,-27.43"/>
</g>
<!-- Node9&#45;&gt;Node4 -->
<g id="edge10" class="edge">
<title>Node9&#45;&gt;Node4</title>
<path fill="none" stroke="#63b8ff" d="M129.76,-109.98C139.77,-102.07 154.89,-90.11 166.93,-80.58"/>
<polygon fill="#63b8ff" stroke="#63b8ff" points="169.37,-83.12 175.04,-74.17 165.03,-77.63 169.37,-83.12"/>
</g>
<!-- Node9&#45;&gt;Node5 -->
<g id="edge9" class="edge">
<title>Node9&#45;&gt;Node5</title>
<path fill="none" stroke="#63b8ff" d="M119.25,-109.95C120.1,-96.55 123.63,-70.55 138,-55 148.5,-43.65 183.77,-30.93 212.51,-22.01"/>
<polygon fill="#63b8ff" stroke="#63b8ff" points="213.8,-25.28 222.35,-19.03 211.77,-18.58 213.8,-25.28"/>
</g>
<!-- Node10&#45;&gt;Node4 -->
<g id="edge13" class="edge">
<title>Node10&#45;&gt;Node4</title>
<path fill="none" stroke="#63b8ff" d="M214.39,-109.75C209.68,-102.42 202.83,-91.73 197.03,-82.7"/>
<polygon fill="#63b8ff" stroke="#63b8ff" points="199.86,-80.62 191.51,-74.09 193.96,-84.4 199.86,-80.62"/>
</g>
<!-- Node10&#45;&gt;Node5 -->
<g id="edge12" class="edge">
<title>Node10&#45;&gt;Node5</title>
<path fill="none" stroke="#63b8ff" d="M222.72,-109.98C225.57,-101.03 230.15,-86.54 234,-74 238.65,-58.85 243.79,-41.63 247.55,-28.95"/>
<polygon fill="#63b8ff" stroke="#63b8ff" points="250.98,-29.72 250.46,-19.14 244.26,-27.74 250.98,-29.72"/>
</g>
<!-- Node11&#45;&gt;Node4 -->
<g id="edge16" class="edge">
<title>Node11&#45;&gt;Node4</title>
<path fill="none" stroke="#63b8ff" d="M294.27,-109.98C273.24,-101.34 240.45,-87.87 216.46,-78.02"/>
<polygon fill="#63b8ff" stroke="#63b8ff" points="217.68,-74.73 207.1,-74.17 215.02,-81.21 217.68,-74.73"/>
</g>
<!-- Node11&#45;&gt;Node5 -->
<g id="edge15" class="edge">
<title>Node11&#45;&gt;Node5</title>
<path fill="none" stroke="#63b8ff" d="M309.93,-109.66C299.7,-91.85 276.46,-51.37 263.05,-28.01"/>
<polygon fill="#63b8ff" stroke="#63b8ff" points="265.98,-26.09 257.97,-19.16 259.91,-29.57 265.98,-26.09"/>
</g>
</g>
</svg>
